<svg width="25" height="26" viewBox="0 0 25 26" fill="none" xmlns="http://www.w3.org/2000/svg">
<path d="M17.36 17.728L16.8667 17.1631L16.8647 17.1648L17.36 17.728ZM17.3459 23.7213L17.3755 24.4707C17.6814 24.4586 17.9492 24.2618 18.0522 23.9736C18.1552 23.6853 18.0726 23.3634 17.8437 23.1602L17.3459 23.7213ZM22 17.2627L21.6246 17.912C21.8566 18.0461 22.1426 18.0463 22.3748 17.9123C22.607 17.7784 22.75 17.5307 22.75 17.2627H22ZM16.75 20.728C16.75 19.7545 17.1789 18.8861 17.8553 18.2912L16.8647 17.1648C15.8811 18.0298 15.25 19.3015 15.25 20.728H16.75ZM17.8437 23.1602C17.1717 22.564 16.75 21.6961 16.75 20.728H15.25C15.25 22.1425 15.8686 23.4132 16.8481 24.2823L17.8437 23.1602ZM17.3162 22.9718C17.2134 22.9759 17.108 22.978 17 22.978V24.478C17.1271 24.478 17.2523 24.4755 17.3755 24.4707L17.3162 22.9718ZM17 22.978H9V24.478H17V22.978ZM9 22.978C7.39295 22.978 6.36848 22.5226 5.73709 21.8426C5.09637 21.1526 4.75 20.113 4.75 18.728H3.25C3.25 20.343 3.65363 21.8033 4.63791 22.8633C5.63152 23.9334 7.10705 24.478 9 24.478V22.978ZM4.75 18.728V8.72798H3.25V18.728H4.75ZM4.75 8.72798C4.75 7.34295 5.09637 6.30334 5.73709 5.61332C6.36848 4.93337 7.39295 4.47798 9 4.47798V2.97798C7.10705 2.97798 5.63152 3.5226 4.63791 4.59264C3.65363 5.65263 3.25 7.11301 3.25 8.72798H4.75ZM9 4.47798H17V2.97798H9V4.47798ZM17 4.47798C18.6071 4.47798 19.6315 4.93337 20.2629 5.61332C20.9036 6.30334 21.25 7.34295 21.25 8.72798H22.75C22.75 7.11301 22.3464 5.65263 21.3621 4.59264C20.3685 3.5226 18.8929 2.97798 17 2.97798V4.47798ZM21.25 8.72798V17.2627H22.75V8.72798H21.25ZM20 17.478C20.5935 17.478 21.1475 17.6361 21.6246 17.912L22.3754 16.6134C21.676 16.2091 20.8639 15.978 20 15.978V17.478ZM17.8533 18.2929C18.4356 17.7845 19.1829 17.478 20 17.478V15.978C18.7971 15.978 17.7044 16.4315 16.8667 17.1631L17.8533 18.2929Z" fill="black"/>
<path d="M4.27429 20.728C2.19424 20.0855 1.27429 18.3494 1.27429 16V6C1.27429 3 2.77429 0.999996 6.27429 0.999996H14.2743C16.9216 0.999996 18.4248 2.14425 19 4" stroke="black" stroke-width="1.5" stroke-miterlimit="10" stroke-linecap="round" stroke-linejoin="round"/>
<path d="M10.5 6.22798V8.22798C10.5 9.32798 9.6 10.228 8.5 10.228H6.5" stroke="black" stroke-width="1.5" stroke-miterlimit="10" stroke-linecap="round" stroke-linejoin="round"/>
<path d="M9 14.728H13" stroke="black" stroke-width="1.5" stroke-miterlimit="10" stroke-linecap="round" stroke-linejoin="round"/>
<path d="M9 18.728H14" stroke="black" stroke-width="1.5" stroke-miterlimit="10" stroke-linecap="round" stroke-linejoin="round"/>
<path d="M24 20.728C24 21.928 23.47 22.998 22.64 23.728C21.93 24.348 21.01 24.728 20 24.728C17.79 24.728 16 22.938 16 20.728C16 19.468 16.58 18.338 17.5 17.608C18.19 17.058 19.06 16.728 20 16.728C22.21 16.728 24 18.518 24 20.728Z" stroke="black" stroke-width="1.5" stroke-miterlimit="10" stroke-linecap="round" stroke-linejoin="round"/>
<path d="M20.25 19.478V20.978L19 21.728" stroke="black" stroke-width="1.5" stroke-miterlimit="10" stroke-linecap="round" stroke-linejoin="round"/>
</svg>
