<svg width="375" height="812" viewBox="0 0 375 812" fill="none" xmlns="http://www.w3.org/2000/svg">
<path fill-rule="evenodd" clip-rule="evenodd" d="M362.808 364.047L362.81 364L363.313 354.621C373.046 173.008 225.753 9.23937 35.5174 -1.08762L35.4945 -1.08882C-157.521 -11.5004 -322.265 137.767 -330.175 331.396L-439.275 327.025L-330.176 331.411C-337.813 517.747 -193.644 678.546 -7.57196 691.187L-15.0489 799.96L-7.55714 691.188C185.908 704.359 352.225 556.903 362.808 364.047ZM580.344 380.411C560.731 692.405 290.834 930.098 -22.5286 908.773L-22.5435 908.772C-326.492 888.115 -560.592 626.946 -548.127 322.664L-548.127 322.649C-535.232 7.20455 -266.766 -235.828 47.4519 -218.858L47.4749 -218.857C353.458 -202.267 597.162 59.7875 581.171 365.427C581.085 367.466 580.989 369.506 580.882 371.547L580.748 374.629C580.663 376.57 580.528 378.498 580.344 380.411Z" fill="url(#paint0_linear_1639_7850)"/>
<defs>
<linearGradient id="paint0_linear_1639_7850" x1="43.5169" y1="-60.5799" x2="330.487" y2="304.788" gradientUnits="userSpaceOnUse">
<stop stop-color="#F0F0F0"/>
<stop offset="1" stop-color="#F0F0F0" stop-opacity="0"/>
</linearGradient>
</defs>
</svg>
