<svg width="86" height="42" viewBox="0 0 86 42" fill="none" xmlns="http://www.w3.org/2000/svg">
<path d="M2 10C2 5.58172 5.58172 2 10 2H76C80.4183 2 84 5.58172 84 10V32C84 36.4183 80.4183 40 76 40H10C5.58172 40 2 36.4183 2 32V10Z" stroke="url(#paint0_linear_1418_24745)" stroke-width="4"/>
<path d="M70.5 40H10C5.58172 40 2 36.4183 2 32V10C2 5.58172 5.58172 2 10 2H76C80.4183 2 84 5.58172 84 10V15.5" stroke="url(#paint1_linear_1418_24745)" stroke-width="4" stroke-linecap="round"/>
<defs>
<linearGradient id="paint0_linear_1418_24745" x1="62.5" y1="-1.99999" x2="48.6484" y2="29.1829" gradientUnits="userSpaceOnUse">
<stop stop-color="white"/>
<stop offset="1" stop-color="#78BECE"/>
</linearGradient>
<linearGradient id="paint1_linear_1418_24745" x1="41" y1="-0.873707" x2="52.9647" y2="36.42" gradientUnits="userSpaceOnUse">
<stop stop-color="#758CD2"/>
<stop offset="1" stop-color="#78BECE"/>
</linearGradient>
</defs>
</svg>
