<svg width="24" height="24" viewBox="0 0 24 24" fill="none" xmlns="http://www.w3.org/2000/svg">
<path d="M19.5 12.5C19.5 11.12 20.62 10 22 10V9C22 5 21 4 17 4H7C3 4 2 5 2 9V9.5C3.38 9.5 4.5 10.62 4.5 12C4.5 13.38 3.38 14.5 2 14.5V15C2 19 3 20 7 20H17C21 20 22 19 22 15C20.62 15 19.5 13.88 19.5 12.5Z" stroke="#8F8F8F" stroke-width="1.5" stroke-linecap="round" stroke-linejoin="round"/>
<path d="M10 4L10 20" stroke="#8F8F8F" stroke-width="1.5" stroke-linecap="round" stroke-linejoin="round" stroke-dasharray="6 6"/>
<path d="M15.024 9.33016L15.644 10.5802C15.704 10.7002 15.824 10.7902 15.954 10.8102L17.334 11.0102C17.674 11.0602 17.814 11.4802 17.564 11.7202L16.564 12.6902C16.464 12.7802 16.424 12.9202 16.444 13.0602L16.684 14.4302C16.744 14.7702 16.384 15.0302 16.084 14.8702L14.854 14.2202C14.734 14.1602 14.584 14.1602 14.464 14.2202L13.234 14.8702C12.924 15.0302 12.574 14.7702 12.634 14.4302L12.874 13.0602C12.894 12.9202 12.854 12.7902 12.754 12.6902L11.764 11.7202C11.514 11.4802 11.654 11.0602 11.994 11.0102L13.374 10.8102C13.514 10.7902 13.624 10.7102 13.684 10.5802L14.294 9.33016C14.434 9.02016 14.874 9.02016 15.024 9.33016Z" stroke="#8F8F8F" stroke-width="1.5" stroke-linecap="round" stroke-linejoin="round"/>
</svg>
