<svg width="112" height="112" viewBox="0 0 112 112" fill="none" xmlns="http://www.w3.org/2000/svg">
<circle cx="56" cy="56" r="56" fill="white" fill-opacity="0.3"/>
<circle cx="56" cy="56" r="46" fill="white" fill-opacity="0.4"/>
<circle cx="56" cy="56" r="34" stroke="#D9261F" stroke-linecap="round" stroke-dasharray="2 4 16 18"/>
<circle cx="56" cy="55.5" r="21.25" stroke="#ED6625" stroke-width="1.5"/>
<path d="M62.5 64.9999C61.8333 64.6665 60.3 64.0999 57.5 64.4999C54.253 64.9637 51 68.6666 49.5 70.4999" stroke="#ED6625" stroke-width="1.5" stroke-linecap="round" stroke-linejoin="round"/>
<path d="M42 48C43.5 47 46.4505 45 49 45C51 45 52.5 46.5 53 47" stroke="#ED6625" stroke-width="1.5" stroke-linecap="round" stroke-linejoin="round"/>
<path d="M70 48C68.5 47 65.5495 45 63 45C61 45 59.5 46.5 59 47" stroke="#ED6625" stroke-width="1.5" stroke-linecap="round" stroke-linejoin="round"/>
<path d="M53 52C52.5 54.5 50.5376 56.5 47.5 56.5C44.4624 56.5 42.5 54.5 42.5 52" stroke="#ED6625" stroke-width="1.5" stroke-linecap="round"/>
<path d="M59 52C59.5 54.5 61.4624 56.5 64.5 56.5C67.5376 56.5 69.5 54.5 69.5 52" stroke="#ED6625" stroke-width="1.5" stroke-linecap="round"/>
<path d="M77.2538 42.4254C77.0625 44.3378 75.733 45.75 74 45.75C72.267 45.75 70.9376 44.3378 70.7463 42.4254C70.5165 40.1273 71.3237 37.6515 72.2416 35.6933C72.6954 34.7252 73.165 33.9072 73.5207 33.332C73.5371 33.3056 73.5532 33.2797 73.569 33.2543C73.6052 33.3001 73.6426 33.3479 73.681 33.3974C74.1281 33.9733 74.7186 34.791 75.2927 35.7579C76.4587 37.7218 77.4791 40.1719 77.2538 42.4254Z" fill="#ED6625" stroke="white" stroke-width="1.5"/>
</svg>
