<svg width="375" height="321" viewBox="0 0 375 321" fill="none" xmlns="http://www.w3.org/2000/svg">
<g opacity="0.3" filter="url(#filter0_f_485_10926)">
<path d="M23.8205 209.524C-2.59497 170.786 -7.44739 132.277 -6.49213 109.123L22.6765 128.652C24.9519 132.246 40.0023 149.074 54.392 159.17C68.7817 169.267 190.575 225.742 202.055 248.303L90.5548 270.803C81.347 268.475 43.5925 238.52 23.8205 209.524Z" fill="#05050B"/>
</g>
<mask id="mask0_485_10926" style="mask-type:alpha" maskUnits="userSpaceOnUse" x="-37" y="62" width="398" height="197">
<rect width="191.644" height="290.799" rx="16.6647" transform="matrix(0.663536 0.748145 -0.97968 0.200567 240.89 59.4929)" fill="white"/>
<rect width="191.644" height="290.799" rx="16.6647" transform="matrix(0.663536 0.748145 -0.97968 0.200567 240.89 59.4929)" fill="url(#paint0_linear_485_10926)"/>
</mask>
<g mask="url(#mask0_485_10926)">
<rect x="-0.131711" y="0.395249" width="190.811" height="289.965" transform="matrix(0.663536 0.748145 -0.97968 0.200567 241.233 59.9074)" fill="url(#paint1_linear_485_10926)" stroke="url(#paint2_linear_485_10926)" stroke-width="0.833234"/>
<g opacity="0.8">
<g clip-path="url(#clip0_485_10926)">
<path d="M76.0981 118.95L78.3442 118.893L78.7576 119.359C79.3492 120.027 79.5897 120.614 78.7959 120.776C77.9094 120.958 76.9071 120.308 76.2192 119.533C76.1123 119.412 76.009 119.295 75.9127 119.187C75.7496 118.969 76.0862 118.957 76.0862 118.957M80.0773 122.289C80.5254 122.227 80.8504 122.032 80.981 121.748C81.1117 121.464 81.0372 121.114 80.774 120.775C81.4976 121.405 82.886 122.147 84.0251 121.913C85.2415 121.664 85.0478 120.574 83.7577 119.119C83.2063 118.497 82.5919 117.89 81.9204 117.302L75.1703 117.478C75.1703 117.478 73.3429 117.429 73.9214 118.507C74.0733 118.788 74.2637 119.067 74.4899 119.341C76.687 122.072 78.9263 122.53 80.0963 122.29M81.8853 118.814C82.1024 119.014 82.3024 119.219 82.4841 119.427C82.9653 119.97 83.0616 120.401 82.4891 120.504C81.8036 120.645 80.9252 120.169 80.2338 119.39L79.9629 119.084C79.7705 118.867 80.1522 118.865 80.1522 118.865L81.8853 118.814Z" fill="#F0F1F5"/>
<path d="M83.3742 129.391C83.547 129.585 83.8069 129.753 84.1026 129.861C84.3982 129.969 84.7081 130.01 84.9708 129.975L86.9612 129.919C87.093 130.068 87.2248 130.278 87.4351 130.515C89.4808 132.822 92.0904 133.237 93.379 132.974C94.7861 132.685 94.9146 131.752 93.4458 130.083C92.9284 129.462 92.319 128.861 91.63 128.289L82.6151 128.535L83.3742 129.391ZM91.6404 129.887C91.8491 130.079 92.0404 130.276 92.2126 130.477C92.6867 131.012 92.8812 131.499 92.0514 131.669C91.2216 131.839 89.9601 131.508 89.0873 130.538C89.0339 130.478 88.9804 130.417 88.9341 130.365C88.5492 129.931 89.12 129.957 89.12 129.957L91.6404 129.887Z" fill="#F0F1F5"/>
<path d="M83.0701 124.445C84.3381 124.185 86.8102 124.439 88.1218 125.917C88.6084 126.442 88.8633 127.002 88.8473 127.511C88.8473 127.511 89.627 127.532 89.9307 127.517C90.2343 127.503 90.5996 127.338 90.3029 126.653C90.1342 126.237 89.8622 125.819 89.499 125.417C87.4532 123.11 83.9635 122.41 81.5719 122.9C79.0206 123.422 79.3379 124.933 80.5532 126.304C80.8711 126.689 81.2821 127.054 81.764 127.38C81.9039 127.478 82.0685 127.559 82.2424 127.615C82.4163 127.67 82.594 127.699 82.7591 127.699L84.2766 127.659C83.5086 127.345 82.8435 126.892 82.3968 126.377C81.545 125.417 81.8331 124.698 83.0701 124.445Z" fill="#F0F1F5"/>
<path d="M77.7857 115.987C77.6618 116.219 77.4105 116.393 77.0668 116.483C76.723 116.573 76.3039 116.575 75.8678 116.488C74.1645 116.048 72.5042 115.374 71.0152 114.519C70.6615 114.297 70.3907 114.027 70.2434 113.748C70.096 113.47 70.08 113.197 70.1977 112.972C70.2632 112.835 70.356 112.71 70.4743 112.598C70.4434 112.604 72.8328 114.014 74.5985 114.336C76.2266 114.744 78.3794 114.369 78.1704 113.605C78.2612 114.071 78.267 114.522 78.1878 114.95C78.1149 115.313 77.9842 115.658 77.7976 115.979" fill="#F0F1F5"/>
<path d="M75.0845 114.081C76.5151 114.21 77.9718 113.841 77.7956 113.203C77.6194 112.565 76.2224 112.205 76.151 112.186C75.8018 112.096 75.4516 112.031 75.1075 111.992L75.1841 112.332C75.3285 112.954 75.2947 113.547 75.0845 114.081Z" fill="#F0F1F5"/>
<path d="M96.9504 137.594C96.8282 137.828 96.5773 138.002 96.2332 138.092C95.8891 138.182 95.4691 138.183 95.0325 138.096C93.3288 137.657 91.6681 136.983 90.1799 136.126C89.8262 135.905 89.5554 135.634 89.4081 135.355C89.2607 135.077 89.2447 134.805 89.3624 134.58C89.4279 134.443 89.5207 134.317 89.639 134.205C89.6081 134.211 91.9975 135.621 93.7632 135.943C95.3948 136.355 97.5477 135.981 97.3351 135.212C97.4118 135.672 97.4065 136.118 97.3192 136.54C97.2516 136.905 97.1208 137.25 96.929 137.57" fill="#F0F1F5"/>
<path d="M94.2492 135.689C95.6798 135.818 97.1401 135.453 96.9638 134.815C96.7876 134.177 95.3906 133.817 95.3193 133.798C94.97 133.706 94.6195 133.64 94.2757 133.603L94.3488 133.94C94.495 134.562 94.4612 135.155 94.2492 135.689Z" fill="#F0F1F5"/>
</g>
</g>
<g filter="url(#filter1_d_485_10926)">
<path d="M83.6385 111.204L88.3579 110.238L88.7115 110.637L83.9921 111.603L83.6385 111.204ZM86.863 109.004L87.3357 108.907L90.0018 111.913L89.5291 112.01L86.863 109.004ZM85.9051 113.854C85.6917 113.614 85.5759 113.383 85.5575 113.161C85.5439 112.939 85.6171 112.746 85.777 112.582C85.9401 112.421 86.1839 112.308 86.5084 112.241C86.8376 112.174 87.1793 112.167 87.5335 112.222C87.8956 112.28 88.2363 112.388 88.5557 112.548C88.8797 112.706 89.1468 112.904 89.357 113.141C89.529 113.335 89.6302 113.518 89.6605 113.69C89.6987 113.865 89.6675 114.017 89.5669 114.148C89.4742 114.282 89.3175 114.384 89.0968 114.455L88.0598 114.667C87.8008 114.695 87.5366 114.679 87.2672 114.619C87.001 114.563 86.7476 114.469 86.5072 114.336C86.2746 114.205 86.074 114.044 85.9051 113.854ZM86.4303 113.817C86.6629 114.079 86.9644 114.265 87.335 114.376C87.7088 114.491 88.0838 114.509 88.4601 114.432C88.7093 114.381 88.8946 114.299 89.0158 114.185C89.1449 114.074 89.2023 113.941 89.1879 113.787C89.1814 113.635 89.1001 113.472 88.944 113.296C88.7847 113.116 88.5889 112.967 88.3565 112.849C88.1273 112.735 87.8797 112.656 87.6136 112.613C87.3554 112.573 87.104 112.578 86.8594 112.628C86.6149 112.678 86.4336 112.761 86.3156 112.879C86.2007 113 86.1513 113.142 86.1674 113.304C86.1834 113.466 86.2711 113.637 86.4303 113.817ZM86.7832 114.75L87.672 114.568L88.5572 114.476L89.2875 114.237L90.0987 114.071L90.4332 114.448L87.1176 115.127L86.7832 114.75ZM87.7959 115.892L91.1115 115.213L91.4459 115.59L88.1304 116.269L87.7959 115.892ZM90.0633 115.873L90.0164 115.698C90.435 115.613 90.835 115.622 91.2165 115.726C91.6012 115.834 91.9146 116.025 92.1567 116.298C92.2682 116.423 92.3396 116.545 92.3708 116.661C92.4067 116.777 92.401 116.893 92.3537 117.009L91.7882 116.832C91.8234 116.752 91.8264 116.671 91.7971 116.588C91.7711 116.508 91.7166 116.422 91.6338 116.328C91.4618 116.134 91.237 115.994 90.9594 115.906C90.6865 115.818 90.3878 115.807 90.0633 115.873ZM87.8835 117.946C87.7529 117.798 87.6727 117.664 87.643 117.543C87.6133 117.422 87.623 117.307 87.672 117.2L88.2163 117.381C88.1794 117.452 88.1724 117.526 88.1953 117.602C88.215 117.674 88.2615 117.752 88.3348 117.834C88.4431 117.956 88.5825 118.051 88.753 118.118C88.9235 118.185 89.1098 118.197 89.3121 118.156L93.0439 117.392L93.3783 117.769L89.6536 118.532C89.4231 118.579 89.1969 118.581 88.9748 118.537C88.7512 118.498 88.5452 118.425 88.357 118.32C88.1687 118.214 88.0109 118.089 87.8835 117.946ZM93.9306 117.433C93.8669 117.361 93.8457 117.294 93.8669 117.23C93.8929 117.165 93.9529 117.123 94.047 117.104C94.1457 117.084 94.2503 117.092 94.3607 117.129C94.4712 117.166 94.5583 117.22 94.622 117.292C94.692 117.371 94.7149 117.44 94.6904 117.5C94.6692 117.564 94.6092 117.606 94.5104 117.626C94.4164 117.646 94.3118 117.637 94.1966 117.602C94.0894 117.568 94.0007 117.512 93.9306 117.433ZM91.7064 120.395C91.4802 120.14 91.3532 119.897 91.3253 119.665C91.2974 119.433 91.3626 119.231 91.5209 119.058C91.6823 118.889 91.9276 118.771 92.2568 118.704C92.5813 118.637 92.9239 118.635 93.2845 118.697C93.6498 118.758 93.9953 118.872 94.321 119.039C94.6466 119.205 94.9178 119.411 95.1344 119.655C95.3382 119.885 95.45 120.102 95.4697 120.306C95.4926 120.513 95.4263 120.692 95.271 120.843C95.1235 120.996 94.8922 121.105 94.5771 121.17C94.5395 121.177 94.4932 121.185 94.4383 121.192C94.3881 121.198 94.3253 121.202 94.2499 121.205L92.3053 119.012L92.7285 118.926L94.4916 120.913L94.2169 120.81C94.4647 120.764 94.6453 120.689 94.7588 120.585C94.8802 120.484 94.9321 120.361 94.9147 120.216C94.9052 120.073 94.8224 119.914 94.6663 119.738C94.5038 119.555 94.3104 119.406 94.0859 119.291C93.8613 119.175 93.62 119.097 93.3618 119.057C93.1115 119.019 92.8594 119.026 92.6054 119.078C92.3514 119.13 92.1631 119.215 92.0404 119.334C91.9208 119.456 91.8706 119.6 91.8899 119.766C91.9123 119.935 92.0079 120.115 92.1768 120.305C92.3137 120.46 92.4748 120.594 92.66 120.709C92.8499 120.823 93.0576 120.91 93.283 120.97L93.1735 121.279C92.885 121.198 92.611 121.08 92.3514 120.925C92.0998 120.773 91.8848 120.596 91.7064 120.395ZM93.5805 122.414L98.2929 121.45L98.6273 121.827L93.915 122.791L93.5805 122.414ZM95.8831 121.185L96.3275 121.094L97.7944 122.748L97.3499 122.839L95.8831 121.185ZM95.7643 124.97C95.5509 124.73 95.435 124.499 95.4167 124.278C95.4031 124.056 95.4762 123.862 95.6361 123.698C95.7992 123.537 96.043 123.424 96.3676 123.357C96.6968 123.29 97.0385 123.284 97.3927 123.339C97.7548 123.396 98.0955 123.504 98.4148 123.664C98.7388 123.823 99.006 124.02 99.2162 124.257C99.3882 124.451 99.4894 124.634 99.5197 124.806C99.5579 124.981 99.5267 125.134 99.4261 125.265C99.3334 125.398 99.1767 125.5 98.9559 125.571L97.9189 125.783C97.66 125.811 97.3958 125.795 97.1264 125.736C96.8601 125.68 96.6068 125.585 96.3664 125.452C96.1338 125.321 95.9331 125.161 95.7643 124.97ZM96.2895 124.933C96.522 125.195 96.8236 125.382 97.1942 125.492C97.568 125.607 97.943 125.626 98.3192 125.549C98.5685 125.498 98.7537 125.415 98.875 125.301C99.0041 125.19 99.0614 125.057 99.047 124.903C99.0405 124.752 98.9592 124.588 98.8032 124.412C98.6439 124.232 98.4481 124.084 98.2157 123.966C97.9865 123.851 97.7388 123.773 97.4727 123.73C97.2145 123.689 96.9632 123.694 96.7186 123.744C96.4741 123.794 96.2928 123.878 96.1747 123.995C96.0599 124.116 96.0105 124.258 96.0265 124.42C96.0426 124.582 96.1303 124.753 96.2895 124.933ZM96.6423 125.866L97.5312 125.684L98.4164 125.592L99.1466 125.354L99.9579 125.188L100.292 125.565L96.9768 126.244L96.6423 125.866ZM99.6478 129.349C99.4217 129.094 99.2947 128.851 99.2668 128.619C99.2389 128.387 99.3041 128.185 99.4623 128.012C99.6238 127.843 99.8691 127.725 100.198 127.658C100.523 127.591 100.865 127.589 101.226 127.651C101.591 127.712 101.937 127.826 102.262 127.993C102.588 128.16 102.859 128.365 103.076 128.609C103.28 128.839 103.391 129.056 103.411 129.26C103.434 129.467 103.368 129.646 103.212 129.797C103.065 129.95 102.834 130.059 102.519 130.124C102.481 130.131 102.435 130.139 102.38 130.146C102.33 130.152 102.267 130.156 102.191 130.159L100.247 127.966L100.67 127.88L102.433 129.867L102.158 129.765C102.406 129.718 102.587 129.643 102.7 129.539C102.822 129.438 102.874 129.315 102.856 129.17C102.847 129.027 102.764 128.868 102.608 128.692C102.445 128.509 102.252 128.36 102.027 128.245C101.803 128.129 101.561 128.051 101.303 128.011C101.053 127.973 100.801 127.98 100.547 128.032C100.293 128.084 100.105 128.169 99.9818 128.288C99.8623 128.41 99.8121 128.554 99.8313 128.72C99.8538 128.889 99.9494 129.069 100.118 129.259C100.255 129.414 100.416 129.548 100.601 129.663C100.791 129.777 100.999 129.864 101.225 129.924L101.115 130.233C100.826 130.152 100.552 130.034 100.293 129.879C100.041 129.727 99.8262 129.55 99.6478 129.349ZM101.253 131.065L104.568 130.386L104.903 130.763L101.587 131.442L101.253 131.065ZM102.796 132.805L104.827 132.389C105.1 132.333 105.261 132.226 105.309 132.067C105.362 131.908 105.305 131.733 105.136 131.543C105.021 131.413 104.878 131.302 104.707 131.21C104.545 131.12 104.369 131.057 104.18 131.019C103.994 130.985 103.809 130.987 103.626 131.024L103.565 130.833C103.818 130.781 104.078 130.779 104.342 130.827C104.607 130.874 104.855 130.959 105.085 131.082C105.32 131.208 105.518 131.363 105.68 131.546C105.839 131.725 105.93 131.896 105.95 132.057C105.974 132.222 105.929 132.365 105.814 132.486C105.702 132.611 105.517 132.699 105.258 132.752L103.135 133.187L102.796 132.805ZM104.344 134.55L106.376 134.134C106.648 134.078 106.809 133.971 106.857 133.813C106.91 133.653 106.851 133.477 106.679 133.283C106.567 133.157 106.426 133.048 106.256 132.956C106.093 132.866 105.917 132.802 105.728 132.764C105.542 132.73 105.357 132.732 105.174 132.77L105.065 132.525C105.328 132.483 105.594 132.488 105.862 132.54C106.133 132.595 106.385 132.685 106.619 132.811C106.856 132.941 107.055 133.095 107.214 133.275C107.373 133.455 107.465 133.627 107.489 133.792C107.516 133.96 107.472 134.105 107.357 134.226C107.246 134.351 107.06 134.439 106.802 134.492L104.678 134.927L104.344 134.55ZM105.307 135.636L108.623 134.957L108.962 135.34L105.646 136.019L105.307 135.636ZM109.51 134.999C109.446 134.927 109.425 134.859 109.446 134.795C109.472 134.731 109.532 134.689 109.626 134.669C109.725 134.649 109.829 134.657 109.94 134.694C110.05 134.731 110.137 134.785 110.201 134.857C110.271 134.936 110.294 135.006 110.269 135.066C110.248 135.13 110.188 135.172 110.089 135.192C109.995 135.211 109.891 135.203 109.776 135.167C109.668 135.134 109.58 135.078 109.51 134.999ZM106.673 137.176L111.386 136.212L111.72 136.589L107.008 137.553L106.673 137.176ZM108.976 135.948L109.42 135.857L110.887 137.51L110.443 137.601L108.976 135.948ZM108.032 138.709L111.348 138.03L111.687 138.412L108.371 139.091L108.032 138.709ZM112.235 138.071C112.171 137.999 112.15 137.931 112.171 137.868C112.197 137.803 112.257 137.761 112.351 137.742C112.45 137.722 112.554 137.73 112.665 137.767C112.775 137.803 112.862 137.858 112.926 137.93C112.996 138.009 113.019 138.078 112.994 138.138C112.973 138.202 112.913 138.244 112.814 138.264C112.72 138.284 112.616 138.275 112.5 138.239C112.393 138.206 112.305 138.15 112.235 138.071ZM109.934 140.947C109.727 140.714 109.616 140.488 109.601 140.271C109.586 140.053 109.658 139.862 109.818 139.698C109.986 139.536 110.232 139.422 110.557 139.356C110.886 139.289 111.228 139.282 111.582 139.337C111.944 139.394 112.283 139.501 112.599 139.657C112.92 139.812 113.184 140.006 113.391 140.24C113.56 140.43 113.663 140.613 113.702 140.787C113.74 140.962 113.712 141.118 113.618 141.256C113.531 141.397 113.374 141.501 113.145 141.57L112.108 141.782C111.849 141.809 111.583 141.792 111.311 141.729C111.046 141.668 110.793 141.571 110.553 141.438C110.313 141.305 110.106 141.141 109.934 140.947ZM110.464 140.915C110.62 141.091 110.809 141.235 111.03 141.347C111.256 141.458 111.497 141.531 111.752 141.568C112.012 141.604 112.264 141.597 112.508 141.547C112.758 141.496 112.941 141.412 113.059 141.294C113.181 141.18 113.236 141.046 113.227 140.891C113.217 140.736 113.134 140.57 112.978 140.394C112.822 140.218 112.629 140.073 112.4 139.959C112.171 139.844 111.925 139.768 111.662 139.728C111.407 139.691 111.157 139.698 110.913 139.748C110.668 139.798 110.483 139.88 110.357 139.995C110.239 140.113 110.186 140.251 110.199 140.409C110.22 140.571 110.308 140.739 110.464 140.915ZM111.166 142.242L110.832 141.865L111.72 141.683L112.606 141.591L113.336 141.352L115.826 140.842L116.16 141.22L111.166 142.242ZM112.748 144.12C112.535 143.88 112.419 143.649 112.401 143.428C112.387 143.205 112.46 143.012 112.62 142.848C112.783 142.687 113.027 142.574 113.352 142.507C113.681 142.44 114.023 142.434 114.377 142.488C114.739 142.546 115.08 142.654 115.399 142.814C115.723 142.972 115.99 143.17 116.2 143.407C116.372 143.601 116.473 143.784 116.504 143.956C116.542 144.131 116.511 144.284 116.41 144.414C116.317 144.548 116.161 144.65 115.94 144.721L114.903 144.933C114.644 144.961 114.38 144.945 114.11 144.885C113.844 144.829 113.591 144.735 113.35 144.602C113.118 144.471 112.917 144.311 112.748 144.12ZM113.274 144.083C113.506 144.345 113.808 144.531 114.178 144.642C114.552 144.757 114.927 144.775 115.303 144.698C115.553 144.647 115.738 144.565 115.859 144.451C115.988 144.34 116.046 144.207 116.031 144.053C116.025 143.901 115.943 143.738 115.787 143.562C115.628 143.382 115.432 143.233 115.2 143.116C114.971 143.001 114.723 142.922 114.457 142.879C114.199 142.839 113.947 142.844 113.703 142.894C113.458 142.944 113.277 143.028 113.159 143.145C113.044 143.266 112.995 143.408 113.011 143.57C113.027 143.732 113.114 143.903 113.274 144.083ZM113.626 145.016L114.515 144.834L115.4 144.742L116.131 144.504L116.942 144.337L117.276 144.715L113.961 145.393L113.626 145.016ZM116.756 148.639C116.584 148.445 116.481 148.26 116.448 148.085C116.414 147.909 116.442 147.753 116.532 147.616C116.629 147.481 116.788 147.378 117.009 147.308L118.046 147.095C118.31 147.067 118.576 147.085 118.843 147.149C119.116 147.212 119.37 147.31 119.606 147.445C119.845 147.582 120.047 147.745 120.213 147.931C120.42 148.165 120.529 148.391 120.539 148.609C120.554 148.827 120.478 149.016 120.31 149.178C120.15 149.342 119.906 149.458 119.576 149.526C119.252 149.592 118.912 149.598 118.558 149.543C118.204 149.488 117.865 149.382 117.541 149.223C117.225 149.067 116.963 148.872 116.756 148.639ZM117.171 148.478C117.331 148.657 117.523 148.805 117.747 148.92C117.976 149.034 118.218 149.11 118.473 149.147C118.736 149.186 118.99 149.181 119.235 149.131C119.484 149.08 119.668 148.996 119.786 148.878C119.907 148.764 119.961 148.628 119.948 148.469C119.935 148.311 119.851 148.143 119.695 147.967C119.539 147.791 119.346 147.646 119.117 147.532C118.891 147.421 118.65 147.347 118.395 147.31C118.14 147.274 117.888 147.281 117.639 147.332C117.394 147.382 117.209 147.464 117.083 147.579C116.962 147.693 116.906 147.828 116.916 147.983C116.93 148.137 117.015 148.302 117.171 148.478ZM114.269 147.601L118.981 146.637L119.316 147.014L118.469 147.187L117.598 147.276L116.854 147.518L114.603 147.979L114.269 147.601ZM119.408 151.629C119.191 151.384 119.071 151.146 119.048 150.913C119.028 150.684 119.097 150.483 119.255 150.31C119.417 150.142 119.66 150.024 119.984 149.958C120.304 149.892 120.644 149.89 121.005 149.952C121.369 150.018 121.713 150.134 122.039 150.301C122.373 150.47 122.648 150.677 122.864 150.921C123.084 151.169 123.206 151.407 123.231 151.635C123.256 151.864 123.187 152.062 123.026 152.231C122.872 152.403 122.636 152.521 122.316 152.586C121.987 152.654 121.638 152.655 121.269 152.591C120.909 152.529 120.563 152.415 120.233 152.249C119.903 152.083 119.628 151.877 119.408 151.629ZM119.887 151.531C120.047 151.71 120.241 151.857 120.47 151.971C120.703 152.089 120.95 152.168 121.213 152.208C121.479 152.251 121.732 152.248 121.972 152.199C122.212 152.149 122.387 152.065 122.497 151.945C122.615 151.827 122.666 151.687 122.65 151.525C122.637 151.366 122.551 151.197 122.392 151.018C122.236 150.842 122.041 150.695 121.809 150.577C121.577 150.459 121.331 150.38 121.073 150.339C120.82 150.298 120.573 150.302 120.333 150.351C120.089 150.401 119.905 150.485 119.782 150.604C119.664 150.721 119.613 150.861 119.629 151.023C119.645 151.185 119.731 151.355 119.887 151.531ZM121.176 153.529L124.492 152.85L124.826 153.227L121.511 153.906L121.176 153.529ZM123.444 153.51L123.397 153.335C123.815 153.249 124.215 153.259 124.597 153.363C124.982 153.471 125.295 153.661 125.537 153.934C125.648 154.06 125.72 154.181 125.751 154.298C125.787 154.414 125.781 154.529 125.734 154.645L125.168 154.468C125.204 154.389 125.207 154.308 125.177 154.224C125.151 154.145 125.097 154.058 125.014 153.965C124.842 153.771 124.617 153.63 124.34 153.543C124.067 153.455 123.768 153.444 123.444 153.51ZM123.39 156.119C123.31 156.029 123.285 155.947 123.314 155.873C123.346 155.803 123.416 155.757 123.524 155.735C123.642 155.71 123.762 155.718 123.885 155.756C124.016 155.797 124.121 155.863 124.201 155.952C124.277 156.039 124.301 156.119 124.272 156.192C124.251 156.269 124.182 156.319 124.064 156.343C123.956 156.365 123.835 156.354 123.701 156.309C123.57 156.268 123.466 156.205 123.39 156.119ZM125.612 155.664C125.532 155.574 125.507 155.492 125.536 155.418C125.568 155.348 125.638 155.302 125.746 155.28C125.864 155.256 125.984 155.263 126.107 155.301C126.234 155.343 126.336 155.409 126.416 155.499C126.493 155.585 126.519 155.665 126.494 155.738C126.473 155.814 126.404 155.864 126.286 155.888C126.178 155.91 126.057 155.899 125.923 155.855C125.792 155.813 125.688 155.75 125.612 155.664Z" fill="#D1D4E0"/>
</g>
<path d="M9.47776 126.05L13.3005 125.268L13.5869 125.591L9.76415 126.373L9.47776 126.05ZM12.0896 124.268L12.4725 124.189L14.632 126.624L14.2492 126.703L12.0896 124.268ZM11.3138 128.196C11.1409 128.002 11.047 127.815 11.0322 127.635C11.0212 127.456 11.0804 127.299 11.2099 127.166C11.3421 127.036 11.5395 126.944 11.8024 126.89C12.069 126.835 12.3458 126.83 12.6328 126.875C12.9261 126.921 13.202 127.009 13.4607 127.138C13.7232 127.267 13.9395 127.427 14.1098 127.619C14.2491 127.776 14.3311 127.924 14.3556 128.064C14.3866 128.205 14.3613 128.329 14.2798 128.435C14.2047 128.543 14.0778 128.626 13.899 128.683L13.059 128.855C12.8493 128.877 12.6353 128.864 12.417 128.816C12.2014 128.771 11.9962 128.694 11.8014 128.586C11.6131 128.481 11.4505 128.351 11.3138 128.196ZM11.7392 128.166C11.9275 128.378 12.1718 128.53 12.472 128.619C12.7747 128.712 13.0785 128.727 13.3833 128.665C13.5852 128.623 13.7352 128.557 13.8334 128.464C13.938 128.374 13.9844 128.267 13.9728 128.142C13.9675 128.019 13.9017 127.887 13.7752 127.744C13.6462 127.599 13.4876 127.478 13.2994 127.383C13.1137 127.29 12.9131 127.226 12.6976 127.191C12.4885 127.159 12.2848 127.162 12.0868 127.203C11.8887 127.244 11.7418 127.311 11.6462 127.407C11.5532 127.505 11.5132 127.619 11.5262 127.751C11.5392 127.882 11.6102 128.021 11.7392 128.166ZM12.025 128.922L12.7449 128.775L13.462 128.7L14.0535 128.507L14.7106 128.372L14.9815 128.678L12.2959 129.228L12.025 128.922ZM12.8453 129.847L15.5309 129.297L15.8018 129.603L13.1162 130.153L12.8453 129.847ZM14.6819 129.832L14.6439 129.69C14.9829 129.621 15.307 129.629 15.616 129.713C15.9276 129.8 16.1815 129.955 16.3776 130.176C16.4679 130.278 16.5257 130.376 16.551 130.47C16.5801 130.564 16.5755 130.658 16.5371 130.752L16.0791 130.608C16.1076 130.544 16.11 130.478 16.0863 130.411C16.0652 130.346 16.0211 130.276 15.954 130.201C15.8147 130.044 15.6326 129.93 15.4077 129.859C15.1867 129.787 14.9447 129.778 14.6819 129.832ZM12.9162 131.511C12.8105 131.391 12.7455 131.283 12.7215 131.184C12.6974 131.086 12.7052 130.994 12.7449 130.906L13.1858 131.053C13.1559 131.111 13.1503 131.171 13.1688 131.232C13.1848 131.291 13.2224 131.353 13.2818 131.42C13.3695 131.519 13.4824 131.596 13.6205 131.65C13.7586 131.704 13.9096 131.715 14.0734 131.681L17.0962 131.062L17.3671 131.368L14.35 131.985C14.1634 132.024 13.9801 132.025 13.8002 131.99C13.6191 131.958 13.4523 131.899 13.2998 131.814C13.1473 131.728 13.0194 131.627 12.9162 131.511ZM17.8145 131.096C17.7629 131.037 17.7457 130.982 17.7629 130.931C17.7839 130.878 17.8325 130.844 17.9087 130.829C17.9887 130.812 18.0734 130.819 18.1629 130.849C18.2523 130.879 18.3228 130.923 18.3744 130.981C18.4312 131.045 18.4497 131.101 18.4299 131.15C18.4127 131.202 18.3641 131.236 18.2841 131.252C18.2079 131.268 18.1232 131.261 18.0299 131.232C17.943 131.205 17.8712 131.16 17.8145 131.096ZM16.0128 133.495C15.8296 133.288 15.7267 133.091 15.7041 132.903C15.6816 132.715 15.7344 132.551 15.8625 132.412C15.9933 132.275 16.192 132.179 16.4587 132.125C16.7215 132.071 16.999 132.069 17.2911 132.119C17.587 132.169 17.8668 132.261 18.1306 132.396C18.3944 132.531 18.6141 132.698 18.7895 132.895C18.9546 133.082 19.0452 133.257 19.0611 133.422C19.0797 133.59 19.026 133.735 18.9002 133.857C18.7807 133.982 18.5933 134.07 18.3381 134.122C18.3076 134.128 18.2702 134.134 18.2257 134.14C18.185 134.145 18.1341 134.148 18.0731 134.151L16.4979 132.375L16.8408 132.304L18.2688 133.915L18.0464 133.831C18.247 133.794 18.3933 133.733 18.4853 133.649C18.5836 133.567 18.6257 133.467 18.6116 133.349C18.6038 133.234 18.5368 133.105 18.4103 132.963C18.2788 132.814 18.122 132.693 17.9402 132.6C17.7583 132.507 17.5628 132.444 17.3537 132.411C17.151 132.38 16.9467 132.386 16.741 132.428C16.5353 132.47 16.3827 132.539 16.2833 132.635C16.1865 132.734 16.1458 132.85 16.1614 132.985C16.1796 133.122 16.2571 133.268 16.3938 133.422C16.5048 133.547 16.6352 133.656 16.7853 133.749C16.9391 133.841 17.1073 133.912 17.2899 133.96L17.2012 134.21C16.9675 134.145 16.7455 134.049 16.5353 133.924C16.3315 133.801 16.1573 133.658 16.0128 133.495ZM17.5309 135.13L21.3479 134.349L21.6188 134.654L17.8018 135.436L17.5309 135.13ZM19.396 134.135L19.756 134.061L20.9441 135.401L20.5841 135.474L19.396 134.135ZM19.2998 137.201C19.1269 137.006 19.033 136.819 19.0182 136.64C19.0071 136.46 19.0664 136.303 19.1959 136.17C19.328 136.04 19.5255 135.948 19.7884 135.894C20.055 135.84 20.3318 135.835 20.6187 135.879C20.9121 135.925 21.188 136.013 21.4467 136.143C21.7091 136.271 21.9255 136.431 22.0958 136.623C22.2351 136.78 22.3171 136.929 22.3416 137.068C22.3726 137.209 22.3473 137.333 22.2658 137.439C22.1907 137.547 22.0638 137.63 21.885 137.687L21.045 137.859C20.8352 137.882 20.6212 137.869 20.403 137.821C20.1874 137.775 19.9822 137.699 19.7874 137.591C19.5991 137.485 19.4365 137.355 19.2998 137.201ZM19.7252 137.17C19.9135 137.383 20.1578 137.534 20.458 137.624C20.7607 137.716 21.0645 137.731 21.3692 137.669C21.5711 137.628 21.7212 137.561 21.8194 137.469C21.924 137.379 21.9704 137.271 21.9588 137.146C21.9535 137.024 21.8877 136.891 21.7612 136.748C21.6322 136.603 21.4736 136.482 21.2854 136.387C21.0997 136.294 20.8991 136.231 20.6836 136.196C20.4744 136.163 20.2708 136.167 20.0727 136.207C19.8747 136.248 19.7278 136.316 19.6322 136.411C19.5392 136.509 19.4991 136.624 19.5122 136.755C19.5252 136.887 19.5962 137.025 19.7252 137.17ZM20.011 137.927L20.7309 137.779L21.448 137.705L22.0395 137.511L22.6966 137.377L22.9675 137.682L20.2819 138.232L20.011 137.927ZM22.3796 140.673C22.2119 140.484 22.122 140.302 22.1097 140.125C22.0974 139.949 22.1561 139.795 22.2856 139.661C22.4215 139.531 22.6209 139.438 22.8838 139.384C23.1504 139.33 23.4272 139.325 23.7141 139.369C24.0074 139.416 24.2821 139.502 24.5382 139.628C24.7981 139.754 25.0119 139.911 25.1796 140.1C25.3163 140.254 25.4002 140.402 25.4311 140.544C25.4621 140.685 25.4394 140.812 25.363 140.924C25.2931 141.038 25.1655 141.122 24.9804 141.177L24.1404 141.349C23.9306 141.372 23.7153 141.357 23.4945 141.306C23.2801 141.257 23.0755 141.179 22.8808 141.071C22.686 140.963 22.519 140.831 22.3796 140.673ZM22.8089 140.647C22.9354 140.79 23.0882 140.906 23.2675 140.997C23.4506 141.087 23.6454 141.146 23.8519 141.176C24.0623 141.205 24.2665 141.2 24.4646 141.159C24.6665 141.118 24.8153 141.05 24.9109 140.954C25.0091 140.862 25.0543 140.753 25.0464 140.628C25.0386 140.502 24.9714 140.368 24.845 140.225C24.7186 140.083 24.5625 139.965 24.3769 139.873C24.1912 139.78 23.9919 139.718 23.779 139.686C23.5724 139.656 23.3701 139.661 23.172 139.702C22.9739 139.742 22.8239 139.809 22.7218 139.902C22.6262 139.997 22.5836 140.109 22.5941 140.238C22.6109 140.368 22.6825 140.505 22.8089 140.647ZM23.3772 141.722L23.1063 141.417L23.8263 141.269L24.5433 141.195L25.1348 141.001L27.1519 140.588L27.4228 140.894L23.3772 141.722ZM24.7093 143.3C24.5261 143.094 24.4233 142.896 24.4007 142.709C24.3781 142.521 24.4309 142.357 24.5591 142.217C24.6898 142.08 24.8885 141.985 25.1552 141.93C25.4181 141.876 25.6955 141.875 25.9876 141.925C26.2835 141.974 26.5633 142.066 26.8271 142.201C27.091 142.337 27.3106 142.503 27.486 142.701C27.6512 142.887 27.7417 143.063 27.7576 143.228C27.7762 143.396 27.7225 143.541 27.5967 143.663C27.4772 143.787 27.2899 143.875 27.0346 143.927C27.0042 143.934 26.9667 143.94 26.9222 143.945C26.8815 143.95 26.8307 143.954 26.7696 143.956L25.1944 142.18L25.5373 142.11L26.9654 143.72L26.7429 143.637C26.9436 143.599 27.0899 143.538 27.1818 143.454C27.2801 143.372 27.3222 143.272 27.3081 143.155C27.3004 143.04 27.2333 142.911 27.1069 142.768C26.9753 142.62 26.8186 142.499 26.6367 142.405C26.4549 142.312 26.2594 142.249 26.0502 142.216C25.8475 142.185 25.6433 142.191 25.4375 142.233C25.2318 142.275 25.0793 142.344 24.9798 142.44C24.883 142.539 24.8424 142.656 24.858 142.79C24.8761 142.927 24.9536 143.073 25.0903 143.227C25.2013 143.352 25.3318 143.461 25.4818 143.555C25.6356 143.647 25.8038 143.717 25.9864 143.766L25.8977 144.016C25.664 143.95 25.4421 143.855 25.2318 143.729C25.028 143.606 24.8538 143.463 24.7093 143.3ZM27.6117 146.573C27.4337 146.372 27.3334 146.178 27.3108 145.99C27.2946 145.804 27.3506 145.641 27.4787 145.502C27.6095 145.365 27.8063 145.27 28.0692 145.216C28.332 145.162 28.6095 145.16 28.9016 145.21C29.2 145.263 29.4812 145.356 29.745 145.491C30.0114 145.629 30.2336 145.799 30.4116 145.999C30.5483 146.154 30.638 146.305 30.6805 146.455C30.723 146.604 30.7169 146.739 30.6623 146.861L30.2158 146.715C30.2567 146.624 30.26 146.524 30.2256 146.414C30.195 146.303 30.1294 146.191 30.0288 146.078C29.8998 145.932 29.7411 145.812 29.5529 145.716C29.3646 145.621 29.166 145.557 28.9568 145.524C28.7515 145.49 28.5498 145.494 28.3517 145.534C28.1574 145.574 28.0106 145.642 27.9111 145.738C27.8155 145.833 27.7742 145.946 27.7872 146.078C27.8002 146.209 27.8712 146.348 28.0002 146.493C28.1034 146.609 28.2256 146.712 28.3666 146.8C28.5115 146.887 28.6663 146.955 28.8311 147.004L28.7444 147.264C28.5183 147.196 28.3066 147.102 28.1091 146.981C27.9142 146.863 27.7484 146.727 27.6117 146.573ZM28.7417 147.771L31.4273 147.221L31.6982 147.526L29.0126 148.076L28.7417 147.771ZM30.5783 147.755L30.5403 147.614C30.8793 147.544 31.2034 147.552 31.5124 147.636C31.824 147.724 32.0779 147.878 32.274 148.099C32.3643 148.201 32.4221 148.299 32.4474 148.394C32.4765 148.487 32.4719 148.581 32.4335 148.675L31.9755 148.532C32.004 148.467 32.0064 148.401 31.9827 148.334C31.9616 148.27 31.9175 148.2 31.8504 148.124C31.7111 147.967 31.529 147.853 31.3041 147.782C31.0831 147.711 30.8411 147.702 30.5783 147.755ZM30.9946 150.387C30.8114 150.18 30.7085 149.983 30.6859 149.795C30.6633 149.607 30.7161 149.444 30.8443 149.304C30.9751 149.167 31.1738 149.071 31.4404 149.017C31.7033 148.963 31.9808 148.961 32.2728 149.011C32.5687 149.061 32.8486 149.153 33.1124 149.288C33.3762 149.423 33.5958 149.59 33.7713 149.787C33.9364 149.974 34.0269 150.149 34.0429 150.314C34.0614 150.483 34.0078 150.628 33.8819 150.75C33.7625 150.874 33.5751 150.962 33.3199 151.014C33.2894 151.02 33.2519 151.026 33.2074 151.032C33.1668 151.037 33.1159 151.04 33.0548 151.043L31.4797 149.267L31.8225 149.196L33.2506 150.807L33.0281 150.723C33.2288 150.686 33.3751 150.625 33.467 150.541C33.5654 150.459 33.6075 150.359 33.5933 150.242C33.5856 150.126 33.5185 149.997 33.3921 149.855C33.2605 149.706 33.1038 149.586 32.922 149.492C32.7401 149.399 32.5446 149.336 32.3355 149.303C32.1327 149.272 31.9285 149.278 31.7228 149.32C31.5171 149.362 31.3645 149.431 31.2651 149.527C31.1682 149.626 31.1276 149.743 31.1432 149.877C31.1614 150.014 31.2388 150.16 31.3756 150.314C31.4865 150.439 31.617 150.548 31.767 150.641C31.9209 150.733 32.0891 150.804 32.2717 150.852L32.183 151.103C31.9493 151.037 31.7273 150.941 31.5171 150.816C31.3132 150.693 31.1391 150.55 30.9946 150.387ZM33.8874 149.439L33.9464 149.262L35.364 149.657L35.2607 149.967L33.8874 149.439ZM33.0113 152.661C32.8435 152.472 32.7536 152.289 32.7413 152.113C32.729 151.936 32.7877 151.782 32.9172 151.649C33.0531 151.518 33.2525 151.425 33.5154 151.372C33.782 151.317 34.0588 151.312 34.3457 151.356C34.639 151.403 34.9137 151.489 35.1698 151.616C35.4297 151.741 35.6435 151.898 35.8112 152.087C35.9479 152.242 36.0318 152.389 36.0627 152.531C36.0937 152.672 36.071 152.799 35.9946 152.911C35.9247 153.025 35.7972 153.11 35.612 153.165L34.772 153.337C34.5622 153.359 34.3469 153.345 34.1261 153.293C33.9117 153.245 33.7071 153.166 33.5124 153.058C33.3176 152.95 33.1506 152.818 33.0113 152.661ZM33.4405 152.635C33.567 152.777 33.7198 152.894 33.8991 152.984C34.0822 153.074 34.277 153.134 34.4835 153.164C34.6939 153.193 34.8981 153.187 35.0962 153.146C35.2981 153.105 35.4469 153.037 35.5425 152.942C35.6407 152.849 35.6859 152.74 35.678 152.615C35.6702 152.489 35.603 152.355 35.4766 152.213C35.3502 152.07 35.1941 151.953 35.0085 151.86C34.8228 151.767 34.6235 151.705 34.4106 151.673C34.204 151.643 34.0017 151.648 33.8036 151.689C33.6055 151.73 33.4555 151.796 33.3535 151.889C33.2578 151.985 33.2153 152.096 33.2257 152.225C33.2425 152.356 33.3141 152.492 33.4405 152.635ZM34.0088 153.709L33.7379 153.404L34.4579 153.257L35.1749 153.182L35.7664 152.989L37.7835 152.576L38.0544 152.881L34.0088 153.709ZM34.5583 154.329L37.2439 153.779L37.5187 154.089L34.833 154.639L34.5583 154.329ZM37.9622 153.812C37.9106 153.754 37.8934 153.699 37.9106 153.648C37.9316 153.595 37.9802 153.561 38.0564 153.546C38.1364 153.529 38.2211 153.536 38.3106 153.566C38.4 153.596 38.4706 153.64 38.5222 153.698C38.5789 153.762 38.5974 153.818 38.5776 153.867C38.5604 153.919 38.5118 153.953 38.4318 153.969C38.3556 153.985 38.2709 153.978 38.1776 153.949C38.0908 153.922 38.019 153.876 37.9622 153.812ZM35.6647 155.576L39.4817 154.795L39.7526 155.1L35.9356 155.882L35.6647 155.576ZM37.5298 154.581L37.8898 154.507L39.0779 155.847L38.7179 155.921L37.5298 154.581ZM37.4684 157.686C37.293 157.488 37.1959 157.295 37.1771 157.106C37.1609 156.921 37.2169 156.758 37.3451 156.618C37.4758 156.482 37.6726 156.386 37.9355 156.333C38.1945 156.279 38.4701 156.278 38.7622 156.328C39.0568 156.381 39.3361 156.475 39.5999 156.61C39.8701 156.748 40.0929 156.915 40.2683 157.113C40.4464 157.314 40.5454 157.507 40.5654 157.691C40.5854 157.876 40.53 158.037 40.3992 158.174C40.2749 158.313 40.0832 158.409 39.8241 158.462C39.5575 158.517 39.2749 158.518 38.9764 158.465C38.6843 158.415 38.4045 158.323 38.1369 158.189C37.8693 158.054 37.6464 157.887 37.4684 157.686ZM37.857 157.607C37.986 157.752 38.1433 157.871 38.329 157.964C38.5172 158.059 38.7178 158.123 38.9308 158.155C39.1463 158.19 39.3512 158.188 39.5455 158.148C39.7398 158.108 39.8815 158.039 39.9707 157.942C40.0663 157.847 40.1076 157.734 40.0946 157.602C40.0842 157.474 40.0145 157.337 39.8855 157.191C39.7591 157.049 39.6017 156.93 39.4135 156.834C39.2253 156.739 39.0266 156.675 38.8174 156.642C38.6121 156.608 38.4123 156.611 38.218 156.651C38.0199 156.692 37.8712 156.76 37.7717 156.856C37.6761 156.951 37.6348 157.064 37.6478 157.196C37.6608 157.327 37.7306 157.464 37.857 157.607ZM39.7323 160.163L42.418 159.613L42.6928 159.923L40.0071 160.472L39.7323 160.163ZM43.1363 159.646C43.0847 159.588 43.0675 159.533 43.0847 159.482C43.1057 159.429 43.1543 159.395 43.2305 159.379C43.3105 159.363 43.3952 159.37 43.4847 159.4C43.5741 159.429 43.6447 159.473 43.6963 159.532C43.753 159.596 43.7715 159.652 43.7517 159.701C43.7345 159.752 43.6859 159.786 43.6059 159.803C43.5297 159.818 43.445 159.812 43.3517 159.783C43.2648 159.756 43.193 159.71 43.1363 159.646ZM41.3235 162.033C41.148 161.835 41.0509 161.642 41.0321 161.453C41.0159 161.267 41.0719 161.105 41.2001 160.965C41.3309 160.828 41.5277 160.733 41.7905 160.679C42.0496 160.626 42.3251 160.625 42.6172 160.675C42.9119 160.728 43.1911 160.822 43.4549 160.957C43.7251 161.094 43.9479 161.262 44.1234 161.46C44.3014 161.66 44.4004 161.853 44.4204 162.038C44.4404 162.223 44.3851 162.384 44.2543 162.521C44.1299 162.66 43.9382 162.756 43.6792 162.809C43.4125 162.863 43.1299 162.864 42.8315 162.812C42.5394 162.762 42.2595 162.67 41.9919 162.535C41.7243 162.401 41.5015 162.234 41.3235 162.033ZM41.712 161.953C41.841 162.099 41.9984 162.218 42.184 162.31C42.3723 162.406 42.5729 162.47 42.7858 162.502C43.0013 162.537 43.2062 162.534 43.4005 162.494C43.5948 162.455 43.7366 162.386 43.8258 162.289C43.9214 162.194 43.9627 162.08 43.9497 161.949C43.9393 161.82 43.8695 161.683 43.7405 161.538C43.6141 161.395 43.4568 161.276 43.2685 161.181C43.0803 161.085 42.8816 161.021 42.6725 160.988C42.4671 160.955 42.2673 160.958 42.0731 160.998C41.875 161.038 41.7262 161.106 41.6268 161.202C41.5312 161.298 41.4899 161.411 41.5029 161.542C41.5159 161.674 41.5856 161.811 41.712 161.953ZM44.5162 165.557L47.3871 163.556L47.6967 163.905L45.1455 165.649L45.0332 165.523L49.4267 165.856L49.7286 166.196L44.7291 165.797L44.5162 165.557ZM46.2799 167.545L50.2112 166.74L50.4937 167.059L46.5624 167.864L46.2799 167.545ZM47.8689 169.413C47.6625 169.18 47.5416 168.968 47.5063 168.776C47.4747 168.583 47.5069 168.401 47.6029 168.23L48.086 168.394C47.9897 168.534 47.9551 168.68 47.9824 168.833C48.0122 168.988 48.1097 169.159 48.2748 169.345C48.4451 169.537 48.6403 169.681 48.8604 169.777C49.0804 169.873 49.2914 169.9 49.4933 169.859C49.6495 169.827 49.7526 169.773 49.8026 169.698C49.8564 169.621 49.8738 169.532 49.8548 169.429C49.8422 169.329 49.8129 169.219 49.7669 169.102C49.721 168.984 49.677 168.866 49.6348 168.747C49.5991 168.631 49.5831 168.519 49.5869 168.412C49.5908 168.304 49.6329 168.21 49.7134 168.128C49.7965 168.049 49.939 167.989 50.1409 167.948C50.3542 167.904 50.5719 167.906 50.7939 167.953C51.016 168 51.2276 168.084 51.4289 168.205C51.634 168.324 51.8139 168.471 51.9687 168.646C52.1416 168.841 52.2456 169.024 52.2807 169.195C52.3184 169.37 52.2986 169.525 52.2213 169.661L51.7421 169.502C51.8043 169.379 51.8244 169.254 51.8026 169.128C51.7807 169.002 51.704 168.865 51.5724 168.717C51.4176 168.542 51.2404 168.413 51.0409 168.33C50.8413 168.248 50.6463 168.226 50.4559 168.265C50.3073 168.295 50.2105 168.346 50.1655 168.417C50.1231 168.491 50.1114 168.579 50.1305 168.682C50.1495 168.784 50.1807 168.893 50.2241 169.008C50.2738 169.125 50.3179 169.243 50.3562 169.363C50.3945 169.482 50.4086 169.594 50.3983 169.699C50.3907 169.808 50.3428 169.903 50.2547 169.987C50.1704 170.069 50.0235 170.132 49.814 170.175C49.4749 170.244 49.1315 170.21 48.7836 170.071C48.4422 169.935 48.1373 169.715 47.8689 169.413ZM49.0456 170.663L54.0683 171.089L54.2812 171.329L51.4296 173.352L51.1239 173.007L53.6576 171.235L53.7699 171.362L49.3475 171.004L49.0456 170.663ZM50.5677 171.017L50.9391 170.941L52.3324 172.512L51.961 172.588L50.5677 171.017Z" fill="#D1D4E0"/>
<path d="M66.1827 122.876C65.3447 122.387 64.3529 122.389 63.4522 121.966C64.0344 121.827 64.9772 121.821 64.6111 121.372C63.3402 120.163 61.5441 120.531 59.7099 120.906C59.4956 120.26 61.2381 120.265 60.5559 119.46C59.9348 118.759 58.9193 119.06 58.0059 119.252C57.8981 119.126 57.8296 118.994 57.8056 118.867C57.7694 118.67 57.6203 118.463 57.3871 118.287C56.499 118.009 55.7132 118.258 55.0534 118.584C55.0129 118.259 54.7922 117.916 54.4309 117.614C54.0437 117.559 53.6786 117.579 53.382 117.672C53.0855 117.765 52.8708 117.927 52.7653 118.136C52.2031 117.972 51.8101 117.24 51.2128 117.181C50.6322 117.3 49.8224 117.363 49.7209 117.668C49.1525 117.75 48.8664 116.863 47.9028 116.948C47.0564 117.44 46.7933 117.577 45.5637 117.246C44.4383 117.3 45.3227 118.03 44.8472 118.303C44.5269 118.506 44.3503 118.292 44.1755 118.074C44.0006 117.855 43.8079 117.659 43.5019 117.849C42.3909 118.042 43.5776 119.033 43.3331 119.524C42.9289 119.69 42.6787 119.379 42.4338 119.067C42.217 118.822 42.0455 118.578 41.7715 118.566C40.3527 119.713 38.2414 120.268 39.573 122.478C37.9614 122.656 40.4784 124.221 39.2837 124.544C39.852 125.069 40.5152 125.34 41.0525 126.004C39.0973 125.802 37.6303 124.256 35.9752 123.214C34.3202 122.172 32.764 121.213 30.9893 120.788C30.3548 120.795 30.887 121.186 30.8095 121.373C29.7615 121.529 29.0754 120.553 27.9821 120.86C27.6993 121.177 28.079 121.389 28.5412 121.686C28.8908 121.888 29.1718 122.137 29.3493 122.402C28.2621 122.311 27.2744 121.891 26.2194 121.764C25.7283 121.933 25.8303 122.28 26.4404 122.816C25.8765 122.975 25.5347 122.59 24.9655 122.751C24.7903 123.428 25.5946 123.67 26.3327 124.292C25.5744 124.413 25.3801 124.237 24.9327 124.579C25.0391 124.799 25.1966 125.018 25.3991 125.228C25.7152 125.584 26.0018 125.907 25.6976 126.244C26.6389 126.727 27.651 126.603 27.5311 127.509C28.0114 127.949 28.7436 127.618 29.278 127.881C29.3248 127.91 29.3643 127.943 29.3938 127.979C29.4234 128.015 29.4422 128.052 29.449 128.088C29.4558 128.124 29.4504 128.157 29.4332 128.187C29.4161 128.216 29.3875 128.24 29.3496 128.258C29.2419 128.353 29.1325 128.454 29.5601 128.734C29.9877 129.013 30.4909 128.944 31.0313 128.795C32.3161 130.417 34.1745 131.334 36.5813 131.85C37.8195 131.366 38.1765 130.583 39.218 130.037C39.3615 130.365 39.5942 130.41 39.8268 130.456C40.0594 130.501 40.2975 130.545 40.4392 130.879C40.9113 130.782 40.7918 130.488 41.5079 130.479C41.8406 131.165 42.248 131.581 43.2074 131.6C43.8411 132.596 45.5089 133.645 46.8043 134.325C49.1498 136.709 54.3425 141.596 55.5141 138.55C54.6738 137.87 53.5085 138.226 52.5615 137.881C50.204 136.156 50.182 134.295 49.1782 132.209C52.0805 131.693 54.8113 131.707 56.8392 133.921C56.714 133.179 56.8141 132.476 57.1339 131.853C55.3217 129.174 52.21 130.53 50.1181 128.736C50.7102 128.355 50.6142 127.748 50.955 127.286C56.4487 126.034 62.0022 124.315 66.3187 123.03L66.1827 122.876Z" fill="url(#paint3_radial_485_10926)"/>
<path d="M66.1827 122.876C65.3447 122.387 64.3529 122.389 63.4522 121.966C64.0344 121.827 64.9772 121.821 64.6111 121.372C63.3402 120.163 61.5441 120.531 59.7099 120.906C59.4956 120.26 61.2381 120.265 60.5559 119.46C59.9348 118.759 58.9193 119.06 58.0059 119.252C57.8981 119.126 57.8296 118.994 57.8056 118.867C57.7694 118.67 57.6203 118.463 57.3871 118.287C56.499 118.009 55.7132 118.258 55.0534 118.584C55.0129 118.259 54.7922 117.916 54.4309 117.614C54.0437 117.559 53.6786 117.579 53.382 117.672C53.0855 117.765 52.8708 117.927 52.7653 118.136C52.2031 117.972 51.8101 117.24 51.2128 117.181C50.6322 117.3 49.8224 117.363 49.7209 117.668C49.1525 117.75 48.8664 116.863 47.9028 116.948C47.0564 117.44 46.7933 117.577 45.5637 117.246C44.4383 117.3 45.3227 118.03 44.8472 118.303C44.5269 118.506 44.3503 118.292 44.1755 118.074C44.0006 117.855 43.8079 117.659 43.5019 117.849C42.3909 118.042 43.5776 119.033 43.3331 119.524C42.9289 119.69 42.6787 119.379 42.4338 119.067C42.217 118.822 42.0455 118.578 41.7715 118.566C40.3527 119.713 38.2414 120.268 39.573 122.478C37.9614 122.656 40.4784 124.221 39.2837 124.544C39.852 125.069 40.5152 125.34 41.0525 126.004C39.0973 125.802 37.6303 124.256 35.9752 123.214C34.3202 122.172 32.764 121.213 30.9893 120.788C30.3548 120.795 30.887 121.186 30.8095 121.373C29.7615 121.529 29.0754 120.553 27.9821 120.86C27.6993 121.177 28.079 121.389 28.5412 121.686C28.8908 121.888 29.1718 122.137 29.3493 122.402C28.2621 122.311 27.2744 121.891 26.2194 121.764C25.7283 121.933 25.8303 122.28 26.4404 122.816C25.8765 122.975 25.5347 122.59 24.9655 122.751C24.7903 123.428 25.5946 123.67 26.3327 124.292C25.5744 124.413 25.3801 124.237 24.9327 124.579C25.0391 124.799 25.1966 125.018 25.3991 125.228C25.7152 125.584 26.0018 125.907 25.6976 126.244C26.6389 126.727 27.651 126.603 27.5311 127.509C28.0114 127.949 28.7436 127.618 29.278 127.881C29.3248 127.91 29.3643 127.943 29.3938 127.979C29.4234 128.015 29.4422 128.052 29.449 128.088C29.4558 128.124 29.4504 128.157 29.4332 128.187C29.4161 128.216 29.3875 128.24 29.3496 128.258C29.2419 128.353 29.1325 128.454 29.5601 128.734C29.9877 129.013 30.4909 128.944 31.0313 128.795C32.3161 130.417 34.1745 131.334 36.5813 131.85C37.8195 131.366 38.1765 130.583 39.218 130.037C39.3615 130.365 39.5942 130.41 39.8268 130.456C40.0594 130.501 40.2975 130.545 40.4392 130.879C40.9113 130.782 40.7918 130.488 41.5079 130.479C41.8406 131.165 42.248 131.581 43.2074 131.6C43.8411 132.596 45.5089 133.645 46.8043 134.325C49.1498 136.709 54.3425 141.596 55.5141 138.55C54.6738 137.87 53.5085 138.226 52.5615 137.881C50.204 136.156 50.182 134.295 49.1782 132.209C52.0805 131.693 54.8113 131.707 56.8392 133.921C56.714 133.179 56.8141 132.476 57.1339 131.853C55.3217 129.174 52.21 130.53 50.1181 128.736C50.7102 128.355 50.6142 127.748 50.955 127.286C56.4487 126.034 62.0022 124.315 66.3187 123.03L66.1827 122.876Z" fill="url(#paint4_angular_485_10926)" style="mix-blend-mode:screen"/>
<path d="M86.8597 109.466L90.6844 106.949L91.6331 108.019L88.7565 109.738L88.4583 109.416L93.0634 109.632L93.7462 110.402L90.8805 112.147L90.6036 111.821L95.1765 112.014L96.1253 113.084L89.706 112.675L89.0232 111.905L91.6907 110.191L91.9566 110.49L87.5354 110.227L86.8597 109.466ZM92.2223 115.512L96.0469 112.996L96.9956 114.065L94.119 115.784L93.8209 115.462L98.4259 115.678L99.1087 116.448L96.243 118.193L95.9661 117.867L100.539 118.061L101.488 119.13L95.0685 118.721L94.3857 117.951L97.0532 116.237L97.3191 116.537L92.8979 116.274L92.2223 115.512ZM97.5848 121.558L101.409 119.042L102.358 120.112L99.4815 121.831L99.1834 121.509L103.788 121.724L104.471 122.494L101.606 124.24L101.329 123.913L105.902 124.107L106.85 125.177L100.431 124.767L99.7482 123.997L102.416 122.283L102.682 122.583L98.2604 122.32L97.5848 121.558ZM102.512 127.255C102.339 127.06 102.283 126.883 102.342 126.724C102.402 126.565 102.556 126.461 102.803 126.41C103.051 126.359 103.315 126.379 103.595 126.468C103.875 126.558 104.101 126.7 104.273 126.894C104.441 127.083 104.495 127.257 104.435 127.416C104.376 127.575 104.222 127.68 103.975 127.731C103.727 127.782 103.463 127.762 103.183 127.673C102.903 127.583 102.679 127.444 102.512 127.255ZM104.091 128.894L109.216 127.844L110.165 128.914L105.039 129.963L104.091 128.894ZM110.518 128.21C110.365 128.037 110.312 127.878 110.36 127.735C110.415 127.589 110.556 127.493 110.782 127.447C111.002 127.402 111.239 127.421 111.496 127.502C111.752 127.584 111.957 127.711 112.11 127.884C112.268 128.062 112.317 128.221 112.258 128.361C112.203 128.506 112.065 128.602 111.846 128.646C111.62 128.693 111.378 128.675 111.122 128.594C110.878 128.516 110.676 128.388 110.518 128.21ZM107.399 132.765C107.049 132.371 106.85 131.99 106.8 131.624C106.763 131.261 106.862 130.944 107.098 130.672C107.345 130.405 107.72 130.219 108.222 130.117C108.725 130.014 109.255 130.014 109.814 130.116C110.38 130.217 110.922 130.403 111.438 130.674C111.961 130.944 112.395 131.273 112.74 131.662C113.095 132.062 113.291 132.443 113.328 132.806C113.377 133.172 113.282 133.489 113.041 133.755C112.808 134.02 112.44 134.203 111.938 134.306C111.436 134.409 110.898 134.411 110.325 134.311C109.759 134.21 109.214 134.025 108.691 133.755C108.179 133.49 107.749 133.16 107.399 132.765ZM108.686 132.492C108.864 132.692 109.076 132.856 109.323 132.984C109.583 133.116 109.851 133.202 110.128 133.241C110.417 133.284 110.696 133.278 110.964 133.223C111.233 133.168 111.432 133.076 111.56 132.947C111.689 132.819 111.743 132.667 111.722 132.493C111.708 132.317 111.612 132.129 111.435 131.929C111.262 131.735 111.049 131.574 110.795 131.448C110.547 131.319 110.283 131.233 110.001 131.189C109.719 131.144 109.444 131.15 109.175 131.205C108.906 131.26 108.704 131.352 108.568 131.482C108.44 131.611 108.382 131.763 108.396 131.939C108.417 132.113 108.514 132.297 108.686 132.492ZM110.408 136.158C110.236 135.963 110.179 135.787 110.239 135.628C110.298 135.469 110.452 135.364 110.699 135.313C110.947 135.262 111.211 135.282 111.491 135.371C111.771 135.461 111.997 135.603 112.17 135.797C112.337 135.986 112.391 136.16 112.332 136.319C112.272 136.479 112.119 136.583 111.871 136.634C111.623 136.685 111.36 136.665 111.08 136.576C110.8 136.486 110.576 136.347 110.408 136.158ZM113.807 139.99C113.558 139.71 113.407 139.44 113.354 139.183C113.309 138.924 113.357 138.701 113.499 138.512C113.641 138.323 113.877 138.189 114.207 138.108L116.022 137.737C116.371 137.678 116.736 137.69 117.118 137.771C117.511 137.857 117.884 137.994 118.236 138.184C118.593 138.379 118.896 138.617 119.145 138.898C119.466 139.26 119.637 139.608 119.657 139.942C119.678 140.276 119.558 140.565 119.299 140.81C119.044 141.06 118.662 141.237 118.153 141.342C117.65 141.444 117.123 141.453 116.571 141.368C116.024 141.289 115.507 141.13 115.02 140.891C114.532 140.653 114.128 140.352 113.807 139.99ZM114.926 139.541C115.098 139.736 115.308 139.897 115.556 140.025C115.81 140.152 116.076 140.235 116.353 140.274C116.642 140.317 116.924 140.31 117.2 140.253C117.469 140.198 117.668 140.107 117.796 139.978C117.936 139.854 117.996 139.704 117.975 139.53C117.961 139.354 117.868 139.169 117.696 138.974C117.528 138.785 117.317 138.627 117.062 138.501C116.815 138.372 116.547 138.287 116.258 138.244C115.981 138.205 115.708 138.213 115.439 138.268C115.163 138.324 114.955 138.415 114.815 138.539C114.686 138.668 114.627 138.817 114.636 138.988C114.657 139.162 114.753 139.347 114.926 139.541ZM109.843 138.236L117.113 136.748L118.054 137.809L116.706 138.085L115.307 138.161L114.216 138.585L110.778 139.289L109.843 138.236ZM117.767 144.455C117.403 144.044 117.192 143.656 117.136 143.291C117.087 142.925 117.18 142.606 117.415 142.334C117.656 142.068 118.034 141.882 118.551 141.776C119.06 141.672 119.592 141.668 120.146 141.765C120.712 141.867 121.251 142.05 121.762 142.315C122.281 142.58 122.71 142.903 123.05 143.287C123.386 143.665 123.567 144.021 123.595 144.353C123.634 144.69 123.531 144.979 123.286 145.221C123.053 145.467 122.692 145.639 122.204 145.739C122.112 145.758 122.011 145.772 121.903 145.782C121.806 145.795 121.688 145.803 121.548 145.806L118.62 142.518L119.66 142.305L122.15 145.099L121.334 144.759C121.628 144.686 121.845 144.59 121.983 144.473C122.126 144.36 122.188 144.223 122.17 144.061C122.163 143.903 122.071 143.724 121.894 143.524C121.707 143.313 121.48 143.142 121.214 143.012C120.955 142.88 120.674 142.794 120.371 142.754C120.079 142.717 119.782 142.731 119.477 142.793C119.166 142.857 118.932 142.956 118.775 143.09C118.63 143.228 118.569 143.394 118.59 143.587C118.618 143.779 118.73 143.986 118.927 144.208C119.104 144.408 119.307 144.58 119.536 144.725C119.771 144.868 120.03 144.981 120.313 145.064L120.049 145.855C119.591 145.725 119.166 145.538 118.773 145.293C118.385 145.053 118.049 144.774 117.767 144.455Z" fill="#D1D4E0"/>
<path d="M97.3017 107.221C97.106 107 96.993 106.791 96.9629 106.594C96.9327 106.397 96.9823 106.228 97.1115 106.086C97.2359 105.946 97.4377 105.847 97.7168 105.79C97.9813 105.736 98.2521 105.731 98.5292 105.776C98.8145 105.824 99.0947 105.915 99.3695 106.048C99.6444 106.182 99.8968 106.349 100.127 106.55L99.6363 106.398L100.492 106.276L100.88 106.714L99.7777 106.939L99.6484 106.793C99.4677 106.596 99.2466 106.451 98.9853 106.359C98.7274 106.27 98.4735 106.252 98.2237 106.303C98.067 106.335 97.9506 106.39 97.8746 106.467C97.797 106.549 97.7654 106.644 97.7797 106.752C97.7925 106.864 97.8553 106.984 97.9681 107.111C98.1307 107.294 98.3295 107.437 98.5648 107.539C98.7984 107.646 99.0554 107.717 99.3357 107.752L99.26 108.205C98.8797 108.155 98.5192 108.045 98.1784 107.877C97.8328 107.709 97.5405 107.49 97.3017 107.221ZM101.418 106.352C101.322 106.243 101.29 106.146 101.324 106.059C101.357 105.973 101.442 105.916 101.579 105.888C101.717 105.86 101.859 105.87 102.007 105.919C102.16 105.968 102.284 106.046 102.38 106.154C102.473 106.259 102.503 106.355 102.47 106.441C102.441 106.527 102.358 106.583 102.221 106.611C102.084 106.639 101.939 106.629 101.786 106.581C101.634 106.533 101.511 106.456 101.418 106.352ZM100.416 108.686L105.514 107.643L105.843 108.013L103.757 110.389L103.533 110.136L108.545 111.059L108.873 111.43L103.775 112.473L103.307 111.946L107.193 111.15L107.259 111.283L103.305 110.554L102.977 110.184L104.621 108.309L104.77 108.418L100.884 109.214L100.416 108.686ZM105.442 114.451C105.226 114.208 105.109 113.971 105.09 113.741C105.076 113.51 105.154 113.308 105.326 113.136C105.501 112.968 105.759 112.848 106.102 112.778C106.445 112.708 106.803 112.701 107.177 112.757C107.554 112.817 107.91 112.927 108.244 113.089C108.581 113.254 108.86 113.46 109.079 113.707C109.258 113.909 109.361 114.1 109.387 114.28C109.422 114.463 109.385 114.623 109.275 114.76C109.17 114.897 108.996 114.997 108.751 115.06L107.7 115.275C107.441 115.315 107.17 115.306 106.887 115.249C106.609 115.196 106.342 115.1 106.086 114.962C105.839 114.827 105.624 114.657 105.442 114.451ZM106.141 114.408C106.363 114.658 106.653 114.838 107.009 114.946C107.37 115.053 107.725 115.071 108.073 115C108.313 114.951 108.489 114.873 108.603 114.765C108.724 114.661 108.777 114.535 108.763 114.388C108.753 114.24 108.673 114.082 108.524 113.913C108.375 113.745 108.19 113.606 107.971 113.496C107.756 113.39 107.524 113.318 107.277 113.28C107.037 113.245 106.803 113.251 106.572 113.298C106.337 113.347 106.161 113.425 106.042 113.533C105.932 113.644 105.884 113.775 105.897 113.927C105.911 114.079 105.992 114.239 106.141 114.408ZM106.302 115.323L107.242 115.13L108.179 115.051L108.939 114.783L109.791 114.608L110.244 115.119L106.754 115.833L106.302 115.323ZM109.293 113.351L109.39 113.06L111.22 113.547L111.051 114.052L109.293 113.351ZM108.084 117.431C107.952 117.281 107.85 117.134 107.78 116.989C107.717 116.847 107.683 116.711 107.677 116.579C107.675 116.447 107.704 116.326 107.763 116.217L108.478 116.455C108.407 116.584 108.389 116.721 108.424 116.864C108.463 117.006 108.552 117.156 108.692 117.313C108.831 117.47 108.973 117.585 109.118 117.657C109.268 117.728 109.406 117.75 109.534 117.724C109.661 117.698 109.728 117.642 109.733 117.557C109.747 117.475 109.728 117.375 109.676 117.257C109.628 117.139 109.572 117.013 109.507 116.881C109.449 116.751 109.409 116.625 109.387 116.501C109.364 116.378 109.385 116.267 109.449 116.17C109.517 116.077 109.656 116.008 109.866 115.965C110.077 115.922 110.293 115.924 110.515 115.972C110.741 116.018 110.957 116.102 111.163 116.224C111.373 116.349 111.565 116.51 111.741 116.709C111.927 116.918 112.042 117.113 112.087 117.294C112.139 117.478 112.117 117.641 112.019 117.785L111.304 117.547C111.365 117.446 111.38 117.333 111.349 117.206C111.321 117.084 111.246 116.953 111.124 116.815C110.994 116.669 110.86 116.564 110.722 116.499C110.592 116.438 110.468 116.419 110.351 116.443C110.233 116.467 110.172 116.519 110.169 116.6C110.165 116.68 110.189 116.779 110.241 116.896C110.296 117.018 110.353 117.143 110.41 117.273C110.472 117.401 110.512 117.528 110.53 117.653C110.547 117.777 110.52 117.887 110.448 117.981C110.378 118.079 110.236 118.15 110.02 118.194C109.692 118.262 109.353 118.225 109.003 118.084C108.656 117.948 108.35 117.73 108.084 117.431ZM110.57 120.135L114.06 119.421L114.508 119.926L111.018 120.64L110.57 120.135ZM114.982 119.53C114.899 119.437 114.87 119.352 114.895 119.276C114.925 119.199 115.002 119.149 115.124 119.123C115.242 119.099 115.366 119.109 115.498 119.153C115.634 119.196 115.743 119.264 115.826 119.358C115.909 119.451 115.936 119.536 115.906 119.613C115.88 119.689 115.809 119.739 115.691 119.763C115.569 119.788 115.439 119.779 115.303 119.736C115.172 119.693 115.064 119.624 114.982 119.53ZM113.35 123.269L115.385 122.853C115.649 122.799 115.811 122.691 115.869 122.528C115.928 122.366 115.868 122.184 115.689 121.982C115.569 121.847 115.424 121.736 115.253 121.647C115.081 121.558 114.901 121.498 114.71 121.466C114.52 121.434 114.337 121.437 114.161 121.473L114.131 121.234C114.395 121.179 114.67 121.176 114.956 121.224C115.241 121.271 115.514 121.364 115.774 121.5C116.039 121.636 116.261 121.805 116.44 122.007C116.619 122.209 116.711 122.4 116.715 122.581C116.722 122.765 116.657 122.924 116.521 123.058C116.39 123.191 116.205 123.282 115.965 123.331L113.798 123.774L113.35 123.269ZM111.678 121.384L115.167 120.67L115.615 121.175L112.126 121.889L111.678 121.384ZM114.713 124.807L118.724 123.985C118.984 123.932 119.247 123.929 119.515 123.976C119.787 124.022 120.046 124.108 120.291 124.235C120.54 124.365 120.754 124.531 120.933 124.733C121.069 124.887 121.152 125.026 121.183 125.153C121.214 125.279 121.205 125.402 121.156 125.523L120.436 125.279C120.461 125.216 120.465 125.152 120.446 125.085C120.432 125.017 120.387 124.94 120.311 124.854C120.168 124.693 119.996 124.58 119.794 124.516C119.595 124.455 119.388 124.446 119.172 124.49L115.161 125.312L114.713 124.807ZM117.018 123.559L117.621 123.436L119.402 125.444L118.8 125.568L117.018 123.559ZM117.232 127.745C117 127.483 116.872 127.231 116.848 126.989C116.824 126.746 116.894 126.535 117.059 126.355C117.229 126.175 117.485 126.049 117.828 125.979C118.166 125.91 118.524 125.91 118.903 125.978C119.287 126.045 119.652 126.167 120 126.343C120.347 126.52 120.637 126.739 120.869 127.001C121.098 127.259 121.224 127.509 121.249 127.752C121.281 127.997 121.215 128.209 121.05 128.389C120.885 128.568 120.634 128.693 120.296 128.762C119.953 128.832 119.587 128.834 119.199 128.768C118.815 128.701 118.448 128.577 118.097 128.397C117.749 128.22 117.461 128.003 117.232 127.745ZM117.872 127.614C118.021 127.783 118.205 127.922 118.424 128.032C118.643 128.141 118.874 128.216 119.116 128.254C119.364 128.292 119.603 128.287 119.833 128.24C120.058 128.194 120.224 128.114 120.331 127.999C120.441 127.888 120.487 127.757 120.469 127.606C120.459 127.458 120.379 127.3 120.23 127.131C120.081 126.963 119.896 126.824 119.678 126.714C119.463 126.603 119.235 126.529 118.992 126.49C118.75 126.451 118.516 126.455 118.29 126.501C118.06 126.548 117.888 126.628 117.773 126.74C117.663 126.85 117.615 126.982 117.628 127.134C117.641 127.286 117.722 127.446 117.872 127.614ZM119.045 129.69L122.534 128.976L122.982 129.481L119.492 130.195L119.045 129.69ZM121.483 129.788L121.424 129.574C121.87 129.483 122.295 129.489 122.699 129.592C123.102 129.695 123.435 129.894 123.697 130.19C123.817 130.324 123.893 130.452 123.925 130.574C123.963 130.694 123.952 130.816 123.893 130.938L123.151 130.699C123.18 130.627 123.181 130.554 123.156 130.479C123.13 130.405 123.078 130.323 122.998 130.233C122.832 130.046 122.618 129.909 122.355 129.821C122.092 129.734 121.802 129.723 121.483 129.788ZM121.051 131.953L124.541 131.239L124.989 131.744L121.499 132.458L121.051 131.953ZM122.649 133.754L124.757 133.323C125.017 133.269 125.165 133.166 125.203 133.013C125.248 132.862 125.19 132.695 125.027 132.511C124.918 132.388 124.786 132.285 124.631 132.201C124.476 132.118 124.311 132.059 124.136 132.025C123.96 131.99 123.787 131.99 123.615 132.025L123.563 131.79C123.828 131.736 124.096 131.732 124.368 131.778C124.644 131.828 124.903 131.918 125.147 132.049C125.396 132.18 125.605 132.34 125.774 132.531C125.94 132.718 126.035 132.897 126.06 133.069C126.088 133.244 126.043 133.395 125.923 133.521C125.807 133.651 125.614 133.744 125.345 133.799L123.096 134.259L122.649 133.754ZM124.246 135.555L126.354 135.123C126.614 135.07 126.763 134.967 126.8 134.813C126.846 134.663 126.789 134.498 126.63 134.318C126.52 134.195 126.386 134.089 126.228 134.002C126.073 133.919 125.908 133.86 125.733 133.825C125.557 133.791 125.384 133.791 125.212 133.826L125.091 133.513C125.37 133.469 125.648 133.476 125.926 133.534C126.211 133.595 126.477 133.693 126.725 133.828C126.977 133.962 127.185 134.122 127.351 134.309C127.524 134.504 127.624 134.689 127.652 134.864C127.681 135.04 127.637 135.192 127.52 135.322C127.407 135.456 127.214 135.551 126.939 135.607L124.699 136.066L124.246 135.555ZM126.24 137.901C126.024 137.658 125.907 137.421 125.888 137.191C125.874 136.96 125.952 136.758 126.124 136.586C126.298 136.417 126.557 136.298 126.9 136.228C127.243 136.158 127.601 136.151 127.975 136.207C128.352 136.267 128.708 136.377 129.042 136.539C129.379 136.704 129.657 136.91 129.876 137.157C130.056 137.359 130.158 137.55 130.185 137.73C130.22 137.913 130.183 138.073 130.073 138.21C129.968 138.347 129.793 138.446 129.549 138.51L128.498 138.725C128.238 138.765 127.967 138.756 127.685 138.699C127.406 138.646 127.139 138.55 126.884 138.412C126.637 138.277 126.422 138.107 126.24 137.901ZM126.939 137.857C127.161 138.108 127.451 138.287 127.807 138.396C128.168 138.503 128.523 138.521 128.871 138.45C129.11 138.401 129.287 138.322 129.4 138.215C129.522 138.111 129.575 137.985 129.56 137.838C129.551 137.69 129.471 137.531 129.322 137.363C129.172 137.195 128.988 137.056 128.769 136.946C128.554 136.84 128.322 136.768 128.074 136.73C127.835 136.695 127.6 136.701 127.37 136.748C127.135 136.796 126.958 136.875 126.84 136.983C126.73 137.094 126.682 137.225 126.695 137.377C126.708 137.529 126.79 137.689 126.939 137.857ZM127.099 138.773L128.04 138.58L128.977 138.501L129.737 138.233L130.589 138.058L131.042 138.569L127.552 139.283L127.099 138.773ZM129.211 141.251C128.978 140.989 128.849 140.735 128.821 140.489C128.797 140.246 128.867 140.035 129.032 139.855C129.205 139.679 129.461 139.555 129.799 139.486C130.141 139.416 130.503 139.413 130.883 139.476C131.267 139.544 131.63 139.666 131.973 139.843C132.324 140.023 132.615 140.244 132.847 140.506C133.03 140.712 133.147 140.913 133.2 141.11C133.258 141.306 133.248 141.487 133.17 141.653L132.431 141.407C132.485 141.298 132.491 141.178 132.449 141.045C132.414 140.915 132.334 140.779 132.208 140.637C132.059 140.469 131.875 140.33 131.656 140.22C131.442 140.109 131.213 140.034 130.971 139.995C130.728 139.957 130.492 139.961 130.261 140.008C130.031 140.055 129.861 140.134 129.751 140.245C129.641 140.356 129.593 140.487 129.606 140.639C129.619 140.791 129.7 140.952 129.85 141.12C129.976 141.262 130.122 141.384 130.289 141.487C130.463 141.593 130.653 141.676 130.856 141.736L130.709 142.157C130.413 142.072 130.135 141.95 129.872 141.791C129.614 141.637 129.393 141.456 129.211 141.251ZM130.644 142.769L134.133 142.054L134.581 142.559L131.092 143.274L130.644 142.769ZM135.055 142.164C134.972 142.07 134.944 141.986 134.969 141.91C134.999 141.833 135.075 141.782 135.198 141.757C135.315 141.733 135.44 141.743 135.571 141.786C135.708 141.829 135.817 141.897 135.9 141.991C135.983 142.084 136.009 142.17 135.979 142.247C135.954 142.322 135.883 142.372 135.765 142.396C135.643 142.422 135.513 142.413 135.377 142.37C135.245 142.326 135.138 142.257 135.055 142.164ZM132.758 145.25C132.526 144.988 132.397 144.736 132.373 144.494C132.349 144.251 132.42 144.04 132.584 143.861C132.754 143.68 133.01 143.555 133.353 143.484C133.691 143.415 134.05 143.415 134.428 143.483C134.812 143.55 135.178 143.672 135.525 143.849C135.872 144.025 136.162 144.244 136.395 144.506C136.623 144.764 136.75 145.014 136.774 145.257C136.806 145.502 136.74 145.714 136.575 145.894C136.411 146.074 136.159 146.198 135.821 146.267C135.478 146.337 135.113 146.339 134.724 146.273C134.34 146.206 133.973 146.082 133.622 145.902C133.275 145.726 132.987 145.508 132.758 145.25ZM133.397 145.119C133.546 145.288 133.73 145.427 133.949 145.537C134.168 145.647 134.399 145.721 134.642 145.76C134.889 145.797 135.128 145.793 135.358 145.745C135.584 145.699 135.75 145.619 135.856 145.504C135.966 145.393 136.012 145.262 135.994 145.111C135.984 144.963 135.905 144.805 135.755 144.637C135.606 144.468 135.422 144.329 135.203 144.219C134.989 144.109 134.761 144.034 134.518 143.995C134.275 143.956 134.041 143.96 133.816 144.006C133.586 144.053 133.413 144.133 133.298 144.245C133.188 144.356 133.14 144.487 133.153 144.639C133.167 144.791 133.248 144.951 133.397 145.119ZM136.549 144.083L136.646 143.791L138.476 144.279L138.308 144.784L136.549 144.083ZM136.242 149.081L138.277 148.664C138.541 148.61 138.703 148.502 138.762 148.339C138.82 148.177 138.76 147.995 138.581 147.793C138.461 147.658 138.316 147.547 138.145 147.458C137.974 147.369 137.793 147.309 137.603 147.277C137.412 147.246 137.229 147.248 137.053 147.284L137.023 147.045C137.287 146.991 137.562 146.987 137.848 147.035C138.133 147.083 138.406 147.175 138.666 147.312C138.931 147.447 139.153 147.616 139.332 147.818C139.511 148.02 139.603 148.211 139.607 148.392C139.614 148.576 139.549 148.735 139.413 148.869C139.282 149.002 139.097 149.093 138.857 149.142L136.69 149.586L136.242 149.081ZM134.57 147.196L138.06 146.481L138.507 146.986L135.018 147.701L134.57 147.196ZM139.674 150.797L141.065 150.505L141.206 150.655C141.322 150.786 141.46 150.893 141.62 150.975C141.783 151.061 141.953 151.119 142.13 151.149C142.307 151.179 142.474 151.178 142.631 151.146C142.793 151.113 142.91 151.056 142.982 150.975C143.058 150.897 143.086 150.801 143.065 150.686C143.047 150.575 142.979 150.452 142.859 150.317C142.7 150.137 142.504 149.994 142.27 149.887C142.036 149.781 141.777 149.71 141.492 149.675L141.567 149.222C141.953 149.272 142.315 149.381 142.656 149.55C143 149.722 143.29 149.941 143.526 150.207C143.728 150.435 143.846 150.65 143.879 150.851C143.918 151.05 143.872 151.221 143.743 151.362C143.619 151.503 143.417 151.602 143.138 151.659C142.883 151.711 142.611 151.714 142.32 151.667C142.038 151.623 141.757 151.535 141.478 151.402C141.206 151.272 140.955 151.102 140.723 150.893L141.211 151.052L140.062 151.234L139.674 150.797ZM138.173 151.356C138.08 151.251 138.049 151.154 138.079 151.064C138.112 150.977 138.197 150.92 138.334 150.892C138.472 150.864 138.614 150.874 138.762 150.924C138.918 150.976 139.043 151.054 139.135 151.159C139.228 151.264 139.258 151.359 139.225 151.446C139.2 151.535 139.118 151.593 138.981 151.621C138.844 151.649 138.698 151.637 138.541 151.585C138.389 151.537 138.266 151.461 138.173 151.356Z" fill="#D1D4E0"/>
<g style="mix-blend-mode:luminosity" opacity="0.2">
<path d="M311.396 140.075L242.925 154.093C237.601 155.183 233.51 157.492 231.203 160.71L223.888 170.911C221.58 174.129 217.489 176.438 212.166 177.528L39.913 212.793" stroke="url(#paint5_linear_485_10926)" stroke-width="0.553902"/>
</g>
<rect width="56.6599" height="290.799" transform="matrix(0.663536 0.748145 -0.97968 0.200567 330.457 160.48)" fill="black"/>
</g>
<g opacity="0.8" filter="url(#filter2_f_485_10926)">
<path d="M98.1773 186.761C53.5882 140.375 52.649 98.3236 48.0078 66.1233L76.0762 75.4865C79.9828 79.8379 104.052 99.0321 125.539 109.115C147.025 119.198 282.672 193.564 303.508 221.623L240.508 254.434C227.812 253.684 131.552 221.481 98.1773 186.761Z" fill="#05050B"/>
</g>
<mask id="mask1_485_10926" style="mask-type:alpha" maskUnits="userSpaceOnUse" x="14" y="4" width="384" height="253">
<rect width="196.163" height="297.656" rx="20.4692" transform="matrix(0.961262 -0.275637 0.71934 0.694658 5 54.0698)" fill="white"/>
<rect width="196.163" height="297.656" rx="20.4692" transform="matrix(0.961262 -0.275637 0.71934 0.694658 5 54.0698)" fill="url(#paint6_linear_485_10926)"/>
</mask>
<g mask="url(#mask1_485_10926)">
<rect x="0.716678" y="0.178688" width="195.31" height="296.803" transform="matrix(0.961262 -0.275637 0.71934 0.694658 4.89923 54.3219)" fill="url(#paint7_linear_485_10926)" stroke="url(#paint8_linear_485_10926)" stroke-width="0.852883"/>
<path fill-rule="evenodd" clip-rule="evenodd" d="M131.89 151.097C131.884 151.091 131.878 151.085 131.873 151.079L128.313 147.492C128.313 147.492 128.313 147.492 128.313 147.492C59.3823 78.0249 -82.6873 40.5213 -184.296 67.3011C-184.3 67.3022 -184.304 67.3033 -184.308 67.3044C-287.374 94.5002 -310.977 176.841 -236.223 250.507L-293.863 266.445L-236.217 250.512C-164.291 321.407 -25.0294 358.304 75.3889 333.06L115.83 374.931L75.3969 333.058C179.816 306.821 204.962 224.904 131.89 151.097ZM249.934 122.177C366.869 241.98 325.414 374.317 156.286 416.817C156.283 416.818 156.28 416.819 156.278 416.819C-7.75919 458.052 -233.916 398.116 -351.373 282.347C-351.375 282.345 -351.377 282.343 -351.379 282.341C-473.159 162.33 -434.608 28.2274 -266.815 -16.0382L-266.802 -16.0415C-103.379 -59.1228 128.056 -0.40212 244.26 116.442C245.045 117.218 245.826 117.996 246.602 118.776L247.788 119.95C248.535 120.69 249.25 121.432 249.934 122.177Z" fill="url(#paint9_linear_485_10926)"/>
<path fill-rule="evenodd" clip-rule="evenodd" d="M174.703 360.245C197.042 383.374 188.86 408.733 156.429 416.886C-7.60854 458.123 -233.771 398.186 -351.23 282.416C-351.232 282.414 -351.234 282.412 -351.236 282.41C-473.015 162.399 -434.465 28.2963 -266.671 -15.9693L-266.659 -15.9725C-103.236 -59.0539 128.199 -0.333253 244.403 116.511C245.261 117.358 246.113 118.208 246.959 119.061C269.79 142.063 262.286 167.604 230.198 176.108C198.111 184.612 153.591 172.859 130.761 149.857C130.173 149.265 129.581 148.675 128.986 148.089C128.808 147.913 128.631 147.737 128.456 147.561C59.5257 78.0938 -82.5439 40.5902 -184.152 67.37C-184.156 67.3711 -184.16 67.3722 -184.164 67.3732C-287.23 94.569 -310.834 176.91 -236.079 250.575L-293.654 266.496L-236.073 250.581C-164.148 321.476 -24.8861 358.373 75.5321 333.129C107.964 324.976 152.364 337.117 174.703 360.245Z" fill="url(#paint10_linear_485_10926)"/>
</g>
<path fill-rule="evenodd" clip-rule="evenodd" d="M229.396 214.416C229.396 214.416 229.396 214.416 229.396 214.417L229.381 214.557C229.381 214.557 229.381 214.557 229.381 214.557C229.093 217.277 232.792 220.397 237.617 221.367C237.617 221.367 237.617 221.367 237.618 221.367C242.513 222.35 246.727 220.784 246.972 217.873L249.74 218.406L246.972 217.873C247.209 215.072 243.588 212.01 238.869 211.023L239.084 209.401L238.869 211.023C233.963 209.996 229.709 211.528 229.396 214.416ZM223.88 213.238C224.449 208.577 231.352 206.115 239.299 207.778C239.299 207.778 239.299 207.778 239.299 207.778C247.007 209.391 252.887 214.363 252.501 218.937C252.501 218.937 252.501 218.937 252.501 218.937C252.101 223.68 245.233 226.229 237.264 224.628L237.264 224.628C229.504 223.068 223.38 218.042 223.856 213.462C223.858 213.431 223.861 213.401 223.864 213.37L223.869 213.324C223.871 213.295 223.875 213.266 223.88 213.238Z" fill="url(#paint11_linear_485_10926)"/>
<path fill-rule="evenodd" clip-rule="evenodd" d="M226.805 212.243C228.33 212.548 229.489 213.526 229.394 214.427L228.657 221.37L228.657 221.37L227.919 228.323L227.919 228.323L227.919 228.324C227.578 231.544 220.627 231.66 217.354 228.499L211.211 222.567C210.295 221.683 210.545 220.682 211.769 220.331C212.993 219.98 214.728 220.412 215.643 221.296L221.787 227.228C221.862 227.301 221.917 227.322 221.945 227.331C221.991 227.347 222.066 227.363 222.154 227.361C222.243 227.36 222.302 227.342 222.333 227.325C222.352 227.314 222.387 227.292 222.395 227.218L225.157 227.771C222.395 227.218 222.395 227.218 222.395 227.218L222.395 227.218L223.133 220.264L223.133 220.264L223.869 213.321C223.965 212.42 225.279 211.938 226.805 212.243Z" fill="white"/>
<path fill-rule="evenodd" clip-rule="evenodd" d="M236.324 208.823C236.443 207.927 237.775 207.459 239.298 207.778C247.006 209.391 252.887 214.363 252.501 218.937L252.501 218.937C252.101 223.68 245.233 226.229 237.264 224.628L237.264 224.628C229.503 223.068 223.38 218.042 223.856 213.462C223.858 213.428 223.862 213.395 223.865 213.362C223.961 212.461 225.275 211.978 226.8 212.283C228.326 212.588 229.485 213.566 229.39 214.467C229.387 214.49 229.385 214.513 229.383 214.536C229.382 214.543 229.382 214.55 229.381 214.557C229.092 217.277 232.792 220.397 237.617 221.367L237.618 221.367C242.513 222.35 246.727 220.784 246.972 217.873L249.736 218.405L246.972 217.873C247.209 215.072 243.588 212.01 238.869 211.023C237.345 210.704 236.206 209.719 236.324 208.823Z" fill="url(#paint12_linear_485_10926)"/>
<path d="M210.272 218.885C211.876 218.425 212.204 217.113 211.004 215.954C209.805 214.796 207.532 214.23 205.928 214.69C204.325 215.15 203.997 216.462 205.196 217.62C206.396 218.778 208.668 219.344 210.272 218.885Z" fill="white"/>
<g opacity="0.3">
<path d="M321.169 189.545L329.432 200.575L333.328 199.458L325.068 188.427L321.169 189.545Z" fill="white"/>
<path d="M315.477 191.192L318.958 199.332L317.449 198.385C315.369 197.319 311.326 196.091 307.616 195.65L320.028 203.265L324.146 202.078L319.603 190.006L315.477 191.192Z" fill="white"/>
<path d="M310.541 193.566C309.663 193.002 308.812 193.002 307.974 193.214L301.933 194.946L302.096 195.166C307.65 194.642 312.817 195.736 316.581 197.754L310.541 193.566Z" fill="white"/>
<path d="M335.015 188.143C336.275 187.763 337.407 187.7 338.341 187.703L338.817 187.721L337.025 185.331C336.036 185.343 334.594 185.465 333.085 185.898C329.235 187.002 327.972 189.181 330.03 191.196C331.542 192.687 334.358 192.954 336.35 193.024C338.393 193.096 339.236 193.272 339.698 193.727C340.402 194.422 339.532 195.083 338.412 195.404C336.852 195.851 335.862 195.933 334.183 195.915L333.51 195.894L335.356 198.364C336.568 198.391 338.507 198.157 340.268 197.669C344.364 196.495 345.592 194.347 343.397 192.193C342.199 191.014 340.232 190.416 337.219 190.327C335.359 190.238 334.195 190.158 333.703 189.672C333.258 189.243 333.49 188.581 335.015 188.143Z" fill="white"/>
<path d="M346.771 182.218L343.76 183.082C342.825 183.35 342.32 183.733 342.607 184.524L346.626 195.652L350.718 194.479C350.718 194.479 350.067 193.014 349.93 192.692C350.378 192.563 354.358 191.428 354.924 191.265C355.414 191.593 357.002 192.677 357.002 192.677L360.617 191.64L346.771 182.218ZM348.861 190.256C348.568 189.57 347.424 186.923 347.424 186.923C347.432 186.957 347.123 186.234 346.921 185.788L348.106 186.603C348.106 186.603 351.407 188.856 352.098 189.327L348.861 190.256Z" fill="white"/>
</g>
<path d="M165.54 44.9555L165.542 44.9559L164.633 44.0779C163.105 42.6027 161.547 41.7374 159.917 41.334L165.54 44.9555ZM165.54 44.9555L168.66 47.9679L168.976 48.2732L168.554 48.3943L163.003 49.9859L162.464 50.1406L162.201 49.7251C162.04 49.4697 161.843 49.2244 161.595 48.985L154.344 41.9826L154.028 41.6774L154.45 41.5563C156.503 40.9677 158.289 40.9304 159.917 41.3339L165.54 44.9555ZM170.271 49.5241L169.955 49.2189L169.533 49.34L162.866 51.2516L162.668 51.3086L162.656 51.4555C162.599 52.1361 162.436 52.6422 162.086 53.0408C161.741 53.4351 161.195 53.7441 160.314 54.0021L153.821 55.8639C152.569 56.2006 150.712 56.2028 148.481 55.5194L148.24 55.4457L148.042 55.5025L141.374 57.4145L140.951 57.5356L141.268 57.8409L149.325 65.6217L149.641 65.927L150.063 65.8058L156.765 63.8843L156.953 63.8303L156.974 63.6929C157.171 62.4037 157.799 61.601 159.307 61.1683L165.806 59.3049L165.806 59.305L165.816 59.3019C166.717 59.0227 167.452 58.9372 168.216 58.9946C168.993 59.0529 169.857 59.2627 171.037 59.6419L171.283 59.7211L171.487 59.6626L178.222 57.7313L178.645 57.6102L178.329 57.305L170.271 49.5241ZM179.94 58.8607L179.624 58.5554L179.201 58.6766L173.617 60.2785L173.072 60.4349L173.604 60.7773C173.955 61.0037 174.263 61.2197 174.511 61.4586L181.737 68.4367L182.053 68.7419L182.475 68.6208C184.527 68.0325 185.555 67.2629 185.794 66.324C186.034 65.3851 185.497 64.227 183.968 62.7512L179.94 58.8607ZM153.021 42.3608L152.705 42.0555L152.283 42.1767L146.867 43.7296L146.445 43.8507L146.761 44.1559L156.429 53.4925L156.745 53.7977L157.168 53.6766L159.334 53.0554C160.199 52.8074 160.782 52.1973 160.96 51.4968L160.96 51.4966C161.138 50.7969 160.917 49.9858 160.273 49.3632L153.021 42.3608ZM180.309 69.2407L180.731 69.1196L180.415 68.8143L173.189 61.8363C172.544 61.2131 171.369 60.6763 170.154 60.3756L170.154 60.3755C168.94 60.0755 167.648 60.002 166.784 60.2497L164.618 60.8709L164.195 60.992L164.511 61.2973L174.154 70.6095L174.471 70.9148L174.893 70.7936L180.309 69.2407ZM145.44 44.5346L145.124 44.2294L144.702 44.3505L139.285 45.9037L138.863 46.0248L139.179 46.33L146.43 53.3324C147.045 53.9256 148.191 54.4929 149.43 54.8022L149.43 54.8022C150.665 55.11 151.985 55.1626 152.836 54.9187L155.002 54.2975L155.425 54.1764L155.109 53.8711L145.44 44.5346ZM163.192 61.6771L162.876 61.3719L162.453 61.493L160.288 62.114C159.437 62.3578 158.805 62.9703 158.628 63.6833L159.15 63.8133L158.628 63.6833C158.45 64.3988 158.735 65.2139 159.349 65.8064L166.575 72.7845L166.891 73.0897L167.313 72.9686L172.729 71.4157L173.151 71.2946L172.835 70.9893L163.192 61.6771ZM157.43 65.4126L157.169 64.9951L156.628 65.1503L151.042 66.7511L150.62 66.8722L150.936 67.1775L154.965 71.068C156.486 72.5373 158.009 73.4165 159.646 73.8217C161.278 74.2255 163.097 74.1774 165.148 73.5896L165.57 73.4684L165.254 73.1632L158.028 66.1851C157.784 65.9499 157.605 65.6926 157.43 65.4126ZM145.946 54.8777L146.128 54.8255L146.154 54.6943L146.154 54.6934L146.188 54.5214L145.953 54.3735C145.66 54.1896 145.374 53.9665 145.112 53.7122L145.111 53.7115L137.86 46.7091L137.544 46.4039L137.121 46.525C135.072 47.1126 134.008 47.8914 133.769 48.8317C133.527 49.7747 134.106 50.9248 135.628 52.3947L139.657 56.2852L139.973 56.5904L140.395 56.4693L145.946 54.8777ZM137.754 47.1355L144.689 53.8326L137.021 46.9569L137.015 46.9513L137.437 46.8302L137.754 47.1355Z" fill="#E6E6E6" stroke="#E6E6E6" stroke-width="0.87884"/>
<g opacity="0.3">
<g clip-path="url(#clip1_485_10926)">
<path fill-rule="evenodd" clip-rule="evenodd" d="M188.893 51.6398C188.66 51.4139 188.609 51.2321 188.54 50.7642C188.373 49.9334 188.09 49.5269 187.231 48.698C186.374 47.8703 185.879 47.5247 184.643 47.0004C184.381 46.8807 183.67 46.5953 183.436 46.3695C182.968 45.9178 183.033 45.3133 183.674 45.1296C184.208 44.9763 184.792 45.0053 185.843 45.4844C187.447 46.098 188.888 46.9547 189.979 48.0084C191.07 49.062 191.735 50.239 191.846 51.281C191.885 51.8554 191.692 52.2036 191.158 52.3569C190.362 52.3904 189.361 52.0915 188.893 51.6398ZM195.093 52.0093C194.859 51.7834 194.809 51.6028 194.69 50.9531C194.375 49.5787 193.526 48.3576 192.28 47.1538C191.11 46.0245 189.621 44.9871 187.596 44.1029C186.624 43.6979 186.284 43.5025 186.05 43.2767C185.816 43.0508 185.698 42.4022 186.444 42.188C187.193 41.9734 187.747 42.1074 189.323 42.8271C191.609 43.831 193.284 44.9136 194.843 46.4189C196.48 47.9999 197.329 49.221 197.792 51.1385C198.017 51.7566 198.056 52.3311 197.31 52.5452C196.483 52.6842 195.56 52.461 195.093 52.0093ZM201.691 52.3626C201.301 51.9865 201.309 51.5931 201.162 51.0496C200.592 49.1626 199.412 47.3538 197.697 45.6972C195.904 43.966 193.654 42.4626 190.766 41.1436C189.715 40.6645 189.296 40.3935 189.062 40.1676C188.751 39.8672 188.818 39.2623 189.565 39.0481C190.42 38.803 191.1 39.1938 192.258 39.6424C194.884 40.8417 197.951 42.5983 200.368 44.9325C202.161 46.6637 203.498 48.6238 204.32 51.0227C204.721 52.0794 204.654 52.6844 204.014 52.8681C203.16 53.1127 202.158 52.8143 201.691 52.3626ZM208.183 52.7475C207.871 52.4459 207.773 52.083 207.704 51.6151C207.122 49.0475 205.687 46.7261 202.959 44.0915C200.386 41.6071 197.719 39.8338 193.7 37.9589C193.097 37.6443 192.387 37.3601 192.075 37.0586C191.607 36.6069 191.752 36.0776 192.393 35.8939C193.14 35.6797 193.771 35.8882 195.164 36.5638C199.552 38.5275 202.794 40.7221 205.522 43.3567C208.328 46.0669 209.94 48.8269 210.726 51.7253C210.951 52.3434 211.255 53.0383 210.294 53.3139C209.76 53.4672 208.728 53.2737 208.183 52.7475Z" fill="#F0F1F5"/>
</g>
</g>
<defs>
<filter id="filter0_f_485_10926" x="-56.6024" y="59.1233" width="308.657" height="261.68" filterUnits="userSpaceOnUse" color-interpolation-filters="sRGB">
<feFlood flood-opacity="0" result="BackgroundImageFix"/>
<feBlend mode="normal" in="SourceGraphic" in2="BackgroundImageFix" result="shape"/>
<feGaussianBlur stdDeviation="25" result="effect1_foregroundBlur_485_10926"/>
</filter>
<filter id="filter1_d_485_10926" x="77.682" y="108.878" width="54.3782" height="54.4991" filterUnits="userSpaceOnUse" color-interpolation-filters="sRGB">
<feFlood flood-opacity="0" result="BackgroundImageFix"/>
<feColorMatrix in="SourceAlpha" type="matrix" values="0 0 0 0 0 0 0 0 0 0 0 0 0 0 0 0 0 0 127 0" result="hardAlpha"/>
<feOffset dy="3.33294"/>
<feGaussianBlur stdDeviation="1.66647"/>
<feComposite in2="hardAlpha" operator="out"/>
<feColorMatrix type="matrix" values="0 0 0 0 0 0 0 0 0 0 0 0 0 0 0 0 0 0 0.25 0"/>
<feBlend mode="normal" in2="BackgroundImageFix" result="effect1_dropShadow_485_10926"/>
<feBlend mode="normal" in="SourceGraphic" in2="effect1_dropShadow_485_10926" result="shape"/>
</filter>
<filter id="filter2_f_485_10926" x="9.00781" y="27.1233" width="333.5" height="266.311" filterUnits="userSpaceOnUse" color-interpolation-filters="sRGB">
<feFlood flood-opacity="0" result="BackgroundImageFix"/>
<feBlend mode="normal" in="SourceGraphic" in2="BackgroundImageFix" result="shape"/>
<feGaussianBlur stdDeviation="19.5" result="effect1_foregroundBlur_485_10926"/>
</filter>
<linearGradient id="paint0_linear_485_10926" x1="9.58219" y1="35.8291" x2="169.563" y2="134.567" gradientUnits="userSpaceOnUse">
<stop offset="0.215201" stop-color="#3C415E"/>
<stop offset="0.438458" stop-color="#394263"/>
<stop offset="1" stop-color="#4A5A7E"/>
</linearGradient>
<linearGradient id="paint1_linear_485_10926" x1="135.401" y1="290.799" x2="52.5971" y2="-141.855" gradientUnits="userSpaceOnUse">
<stop/>
<stop offset="1" stop-color="#666666"/>
</linearGradient>
<linearGradient id="paint2_linear_485_10926" x1="127.485" y1="-3.74955" x2="74.1578" y2="295.381" gradientUnits="userSpaceOnUse">
<stop stop-color="white" stop-opacity="0.12"/>
<stop offset="0.401042" stop-color="white" stop-opacity="0.08"/>
<stop offset="1" stop-color="white" stop-opacity="0.07"/>
</linearGradient>
<radialGradient id="paint3_radial_485_10926" cx="0" cy="0" r="1" gradientUnits="userSpaceOnUse" gradientTransform="translate(63.6016 122.361) rotate(163.116) scale(34.0457 24.0225)">
<stop stop-color="#2AD0CA"/>
<stop offset="0.229167" stop-color="#E1F664"/>
<stop offset="0.46875" stop-color="#FEB0FE"/>
<stop offset="0.682292" stop-color="#ABB3FC"/>
<stop offset="0.875" stop-color="#5DF7A4"/>
<stop offset="1" stop-color="#58C4F6"/>
</radialGradient>
<radialGradient id="paint4_angular_485_10926" cx="0" cy="0" r="1" gradientUnits="userSpaceOnUse" gradientTransform="translate(49.4192 128.483) rotate(165.984) scale(18.3421 12.1369)">
<stop offset="0.000690214" stop-color="white"/>
<stop offset="0.140625"/>
<stop offset="0.144348"/>
<stop offset="0.244792" stop-color="white"/>
<stop offset="0.395833"/>
<stop offset="0.546875" stop-color="white"/>
<stop offset="0.713542"/>
<stop offset="0.833333" stop-color="white"/>
<stop offset="0.931117"/>
<stop offset="0.931504"/>
</radialGradient>
<linearGradient id="paint5_linear_485_10926" x1="302.751" y1="129.604" x2="114.339" y2="296.708" gradientUnits="userSpaceOnUse">
<stop stop-color="#DDDDDD"/>
<stop offset="1" stop-color="#979DBA"/>
</linearGradient>
<linearGradient id="paint6_linear_485_10926" x1="9.80815" y1="36.674" x2="173.562" y2="137.741" gradientUnits="userSpaceOnUse">
<stop offset="0.215201" stop-color="#3C415E"/>
<stop offset="0.438458" stop-color="#394263"/>
<stop offset="1" stop-color="#4A5A7E"/>
</linearGradient>
<linearGradient id="paint7_linear_485_10926" x1="138.593" y1="297.656" x2="53.8375" y2="-145.2" gradientUnits="userSpaceOnUse">
<stop/>
<stop offset="1" stop-color="#666666"/>
</linearGradient>
<linearGradient id="paint8_linear_485_10926" x1="130.491" y1="-3.83797" x2="75.9066" y2="302.347" gradientUnits="userSpaceOnUse">
<stop stop-color="white" stop-opacity="0.12"/>
<stop offset="0.401042" stop-color="white" stop-opacity="0.08"/>
<stop offset="1" stop-color="white" stop-opacity="0.07"/>
</linearGradient>
<linearGradient id="paint9_linear_485_10926" x1="297.706" y1="286.236" x2="314.661" y2="132.96" gradientUnits="userSpaceOnUse">
<stop stop-opacity="0"/>
<stop offset="1" stop-color="#859BE0" stop-opacity="0.5"/>
</linearGradient>
<linearGradient id="paint10_linear_485_10926" x1="267.268" y1="180.859" x2="131.442" y2="-17.3611" gradientUnits="userSpaceOnUse">
<stop stop-color="#7A92DB"/>
<stop offset="1" stop-color="#6BC9E0"/>
</linearGradient>
<linearGradient id="paint11_linear_485_10926" x1="233.32" y1="208.166" x2="242.803" y2="227.712" gradientUnits="userSpaceOnUse">
<stop stop-color="white"/>
<stop offset="0.0001" stop-color="white"/>
<stop offset="1" stop-color="#78CFDE"/>
</linearGradient>
<linearGradient id="paint12_linear_485_10926" x1="228.489" y1="211.736" x2="235.966" y2="207.476" gradientUnits="userSpaceOnUse">
<stop stop-color="#879EF7"/>
<stop offset="1" stop-color="#78BDCE" stop-opacity="0"/>
</linearGradient>
<clipPath id="clip0_485_10926">
<rect width="8.41785" height="35.4497" fill="white" transform="matrix(0.97968 -0.200567 0.663536 0.748145 68.3514 112.558)"/>
</clipPath>
<clipPath id="clip1_485_10926">
<rect width="28.7088" height="28.7088" fill="white" transform="matrix(0.961262 -0.275637 0.71934 0.694658 171.72 40.166)"/>
</clipPath>
</defs>
</svg>
