<svg width="59" height="59" viewBox="0 0 59 59" fill="none" xmlns="http://www.w3.org/2000/svg">
<path d="M56.5916 29.2958C56.5916 44.3708 44.3708 56.5916 29.2958 56.5916C14.2207 56.5916 2 44.3708 2 29.2958C2 14.2207 14.2207 2 29.2958 2C44.3708 2 56.5916 14.2207 56.5916 29.2958Z" stroke="url(#paint0_linear_1061_13548)" stroke-width="4"/>
<path d="M22.75 21.3333C22.75 20.4589 23.4589 19.75 24.3333 19.75H32.6667C33.5411 19.75 34.25 20.4589 34.25 21.3333V36.6667C34.25 37.5411 33.5411 38.25 32.6667 38.25H24.3333C23.4589 38.25 22.75 37.5411 22.75 36.6667V21.3333Z" stroke="black" stroke-width="1.5"/>
<path d="M26.0834 22.5H30.3334" stroke="black" stroke-width="1.5" stroke-linecap="round"/>
<path d="M23.1667 34.3335H33.4167" stroke="black" stroke-width="1.5" stroke-linecap="round"/>
<path d="M54.4115 39.7978C50.2287 49.5059 40.574 56.3023 29.3319 56.3023C14.2569 56.3023 2.03613 44.0815 2.03613 29.0065C2.03613 19.0347 7.38327 10.3119 15.3667 5.54883" stroke="url(#paint1_linear_1061_13548)" stroke-width="4" stroke-linecap="round"/>
<defs>
<linearGradient id="paint0_linear_1061_13548" x1="-7" y1="-0.710937" x2="52.1481" y2="39.4524" gradientUnits="userSpaceOnUse">
<stop stop-color="white" stop-opacity="0.75"/>
<stop offset="1" stop-color="#78BECE"/>
</linearGradient>
<linearGradient id="paint1_linear_1061_13548" x1="28.2238" y1="1.71066" x2="53.1364" y2="40.75" gradientUnits="userSpaceOnUse">
<stop stop-color="#758CD2"/>
<stop offset="1" stop-color="#78BECE"/>
</linearGradient>
</defs>
</svg>
