
<svg width="60" height="60" viewBox="0 0 60 60" fill="none" xmlns="http://www.w3.org/2000/svg">
<mask id="mask0_957_17340" style="mask-type:alpha" maskUnits="userSpaceOnUse" x="0" y="0" width="60" height="60">
<rect width="60" height="60" fill="#D9D9D9"/>
</mask>
<g mask="url(#mask0_957_17340)">
<circle cx="30.2958" cy="30.2958" r="27.2958" stroke="url(#paint0_linear_957_17340)" stroke-width="4"/>
<path d="M40 26V31C40 35 38 37 34 37H33.5C33.19 37 32.89 37.15 32.7 37.4L31.2 39.4C30.54 40.28 29.46 40.28 28.8 39.4L27.3 37.4C27.14 37.18 26.77 37 26.5 37H26C22 37 20 36 20 31V26C20 22 22 20 26 20H30" stroke="black" stroke-width="1.5" stroke-miterlimit="10" stroke-linecap="round" stroke-linejoin="round"/>
<path d="M33.2 22.6201C32.87 21.6301 33.26 20.4101 34.34 20.0701C34.9 19.9001 35.6 20.0401 36 20.5701C36.38 20.0201 37.1 19.9001 37.66 20.0701C38.74 20.4001 39.13 21.6301 38.8 22.6201C38.29 24.1901 36.5 25.0001 36 25.0001C35.5 25.0001 33.73 24.2001 33.2 22.6201Z" stroke="black" stroke-width="1.5" stroke-linecap="round" stroke-linejoin="round"/>
<path d="M33.9965 29H34.0054" stroke="black" stroke-width="2" stroke-linecap="round" stroke-linejoin="round"/>
<path d="M29.9955 29H30.0045" stroke="black" stroke-width="2" stroke-linecap="round" stroke-linejoin="round"/>
<path d="M25.9945 29H26.0035" stroke="black" stroke-width="2" stroke-linecap="round" stroke-linejoin="round"/>
<path d="M55.4115 40.7978C51.2287 50.5059 41.574 57.3023 30.3319 57.3023C15.2569 57.3023 3.03613 45.0815 3.03613 30.0065C3.03613 20.0347 8.38327 11.3119 16.3667 6.54883" stroke="url(#paint1_linear_957_17340)" stroke-width="4" stroke-linecap="round"/>
</g>
<defs>
<linearGradient id="paint0_linear_957_17340" x1="-6" y1="0.289063" x2="53.1481" y2="40.4524" gradientUnits="userSpaceOnUse">
<stop stop-color="white" stop-opacity="0.75"/>
<stop offset="1" stop-color="#78BECE"/>
</linearGradient>
<linearGradient id="paint1_linear_957_17340" x1="29.2238" y1="2.71066" x2="54.1364" y2="41.75" gradientUnits="userSpaceOnUse">
<stop stop-color="#758CD2"/>
<stop offset="1" stop-color="#78BECE"/>
</linearGradient>
</defs>
</svg>
