<svg fill="none" xmlns="http://www.w3.org/2000/svg" width="167" height="349" viewBox="0 0 167 349"> <mask id="mask0_42_4075" style="mask-type:alpha" maskUnits="userSpaceOnUse" x="0" y="0" width="167" height="349"> <path d="M0 24C0 10.7452 10.7452 0 24 0L167 0L167 349H24C10.7452 349 0 338.255 0 325L0 24Z" fill="white"/> <path d="M0 24C0 10.7452 10.7452 0 24 0L167 0L167 349H24C10.7452 349 0 338.255 0 325L0 24Z"/> </mask> <g width="167" height="349" mask="url(#mask0_42_4075)"> <path d="M0 24C0 10.7452 10.7452 0 24 0L167 0L167 349H24C10.7452 349 0 338.255 0 325L0 24Z" fill="url(#paint1_linear_42_4075)"/> <path fill-rule="evenodd" clip-rule="evenodd" d="M22.6648 174.747C22.665 174.737 22.6653 174.727 22.6655 174.717L22.8115 168.72C22.8115 168.72 22.8115 168.72 22.8115 168.719C25.6372 52.5898 -71.4521 -49.2361 -193.094 -52.3021C-193.099 -52.3022 -193.104 -52.3024 -193.109 -52.3025C-316.526 -55.3711 -418.916 42.9819 -420.354 166.749L-490.087 165.982L-420.354 166.759C-421.754 285.865 -326.714 385.853 -207.687 390.474L-210.431 460.058L-207.678 390.475C-83.9213 395.296 19.5069 298.071 22.6648 174.747ZM161.848 181.161C155.148 380.715 -12.7238 537.472 -213.176 529.668C-213.18 529.667 -213.183 529.667 -213.186 529.667C-407.617 522.114 -561.941 359.713 -559.661 165.216C-559.661 165.213 -559.661 165.209 -559.661 165.206C-557.314 -36.426 -390.455 -196.566 -189.538 -191.557L-189.523 -191.557C6.13085 -186.638 166.604 -23.8501 162.097 171.58C162.08 172.883 162.057 174.187 162.026 175.492L161.998 177.462C161.98 178.703 161.93 179.937 161.848 181.161Z" fill="url(#paint2_linear_42_4075)"/> <path fill-rule="evenodd" clip-rule="evenodd" d="M-140.76 462.916C-142.276 501.353 -174.668 531.303 -213.109 529.811C-407.544 522.262 -561.874 359.86 -559.593 165.359C-559.593 165.356 -559.593 165.352 -559.593 165.349C-557.246 -36.283 -390.387 -196.423 -189.47 -191.414L-189.455 -191.414C6.19855 -186.495 166.671 -23.7072 162.165 171.723C162.146 173.146 162.12 174.57 162.086 175.995C161.156 214.45 129.224 244.89 90.764 243.983C52.3042 243.077 21.8802 211.167 22.8101 172.712C22.8341 171.721 22.8518 170.733 22.8632 169.748C22.8667 169.453 22.872 169.158 22.8792 168.863C25.705 52.7329 -71.3843 -49.093 -193.026 -52.1591C-193.031 -52.1592 -193.036 -52.1594 -193.041 -52.1595C-316.458 -55.2281 -418.849 43.1248 -420.286 166.892L-489.94 166.126L-420.286 166.902C-421.686 286.008 -326.646 385.996 -207.62 390.617C-169.178 392.11 -139.245 424.479 -140.76 462.916Z" fill="url(#paint3_linear_42_4075)"/> </g> <defs> <linearGradient id="paint0_linear_42_4075" x1="8.35" y1="43" x2="168.667" y2="114.843" gradientUnits="userSpaceOnUse"> <stop offset="0.215201" stop-color="#3C415E"/> <stop offset="0.438458" stop-color="#394263"/> <stop offset="1" stop-color="#4A5A7E"/> </linearGradient> <linearGradient id="paint1_linear_42_4075" x1="162.5" y1="349" x2="63.1241" y2="-170.246" gradientUnits="userSpaceOnUse"> <stop/> <stop offset="1" stop-color="#666666"/> </linearGradient> <linearGradient id="paint2_linear_42_4075" x1="-5" y1="528.5" x2="233.52" y2="218.278" gradientUnits="userSpaceOnUse"> <stop stop-opacity="0"/> <stop offset="1" stop-color="#859BE0" stop-opacity="0.5"/> </linearGradient> <linearGradient id="paint3_linear_42_4075" x1="121" y1="264" x2="36.9791" y2="3.50672" gradientUnits="userSpaceOnUse"> <stop stop-color="#7A92DB"/> <stop offset="1" stop-color="#6BC9E0"/> </linearGradient> </defs> </svg>