<svg width="104" height="104" viewBox="0 0 104 104" fill="none" xmlns="http://www.w3.org/2000/svg">
<circle cx="52" cy="52" r="52" fill="#E0E5F5"/>
<circle cx="52" cy="52" r="46" fill="white"/>
<mask id="mask0_444_6565" style="mask-type:alpha" maskUnits="userSpaceOnUse" x="6" y="6" width="92" height="92">
<circle cx="52" cy="52" r="46" fill="white"/>
</mask>
<g mask="url(#mask0_444_6565)">
<path d="M93.6856 21H10.3144C7.93164 21 6 22.8998 6 25.2434V77.7566C6 80.1002 7.93164 82 10.3144 82H93.6856C96.0684 82 98 80.1002 98 77.7566V25.2434C98 22.8998 96.0684 21 93.6856 21Z" fill="#92D0EA"/>
<path d="M93.2556 25.7136H76.7438V48.7024H93.2556V25.7136Z" fill="white"/>
<path d="M92.7012 51.5H85.7467V79.3424H92.7012V51.5Z" fill="white"/>
<path d="M91.6724 52.5808H86.6394V54.5253H91.6724V52.5808Z" fill="#609FB9"/>
<path d="M91.6724 54.8596H86.6394V55.4152H91.6724V54.8596Z" fill="#609FB9"/>
<path d="M91.6724 55.75H86.6394V56.8502H91.6724V55.75Z" fill="#609FB9"/>
<path d="M91.6724 57.1848H86.6394V57.7338H91.6724V57.1848Z" fill="#609FB9"/>
<path d="M91.6724 58.0706H86.6394V60.0151H91.6724V58.0706Z" fill="#609FB9"/>
<path d="M91.6724 60.3501H86.6394V60.9057H91.6724V60.3501Z" fill="#609FB9"/>
<path d="M91.6724 61.2405H86.6394V62.3407H91.6724V61.2405Z" fill="#609FB9"/>
<path d="M91.6724 62.677H86.6394V63.226H91.6724V62.677Z" fill="#609FB9"/>
<path d="M91.6724 63.5608H86.6394V65.5053H91.6724V63.5608Z" fill="#609FB9"/>
<path d="M91.6724 65.8423H86.6394V66.3979H91.6724V65.8423Z" fill="#609FB9"/>
<path d="M91.6724 66.7327H86.6394V67.8329H91.6724V66.7327Z" fill="#609FB9"/>
<path d="M91.6724 68.1672H86.6394V68.7163H91.6724V68.1672Z" fill="#609FB9"/>
<path d="M91.6724 69.0535H86.6394V70.998H91.6724V69.0535Z" fill="#609FB9"/>
<path d="M91.6724 71.3325H86.6394V71.8881H91.6724V71.3325Z" fill="#609FB9"/>
<path d="M91.6724 72.2229H86.6394V73.3231H91.6724V72.2229Z" fill="#609FB9"/>
<path d="M91.6724 73.6577H86.6394V74.2067H91.6724V73.6577Z" fill="#609FB9"/>
<path d="M91.6724 74.5435H86.6394V76.488H91.6724V74.5435Z" fill="#609FB9"/>
<path d="M91.6724 76.8225H86.6394V77.3781H91.6724V76.8225Z" fill="#609FB9"/>
<path d="M91.6724 77.7129H86.6394V78.8131H91.6724V77.7129Z" fill="#609FB9"/>
<path d="M27.4354 46.2068H12.0656V48.7638H27.4354V46.2068Z" fill="#609FB9"/>
<path d="M50.3057 46.2068H34.9359V48.7638H50.3057V46.2068Z" fill="#609FB9"/>
<path d="M72.8703 46.2068H57.5005V48.7638H72.8703V46.2068Z" fill="#609FB9"/>
<path d="M27.4354 53.3286H12.0656V55.8856H27.4354V53.3286Z" fill="#609FB9"/>
<path d="M27.4354 59.0728H12.0656V61.6297H27.4354V59.0728Z" fill="#609FB9"/>
<path d="M81.0827 59.0728H65.7129V61.6297H81.0827V59.0728Z" fill="#609FB9"/>
<path d="M85.0022 34.6006C84.8952 34.6006 84.7729 34.6006 84.6528 34.6203C83.9516 34.7162 83.3078 35.0602 82.8377 35.5901C82.3676 36.12 82.1021 36.8009 82.0894 37.5097C82.0847 37.9208 82.0394 38.3304 81.954 38.7324C81.7301 39.7738 81.3067 40.7618 80.7072 41.6416C80.6543 41.7047 80.6175 41.7798 80.6002 41.8603C80.5907 41.931 80.6043 42.0028 80.6389 42.0651C80.6736 42.1274 80.7274 42.1768 80.7924 42.2059C80.8618 42.2398 80.9413 42.2467 81.0155 42.2253C81.0897 42.2038 81.1533 42.1556 81.1941 42.09C81.3962 41.8044 81.5799 41.5064 81.7444 41.1976C82.2535 40.2673 82.5761 39.2464 82.6942 38.1922C82.727 37.8794 82.7139 37.56 82.7597 37.2516C82.8266 36.6926 83.099 36.1785 83.5238 35.8098C83.9487 35.4411 84.4954 35.2442 85.0574 35.2576C85.6193 35.271 86.1561 35.4937 86.5629 35.8822C86.9698 36.2707 87.2175 36.7972 87.2578 37.3588C87.2894 38.3229 87.3791 39.2841 87.5263 40.2373C87.7027 41.1714 87.9479 42.0912 88.26 42.989C88.2721 43.0294 88.2922 43.067 88.3193 43.0993C88.3463 43.1317 88.3796 43.1582 88.4172 43.1772C88.4548 43.1963 88.4959 43.2074 88.5379 43.21C88.58 43.2127 88.6221 43.2066 88.6618 43.1924C88.7034 43.1807 88.7422 43.1606 88.776 43.1335C88.8097 43.1064 88.8376 43.0727 88.8579 43.0345C88.8783 42.9963 88.8908 42.9544 88.8946 42.9112C88.8984 42.868 88.8935 42.8246 88.8801 42.7834C88.843 42.6521 88.8037 42.5209 88.76 42.3918C88.2812 40.9635 88.007 39.4745 87.9456 37.9691C87.9325 37.6957 87.9456 37.4201 87.8997 37.1466C87.8071 36.4425 87.4621 35.796 86.9291 35.3276C86.396 34.8592 85.7112 34.6009 85.0022 34.6006ZM86.6355 37.77C86.6458 37.602 86.6385 37.4334 86.6136 37.2669C86.5475 36.8731 86.3403 36.517 86.0307 36.2653C85.7212 36.0136 85.3306 35.8837 84.9323 35.8999C84.5324 35.917 84.1535 36.0838 83.8705 36.3674C83.5875 36.6509 83.421 37.0304 83.4038 37.431C83.3733 38.5219 83.1447 39.5981 82.7291 40.607C82.3981 41.4083 81.9651 42.1633 81.4409 42.8534C81.3978 42.8968 81.3668 42.9507 81.3507 43.0097C81.3346 43.0687 81.3341 43.1309 81.3492 43.1902C81.365 43.2521 81.3991 43.3078 81.447 43.3499C81.4949 43.3921 81.5544 43.4187 81.6177 43.4264C81.6861 43.4351 81.7555 43.4231 81.817 43.3919C81.8785 43.3607 81.9292 43.3118 81.9627 43.2514C83.2226 41.5431 83.9978 39.6599 84.0436 37.5075C84.0465 37.3781 84.0751 37.2505 84.1278 37.1322C84.1805 37.014 84.2563 36.9074 84.3506 36.8189C84.445 36.7303 84.556 36.6615 84.6772 36.6165C84.7984 36.5715 84.9274 36.5511 85.0565 36.5566C85.1857 36.5622 85.3125 36.5935 85.4294 36.6487C85.5463 36.7039 85.6511 36.782 85.7376 36.8783C85.824 36.9746 85.8904 37.0872 85.9328 37.2095C85.9753 37.3318 85.993 37.4614 85.9848 37.5907C85.9699 38.4689 85.8422 39.3415 85.6048 40.187C85.1818 41.7337 84.4649 43.1842 83.4934 44.4589C83.4594 44.4919 83.433 44.5319 83.4158 44.576C83.3986 44.6202 83.3912 44.6676 83.3939 44.7149C83.3966 44.7623 83.4095 44.8084 83.4317 44.8504C83.4538 44.8923 83.4847 44.9289 83.5222 44.9578C83.5598 44.9867 83.6031 45.0071 83.6492 45.0177C83.6953 45.0283 83.7432 45.0289 83.7896 45.0193C83.8359 45.0097 83.8797 44.9903 83.9179 44.9623C83.9561 44.9343 83.9878 44.8983 84.0109 44.8569C84.2292 44.5792 84.4257 44.2948 84.6135 43.9995C85.8273 42.1395 86.5252 39.9895 86.6355 37.77ZM88.2666 34.9484C88.2643 34.898 88.2512 34.8486 88.2282 34.8037C88.2052 34.7588 88.1729 34.7194 88.1334 34.6881C86.9433 33.4566 85.5131 33.0235 83.858 33.4654C83.0251 33.6988 82.2844 34.1842 81.7372 34.8552C81.1901 35.5263 80.8631 36.3502 80.8011 37.2144C80.7959 37.5595 80.7733 37.9041 80.7334 38.2469C80.6103 38.961 80.3651 39.6484 80.0085 40.2789C79.9819 40.3163 79.9638 40.359 79.9554 40.4042C79.9469 40.4493 79.9484 40.4957 79.9596 40.5402C79.9708 40.5847 79.9915 40.6262 80.0203 40.6619C80.0491 40.6976 80.0853 40.7266 80.1264 40.747C80.1656 40.7679 80.2087 40.7806 80.2529 40.7844C80.2972 40.7882 80.3418 40.783 80.384 40.7691C80.4262 40.7552 80.4652 40.7329 80.4986 40.7036C80.532 40.6742 80.5591 40.6384 80.5784 40.5982C80.6925 40.4068 80.7939 40.2081 80.8819 40.0033C81.1658 39.3758 81.3472 38.7067 81.419 38.0216C81.4272 37.6054 81.4637 37.1903 81.5282 36.7792C81.6544 36.1857 81.9299 35.6343 82.3285 35.1774C82.7272 34.7205 83.2358 34.3732 83.8061 34.1686C84.3764 33.9639 84.9894 33.9086 85.587 34.008C86.1846 34.1073 86.7469 34.358 87.2206 34.7362C87.392 34.8787 87.5532 35.0329 87.7032 35.1977C87.7489 35.2464 87.8087 35.2793 87.8742 35.2919C87.9397 35.3045 88.0075 35.296 88.0679 35.2677C88.1317 35.2442 88.186 35.2001 88.2219 35.1422C88.2579 35.0844 88.2736 35.0162 88.2666 34.9484ZM89.878 32.9448C89.8745 32.9024 89.8624 32.8612 89.8425 32.8236C89.8226 32.786 89.7953 32.7528 89.7623 32.7261C88.7666 31.688 87.459 31.005 86.0394 30.7815C84.7416 30.5712 83.4107 30.7603 82.2226 31.324C81.4915 31.6759 80.8267 32.1517 80.2574 32.7304C80.223 32.76 80.1951 32.7963 80.1754 32.8371C80.1556 32.8779 80.1445 32.9224 80.1427 32.9677C80.1409 33.013 80.1484 33.0583 80.1648 33.1006C80.1811 33.1428 80.206 33.1813 80.2379 33.2135C80.2698 33.2457 80.3079 33.271 80.35 33.2878C80.392 33.3046 80.4371 33.3126 80.4824 33.3112C80.5276 33.3098 80.5721 33.2991 80.613 33.2797C80.654 33.2603 80.6905 33.2327 80.7203 33.1985C80.7793 33.1438 80.836 33.0826 80.895 33.0279C81.517 32.421 82.2654 31.9595 83.0865 31.6766C83.9076 31.3938 84.7811 31.2965 85.6441 31.3918C86.7644 31.5024 87.8275 31.9406 88.7011 32.6517C88.9184 32.8271 89.1268 33.0132 89.3256 33.2095C89.3701 33.2591 89.4296 33.2928 89.4951 33.3055C89.5605 33.3181 89.6283 33.309 89.688 33.2795C89.7513 33.2514 89.8039 33.2037 89.8381 33.1435C89.8723 33.0832 89.8863 33.0136 89.878 32.9448ZM84.9476 32.0064C84.5235 32.0118 84.1015 32.0661 83.6899 32.1683C83.6436 32.1739 83.599 32.1894 83.559 32.2136C83.5191 32.2378 83.4848 32.2702 83.4583 32.3087C83.4318 32.3472 83.4137 32.3909 83.4054 32.4369C83.397 32.4829 83.3984 32.5301 83.4097 32.5755C83.4209 32.6209 83.4416 32.6634 83.4704 32.7001C83.4992 32.7369 83.5355 32.7671 83.5768 32.7888C83.6182 32.8105 83.6637 32.8231 83.7103 32.8259C83.7568 32.8286 83.8035 32.8215 83.8471 32.8048C84.5614 32.6302 85.3059 32.6198 86.0248 32.7743C86.7438 32.9289 87.4185 33.2444 87.9984 33.6972C88.5783 34.15 89.0485 34.7283 89.3736 35.389C89.6987 36.0496 89.8704 36.7754 89.8758 37.5119C89.8758 37.5989 89.9103 37.6824 89.9717 37.7439C90.0332 37.8055 90.1165 37.84 90.2033 37.84C90.2902 37.84 90.3735 37.8055 90.4349 37.7439C90.4964 37.6824 90.5309 37.5989 90.5309 37.5119C90.5332 37.1445 90.4966 36.7779 90.4217 36.4183C90.1561 35.1638 89.4664 34.0396 88.469 33.2358C87.4716 32.4319 86.2277 31.9977 84.9476 32.0064ZM86.7839 42.5603C86.9281 43.0196 87.0656 43.4505 87.1988 43.8727C87.2203 43.967 87.2764 44.0498 87.356 44.1045C87.4109 44.1423 87.4765 44.1612 87.5431 44.1584C87.6096 44.1557 87.6735 44.1314 87.725 44.0892C87.7861 44.0429 87.8295 43.9771 87.8482 43.9028C87.8668 43.8284 87.8596 43.7499 87.8277 43.6802C87.6079 42.9715 87.3895 42.2635 87.1726 41.5563C87.1581 41.4835 87.1196 41.4177 87.0635 41.3694C87.0073 41.321 86.9365 41.2929 86.8625 41.2894C86.7889 41.283 86.7153 41.3024 86.6544 41.3443C86.5935 41.3862 86.5489 41.448 86.5285 41.5191C86.0894 42.5454 85.5787 43.5395 85 44.4939C84.9673 44.5379 84.9462 44.5895 84.9387 44.6439C84.9312 44.6983 84.9376 44.7537 84.9572 44.805C84.9768 44.8563 85.009 44.9018 85.0508 44.9372C85.0927 44.9727 85.1428 44.997 85.1965 45.0079C85.2638 45.024 85.3344 45.0178 85.3978 44.9902C85.4612 44.9625 85.514 44.915 85.5481 44.8548C85.7664 44.5157 85.9629 44.1723 86.1485 43.818C86.3494 43.4068 86.559 42.9912 86.7839 42.5493V42.5603ZM89.8409 41.3638C89.8193 41.2334 89.7834 41.1058 89.7339 40.9832C89.4461 40.1486 89.2835 39.2758 89.2513 38.3934C89.2317 37.9669 89.2513 37.5404 89.2033 37.116C89.1682 36.7835 89.0949 36.4562 88.9849 36.1405C88.9631 36.0757 88.9213 36.0197 88.8656 35.9803C88.8098 35.941 88.7431 35.9205 88.6749 35.9217C88.607 35.9218 88.5408 35.9428 88.4853 35.982C88.4298 36.0211 88.3877 36.0765 88.3648 36.1405C88.3398 36.2345 88.3483 36.3343 88.3888 36.4226C88.505 36.7801 88.5654 37.1535 88.5679 37.5294C88.5723 38.2302 88.6205 38.9301 88.712 39.6249C88.8309 40.2604 88.9966 40.8862 89.2077 41.4972C89.2296 41.5722 89.2788 41.6362 89.3454 41.6766C89.4121 41.7171 89.4915 41.7311 89.5679 41.716C89.652 41.7029 89.7278 41.6579 89.7794 41.5902C89.8311 41.5226 89.8547 41.4375 89.8452 41.3529L89.8409 41.3638ZM84.9236 40.1826C84.9355 40.0956 84.9123 40.0075 84.8593 39.9375C84.8063 39.8676 84.7277 39.8216 84.6408 39.8097C84.554 39.7978 84.4659 39.821 84.3961 39.8741C84.3263 39.9272 84.2804 40.0059 84.2685 40.093C83.8558 41.4565 83.189 42.7293 82.3034 43.8442C82.2697 43.8771 82.2435 43.9169 82.2264 43.9608C82.2094 44.0048 82.2019 44.0518 82.2045 44.0989C82.2071 44.1459 82.2198 44.1919 82.2416 44.2336C82.2634 44.2754 82.2939 44.312 82.331 44.341C82.3681 44.37 82.411 44.3907 82.4567 44.4017C82.5025 44.4127 82.55 44.4137 82.5962 44.4048C82.6424 44.3959 82.6862 44.3771 82.7245 44.3499C82.7629 44.3226 82.795 44.2874 82.8187 44.2467C83.6544 43.1982 84.3057 42.0146 84.7445 40.747C84.8222 40.5609 84.8836 40.3684 84.928 40.1717L84.9236 40.1826ZM85.3319 37.7394C85.3363 37.6629 85.3363 37.5862 85.3319 37.5097C85.3215 37.4257 85.2797 37.3487 85.2149 37.2943C85.15 37.2399 85.067 37.2121 84.9825 37.2166C84.9029 37.2194 84.8273 37.2523 84.7709 37.3087C84.7146 37.3651 84.6817 37.4409 84.679 37.5207C84.6696 37.9517 84.6361 38.3818 84.5786 38.809C84.5724 38.8506 84.5747 38.893 84.5852 38.9337C84.5956 38.9744 84.6141 39.0126 84.6396 39.046C84.665 39.0794 84.6969 39.1074 84.7333 39.1283C84.7697 39.1492 84.8099 39.1626 84.8515 39.1677C84.8942 39.1742 84.9377 39.172 84.9795 39.1614C85.0213 39.1507 85.0606 39.1318 85.095 39.1057C85.1294 39.0796 85.1582 39.0469 85.1798 39.0094C85.2013 38.972 85.2152 38.9306 85.2205 38.8877C85.2869 38.5046 85.3255 38.1172 85.3363 37.7285L85.3319 37.7394Z" fill="#2D627E"/>
<path d="M85.6791 29.3994C85.8214 29.4384 85.9683 29.4583 86.1158 29.4585C86.8945 29.5419 87.6555 29.7463 88.3714 30.0644C88.4147 30.0794 88.4544 30.1033 88.4879 30.1346C88.5214 30.166 88.548 30.204 88.5659 30.2463C88.5838 30.2885 88.5926 30.3341 88.5918 30.38C88.5911 30.4259 88.5807 30.4711 88.5614 30.5128C88.5435 30.5536 88.5174 30.5902 88.4846 30.6203C88.4519 30.6505 88.4132 30.6735 88.3712 30.6879C88.3291 30.7023 88.2845 30.7078 88.2401 30.704C88.1958 30.7002 88.1528 30.6872 88.1137 30.6659C86.9352 30.164 85.6511 29.9611 84.3756 30.0753C83.5355 30.1184 82.7108 30.3172 81.9431 30.6615C81.8854 30.6934 81.8196 30.7075 81.754 30.7021C81.6883 30.6966 81.6257 30.6719 81.5741 30.6309C81.5254 30.5932 81.4887 30.542 81.4685 30.4838C81.4483 30.4255 81.4456 30.3626 81.4606 30.3028C81.4737 30.2475 81.5006 30.1964 81.5388 30.1543C81.577 30.1123 81.6252 30.0806 81.6789 30.0622C82.2509 29.806 82.8534 29.6244 83.4716 29.5219C83.7202 29.4781 83.9709 29.4475 84.2227 29.43C84.2445 29.43 84.262 29.43 84.2664 29.3994H85.6791Z" fill="#2D627E"/>
<path d="M79.4733 37.2979C79.5206 37.0996 79.5506 36.8976 79.5628 36.6942C79.6842 35.8824 79.9845 35.108 80.4419 34.427C80.8992 33.746 81.5022 33.1755 82.207 32.757C82.2444 32.7288 82.2873 32.709 82.3329 32.6987C82.3785 32.6884 82.4258 32.688 82.4716 32.6974C82.5174 32.7069 82.5607 32.726 82.5985 32.7534C82.6364 32.7809 82.668 32.8161 82.6913 32.8567C82.7145 32.8974 82.7289 32.9425 82.7334 32.9891C82.7379 33.0357 82.7324 33.0828 82.7174 33.1271C82.7024 33.1715 82.6781 33.2121 82.6462 33.2463C82.6143 33.2806 82.5755 33.3076 82.5324 33.3257C81.4958 33.9463 80.7268 34.931 80.3751 36.0883C80.2413 36.5302 80.1642 36.9874 80.1458 37.4488C80.1349 37.6828 80.0628 37.7988 79.9034 37.8381C79.744 37.8775 79.6152 37.8162 79.4995 37.6085C79.4995 37.6085 79.482 37.6085 79.4733 37.5953V37.2979Z" fill="#2D627E"/>
<path d="M85.002 34.6008C85.7118 34.6 86.3976 34.8579 86.9316 35.3264C87.4655 35.7949 87.8111 36.4419 87.9039 37.1469C87.9432 37.4203 87.9366 37.6959 87.9497 37.9693C88.0112 39.4747 88.2854 40.9638 88.7642 42.3921C88.8079 42.5211 88.8472 42.6524 88.8843 42.7836C88.8977 42.8248 88.9026 42.8683 88.8988 42.9114C88.895 42.9546 88.8825 42.9965 88.8621 43.0347C88.8417 43.0729 88.8138 43.1066 88.7801 43.1337C88.7464 43.1609 88.7076 43.1809 88.6659 43.1926C88.6263 43.2069 88.5841 43.2129 88.5421 43.2103C88.5001 43.2077 88.459 43.1965 88.4214 43.1775C88.3838 43.1584 88.3504 43.1319 88.3234 43.0996C88.2964 43.0672 88.2762 43.0296 88.2642 42.9892C87.9521 42.0914 87.7069 41.1717 87.5305 40.2376C87.3833 39.2843 87.2936 38.3231 87.2619 37.359C87.2217 36.7974 86.974 36.271 86.5671 35.8825C86.1602 35.4939 85.6235 35.2713 85.0615 35.2579C84.4996 35.2445 83.9528 35.4413 83.528 35.81C83.1032 36.1787 82.8307 36.6928 82.7639 37.2519C82.718 37.5603 82.7311 37.8796 82.6984 38.1924C82.5784 39.2454 82.2543 40.2649 81.7442 41.1934C81.5797 41.5022 81.396 41.8003 81.1939 42.0859C81.1531 42.1515 81.0895 42.1997 81.0153 42.2211C80.9411 42.2425 80.8616 42.2356 80.7921 42.2018C80.7272 42.1727 80.6733 42.1233 80.6387 42.061C80.6041 41.9987 80.5905 41.9268 80.6 41.8562C80.6173 41.7756 80.6541 41.7005 80.707 41.6374C81.3065 40.7576 81.7299 39.7697 81.9538 38.7283C82.0392 38.3262 82.0845 37.9167 82.0892 37.5056C82.1058 36.7985 82.3737 36.1205 82.8449 35.5936C83.316 35.0667 83.9593 34.7255 84.6592 34.6315C84.7727 34.6052 84.895 34.6074 85.002 34.6008Z" fill="#2D627E"/>
<path d="M86.6353 37.7704C86.5222 39.9872 85.8229 42.1341 84.609 43.9911C84.4212 44.2864 84.2182 44.5708 84.0064 44.8486C83.9833 44.89 83.9515 44.9259 83.9134 44.9539C83.8752 44.9819 83.8314 45.0014 83.7851 45.0109C83.7387 45.0205 83.6908 45.02 83.6447 45.0093C83.5986 44.9987 83.5553 44.9783 83.5177 44.9494C83.4802 44.9205 83.4493 44.8839 83.4271 44.842C83.405 44.8001 83.3921 44.7539 83.3894 44.7065C83.3866 44.6592 83.3941 44.6118 83.4113 44.5677C83.4284 44.5235 83.4549 44.4835 83.4889 44.4505C84.4604 43.1758 85.1773 41.7254 85.6003 40.1786C85.8377 39.3331 85.9654 38.4605 85.9803 37.5823C85.9884 37.453 85.9708 37.3234 85.9283 37.2011C85.8859 37.0788 85.8195 36.9662 85.733 36.8699C85.6466 36.7736 85.5418 36.6955 85.4249 36.6403C85.308 36.5851 85.1812 36.5538 85.052 36.5483C84.9229 36.5427 84.7939 36.5631 84.6727 36.6081C84.5515 36.6531 84.4404 36.7219 84.3461 36.8105C84.2518 36.8991 84.176 37.0056 84.1233 37.1238C84.0706 37.2421 84.042 37.3697 84.0391 37.4992C83.9933 39.6515 83.2181 41.5348 81.9582 43.2431C81.9247 43.3034 81.874 43.3524 81.8125 43.3835C81.751 43.4147 81.6816 43.4267 81.6132 43.4181C81.5499 43.4104 81.4904 43.3837 81.4425 43.3415C81.3945 43.2994 81.3605 43.2437 81.3446 43.1818C81.3296 43.1225 81.3301 43.0603 81.3462 43.0013C81.3623 42.9423 81.3933 42.8884 81.4363 42.845C81.9606 42.1549 82.3936 41.3999 82.7246 40.5986C83.1402 39.5897 83.3688 38.5135 83.3993 37.4226C83.4165 37.022 83.583 36.6425 83.866 36.359C84.149 36.0755 84.5279 35.9086 84.9278 35.8915C85.3261 35.8753 85.7167 36.0052 86.0262 36.2569C86.3357 36.5086 86.543 36.8647 86.6091 37.2586C86.636 37.4278 86.6448 37.5993 86.6353 37.7704Z" fill="#2D627E"/>
<path d="M88.2664 34.9485C88.2739 35.0155 88.2591 35.0831 88.2244 35.1409C88.1897 35.1986 88.1369 35.2433 88.0742 35.2679C88.0138 35.2962 87.946 35.3046 87.8806 35.292C87.8151 35.2795 87.7552 35.2465 87.7096 35.1979C87.5596 35.033 87.3983 34.8788 87.227 34.7364C86.7533 34.3581 86.1909 34.1074 85.5933 34.0081C84.9957 33.9088 84.3827 33.964 83.8124 34.1687C83.2422 34.3734 82.7335 34.7206 82.3349 35.1775C81.9362 35.6344 81.6607 36.1858 81.5346 36.7793C81.47 37.1905 81.4336 37.6056 81.4254 38.0217C81.3536 38.7069 81.1722 39.376 80.8882 40.0034C80.8002 40.2082 80.6988 40.407 80.5847 40.5984C80.5655 40.6385 80.5384 40.6743 80.505 40.7037C80.4716 40.7331 80.4326 40.7554 80.3904 40.7693C80.3482 40.7831 80.3036 40.7883 80.2593 40.7845C80.215 40.7807 80.172 40.768 80.1327 40.7471C80.0916 40.7268 80.0555 40.6978 80.0267 40.6621C79.9979 40.6264 79.9771 40.5848 79.9659 40.5403C79.9547 40.4958 79.9533 40.4494 79.9617 40.4043C79.9702 40.3592 79.9883 40.3164 80.0148 40.279C80.3714 39.6485 80.6167 38.9611 80.7397 38.247C80.7797 37.9042 80.8023 37.5597 80.8074 37.2146C80.8695 36.3504 81.1964 35.5264 81.7436 34.8554C82.2907 34.1843 83.0314 33.6989 83.8644 33.4655C85.5173 33.0281 86.9497 33.4655 88.1397 34.6882C88.178 34.7202 88.2091 34.7599 88.231 34.8047C88.2528 34.8496 88.2649 34.8986 88.2664 34.9485Z" fill="#2D627E"/>
<path d="M89.8775 32.945C89.8843 33.0139 89.8689 33.0831 89.8335 33.1426C89.7981 33.202 89.7447 33.2485 89.681 33.2753C89.6212 33.3048 89.5534 33.3139 89.488 33.3013C89.4226 33.2887 89.3631 33.255 89.3185 33.2053C89.1198 33.0091 88.9114 32.8229 88.694 32.6475C87.8204 31.9364 86.7573 31.4983 85.6371 31.3877C84.774 31.2923 83.9006 31.3896 83.0794 31.6725C82.2583 31.9554 81.5099 32.4168 80.8879 33.0238C80.829 33.0784 80.7722 33.1397 80.7132 33.1944C80.6834 33.2285 80.6469 33.2561 80.606 33.2755C80.565 33.2949 80.5206 33.3056 80.4753 33.307C80.43 33.3084 80.385 33.3005 80.3429 33.2837C80.3009 33.2669 80.2627 33.2416 80.2309 33.2094C80.199 33.1771 80.1741 33.1387 80.1577 33.0964C80.1413 33.0541 80.1338 33.0089 80.1356 32.9636C80.1375 32.9183 80.1486 32.8738 80.1683 32.833C80.1881 32.7921 80.216 32.7558 80.2503 32.7263C80.8196 32.1476 81.4845 31.6717 82.2155 31.3198C83.4036 30.7562 84.7346 30.567 86.0323 30.7774C87.452 31.0008 88.7596 31.6838 89.7552 32.7219C89.79 32.7485 89.8188 32.7821 89.8399 32.8205C89.8609 32.859 89.8737 32.9014 89.8775 32.945Z" fill="#2D627E"/>
<path d="M84.9475 32.0066C86.2247 32.0013 87.4647 32.4369 88.459 33.24C89.4532 34.0431 90.1409 35.1648 90.4063 36.4163C90.4812 36.7759 90.5178 37.1425 90.5155 37.5099C90.5155 37.597 90.481 37.6804 90.4196 37.7419C90.3582 37.8035 90.2749 37.838 90.188 37.838C90.1011 37.838 90.0178 37.8035 89.9564 37.7419C89.895 37.6804 89.8605 37.597 89.8605 37.5099C89.8551 36.7734 89.6834 36.0476 89.3582 35.387C89.0331 34.7264 88.563 34.148 87.983 33.6952C87.4031 33.2424 86.7284 32.9269 86.0095 32.7724C85.2906 32.6178 84.5461 32.6282 83.8317 32.8028C83.7881 32.8195 83.7415 32.8266 83.6949 32.8239C83.6483 32.8211 83.6028 32.8085 83.5615 32.7868C83.5201 32.7651 83.4838 32.7349 83.455 32.6981C83.4262 32.6614 83.4055 32.6189 83.3943 32.5735C83.3831 32.5281 83.3816 32.4809 83.39 32.4349C83.3984 32.3889 83.4164 32.3452 83.4429 32.3067C83.4694 32.2682 83.5037 32.2358 83.5437 32.2116C83.5836 32.1874 83.6282 32.172 83.6745 32.1663C84.0912 32.0637 84.5184 32.0101 84.9475 32.0066Z" fill="#2D627E"/>
<path d="M86.7838 42.5494C86.5654 42.9869 86.3471 43.4069 86.1287 43.8181C85.9431 44.1724 85.7422 44.5158 85.5283 44.8549C85.4942 44.9116 85.4439 44.9568 85.3839 44.9845C85.3239 45.0123 85.2569 45.0213 85.1917 45.0104C85.1265 44.9996 85.0661 44.9694 85.0182 44.9237C84.9704 44.878 84.9373 44.819 84.9234 44.7543C84.9139 44.7093 84.914 44.6629 84.9238 44.618C84.9336 44.5731 84.9528 44.5308 84.9802 44.494C85.5589 43.5396 86.0696 42.5456 86.5087 41.5192C86.5291 41.4481 86.5736 41.3863 86.6346 41.3444C86.6955 41.3025 86.7691 41.2831 86.8427 41.2895C86.9167 41.293 86.9875 41.3211 87.0436 41.3695C87.0998 41.4178 87.1383 41.4836 87.1528 41.5564C87.3755 42.2622 87.5939 42.9701 87.8079 43.6803C87.8398 43.75 87.847 43.8285 87.8284 43.9029C87.8097 43.9772 87.7663 44.043 87.7052 44.0893C87.6536 44.1315 87.5898 44.1558 87.5233 44.1586C87.4567 44.1613 87.3911 44.1424 87.3362 44.1046C87.2566 44.0499 87.2005 43.9671 87.179 43.8728C87.0611 43.4397 86.9279 43.0088 86.7838 42.5494Z" fill="#2D627E"/>
<path d="M89.8451 41.353C89.8501 41.4341 89.825 41.5143 89.7746 41.578C89.7243 41.6418 89.6522 41.6847 89.5722 41.6986C89.4957 41.7137 89.4164 41.6997 89.3497 41.6592C89.283 41.6188 89.2339 41.5548 89.2119 41.4798C89.0008 40.8688 88.8352 40.243 88.7163 39.6075C88.6247 38.9127 88.5766 38.2128 88.5721 37.512C88.5697 37.1361 88.5093 36.7627 88.3931 36.4052C88.3525 36.3169 88.344 36.2171 88.3691 36.1231C88.392 36.0591 88.4341 36.0037 88.4896 35.9646C88.5451 35.9254 88.6113 35.9044 88.6791 35.9044C88.7473 35.9031 88.8141 35.9236 88.8699 35.9629C88.9256 36.0023 88.9674 36.0584 88.9892 36.1231C89.0992 36.4388 89.1724 36.7661 89.2075 37.0986C89.2534 37.523 89.2359 37.9495 89.2556 38.376C89.2869 39.2614 89.4496 40.1371 89.7381 40.9746C89.7875 41.0964 89.8234 41.2233 89.8451 41.353Z" fill="#2D627E"/>
<path d="M84.9276 40.1719C84.886 40.3676 84.8275 40.5594 84.7529 40.745C84.3141 42.0127 83.6628 43.1962 82.8271 44.2447C82.8034 44.2854 82.7713 44.3206 82.7329 44.3479C82.6945 44.3752 82.6508 44.3939 82.6046 44.4028C82.5584 44.4118 82.5108 44.4107 82.4651 44.3997C82.4194 44.3887 82.3765 44.368 82.3394 44.339C82.3023 44.31 82.2718 44.2734 82.25 44.2317C82.2282 44.1899 82.2155 44.144 82.2129 44.0969C82.2103 44.0499 82.2178 44.0028 82.2348 43.9589C82.2518 43.9149 82.2781 43.8752 82.3117 43.8422C83.1974 42.7274 83.8642 41.4545 84.2769 40.091C84.2888 40.004 84.3347 39.9252 84.4045 39.8721C84.4743 39.819 84.5623 39.7958 84.6492 39.8077C84.7361 39.8196 84.8147 39.8656 84.8677 39.9355C84.9207 40.0055 84.9438 40.0937 84.932 40.1807L84.9276 40.1719Z" fill="#2D627E"/>
<path d="M85.3361 37.7286C85.3263 38.1135 85.289 38.4973 85.2247 38.8769C85.2193 38.9198 85.2055 38.9612 85.1839 38.9986C85.1623 39.0361 85.1335 39.0688 85.0991 39.0949C85.0647 39.121 85.0255 39.1399 84.9837 39.1506C84.9419 39.1612 84.8983 39.1634 84.8557 39.1569C84.814 39.1518 84.7738 39.1384 84.7374 39.1175C84.701 39.0966 84.6691 39.0686 84.6437 39.0352C84.6183 39.0017 84.5998 38.9636 84.5893 38.9228C84.5788 38.8821 84.5766 38.8398 84.5827 38.7982C84.6402 38.3709 84.6738 37.9408 84.6832 37.5098C84.6859 37.4301 84.7187 37.3543 84.7751 37.2979C84.8314 37.2414 84.9071 37.2085 84.9867 37.2058C85.0711 37.2013 85.1542 37.229 85.219 37.2834C85.2838 37.3378 85.3257 37.4148 85.3361 37.4989C85.3404 37.5754 85.3404 37.6521 85.3361 37.7286Z" fill="#2D627E"/>
<path d="M72.5099 25.7136H12.0656V45.1436H72.5099V25.7136Z" stroke="#609FB9" stroke-width="0.686819" stroke-miterlimit="10"/>
<path d="M26.6321 25.7136V45.1436" stroke="#609FB9" stroke-width="0.686819" stroke-miterlimit="10"/>
<path d="M42.0651 25.7136V45.1436" stroke="#609FB9" stroke-width="0.686819" stroke-miterlimit="10"/>
<path d="M57.5005 25.7136V45.1436" stroke="#609FB9" stroke-width="0.686819" stroke-miterlimit="10"/>
<path d="M12.0656 35.4604H72.5099" stroke="#609FB9" stroke-width="0.686819" stroke-miterlimit="10"/>
<path d="M94.7054 25.8078V41.2043H95.9828V25.8078H94.7054Z" fill="#609FB9"/>
<path d="M94.7035 45.0649V60.4614H95.9809V45.0649H94.7035Z" fill="#609FB9"/>
<path d="M94.7035 63.9108V79.3074H95.9808V63.9108H94.7035Z" fill="#609FB9"/>
<g opacity="0.5">
<path opacity="0.5" d="M24.7346 26.989H13.8126V28.962H24.7346V26.989Z" fill="#609FB9"/>
<path opacity="0.5" d="M24.7347 31.9346H13.8127V33.9075H24.7347V31.9346Z" fill="#609FB9"/>
<path opacity="0.5" d="M21.108 29.4607H17.7235V31.4337H21.108V29.4607Z" fill="#609FB9"/>
</g>
<g opacity="0.5">
<path opacity="0.5" d="M39.8097 26.989H28.8877V28.962H39.8097V26.989Z" fill="#609FB9"/>
<path opacity="0.5" d="M39.8097 31.9346H28.8877V33.9075H39.8097V31.9346Z" fill="#609FB9"/>
<path opacity="0.5" d="M36.1828 29.4607H32.7983V31.4337H36.1828V29.4607Z" fill="#609FB9"/>
</g>
<g opacity="0.5">
<path opacity="0.5" d="M55.2449 26.989H44.3229V28.962H55.2449V26.989Z" fill="#609FB9"/>
<path opacity="0.5" d="M55.2447 31.9346H44.3228V33.9075H55.2447V31.9346Z" fill="#609FB9"/>
<path opacity="0.5" d="M51.6181 29.4607H48.2336V31.4337H51.6181V29.4607Z" fill="#609FB9"/>
</g>
<g opacity="0.5">
<path opacity="0.5" d="M70.6477 26.989H59.7257V28.962H70.6477V26.989Z" fill="#609FB9"/>
<path opacity="0.5" d="M70.6478 31.9346H59.7258V33.9075H70.6478V31.9346Z" fill="#609FB9"/>
<path opacity="0.5" d="M67.0208 29.4607H63.6364V31.4337H67.0208V29.4607Z" fill="#609FB9"/>
</g>
<g opacity="0.5">
<path opacity="0.5" d="M24.7346 36.4885H13.8126V38.4615H24.7346V36.4885Z" fill="#609FB9"/>
<path opacity="0.5" d="M24.7347 41.4341H13.8127V43.407H24.7347V41.4341Z" fill="#609FB9"/>
<path opacity="0.5" d="M21.108 38.96H17.7235V40.9329H21.108V38.96Z" fill="#609FB9"/>
</g>
<g opacity="0.5">
<path opacity="0.5" d="M39.8097 36.4885H28.8877V38.4615H39.8097V36.4885Z" fill="#609FB9"/>
<path opacity="0.5" d="M39.8097 41.4341H28.8877V43.407H39.8097V41.4341Z" fill="#609FB9"/>
<path opacity="0.5" d="M36.1828 38.96H32.7983V40.9329H36.1828V38.96Z" fill="#609FB9"/>
</g>
<g opacity="0.5">
<path opacity="0.5" d="M55.2449 36.4885H44.3229V38.4615H55.2449V36.4885Z" fill="#609FB9"/>
<path opacity="0.5" d="M55.2447 41.4341H44.3228V43.407H55.2447V41.4341Z" fill="#609FB9"/>
<path opacity="0.5" d="M51.6181 38.96H48.2336V40.9329H51.6181V38.96Z" fill="#609FB9"/>
</g>
<g opacity="0.5">
<path opacity="0.5" d="M70.6477 36.4885H59.7257V38.4615H70.6477V36.4885Z" fill="#609FB9"/>
<path opacity="0.5" d="M70.6478 41.4341H59.7258V43.407H70.6478V41.4341Z" fill="#609FB9"/>
<path opacity="0.5" d="M67.0208 38.96H63.6364V40.9329H67.0208V38.96Z" fill="#609FB9"/>
</g>
<path d="M80.9996 62.9026H11.4609V79.3425H80.9996V62.9026Z" fill="#609FB9"/>
<path d="M13.5811 63.6724H12.1705V78.5702H13.5811V63.6724Z" fill="#7EA9B6"/>
<path d="M13.5811 76.7615H12.1705V78.1745H13.5811V76.7615Z" fill="#609FB9"/>
<path d="M13.5811 75.6238H12.1705V76.2756H13.5811V75.6238Z" fill="#609FB9"/>
<path d="M13.5811 74.2065H12.1705V75.2455H13.5811V74.2065Z" fill="#609FB9"/>
<path d="M13.5811 72.0696H12.1705V73.1086H13.5811V72.0696Z" fill="#609FB9"/>
<path d="M13.5811 69.3289H12.1705V71.3128H13.5811V69.3289Z" fill="#609FB9"/>
<path d="M13.5811 66.8201H12.1705V68.804H13.5811V66.8201Z" fill="#609FB9"/>
<path d="M13.5811 63.9153H12.1705V65.3283H13.5811V63.9153Z" fill="#609FB9"/>
<path d="M80.9996 62.9026H11.4609V79.3425H80.9996V62.9026Z" fill="#609FB9"/>
<path d="M15.6159 63.6724H14.0721V78.5702H15.6159V63.6724Z" fill="#7EA9B6"/>
<path d="M15.6159 76.7615H14.0721V78.1745H15.6159V76.7615Z" fill="#609FB9"/>
<path d="M15.6159 75.6238H14.0721V76.2756H15.6159V75.6238Z" fill="#609FB9"/>
<path d="M15.6159 74.2065H14.0721V75.2455H15.6159V74.2065Z" fill="#609FB9"/>
<path d="M15.6159 72.0696H14.0721V73.1086H15.6159V72.0696Z" fill="#609FB9"/>
<path d="M15.6159 69.3289H14.0721V71.3128H15.6159V69.3289Z" fill="#609FB9"/>
<path d="M15.6159 66.8201H14.0721V68.804H15.6159V66.8201Z" fill="#609FB9"/>
<path d="M15.6159 63.9153H14.0721V65.3283H15.6159V63.9153Z" fill="#609FB9"/>
<path d="M15.9194 78.5703H17.4631L17.4631 63.6725H15.9194L15.9194 78.5703Z" fill="#7EA9B6"/>
<path d="M15.9194 65.4834H17.4631V64.0704H15.9194V65.4834Z" fill="#609FB9"/>
<path d="M15.9194 66.6189H17.4631V65.9671H15.9194V66.6189Z" fill="#609FB9"/>
<path d="M15.9194 68.0342H17.4631V66.9952H15.9194V68.0342Z" fill="#609FB9"/>
<path d="M15.9194 70.1731H17.4631V69.1341H15.9194V70.1731Z" fill="#609FB9"/>
<path d="M15.9194 72.9141H17.4631V70.9302H15.9194V72.9141Z" fill="#609FB9"/>
<path d="M15.9194 75.4229H17.4631V73.439H15.9194V75.4229Z" fill="#609FB9"/>
<path d="M15.9194 78.325H17.4631V76.9119H15.9194V78.325Z" fill="#609FB9"/>
<path d="M19.6143 78.5703H21.1581L21.1581 63.6725H19.6143V78.5703Z" fill="#7EA9B6"/>
<path d="M19.6143 65.4834H21.1581V64.0704H19.6143V65.4834Z" fill="#609FB9"/>
<path d="M19.6143 66.6189H21.1581V65.9671H19.6143V66.6189Z" fill="#609FB9"/>
<path d="M19.6143 68.0342H21.1581V66.9952H19.6143V68.0342Z" fill="#609FB9"/>
<path d="M19.6143 70.1731H21.1581V69.1341H19.6143V70.1731Z" fill="#609FB9"/>
<path d="M19.6143 72.9141H21.1581V70.9302H19.6143V72.9141Z" fill="#609FB9"/>
<path d="M19.6143 75.4229H21.1581V73.439H19.6143V75.4229Z" fill="#609FB9"/>
<path d="M19.6143 78.325H21.1581V76.9119H19.6143V78.325Z" fill="#609FB9"/>
<path d="M19.3086 63.6724H17.7649V78.5702H19.3086V63.6724Z" fill="#7EA9B6"/>
<path d="M19.3086 76.7615H17.7649V78.1745H19.3086V76.7615Z" fill="#609FB9"/>
<path d="M19.3086 75.6238H17.7649V76.2756H19.3086V75.6238Z" fill="#609FB9"/>
<path d="M19.3086 74.2065H17.7649V75.2455H19.3086V74.2065Z" fill="#609FB9"/>
<path d="M19.3086 72.0696H17.7649V73.1086H19.3086V72.0696Z" fill="#609FB9"/>
<path d="M19.3086 69.3289H17.7649V71.3128H19.3086V69.3289Z" fill="#609FB9"/>
<path d="M19.3086 66.8201H17.7649V68.804H19.3086V66.8201Z" fill="#609FB9"/>
<path d="M19.3086 63.9153H17.7649V65.3283H19.3086V63.9153Z" fill="#609FB9"/>
<path d="M29.9053 63.6724H28.3616V78.5702H29.9053V63.6724Z" fill="#7EA9B6"/>
<path d="M29.9053 76.7615H28.3616V78.1745H29.9053V76.7615Z" fill="#609FB9"/>
<path d="M29.9053 75.6238H28.3616V76.2756H29.9053V75.6238Z" fill="#609FB9"/>
<path d="M29.9053 74.2065H28.3616V75.2455H29.9053V74.2065Z" fill="#609FB9"/>
<path d="M29.9053 72.0696H28.3616V73.1086H29.9053V72.0696Z" fill="#609FB9"/>
<path d="M29.9053 69.3289H28.3616V71.3128H29.9053V69.3289Z" fill="#609FB9"/>
<path d="M29.9053 66.8201H28.3616V68.804H29.9053V66.8201Z" fill="#609FB9"/>
<path d="M29.9053 63.9153H28.3616V65.3283H29.9053V63.9153Z" fill="#609FB9"/>
<path d="M30.2086 78.5703H31.7523L31.7523 63.6725H30.2086V78.5703Z" fill="#7EA9B6"/>
<path d="M30.2086 65.4834H31.7523V64.0704H30.2086V65.4834Z" fill="#609FB9"/>
<path d="M30.2086 66.6189H31.7523V65.9671H30.2086V66.6189Z" fill="#609FB9"/>
<path d="M30.2086 68.0342H31.7523V66.9952H30.2086V68.0342Z" fill="#609FB9"/>
<path d="M30.2086 70.1731H31.7523V69.1341H30.2086V70.1731Z" fill="#609FB9"/>
<path d="M30.2086 72.9141H31.7523V70.9302H30.2086V72.9141Z" fill="#609FB9"/>
<path d="M30.2086 75.4229H31.7523V73.439H30.2086V75.4229Z" fill="#609FB9"/>
<path d="M30.2086 78.325H31.7523V76.9119H30.2086V78.325Z" fill="#609FB9"/>
<path d="M33.9033 78.5703H35.447V63.6725H33.9033V78.5703Z" fill="#7EA9B6"/>
<path d="M33.9033 65.4834H35.447V64.0704H33.9033V65.4834Z" fill="#609FB9"/>
<path d="M33.9033 66.6189H35.447V65.9671H33.9033V66.6189Z" fill="#609FB9"/>
<path d="M33.9033 68.0342H35.447V66.9952H33.9033V68.0342Z" fill="#609FB9"/>
<path d="M33.9033 70.1731H35.447V69.1341H33.9033V70.1731Z" fill="#609FB9"/>
<path d="M33.9033 72.9141H35.447V70.9302H33.9033V72.9141Z" fill="#609FB9"/>
<path d="M33.9033 75.4229H35.447V73.439H33.9033V75.4229Z" fill="#609FB9"/>
<path d="M33.9033 78.325H35.447V76.9119H33.9033V78.325Z" fill="#609FB9"/>
<path d="M33.5998 63.6724H32.056V78.5702H33.5998V63.6724Z" fill="#7EA9B6"/>
<path d="M33.5998 76.7615H32.056V78.1745H33.5998V76.7615Z" fill="#609FB9"/>
<path d="M33.5998 75.6238H32.056V76.2756H33.5998V75.6238Z" fill="#609FB9"/>
<path d="M33.5998 74.2065H32.056V75.2455H33.5998V74.2065Z" fill="#609FB9"/>
<path d="M33.5998 72.0696H32.056V73.1086H33.5998V72.0696Z" fill="#609FB9"/>
<path d="M33.5998 69.3289H32.056V71.3128H33.5998V69.3289Z" fill="#609FB9"/>
<path d="M33.5998 66.8201H32.056V68.804H33.5998V66.8201Z" fill="#609FB9"/>
<path d="M33.5998 63.9153H32.056V65.3283H33.5998V63.9153Z" fill="#609FB9"/>
<path d="M26.6998 78.5703H28.2435L28.2435 63.6725H26.6998V78.5703Z" fill="#7EA9B6"/>
<path d="M26.6998 65.4834H28.2435V64.0704H26.6998V65.4834Z" fill="#609FB9"/>
<path d="M26.6998 66.6189H28.2435V65.9671H26.6998V66.6189Z" fill="#609FB9"/>
<path d="M26.6998 68.0342H28.2435V66.9952H26.6998V68.0342Z" fill="#609FB9"/>
<path d="M26.6998 70.1731H28.2435V69.1341H26.6998V70.1731Z" fill="#609FB9"/>
<path d="M26.6998 72.9141H28.2435V70.9302H26.6998V72.9141Z" fill="#609FB9"/>
<path d="M26.6998 75.4229H28.2435V73.439H26.6998V75.4229Z" fill="#609FB9"/>
<path d="M26.6998 78.325H28.2435V76.9119H26.6998V78.325Z" fill="#609FB9"/>
<path d="M26.3938 63.6724H24.8501V78.5702H26.3938V63.6724Z" fill="#7EA9B6"/>
<path d="M26.3938 76.7615H24.8501V78.1745H26.3938V76.7615Z" fill="#609FB9"/>
<path d="M26.3938 75.6238H24.8501V76.2756H26.3938V75.6238Z" fill="#609FB9"/>
<path d="M26.3938 74.2065H24.8501V75.2455H26.3938V74.2065Z" fill="#609FB9"/>
<path d="M26.3938 72.0696H24.8501V73.1086H26.3938V72.0696Z" fill="#609FB9"/>
<path d="M26.3938 69.3289H24.8501V71.3128H26.3938V69.3289Z" fill="#609FB9"/>
<path d="M26.3938 66.8201H24.8501V68.804H26.3938V66.8201Z" fill="#609FB9"/>
<path d="M26.3938 63.9153H24.8501V65.3283H26.3938V63.9153Z" fill="#609FB9"/>
<path d="M22.7018 63.6724H21.1581V78.5702H22.7018V63.6724Z" fill="#7EA9B6"/>
<path d="M22.7018 76.7615H21.1581V78.1745H22.7018V76.7615Z" fill="#609FB9"/>
<path d="M22.7018 75.6238H21.1581V76.2756H22.7018V75.6238Z" fill="#609FB9"/>
<path d="M22.7018 74.2065H21.1581V75.2455H22.7018V74.2065Z" fill="#609FB9"/>
<path d="M22.7018 72.0696H21.1581V73.1086H22.7018V72.0696Z" fill="#609FB9"/>
<path d="M22.7018 69.3289H21.1581V71.3128H22.7018V69.3289Z" fill="#609FB9"/>
<path d="M22.7018 66.8201H21.1581V68.804H22.7018V66.8201Z" fill="#609FB9"/>
<path d="M22.7018 63.9153H21.1581V65.3283H22.7018V63.9153Z" fill="#609FB9"/>
<path d="M23.0053 78.5703H24.5491L24.5491 63.6725H23.0053V78.5703Z" fill="#7EA9B6"/>
<path d="M23.0053 65.4834H24.5491V64.0704H23.0053V65.4834Z" fill="#609FB9"/>
<path d="M23.0053 66.6189H24.5491V65.9671H23.0053V66.6189Z" fill="#609FB9"/>
<path d="M23.0053 68.0342H24.5491V66.9952H23.0053V68.0342Z" fill="#609FB9"/>
<path d="M23.0053 70.1731H24.5491V69.1341H23.0053V70.1731Z" fill="#609FB9"/>
<path d="M23.0053 72.9141H24.5491V70.9302H23.0053V72.9141Z" fill="#609FB9"/>
<path d="M23.0053 75.4229H24.5491V73.439H23.0053V75.4229Z" fill="#609FB9"/>
<path d="M23.0053 78.325H24.5491V76.9119H23.0053V78.325Z" fill="#609FB9"/>
<path d="M36.9908 63.6724H35.447V78.5702H36.9908V63.6724Z" fill="#7EA9B6"/>
<path d="M36.9908 76.7615H35.447V78.1745H36.9908V76.7615Z" fill="#609FB9"/>
<path d="M36.9908 75.6238H35.447V76.2756H36.9908V75.6238Z" fill="#609FB9"/>
<path d="M36.9908 74.2065H35.447V75.2455H36.9908V74.2065Z" fill="#609FB9"/>
<path d="M36.9908 72.0696H35.447V73.1086H36.9908V72.0696Z" fill="#609FB9"/>
<path d="M36.9908 69.3289H35.447V71.3128H36.9908V69.3289Z" fill="#609FB9"/>
<path d="M36.9908 66.8201H35.447V68.804H36.9908V66.8201Z" fill="#609FB9"/>
<path d="M36.9908 63.9153H35.447V65.3283H36.9908V63.9153Z" fill="#609FB9"/>
<path d="M37.2941 78.5703H38.8379V63.6725H37.2941V78.5703Z" fill="#7EA9B6"/>
<path d="M37.2941 65.4834H38.8379V64.0704H37.2941V65.4834Z" fill="#609FB9"/>
<path d="M37.2941 66.6189H38.8379V65.9671H37.2941V66.6189Z" fill="#609FB9"/>
<path d="M37.2941 68.0342H38.8379V66.9952H37.2941V68.0342Z" fill="#609FB9"/>
<path d="M37.2941 70.1731H38.8379V69.1341H37.2941V70.1731Z" fill="#609FB9"/>
<path d="M37.2941 72.9141H38.8379V70.9302H37.2941V72.9141Z" fill="#609FB9"/>
<path d="M37.2941 75.4229H38.8379V73.439H37.2941V75.4229Z" fill="#609FB9"/>
<path d="M37.2941 78.325H38.8379V76.9119H37.2941V78.325Z" fill="#609FB9"/>
<path d="M40.9887 78.5703H42.5325V63.6725H40.9887V78.5703Z" fill="#7EA9B6"/>
<path d="M40.9887 65.4834H42.5325V64.0704H40.9887V65.4834Z" fill="#609FB9"/>
<path d="M40.9887 66.6189H42.5325V65.9671H40.9887V66.6189Z" fill="#609FB9"/>
<path d="M40.9887 68.0342H42.5325V66.9952H40.9887V68.0342Z" fill="#609FB9"/>
<path d="M40.9887 70.1731H42.5325V69.1341H40.9887V70.1731Z" fill="#609FB9"/>
<path d="M40.9887 72.9141H42.5325V70.9302H40.9887V72.9141Z" fill="#609FB9"/>
<path d="M40.9887 75.4229H42.5325V73.439H40.9887V75.4229Z" fill="#609FB9"/>
<path d="M40.9887 78.325H42.5325V76.9119H40.9887V78.325Z" fill="#609FB9"/>
<path d="M40.683 63.6724H39.1393V78.5702H40.683V63.6724Z" fill="#7EA9B6"/>
<path d="M40.683 76.7615H39.1393V78.1745H40.683V76.7615Z" fill="#609FB9"/>
<path d="M40.683 75.6238H39.1393V76.2756H40.683V75.6238Z" fill="#609FB9"/>
<path d="M40.683 74.2065H39.1393V75.2455H40.683V74.2065Z" fill="#609FB9"/>
<path d="M40.683 72.0696H39.1393V73.1086H40.683V72.0696Z" fill="#609FB9"/>
<path d="M40.683 69.3289H39.1393V71.3128H40.683V69.3289Z" fill="#609FB9"/>
<path d="M40.683 66.8201H39.1393V68.804H40.683V66.8201Z" fill="#609FB9"/>
<path d="M40.683 63.9153H39.1393V65.3283H40.683V63.9153Z" fill="#609FB9"/>
<path d="M51.2797 63.6724H49.736V78.5702H51.2797V63.6724Z" fill="#7EA9B6"/>
<path d="M51.2797 76.7615H49.736V78.1745H51.2797V76.7615Z" fill="#609FB9"/>
<path d="M51.2797 75.6238H49.736V76.2756H51.2797V75.6238Z" fill="#609FB9"/>
<path d="M51.2797 74.2065H49.736V75.2455H51.2797V74.2065Z" fill="#609FB9"/>
<path d="M51.2797 72.0696H49.736V73.1086H51.2797V72.0696Z" fill="#609FB9"/>
<path d="M51.2797 69.3289H49.736V71.3128H51.2797V69.3289Z" fill="#609FB9"/>
<path d="M51.2797 66.8201H49.736V68.804H51.2797V66.8201Z" fill="#609FB9"/>
<path d="M51.2797 63.9153H49.736V65.3283H51.2797V63.9153Z" fill="#609FB9"/>
<path d="M51.5833 78.5703H53.1271V63.6725H51.5833V78.5703Z" fill="#7EA9B6"/>
<path d="M51.5833 65.4834H53.1271V64.0704H51.5833V65.4834Z" fill="#609FB9"/>
<path d="M51.5833 66.6189H53.1271V65.9671H51.5833V66.6189Z" fill="#609FB9"/>
<path d="M51.5833 68.0342H53.1271V66.9952H51.5833V68.0342Z" fill="#609FB9"/>
<path d="M51.5833 70.1731H53.1271V69.1341H51.5833V70.1731Z" fill="#609FB9"/>
<path d="M51.5833 72.9141H53.1271V70.9302H51.5833V72.9141Z" fill="#609FB9"/>
<path d="M51.5833 75.4229H53.1271V73.439H51.5833V75.4229Z" fill="#609FB9"/>
<path d="M51.5833 78.325H53.1271V76.9119H51.5833V78.325Z" fill="#609FB9"/>
<path d="M55.2778 78.5703H56.8215V63.6725H55.2778V78.5703Z" fill="#7EA9B6"/>
<path d="M55.2778 65.4834H56.8215V64.0704H55.2778V65.4834Z" fill="#609FB9"/>
<path d="M55.2778 66.6189H56.8215V65.9671H55.2778V66.6189Z" fill="#609FB9"/>
<path d="M55.2778 68.0342H56.8215V66.9952H55.2778V68.0342Z" fill="#609FB9"/>
<path d="M55.2778 70.1731H56.8215V69.1341H55.2778V70.1731Z" fill="#609FB9"/>
<path d="M55.2778 72.9141H56.8215V70.9302H55.2778V72.9141Z" fill="#609FB9"/>
<path d="M55.2778 75.4229H56.8215V73.439H55.2778V75.4229Z" fill="#609FB9"/>
<path d="M55.2778 78.325H56.8215V76.9119H55.2778V78.325Z" fill="#609FB9"/>
<path d="M54.9742 63.6724H53.4304V78.5702H54.9742V63.6724Z" fill="#7EA9B6"/>
<path d="M54.9742 76.7615H53.4304V78.1745H54.9742V76.7615Z" fill="#609FB9"/>
<path d="M54.9742 75.6238H53.4304V76.2756H54.9742V75.6238Z" fill="#609FB9"/>
<path d="M54.9742 74.2065H53.4304V75.2455H54.9742V74.2065Z" fill="#609FB9"/>
<path d="M54.9742 72.0696H53.4304V73.1086H54.9742V72.0696Z" fill="#609FB9"/>
<path d="M54.9742 69.3289H53.4304V71.3128H54.9742V69.3289Z" fill="#609FB9"/>
<path d="M54.9742 66.8201H53.4304V68.804H54.9742V66.8201Z" fill="#609FB9"/>
<path d="M54.9742 63.9153H53.4304V65.3283H54.9742V63.9153Z" fill="#609FB9"/>
<path d="M48.0743 78.5703H49.618V63.6725H48.0743V78.5703Z" fill="#7EA9B6"/>
<path d="M48.0743 65.4834H49.618V64.0704H48.0743V65.4834Z" fill="#609FB9"/>
<path d="M48.0743 66.6189H49.618V65.9671H48.0743V66.6189Z" fill="#609FB9"/>
<path d="M48.0743 68.0342H49.618V66.9952H48.0743V68.0342Z" fill="#609FB9"/>
<path d="M48.0743 70.1731H49.618V69.1341H48.0743V70.1731Z" fill="#609FB9"/>
<path d="M48.0743 72.9141H49.618V70.9302H48.0743V72.9141Z" fill="#609FB9"/>
<path d="M48.0743 75.4229H49.618V73.439H48.0743V75.4229Z" fill="#609FB9"/>
<path d="M48.0743 78.325H49.618V76.9119H48.0743V78.325Z" fill="#609FB9"/>
<path d="M47.7685 63.6724H46.2247V78.5702H47.7685V63.6724Z" fill="#7EA9B6"/>
<path d="M47.7685 76.7615H46.2247V78.1745H47.7685V76.7615Z" fill="#609FB9"/>
<path d="M47.7685 75.6238H46.2247V76.2756H47.7685V75.6238Z" fill="#609FB9"/>
<path d="M47.7685 74.2065H46.2247V75.2455H47.7685V74.2065Z" fill="#609FB9"/>
<path d="M47.7685 72.0696H46.2247V73.1086H47.7685V72.0696Z" fill="#609FB9"/>
<path d="M47.7685 69.3289H46.2247V71.3128H47.7685V69.3289Z" fill="#609FB9"/>
<path d="M47.7685 66.8201H46.2247V68.804H47.7685V66.8201Z" fill="#609FB9"/>
<path d="M47.7685 63.9153H46.2247V65.3283H47.7685V63.9153Z" fill="#609FB9"/>
<path d="M44.0762 63.6724H42.5325V78.5702H44.0762V63.6724Z" fill="#7EA9B6"/>
<path d="M44.0762 76.7615H42.5325V78.1745H44.0762V76.7615Z" fill="#609FB9"/>
<path d="M44.0762 75.6238H42.5325V76.2756H44.0762V75.6238Z" fill="#609FB9"/>
<path d="M44.0762 74.2065H42.5325V75.2455H44.0762V74.2065Z" fill="#609FB9"/>
<path d="M44.0762 72.0696H42.5325V73.1086H44.0762V72.0696Z" fill="#609FB9"/>
<path d="M44.0762 69.3289H42.5325V71.3128H44.0762V69.3289Z" fill="#609FB9"/>
<path d="M44.0762 66.8201H42.5325V68.804H44.0762V66.8201Z" fill="#609FB9"/>
<path d="M44.0762 63.9153H42.5325V65.3283H44.0762V63.9153Z" fill="#609FB9"/>
<path d="M44.3796 78.5703H45.9233V63.6725H44.3796V78.5703Z" fill="#7EA9B6"/>
<path d="M44.3796 65.4834H45.9233V64.0704H44.3796V65.4834Z" fill="#609FB9"/>
<path d="M44.3796 66.6189H45.9233V65.9671H44.3796V66.6189Z" fill="#609FB9"/>
<path d="M44.3796 68.0342H45.9233V66.9952H44.3796V68.0342Z" fill="#609FB9"/>
<path d="M44.3796 70.1731H45.9233V69.1341H44.3796V70.1731Z" fill="#609FB9"/>
<path d="M44.3796 72.9141H45.9233V70.9302H44.3796V72.9141Z" fill="#609FB9"/>
<path d="M44.3796 75.4229H45.9233V73.439H44.3796V75.4229Z" fill="#609FB9"/>
<path d="M44.3796 78.325H45.9233V76.9119H44.3796V78.325Z" fill="#609FB9"/>
<path d="M58.8106 63.6724H57.2668V78.5702H58.8106V63.6724Z" fill="#7EA9B6"/>
<path d="M58.8106 76.7615H57.2668V78.1745H58.8106V76.7615Z" fill="#609FB9"/>
<path d="M58.8106 75.6238H57.2668V76.2756H58.8106V75.6238Z" fill="#609FB9"/>
<path d="M58.8106 74.2065H57.2668V75.2455H58.8106V74.2065Z" fill="#609FB9"/>
<path d="M58.8106 72.0696H57.2668V73.1086H58.8106V72.0696Z" fill="#609FB9"/>
<path d="M58.8106 69.3289H57.2668V71.3128H58.8106V69.3289Z" fill="#609FB9"/>
<path d="M58.8106 66.8201H57.2668V68.804H58.8106V66.8201Z" fill="#609FB9"/>
<path d="M58.8106 63.9153H57.2668V65.3283H58.8106V63.9153Z" fill="#609FB9"/>
<path d="M59.1164 78.5703H60.6602V63.6725H59.1164V78.5703Z" fill="#7EA9B6"/>
<path d="M59.1164 65.4834H60.6602V64.0704H59.1164V65.4834Z" fill="#609FB9"/>
<path d="M59.1164 66.6189H60.6602V65.9671H59.1164V66.6189Z" fill="#609FB9"/>
<path d="M59.1164 68.0342H60.6602V66.9952H59.1164V68.0342Z" fill="#609FB9"/>
<path d="M59.1164 70.1731H60.6602V69.1341H59.1164V70.1731Z" fill="#609FB9"/>
<path d="M59.1164 72.9141H60.6602V70.9302H59.1164V72.9141Z" fill="#609FB9"/>
<path d="M59.1164 75.4229H60.6602V73.439H59.1164V75.4229Z" fill="#609FB9"/>
<path d="M59.1164 78.325H60.6602V76.9119H59.1164V78.325Z" fill="#609FB9"/>
<path d="M62.8084 78.5703H64.3522V63.6725H62.8084V78.5703Z" fill="#7EA9B6"/>
<path d="M62.8084 65.4834H64.3522V64.0704H62.8084V65.4834Z" fill="#609FB9"/>
<path d="M62.8084 66.6189H64.3522V65.9671H62.8084V66.6189Z" fill="#609FB9"/>
<path d="M62.8084 68.0342H64.3522V66.9952H62.8084V68.0342Z" fill="#609FB9"/>
<path d="M62.8084 70.1731H64.3522V69.1341H62.8084V70.1731Z" fill="#609FB9"/>
<path d="M62.8084 72.9141H64.3522V70.9302H62.8084V72.9141Z" fill="#609FB9"/>
<path d="M62.8084 75.4229H64.3522V73.439H62.8084V75.4229Z" fill="#609FB9"/>
<path d="M62.8084 78.325H64.3522V76.9119H62.8084V78.325Z" fill="#609FB9"/>
<path d="M62.5029 63.6724H60.9591V78.5702H62.5029V63.6724Z" fill="#7EA9B6"/>
<path d="M62.5029 76.7615H60.9591V78.1745H62.5029V76.7615Z" fill="#609FB9"/>
<path d="M62.5029 75.6238H60.9591V76.2756H62.5029V75.6238Z" fill="#609FB9"/>
<path d="M62.5029 74.2065H60.9591V75.2455H62.5029V74.2065Z" fill="#609FB9"/>
<path d="M62.5029 72.0696H60.9591V73.1086H62.5029V72.0696Z" fill="#609FB9"/>
<path d="M62.5029 69.3289H60.9591V71.3128H62.5029V69.3289Z" fill="#609FB9"/>
<path d="M62.5029 66.8201H60.9591V68.804H62.5029V66.8201Z" fill="#609FB9"/>
<path d="M62.5029 63.9153H60.9591V65.3283H62.5029V63.9153Z" fill="#609FB9"/>
<path d="M73.0999 63.6724H71.5562V78.5702H73.0999V63.6724Z" fill="#7EA9B6"/>
<path d="M73.0999 76.7615H71.5562V78.1745H73.0999V76.7615Z" fill="#609FB9"/>
<path d="M73.0999 75.6238H71.5562V76.2756H73.0999V75.6238Z" fill="#609FB9"/>
<path d="M73.0999 74.2065H71.5562V75.2455H73.0999V74.2065Z" fill="#609FB9"/>
<path d="M73.0999 72.0696H71.5562V73.1086H73.0999V72.0696Z" fill="#609FB9"/>
<path d="M73.0999 69.3289H71.5562V71.3128H73.0999V69.3289Z" fill="#609FB9"/>
<path d="M73.0999 66.8201H71.5562V68.804H73.0999V66.8201Z" fill="#609FB9"/>
<path d="M73.0999 63.9153H71.5562V65.3283H73.0999V63.9153Z" fill="#609FB9"/>
<path d="M73.4034 78.5703H74.9471V63.6725H73.4034V78.5703Z" fill="#7EA9B6"/>
<path d="M73.4034 65.4834H74.9471V64.0704H73.4034V65.4834Z" fill="#609FB9"/>
<path d="M73.4034 66.6189H74.9471V65.9671H73.4034V66.6189Z" fill="#609FB9"/>
<path d="M73.4034 68.0342H74.9471V66.9952H73.4034V68.0342Z" fill="#609FB9"/>
<path d="M73.4034 70.1731H74.9471V69.1341H73.4034V70.1731Z" fill="#609FB9"/>
<path d="M73.4034 72.9141H74.9471V70.9302H73.4034V72.9141Z" fill="#609FB9"/>
<path d="M73.4034 75.4229H74.9471V73.439H73.4034V75.4229Z" fill="#609FB9"/>
<path d="M73.4034 78.325H74.9471V76.9119H73.4034V78.325Z" fill="#609FB9"/>
<path d="M77.0978 78.5703H78.6416V63.6725H77.0978V78.5703Z" fill="#7EA9B6"/>
<path d="M77.0978 65.4834H78.6416V64.0704H77.0978V65.4834Z" fill="#609FB9"/>
<path d="M77.0978 66.6189H78.6416V65.9671H77.0978V66.6189Z" fill="#609FB9"/>
<path d="M77.0978 68.0342H78.6416V66.9952H77.0978V68.0342Z" fill="#609FB9"/>
<path d="M77.0978 70.1731H78.6416V69.1341H77.0978V70.1731Z" fill="#609FB9"/>
<path d="M77.0978 72.9141H78.6416V70.9302H77.0978V72.9141Z" fill="#609FB9"/>
<path d="M77.0978 75.4229H78.6416V73.439H77.0978V75.4229Z" fill="#609FB9"/>
<path d="M77.0978 78.325H78.6416V76.9119H77.0978V78.325Z" fill="#609FB9"/>
<path d="M76.794 63.6724H75.2502V78.5702H76.794V63.6724Z" fill="#7EA9B6"/>
<path d="M76.794 76.7615H75.2502V78.1745H76.794V76.7615Z" fill="#609FB9"/>
<path d="M76.794 75.6238H75.2502V76.2756H76.794V75.6238Z" fill="#609FB9"/>
<path d="M76.794 74.2065H75.2502V75.2455H76.794V74.2065Z" fill="#609FB9"/>
<path d="M76.794 72.0696H75.2502V73.1086H76.794V72.0696Z" fill="#609FB9"/>
<path d="M76.794 69.3289H75.2502V71.3128H76.794V69.3289Z" fill="#609FB9"/>
<path d="M76.794 66.8201H75.2502V68.804H76.794V66.8201Z" fill="#609FB9"/>
<path d="M76.794 63.9153H75.2502V65.3283H76.794V63.9153Z" fill="#609FB9"/>
<path d="M69.8919 78.5703H71.4357V63.6725H69.8919V78.5703Z" fill="#7EA9B6"/>
<path d="M69.8919 65.4834H71.4357V64.0704H69.8919V65.4834Z" fill="#609FB9"/>
<path d="M69.8919 66.6189H71.4357V65.9671H69.8919V66.6189Z" fill="#609FB9"/>
<path d="M69.8919 68.0342H71.4357V66.9952H69.8919V68.0342Z" fill="#609FB9"/>
<path d="M69.8919 70.1731H71.4357V69.1341H69.8919V70.1731Z" fill="#609FB9"/>
<path d="M69.8919 72.9141H71.4357V70.9302H69.8919V72.9141Z" fill="#609FB9"/>
<path d="M69.8919 75.4229H71.4357V73.439H69.8919V75.4229Z" fill="#609FB9"/>
<path d="M69.8919 78.325H71.4357V76.9119H69.8919V78.325Z" fill="#609FB9"/>
<path d="M69.5887 63.6724H68.0449V78.5702H69.5887V63.6724Z" fill="#7EA9B6"/>
<path d="M69.5887 76.7615H68.0449V78.1745H69.5887V76.7615Z" fill="#609FB9"/>
<path d="M69.5887 75.6238H68.0449V76.2756H69.5887V75.6238Z" fill="#609FB9"/>
<path d="M69.5887 74.2065H68.0449V75.2455H69.5887V74.2065Z" fill="#609FB9"/>
<path d="M69.5887 72.0696H68.0449V73.1086H69.5887V72.0696Z" fill="#609FB9"/>
<path d="M69.5887 69.3289H68.0449V71.3128H69.5887V69.3289Z" fill="#609FB9"/>
<path d="M69.5887 66.8201H68.0449V68.804H69.5887V66.8201Z" fill="#609FB9"/>
<path d="M69.5887 63.9153H68.0449V65.3283H69.5887V63.9153Z" fill="#609FB9"/>
<path d="M65.8959 63.6724H64.3522V78.5702H65.8959V63.6724Z" fill="#7EA9B6"/>
<path d="M65.8959 76.7615H64.3522V78.1745H65.8959V76.7615Z" fill="#609FB9"/>
<path d="M65.8959 75.6238H64.3522V76.2756H65.8959V75.6238Z" fill="#609FB9"/>
<path d="M65.8959 74.2065H64.3522V75.2455H65.8959V74.2065Z" fill="#609FB9"/>
<path d="M65.8959 72.0696H64.3522V73.1086H65.8959V72.0696Z" fill="#609FB9"/>
<path d="M65.8959 69.3289H64.3522V71.3128H65.8959V69.3289Z" fill="#609FB9"/>
<path d="M65.8959 66.8201H64.3522V68.804H65.8959V66.8201Z" fill="#609FB9"/>
<path d="M65.8959 63.9153H64.3522V65.3283H65.8959V63.9153Z" fill="#609FB9"/>
<path d="M66.1997 78.5703H67.7434V63.6725H66.1997V78.5703Z" fill="#7EA9B6"/>
<path d="M66.1997 65.4834H67.7434V64.0704H66.1997V65.4834Z" fill="#609FB9"/>
<path d="M66.1997 66.6189H67.7434V65.9671H66.1997V66.6189Z" fill="#609FB9"/>
<path d="M66.1997 68.0342H67.7434V66.9952H66.1997V68.0342Z" fill="#609FB9"/>
<path d="M66.1997 70.1731H67.7434V69.1341H66.1997V70.1731Z" fill="#609FB9"/>
<path d="M66.1997 72.9141H67.7434V70.9302H66.1997V72.9141Z" fill="#609FB9"/>
<path d="M66.1997 75.4229H67.7434V73.439H66.1997V75.4229Z" fill="#609FB9"/>
<path d="M66.1997 78.325H67.7434V76.9119H66.1997V78.325Z" fill="#609FB9"/>
<path d="M13.3451 63.9153H12.0656V78.1504H13.3451V63.9153Z" fill="#346D7F"/>
<path d="M80.4712 63.9153H79.1917V78.1504H80.4712V63.9153Z" fill="#346D7F"/>
</g>
</svg>
