<svg width="40" height="40" viewBox="0 0 40 40" fill="none" xmlns="http://www.w3.org/2000/svg">
<rect width="40" height="40" rx="8" fill="white"/>
<path d="M17.03 29.69L19.36 27.73C19.71 27.43 20.29 27.43 20.64 27.73L22.97 29.69C23.51 29.96 24.17 29.69 24.37 29.11L24.81 27.78C24.92 27.46 24.81 26.99 24.57 26.75L22.3 24.47C22.13 24.31 22 23.99 22 23.76V20.91C22 20.49 22.31 20.29 22.7 20.45L27.61 22.57C28.38 22.9 29.01 22.49 29.01 21.65V20.36C29.01 19.69 28.51 18.92 27.89 18.66L22.3 16.25C22.14 16.18 22 15.97 22 15.79V12.79C22 11.85 21.31 10.74 20.47 10.31C20.17 10.16 19.82 10.16 19.52 10.31C18.68 10.74 17.99 11.86 17.99 12.8V15.8C17.99 15.98 17.85 16.19 17.69 16.26L12.11 18.67C11.49 18.92 10.99 19.69 10.99 20.36V21.65C10.99 22.49 11.62 22.9 12.39 22.57L17.3 20.45C17.68 20.28 18 20.49 18 20.91V23.76C18 23.99 17.87 24.31 17.71 24.47L15.44 26.75C15.2 26.99 15.09 27.45 15.2 27.78L15.64 29.11C15.82 29.69 16.48 29.97 17.03 29.69Z" stroke="black" stroke-width="1.5" stroke-linecap="round" stroke-linejoin="round"/>
</svg>
