<svg width="164" height="100" viewBox="0 0 164 100" fill="none" xmlns="http://www.w3.org/2000/svg">
<ellipse cx="81.6879" cy="71.0857" rx="81.6879" ry="28.0349" fill="url(#paint0_linear_17268_54879)"/>
<path d="M51.2441 0C49.0388 0 47.0723 1.47177 46.4492 3.58789C46.4492 3.58854 46.4492 3.58919 46.4492 3.58984L44.8574 9H38.1113C37.8929 9.00016 37.6805 9.07185 37.5066 9.20411C37.3327 9.33637 37.2069 9.52193 37.1484 9.73242L36.2402 13H27.5C25.5788 13 24 14.5788 24 16.5C24 17.9123 24.857 19.1325 26.0723 19.6836L33.0059 79.1152C33.0137 79.181 33.0281 79.2457 33.0488 79.3086C33.0488 79.3092 33.0488 79.3099 33.0488 79.3105C33.059 79.3417 33.0708 79.3723 33.084 79.4023C33.084 79.403 33.084 79.4036 33.084 79.4043C33.1108 79.4647 33.1435 79.5222 33.1816 79.5762C33.1823 79.5768 33.1829 79.5775 33.1836 79.5781C33.2025 79.6045 33.2227 79.6299 33.2441 79.6543C33.2441 79.6549 33.2441 79.6556 33.2441 79.6562C33.2652 79.6801 33.2873 79.7029 33.3105 79.7246C33.3112 79.7253 33.3118 79.7259 33.3125 79.7266C33.3132 79.7272 33.3138 79.7279 33.3145 79.7285C33.3382 79.7505 33.3629 79.7714 33.3887 79.791C33.3893 79.7917 33.39 79.7923 33.3906 79.793C33.3984 79.7983 33.4062 79.8035 33.4141 79.8086C33.4325 79.8229 33.4514 79.8366 33.4707 79.8496C33.4714 79.8496 33.472 79.8496 33.4727 79.8496C33.5005 79.8666 33.5292 79.8823 33.5586 79.8965C33.5592 79.8971 33.5599 79.8978 33.5605 79.8984C33.5773 79.9061 33.5942 79.9132 33.6113 79.9199C33.6242 79.9261 33.6372 79.9319 33.6504 79.9375C33.651 79.9375 33.6517 79.9375 33.6523 79.9375C33.7636 79.9788 33.8813 80 34 80H60C60.1505 80.0001 60.2991 79.9663 60.4347 79.9011C60.5703 79.8358 60.6894 79.7408 60.7832 79.623C60.7832 79.6224 60.7832 79.6217 60.7832 79.6211C60.804 79.5954 60.8236 79.5687 60.8418 79.541C60.8776 79.4849 60.9077 79.4254 60.9316 79.3633C60.9632 79.283 60.9842 79.199 60.9941 79.1133L67.9277 19.6836C69.143 19.1325 70 17.9123 70 16.5C70 14.5788 68.4212 13 66.5 13H57.7598L56.8516 9.73242C56.7931 9.52193 56.6673 9.33637 56.4934 9.20411C56.3195 9.07185 56.1071 9.00016 55.8887 9H49.0254L50.2852 4.7168C50.4091 4.29649 50.806 4 51.2441 4H65.5C65.6326 3.99999 65.7598 3.9473 65.8535 3.85354C65.9473 3.75977 66 3.6326 66 3.5V0.5C66 0.367396 65.9473 0.240227 65.8535 0.146461C65.7598 0.0526962 65.6326 1.32584e-05 65.5 0H51.2441ZM52 1H54V3H52V1ZM55 1H65V3H55V1ZM51 1.08203V3.08203C50.6588 3.12826 50.3174 3.19795 50.0488 3.39844H50.0469L48.5664 2.21289C49.2355 1.56915 50.0472 1.14731 51 1.08203ZM47.9922 3.03516L49.4746 4.2207C49.438 4.30203 49.3519 4.34638 49.3262 4.43359C49.3262 4.43424 49.3262 4.4349 49.3262 4.43555L49.1602 5H47.0762L47.4082 3.87109C47.5086 3.53004 47.8107 3.32941 47.9922 3.03516ZM46.7812 6H48.8652L47.9824 9H45.8984L46.7812 6ZM38.8711 11H55.1289L55.6855 13H38.3145L38.8711 11ZM27.5 15H36.959H57H66.5C67.3408 15 68 15.6592 68 16.5C68 17.3408 67.3408 18 66.5 18H27.5C26.6592 18 26 17.3408 26 16.5C26 15.6592 26.6592 15 27.5 15ZM28.1289 20H65.8711L62.707 46.0996C62.707 46.1022 62.707 46.1048 62.707 46.1074L61.5762 56.1582L59.1074 78H34.8926L34.5527 75H48.5C48.5663 75.0009 48.632 74.9887 48.6935 74.964C48.755 74.9393 48.811 74.9026 48.8582 74.8561C48.9053 74.8096 48.9428 74.7541 48.9684 74.693C48.9939 74.6319 49.0071 74.5663 49.0071 74.5C49.0071 74.4337 48.9939 74.3681 48.9684 74.307C48.9428 74.2459 48.9053 74.1904 48.8582 74.1439C48.811 74.0974 48.755 74.0607 48.6935 74.036C48.632 74.0113 48.5663 73.9991 48.5 74H34.4414L32.4238 56.1582L31.293 46.1074C31.293 46.1048 31.293 46.1022 31.293 46.0996L28.1289 20ZM50.5 74C50.4337 73.9991 50.368 74.0113 50.3065 74.036C50.245 74.0607 50.189 74.0974 50.1418 74.1439C50.0947 74.1904 50.0572 74.2459 50.0316 74.307C50.0061 74.3681 49.9929 74.4337 49.9929 74.5C49.9929 74.5663 50.0061 74.6319 50.0316 74.693C50.0572 74.7541 50.0947 74.8096 50.1418 74.8561C50.189 74.9026 50.245 74.9393 50.3065 74.964C50.368 74.9887 50.4337 75.0009 50.5 75H53.5C53.5663 75.0009 53.632 74.9887 53.6935 74.964C53.755 74.9393 53.811 74.9026 53.8582 74.8561C53.9053 74.8096 53.9428 74.7541 53.9684 74.693C53.9939 74.6319 54.0071 74.5663 54.0071 74.5C54.0071 74.4337 53.9939 74.3681 53.9684 74.307C53.9428 74.2459 53.9053 74.1904 53.8582 74.1439C53.811 74.0974 53.755 74.0607 53.6935 74.036C53.632 74.0113 53.5663 73.9991 53.5 74H50.5ZM55.5 74C55.4337 73.9991 55.368 74.0113 55.3065 74.036C55.245 74.0607 55.189 74.0974 55.1418 74.1439C55.0947 74.1904 55.0572 74.2459 55.0316 74.307C55.0061 74.3681 54.9929 74.4337 54.9929 74.5C54.9929 74.5663 55.0061 74.6319 55.0316 74.693C55.0572 74.7541 55.0947 74.8096 55.1418 74.8561C55.189 74.9026 55.245 74.9393 55.3065 74.964C55.368 74.9887 55.4337 75.0009 55.5 75H56.5C56.5663 75.0009 56.632 74.9887 56.6935 74.964C56.755 74.9393 56.811 74.9026 56.8582 74.8561C56.9053 74.8096 56.9428 74.7541 56.9684 74.693C56.9939 74.6319 57.0071 74.5663 57.0071 74.5C57.0071 74.4337 56.9939 74.3681 56.9684 74.307C56.9428 74.2459 56.9053 74.1904 56.8582 74.1439C56.811 74.0974 56.755 74.0607 56.6935 74.036C56.632 74.0113 56.5663 73.9991 56.5 74H55.5Z" fill="url(#paint1_linear_17268_54879)"/>
<path d="M138.61 68.7793H131.286C131.329 68.579 131.356 68.3754 131.365 68.1706L131.419 66.9716L132.082 65.9669C132.495 65.3412 132.715 64.6077 132.715 63.8578C132.715 63.1078 132.495 62.3744 132.082 61.7486L131.419 60.744L131.365 59.5443C131.332 58.7945 131.079 58.0709 130.638 57.4638C130.197 56.8568 129.586 56.393 128.883 56.1303L127.761 55.7095L127.015 54.7728C126.601 54.2521 126.058 53.8486 125.44 53.6022C124.822 53.3558 124.15 53.2751 123.491 53.3681C123.606 52.8652 123.619 52.3441 123.528 51.8362C123.436 51.3284 123.243 50.8443 122.959 50.4133L122.296 49.4086L122.243 48.2096C122.21 47.4597 121.957 46.7361 121.515 46.129C121.074 45.5219 120.464 45.0582 119.761 44.7956L118.638 44.3742L117.896 43.4458C117.429 42.8573 116.798 42.4195 116.084 42.1872C115.369 41.9549 114.602 41.9384 113.878 42.1397L112.72 42.4624L111.567 42.1421C110.843 41.9408 110.076 41.9573 109.361 42.1896C108.646 42.4219 108.016 42.8596 107.548 43.4481L106.803 44.3842L105.68 44.8056C105.07 45.0337 104.528 45.4141 104.106 45.9105C103.684 46.407 103.396 47.0031 103.269 47.6422C103.082 47.6688 102.894 47.6937 102.709 47.7374L100.715 48.2102L100.441 48.1452C100.396 47.4089 100.138 46.7015 99.6991 46.1086C99.2602 45.5157 98.659 45.0625 97.9682 44.8038L96.8453 44.3825L96.1007 43.4464C95.6334 42.8578 95.003 42.42 94.2882 42.1878C93.5735 41.9556 92.8061 41.9393 92.0821 42.1409L90.9238 42.4624L89.7697 42.1421C89.0456 41.9409 88.2783 41.9574 87.5636 42.1897C86.8489 42.422 86.2185 42.8597 85.7511 43.4481L85.0059 44.3842L83.8831 44.8056C83.1799 45.0682 82.5696 45.532 82.1283 46.1391C81.6869 46.7462 81.434 47.4698 81.401 48.2196L81.3472 49.4187L80.6848 50.4233C80.4013 50.8538 80.208 51.3372 80.1166 51.8445C80.0251 52.3518 80.0375 52.8723 80.1529 53.3746C79.4939 53.2815 78.8221 53.3621 78.2039 53.6085C77.5857 53.8549 77.0426 54.2585 76.6284 54.7793L75.8832 55.716L74.7603 56.1368C74.0572 56.3994 73.4469 56.8632 73.0055 57.4703C72.5641 58.0774 72.3112 58.8009 72.2783 59.5508L72.2245 60.7505L71.562 61.7551C71.1486 62.3809 70.9282 63.1143 70.9282 63.8643C70.9282 64.6142 71.1486 65.3477 71.562 65.9734L72.2245 66.9781L72.2783 68.1771C72.2877 68.3819 72.3142 68.5855 72.3574 68.7858H65.0342C64.761 68.7858 64.499 68.8939 64.3052 69.0864C64.1114 69.279 64.0017 69.5404 64 69.8135C64.003 72.3987 65.0313 74.8772 66.8593 76.7052C68.6873 78.5332 71.1657 79.5615 73.7509 79.5645H129.893C132.478 79.5615 134.956 78.5332 136.784 76.7052C138.612 74.8772 139.641 72.3987 139.644 69.8135C139.644 69.5392 139.535 69.2762 139.341 69.0822C139.147 68.8883 138.884 68.7793 138.61 68.7793ZM125.396 56.0635L126.319 57.2242C126.436 57.3707 126.59 57.4829 126.766 57.5486L128.158 58.0704C128.481 58.1911 128.762 58.4043 128.965 58.6834C129.168 58.9625 129.284 59.2952 129.299 59.64L129.366 61.1246C129.374 61.3112 129.433 61.4921 129.536 61.6481L130.355 62.8892C130.545 63.1769 130.646 63.5141 130.646 63.859C130.646 64.2038 130.545 64.541 130.355 64.8287L129.535 66.0698C129.433 66.2259 129.374 66.4067 129.365 66.5934L129.299 68.0779C129.288 68.3223 129.225 68.5615 129.113 68.7793H114.562C114.821 68.2572 114.973 67.6879 115.006 67.1057L115.094 65.4374L116.178 64.0274C116.779 63.2582 117.106 62.3097 117.106 61.3332C117.106 60.3566 116.779 59.4082 116.178 58.6389L115.692 58.0084L116.917 57.5492C117.093 57.4838 117.247 57.3716 117.364 57.2248L118.287 56.0647C118.502 55.7941 118.792 55.5928 119.12 55.4859C119.449 55.379 119.802 55.3713 120.135 55.4637L121.565 55.8608C121.746 55.911 121.937 55.911 122.117 55.8608L123.548 55.4637C123.881 55.3708 124.233 55.3782 124.562 55.4849C124.891 55.5915 125.181 55.7928 125.396 56.0635ZM106.404 46.7398L107.795 46.2186C107.971 46.153 108.125 46.0409 108.242 45.8942L109.166 44.7335C109.38 44.4626 109.67 44.2611 109.999 44.1542C110.328 44.0474 110.681 44.0401 111.014 44.1331L112.444 44.5296C112.625 44.5799 112.816 44.5799 112.996 44.5296L114.427 44.1331C114.76 44.04 115.113 44.0474 115.442 44.1542C115.77 44.261 116.06 44.4625 116.275 44.7335L117.198 45.8942C117.315 46.0407 117.469 46.1529 117.645 46.2186L119.037 46.7398C119.36 46.8609 119.641 47.0747 119.844 47.3545C120.048 47.6342 120.164 47.9676 120.178 48.313L120.245 49.7969C120.253 49.9836 120.312 50.1644 120.415 50.3205L121.234 51.5615C121.424 51.8491 121.525 52.1863 121.525 52.531C121.525 52.8758 121.424 53.2129 121.234 53.5005L121.165 53.6051L120.687 53.4727C119.963 53.2716 119.196 53.2881 118.481 53.5203C117.767 53.7524 117.136 54.1899 116.669 54.7782L115.924 55.7148L115.033 56.0487L115.007 55.563C114.923 54.5743 114.537 53.6353 113.904 52.8718C113.27 52.1083 112.418 51.5569 111.462 51.2915L109.546 50.6757L108.287 49.3176C107.509 48.5033 106.5 47.9466 105.396 47.722C105.487 47.4977 105.624 47.2947 105.797 47.1257C105.971 46.9567 106.177 46.8253 106.404 46.7398ZM100.952 50.2791L103.186 49.7473C103.817 49.5894 104.478 49.5961 105.105 49.7668C105.733 49.9376 106.306 50.2666 106.77 50.7224L108.212 52.2784C108.332 52.4089 108.484 52.5058 108.653 52.5597L110.828 53.2588C111.383 53.399 111.882 53.7047 112.259 54.1352C112.637 54.5657 112.874 55.1007 112.941 55.6693L113.045 57.6591C113.056 57.8685 113.13 58.0696 113.258 58.2359L114.537 59.8995C114.867 60.3045 115.047 60.8108 115.047 61.3332C115.047 61.8555 114.867 62.3618 114.537 62.7668L113.257 64.431C113.129 64.5973 113.055 64.7984 113.044 65.0078L112.94 66.9976C112.913 67.345 112.814 67.6829 112.648 67.9898C112.483 68.2966 112.256 68.5658 111.981 68.7799H91.2471C91.2903 68.5796 91.3168 68.376 91.3263 68.1712L91.3807 66.9722L92.0431 65.9675C92.4567 65.3418 92.6771 64.6084 92.6771 63.8584C92.6771 63.1084 92.4567 62.3749 92.0431 61.7492L91.3813 60.7446L91.3275 59.5449C91.2944 58.7951 91.0415 58.0715 90.6001 57.4644C90.1588 56.8573 89.5485 56.3936 88.8454 56.1309L88.4684 55.9896L88.4855 55.6658C88.5519 55.0972 88.7895 54.5622 89.167 54.1318C89.5444 53.7014 90.0438 53.3959 90.5988 53.2558L92.7724 52.5567C92.9417 52.5026 93.0942 52.4057 93.215 52.2754L94.6564 50.7194C95.1204 50.2635 95.6938 49.9345 96.3215 49.7637C96.9492 49.593 97.6102 49.5863 98.2412 49.7443L100.474 50.2762C100.631 50.3146 100.795 50.3156 100.952 50.2791ZM82.4092 51.5592L83.2289 50.3181C83.3316 50.162 83.3904 49.9812 83.3991 49.7945L83.4653 48.3106C83.4806 47.9658 83.597 47.633 83.8 47.3538C84.003 47.0747 84.2837 46.8613 84.607 46.7404L85.9987 46.2192C86.1743 46.1535 86.3287 46.0413 86.4455 45.8948L87.3686 44.7341C87.5834 44.4632 87.8734 44.2617 88.2022 44.1549C88.5311 44.0481 88.8841 44.0407 89.2171 44.1337L90.6473 44.5302C90.828 44.5804 91.0191 44.5804 91.1998 44.5302L92.63 44.1337C92.9629 44.0407 93.3159 44.048 93.6446 44.1548C93.9734 44.2617 94.2632 44.4632 94.4779 44.7341L95.4016 45.8948C95.5183 46.0415 95.6728 46.1536 95.8484 46.2192L97.2401 46.7404C97.6725 46.9033 98.0234 47.2298 98.217 47.6493C97.299 47.4989 96.3583 47.5718 95.4745 47.8619C94.5906 48.152 93.7897 48.6507 93.1394 49.3159L91.8818 50.6751L89.9653 51.2909C89.2052 51.5154 88.5088 51.916 87.9327 52.4603C87.3565 53.0045 86.9168 53.6769 86.6494 54.423C86.1711 53.9548 85.5783 53.6204 84.9301 53.4535C84.282 53.2865 83.6014 53.2927 82.9564 53.4715L82.4789 53.6039L82.4104 53.4999C82.2199 53.2122 82.1182 52.8748 82.118 52.5297C82.1178 52.1846 82.219 51.8471 82.4092 51.5592ZM74.3419 68.0779L74.2757 66.5934C74.2669 66.4067 74.2082 66.2259 74.1055 66.0698L73.2864 64.8287C73.0964 64.541 72.995 64.2038 72.995 63.859C72.995 63.5141 73.0964 63.1769 73.2864 62.8892L74.1061 61.6481C74.2088 61.4921 74.2676 61.3112 74.2763 61.1246L74.3425 59.64C74.3578 59.2953 74.4741 58.9627 74.677 58.6836C74.8799 58.4045 75.1604 58.1913 75.4837 58.0704L76.876 57.5486C77.0515 57.4829 77.2059 57.3707 77.3228 57.2242L78.2458 56.0635C78.4611 55.7927 78.7515 55.5913 79.0806 55.4846C79.4097 55.3779 79.7629 55.3707 80.0962 55.4637L81.5263 55.8608C81.7071 55.911 81.8981 55.911 82.0788 55.8608L83.509 55.4637C83.842 55.3708 84.195 55.3782 84.5238 55.485C84.8527 55.5918 85.1427 55.7932 85.3575 56.0641L86.2794 57.2242C86.396 57.371 86.5505 57.4832 86.7262 57.5486L88.1179 58.0704C88.4413 58.1911 88.722 58.4043 88.925 58.6834C89.1281 58.9625 89.2445 59.2952 89.2597 59.64L89.3259 61.1246C89.3345 61.311 89.3933 61.4917 89.4961 61.6476L90.3151 62.8886C90.5054 63.1762 90.6068 63.5135 90.6068 63.8584C90.6068 64.2032 90.5054 64.5405 90.3151 64.8281L89.4961 66.0692C89.3929 66.225 89.3341 66.406 89.3259 66.5928L89.2591 68.0773C89.2484 68.3215 89.1853 68.5605 89.0741 68.7782H74.5298C74.4177 68.5609 74.3536 68.3221 74.3419 68.0779ZM129.893 77.4961H73.7509C71.8931 77.4938 70.0988 76.8194 68.6995 75.5974C67.3001 74.3754 66.3901 72.6883 66.1375 70.8477H137.506C137.254 72.6883 136.344 74.3754 134.944 75.5974C133.545 76.8194 131.751 77.4938 129.893 77.4961Z" fill="url(#paint2_linear_17268_54879)"/>
<path d="M99.4055 52.5144C96.7822 51.83 94.926 53.6963 94.3114 54.7766C94.175 55.0146 94.1388 55.297 94.2106 55.5617C94.2825 55.8264 94.4566 56.0518 94.6946 56.1881C94.9326 56.3245 95.215 56.3607 95.4797 56.2888C95.7444 56.217 95.9698 56.0429 96.1061 55.8049C96.2107 55.6276 97.1823 54.071 98.8837 54.5154C99.1472 54.5794 99.4254 54.5374 99.6582 54.3982C99.8911 54.2591 100.06 54.0341 100.128 53.7717C100.197 53.5092 100.16 53.2304 100.025 52.9952C99.8894 52.76 99.6673 52.5873 99.4061 52.5144H99.4055Z" fill="#979DBA"/>
<path d="M107.584 60.2419C107.797 60.2348 108.009 60.2701 108.208 60.3455C108.407 60.421 108.589 60.5352 108.744 60.6816C108.899 60.8279 109.023 61.0035 109.109 61.1982C109.196 61.3929 109.243 61.6028 109.247 61.8157C109.259 62.0817 109.372 62.333 109.565 62.5172C109.757 62.7014 110.013 62.8043 110.279 62.8044H110.326C110.462 62.7984 110.595 62.7658 110.718 62.7084C110.841 62.6509 110.951 62.5697 111.043 62.4695C111.135 62.3693 111.206 62.2519 111.252 62.1242C111.298 61.9965 111.319 61.861 111.313 61.7253C111.284 60.7731 110.886 59.8695 110.201 59.2067C109.517 58.5439 108.601 58.1741 107.649 58.1759C107.375 58.1674 107.108 58.2681 106.908 58.4561C106.708 58.644 106.591 58.9036 106.582 59.1779C106.574 59.4522 106.675 59.7186 106.863 59.9186C107.05 60.1186 107.31 60.2358 107.584 60.2443L107.584 60.2419Z" fill="#979DBA"/>
<path d="M78.2009 61.2046C77.9663 61.0633 77.6852 61.0209 77.4193 61.0866C77.1534 61.1523 76.9244 61.3208 76.7826 61.5551C76.6053 61.847 75.7437 63.3717 76.0918 64.728C76.1642 65.0197 76.2954 65.2936 76.4772 65.5329C76.6591 65.7722 76.8879 65.9718 77.1496 66.1197C77.2674 66.1923 77.3985 66.2405 77.5352 66.2614C77.6719 66.2824 77.8114 66.2758 77.9455 66.2419C78.0796 66.208 78.2055 66.1476 78.3159 66.0642C78.4262 65.9807 78.5187 65.876 78.5878 65.7562C78.6569 65.6365 78.7014 65.504 78.7184 65.3668C78.7355 65.2295 78.7248 65.0902 78.6871 64.9572C78.6494 64.8241 78.5853 64.6999 78.4988 64.5921C78.4122 64.4842 78.3049 64.3948 78.1832 64.3291C78.1598 64.319 78.1392 64.3032 78.1234 64.2832C78.1076 64.2632 78.0971 64.2396 78.0928 64.2144C78.0859 63.6491 78.2453 63.0942 78.5514 62.6188C78.6914 62.3845 78.7331 62.1044 78.6675 61.8395C78.6018 61.5746 78.4341 61.3464 78.2009 61.2046Z" fill="#979DBA"/>
<path d="M123.442 60.7912C124.065 60.8236 124.66 61.0606 125.135 61.4655C125.281 61.6308 125.392 61.8244 125.461 62.0343C125.53 62.2442 125.555 62.4659 125.534 62.6858C125.528 62.9595 125.629 63.2247 125.818 63.4234C126.006 63.6221 126.265 63.7381 126.539 63.746H126.566C126.836 63.7458 127.095 63.6403 127.288 63.4519C127.481 63.2636 127.593 63.0074 127.599 62.7378C127.627 62.2458 127.555 61.7533 127.389 61.2895C127.222 60.8258 126.964 60.4003 126.63 60.0383C125.778 59.231 124.66 58.7631 123.487 58.7228C123.212 58.7164 122.947 58.8193 122.748 59.0088C122.55 59.1982 122.435 59.4588 122.429 59.733C122.422 60.0073 122.525 60.2729 122.715 60.4713C122.904 60.6698 123.165 60.7848 123.439 60.7912H123.442Z" fill="#979DBA"/>
<defs>
<linearGradient id="paint0_linear_17268_54879" x1="82.0678" y1="47.709" x2="81.4996" y2="109.177" gradientUnits="userSpaceOnUse">
<stop stop-color="white" stop-opacity="0"/>
<stop offset="1" stop-color="#D8DBE5"/>
</linearGradient>
<linearGradient id="paint1_linear_17268_54879" x1="24" y1="40" x2="70" y2="40" gradientUnits="userSpaceOnUse">
<stop stop-color="#545B7E"/>
<stop offset="1" stop-color="#979DBA"/>
</linearGradient>
<linearGradient id="paint2_linear_17268_54879" x1="64" y1="60.7822" x2="139.644" y2="60.7822" gradientUnits="userSpaceOnUse">
<stop stop-color="#545B7E"/>
<stop offset="1" stop-color="#979DBA"/>
</linearGradient>
</defs>
</svg>
