<svg width="164" height="127" viewBox="0 0 164 127" fill="none" xmlns="http://www.w3.org/2000/svg">
<ellipse cx="81.6879" cy="98.2614" rx="81.6879" ry="28.0349" fill="url(#paint0_linear_17268_56117)"/>
<path d="M87.2813 27.5087C84.1597 21.7518 78.0446 17.8371 71.034 17.8371C66.3005 17.8371 61.9765 19.6281 58.7014 22.5705C50.9488 24.4895 45.1919 31.4745 45.1919 39.8156C45.1919 49.6152 53.1492 57.5725 62.9487 57.5725C64.5863 57.5725 66.1726 57.3422 67.6822 56.9328C70.7525 59.4659 74.6928 60.9755 78.9913 60.9755C88.7908 60.9755 96.7482 53.0181 96.7482 43.2186C96.7482 36.4127 92.9102 30.5023 87.2813 27.5087Z" fill="white" stroke="#545B7E" stroke-width="2.23675" stroke-miterlimit="10" stroke-linecap="round" stroke-linejoin="round"/>
<path d="M80.5522 25.4882L88.4328 2L102.812 5.78676" stroke="#0D1332" stroke-width="2.23675" stroke-miterlimit="10" stroke-linecap="round" stroke-linejoin="round"/>
<path d="M97.5921 39.1753H43.0679L48.4154 109.998H92.2702L97.5921 39.1753Z" fill="url(#paint1_linear_17268_56117)"/>
<path opacity="0.2" d="M94.5993 41.9911L89.6611 107.21" stroke="white" stroke-width="5.59185" stroke-miterlimit="10" stroke-linecap="round" stroke-linejoin="round"/>
<path d="M97.5921 39.1753H43.0679L48.4154 109.998H92.2702L94.9312 74.5866L97.5921 39.1753Z" stroke="url(#paint2_linear_17268_56117)" stroke-width="2.23675" stroke-miterlimit="10" stroke-linecap="round" stroke-linejoin="round"/>
<rect x="92.6592" y="86.9097" width="3" height="17" transform="rotate(4.41611 92.6592 86.9097)" fill="url(#paint3_linear_17268_56117)"/>
<path opacity="0.2" d="M98.7696 34.1101C95.776 20.7285 84.9019 10.6987 70.5991 10.6987C56.2964 10.6987 45.4223 20.7029 42.4287 34.1101H98.7696Z" fill="#979DBA"/>
<path opacity="0.6" d="M92.2441 26.9744C92.9094 28.1769 93.4979 29.4306 94.0096 30.7355" stroke="white" stroke-width="1.67756" stroke-miterlimit="10" stroke-linecap="round" stroke-linejoin="round"/>
<path opacity="0.6" d="M85.7461 19.3471C87.3324 20.6009 88.7653 22.0337 90.019 23.6712" stroke="white" stroke-width="1.67756" stroke-miterlimit="10" stroke-linecap="round" stroke-linejoin="round"/>
<path opacity="0.2" d="M81.499 16.0223C87.5885 18.9903 92.3732 24.3635 94.8039 31.2973" stroke="white" stroke-width="5.59185" stroke-miterlimit="10" stroke-linecap="round" stroke-linejoin="round"/>
<path d="M98.5134 34.1113C97.0038 27.3309 93.4473 21.3949 88.458 17.2244" stroke="url(#paint4_linear_17268_56117)" stroke-width="2.23675" stroke-miterlimit="10" stroke-linecap="round" stroke-linejoin="round"/>
<path d="M80.5527 12.5409C77.4312 11.3383 74.0026 10.6987 70.3438 10.6987C56.0411 10.6987 45.1669 20.7029 42.1733 34.1101" stroke="url(#paint5_linear_17268_56117)" stroke-width="2.23675" stroke-miterlimit="10" stroke-linecap="round" stroke-linejoin="round"/>
<path d="M99.1532 34.1128H41.533C40.1258 34.1128 39 35.2386 39 36.6458C39 38.053 40.1258 39.1788 41.533 39.1788H99.1532C100.56 39.1788 101.686 38.053 101.686 36.6458C101.686 35.2386 100.535 34.1128 99.1532 34.1128Z" fill="url(#paint6_linear_17268_56117)"/>
<path d="M62.6161 34.1128H41.533C40.1258 34.1128 39 35.2386 39 36.6458C39 38.053 40.1258 39.1788 41.533 39.1788H99.1532C100.56 39.1788 101.686 38.053 101.686 36.6458C101.686 35.2386 100.56 34.1128 99.1532 34.1128H79.8356" stroke="url(#paint7_linear_17268_56117)" stroke-width="2.23675" stroke-miterlimit="10" stroke-linecap="round" stroke-linejoin="round"/>
<path d="M68.629 34.1128H66.8892" stroke="#545B7E" stroke-width="2.23675" stroke-miterlimit="10" stroke-linecap="round" stroke-linejoin="round"/>
<path d="M92.1774 98.0001L95.5717 52.5715H45.4287L48.823 98.0001H92.1774Z" fill="url(#paint8_linear_17268_56117)"/>
<path d="M73.9251 52.2267H72.5435" stroke="#545B7E" stroke-width="2.23675" stroke-miterlimit="10" stroke-linecap="round" stroke-linejoin="round"/>
<path d="M47.4946 97.7715L48.4157 110.002H92.2705L93.1916 97.7715H47.4946Z" fill="url(#paint9_linear_17268_56117)" stroke="url(#paint10_linear_17268_56117)" stroke-width="2.23675" stroke-miterlimit="10" stroke-linecap="round" stroke-linejoin="round"/>
<path opacity="0.6" d="M70.9829 85.5408C76.8049 85.5408 81.5245 80.8212 81.5245 74.9992C81.5245 69.1773 76.8049 64.4577 70.9829 64.4577C65.161 64.4577 60.4414 69.1773 60.4414 74.9992C60.4414 80.8212 65.161 85.5408 70.9829 85.5408Z" fill="url(#paint11_linear_17268_56117)"/>
<path d="M78.4996 90H131.5C131.5 86.5 128.5 83 124 79.5C120.092 76.4611 113 73.5 105 73.5C96.9996 73.5 91.4996 75.5 85.4996 79.5C80.8759 82.5825 78 87 78.4996 90Z" fill="url(#paint12_linear_17268_56117)"/>
<path d="M97.9998 93H80.9998C80.4998 93 79.3998 93.5 78.9998 95.5C78.5998 97.5 80.1664 98.6667 80.9998 99H126C130 99 130 98.5 131 96.5C132 94.5 129.5 93 128 93H113L105.5 96.5L97.9998 93Z" fill="url(#paint13_linear_17268_56117)"/>
<path d="M81 102.499H78.5C78.6667 103.832 79.1 106.8 79.5 108C79.9 109.2 82.3333 110.167 83.5 110.5H96C105.833 110.833 126.1 111.2 128.5 110C130.9 108.8 131.167 104.499 131 102.499C130.833 102.332 129.8 102.299 127 103.499C123.5 104.999 121.5 104.499 119 103.499C116.5 102.499 114 102.499 113 102.499C112 102.499 108 104.499 105 104.499C102 104.499 98 102.499 96 102.499C94 102.499 91 103.999 88 104.499C85.6 104.899 82.3333 103.332 81 102.499Z" fill="url(#paint14_linear_17268_56117)"/>
<path d="M132 90.6876H78C78.0172 89.5012 77.9255 87.438 79.4787 85.1684C87.3821 73.6313 105.567 68.9374 121.472 77.1159L116.955 85.4435L115.442 84.6239L119.116 77.8495C117.219 76.944 115.196 76.2391 113.104 75.7232L108.324 83.7585L106.845 82.8816L111.333 75.3393C108.657 74.8292 106.404 74.6973 104.106 74.7489L98.8446 83.7585L97.3602 82.8931L102.048 74.8521C98.9191 75.1043 95.9331 75.7691 93.1879 76.8065L88.5054 85.4435L86.9924 84.6239L90.6374 77.9011C86.402 79.9816 80.4014 84.7328 79.7939 88.9682H130.235C129.799 85.5638 125.478 81.7411 122.664 79.867L123.615 78.4341C126.441 80.3197 128.779 82.5836 130.561 85.1684C132.132 87.4437 132 89.5413 131.994 90.6876H132ZM95.8586 80.4343C96.9418 80.4343 96.9361 78.9213 95.8586 78.9213C94.7812 78.9213 94.7812 80.4343 95.8586 80.4343ZM105.825 78.9901C106.909 78.9901 106.903 77.477 105.825 77.477C104.748 77.477 104.742 78.9901 105.825 78.9901ZM113.694 79.8154C113.694 80.8126 115.328 80.8183 115.328 79.8154C115.328 78.8124 113.694 78.8124 113.694 79.8154ZM131.983 101.571V105.067C131.983 108.449 129.232 111.194 125.856 111.194H84.1382C80.7625 111.2 78.0115 108.449 78.0115 105.067V101.571C80.4071 101.571 81.37 101.634 83.5994 102.712C91.0272 106.305 92.7351 98.7056 101.017 102.712C108.439 106.3 110.181 98.7171 118.434 102.712C120.962 103.938 123.466 104.127 126.395 102.712C128.619 101.634 129.581 101.571 131.983 101.571ZM130.263 103.325C127.071 103.577 126.647 105.4 122.412 105.4C120.039 105.4 118.784 104.792 117.683 104.259C110.261 100.671 108.513 108.254 100.266 104.259C97.3488 102.849 94.8442 103.027 92.3052 104.259C86.0352 107.297 83.0951 103.589 79.7308 103.325V105.067C79.7308 107.497 81.7081 109.475 84.1382 109.475H125.856C128.286 109.475 130.263 107.497 130.263 105.067V103.325ZM131.983 96.3042C131.983 98.4878 130.206 100.259 128.028 100.259H81.966C79.7824 100.265 78.0115 98.4878 78.0115 96.31C78.0115 94.1321 79.7882 92.3554 81.966 92.3554H98.025L105.522 95.8343L112.743 92.3554H128.028C130.212 92.3554 131.983 94.1321 131.983 96.31V96.3042ZM130.263 96.3042C130.263 95.072 129.26 94.069 128.028 94.069H113.138L105.539 97.7313L97.6468 94.069H81.966C80.7338 94.069 79.7308 95.072 79.7308 96.3042C79.7308 97.5364 80.7338 98.5394 81.966 98.5394H128.028C129.26 98.5394 130.263 97.5364 130.263 96.3042Z" fill="url(#paint15_linear_17268_56117)"/>
<defs>
<linearGradient id="paint0_linear_17268_56117" x1="82.0678" y1="74.8848" x2="81.4996" y2="136.353" gradientUnits="userSpaceOnUse">
<stop stop-color="white" stop-opacity="0"/>
<stop offset="1" stop-color="#D8DBE5"/>
</linearGradient>
<linearGradient id="paint1_linear_17268_56117" x1="43.0679" y1="74.5866" x2="97.5921" y2="74.5866" gradientUnits="userSpaceOnUse">
<stop stop-color="#D1D4E0"/>
<stop offset="1" stop-color="#F0F1F5"/>
</linearGradient>
<linearGradient id="paint2_linear_17268_56117" x1="43.0679" y1="74.5866" x2="97.5921" y2="74.5866" gradientUnits="userSpaceOnUse">
<stop stop-color="#979DBA"/>
<stop offset="1" stop-color="#D1D4E0"/>
</linearGradient>
<linearGradient id="paint3_linear_17268_56117" x1="92.6592" y1="95.4097" x2="95.6592" y2="95.4097" gradientUnits="userSpaceOnUse">
<stop stop-color="#F0F1F5"/>
<stop offset="1" stop-color="white"/>
</linearGradient>
<linearGradient id="paint4_linear_17268_56117" x1="88.458" y1="25.6678" x2="98.5134" y2="25.6678" gradientUnits="userSpaceOnUse">
<stop stop-color="#545B7E"/>
<stop offset="1" stop-color="#979DBA"/>
</linearGradient>
<linearGradient id="paint5_linear_17268_56117" x1="42.1733" y1="22.4044" x2="80.5527" y2="22.4044" gradientUnits="userSpaceOnUse">
<stop stop-color="#545B7E"/>
<stop offset="1" stop-color="#979DBA"/>
</linearGradient>
<linearGradient id="paint6_linear_17268_56117" x1="39" y1="36.6458" x2="101.686" y2="36.6458" gradientUnits="userSpaceOnUse">
<stop stop-color="#D1D4E0"/>
<stop offset="1" stop-color="#F0F1F5"/>
</linearGradient>
<linearGradient id="paint7_linear_17268_56117" x1="39" y1="36.6458" x2="101.686" y2="36.6458" gradientUnits="userSpaceOnUse">
<stop stop-color="#545B7E"/>
<stop offset="1" stop-color="#979DBA"/>
</linearGradient>
<linearGradient id="paint8_linear_17268_56117" x1="45.4287" y1="75.2858" x2="95.5717" y2="75.2858" gradientUnits="userSpaceOnUse">
<stop stop-color="#F0F1F5"/>
<stop offset="1" stop-color="white"/>
</linearGradient>
<linearGradient id="paint9_linear_17268_56117" x1="47.4946" y1="103.887" x2="93.1916" y2="103.887" gradientUnits="userSpaceOnUse">
<stop stop-color="#D1D4E0"/>
<stop offset="1" stop-color="#F0F1F5"/>
</linearGradient>
<linearGradient id="paint10_linear_17268_56117" x1="47.4946" y1="103.887" x2="93.1916" y2="103.887" gradientUnits="userSpaceOnUse">
<stop stop-color="#979DBA"/>
<stop offset="1" stop-color="#D1D4E0"/>
</linearGradient>
<linearGradient id="paint11_linear_17268_56117" x1="60.4414" y1="74.9992" x2="81.5245" y2="74.9992" gradientUnits="userSpaceOnUse">
<stop stop-color="#D1D4E0"/>
<stop offset="1" stop-color="#F0F1F5"/>
</linearGradient>
<linearGradient id="paint12_linear_17268_56117" x1="78.4434" y1="81.75" x2="131.5" y2="81.75" gradientUnits="userSpaceOnUse">
<stop stop-color="#D1D4E0"/>
<stop offset="1" stop-color="#F0F1F5"/>
</linearGradient>
<linearGradient id="paint13_linear_17268_56117" x1="78.9355" y1="96" x2="131.229" y2="96" gradientUnits="userSpaceOnUse">
<stop stop-color="#D1D4E0"/>
<stop offset="1" stop-color="#F0F1F5"/>
</linearGradient>
<linearGradient id="paint14_linear_17268_56117" x1="78.5" y1="106.62" x2="131.04" y2="106.62" gradientUnits="userSpaceOnUse">
<stop stop-color="#D1D4E0"/>
<stop offset="1" stop-color="#F0F1F5"/>
</linearGradient>
<linearGradient id="paint15_linear_17268_56117" x1="78" y1="92.097" x2="132" y2="92.097" gradientUnits="userSpaceOnUse">
<stop stop-color="#979DBA"/>
<stop offset="1" stop-color="#D1D4E0"/>
</linearGradient>
</defs>
</svg>
