<svg
    viewBox="0 0 59 18"
    fill="none"
    xmlns="http://www.w3.org/2000/svg"
  >
  <path
    d="M23.413.299l-2.972 17.439h4.753L28.168.298h-4.755zM16.456.32L11.8 12.211l-.496-1.796c-.918-2.163-3.525-5.27-6.584-7.23L8.977 17.73l5.03-.009L21.49.315 16.456.32z"
    fill="currentColor"
  />
  <path
    d="M9.5 1.567C9.225.505 8.425.188 7.43.15H.06L0 .498C5.734 1.888 9.529 5.24 11.103 9.27L9.501 1.567zM37.8 3.643a8.774 8.774 0 013.557.667l.429.202.643-3.78C41.488.38 40.012 0 38.17 0c-4.696 0-8.007 2.365-8.032 5.755-.03 2.505 2.358 3.903 4.162 4.738 1.852.856 2.473 1.4 2.464 2.164-.014 1.167-1.476 1.703-2.842 1.703-1.903 0-2.914-.263-4.475-.913l-.612-.28-.669 3.904c1.112.488 3.165.907 5.295.929 4.996 0 8.243-2.337 8.277-5.96.021-1.98-1.246-3.493-3.993-4.734-1.663-.809-2.68-1.347-2.67-2.163 0-.725.863-1.5 2.724-1.5zM54.626.318h-3.672c-1.14 0-1.989.31-2.49 1.448l-7.057 15.981h4.991s.814-2.149.999-2.62l6.086.008c.142.609.58 2.612.58 2.612h4.41L54.625.319zm-5.861 11.24c.391-1 1.893-4.873 1.893-4.873-.025.047.388-1.009.634-1.665l.32 1.503 1.101 5.035h-3.948z"
    fill="currentColor"
  />
</svg>