<svg width="81" height="51" viewBox="0 0 81 51" fill="none" xmlns="http://www.w3.org/2000/svg">
<path fill-rule="evenodd" clip-rule="evenodd" d="M44.6133 16.3698C44.6129 16.3703 44.6125 16.3707 44.6121 16.3712L44.368 16.6581C44.368 16.6581 44.368 16.6581 44.368 16.6581C39.6419 22.2125 40.3558 31.0166 46.1696 35.9723C46.1699 35.9725 46.1701 35.9727 46.1703 35.9729C52.0707 40.9989 60.9524 40.2456 65.9125 34.2637L69.2845 37.0563L65.9129 34.2632C70.6871 28.5072 70.0006 19.8737 64.3757 14.9455L67.2589 11.6589L64.3753 14.9451C58.5276 9.82024 49.6399 10.4775 44.6133 16.3698ZM38.0758 10.5577C46.2872 1.08606 60.6712 0.0703573 70.1431 8.37102C70.1432 8.37115 70.1434 8.37129 70.1435 8.37142C79.3315 16.4219 80.4447 30.4429 72.6488 39.8425C72.6487 39.8427 72.6486 39.8428 72.6485 39.843C64.5675 49.588 50.0992 50.8088 40.4942 42.6262L40.4935 42.6256C31.1417 34.6553 29.7439 20.3725 37.6852 11.0154C37.7375 10.9524 37.7901 10.8897 37.8432 10.8273L37.9224 10.7323C37.9723 10.6724 38.0235 10.6142 38.0758 10.5577Z" fill="url(#paint0_linear_1296_25255)"/>
<path fill-rule="evenodd" clip-rule="evenodd" d="M44.1107 10.2275C45.9511 11.7916 46.1743 14.5506 44.6093 16.3898L32.547 30.5653L32.5469 30.5654L20.466 44.7635L20.4659 44.7636L20.4656 44.7639C14.8716 51.3397 4.11076 47.388 4.11076 38.7542V22.5515C4.11076 20.1371 6.06922 18.1799 8.4851 18.1799C10.901 18.1799 12.8594 20.1371 12.8594 22.5515V38.7542C12.8594 38.9523 12.9101 39.0297 12.9379 39.0674C12.9829 39.1282 13.0719 39.2059 13.2091 39.2563C13.3462 39.3067 13.4645 39.3051 13.5382 39.2879C13.5839 39.2772 13.6724 39.251 13.8003 39.1006L17.1332 41.932C13.8008 39.1001 13.8008 39.1 13.8009 39.1L13.8011 39.0997L25.8822 24.9014L25.8823 24.9013L37.9446 10.7257C39.5097 8.88645 42.2703 8.66339 44.1107 10.2275Z" fill="black"/>
<path fill-rule="evenodd" clip-rule="evenodd" d="M72.9423 39.482L65.8464 34.3436C60.8737 40.2529 52.0446 40.9773 46.1703 35.9736L46.1696 35.973C40.3558 31.0174 39.6419 22.2132 44.368 16.6588C44.38 16.6447 44.3919 16.6305 44.4038 16.6162C44.4432 16.5686 44.4831 16.5211 44.5235 16.4737C46.0882 14.6342 45.8645 11.8753 44.0239 10.3115C42.1832 8.74769 39.4226 8.97123 37.8578 10.8108C37.7998 10.8789 37.7423 10.9474 37.6852 11.0161C29.7439 20.3732 31.1417 34.656 40.4935 42.6263L40.4942 42.6269C50.0992 50.8095 64.5678 49.5883 72.6488 39.8432C72.7481 39.7235 72.8459 39.6031 72.9423 39.482Z" fill="url(#paint1_linear_1296_25255)"/>
<path fill-rule="evenodd" clip-rule="evenodd" d="M49.8517 38.2342C47.14 41.1943 47.0204 44.3515 47.5404 46.7151C56.2497 49.8375 66.3742 47.4099 72.6484 39.8438L72.6488 39.8433C80.4448 30.4436 79.3315 16.4222 70.1431 8.37182C68.3265 6.78019 65.5627 6.96167 63.9701 8.77716C62.3775 10.5927 62.5591 13.3547 64.3757 14.9463C70.0006 19.8745 70.6871 28.508 65.9129 34.264L69.2807 37.0539L65.9125 34.2645C61.9052 39.0973 55.3382 40.5173 49.8517 38.2342Z" fill="url(#paint2_linear_1296_25255)"/>
<path d="M8.47729 14.2325C11.6427 14.2325 14.2088 11.6678 14.2088 8.50412C14.2088 5.34043 11.6427 2.77576 8.47729 2.77576C5.31186 2.77576 2.74576 5.34043 2.74576 8.50412C2.74576 11.6678 5.31186 14.2325 8.47729 14.2325Z" fill="black"/>
<defs>
<linearGradient id="paint0_linear_1296_25255" x1="60.4346" y1="5.57734" x2="68.196" y2="48.0561" gradientUnits="userSpaceOnUse">
<stop/>
<stop offset="1" stop-color="#78CFDE"/>
</linearGradient>
<linearGradient id="paint1_linear_1296_25255" x1="35.3517" y1="10.983" x2="52.8586" y2="43.9308" gradientUnits="userSpaceOnUse">
<stop stop-color="#5672C8"/>
<stop offset="0.520833" stop-color="#5AB0C4"/>
<stop offset="1" stop-color="#80C2D2"/>
<stop offset="1" stop-color="#B4DBE4" stop-opacity="0"/>
</linearGradient>
<linearGradient id="paint2_linear_1296_25255" x1="72.0763" y1="16.1314" x2="52.1719" y2="46.3364" gradientUnits="userSpaceOnUse">
<stop/>
<stop offset="0.757862" stop-color="#5AB0C4"/>
<stop offset="1" stop-color="#5AB0C4" stop-opacity="0"/>
</linearGradient>
</defs>
</svg>
