<svg width="33" height="32" viewBox="0 0 33 32" fill="none" xmlns="http://www.w3.org/2000/svg">
  <g clip-path="url(#clip0_285_14109)">
    <path d="M15.3901 3.20181H16.3136C16.0012 3.19835 15.6922 3.19835 15.3901 3.20181Z" fill="#C3007B"/>
    <path d="M16.3139 28.7852H14.8584C15.3321 28.8025 15.8162 28.8059 16.3139 28.7852Z" fill="#C3007B"/>
    <path d="M14.4635 4.26172C12.1651 4.26103 9.91812 4.94734 8.00673 6.23384C6.09534 7.52034 4.60541 9.34924 3.72538 11.4892C2.84534 13.6292 2.61473 15.9842 3.06271 18.2563C3.51069 20.5284 4.61715 22.6156 6.24213 24.2539C7.86711 25.8922 9.93763 27.0079 12.1918 27.4601C14.446 27.9123 16.7827 27.6806 18.9062 26.7942C21.0297 25.9079 22.8447 24.4068 24.1217 22.4807C25.3987 20.5546 26.0803 18.2901 26.0803 15.9736C26.0794 12.8683 24.8553 9.89038 22.6771 7.69428C20.4988 5.49818 17.5445 4.26355 14.4635 4.26172ZM11.8237 22.8969C10.4361 22.3587 9.24295 21.4094 8.40137 20.1741C7.5598 18.9388 7.10934 17.4755 7.10934 15.977C7.10934 14.4786 7.5598 13.0153 8.40137 11.78C9.24295 10.5447 10.4361 9.59538 11.8237 9.05718V22.8969ZM17.0965 22.8969V9.05718C18.4841 9.59538 19.6773 10.5447 20.5188 11.78C21.3604 13.0153 21.8109 14.4786 21.8109 15.977C21.8109 17.4755 21.3604 18.9388 20.5188 20.1741C19.6773 21.4094 18.4841 22.3587 17.0965 22.8969Z" fill="white"/>
    <path d="M30.8349 18.0142C30.8349 17.9692 30.8521 17.9208 30.8589 17.8723C30.9483 17.2698 30.9942 16.6616 30.9962 16.0524C30.997 14.5159 30.7213 12.9919 30.1827 11.5545C28.3083 6.7106 23.3169 3.33717 16.3139 3.19531H15.3904C10.7046 3.29219 7.2271 4.84916 4.94082 7.26073C2.92397 9.48784 1.75728 12.3644 1.64869 15.3777C1.6504 15.3996 1.6504 15.4216 1.64869 15.4434C1.64869 15.5334 1.64869 15.6268 1.64869 15.7168C1.64705 15.7456 1.64705 15.7745 1.64869 15.8033C1.64869 15.8932 1.64869 15.9832 1.64869 16.0732V16.1424C1.64869 16.2358 1.64869 16.3292 1.64869 16.4191C1.70899 18.3439 2.20416 20.2294 3.09647 21.9321C3.98878 23.6349 5.25473 25.11 6.79798 26.2453C8.89203 27.7158 11.604 28.6465 14.8755 28.7642H16.3345C21.5147 28.5773 25.5689 26.7332 28.092 23.8649C29.5092 22.1993 30.4575 20.1814 30.8383 18.0211L30.8349 18.0142ZM14.4636 27.6812C12.165 27.6819 9.91788 26.9955 8.00642 25.7088C6.09496 24.4222 4.60504 22.5931 3.72511 20.4529C2.84517 18.3127 2.61475 15.9575 3.06301 13.6853C3.51127 11.4131 4.61807 9.32597 6.24339 7.68783C7.86872 6.04969 9.93957 4.93417 12.194 4.48238C14.4484 4.03059 16.7851 4.26281 18.9086 5.14968C21.0321 6.03655 22.8469 7.53823 24.1234 9.46476C25.4 11.3913 26.0811 13.6561 26.0804 15.9728C26.0795 19.0778 24.8553 22.0553 22.6769 24.2509C20.4985 26.4464 17.5443 27.6803 14.4636 27.6812Z" fill="#31579E"/>
    <path d="M17.0962 9.04688V22.8866C18.4837 22.3484 19.6769 21.3991 20.5185 20.1638C21.3601 18.9285 21.8105 17.4652 21.8105 15.9667C21.8105 14.4683 21.3601 13.005 20.5185 11.7697C19.6769 10.5344 18.4837 9.58508 17.0962 9.04688Z" fill="#31579E"/>
    <path d="M7.09668 15.9726C7.10005 17.472 7.55332 18.9353 8.39697 20.1703C9.24062 21.4053 10.4352 22.3542 11.8237 22.8924V9.05273C10.4357 9.59174 9.24169 10.5409 8.39817 11.7757C7.55464 13.0105 7.10099 14.4734 7.09668 15.9726Z" fill="#31579E"/>
  </g>
</svg>
