<svg width="95" height="94" viewBox="0 0 95 94" fill="none" xmlns="http://www.w3.org/2000/svg">
<mask id="mask0_10_23040" style="mask-type:alpha" maskUnits="userSpaceOnUse" x="0" y="-1" width="94" height="94">
<rect y="-1" width="94" height="94" fill="#D9D9D9"/>
</mask>
<g mask="url(#mask0_10_23040)">
<path d="M30 7.72718C35.3557 5.33189 41.2911 4 47.5375 4C71.2857 4 90.5374 23.2517 90.5374 46.9999C90.5374 59.3465 85.3337 70.4778 77 78.3202" stroke="url(#paint0_linear_10_23040)" stroke-width="5" stroke-linecap="round"/>
<path d="M16.9996 16.7266C9.2957 24.4973 4.53711 35.1928 4.53711 46.9996C4.53711 70.7478 23.7888 89.9995 47.537 89.9995C53.7543 89.9995 59.6635 88.68 64.9996 86.3057" stroke="url(#paint1_linear_10_23040)" stroke-width="5" stroke-linecap="round"/>
<path d="M4 14L19 15V30" stroke="url(#paint2_linear_10_23040)" stroke-width="6" stroke-linecap="round" stroke-linejoin="round"/>
</g>
<path d="M91.793 78.9795L76.7615 78.7423L76 63.7616" stroke="url(#paint3_linear_10_23040)" stroke-width="6" stroke-linecap="round" stroke-linejoin="round"/>
<path d="M54.686 33.6214L55.9234 34.8588L54.686 33.6214ZM54.686 37.6129L55.9234 36.3755L55.9234 36.3755L54.686 37.6129ZM59.2304 29.0769L60.4678 30.3144C60.8903 29.8919 61.068 29.2832 60.9393 28.6998C60.8105 28.1164 60.3931 27.639 59.8321 27.4336L59.2304 29.0769ZM48.1091 40.767L49.3465 42.0045C49.8508 41.5002 49.9986 40.7402 49.7201 40.0837L48.1091 40.767ZM29.5901 59.286L28.3527 58.0486H28.3527L29.5901 59.286ZM29.5901 64.5235L28.3527 65.761L29.5901 64.5235ZM34.8276 64.5235L33.5902 63.2861L33.5902 63.2861L34.8276 64.5235ZM53.6117 45.7395L54.1276 44.0673C53.5077 43.8761 52.8329 44.0434 52.3742 44.5021L53.6117 45.7395ZM64.4673 34.3151L66.1108 33.7139C65.9055 33.1528 65.4281 32.7351 64.8447 32.6063C64.2612 32.4775 63.6524 32.6552 63.2299 33.0777L64.4673 34.3151ZM59.9235 38.8589L58.6861 37.6215L58.6861 37.6215L59.9235 38.8589ZM55.932 38.8589L54.6945 40.0963L54.6945 40.0963L55.932 38.8589ZM53.4486 32.3839C51.6629 34.1696 51.6629 37.0647 53.4486 38.8504L55.9234 36.3755C55.5046 35.9567 55.5046 35.2776 55.9234 34.8588L53.4486 32.3839ZM57.993 27.8395L53.4486 32.3839L55.9234 34.8588L60.4678 30.3144L57.993 27.8395ZM56.2073 30.2935C57.0613 30.2935 57.876 30.4447 58.6287 30.7203L59.8321 27.4336C58.6995 27.019 57.4778 26.7935 56.2073 26.7935V30.2935ZM49.1646 37.3362C49.1646 33.4466 52.3177 30.2935 56.2073 30.2935V26.7935C50.3847 26.7935 45.6646 31.5136 45.6646 37.3362H49.1646ZM49.7201 40.0837C49.363 39.2417 49.1646 38.3144 49.1646 37.3362H45.6646C45.6646 38.7925 45.9608 40.184 46.498 41.4504L49.7201 40.0837ZM30.8275 60.5234L49.3465 42.0045L46.8716 39.5296L28.3527 58.0486L30.8275 60.5234ZM30.8275 63.2861C30.0646 62.5232 30.0646 61.2863 30.8275 60.5234L28.3527 58.0486C26.2229 60.1783 26.2229 63.6313 28.3527 65.761L30.8275 63.2861ZM33.5902 63.2861C32.8273 64.049 31.5904 64.049 30.8275 63.2861L28.3527 65.761C30.4824 67.8907 33.9354 67.8907 36.0651 65.761L33.5902 63.2861ZM52.3742 44.5021L33.5902 63.2861L36.0651 65.761L54.8491 46.977L52.3742 44.5021ZM56.2073 44.3789C55.4806 44.3789 54.7828 44.2695 54.1276 44.0673L53.0957 47.4118C54.0814 47.7159 55.1269 47.8789 56.2073 47.8789V44.3789ZM63.25 37.3362C63.25 41.2258 60.0969 44.3789 56.2073 44.3789V47.8789C62.0299 47.8789 66.75 43.1588 66.75 37.3362H63.25ZM62.8238 34.9164C63.0991 35.6687 63.25 36.4828 63.25 37.3362H66.75C66.75 36.0666 66.5249 34.8458 66.1108 33.7139L62.8238 34.9164ZM61.161 40.0963L65.7047 35.5526L63.2299 33.0777L58.6861 37.6215L61.161 40.0963ZM54.6945 40.0963C56.4802 41.882 59.3753 41.882 61.161 40.0963L58.6861 37.6215C58.2673 38.0403 57.5882 38.0403 57.1694 37.6215L54.6945 40.0963ZM53.4486 38.8504L54.6945 40.0963L57.1694 37.6215L55.9234 36.3755L53.4486 38.8504Z" fill="#292929"/>
<defs>
<linearGradient id="paint0_linear_10_23040" x1="-9.99988" y1="-41" x2="83.0001" y2="75.5" gradientUnits="userSpaceOnUse">
<stop stop-color="#768DD3"/>
<stop offset="1" stop-color="#78BECE"/>
</linearGradient>
<linearGradient id="paint1_linear_10_23040" x1="44.3623" y1="3.08786" x2="84.7612" y2="63.561" gradientUnits="userSpaceOnUse">
<stop stop-color="#758CD2"/>
<stop offset="1" stop-color="#78BECE"/>
</linearGradient>
<linearGradient id="paint2_linear_10_23040" x1="-10.4999" y1="2.99982" x2="22.5014" y2="19.5486" gradientUnits="userSpaceOnUse">
<stop stop-color="#768DD3"/>
<stop offset="1" stop-color="#79BFCF"/>
</linearGradient>
<linearGradient id="paint3_linear_10_23040" x1="88.9576" y1="81.4016" x2="72.2112" y2="65.0462" gradientUnits="userSpaceOnUse">
<stop stop-color="#768DD3"/>
<stop offset="1" stop-color="#79BFCF"/>
</linearGradient>
</defs>
</svg>
