<svg width="60" height="60" viewBox="0 0 60 60" fill="none" xmlns="http://www.w3.org/2000/svg">
<mask id="mask0_6925_50035" style="mask-type:alpha" maskUnits="userSpaceOnUse" x="0" y="0" width="60" height="60">
<rect width="60" height="60" fill="#D9D9D9"/>
</mask>
<g mask="url(#mask0_6925_50035)">
<path d="M57.5916 30.0067C57.5916 45.0818 45.3708 57.3025 30.2958 57.3025C15.2207 57.3025 3 45.0818 3 30.0067C3 14.9317 15.2207 2.71094 30.2958 2.71094C45.3708 2.71094 57.5916 14.9317 57.5916 30.0067Z" stroke="url(#paint0_linear_6925_50035)" stroke-width="4"/>
<path d="M29.4459 21.0496H31.0459V23.5896L30.9259 23.8896V35.5696L31.0459 35.9296V39.2496H29.4459V35.9296L29.5659 35.6296V23.9496L29.4459 23.6096V21.0496ZM30.2459 35.1896C30.8193 35.1896 31.3059 35.1229 31.7059 34.9896C32.1059 34.8563 32.4059 34.6429 32.6059 34.3496C32.8193 34.0563 32.9259 33.6696 32.9259 33.1896C32.9259 32.7896 32.8459 32.4629 32.6859 32.2096C32.5259 31.9429 32.2993 31.7296 32.0059 31.5696C31.7259 31.3963 31.3859 31.2496 30.9859 31.1296C30.5993 30.9963 30.1793 30.8629 29.7259 30.7296C29.1793 30.5696 28.6593 30.3896 28.1659 30.1896C27.6859 29.9896 27.2526 29.7429 26.8659 29.4496C26.4926 29.1429 26.1926 28.7696 25.9659 28.3296C25.7526 27.8763 25.6459 27.3296 25.6459 26.6896C25.6459 25.8629 25.8393 25.1696 26.2259 24.6096C26.6259 24.0496 27.1859 23.6229 27.9059 23.3296C28.6393 23.0363 29.4859 22.8896 30.4459 22.8896C31.1126 22.8896 31.7259 22.9563 32.2859 23.0896C32.8459 23.2096 33.3393 23.3696 33.7659 23.5696C34.1926 23.7563 34.5126 23.9496 34.7259 24.1496V26.4496H32.5659V24.4296C32.7259 24.4296 32.8593 24.4696 32.9659 24.5496C33.0859 24.6163 33.1859 24.7096 33.2659 24.8296C33.3593 24.9363 33.4193 25.0496 33.4459 25.1696C33.4726 25.2763 33.4659 25.3763 33.4259 25.4696C33.2126 25.2296 32.9593 25.0229 32.6659 24.8496C32.3859 24.6763 32.0659 24.5429 31.7059 24.4496C31.3459 24.3429 30.9459 24.2896 30.5059 24.2896C29.8793 24.2896 29.3593 24.3629 28.9459 24.5096C28.5459 24.6429 28.2393 24.8429 28.0259 25.1096C27.8259 25.3629 27.7259 25.6896 27.7259 26.0896C27.7259 26.4496 27.8059 26.7429 27.9659 26.9696C28.1393 27.1963 28.3659 27.3896 28.6459 27.5496C28.9259 27.6963 29.2393 27.8229 29.5859 27.9296C29.9459 28.0229 30.3126 28.1163 30.6859 28.2096C31.3126 28.3829 31.8926 28.5829 32.4259 28.8096C32.9726 29.0363 33.4459 29.3096 33.8459 29.6296C34.2593 29.9496 34.5793 30.3363 34.8059 30.7896C35.0459 31.2429 35.1659 31.7829 35.1659 32.4096C35.1659 33.3429 34.9593 34.1229 34.5459 34.7496C34.1459 35.3763 33.5793 35.8429 32.8459 36.1496C32.1259 36.4563 31.2859 36.6096 30.3259 36.6096C29.5393 36.6096 28.8126 36.5363 28.1459 36.3896C27.4926 36.2296 26.9193 36.0363 26.4259 35.8096C25.9326 35.5696 25.5326 35.3296 25.2259 35.0896V32.4896H27.5459V34.7896C27.3993 34.7896 27.2526 34.7363 27.1059 34.6296C26.9593 34.5229 26.8326 34.4029 26.7259 34.2696C26.6326 34.1229 26.5659 33.9896 26.5259 33.8696C26.4993 33.7363 26.5059 33.6496 26.5459 33.6096C26.7859 33.9029 27.0859 34.1696 27.4459 34.4096C27.8059 34.6496 28.2193 34.8429 28.6859 34.9896C29.1659 35.1229 29.6859 35.1896 30.2459 35.1896Z" fill="black"/>
<path d="M55.4115 40.7978C51.2287 50.5059 41.574 57.3023 30.3319 57.3023C15.2569 57.3023 3.03613 45.0815 3.03613 30.0065C3.03613 20.0347 8.38327 11.3119 16.3667 6.54883" stroke="url(#paint1_linear_6925_50035)" stroke-width="4" stroke-linecap="round"/>
</g>
<defs>
<linearGradient id="paint0_linear_6925_50035" x1="-6" y1="4.10939e-07" x2="53.1481" y2="40.1633" gradientUnits="userSpaceOnUse">
<stop stop-color="white" stop-opacity="0.75"/>
<stop offset="1" stop-color="#78BECE"/>
</linearGradient>
<linearGradient id="paint1_linear_6925_50035" x1="29.2238" y1="2.71066" x2="54.1364" y2="41.75" gradientUnits="userSpaceOnUse">
<stop stop-color="#758CD2"/>
<stop offset="1" stop-color="#78BECE"/>
</linearGradient>
</defs>
</svg>
