<svg width="234" height="175" viewBox="0 0 234 175" fill="none" xmlns="http://www.w3.org/2000/svg">
<ellipse cx="117" cy="66.8543" rx="117" ry="46.4358" fill="url(#paint0_linear_16940_54192)"/>
<path fill-rule="evenodd" clip-rule="evenodd" d="M176.71 79.9766C176.719 79.6091 176.849 79.3658 177.24 78.7627C177.894 77.6749 178.033 77.066 178.064 75.7176C178.095 74.3709 177.984 73.7563 177.381 72.6395C177.262 72.3923 176.899 71.7701 176.908 71.4026C176.924 70.6678 177.568 69.9473 178.321 69.9647C178.949 69.9791 179.445 70.2369 179.926 71.2277C180.773 72.5945 181.238 74.1989 181.199 75.9129C181.159 77.627 180.618 79.3313 179.709 80.6577C179.189 81.381 178.679 81.7369 178.05 81.7224C177.303 81.4607 176.693 80.7114 176.71 79.9766ZM181.921 82.7912C181.929 82.4238 182.06 82.1823 182.581 81.3359C183.628 79.5219 184.047 77.6935 184.092 75.7351C184.135 73.8979 183.8 72.0521 182.838 70.1918C182.356 69.3223 182.239 68.952 182.248 68.5846C182.256 68.2172 182.778 67.3726 183.656 67.3928C184.536 67.4131 184.904 67.7892 185.623 69.2762C186.705 71.3837 187.162 73.3555 187.105 75.8044C187.046 78.3764 186.627 80.2049 185.188 82.7451C184.792 83.5926 184.272 84.3158 183.393 84.2956C182.516 84.1523 181.904 83.5261 181.921 82.7912ZM187.505 85.7376C187.519 85.1259 187.907 84.644 188.301 83.9178C189.615 81.3747 190.305 78.6959 190.367 76.0009C190.432 73.1845 189.866 70.475 188.548 67.7499C188.067 66.7591 187.953 66.2658 187.962 65.8983C187.973 65.4096 188.618 64.6893 189.497 64.7095C190.501 64.7326 190.734 65.4732 191.34 66.4669C192.539 68.9447 193.594 72.2776 193.507 76.075C193.442 78.8913 192.746 81.8163 191.163 85.0866C190.501 86.5419 189.856 87.2623 189.103 87.2449C188.1 87.2218 187.488 86.4725 187.505 85.7376ZM192.965 88.683C192.976 88.1925 193.239 87.7078 193.629 87.1047C195.592 83.7181 196.549 80.3102 196.647 76.0241C196.74 71.9824 196.06 68.7813 194.265 64.9406C194.027 64.323 193.665 63.7026 193.676 63.2121C193.693 62.4772 194.335 61.8799 195.088 61.8972C195.967 61.9175 196.332 62.4148 196.929 63.7777C198.971 67.8686 199.759 71.8075 199.66 76.0935C199.559 80.5027 198.336 84.5184 196.238 88.3908C195.841 89.2382 195.442 90.2106 194.312 90.1845C193.684 90.1701 192.945 89.5391 192.965 88.683Z" fill="#545B7E"/>
<path d="M125.144 150.286C144.97 150.286 161.042 147.438 161.042 143.924C161.042 140.411 144.97 137.562 125.144 137.562C105.319 137.562 89.2466 140.411 89.2466 143.924C89.2466 147.438 105.319 150.286 125.144 150.286Z" fill="#F0F1F5"/>
<path d="M156.171 144.051C156.129 144.051 156.086 144.039 156.048 144.013C151.808 141.139 143.785 140.55 143.704 140.545C143.583 140.536 143.491 140.43 143.5 140.308C143.508 140.187 143.616 140.1 143.735 140.103C144.069 140.126 151.957 140.706 156.295 143.646C156.396 143.715 156.423 143.852 156.355 143.953C156.312 144.017 156.242 144.051 156.171 144.051Z" fill="#D1D4E0"/>
<path d="M83.3247 125.521L113.321 35.0086C114.33 31.9634 117.614 30.3101 120.662 31.3132L163.543 45.4289C166.904 46.5354 168.729 50.1604 167.616 53.5196L138.108 142.556C137.099 145.601 133.815 147.255 130.768 146.252L86.4104 131.65C83.8639 130.812 82.4814 128.065 83.3247 125.521Z" fill="#D1D4E0"/>
<path d="M83.3353 125.498L114.287 32.292C115.298 29.2479 118.583 27.5966 121.629 28.6007L162.391 42.037C165.747 43.1435 167.571 46.762 166.464 50.1186L136.253 141.699C135.25 144.739 131.98 146.397 128.935 145.41L86.4411 131.637C83.8814 130.807 82.4873 128.051 83.3353 125.498Z" fill="#D1D4E0"/>
<path d="M120.592 31.379L162.331 45.3114C164.36 45.9887 165.457 48.181 164.784 50.2112L134.571 141.259C133.964 143.091 131.985 144.081 130.155 143.471L87.9193 129.393C86.0906 128.783 85.1024 126.807 85.7119 124.978L116.176 33.5859C116.786 31.7567 118.763 30.7685 120.592 31.379Z" fill="url(#paint1_linear_16940_54192)"/>
<rect x="108.606" y="63.3325" width="46.6847" height="29.9557" rx="3.74446" transform="rotate(17.7515 108.606 63.3325)" fill="url(#paint2_linear_16940_54192)"/>
<path opacity="0.89" fill-rule="evenodd" clip-rule="evenodd" d="M120.046 79.7264L120.313 78.8452C120.68 77.632 121.961 76.9459 123.174 77.3129L122.907 78.1941C122.54 79.4073 121.259 80.0934 120.046 79.7264ZM117.696 87.4973L119.405 81.8468C119.772 80.6336 121.053 79.9476 122.266 80.3145L120.557 85.965C120.19 87.1782 118.909 87.8642 117.696 87.4973ZM127.268 88.2934C126.339 88.0123 125.646 87.4419 125.189 86.5822C124.746 85.7155 124.667 84.8114 124.952 83.8697C125.236 82.9281 125.802 82.2244 126.648 81.7588C127.508 81.2862 128.402 81.1904 129.331 81.4714C130.261 81.7525 130.947 82.3263 131.39 83.193C131.847 84.0527 131.933 84.9534 131.648 85.8951C131.363 86.8367 130.791 87.5438 129.931 88.0164C129.085 88.4821 128.197 88.5744 127.268 88.2934ZM126.632 90.397C128.167 90.8614 129.637 90.721 131.042 89.976C132.46 89.224 133.399 88.0867 133.86 86.5641C134.32 85.0414 134.167 83.5792 133.401 82.1774C132.647 80.7686 131.503 79.8321 129.968 79.3678C128.432 78.9034 126.956 79.0472 125.538 79.7992C124.133 80.5442 123.2 81.6781 122.74 83.2007C122.279 84.7234 122.426 86.1891 123.179 87.5978C123.946 88.9996 125.096 89.9327 126.632 90.397Z" fill="#F0F1F5"/>
<rect x="27.2094" y="29.8135" width="67.4791" height="34.8279" rx="5.49248" fill="#F0F1F5"/>
<path d="M54.9199 54.0005H52.6699L46.1179 45.6665V54.0005H43.5079V41.2205H45.7579L52.3099 49.5545V41.2205H54.9199V54.0005ZM57.7638 54.0005V41.2205H65.5398V43.7045H60.3738V46.3505H64.4238V48.8345H60.3738V54.0005H57.7638ZM73.2491 54.2165C71.3291 54.2165 69.7331 53.5805 68.4611 52.3085C67.1891 51.0365 66.5531 49.4705 66.5531 47.6105C66.5531 45.7505 67.1891 44.1845 68.4611 42.9125C69.7331 41.6405 71.3291 41.0045 73.2491 41.0045C74.7011 41.0045 76.0031 41.4305 77.1551 42.2825C78.3191 43.1225 79.0811 44.2205 79.4411 45.5765H76.6151C76.3631 44.9525 75.9191 44.4545 75.2831 44.0825C74.6591 43.7105 73.9811 43.5245 73.2491 43.5245C72.0491 43.5245 71.0711 43.9145 70.3151 44.6945C69.5591 45.4745 69.1811 46.4465 69.1811 47.6105C69.1811 48.7745 69.5591 49.7465 70.3151 50.5265C71.0711 51.3065 72.0491 51.6965 73.2491 51.6965C73.9811 51.6965 74.6591 51.5105 75.2831 51.1385C75.9191 50.7665 76.3631 50.2685 76.6151 49.6445H79.4411C79.0811 51.0005 78.3191 52.1045 77.1551 52.9565C76.0031 53.7965 74.7011 54.2165 73.2491 54.2165Z" fill="#0D1332"/>
<defs>
<linearGradient id="paint0_linear_16940_54192" x1="116.456" y1="66.8182" x2="116.456" y2="129.944" gradientUnits="userSpaceOnUse">
<stop stop-color="white" stop-opacity="0"/>
<stop offset="1" stop-color="#D8DBE5"/>
</linearGradient>
<linearGradient id="paint1_linear_16940_54192" x1="149.792" y1="95.5077" x2="100.826" y2="79.2981" gradientUnits="userSpaceOnUse">
<stop stop-color="#F0F1F5"/>
<stop offset="1" stop-color="white"/>
</linearGradient>
<linearGradient id="paint2_linear_16940_54192" x1="151.697" y1="90.165" x2="124.088" y2="56.1862" gradientUnits="userSpaceOnUse">
<stop stop-color="#0D1332"/>
<stop offset="1" stop-color="#545B7E"/>
</linearGradient>
</defs>
</svg>
