<svg width="68" height="73" viewBox="0 0 68 73" fill="none" xmlns="http://www.w3.org/2000/svg">
<path d="M21.6138 73C33.5508 73 43.2277 71.2851 43.2277 69.1697C43.2277 67.0543 33.5508 65.3394 21.6138 65.3394C9.67685 65.3394 0 67.0543 0 69.1697C0 71.2851 9.67685 73 21.6138 73Z" fill="#F0F1F5"/>
<path d="M41.2953 69.2462C41.2698 69.2462 41.2439 69.2387 41.2211 69.2234C38.668 67.4929 33.8375 67.1383 33.789 67.1351C33.7158 67.1299 33.6607 67.0662 33.6657 66.9928C33.6708 66.9195 33.7355 66.8676 33.8075 66.8689C34.0084 66.8829 38.7581 67.2323 41.3699 69.0023C41.4307 69.0437 41.4467 69.1265 41.4056 69.1875C41.38 69.2255 41.338 69.2462 41.2953 69.2462Z" fill="#D1D4E0"/>
<path d="M35.0796 1.27525H9.68863C7.95227 1.27525 6.54468 2.67612 6.54468 4.40419V66.357C6.54468 68.085 7.95227 69.4859 9.68863 69.4859H35.0796C36.8159 69.4859 38.2235 68.085 38.2235 66.357V4.40419C38.2235 2.67612 36.8159 1.27525 35.0796 1.27525Z" fill="url(#paint0_linear_16940_50826)"/>
<mask id="mask0_16940_50826" style="mask-type:alpha" maskUnits="userSpaceOnUse" x="6" y="1" width="33" height="69">
<path d="M35.7249 1.00011H9.27507C7.4663 1.00011 6 2.39665 6 4.11938V65.8808C6 67.6036 7.4663 69.0001 9.27507 69.0001H35.7249C37.5337 69.0001 39 67.6036 39 65.8808V4.11938C39 2.39665 37.5337 1.00011 35.7249 1.00011Z" fill="url(#paint1_linear_16940_50826)"/>
</mask>
<g mask="url(#mask0_16940_50826)">
<rect x="8" y="24.0001" width="29" height="18" rx="2.38575" fill="url(#paint2_linear_16940_50826)"/>
<path opacity="0.89" fill-rule="evenodd" clip-rule="evenodd" d="M18.0001 30.9731V30.4082C18.0001 29.6305 18.6305 29.0001 19.4081 29.0001V29.565C19.4081 30.3426 18.7777 30.9731 18.0001 30.9731ZM18 35.9542L18 32.3323C18 31.5546 18.6304 30.9242 19.4081 30.9242L19.4081 34.5462C19.4081 35.3238 18.7777 35.9542 18 35.9542ZM23.7629 34.7216C23.1673 34.7216 22.6591 34.5097 22.2383 34.0859C21.824 33.6556 21.6168 33.1387 21.6168 32.5351C21.6168 31.9315 21.824 31.4178 22.2383 30.994C22.6591 30.5638 23.1673 30.3487 23.7629 30.3487C24.3585 30.3487 24.8635 30.5638 25.2778 30.994C25.6986 31.4178 25.9091 31.9315 25.9091 32.5351C25.9091 33.1387 25.6986 33.6556 25.2778 34.0859C24.8635 34.5097 24.3585 34.7216 23.7629 34.7216ZM23.7629 36.07C24.747 36.07 25.5854 35.7265 26.2781 35.0394C26.9773 34.3459 27.3268 33.5112 27.3268 32.5351C27.3268 31.5591 26.9773 30.7276 26.2781 30.0405C25.5854 29.347 24.747 29.0003 23.7629 29.0003C22.7789 29.0003 21.9373 29.347 21.2381 30.0405C20.5454 30.7276 20.199 31.5591 20.199 32.5351C20.199 33.5112 20.5454 34.3459 21.2381 35.0394C21.9373 35.7265 22.7789 36.07 23.7629 36.07Z" fill="#F0F1F5"/>
</g>
<path fill-rule="evenodd" clip-rule="evenodd" d="M38.8687 2.14893C38.5026 1.46439 37.9653 0.927156 37.2808 0.561059C36.5963 0.194962 35.9173 0 34.0448 0L10.4509 0.000142703C8.64408 0.00613433 7.97561 0.200682 7.30176 0.561059C6.61722 0.927156 6.07999 1.46439 5.71389 2.14893C5.34779 2.83347 5.15283 3.51247 5.15283 5.38493L5.15297 65.3391C5.15897 67.1459 5.35351 67.8143 5.71389 68.4882C6.07999 69.1727 6.61722 69.7099 7.30176 70.076C7.98631 70.4421 8.6653 70.6371 10.5378 70.6371H34.0448C35.9173 70.6371 36.5963 70.4421 37.2808 70.076C37.9653 69.7099 38.5026 69.1727 38.8687 68.4882C39.2348 67.8036 39.4297 67.1246 39.4297 65.2522V5.38493C39.4297 3.51247 39.2348 2.83347 38.8687 2.14893ZM31.1033 1.26006L34.473 1.35268C36.445 1.35268 38.0435 2.81645 38.0435 4.78839V65.8487C38.0435 67.8207 36.445 69.4192 34.473 69.4192H10.1095C8.1376 69.4192 6.53903 67.8207 6.53903 65.8487V4.78839C6.53903 2.81645 8.1376 1.21788 10.1095 1.21788L13.5972 1.21786C13.5968 1.22422 13.6195 1.22378 13.6443 1.2233C13.674 1.22272 13.7067 1.22209 13.7067 1.23295L14.4773 1.21788C14.615 1.22686 14.8146 1.22513 15.145 1.22227C15.3689 1.22033 15.6529 1.21786 16.0184 1.21786L16.187 1.21843V2.33531C16.187 3.43988 17.0824 4.33531 18.187 4.33531H26.6824C27.7869 4.33531 28.6824 3.43988 28.6824 2.33531V1.26006H30.3515H30.9865H31.1033Z" fill="#D1D4E0"/>
<rect x="19.0126" y="2.11938" width="5.65097" height="0.706371" rx="0.353186" fill="#979DBA"/>
<rect x="25.0167" y="2.11938" width="0.706371" height="0.706371" rx="0.353186" fill="#979DBA"/>
<path fill-rule="evenodd" clip-rule="evenodd" d="M53.1438 35.7824C53.1491 35.5483 53.2323 35.3933 53.4813 35.0091C53.8978 34.316 53.9863 33.928 54.0061 33.0689C54.0259 32.2109 53.9553 31.8193 53.5711 31.1077C53.4951 30.9502 53.2641 30.5537 53.2695 30.3196C53.2803 29.8514 53.6902 29.3924 54.1702 29.4035C54.5705 29.4127 54.8864 29.5769 55.1928 30.2082C55.7325 31.079 56.0287 32.1012 56.0036 33.1933C55.9784 34.2854 55.6337 35.3713 55.0544 36.2164C54.7229 36.6773 54.398 36.904 53.9977 36.8948C53.5213 36.7281 53.133 36.2507 53.1438 35.7824ZM56.4636 37.5758C56.469 37.3417 56.5522 37.1878 56.8843 36.6485C57.5516 35.4928 57.8185 34.3278 57.8472 33.08C57.8742 31.9095 57.6611 30.7334 57.0478 29.5482C56.7409 28.9942 56.6667 28.7583 56.672 28.5242C56.6774 28.29 57.0095 27.7519 57.5691 27.7648C58.1297 27.7777 58.3643 28.0174 58.8226 28.9648C59.512 30.3076 59.8028 31.5639 59.7669 33.1242C59.7291 34.7629 59.4622 35.9279 58.5454 37.5464C58.2929 38.0864 57.9614 38.5472 57.4019 38.5343C56.843 38.443 56.4529 38.044 56.4636 37.5758V37.5758ZM60.0217 39.4531C60.0306 39.0633 60.2778 38.7563 60.5285 38.2936C61.3657 36.6733 61.8056 34.9665 61.8451 33.2494C61.8864 31.4549 61.5256 29.7286 60.6861 27.9924C60.3797 27.3611 60.3073 27.0467 60.3127 26.8126C60.3199 26.5013 60.731 26.0423 61.2905 26.0552C61.9308 26.0699 62.0792 26.5418 62.4651 27.1749C63.2287 28.7536 63.9012 30.8771 63.8455 33.2966C63.8042 35.091 63.3607 36.9546 62.3524 39.0383C61.9305 39.9655 61.5194 40.4245 61.0395 40.4134C60.4004 40.3987 60.0109 39.9213 60.0217 39.4531V39.4531ZM63.5001 41.3297C63.5073 41.0171 63.6748 40.7083 63.9238 40.324C65.1739 38.1663 65.7837 35.995 65.8465 33.2642C65.9058 30.689 65.4726 28.6495 64.3285 26.2024C64.1772 25.8089 63.9462 25.4136 63.9534 25.1011C63.9641 24.6329 64.3734 24.2523 64.8534 24.2634C65.4129 24.2762 65.6456 24.5931 66.0262 25.4615C67.327 28.068 67.8291 30.5776 67.7662 33.3084C67.7015 36.1176 66.9223 38.6762 65.5855 41.1435C65.333 41.6834 65.0786 42.3029 64.3587 42.2864C63.9584 42.2771 63.4875 41.8751 63.5001 41.3297V41.3297Z" fill="#545B7E"/>
<defs>
<linearGradient id="paint0_linear_16940_50826" x1="6.54468" y1="35.3806" x2="38.2235" y2="35.3806" gradientUnits="userSpaceOnUse">
<stop stop-color="#F0F1F5"/>
<stop offset="1" stop-color="white"/>
</linearGradient>
<linearGradient id="paint1_linear_16940_50826" x1="6" y1="35.0001" x2="39" y2="35.0001" gradientUnits="userSpaceOnUse">
<stop stop-color="#F0F1F5"/>
<stop offset="1" stop-color="white"/>
</linearGradient>
<linearGradient id="paint2_linear_16940_50826" x1="34.7673" y1="40.1234" x2="18.2989" y2="19.1702" gradientUnits="userSpaceOnUse">
<stop stop-color="#0D1332"/>
<stop offset="1" stop-color="#545B7E"/>
</linearGradient>
</defs>
</svg>
