<svg width="215" height="160" viewBox="0 0 215 160" fill="none" xmlns="http://www.w3.org/2000/svg">
<ellipse cx="107.5" cy="60.5761" rx="107.5" ry="42.6654" fill="url(#paint0_linear_16940_51059)"/>
<path fill-rule="evenodd" clip-rule="evenodd" d="M162.338 73.6624C162.344 73.3945 162.44 73.217 162.725 72.7771C163.201 71.9837 163.303 71.5396 163.325 70.5561C163.348 69.5739 163.267 69.1256 162.827 68.3111C162.74 68.1308 162.476 67.6769 162.482 67.4089C162.494 66.8729 162.964 66.3475 163.513 66.3601C163.971 66.3707 164.333 66.5587 164.684 67.2813C165.302 68.2782 165.641 69.4484 165.612 70.6986C165.583 71.9487 165.188 73.1918 164.525 74.1592C164.146 74.6868 163.774 74.9463 163.316 74.9358C162.77 74.7449 162.326 74.1984 162.338 73.6624ZM166.139 75.7154C166.145 75.4474 166.24 75.2713 166.62 74.6539C167.384 73.3308 167.689 71.9972 167.722 70.5688C167.753 69.2289 167.509 67.8826 166.807 66.5258C166.456 65.8916 166.371 65.6215 166.377 65.3536C166.383 65.0856 166.763 64.4696 167.404 64.4843C168.046 64.4991 168.314 64.7734 168.839 65.858C169.628 67.3952 169.961 68.8333 169.92 70.6194C169.877 72.4954 169.571 73.829 168.522 75.6817C168.233 76.2998 167.853 76.8274 167.213 76.8126C166.573 76.7081 166.126 76.2513 166.139 75.7154ZM170.212 77.8644C170.222 77.4182 170.505 77.0667 170.792 76.5371C171.75 74.6822 172.254 72.7284 172.299 70.7627C172.346 68.7086 171.933 66.7323 170.972 64.7448C170.621 64.0221 170.539 63.6623 170.545 63.3943C170.553 63.0379 171.024 62.5124 171.664 62.5272C172.397 62.5441 172.567 63.0842 173.009 63.809C173.883 65.6162 174.653 68.0471 174.589 70.8168C174.542 72.8709 174.034 75.0043 172.88 77.3895C172.397 78.4509 171.926 78.9764 171.377 78.9637C170.645 78.9469 170.199 78.4003 170.212 77.8644ZM174.193 80.0126C174.202 79.6548 174.394 79.3013 174.678 78.8614C176.11 76.3914 176.808 73.9058 176.88 70.7797C176.947 67.8318 176.452 65.497 175.142 62.6957C174.969 62.2453 174.704 61.7928 174.712 61.435C174.725 60.899 175.193 60.4634 175.743 60.476C176.383 60.4908 176.65 60.8535 177.085 61.8476C178.574 64.8313 179.149 67.7042 179.077 70.8303C179.003 74.0462 178.111 76.9751 176.581 79.7994C176.292 80.4175 176 81.1267 175.176 81.1078C174.718 81.0972 174.179 80.637 174.193 80.0126Z" fill="#545B7E"/>
<path d="M114.983 137.233C133.199 137.233 147.966 134.616 147.966 131.388C147.966 128.16 133.199 125.543 114.983 125.543C96.7669 125.543 82 128.16 82 131.388C82 134.616 96.7669 137.233 114.983 137.233Z" fill="white"/>
<path d="M143.491 131.505C143.452 131.505 143.412 131.493 143.377 131.47C139.481 128.829 132.11 128.288 132.036 128.283C131.924 128.275 131.84 128.178 131.848 128.066C131.856 127.954 131.954 127.875 132.064 127.877C132.371 127.898 139.619 128.431 143.604 131.132C143.697 131.195 143.722 131.322 143.659 131.415C143.62 131.473 143.556 131.505 143.491 131.505Z" fill="#D1D4E0"/>
<path d="M76.559 114.479L104.12 31.3164C105.047 28.5185 108.064 26.9994 110.864 27.9211L150.264 40.8906C153.352 41.9073 155.029 45.2379 154.006 48.3244L126.894 130.132C125.967 132.929 122.95 134.448 120.15 133.527L79.3941 120.111C77.0543 119.341 75.784 116.817 76.559 114.479Z" fill="#979DBA"/>
<path d="M76.5687 114.458L105.008 28.8202C105.936 26.0232 108.954 24.506 111.753 25.4286L149.205 37.7739C152.289 38.7905 153.965 42.1153 152.948 45.1993L125.189 129.344C124.268 132.137 121.264 133.66 118.466 132.754L79.4223 120.098C77.0705 119.336 75.7895 116.804 76.5687 114.458Z" fill="#979DBA"/>
<path d="M110.8 27.9815L149.15 40.7826C151.014 41.4049 152.023 43.4192 151.404 45.2845L123.644 128.94C123.086 130.622 121.269 131.533 119.587 130.972L80.7805 118.037C79.1003 117.477 78.1923 115.661 78.7524 113.98L106.743 30.0092C107.303 28.3285 109.12 27.4205 110.8 27.9815Z" fill="url(#paint1_linear_16940_51059)"/>
<path d="M121.001 34.1929L121.832 31.5977L139.024 37.2987L138.018 39.9795C137.684 40.8717 136.706 41.3426 135.8 41.0485L122.263 36.6541C121.236 36.3209 120.672 35.2207 121.001 34.1929Z" fill="#979DBA"/>
<rect x="124.531" y="33.6465" width="8.45643" height="1.23207" rx="0.616033" transform="rotate(18.1314 124.531 33.6465)" fill="#545B7E"/>
<circle cx="133.59" cy="37.3879" r="0.712617" fill="#545B7E"/>
<rect x="99.7878" y="57.3405" width="42.8941" height="27.5234" rx="3.44042" transform="rotate(17.7515 99.7878 57.3405)" fill="url(#paint2_linear_16940_51059)"/>
<path opacity="0.89" fill-rule="evenodd" clip-rule="evenodd" d="M110.299 72.4031L110.544 71.5935C110.881 70.4788 112.058 69.8484 113.172 70.1856L112.928 70.9953C112.59 72.11 111.413 72.7403 110.299 72.4031ZM108.139 79.5432L109.709 74.3515C110.047 73.2368 111.223 72.6065 112.338 72.9437L110.768 78.1353C110.431 79.25 109.254 79.8804 108.139 79.5432ZM116.934 80.2746C116.08 80.0164 115.444 79.4923 115.024 78.7024C114.617 77.9061 114.544 77.0753 114.806 76.2101C115.068 75.345 115.587 74.6984 116.365 74.2706C117.155 73.8364 117.976 73.7484 118.83 74.0066C119.684 74.2648 120.314 74.7921 120.722 75.5884C121.141 76.3783 121.22 77.2058 120.958 78.071C120.697 78.9362 120.171 79.5859 119.381 80.0202C118.604 80.448 117.788 80.5328 116.934 80.2746ZM116.35 82.2075C117.76 82.6341 119.111 82.5051 120.402 81.8206C121.704 81.1297 122.567 80.0847 122.991 78.6857C123.414 77.2867 123.273 75.9432 122.569 74.6552C121.877 73.3609 120.825 72.5004 119.415 72.0737C118.004 71.6471 116.647 71.7792 115.345 72.4701C114.054 73.1547 113.197 74.1964 112.774 75.5955C112.35 76.9945 112.485 78.3412 113.177 79.6356C113.882 80.9235 114.939 81.7808 116.35 82.2075Z" fill="#F0F1F5"/>
<rect x="25.5407" y="27.0837" width="60.9186" height="30.9186" rx="4.50581" stroke="black" stroke-width="1.0814"/>
<path d="M44.9681 41.8481C44.981 40.827 45.5311 39.8837 46.4253 39.3494C45.8591 38.5625 44.945 38.0814 43.9584 38.051C42.9207 37.9449 41.9138 38.6553 41.3852 38.6553C40.8566 38.6553 40.0287 38.0619 39.1477 38.0782C37.9952 38.1132 36.9457 38.7328 36.3815 39.7114C35.1872 41.7256 36.0766 44.687 37.2206 46.3174C37.7939 47.1149 38.4652 48.005 39.3406 47.9751C40.2161 47.9451 40.5182 47.4307 41.553 47.4307C42.5879 47.4307 42.8788 47.9751 43.7738 47.9424C44.6688 47.9097 45.273 47.1422 45.8268 46.3365C46.2394 45.7682 46.5566 45.1398 46.7666 44.4747C45.6734 44.0244 44.963 42.9815 44.9625 41.8263M43.2788 36.9922C43.7812 36.4061 44.0282 35.6519 43.9668 34.8909C43.2006 34.9705 42.4929 35.3269 41.9838 35.8898C41.4812 36.4457 41.2266 37.1734 41.2761 37.9122C42.0533 37.9206 42.7915 37.5815 43.2788 36.9922Z" fill="black"/>
<path d="M50.0833 36.5761V48.1082H52.001V44.0192H54.5018C56.8504 44.0192 58.3035 42.4816 58.3035 40.3019C58.3035 38.1476 56.8673 36.5761 54.5102 36.5761H50.0833ZM52.001 38.1644H54.223C55.5578 38.1644 56.352 38.9417 56.352 40.3019C56.352 42.0169 55.3044 42.4478 53.5387 42.4478H52.001V38.1644ZM64.0963 47.0099H64.1639V48.1082H65.9465V42.0254C65.9465 40.0315 64.4681 39.0431 62.4827 39.0431C60.1002 39.0431 59.0864 40.3103 59.0104 41.8311H60.7677C60.8353 41.0369 61.4182 40.5047 62.4405 40.5047C63.4881 40.5047 64.0963 41.0707 64.0963 42.093V42.9462H61.8322C59.7792 42.9462 58.6809 43.9516 58.6809 45.5399C58.6809 47.2042 59.8721 48.2434 61.6041 48.2434C62.922 48.2434 63.7077 47.6942 64.0963 47.0099ZM62.1701 46.8156C61.3422 46.8156 60.5649 46.3678 60.5649 45.4385C60.5649 44.6951 61.0634 44.1797 62.1532 44.1797H64.0963V45.1682C64.0963 46.1397 63.2599 46.8156 62.1701 46.8156ZM74.7554 39.1783H72.77L70.6072 46.2749H70.5481L68.4107 39.1783H66.3323L69.5174 48.1758L69.4076 48.5644C69.2133 49.4431 68.7317 49.781 67.7179 49.781C67.4729 49.781 67.1772 49.7641 67.0336 49.7388V51.1581C67.2955 51.2088 67.6925 51.2426 68.022 51.2426C69.7624 51.2426 70.7509 50.5836 71.4859 48.6067L71.714 47.9899C71.7224 47.9646 74.3752 40.4202 74.7554 39.1783Z" fill="black"/>
<defs>
<linearGradient id="paint0_linear_16940_51059" x1="108" y1="25" x2="107" y2="118.543" gradientUnits="userSpaceOnUse">
<stop stop-color="white" stop-opacity="0"/>
<stop offset="1" stop-color="#D8DBE5"/>
</linearGradient>
<linearGradient id="paint1_linear_16940_51059" x1="137.629" y1="86.9031" x2="92.6395" y2="72.0097" gradientUnits="userSpaceOnUse">
<stop stop-color="#D1D4E0"/>
<stop offset="1" stop-color="#F0F1F5"/>
</linearGradient>
<linearGradient id="paint2_linear_16940_51059" x1="139.379" y1="81.9943" x2="114.013" y2="50.7744" gradientUnits="userSpaceOnUse">
<stop stop-color="#0D1332"/>
<stop offset="1" stop-color="#545B7E"/>
</linearGradient>
</defs>
</svg>
