<svg width="40" height="40" viewBox="0 0 40 40" fill="none" xmlns="http://www.w3.org/2000/svg">
<rect width="40" height="40" rx="8" fill="#F0F1F5"/>
<path d="M30 20V25C30 28 28 30 25 30H15C12 30 10 28 10 25V20C10 17.28 11.64 15.38 14.19 15.06C14.45 15.02 14.72 15 15 15H25C25.26 15 25.51 15.01 25.75 15.05C28.33 15.35 30 17.26 30 20Z" stroke="#545B7E" stroke-width="1.5" stroke-linecap="round" stroke-linejoin="round"/>
<path d="M25.7514 15.05C25.5114 15.01 25.2614 15 25.0014 15H15.0014C14.7214 15 14.4514 15.02 14.1914 15.06C14.3314 14.78 14.5314 14.52 14.7714 14.28L18.0214 11.02C19.3914 9.66 21.6114 9.66 22.9814 11.02L24.7314 12.79C25.3714 13.42 25.7114 14.22 25.7514 15.05Z" stroke="#545B7E" stroke-width="1.5" stroke-linecap="round" stroke-linejoin="round"/>
<path d="M30 20.5H27C25.9 20.5 25 21.4 25 22.5C25 23.6 25.9 24.5 27 24.5H30" stroke="#545B7E" stroke-width="1.5" stroke-linecap="round" stroke-linejoin="round"/>
</svg>
