<svg width="214" height="159" viewBox="0 0 214 159" fill="none" xmlns="http://www.w3.org/2000/svg">
<ellipse cx="107" cy="89.0973" rx="107" ry="42.4669" fill="url(#paint0_linear_16940_53581)"/>
<path d="M138.333 151.472C153.501 151.472 165.797 149.293 165.797 146.604C165.797 143.916 153.501 141.737 138.333 141.737C123.164 141.737 110.868 143.916 110.868 146.604C110.868 149.293 123.164 151.472 138.333 151.472Z" fill="#D1D4E0"/>
<path d="M162.07 146.701C162.038 146.701 162.005 146.692 161.976 146.672C158.732 144.474 152.594 144.023 152.532 144.019C152.439 144.012 152.369 143.931 152.376 143.838C152.382 143.745 152.464 143.679 152.556 143.681C152.811 143.698 158.846 144.142 162.165 146.392C162.242 146.444 162.263 146.549 162.211 146.627C162.178 146.675 162.125 146.701 162.07 146.701Z" fill="#D1D4E0"/>
<path d="M204.146 78.2351L166.805 66.2077C169.827 67.1812 171.519 69.4658 170.591 71.3089L167.091 78.217C166.157 80.0581 162.948 80.7642 159.926 79.7908L191.835 90.0684C194.857 91.0418 198.066 90.3358 199 88.4947L204.175 78.2718C204.179 78.2594 204.165 78.2411 204.146 78.2351Z" fill="#F0F1F5"/>
<path d="M160.719 67.2693L163.235 62.2951L166.164 56.5057C167.613 53.6368 166.345 50.5203 163.323 49.5469L195.333 59.6842C198.355 60.6576 199.528 63.9164 198.073 66.7833L195.144 72.5727L189.994 82.7358L189.694 83.3281C188.245 86.197 189.513 89.3135 192.535 90.2869L155.157 78.2476L158.085 72.4582L152.61 70.6945C155.636 71.6761 159.269 70.1382 160.719 67.2693Z" fill="url(#paint1_linear_16940_53581)"/>
<path d="M117.21 138.428L150.275 149.078C152.87 149.914 155.982 148.597 157.232 146.135L189.581 82.2344C190.831 79.772 189.734 77.0994 187.139 76.2633L154.074 65.6135C151.478 64.7774 148.366 66.0944 147.116 68.5567L114.769 132.451C113.519 134.914 114.614 137.592 117.21 138.428Z" fill="url(#paint2_linear_16940_53581)"/>
<ellipse cx="183.859" cy="87.1936" rx="9.57588" ry="11.2412" transform="rotate(10.5461 183.859 87.1936)" fill="#9CA1BD"/>
<path d="M113.916 134.83L146.981 145.48C149.576 146.316 152.688 144.999 153.938 142.537L186.292 78.6445C187.542 76.1822 186.445 73.5095 183.849 72.6735L150.784 62.0236C148.189 61.1875 145.077 62.5045 143.827 64.9669L111.473 128.859C110.23 131.324 111.32 133.994 113.916 134.83Z" fill="#979DBA"/>
<path d="M136.746 91.8208L168 101.887C168.871 102.168 169.914 101.726 170.337 100.901L179.971 81.8749C180.388 81.0473 180.022 80.1516 179.15 79.8709L147.896 69.8043C147.025 69.5236 145.982 69.9654 145.559 70.7911L135.925 89.8168C135.51 90.6383 135.875 91.5401 136.746 91.8208Z" fill="url(#paint3_linear_16940_53581)"/>
<path d="M150.733 63.6236L182.092 73.7241C182.932 73.9948 183.286 74.866 182.886 75.6647C182.479 76.4614 181.467 76.8926 180.626 76.6219L149.267 66.5215C148.427 66.2507 148.073 65.3796 148.474 64.5809C148.882 63.778 149.892 63.3529 150.733 63.6236Z" fill="url(#paint4_linear_16940_53581)"/>
<path d="M163.35 49.4953L194.924 59.6084C191.902 58.635 188.254 60.7777 186.707 63.9481L181.355 75.1648L149.335 64.8514L154.798 53.6704C156.351 50.5021 160.328 48.5219 163.35 49.4953Z" fill="#F0F1F5"/>
<ellipse cx="169.826" cy="61.8289" rx="9.62023" ry="7.08757" transform="rotate(16.3614 169.826 61.8289)" fill="url(#paint5_linear_16940_53581)"/>
<path d="M166.614 61.5369L167.794 64.2977L173.62 60.3003" stroke="white" stroke-width="1.66537" stroke-linecap="round" stroke-linejoin="round"/>
<path opacity="0.3" d="M154.904 113.065L160.287 114.799C161.492 115.187 162.931 114.573 163.509 113.436L164.264 111.939C164.844 110.796 164.334 109.561 163.129 109.173L157.746 107.439C156.541 107.051 155.101 107.665 154.524 108.802L153.769 110.299C153.191 111.436 153.699 112.677 154.904 113.065Z" fill="#0D1332"/>
<path opacity="0.3" d="M142.568 109.093L147.951 110.826C149.156 111.215 150.595 110.6 151.173 109.463L151.928 107.967C152.508 106.823 151.998 105.588 150.793 105.2L145.41 103.466C144.205 103.078 142.765 103.692 142.188 104.83L141.433 106.326C140.855 107.463 141.363 108.704 142.568 109.093Z" fill="#0D1332"/>
<path opacity="0.3" d="M130.232 105.119L135.615 106.853C136.82 107.241 138.259 106.627 138.837 105.49L139.592 103.993C140.172 102.85 139.662 101.615 138.457 101.227L133.074 99.4927C131.869 99.1045 130.429 99.7187 129.852 100.856L129.097 102.352C128.519 103.49 129.026 104.731 130.232 105.119Z" fill="#0D1332"/>
<path opacity="0.3" d="M150.892 120.989L156.275 122.723C157.48 123.111 158.92 122.497 159.498 121.36L160.252 119.863C160.832 118.72 160.323 117.485 159.118 117.097L153.735 115.363C152.529 114.975 151.09 115.589 150.512 116.726L149.757 118.222C149.18 119.36 149.687 120.601 150.892 120.989Z" fill="#0D1332"/>
<path opacity="0.3" d="M138.557 117.016L143.94 118.75C145.145 119.138 146.584 118.524 147.162 117.387L147.917 115.89C148.496 114.747 147.987 113.512 146.782 113.123L141.399 111.39C140.194 111.001 138.754 111.616 138.177 112.753L137.422 114.249C136.844 115.387 137.351 116.628 138.557 117.016Z" fill="#0D1332"/>
<path opacity="0.3" d="M126.22 113.042L131.603 114.776C132.809 115.164 134.248 114.55 134.826 113.413L135.581 111.917C136.16 110.773 135.651 109.538 134.446 109.15L129.063 107.416C127.857 107.028 126.418 107.642 125.84 108.779L125.086 110.276C124.508 111.413 125.015 112.654 126.22 113.042Z" fill="#0D1332"/>
<path opacity="0.3" d="M146.882 128.907L152.265 130.64C153.47 131.029 154.91 130.414 155.488 129.277L156.242 127.781C156.822 126.637 156.313 125.402 155.108 125.014L149.725 123.28C148.519 122.892 147.08 123.506 146.502 124.644L145.747 126.14C145.176 127.279 145.677 128.518 146.882 128.907Z" fill="#0D1332"/>
<path opacity="0.3" d="M134.546 124.933L139.929 126.667C141.135 127.055 142.574 126.441 143.152 125.304L143.907 123.808C144.486 122.664 143.977 121.429 142.772 121.041L137.389 119.307C136.183 118.919 134.744 119.533 134.166 120.67L133.412 122.167C132.834 123.304 133.341 124.545 134.546 124.933Z" fill="#0D1332"/>
<path opacity="0.3" d="M122.21 120.96L127.593 122.694C128.798 123.082 130.238 122.468 130.816 121.331L131.57 119.835C132.15 118.691 131.641 117.456 130.436 117.068L125.052 115.334C123.847 114.946 122.408 115.56 121.83 116.697L121.075 118.194C120.498 119.331 121.005 120.572 122.21 120.96Z" fill="#0D1332"/>
<path d="M154.357 112.201L159.741 113.934C160.946 114.323 162.385 113.708 162.963 112.571L163.718 111.075C164.297 109.931 163.788 108.696 162.583 108.308L157.2 106.574C155.995 106.186 154.555 106.8 153.977 107.938L153.223 109.434C152.651 110.573 153.152 111.812 154.357 112.201Z" fill="#D1D4E0"/>
<path d="M142.022 108.227L147.405 109.961C148.61 110.349 150.049 109.735 150.627 108.598L151.382 107.102C151.962 105.958 151.452 104.723 150.247 104.335L144.864 102.601C143.659 102.213 142.219 102.827 141.642 103.964L140.887 105.461C140.309 106.598 140.816 107.839 142.022 108.227Z" fill="#D1D4E0"/>
<path d="M129.685 104.254L135.068 105.988C136.274 106.376 137.713 105.762 138.291 104.625L139.046 103.128C139.625 101.985 139.116 100.75 137.911 100.362L132.528 98.6279C131.322 98.2398 129.883 98.854 129.305 99.9912L128.551 101.488C127.973 102.625 128.48 103.866 129.685 104.254Z" fill="#D1D4E0"/>
<path d="M150.347 120.118L155.73 121.851C156.935 122.24 158.375 121.625 158.953 120.488L159.707 118.992C160.287 117.848 159.778 116.613 158.573 116.225L153.189 114.491C151.984 114.103 150.545 114.717 149.967 115.855L149.212 117.351C148.639 118.496 149.142 119.729 150.347 120.118Z" fill="#D1D4E0"/>
<path d="M138.011 116.145L143.394 117.879C144.599 118.267 146.039 117.653 146.617 116.515L147.371 115.019C147.951 113.876 147.442 112.641 146.237 112.252L140.853 110.519C139.648 110.13 138.209 110.745 137.631 111.882L136.876 113.378C136.303 114.524 136.806 115.757 138.011 116.145Z" fill="#D1D4E0"/>
<path d="M125.675 112.171L131.058 113.905C132.263 114.293 133.703 113.679 134.28 112.542L135.035 111.045C135.615 109.902 135.106 108.667 133.9 108.279L128.517 106.545C127.312 106.157 125.873 106.771 125.295 107.908L124.54 109.405C123.96 110.548 124.47 111.783 125.675 112.171Z" fill="#D1D4E0"/>
<path d="M146.335 128.041L151.718 129.775C152.924 130.163 154.363 129.549 154.941 128.412L155.696 126.916C156.275 125.772 155.766 124.537 154.561 124.149L149.178 122.415C147.972 122.027 146.533 122.641 145.955 123.778L145.201 125.275C144.629 126.414 145.136 127.655 146.335 128.041Z" fill="#D1D4E0"/>
<path d="M133.999 124.068L139.382 125.802C140.588 126.19 142.027 125.576 142.605 124.439L143.36 122.942C143.939 121.799 143.43 120.564 142.225 120.176L136.842 118.442C135.636 118.054 134.197 118.668 133.619 119.805L132.865 121.302C132.293 122.441 132.794 123.68 133.999 124.068Z" fill="#D1D4E0"/>
<path d="M121.663 120.095L127.046 121.828C128.251 122.217 129.691 121.602 130.269 120.465L131.023 118.969C131.603 117.825 131.094 116.59 129.889 116.202L124.506 114.468C123.3 114.08 121.861 114.694 121.283 115.832L120.528 117.328C119.957 118.467 120.458 119.706 121.663 120.095Z" fill="#D1D4E0"/>
<path d="M139.199 90.3459L167.523 99.469C168.277 99.7118 169.179 99.3269 169.537 98.6169L177.412 83.0628C177.772 82.3466 177.455 81.5757 176.707 81.3348L148.382 72.2118C147.628 71.9689 146.727 72.3538 146.368 73.0638L138.494 88.618C138.127 89.3322 138.445 90.103 139.199 90.3459Z" fill="#F0F1F5"/>
<path d="M168.146 88.4378C167.667 90.2724 166.091 91.6535 163.897 92.3895C161.704 93.1251 158.91 93.2089 156.037 92.4581C153.163 91.7073 150.768 90.2672 149.215 88.5528C147.661 86.8374 146.963 84.8621 147.442 83.0275C147.922 81.1929 149.497 79.8119 151.691 79.0758C153.884 78.3403 156.678 78.2564 159.552 79.0072C162.425 79.7581 164.821 81.1982 166.373 82.9125C167.927 84.628 168.625 86.6032 168.146 88.4378Z" stroke="#545B7E" stroke-width="0.272599"/>
<path fill-rule="evenodd" clip-rule="evenodd" d="M154.022 85.2646C154.066 85.158 154.132 85.1015 154.314 84.9691C154.629 84.7246 154.739 84.5621 154.9 84.1707C155.062 83.7799 155.099 83.5873 155.049 83.192C155.042 83.1061 155.006 82.8828 155.051 82.7762C155.139 82.5629 155.409 82.4248 155.627 82.5152C155.81 82.5906 155.926 82.7222 155.954 83.0668C156.048 83.563 156.002 84.0855 155.796 84.5829C155.591 85.0804 155.239 85.5182 154.823 85.8037C154.588 85.9566 154.399 86.003 154.216 85.9276C154.027 85.7663 153.934 85.4779 154.022 85.2646ZM155.229 86.6789C155.273 86.5723 155.338 86.5164 155.587 86.3275C156.099 85.9149 156.429 85.4269 156.664 84.8585C156.884 84.3253 156.995 83.747 156.924 83.0932C156.882 82.784 156.889 82.6624 156.933 82.5557C156.978 82.4491 157.226 82.2608 157.481 82.3662C157.736 82.4718 157.801 82.6236 157.844 83.1405C157.922 83.8802 157.832 84.5093 157.538 85.2201C157.23 85.9665 156.9 86.4545 156.191 87.0355C155.979 87.2387 155.745 87.3916 155.49 87.2863C155.249 87.1449 155.141 86.8922 155.229 86.6789ZM156.53 88.1742C156.604 87.9966 156.772 87.8994 156.97 87.7314C157.642 87.1354 158.148 86.4292 158.471 85.647C158.809 84.8296 158.95 83.972 158.873 83.0248C158.844 82.6802 158.867 82.5228 158.911 82.4162C158.97 82.2744 159.24 82.1365 159.495 82.2419C159.787 82.3624 159.771 82.6057 159.836 82.9653C159.906 83.8266 159.838 84.9221 159.382 86.0242C159.044 86.8416 158.509 87.6194 157.675 88.3978C157.317 88.749 157.046 88.8869 156.828 88.7965C156.536 88.6761 156.442 88.3875 156.53 88.1742ZM157.796 89.655C157.854 89.5126 157.986 89.4004 158.169 89.2681C159.127 88.4985 159.793 87.609 160.308 86.365C160.793 85.192 160.956 84.1776 160.865 82.8495C160.866 82.6418 160.83 82.419 160.889 82.2767C160.977 82.0634 161.232 81.9612 161.451 82.0516C161.706 82.157 161.757 82.344 161.777 82.8107C161.912 84.2399 161.696 85.4826 161.182 86.7266C160.653 88.0062 159.84 89.0437 158.787 89.94C158.575 90.1433 158.348 90.3829 158.02 90.2473C157.838 90.1719 157.693 89.9034 157.796 89.655Z" fill="#545B7E"/>
<path opacity="0.3" d="M142.27 137.298L147.653 139.032C148.858 139.42 150.297 138.806 150.875 137.669L151.63 136.172C152.21 135.029 151.7 133.794 150.495 133.406L145.112 131.672C143.907 131.284 142.467 131.898 141.89 133.035L141.135 134.532C140.557 135.669 141.064 136.91 142.27 137.298Z" fill="#0D1332"/>
<path opacity="0.3" d="M129.934 133.325L135.317 135.059C136.522 135.447 137.961 134.833 138.539 133.696L139.294 132.199C139.874 131.056 139.364 129.821 138.159 129.433L132.776 127.699C131.571 127.311 130.131 127.925 129.554 129.062L128.799 130.558C128.221 131.696 128.728 132.937 129.934 133.325Z" fill="#0D1332"/>
<path opacity="0.3" d="M117.591 129.35L122.974 131.084C124.18 131.472 125.619 130.858 126.197 129.721L126.951 128.224C127.531 127.081 127.022 125.846 125.817 125.457L120.434 123.724C119.228 123.335 117.789 123.95 117.211 125.087L116.456 126.583C115.885 127.723 116.392 128.964 117.591 129.35Z" fill="#0D1332"/>
<path d="M141.863 136.465L147.246 138.199C148.451 138.587 149.89 137.973 150.468 136.835L151.223 135.339C151.803 134.195 151.293 132.96 150.088 132.572L144.705 130.838C143.5 130.45 142.061 131.064 141.483 132.202L140.728 133.698C140.15 134.835 140.658 136.077 141.863 136.465Z" fill="#F0F1F5"/>
<path d="M129.527 132.491L134.91 134.225C136.115 134.613 137.554 133.999 138.132 132.862L138.887 131.365C139.467 130.222 138.957 128.987 137.752 128.599L132.369 126.865C131.164 126.477 129.725 127.091 129.147 128.228L128.392 129.724C127.814 130.862 128.322 132.103 129.527 132.491Z" fill="#F0F1F5"/>
<path d="M117.191 128.518L122.574 130.252C123.779 130.64 125.218 130.026 125.796 128.888L126.551 127.392C127.131 126.249 126.621 125.014 125.416 124.625L120.033 122.892C118.828 122.503 117.389 123.118 116.811 124.255L116.056 125.751C115.478 126.889 115.986 128.13 117.191 128.518Z" fill="#F0F1F5"/>
<path opacity="0.3" d="M158.823 104.116L165.566 106.288C166.382 106.551 167.315 106.278 167.654 105.671C167.991 105.07 167.604 104.366 166.788 104.103L160.045 101.931C159.229 101.669 158.296 101.941 157.957 102.548C157.62 103.149 158.007 103.853 158.823 104.116Z" fill="#0D1332"/>
<path opacity="0.3" d="M146.537 100.159L153.279 102.33C154.095 102.593 155.029 102.321 155.368 101.714C155.704 101.113 155.317 100.408 154.502 100.146L147.753 97.9718C146.937 97.7091 146.003 97.9814 145.665 98.5885C145.334 99.1914 145.721 99.8959 146.537 100.159Z" fill="#0D1332"/>
<path opacity="0.3" d="M134.251 96.2017L140.993 98.3734C141.809 98.6362 142.743 98.3639 143.081 97.7568C143.418 97.1558 143.031 96.4513 142.215 96.1886L135.473 94.0168C134.657 93.754 133.723 94.0263 133.385 94.6335C133.048 95.2344 133.435 95.9389 134.251 96.2017Z" fill="#0D1332"/>
<path d="M158.566 103.433L165.308 105.605C166.124 105.868 167.058 105.595 167.397 104.988C167.733 104.387 167.346 103.683 166.531 103.42L159.788 101.248C158.972 100.985 158.039 101.258 157.7 101.865C157.361 102.472 157.75 103.17 158.566 103.433Z" fill="#D1D4E0"/>
<path d="M146.279 99.4756L153.022 101.647C153.838 101.91 154.771 101.638 155.11 101.031C155.447 100.43 155.06 99.7252 154.244 99.4625L147.501 97.2907C146.685 97.0279 145.752 97.3003 145.413 97.9074C145.074 98.5145 145.463 99.2128 146.279 99.4756Z" fill="#D1D4E0"/>
<path d="M133.992 95.519L140.735 97.6908C141.551 97.9536 142.484 97.6813 142.823 97.0741C143.16 96.4732 142.773 95.7687 141.957 95.5059L135.215 93.3342C134.399 93.0714 133.465 93.3437 133.126 93.9508C132.788 94.558 133.177 95.2563 133.992 95.519Z" fill="#D1D4E0"/>
<path fill-rule="evenodd" clip-rule="evenodd" d="M116.076 57.0403C116.093 56.7739 116.194 56.6011 116.494 56.1744C116.999 55.4034 117.117 54.9655 117.176 53.9881C117.236 53.0121 117.173 52.5631 116.767 51.7363C116.687 51.5536 116.441 51.0922 116.458 50.8258C116.49 50.2932 116.977 49.7884 117.523 49.8219C117.978 49.8498 118.331 50.0505 118.652 50.7826C119.229 51.7977 119.522 52.9745 119.445 54.2168C119.369 55.4592 118.929 56.6806 118.233 57.6176C117.836 58.1278 117.456 58.3718 117 58.3439C116.465 58.1334 116.044 57.5729 116.076 57.0403ZM119.778 59.2267C119.795 58.9603 119.896 58.7888 120.298 58.1892C121.108 56.9023 121.462 55.5875 121.549 54.1681C121.631 52.8365 121.44 51.4882 120.793 50.112C120.468 49.4678 120.393 49.196 120.41 48.9297C120.426 48.6633 120.828 48.0651 121.464 48.1041C122.102 48.1433 122.359 48.4263 122.839 49.525C123.566 51.0839 123.842 52.527 123.733 54.302C123.619 56.1661 123.264 57.481 122.15 59.2839C121.839 59.8876 121.441 60.3979 120.805 60.3589C120.173 60.2305 119.746 59.7593 119.778 59.2267ZM123.748 61.519C123.775 61.0756 124.07 60.7368 124.375 60.2209C125.399 58.4125 125.974 56.4883 126.094 54.5349C126.219 52.4936 125.884 50.5123 125.003 48.4989C124.682 47.7668 124.613 47.4057 124.629 47.1394C124.651 46.7852 125.139 46.2805 125.776 46.3196C126.504 46.3642 126.653 46.9079 127.064 47.6456C127.865 49.4763 128.538 51.9234 128.37 54.6758C128.244 56.7171 127.658 58.8197 126.42 61.1482C125.899 62.1855 125.411 62.6902 124.865 62.6568C124.138 62.6122 123.715 62.0516 123.748 61.519ZM127.627 63.8071C127.648 63.4516 127.853 63.1073 128.153 62.6806C129.67 60.2782 130.459 57.8326 130.649 54.726C130.829 51.7966 130.425 49.4555 129.228 46.6195C129.073 46.1649 128.827 45.7047 128.849 45.3492C128.882 44.8166 129.364 44.4011 129.91 44.4346C130.547 44.4736 130.798 44.8445 131.194 45.8498C132.561 48.8741 133.024 51.7534 132.833 54.8599C132.637 58.0557 131.639 60.9349 130.009 63.6859C129.698 64.2897 129.381 64.984 128.563 64.9338C128.107 64.9059 127.589 64.4276 127.627 63.8071Z" fill="#545B7E"/>
<path fill-rule="evenodd" clip-rule="evenodd" d="M106.584 46.9968C105.835 45.1588 103.626 44.3894 101.879 44.6872C100.69 44.8892 92.9404 47.3244 91.7485 47.9531C89.9702 48.8919 89.023 50.7776 89.3966 53.0242C89.583 54.1487 90.3945 55.4597 91.5753 55.9923C92.594 56.4508 93.5258 56.4718 94.4983 56.3168C96.0142 56.076 101.736 54.084 104.623 52.3092C106.568 51.1136 107.496 49.2366 106.585 46.9972L106.584 46.9968ZM39.3062 93.5799C40.0928 98.7075 44.1839 103.316 47.8161 104.976C52.5301 107.131 56.9589 105.94 62.0804 103.546C65.0207 102.172 67.4861 100.396 70.4153 98.7468C74.3226 96.5466 78.6585 94.3111 82.5292 92.2337C77.5618 81.7937 75.4329 65.4831 70.465 55.0443C63.3339 57.6639 57.706 59.9786 51.2165 62.677C43.5979 69.099 39.5899 73.0441 33.1086 79.7309C31.8083 86.5235 37.1406 90.9553 39.305 93.5795L39.3062 93.5799Z" fill="white"/>
<path fill-rule="evenodd" clip-rule="evenodd" d="M33.005 80.6118C32.5599 83.5902 32.0524 85.2508 31.4498 86.7791C27.8195 95.9835 22.8193 103.711 18.7352 112.829L44.9378 123.516C47.7804 115.773 49.6017 110.531 53.1763 103.309C46.1593 96.1629 40.022 87.7583 33.005 80.6118Z" fill="white"/>
<path fill-rule="evenodd" clip-rule="evenodd" d="M50.5478 113.442C42.6703 112.143 29.8444 107.24 22.9893 102.448L17.9022 112.829C17.9022 112.829 26.3431 117.26 32.0579 119.49C37.7726 121.721 47.1692 124.253 47.1692 124.253L50.5482 113.441L50.5478 113.442Z" fill="#D1D4E0"/>
<path fill-rule="evenodd" clip-rule="evenodd" d="M50.548 113.443C42.6705 112.143 29.8446 107.24 22.9895 102.449L19.3639 110.149C22.1701 111.938 25.5878 113.563 29.3922 114.822C37.6433 117.553 45.4577 117.821 49.7812 115.899L50.5493 113.443L50.548 113.443Z" fill="url(#paint6_linear_16940_53581)"/>
<path d="M46.9798 83.1218L66.9914 22.7383C67.6647 20.7067 69.8556 19.6038 71.8885 20.273L100.496 29.69C102.738 30.4282 103.956 32.8465 103.213 35.0876L83.5278 94.4869C82.8545 96.5184 80.6636 97.6214 78.6307 96.9522L49.0384 87.2109C47.3395 86.6517 46.4172 84.8196 46.9798 83.1218Z" fill="#979DBA"/>
<path d="M46.987 83.1064L67.6361 20.9258C68.3105 18.8949 70.5016 17.7933 72.5339 18.4632L99.7274 27.427C101.967 28.1651 103.184 30.5792 102.445 32.8185L82.29 93.9148C81.621 95.9426 79.4394 97.049 77.4081 96.3906L49.059 87.202C47.3513 86.6485 46.4212 84.8101 46.987 83.1064Z" fill="#979DBA"/>
<path d="M71.8421 20.3174L99.6874 29.6122C101.041 30.064 101.773 31.5266 101.324 32.881L81.168 93.6223C80.7626 94.8439 79.4429 95.5049 78.2218 95.0979L50.0449 85.7056C48.825 85.2989 48.1657 83.9803 48.5723 82.7604L68.896 21.7897C69.3027 20.5694 70.622 19.9102 71.8421 20.3174Z" fill="url(#paint7_linear_16940_53581)"/>
<path fill-rule="evenodd" clip-rule="evenodd" d="M33.9649 72.9381C35.2633 69.3864 37.4668 65.1751 38.7735 61.4872C39.116 60.3538 39.6606 59.8323 40.4641 59.0682C44.0865 55.6168 46.3857 52.5654 49.0309 47.913C53.8048 43.4408 52.9896 42.664 55.4529 36.8899C55.5973 36.4908 56.2728 36.5536 56.9581 36.8173C58.1944 37.2933 58.9952 38.0108 59.5384 38.9591C60.233 40.1742 60.629 41.5589 60.4486 43.1738C60.0763 46.4925 57.8486 50.6863 55.9982 53.1559C54.9164 56.8311 53.7951 58.963 51.4582 60.7906C51.5289 67.8831 51.2816 79.2457 47.1102 84.8985C43.9769 89.144 33.3822 91.4795 31.9056 84.5838C31.0485 80.5788 32.6124 76.6367 33.9649 72.9381Z" fill="white"/>
<path fill-rule="evenodd" clip-rule="evenodd" d="M98.7261 60.4752C97.1682 59.349 95.7004 59.9218 94.4171 61.0613C92.2432 62.9932 89.6423 66.4748 92.077 69.2375C92.8068 70.0664 94.1437 70.7283 95.3877 70.5597C96.4604 70.4147 97.2355 69.9546 97.9562 69.3292C98.6176 68.7552 99.2437 68.0413 99.8156 67.2891C100.236 66.736 100.795 65.3801 100.747 64.398C100.682 63.0985 100.013 61.4052 98.7266 60.474L98.7261 60.4752ZM97.2239 73.0643C96.3303 71.6021 94.9708 71.2801 93.3439 71.6504C92.2346 71.9018 90.3697 72.8677 89.2809 73.5224C87.6642 74.4956 86.4781 75.9588 86.943 78.0449C87.1767 79.0924 88.005 80.2823 89.1419 80.7214C90.1228 81.1006 90.999 81.0718 91.9042 80.8768C92.7359 80.6984 94.4029 79.9803 95.2268 79.5745C96.8703 78.7669 98.2632 77.1854 97.9904 75.2311C97.8879 74.4954 97.6856 73.8221 97.2226 73.0638L97.2239 73.0643ZM92.1856 85.3943C91.6494 83.8528 90.448 83.2794 88.8605 83.2961C87.7777 83.307 84.1911 84.5137 83.0457 84.9031C81.3444 85.4817 79.3553 86.5224 79.3668 88.5578C79.3722 89.5788 79.9037 90.8544 80.8729 91.4914C81.7097 92.0423 82.531 92.1752 83.4122 92.193C84.4463 92.2138 85.8132 92.143 87.2131 91.9974C89.0523 91.805 90.1569 91.4567 91.0104 90.5906C91.8121 89.7782 92.3796 88.6607 92.4612 87.5663C92.5146 86.8617 92.4621 86.193 92.1839 85.3951L92.1856 85.3943Z" fill="white"/>
<rect x="63.8458" y="41.6338" width="31.1449" height="19.9844" rx="2.49805" transform="rotate(17.7515 63.8458 41.6338)" fill="url(#paint8_linear_16940_53581)"/>
<path opacity="0.89" fill-rule="evenodd" clip-rule="evenodd" d="M71.4775 52.5705L71.6553 51.9826C71.9001 51.1733 72.7547 50.7156 73.5641 50.9604L73.3863 51.5483C73.1415 52.3577 72.2869 52.8153 71.4775 52.5705ZM69.9093 57.7549L71.0494 53.9853C71.2942 53.1759 72.1488 52.7183 72.9582 52.9631L71.818 56.7327C71.5732 57.5421 70.7186 57.9997 69.9093 57.7549ZM76.2953 58.286C75.6754 58.0985 75.2132 57.718 74.9086 57.1444C74.6128 56.5663 74.56 55.9631 74.75 55.3349C74.94 54.7067 75.3173 54.2372 75.8819 53.9266C76.4553 53.6113 77.052 53.5474 77.6718 53.7349C78.2917 53.9224 78.7496 54.3052 79.0454 54.8834C79.3499 55.457 79.4072 56.0578 79.2172 56.686C79.0272 57.3142 78.6455 57.786 78.0721 58.1013C77.5074 58.4119 76.9152 58.4735 76.2953 58.286ZM75.8708 59.6894C76.895 59.9992 77.8757 59.9056 78.8129 59.4086C79.7589 58.9069 80.3855 58.1482 80.6928 57.1323C81 56.1165 80.898 55.141 80.3865 54.2058C79.8839 53.266 79.1205 52.6412 78.0963 52.3314C77.0722 52.0217 76.0871 52.1176 75.1411 52.6193C74.2039 53.1163 73.5816 53.8727 73.2744 54.8885C72.9671 55.9044 73.0648 56.8822 73.5675 57.822C74.0789 58.7572 74.8467 59.3797 75.8708 59.6894Z" fill="#F0F1F5"/>
<defs>
<linearGradient id="paint0_linear_16940_53581" x1="107.416" y1="74.5253" x2="107.416" y2="146.969" gradientUnits="userSpaceOnUse">
<stop stop-color="white" stop-opacity="0"/>
<stop offset="1" stop-color="#D8DBE5"/>
</linearGradient>
<linearGradient id="paint1_linear_16940_53581" x1="197.132" y1="76.0155" x2="155.242" y2="62.523" gradientUnits="userSpaceOnUse">
<stop stop-color="#D1D4E0"/>
<stop offset="1" stop-color="#F0F1F5"/>
</linearGradient>
<linearGradient id="paint2_linear_16940_53581" x1="178.797" y1="115.921" x2="125.551" y2="98.7709" gradientUnits="userSpaceOnUse">
<stop stop-color="#979DBA"/>
<stop offset="1" stop-color="#D1D4E0"/>
</linearGradient>
<linearGradient id="paint3_linear_16940_53581" x1="176.762" y1="91.9056" x2="139.134" y2="79.7861" gradientUnits="userSpaceOnUse">
<stop stop-color="#F0F1F5"/>
<stop offset="1" stop-color="white"/>
</linearGradient>
<linearGradient id="paint4_linear_16940_53581" x1="182.904" y1="75.6706" x2="148.455" y2="64.575" gradientUnits="userSpaceOnUse">
<stop stop-color="#0D1332"/>
<stop offset="1" stop-color="#545B7E"/>
</linearGradient>
<linearGradient id="paint5_linear_16940_53581" x1="160.206" y1="61.8289" x2="179.446" y2="61.8289" gradientUnits="userSpaceOnUse">
<stop stop-color="#545B7E"/>
<stop offset="1" stop-color="#979DBA"/>
</linearGradient>
<linearGradient id="paint6_linear_16940_53581" x1="49.6184" y1="116.391" x2="20.4898" y2="106.748" gradientUnits="userSpaceOnUse">
<stop stop-color="#979DBA"/>
<stop offset="1" stop-color="#D1D4E0"/>
</linearGradient>
<linearGradient id="paint7_linear_16940_53581" x1="91.3219" y1="63.0998" x2="58.6556" y2="52.2859" gradientUnits="userSpaceOnUse">
<stop stop-color="#D1D4E0"/>
<stop offset="1" stop-color="#F0F1F5"/>
</linearGradient>
<linearGradient id="paint8_linear_16940_53581" x1="92.5929" y1="59.5346" x2="74.1744" y2="36.8662" gradientUnits="userSpaceOnUse">
<stop stop-color="#0D1332"/>
<stop offset="1" stop-color="#545B7E"/>
</linearGradient>
</defs>
</svg>
