<svg width="56" height="56" viewBox="0 0 56 56" fill="none" xmlns="http://www.w3.org/2000/svg">
<circle cx="28" cy="28" r="28" fill="#F2F5F8"/>
<path d="M34.1401 37.62C33.2601 37.88 32.2201 38 31.0001 38H25.0001C23.7801 38 22.7401 37.88 21.8601 37.62C22.0801 35.02 24.7501 32.97 28.0001 32.97C31.2501 32.97 33.9201 35.02 34.1401 37.62Z" stroke="black" stroke-width="1.5" stroke-linecap="round" stroke-linejoin="round"/>
<path d="M31 18H25C20 18 18 20 18 25V31C18 34.78 19.14 36.85 21.86 37.62C22.08 35.02 24.75 32.97 28 32.97C31.25 32.97 33.92 35.02 34.14 37.62C36.86 36.85 38 34.78 38 31V25C38 20 36 18 31 18ZM28 30.17C26.02 30.17 24.42 28.56 24.42 26.58C24.42 24.6 26.02 23 28 23C29.98 23 31.58 24.6 31.58 26.58C31.58 28.56 29.98 30.17 28 30.17Z" stroke="black" stroke-width="1.5" stroke-linecap="round" stroke-linejoin="round"/>
<path d="M31.5799 26.58C31.5799 28.56 29.9799 30.17 27.9999 30.17C26.0199 30.17 24.4199 28.56 24.4199 26.58C24.4199 24.6 26.0199 23 27.9999 23C29.9799 23 31.5799 24.6 31.5799 26.58Z" stroke="black" stroke-width="1.5" stroke-linecap="round" stroke-linejoin="round"/>
</svg>
