<svg width="164" height="263" viewBox="0 0 164 263" fill="none" xmlns="http://www.w3.org/2000/svg">
<rect width="164" height="262.4" rx="11.4087" fill="url(#paint0_linear_3431_35089)"/>
<mask id="mask0_3431_35089" style="mask-type:alpha" maskUnits="userSpaceOnUse" x="0" y="0" width="164" height="263">
<rect width="164" height="262.4" rx="11.4087" fill="white"/>
</mask>
<g mask="url(#mask0_3431_35089)">
<path fill-rule="evenodd" clip-rule="evenodd" d="M9.38237 138.733C9.38252 138.727 9.38266 138.721 9.3828 138.716L9.46628 135.285C9.46628 135.285 9.46627 135.285 9.46628 135.285C11.0827 68.8551 -44.4553 10.6077 -114.038 8.8538C-114.041 8.85375 -114.044 8.85367 -114.046 8.85362C-184.645 7.09829 -243.215 63.3591 -244.038 134.158L-283.927 133.719L-244.038 134.163C-244.838 202.296 -190.473 259.492 -122.386 262.135L-123.956 301.939L-122.38 262.135C-51.5881 264.893 7.57601 209.277 9.38237 138.733ZM88.9996 142.402C85.1666 256.552 -10.8609 346.222 -125.526 341.758C-125.528 341.758 -125.53 341.758 -125.531 341.758C-236.751 337.437 -325.03 244.539 -323.725 133.28C-323.725 133.279 -323.725 133.277 -323.725 133.275C-322.383 17.9354 -226.935 -73.6693 -112.004 -70.8042L-111.995 -70.804C-0.075507 -67.9903 91.7197 25.1292 89.1417 136.921C89.1322 137.666 89.1187 138.412 89.1014 139.159L89.0852 140.286C89.0751 140.996 89.0464 141.701 88.9996 142.402Z" fill="url(#paint1_linear_3431_35089)"/>
<path fill-rule="evenodd" clip-rule="evenodd" d="M-84.1017 303.574C-84.9688 325.561 -103.498 342.693 -125.487 341.84C-236.71 337.522 -324.991 244.623 -323.686 133.363C-323.686 133.361 -323.686 133.359 -323.686 133.357C-322.344 18.0175 -226.896 -73.5871 -111.965 -70.7221L-111.956 -70.7219C-0.0368291 -67.9083 91.7583 25.2112 89.1804 137.003C89.17 137.817 89.1549 138.631 89.1352 139.447C88.6032 161.444 70.3373 178.857 48.3371 178.338C26.3369 177.819 8.93352 159.566 9.46548 137.569C9.47919 137.002 9.4893 136.437 9.49585 135.873C9.49781 135.704 9.50085 135.536 9.50496 135.367C11.1215 68.9372 -44.4166 10.6897 -113.999 8.93584C-114.002 8.93578 -114.005 8.93568 -114.008 8.93562C-184.606 7.18031 -243.177 63.4411 -243.999 134.24L-283.843 133.801L-243.999 134.245C-244.8 202.378 -190.434 259.574 -122.347 262.217C-100.358 263.071 -83.2346 281.587 -84.1017 303.574Z" fill="url(#paint2_linear_3431_35089)"/>
</g>
<path fill-rule="evenodd" clip-rule="evenodd" d="M35.5665 231.325C35.5664 231.326 35.5662 231.326 35.566 231.326L35.4584 231.452C35.4584 231.452 35.4584 231.452 35.4584 231.452C33.3758 233.9 33.6904 237.78 36.2524 239.964C36.2525 239.964 36.2526 239.964 36.2527 239.964C38.8528 242.179 42.7666 241.847 44.9524 239.211L46.4383 240.441L44.9526 239.21C47.0564 236.674 46.7539 232.87 44.2752 230.698L45.5457 229.25L44.275 230.698C41.6981 228.439 37.7816 228.729 35.5665 231.325ZM32.6857 228.764C36.3041 224.59 42.6427 224.143 46.8167 227.801C46.8167 227.801 46.8168 227.801 46.8169 227.801C50.8657 231.348 51.3563 237.527 47.9209 241.669C47.9208 241.669 47.9208 241.669 47.9207 241.669C44.3597 245.964 37.984 246.502 33.7514 242.896L33.7511 242.896C29.63 239.383 29.0141 233.089 32.5135 228.966C32.5366 228.938 32.5598 228.911 32.5832 228.883L32.6181 228.841C32.6401 228.815 32.6626 228.789 32.6857 228.764Z" fill="url(#paint3_linear_3431_35089)"/>
<path fill-rule="evenodd" clip-rule="evenodd" d="M35.3376 228.619C36.1486 229.309 36.247 230.524 35.5573 231.335L30.2418 237.582L30.2418 237.582L24.9182 243.838L24.9181 243.838L24.918 243.838C22.4529 246.736 17.7109 244.995 17.7109 241.19V234.05C17.7109 232.986 18.574 232.124 19.6386 232.124C20.7032 232.124 21.5662 232.986 21.5662 234.05V241.19C21.5662 241.277 21.5885 241.312 21.6008 241.328C21.6206 241.355 21.6598 241.389 21.7203 241.411C21.7807 241.434 21.8328 241.433 21.8653 241.425C21.8854 241.421 21.9244 241.409 21.9808 241.343L23.4495 242.59C21.981 241.343 21.981 241.343 21.981 241.342L21.9812 241.342L27.3049 235.086L27.3049 235.086L32.6204 228.839C33.3101 228.028 34.5266 227.93 35.3376 228.619Z" fill="white"/>
<path fill-rule="evenodd" clip-rule="evenodd" d="M44.0965 227.979C44.7983 227.179 46.0162 227.099 46.8167 227.801C50.8657 231.348 51.3563 237.527 47.9209 241.669L47.9207 241.669C44.3597 245.964 37.984 246.502 33.7514 242.896L33.7511 242.895C29.63 239.383 29.0141 233.089 32.5135 228.966C32.5387 228.936 32.5641 228.905 32.5896 228.875C33.2792 228.065 34.4957 227.966 35.3068 228.655C36.1179 229.345 36.2165 230.56 35.5269 231.371C35.5092 231.392 35.4916 231.413 35.4742 231.434C35.469 231.44 35.4637 231.446 35.4584 231.452C33.3758 233.9 33.6904 237.78 36.2524 239.964L36.2527 239.964C38.8528 242.179 42.7666 241.847 44.9524 239.211L46.4366 240.44L44.9526 239.21C47.0564 236.674 46.7539 232.869 44.2752 230.698C43.4747 229.996 43.3947 228.779 44.0965 227.979Z" fill="url(#paint4_linear_3431_35089)"/>
<path d="M19.6387 230.384C21.0336 230.384 22.1644 229.253 22.1644 227.859C22.1644 226.465 21.0336 225.335 19.6387 225.335C18.2438 225.335 17.113 226.465 17.113 227.859C17.113 229.253 18.2438 230.384 19.6387 230.384Z" fill="white"/>
<path d="M119.288 228.428L113.308 242.678H109.405L106.476 231.302C106.299 230.606 106.144 230.341 105.602 230.053C104.718 229.567 103.248 229.125 101.965 228.837L102.054 228.428H108.333C109.129 228.428 109.847 228.959 110.035 229.876L111.583 238.123L115.419 228.428H119.299H119.288ZM134.566 238.024C134.577 234.265 129.359 234.055 129.404 232.375C129.404 231.866 129.901 231.324 130.962 231.181C131.493 231.114 132.952 231.059 134.599 231.822L135.241 228.804C134.356 228.483 133.206 228.174 131.791 228.174C128.143 228.174 125.579 230.108 125.556 232.883C125.534 234.939 127.392 236.078 128.784 236.764C130.222 237.46 130.697 237.913 130.697 238.532C130.697 239.494 129.547 239.914 128.486 239.925C126.629 239.958 125.556 239.428 124.694 239.03L124.031 242.158C124.893 242.556 126.485 242.899 128.132 242.91C132.001 242.91 134.544 240.998 134.555 238.035M144.184 242.689H147.6L144.626 228.428H141.476C140.768 228.428 140.171 228.837 139.906 229.478L134.378 242.689H138.248L139.021 240.566H143.753L144.195 242.689H144.184ZM140.072 237.637L142.017 232.286L143.134 237.637H140.072ZM124.562 228.428L121.51 242.678H117.818L120.88 228.428H124.573H124.562Z" fill="url(#paint5_linear_3431_35089)"/>
<path d="M107.669 40.1287L107.67 40.1295V39.0841C107.67 37.3277 107.23 36.1232 106.426 35.3238C106.426 35.3238 107.196 36.4174 107.46 37.2177C107.816 38.3003 107.669 40.1287 107.669 40.1287ZM107.669 40.1287V43.7156V44.079H107.305H102.53H102.065L102.176 43.6284C102.245 43.3515 102.283 43.0745 102.283 42.7894V34.452V34.0886H102.646C104.413 34.0886 105.623 34.5247 106.426 35.3238C106.426 35.3238 107.196 36.4174 107.46 37.2177C107.816 38.3003 107.669 40.1287 107.669 40.1287ZM107.669 56.3216V56.6851V61.3173C107.669 63.0745 107.23 64.2791 106.425 65.0778C108.026 62.0347 107.67 59.8956 107.669 56.3216ZM107.669 56.3216L102.5 56.3223L102.031 56.3224L102.149 56.7767C102.226 57.0771 102.282 57.3565 102.282 57.641V65.9495V66.3129M107.669 56.3216L107.67 57.7565C107.67 57.7565 108.087 62.6462 106.763 64.6901C105.939 65.9611 102.282 66.3129 102.282 66.3129M102.282 66.3129H102.646H102.282ZM102.282 66.3129H102.646H102.282ZM102.646 66.3129C104.411 66.3129 105.622 65.8767 106.425 65.0778C105.181 66.3129 102.646 66.3129 102.646 66.3129ZM107.669 45.5685V45.205H107.305H101.569H101.399L101.289 45.3368C100.785 45.9468 100.329 46.3683 99.8224 46.6422C99.3227 46.9132 98.7479 47.0532 97.9858 47.0581H92.399C91.3374 47.0378 90.1044 46.5508 89.0929 45.336L88.9844 45.205H88.8138H83.0765H82.7131V45.5685V54.8327V55.1962H83.0765H88.8426H89.0048L89.1133 55.0756C90.1294 53.944 91.0973 53.3722 92.3953 53.3722H97.9867L97.996 53.3721C98.785 53.3528 99.3311 53.4679 99.7993 53.7218C100.275 53.9799 100.703 54.3998 101.225 55.0586L101.335 55.1962H101.511H107.305H107.669V54.8327V45.5685ZM101.146 34.4511V34.0876H100.783H96.1223H95.7589V34.4511V45.5677V45.9312H96.1223H97.9867C98.7312 45.9312 99.5369 45.5244 100.137 44.9284C100.735 44.3327 101.146 43.5298 101.146 42.7886V34.4511ZM100.783 66.3116H101.146V65.9482V57.6397C101.146 56.8977 100.736 56.0957 100.136 55.4999C99.5369 54.9048 98.7303 54.4971 97.9867 54.4971H96.1223H95.7589V54.8605V65.9482V66.3116H96.1223H100.783ZM94.6232 34.4511V34.0876H94.2597H89.5991H89.2356V34.4511V42.7886C89.2356 43.4948 89.6065 44.3175 90.2156 44.9275C90.8238 45.5351 91.6638 45.9312 92.3953 45.9312H94.2597H94.6232V45.5677V34.4511ZM94.6232 54.8619V54.4985H94.2597H92.3962C91.6647 54.4985 90.8238 54.8942 90.2165 55.5021C89.6074 56.1121 89.2366 56.9356 89.2366 57.6411V65.9495V66.313H89.6H94.2597H94.6232V65.9495V54.8619ZM88.2344 56.7746L88.3475 56.3225L87.8821 56.3224L83.0767 56.3218L82.7132 56.3217V56.6852V61.3174C82.7132 63.0668 83.1196 64.275 83.9273 65.0779C84.7323 65.8781 85.9725 66.313 87.7365 66.313H88.0999V65.9495V57.6411C88.0999 57.361 88.1583 57.0777 88.2344 56.7746ZM87.8524 44.0797H88.0091L88.1166 43.9657L88.1175 43.965L88.2585 43.8161L88.2038 43.6187C88.1361 43.3728 88.099 43.0927 88.0999 42.7902V34.4518V34.0884H87.7365C85.9732 34.0884 84.7324 34.5232 83.9274 35.3233C83.1195 36.1256 82.7132 37.3338 82.7132 39.084V43.7162V44.0796H83.0766L87.8524 44.0797Z" fill="url(#paint6_linear_3431_35089)"/>
<path d="M107.669 40.1287L107.67 40.1295V39.0841C107.67 37.3277 107.23 36.1232 106.426 35.3238M107.669 40.1287V43.7156V44.079H107.305H102.53H102.065L102.176 43.6284C102.245 43.3515 102.283 43.0745 102.283 42.7894V34.452V34.0886H102.646C104.413 34.0886 105.623 34.5247 106.426 35.3238M107.669 40.1287C107.669 40.1287 107.816 38.3003 107.46 37.2177C107.196 36.4174 106.426 35.3238 106.426 35.3238M107.669 56.3216V56.6851V61.3173C107.669 63.0745 107.23 64.2791 106.425 65.0778M107.669 56.3216C107.67 59.8956 108.026 62.0347 106.425 65.0778M107.669 56.3216L102.5 56.3223L102.031 56.3224L102.149 56.7767C102.226 57.0771 102.282 57.3565 102.282 57.641V65.9495V66.3129M107.669 56.3216L107.67 57.7565C107.67 57.7565 108.087 62.6462 106.763 64.6901C105.939 65.9611 102.282 66.3129 102.282 66.3129M106.425 65.0778C105.622 65.8767 104.411 66.3129 102.646 66.3129M106.425 65.0778C105.181 66.3129 102.646 66.3129 102.646 66.3129M102.282 66.3129H102.646M90.2165 55.5021C90.8238 54.8942 91.6647 54.4985 92.3962 54.4985H94.2597H94.6232V54.8619V65.9495V66.313H94.2597H89.6H89.2366V65.9495V57.6411C89.2366 56.9356 89.6074 56.1121 90.2165 55.5021ZM90.2165 55.5021L90.4224 55.7076M107.669 45.5685V45.205H107.305H101.569H101.399L101.289 45.3368C100.785 45.9468 100.329 46.3683 99.8224 46.6422C99.3227 46.9132 98.7479 47.0532 97.9858 47.0581H92.399C91.3374 47.0378 90.1044 46.5508 89.0929 45.336L88.9844 45.205H88.8138H83.0765H82.7131V45.5685V54.8327V55.1962H83.0765H88.8426H89.0048L89.1133 55.0756C90.1294 53.944 91.0973 53.3722 92.3953 53.3722H97.9867L97.996 53.3721C98.785 53.3528 99.3311 53.4679 99.7993 53.7218C100.275 53.9799 100.703 54.3998 101.225 55.0586L101.335 55.1962H101.511H107.305H107.669V54.8327V45.5685ZM101.146 34.4511V34.0876H100.783H96.1223H95.7589V34.4511V45.5677V45.9312H96.1223H97.9867C98.7312 45.9312 99.5369 45.5244 100.137 44.9284C100.735 44.3327 101.146 43.5298 101.146 42.7886V34.4511ZM100.783 66.3116H101.146V65.9482V57.6397C101.146 56.8977 100.736 56.0957 100.136 55.4999C99.5369 54.9048 98.7303 54.4971 97.9867 54.4971H96.1223H95.7589V54.8605V65.9482V66.3116H96.1223H100.783ZM94.6232 34.4511V34.0876H94.2597H89.5991H89.2356V34.4511V42.7886C89.2356 43.4948 89.6065 44.3175 90.2156 44.9275C90.8238 45.5351 91.6638 45.9312 92.3953 45.9312H94.2597H94.6232V45.5677V34.4511ZM88.2344 56.7746L88.3475 56.3225L87.8821 56.3224L83.0767 56.3218L82.7132 56.3217V56.6852V61.3174C82.7132 63.0668 83.1196 64.275 83.9273 65.0779C84.7323 65.8781 85.9725 66.313 87.7365 66.313H88.0999V65.9495V57.6411C88.0999 57.361 88.1583 57.0777 88.2344 56.7746ZM87.8524 44.0797H88.0091L88.1166 43.9657L88.1175 43.965L88.2585 43.8161L88.2038 43.6187C88.1361 43.3728 88.099 43.0927 88.0999 42.7902V34.4518V34.0884H87.7365C85.9732 34.0884 84.7324 34.5232 83.9274 35.3233C83.1195 36.1256 82.7132 37.3338 82.7132 39.084V43.7162V44.0796H83.0766L87.8524 44.0797Z" stroke="#E6E6E6" stroke-width="0.356522"/>
<g opacity="0.5">
<path fill-rule="evenodd" clip-rule="evenodd" d="M118.59 52.3821C118.59 52.1103 118.683 51.9282 118.961 51.4756C119.426 50.6601 119.518 50.2076 119.518 49.21C119.518 48.2138 119.426 47.7612 118.961 46.9457C118.869 46.765 118.59 46.311 118.59 46.0392C118.59 45.4956 119.054 44.9519 119.611 44.9519C120.076 44.9519 120.447 45.134 120.819 45.8584C121.469 46.8547 121.84 48.033 121.84 49.301C121.84 50.5691 121.469 51.8385 120.819 52.8347C120.447 53.3784 120.076 53.6502 119.611 53.6502C119.054 53.4694 118.59 52.9258 118.59 52.3821ZM122.491 54.3746C122.491 54.1028 122.583 53.922 122.954 53.2873C123.698 51.9282 123.976 50.5691 123.976 49.1203C123.976 47.7612 123.698 46.4021 122.954 45.043C122.583 44.4083 122.491 44.1365 122.491 43.8646C122.491 43.5928 122.862 42.9595 123.511 42.9595C124.162 42.9595 124.441 43.2313 124.998 44.3186C125.834 45.8584 126.205 47.3086 126.205 49.1203C126.205 51.023 125.927 52.3821 124.906 54.2849C124.627 54.9182 124.255 55.4619 123.605 55.4619C122.954 55.3708 122.491 54.9182 122.491 54.3746ZM126.67 56.4581C126.67 56.0055 126.949 55.6426 127.227 55.099C128.156 53.1962 128.62 51.2038 128.62 49.21C128.62 47.1265 128.156 45.1327 127.135 43.1402C126.762 42.4158 126.67 42.053 126.67 41.7811C126.67 41.4196 127.135 40.876 127.784 40.876C128.528 40.876 128.713 41.4196 129.178 42.144C130.106 43.9557 130.943 46.4021 130.943 49.2113C130.943 51.2948 130.478 53.4694 129.364 55.9144C128.899 57.0017 128.434 57.5454 127.877 57.5454C127.135 57.5454 126.67 57.0017 126.67 56.4581ZM130.757 58.5429C130.757 58.1801 130.943 57.8172 131.222 57.3646C132.615 54.8272 133.264 52.2911 133.264 49.1203C133.264 46.1303 132.707 43.7749 131.314 40.9657C131.128 40.5131 130.849 40.0605 130.849 39.6976C130.849 39.154 131.314 38.7014 131.871 38.7014C132.521 38.7014 132.8 39.0629 133.264 40.0605C134.844 43.0505 135.493 45.9495 135.493 49.1203C135.493 52.3821 134.657 55.3722 133.172 58.2711C132.893 58.9045 132.615 59.6302 131.779 59.6302C131.314 59.6302 130.757 59.1763 130.757 58.5429Z" fill="#F0F1F5"/>
</g>
<defs>
<linearGradient id="paint0_linear_3431_35089" x1="115.87" y1="262.4" x2="37.395" y2="-126.465" gradientUnits="userSpaceOnUse">
<stop/>
<stop offset="1" stop-color="#666666"/>
</linearGradient>
<linearGradient id="paint1_linear_3431_35089" x1="23.3028" y1="274.734" x2="99.125" y2="152.64" gradientUnits="userSpaceOnUse">
<stop stop-opacity="0"/>
<stop offset="1" stop-color="#859BE0" stop-opacity="0.5"/>
</linearGradient>
<linearGradient id="paint2_linear_3431_35089" x1="65.633" y1="189.788" x2="17.5706" y2="40.7783" gradientUnits="userSpaceOnUse">
<stop stop-color="#7A92DB"/>
<stop offset="1" stop-color="#6BC9E0"/>
</linearGradient>
<linearGradient id="paint3_linear_3431_35089" x1="42.5384" y1="226.57" x2="45.9587" y2="245.289" gradientUnits="userSpaceOnUse">
<stop stop-color="white"/>
<stop offset="0.0001" stop-color="white"/>
<stop offset="1" stop-color="#78CFDE"/>
</linearGradient>
<linearGradient id="paint4_linear_3431_35089" x1="36.8194" y1="228.597" x2="43.6517" y2="230.574" gradientUnits="userSpaceOnUse">
<stop stop-color="#879EF7"/>
<stop offset="1" stop-color="#78BDCE" stop-opacity="0"/>
</linearGradient>
<linearGradient id="paint5_linear_3431_35089" x1="124.726" y1="228.174" x2="124.726" y2="242.91" gradientUnits="userSpaceOnUse">
<stop stop-color="#797A7D"/>
<stop offset="0.348958" stop-color="#E6E6E6"/>
<stop offset="0.490644" stop-color="#FBFCFF"/>
<stop offset="0.625" stop-color="#E0E1E4"/>
<stop offset="1" stop-color="#797A7D"/>
</linearGradient>
<linearGradient id="paint6_linear_3431_35089" x1="95.1913" y1="34.0876" x2="95.1913" y2="66.313" gradientUnits="userSpaceOnUse">
<stop stop-color="#797A7D"/>
<stop offset="0.348958" stop-color="#E6E6E6"/>
<stop offset="0.490644" stop-color="#FBFCFF"/>
<stop offset="0.625" stop-color="#E0E1E4"/>
<stop offset="1" stop-color="#797A7D"/>
</linearGradient>
</defs>
</svg>
