<svg width="56" height="56" viewBox="0 0 56 56" fill="none" xmlns="http://www.w3.org/2000/svg">
<rect width="56" height="56" rx="28" fill="#F0F0F0"/>
<path d="M36.5 27.3V23.04C36.5 19.01 35.56 18 31.78 18H24.22C20.44 18 19.5 19.01 19.5 23.04V34.3C19.5 36.96 20.96 37.59 22.73 35.69L22.74 35.68C23.56 34.81 24.81 34.88 25.52 35.83L26.53 37.18" stroke="#666666" stroke-width="1.5" stroke-linecap="round" stroke-linejoin="round"/>
<path d="M34.2 37.4C35.9673 37.4 37.4 35.9673 37.4 34.2C37.4 32.4327 35.9673 31 34.2 31C32.4327 31 31 32.4327 31 34.2C31 35.9673 32.4327 37.4 34.2 37.4Z" stroke="#666666" stroke-width="1.5" stroke-linecap="round" stroke-linejoin="round"/>
<path d="M38 38L37 37" stroke="#666666" stroke-width="1.5" stroke-linecap="round" stroke-linejoin="round"/>
<path d="M24 23H32" stroke="#666666" stroke-width="1.5" stroke-linecap="round" stroke-linejoin="round"/>
<path d="M25 27H31" stroke="#666666" stroke-width="1.5" stroke-linecap="round" stroke-linejoin="round"/>
</svg>
