<svg width="94" height="94" viewBox="0 0 94 94" fill="none" xmlns="http://www.w3.org/2000/svg">
<mask id="mask0_24625_15851" style="mask-type:alpha" maskUnits="userSpaceOnUse" x="0" y="0" width="94" height="94">
<rect width="94" height="94" fill="#D9D9D9"/>
</mask>
<g mask="url(#mask0_24625_15851)">
<circle cx="47.5389" cy="47.9999" r="42.9999" stroke="url(#paint0_linear_24625_15851)" stroke-width="6"/>
<path d="M87.0476 64.5043C80.4583 79.7978 65.2489 90.5042 47.5389 90.5042C23.7908 90.5042 4.53906 71.2525 4.53906 47.5043C4.53906 31.7956 12.9626 18.0542 25.5391 10.5508" stroke="url(#paint1_linear_24625_15851)" stroke-width="6" stroke-linecap="round"/>
<path d="M33.5984 2.24073C35.7767 2.35903 37.2473 4.51473 36.5629 6.58609L31.6453 21.4684C30.7847 24.073 27.3118 24.5616 25.7658 22.2956L15.0328 6.56336C13.4868 4.29735 15.2086 1.24199 17.9477 1.39075L33.5984 2.24073Z" fill="#5672C8"/>
<path d="M41.7783 47.224C40.733 47.224 39.805 46.9893 38.9943 46.52C38.205 46.0507 37.5863 45.3787 37.1383 44.504C36.7116 43.608 36.4983 42.5627 36.4983 41.368C36.4983 40.1307 36.7116 39.0747 37.1383 38.2C37.5863 37.3253 38.205 36.6533 38.9943 36.184C39.805 35.6933 40.733 35.448 41.7783 35.448C42.845 35.448 43.773 35.6933 44.5623 36.184C45.373 36.6533 46.0023 37.3253 46.4503 38.2C46.8983 39.0747 47.1223 40.1307 47.1223 41.368C47.1223 42.5627 46.8983 43.608 46.4503 44.504C46.0023 45.3787 45.373 46.0507 44.5623 46.52C43.773 46.9893 42.845 47.224 41.7783 47.224ZM41.7783 45.336C42.2263 45.336 42.589 45.208 42.8663 44.952C43.1436 44.6747 43.3463 44.248 43.4743 43.672C43.6236 43.0747 43.6983 42.3067 43.6983 41.368C43.6983 40.408 43.6236 39.64 43.4743 39.064C43.3463 38.4667 43.1436 38.04 42.8663 37.784C42.589 37.5067 42.2263 37.368 41.7783 37.368C41.373 37.368 41.021 37.5067 40.7223 37.784C40.445 38.04 40.2316 38.4667 40.0823 39.064C39.9543 39.64 39.8903 40.408 39.8903 41.368C39.8903 42.3067 39.9543 43.0747 40.0823 43.672C40.2316 44.248 40.445 44.6747 40.7223 44.952C41.021 45.208 41.373 45.336 41.7783 45.336ZM54.2583 59.48C53.213 59.48 52.285 59.2453 51.4743 58.776C50.685 58.3067 50.0663 57.6347 49.6183 56.76C49.1703 55.864 48.9463 54.808 48.9463 53.592C48.9463 52.376 49.1703 51.3307 49.6183 50.456C50.0663 49.5813 50.685 48.9093 51.4743 48.44C52.285 47.9493 53.213 47.704 54.2583 47.704C55.3036 47.704 56.221 47.9493 57.0103 48.44C57.821 48.9093 58.4503 49.5813 58.8983 50.456C59.3463 51.3307 59.5703 52.376 59.5703 53.592C59.5703 54.808 59.3463 55.864 58.8983 56.76C58.4503 57.6347 57.821 58.3067 57.0103 58.776C56.221 59.2453 55.3036 59.48 54.2583 59.48ZM37.2343 59L55.8263 36.28H58.7383L40.1783 59H37.2343ZM54.2583 57.56C54.685 57.56 55.037 57.432 55.3143 57.176C55.5916 56.8987 55.7943 56.472 55.9223 55.896C56.0716 55.32 56.1463 54.552 56.1463 53.592C56.1463 52.6533 56.0716 51.896 55.9223 51.32C55.7943 50.7227 55.5916 50.296 55.3143 50.04C55.037 49.7627 54.685 49.624 54.2583 49.624C53.8316 49.624 53.4796 49.7627 53.2023 50.04C52.925 50.296 52.7116 50.7227 52.5623 51.32C52.4343 51.896 52.3703 52.6533 52.3703 53.592C52.3703 54.552 52.4343 55.32 52.5623 55.896C52.7116 56.472 52.925 56.8987 53.2023 57.176C53.4796 57.432 53.8316 57.56 54.2583 57.56Z" fill="black"/>
</g>
<defs>
<linearGradient id="paint0_linear_24625_15851" x1="-9.49841" y1="0.999999" x2="83.5389" y2="63.9998" gradientUnits="userSpaceOnUse">
<stop stop-color="white" stop-opacity="0.75"/>
<stop offset="1" stop-color="#78BECE"/>
</linearGradient>
<linearGradient id="paint1_linear_24625_15851" x1="45.7933" y1="4.50439" x2="85.0388" y2="66.0042" gradientUnits="userSpaceOnUse">
<stop stop-color="#758CD2"/>
<stop offset="1" stop-color="#78BECE"/>
</linearGradient>
</defs>
</svg>
