<svg width="128" height="94" viewBox="0 0 128 94" fill="none" xmlns="http://www.w3.org/2000/svg">
<g clip-path="url(#clip0_23228_17206)">
<path d="M66.1238 50.1907C66.6756 50.4065 67.1729 50.5113 67.6158 50.5051C68.0587 50.4989 68.4472 50.3816 68.7811 50.1534C69.1207 49.911 69.3873 49.5421 69.581 49.0469C69.7525 48.6083 69.7875 48.206 69.6859 47.84C69.6041 47.4654 69.425 47.1099 69.1487 46.7734C68.8725 46.437 68.5243 46.0969 68.1041 45.7531C67.6839 45.4093 67.2311 45.0446 66.7457 44.659C66.2547 44.2875 65.7819 43.8905 65.3273 43.468C64.8781 43.0313 64.5034 42.5503 64.2032 42.0251C63.917 41.5053 63.749 40.9339 63.6991 40.3108C63.6491 39.6876 63.7736 38.994 64.0724 38.23C64.4211 37.3386 64.9364 36.6674 65.6186 36.2164C66.3204 35.7568 67.1055 35.501 67.9741 35.4492C68.8427 35.3974 69.7156 35.543 70.5928 35.8861C71.3144 36.1684 71.9266 36.522 72.4292 36.947C72.946 37.3775 73.3367 37.9218 73.6013 38.58C73.8801 39.2436 74.0091 40.0608 73.9883 41.0315L73.0074 40.5989L74.606 37.7004L76.0492 38.2649L74.4886 42.255L72.812 41.5992C72.8352 40.9558 72.7518 40.3766 72.5616 39.8618C72.377 39.3328 72.0998 38.8736 71.73 38.4843C71.3603 38.095 70.9066 37.7952 70.3689 37.5849C69.8595 37.3857 69.3948 37.3018 68.9746 37.3332C68.56 37.3505 68.2027 37.4718 67.9025 37.6969C67.6079 37.908 67.3803 38.2187 67.2199 38.629C67.0649 39.0252 67.0339 39.3964 67.1268 39.7427C67.2253 40.0749 67.4084 40.3993 67.676 40.7161C67.9578 41.0384 68.3002 41.3517 68.7032 41.6562C69.1203 41.9661 69.5558 42.2915 70.0099 42.6322C70.5574 43.0258 71.0699 43.4464 71.5473 43.8942C72.0247 44.3419 72.4234 44.8241 72.7434 45.3408C73.0633 45.8575 73.2455 46.4344 73.2899 47.0717C73.3398 47.6948 73.2126 48.3955 72.9083 49.1737C72.5264 50.15 71.968 50.9104 71.233 51.4549C70.5177 51.9908 69.6891 52.2948 68.7474 52.367C67.8056 52.4391 66.8041 52.2676 65.7429 51.8526C64.9364 51.5372 64.2081 51.1054 63.5578 50.5575C62.9216 50.015 62.4199 49.3375 62.0525 48.525C61.6993 47.718 61.5509 46.7627 61.6073 45.6591L62.6362 46.2818L60.8596 49.698L59.3103 49.092L61.1531 44.3803L62.9146 45.0693C62.9037 45.8481 63.0179 46.5779 63.2573 47.2588C63.5164 47.9311 63.8878 48.525 64.3713 49.0404C64.8746 49.5472 65.4587 49.9306 66.1238 50.1907ZM87.1558 41.8258L72.0066 57.4101L69.6508 56.4887L84.8 40.9044L87.1558 41.8258ZM86.513 60.0005C85.7206 59.6906 85.0528 59.25 84.5096 58.6786C83.9804 58.1127 83.5888 57.4457 83.3346 56.6774C83.1001 55.9005 83.0089 55.0492 83.0611 54.1234C83.1273 53.2031 83.3597 52.2336 83.7582 51.2149C84.1566 50.1962 84.6436 49.3263 85.2193 48.6052C85.8091 47.8897 86.4509 47.3332 87.1447 46.9357C87.8582 46.5296 88.6013 46.2982 89.3739 46.2415C90.1606 46.1903 90.9502 46.3197 91.7425 46.6296C92.5349 46.9395 93.1956 47.3773 93.7247 47.9432C94.268 48.5145 94.6569 49.1887 94.8914 49.9656C95.1455 50.7338 95.2395 51.5781 95.1732 52.4983C95.1211 53.4241 94.8958 54.3964 94.4973 55.4151C94.0989 56.4339 93.6048 57.301 93.015 58.0165C92.4393 58.7375 91.7948 59.3011 91.0813 59.7072C90.3874 60.1047 89.6472 60.3291 88.8604 60.3803C88.0878 60.437 87.3053 60.3104 86.513 60.0005ZM87.1189 58.4512C87.4727 58.5895 87.8227 58.6122 88.169 58.5193C88.5294 58.4319 88.8819 58.219 89.2263 57.8806C89.5763 57.528 89.921 57.0429 90.2604 56.4253C90.614 55.8132 90.9651 55.0614 91.3138 54.17C91.6624 53.2786 91.9145 52.4881 92.07 51.7985C92.2397 51.1145 92.3128 50.5313 92.2893 50.049C92.2714 49.5526 92.1597 49.15 91.9542 48.8413C91.7684 48.5239 91.4986 48.296 91.1449 48.1577C90.7911 48.0193 90.4313 48.0009 90.0653 48.1025C89.719 48.1954 89.3708 48.4182 89.0209 48.7707C88.6765 49.1091 88.3274 49.5843 87.9738 50.1965C87.6344 50.8141 87.2903 51.5686 86.9417 52.46C86.5931 53.3514 86.3339 54.1392 86.1643 54.8232C86.0087 55.5128 85.9399 56.1058 85.9579 56.6022C85.9813 57.0845 86.0887 57.4773 86.2801 57.7805C86.4856 58.0893 86.7652 58.3128 87.1189 58.4512Z" fill="black"/>
<path d="M26.8672 29.8882L30.9419 19.6167C31.9518 17.0709 34.1543 15.1885 36.8262 14.5875L53.8523 10.7576C55.5052 10.3858 57.2324 10.5295 58.8011 11.1695L117.269 35.0206C121.536 36.7612 123.563 41.6483 121.781 45.8981L107.025 81.0913C105.301 85.2034 100.632 87.2141 96.4595 85.6413L37.2677 63.3283C35.8874 62.808 34.6709 61.9286 33.744 60.781L24.2829 49.0673" stroke="url(#paint0_linear_23228_17206)" stroke-width="6" stroke-linecap="round"/>
<path d="M24.4563 17.1878C17.0551 13.6975 9.68294 13.9618 6.92192 18.2058C3.69973 23.1587 7.97792 31.6564 16.4775 37.186C24.9771 42.7155 34.4795 43.1829 37.7017 38.23C38.2699 37.3566 38.6049 36.373 38.7246 35.3149" stroke="url(#paint1_linear_23228_17206)" stroke-width="4" stroke-linecap="round"/>
<path d="M34.1012 33.3353C35.0131 29.7836 38.481 27.4241 42.1881 27.9747C46.1494 28.563 48.8837 32.2511 48.2954 36.2124C47.7399 39.9527 44.4207 42.5991 40.7175 42.3874" stroke="url(#paint2_linear_23228_17206)" stroke-width="4" stroke-linecap="round"/>
</g>
<defs>
<linearGradient id="paint0_linear_23228_17206" x1="79.273" y1="9.48419" x2="97.2646" y2="73.5114" gradientUnits="userSpaceOnUse">
<stop stop-color="#758CD2"/>
<stop offset="1" stop-color="#78BECE"/>
</linearGradient>
<linearGradient id="paint1_linear_23228_17206" x1="29.0283" y1="17.8933" x2="24.513" y2="39.0406" gradientUnits="userSpaceOnUse">
<stop stop-color="#758CD2"/>
<stop offset="1" stop-color="#78BECE"/>
</linearGradient>
<linearGradient id="paint2_linear_23228_17206" x1="42.3799" y1="26.6826" x2="48.0288" y2="38.6486" gradientUnits="userSpaceOnUse">
<stop stop-color="#758CD2"/>
<stop offset="1" stop-color="#78BECE"/>
</linearGradient>
<clipPath id="clip0_23228_17206">
<rect width="128" height="94" fill="white"/>
</clipPath>
</defs>
</svg>
