<svg width="369" height="203" viewBox="0 0 369 203" fill="none" xmlns="http://www.w3.org/2000/svg">
<rect x="-0.131711" y="0.395249" width="190.811" height="289.965" rx="16.2434" transform="matrix(0.663536 0.748145 -0.97968 0.200567 241.671 1.07638)" fill="url(#paint0_linear_1879_23718)" stroke="url(#paint1_linear_1879_23718)" stroke-width="0.833234"/>
<mask id="mask0_1879_23718" style="mask-type:alpha" maskUnits="userSpaceOnUse" x="-36" y="3" width="397" height="197">
<rect width="191.644" height="290.799" rx="16.6647" transform="matrix(0.663536 0.748145 -0.97968 0.200567 241.328 0.661865)" fill="white"/>
<rect width="191.644" height="290.799" rx="16.6647" transform="matrix(0.663536 0.748145 -0.97968 0.200567 241.328 0.661865)" fill="white"/>
</mask>
<g mask="url(#mask0_1879_23718)">
<g opacity="0.8">
<g clip-path="url(#clip0_1879_23718)">
<path d="M87.185 60.8212L89.4311 60.7649L89.8445 61.231C90.4361 61.8981 90.6766 62.4851 89.8828 62.6476C88.9963 62.8291 87.994 62.1797 87.3061 61.4041C87.1992 61.2836 87.0959 61.167 86.9996 61.0585C86.8365 60.8403 87.1731 60.8283 87.1731 60.8283M91.1642 64.1611C91.6123 64.0981 91.9373 63.9032 92.0679 63.6191C92.1986 63.3351 92.1241 62.9852 91.8609 62.6462C92.5846 63.2768 93.9729 64.0181 95.112 63.7849C96.3284 63.5359 96.1347 62.4455 94.8446 60.9908C94.2932 60.369 93.6788 59.7612 93.0073 59.1734L86.2572 59.3493C86.2572 59.3493 84.4298 59.3008 85.0083 60.3789C85.1602 60.6592 85.3506 60.9383 85.5768 61.2121C87.7739 63.9435 90.0132 64.4014 91.1832 64.1619M92.9722 60.6857C93.1893 60.8853 93.3893 61.0902 93.571 61.299C94.0522 61.8415 94.1485 62.2729 93.576 62.3758C92.8905 62.5162 92.0121 62.0408 91.3207 61.2612L91.0498 60.9558C90.8574 60.7388 91.2391 60.7366 91.2391 60.7366L92.9722 60.6857Z" fill="#F0F1F5"/>
<path d="M94.4611 71.2622C94.6339 71.4564 94.8938 71.6243 95.1895 71.7326C95.4851 71.8409 95.795 71.8817 96.0577 71.8469L98.0481 71.7908C98.1799 71.9395 98.3117 72.1499 98.522 72.387C100.568 74.6936 103.177 75.1089 104.466 74.8451C105.873 74.557 106.001 73.6239 104.533 71.9541C104.015 71.334 103.406 70.7322 102.717 70.1608L93.702 70.4062L94.4611 71.2622ZM102.727 71.7587C102.936 71.9505 103.127 72.1478 103.3 72.349C103.774 72.8835 103.968 73.3707 103.138 73.5405C102.308 73.7104 101.047 73.3799 100.174 72.4096C100.121 72.3493 100.067 72.289 100.021 72.2368C99.6361 71.8028 100.207 71.8284 100.207 71.8284L102.727 71.7587Z" fill="#F0F1F5"/>
<path d="M94.1571 66.3162C95.425 66.0566 97.8972 66.3102 99.2087 67.789C99.6954 68.3133 99.9503 68.8733 99.9342 69.383C99.9342 69.383 100.714 69.4037 101.018 69.3891C101.321 69.3744 101.687 69.2094 101.39 68.5247C101.221 68.1089 100.949 67.6908 100.586 67.2886C98.5402 64.982 95.0504 64.2815 92.6589 64.7712C90.1075 65.2935 90.4248 66.8049 91.6401 68.1752C91.958 68.5603 92.369 68.9258 92.851 69.252C92.9909 69.3501 93.1554 69.4307 93.3293 69.4864C93.5032 69.542 93.681 69.571 93.8461 69.5705L95.3635 69.5305C94.5955 69.217 93.9304 68.7635 93.4838 68.2488C92.632 67.2884 92.92 66.5694 94.1571 66.3162" fill="#F0F1F5"/>
<path d="M88.8726 57.8582C88.7487 58.091 88.4974 58.2645 88.1537 58.3545C87.8099 58.4444 87.3908 58.4463 86.9547 58.36C85.2514 57.9197 83.5911 57.246 82.1022 56.3907C81.7484 56.169 81.4777 55.8986 81.3303 55.6199C81.183 55.3411 81.1669 55.069 81.2846 54.844C81.3501 54.707 81.4429 54.5813 81.5612 54.4693C81.5303 54.4756 83.9197 55.8856 85.6854 56.2079C87.3135 56.6153 89.4663 56.241 89.2573 55.4766C89.3481 55.9421 89.3539 56.3936 89.2747 56.8215C89.2018 57.1844 89.0711 57.5292 88.8845 57.851" fill="#F0F1F5"/>
<path d="M86.1715 55.9523C87.602 56.082 89.0587 55.7126 88.8825 55.0744C88.7063 54.4363 87.3093 54.0765 87.2379 54.0579C86.8887 53.9675 86.5385 53.9022 86.1944 53.8632L86.271 54.2037C86.4154 54.8254 86.3816 55.4185 86.1715 55.9523Z" fill="#F0F1F5"/>
<path d="M108.037 79.4653C107.915 79.6992 107.664 79.8734 107.32 79.9634C106.976 80.0535 106.556 80.0548 106.119 79.9672C104.416 79.5281 102.755 78.8541 101.267 77.9979C100.913 77.7762 100.642 77.5058 100.495 77.2271C100.348 76.9483 100.332 76.6761 100.449 76.4512C100.515 76.3142 100.608 76.1885 100.726 76.0764C100.695 76.0828 103.084 77.4928 104.85 77.815C106.482 78.2265 108.635 77.8522 108.422 77.0838C108.499 77.5439 108.493 77.9895 108.406 78.4117C108.338 78.7764 108.208 79.1215 108.016 79.4412" fill="#F0F1F5"/>
<path d="M105.336 77.5601C106.767 77.6898 108.227 77.3244 108.051 76.6862C107.875 76.0481 106.478 75.6884 106.406 75.6697C106.057 75.5774 105.706 75.512 105.363 75.475L105.436 75.8114C105.582 76.4335 105.548 77.0268 105.336 77.5601" fill="#F0F1F5"/>
</g>
</g>
<g filter="url(#filter0_d_1879_23718)">
<path d="M94.7254 53.0761L99.4448 52.1099L99.7984 52.5085L95.079 53.4747L94.7254 53.0761ZM97.9499 50.8755L98.4226 50.7787L101.089 53.7848L100.616 53.8815L97.9499 50.8755ZM96.9921 55.7257C96.7787 55.4851 96.6628 55.2542 96.6445 55.033C96.6308 54.8109 96.704 54.6177 96.8639 54.4534C97.027 54.2927 97.2708 54.1792 97.5953 54.1127C97.9245 54.0453 98.2662 54.039 98.6205 54.0938C98.9826 54.1512 99.3233 54.2597 99.6426 54.4192C99.9666 54.5778 100.234 54.7756 100.444 55.0127C100.616 55.2066 100.717 55.3896 100.747 55.5616C100.786 55.7363 100.754 55.889 100.654 56.02C100.561 56.1535 100.404 56.2556 100.184 56.3263L99.1467 56.5386C98.8877 56.5661 98.6235 56.5502 98.3541 56.4908C98.0879 56.435 97.8346 56.3404 97.5941 56.2072C97.3616 56.0766 97.1609 55.9161 96.9921 55.7257ZM97.5173 55.6882C97.7498 55.9504 98.0514 56.1369 98.422 56.2477C98.7957 56.3622 99.1708 56.3809 99.547 56.3039C99.7962 56.2528 99.9815 56.1704 100.103 56.0564C100.232 55.9451 100.289 55.8124 100.275 55.6584C100.268 55.5069 100.187 55.3432 100.031 55.1672C99.8717 54.9877 99.6758 54.8389 99.4434 54.721C99.2142 54.6067 98.9666 54.5279 98.7005 54.4848C98.4423 54.4443 98.1909 54.4491 97.9464 54.4992C97.7018 54.5492 97.5205 54.633 97.4025 54.7505C97.2876 54.8717 97.2382 55.0133 97.2543 55.1755C97.2704 55.3377 97.358 55.5086 97.5173 55.6882ZM97.8701 56.6217L98.7589 56.4397L99.6441 56.3476L100.374 56.109L101.186 55.9429L101.52 56.32L98.2045 56.9988L97.8701 56.6217ZM98.8828 57.7636L102.198 57.0848L102.533 57.4619L99.2173 58.1407L98.8828 57.7636ZM101.15 57.745L101.103 57.57C101.522 57.4843 101.922 57.4936 102.303 57.598C102.688 57.7059 103.002 57.8964 103.244 58.1693C103.355 58.295 103.426 58.4162 103.458 58.5329C103.494 58.6486 103.488 58.7643 103.441 58.8801L102.875 58.7031C102.91 58.6237 102.913 58.5425 102.884 58.4594C102.858 58.3798 102.804 58.2934 102.721 58.2C102.549 58.0061 102.324 57.8654 102.046 57.7779C101.773 57.6895 101.475 57.6785 101.15 57.745ZM98.9704 59.8172C98.8398 59.6699 98.7597 59.5357 98.73 59.4145C98.7002 59.2932 98.7099 59.1788 98.7589 59.0712L99.3032 59.2526C99.2663 59.3238 99.2593 59.3973 99.2822 59.4733C99.3019 59.5456 99.3484 59.6231 99.4217 59.7057C99.53 59.8278 99.6694 59.9223 99.8399 59.9893C100.01 60.0562 100.197 60.069 100.399 60.0276L104.131 59.2636L104.465 59.6407L100.741 60.4032C100.51 60.4504 100.284 60.4522 100.062 60.4085C99.8381 60.3694 99.6322 60.297 99.4439 60.1913C99.2557 60.0855 99.0978 59.9608 98.9704 59.8172ZM105.018 59.3048C104.954 59.233 104.933 59.1652 104.954 59.1014C104.98 59.0367 105.04 58.9947 105.134 58.9755C105.233 58.9552 105.337 58.9635 105.448 59.0003C105.558 59.0371 105.645 59.0915 105.709 59.1633C105.779 59.2423 105.802 59.3119 105.777 59.3721C105.756 59.4358 105.696 59.4778 105.597 59.498C105.503 59.5173 105.399 59.509 105.284 59.4732C105.176 59.4399 105.088 59.3838 105.018 59.3048ZM102.793 62.2667C102.567 62.0117 102.44 61.7682 102.412 61.5363C102.384 61.3044 102.45 61.1022 102.608 60.9297C102.769 60.7609 103.015 60.6428 103.344 60.5754C103.668 60.509 104.011 60.5067 104.371 60.5687C104.737 60.6297 105.082 60.7436 105.408 60.9103C105.734 61.077 106.005 61.2825 106.221 61.5267C106.425 61.7565 106.537 61.9734 106.557 62.1773C106.58 62.3848 106.513 62.5639 106.358 62.7145C106.21 62.8678 105.979 62.9767 105.664 63.0412C105.626 63.0489 105.58 63.0562 105.525 63.0632C105.475 63.0692 105.412 63.0736 105.337 63.0763L103.392 60.8837L103.815 60.7971L105.579 62.785L105.304 62.6821C105.552 62.6356 105.732 62.5604 105.846 62.4565C105.967 62.3553 106.019 62.2322 106.002 62.0873C105.992 61.9449 105.909 61.7858 105.753 61.6098C105.591 61.4266 105.397 61.2774 105.173 61.1621C104.948 61.0468 104.707 60.9689 104.449 60.9284C104.198 60.8905 103.946 60.8976 103.692 60.9496C103.438 61.0016 103.25 61.0868 103.127 61.2053C103.008 61.3274 102.958 61.4713 102.977 61.6371C102.999 61.8065 103.095 61.9864 103.264 62.1768C103.401 62.3312 103.562 62.4658 103.747 62.5807C103.937 62.6946 104.145 62.7815 104.37 62.8414L104.26 63.1503C103.972 63.0693 103.698 62.9514 103.438 62.7966C103.187 62.6445 102.972 62.4678 102.793 62.2667ZM104.667 64.2858L109.38 63.3211L109.714 63.6982L105.002 64.6629L104.667 64.2858ZM106.97 63.0569L107.414 62.966L108.881 64.6198L108.437 64.7108L106.97 63.0569ZM106.851 66.8421C106.638 66.6014 106.522 66.3705 106.504 66.1494C106.49 65.9273 106.563 65.734 106.723 65.5698C106.886 65.4091 107.13 65.2955 107.454 65.2291C107.784 65.1617 108.125 65.1554 108.48 65.2101C108.842 65.2676 109.182 65.376 109.502 65.5356C109.826 65.6942 110.093 65.892 110.303 66.129C110.475 66.3229 110.576 66.5059 110.607 66.6779C110.645 66.8526 110.614 67.0054 110.513 67.1363C110.42 67.2699 110.264 67.372 110.043 67.4426L109.006 67.6549C108.747 67.6825 108.483 67.6665 108.213 67.6071C107.947 67.5513 107.694 67.4568 107.453 67.3235C107.221 67.1929 107.02 67.0324 106.851 66.8421ZM107.376 66.8045C107.609 67.0667 107.911 67.2532 108.281 67.3641C108.655 67.4785 109.03 67.4972 109.406 67.4202C109.655 67.3692 109.841 67.2867 109.962 67.1728C110.091 67.0615 110.148 66.9288 110.134 66.7747C110.127 66.6233 110.046 66.4596 109.89 66.2836C109.731 66.104 109.535 65.9553 109.303 65.8373C109.073 65.723 108.826 65.6443 108.56 65.6011C108.301 65.5606 108.05 65.5654 107.806 65.6155C107.561 65.6656 107.38 65.7494 107.262 65.8669C107.147 65.988 107.097 66.1297 107.113 66.2919C107.13 66.4541 107.217 66.625 107.376 66.8045ZM107.729 67.738L108.618 67.5561L109.503 67.464L110.234 67.2253L111.045 67.0593L111.379 67.4364L108.064 68.1151L107.729 67.738ZM110.735 71.2208C110.509 70.9658 110.382 70.7223 110.354 70.4904C110.326 70.2585 110.391 70.0563 110.549 69.8838C110.711 69.715 110.956 69.5969 111.285 69.5295C111.61 69.463 111.952 69.4608 112.313 69.5228C112.678 69.5838 113.024 69.6977 113.349 69.8644C113.675 70.0311 113.946 70.2366 114.163 70.4808C114.367 70.7106 114.478 70.9275 114.498 71.1314C114.521 71.3389 114.455 71.518 114.299 71.6686C114.152 71.8219 113.921 71.9307 113.606 71.9953C113.568 72.003 113.522 72.0103 113.467 72.0173C113.416 72.0233 113.354 72.0277 113.278 72.0304L111.334 69.8378L111.757 69.7512L113.52 71.7391L113.245 71.6361C113.493 71.5897 113.674 71.5145 113.787 71.4106C113.909 71.3094 113.961 71.1863 113.943 71.0414C113.934 70.899 113.851 70.7399 113.695 70.5639C113.532 70.3807 113.339 70.2315 113.114 70.1162C112.89 70.0009 112.648 69.923 112.39 69.8825C112.14 69.8446 111.888 69.8517 111.634 69.9037C111.38 69.9557 111.191 70.0409 111.069 70.1594C110.949 70.2815 110.899 70.4254 110.918 70.5912C110.941 70.7606 111.036 70.9405 111.205 71.1309C111.342 71.2853 111.503 71.4199 111.688 71.5348C111.878 71.6487 112.086 71.7356 112.311 71.7955L112.202 72.1044C111.913 72.0234 111.639 71.9055 111.38 71.7507C111.128 71.5985 110.913 71.4219 110.735 71.2208ZM112.339 72.9361L115.655 72.2573L115.989 72.6344L112.674 73.3132L112.339 72.9361ZM113.883 74.6762L115.914 74.2602C116.187 74.2044 116.348 74.0972 116.396 73.9388C116.449 73.7794 116.391 73.6045 116.223 73.4142C116.108 73.2849 115.965 73.1741 115.794 73.0817C115.631 72.992 115.456 72.9283 115.267 72.8906C115.081 72.8565 114.896 72.8583 114.713 72.8958L114.651 72.7046C114.905 72.6527 115.165 72.6505 115.429 72.6982C115.694 72.7459 115.942 72.8309 116.172 72.9534C116.406 73.0795 116.605 73.2341 116.767 73.4173C116.926 73.5968 117.016 73.7673 117.037 73.9285C117.061 74.0933 117.016 74.2363 116.901 74.3574C116.789 74.4821 116.604 74.571 116.345 74.6239L114.222 75.0586L113.883 74.6762ZM115.431 76.4216L117.462 76.0057C117.735 75.9498 117.896 75.8427 117.944 75.6842C117.997 75.5248 117.938 75.3482 117.766 75.1542C117.654 75.0285 117.513 74.9195 117.342 74.8272C117.18 74.7375 117.004 74.6738 116.815 74.6361C116.629 74.602 116.444 74.6037 116.261 74.6413L116.152 74.3962C116.415 74.355 116.681 74.36 116.949 74.4113C117.22 74.4662 117.472 74.5566 117.706 74.6827C117.943 74.8124 118.142 74.967 118.301 75.1466C118.46 75.3261 118.552 75.4983 118.576 75.6632C118.603 75.8316 118.559 75.9764 118.444 76.0975C118.332 76.2222 118.147 76.311 117.889 76.364L115.765 76.7987L115.431 76.4216ZM116.394 77.5078L119.71 76.829L120.049 77.2115L116.733 77.8903L116.394 77.5078ZM120.597 76.8703C120.533 76.7985 120.512 76.7307 120.533 76.6669C120.559 76.6022 120.619 76.5602 120.713 76.5409C120.812 76.5207 120.916 76.529 121.027 76.5658C121.137 76.6026 121.224 76.6569 121.288 76.7288C121.358 76.8078 121.381 76.8774 121.356 76.9375C121.335 77.0013 121.275 77.0433 121.176 77.0635C121.082 77.0827 120.978 77.0745 120.863 77.0386C120.755 77.0054 120.667 76.9493 120.597 76.8703ZM117.76 79.048L122.472 78.0832L122.807 78.4603L118.095 79.4251L117.76 79.048ZM120.063 77.8191L120.507 77.7281L121.974 79.382L121.53 79.473L120.063 77.8191ZM119.119 80.5802L122.435 79.9014L122.774 80.2839L119.458 80.9627L119.119 80.5802ZM123.321 79.9427C123.258 79.8708 123.237 79.803 123.258 79.7393C123.284 79.6746 123.344 79.6326 123.438 79.6133C123.537 79.5931 123.641 79.6014 123.752 79.6382C123.862 79.675 123.949 79.7293 124.013 79.8011C124.083 79.8801 124.106 79.9497 124.081 80.0099C124.06 80.0737 124 80.1157 123.901 80.1359C123.807 80.1551 123.703 80.1468 123.587 80.111C123.48 80.0778 123.392 80.0217 123.321 79.9427ZM121.021 82.819C120.814 82.5855 120.703 82.36 120.688 82.1425C120.673 81.9249 120.745 81.734 120.905 81.5697C121.073 81.408 121.319 81.294 121.644 81.2275C121.973 81.1601 122.315 81.1538 122.669 81.2086C123.031 81.266 123.37 81.3727 123.686 81.5287C124.007 81.6836 124.271 81.8779 124.478 82.1113C124.647 82.3016 124.75 82.4841 124.789 82.6588C124.827 82.8335 124.799 82.9898 124.704 83.1279C124.618 83.2687 124.461 83.3731 124.232 83.4411L123.195 83.6534C122.936 83.6809 122.67 83.6632 122.398 83.6002C122.133 83.5398 121.88 83.443 121.64 83.3098C121.4 83.1765 121.193 83.0129 121.021 82.819ZM121.551 82.7869C121.707 82.9628 121.896 83.1067 122.117 83.2184C122.343 83.3291 122.584 83.4029 122.839 83.4399C123.099 83.4758 123.351 83.4687 123.595 83.4187C123.845 83.3676 124.028 83.2834 124.146 83.1658C124.268 83.0519 124.323 82.9174 124.314 82.7624C124.304 82.6074 124.221 82.4419 124.065 82.2659C123.909 82.0899 123.716 81.9447 123.487 81.8304C123.258 81.7161 123.012 81.6391 122.749 81.5996C122.494 81.5627 122.244 81.5693 122 81.6193C121.755 81.6694 121.57 81.7519 121.444 81.8668C121.326 81.9843 121.273 82.1224 121.286 82.281C121.307 82.4423 121.395 82.6109 121.551 82.7869ZM122.253 84.1136L121.918 83.7365L122.807 83.5545L123.692 83.4624L124.423 83.2238L126.913 82.714L127.247 83.0911L122.253 84.1136ZM123.835 85.9918C123.622 85.7512 123.506 85.5203 123.488 85.2991C123.474 85.077 123.547 84.8838 123.707 84.7195C123.87 84.5588 124.114 84.4453 124.439 84.3788C124.768 84.3114 125.109 84.3051 125.464 84.3599C125.826 84.4173 126.167 84.5258 126.486 84.6853C126.81 84.8439 127.077 85.0417 127.287 85.2788C127.459 85.4727 127.56 85.6557 127.591 85.8277C127.629 86.0024 127.598 86.1551 127.497 86.2861C127.404 86.4196 127.248 86.5217 127.027 86.5924L125.99 86.8047C125.731 86.8322 125.467 86.8163 125.197 86.7569C124.931 86.7011 124.678 86.6065 124.437 86.4733C124.205 86.3426 124.004 86.1822 123.835 85.9918ZM124.361 85.9543C124.593 86.2165 124.895 86.403 125.265 86.5138C125.639 86.6283 126.014 86.647 126.39 86.57C126.64 86.5189 126.825 86.4365 126.946 86.3225C127.075 86.2112 127.132 86.0785 127.118 85.9245C127.112 85.773 127.03 85.6093 126.874 85.4333C126.715 85.2538 126.519 85.105 126.287 84.9871C126.057 84.8728 125.81 84.794 125.544 84.7509C125.286 84.7104 125.034 84.7152 124.79 84.7653C124.545 84.8153 124.364 84.8991 124.246 85.0166C124.131 85.1378 124.081 85.2794 124.098 85.4416C124.114 85.6038 124.201 85.7747 124.361 85.9543ZM124.713 86.8878L125.602 86.7058L126.487 86.6137L127.218 86.3751L128.029 86.209L128.363 86.5861L125.048 87.2649L124.713 86.8878ZM127.843 90.5106C127.671 90.3167 127.568 90.1319 127.535 89.9563C127.501 89.7807 127.529 89.6243 127.619 89.4871C127.716 89.3526 127.875 89.25 128.096 89.1794L129.133 88.9671C129.397 88.9386 129.663 88.9563 129.93 89.0203C130.203 89.0833 130.457 89.1819 130.693 89.3161C130.932 89.4539 131.134 89.6162 131.3 89.8029C131.507 90.0364 131.616 90.2624 131.626 90.4809C131.641 90.6985 131.565 90.8881 131.397 91.0497C131.237 91.214 130.992 91.3299 130.663 91.3973C130.339 91.4637 129.999 91.4695 129.645 91.4147C129.291 91.36 128.952 91.2533 128.628 91.0947C128.312 90.9388 128.05 90.7441 127.843 90.5106ZM128.258 90.3492C128.418 90.5288 128.61 90.6762 128.834 90.7915C129.063 90.9058 129.305 90.9815 129.56 91.0184C129.823 91.0579 130.077 91.0526 130.322 91.0026C130.571 90.9515 130.754 90.8673 130.873 90.7497C130.994 90.6358 131.048 90.4995 131.035 90.3409C131.022 90.1823 130.938 90.015 130.782 89.839C130.626 89.663 130.433 89.5179 130.204 89.4035C129.978 89.2928 129.737 89.219 129.482 89.1821C129.227 89.1452 128.975 89.1522 128.726 89.2032C128.481 89.2533 128.296 89.3358 128.17 89.4507C128.049 89.5646 127.993 89.6991 128.003 89.8541C128.017 90.0082 128.102 90.1732 128.258 90.3492ZM125.356 89.473L130.068 88.5083L130.403 88.8854L129.556 89.0587L128.685 89.1479L127.941 89.3894L125.69 89.8501L125.356 89.473ZM130.495 93.5003C130.278 93.2561 130.158 93.0175 130.135 92.7846C130.115 92.5553 130.184 92.3544 130.342 92.182C130.504 92.0132 130.747 91.8955 131.071 91.8291C131.391 91.7636 131.731 91.7619 132.092 91.8238C132.456 91.8894 132.8 92.0055 133.126 92.1723C133.46 92.3416 133.735 92.5484 133.951 92.7926C134.171 93.0404 134.293 93.2785 134.318 93.5068C134.343 93.7352 134.274 93.9338 134.113 94.1026C133.959 94.2741 133.723 94.3926 133.403 94.458C133.074 94.5254 132.725 94.5268 132.356 94.4622C131.996 94.4003 131.65 94.2864 131.32 94.1206C130.99 93.9549 130.714 93.7481 130.495 93.5003ZM130.974 93.4021C131.134 93.5817 131.328 93.7286 131.557 93.8429C131.789 93.9609 132.037 94.0396 132.3 94.0791C132.566 94.1223 132.819 94.1193 133.059 94.0702C133.299 94.0211 133.474 93.9364 133.584 93.8163C133.702 93.6988 133.753 93.5589 133.737 93.3967C133.724 93.2381 133.638 93.069 133.479 92.8894C133.323 92.7134 133.128 92.5665 132.896 92.4485C132.664 92.3306 132.418 92.2514 132.16 92.2109C131.907 92.1694 131.66 92.1733 131.42 92.2224C131.176 92.2724 130.992 92.3567 130.869 92.4752C130.751 92.5927 130.7 92.7326 130.716 92.8948C130.732 93.057 130.818 93.2261 130.974 93.4021ZM132.263 95.4002L135.579 94.7214L135.913 95.0986L132.598 95.7773L132.263 95.4002ZM134.53 95.3816L134.484 95.2066C134.902 95.1209 135.302 95.1303 135.684 95.2346C136.068 95.3426 136.382 95.533 136.624 95.806C136.735 95.9317 136.807 96.0529 136.838 96.1695C136.874 96.2853 136.868 96.401 136.821 96.5168L136.255 96.3397C136.291 96.2604 136.294 96.1792 136.264 96.096C136.238 96.0165 136.184 95.93 136.101 95.8367C135.929 95.6427 135.704 95.502 135.427 95.4146C135.154 95.3262 134.855 95.3152 134.53 95.3816ZM134.477 97.9901C134.397 97.9003 134.372 97.8185 134.401 97.7447C134.433 97.6744 134.503 97.6282 134.611 97.6061C134.729 97.582 134.849 97.5892 134.972 97.6277C135.103 97.6688 135.208 97.7342 135.288 97.824C135.364 97.9102 135.388 97.9902 135.359 98.064C135.338 98.1405 135.269 98.1908 135.151 98.2148C135.043 98.237 134.922 98.2257 134.788 98.181C134.657 98.1399 134.553 98.0763 134.477 97.9901ZM136.699 97.5352C136.619 97.4454 136.594 97.3636 136.623 97.2897C136.655 97.2195 136.725 97.1733 136.833 97.1512C136.951 97.1271 137.071 97.1343 137.194 97.1727C137.32 97.2148 137.423 97.2807 137.503 97.3705C137.579 97.4567 137.606 97.5362 137.581 97.6091C137.56 97.6856 137.491 97.7358 137.373 97.7599C137.265 97.7821 137.144 97.7708 137.01 97.7261C136.879 97.685 136.775 97.6214 136.699 97.5352Z" fill="#D1D4E0"/>
</g>
<path d="M9.91615 67.2192L13.7389 66.4366L14.0253 66.7595L10.2025 67.5421L9.91615 67.2192ZM12.528 65.4367L12.9109 65.3583L15.0704 67.7933L14.6876 67.8716L12.528 65.4367ZM11.7522 69.3654C11.5793 69.1705 11.4854 68.9835 11.4706 68.8044C11.4596 68.6244 11.5188 68.468 11.6483 68.3349C11.7804 68.2047 11.9779 68.1127 12.2408 68.0589C12.5074 68.0043 12.7842 67.9992 13.0712 68.0436C13.3645 68.0901 13.6404 68.178 13.8991 68.3072C14.1615 68.4356 14.3779 68.5959 14.5482 68.7879C14.6875 68.945 14.7695 69.0932 14.794 69.2325C14.825 69.374 14.7997 69.4977 14.7182 69.6038C14.6431 69.712 14.5162 69.7947 14.3374 69.8519L13.4974 70.0239C13.2876 70.0462 13.0736 70.0333 12.8554 69.9852C12.6398 69.9399 12.4346 69.8634 12.2398 69.7554C12.0515 69.6496 11.8889 69.5196 11.7522 69.3654ZM12.1776 69.3351C12.3659 69.5474 12.6102 69.6985 12.9104 69.7883C13.2131 69.881 13.5169 69.8961 13.8217 69.8337C14.0235 69.7924 14.1736 69.7256 14.2718 69.6333C14.3764 69.5432 14.4228 69.4357 14.4112 69.3109C14.4059 69.1882 14.3401 69.0556 14.2136 68.9131C14.0846 68.7676 13.926 68.6471 13.7378 68.5516C13.5521 68.459 13.3515 68.3952 13.136 68.3603C12.9268 68.3275 12.7232 68.3314 12.5251 68.3719C12.3271 68.4125 12.1802 68.4803 12.0846 68.5755C11.9916 68.6737 11.9515 68.7884 11.9646 68.9198C11.9776 69.0512 12.0486 69.1896 12.1776 69.3351ZM12.4634 70.0912L13.1833 69.9438L13.9004 69.8692L14.4919 69.6759L15.149 69.5414L15.4199 69.8468L12.7343 70.3967L12.4634 70.0912ZM13.2837 71.0161L15.9693 70.4663L16.2402 70.7718L13.5546 71.3216L13.2837 71.0161ZM15.1203 71.001L15.0823 70.8593C15.4213 70.7899 15.7454 70.7974 16.0544 70.882C16.366 70.9694 16.6199 71.1237 16.816 71.3448C16.9063 71.4466 16.9641 71.5448 16.9894 71.6393C17.0185 71.733 17.0139 71.8268 16.9755 71.9205L16.5175 71.7771C16.546 71.7129 16.5484 71.6471 16.5247 71.5797C16.5036 71.5153 16.4595 71.4453 16.3924 71.3696C16.2531 71.2125 16.071 71.0986 15.8461 71.0277C15.6251 70.9561 15.3831 70.9472 15.1203 71.001ZM13.3546 72.6795C13.2489 72.5603 13.1839 72.4515 13.1599 72.3534C13.1358 72.2552 13.1436 72.1625 13.1833 72.0753L13.6242 72.2222C13.5943 72.2799 13.5886 72.3395 13.6072 72.401C13.6232 72.4596 13.6608 72.5223 13.7202 72.5892C13.8079 72.6882 13.9208 72.7647 14.0589 72.8189C14.197 72.8732 14.348 72.8835 14.5118 72.85L17.5346 72.2311L17.8055 72.5366L14.7884 73.1543C14.6017 73.1925 14.4185 73.1939 14.2386 73.1585C14.0575 73.1269 13.8907 73.0682 13.7382 72.9826C13.5857 72.8969 13.4578 72.7959 13.3546 72.6795ZM18.2528 72.2645C18.2012 72.2064 18.184 72.1514 18.2013 72.0998C18.2223 72.0474 18.2709 72.0134 18.3471 71.9978C18.4271 71.9814 18.5118 71.9881 18.6012 72.0179C18.6907 72.0477 18.7612 72.0917 18.8128 72.1499C18.8696 72.2139 18.8881 72.2703 18.8683 72.319C18.8511 72.3706 18.8025 72.4047 18.7225 72.421C18.6463 72.4366 18.5616 72.4299 18.4683 72.4009C18.3814 72.374 18.3096 72.3285 18.2528 72.2645ZM16.4512 74.6637C16.268 74.4571 16.1651 74.2599 16.1425 74.0721C16.12 73.8842 16.1728 73.7204 16.3009 73.5807C16.4317 73.444 16.6304 73.3483 16.8971 73.2937C17.1599 73.2399 17.4374 73.2381 17.7295 73.2883C18.0254 73.3377 18.3052 73.4299 18.569 73.565C18.8328 73.7 19.0524 73.8665 19.2279 74.0643C19.393 74.2505 19.4836 74.4261 19.4995 74.5913C19.518 74.7594 19.4644 74.9044 19.3385 75.0264C19.2191 75.1505 19.0317 75.2387 18.7765 75.291C18.746 75.2972 18.7086 75.3032 18.6641 75.3089C18.6234 75.3137 18.5725 75.3173 18.5115 75.3195L16.9363 73.5435L17.2791 73.4733L18.7072 75.0835L18.4848 75.0001C18.6854 74.9625 18.8317 74.9016 18.9237 74.8175C19.022 74.7355 19.0641 74.6357 19.05 74.5183C19.0422 74.403 18.9752 74.2741 18.8487 74.1316C18.7172 73.9832 18.5604 73.8623 18.3786 73.769C18.1967 73.6756 18.0012 73.6125 17.7921 73.5797C17.5893 73.549 17.3851 73.5547 17.1794 73.5968C16.9737 73.6389 16.8211 73.708 16.7217 73.804C16.6249 73.9028 16.5842 74.0194 16.5998 74.1537C16.618 74.2909 16.6955 74.4366 16.8322 74.5908C16.9431 74.7159 17.0736 74.825 17.2237 74.918C17.3775 75.0103 17.5457 75.0807 17.7283 75.1292L17.6396 75.3794C17.4059 75.3138 17.1839 75.2183 16.9737 75.0929C16.7698 74.9697 16.5957 74.8266 16.4512 74.6637ZM17.9693 76.2992L21.7863 75.5177L22.0572 75.8232L18.2402 76.6046L17.9693 76.2992ZM19.8344 75.3038L20.1944 75.2301L21.3825 76.5697L21.0225 76.6434L19.8344 75.3038ZM19.7381 78.3697C19.5653 78.1748 19.4714 77.9878 19.4566 77.8087C19.4455 77.6288 19.5048 77.4723 19.6343 77.3392C19.7664 77.209 19.9639 77.117 20.2268 77.0632C20.4934 77.0086 20.7702 77.0035 21.0571 77.0479C21.3505 77.0944 21.6264 77.1823 21.8851 77.3115C22.1475 77.4399 22.3639 77.6002 22.5342 77.7922C22.6735 77.9493 22.7555 78.0975 22.78 78.2368C22.811 78.3783 22.7857 78.502 22.7042 78.6081C22.6291 78.7163 22.5022 78.799 22.3234 78.8562L21.4834 79.0282C21.2736 79.0505 21.0596 79.0376 20.8414 78.9895C20.6258 78.9442 20.4206 78.8677 20.2258 78.7597C20.0374 78.6539 19.8749 78.5239 19.7381 78.3697ZM20.1636 78.3394C20.3519 78.5517 20.5962 78.7028 20.8964 78.7926C21.1991 78.8853 21.5029 78.9004 21.8076 78.838C22.0095 78.7967 22.1596 78.7299 22.2578 78.6376C22.3624 78.5475 22.4088 78.44 22.3972 78.3152C22.3919 78.1925 22.3261 78.0599 22.1996 77.9174C22.0706 77.7719 21.912 77.6514 21.7238 77.5559C21.5381 77.4633 21.3375 77.3995 21.122 77.3646C20.9128 77.3318 20.7092 77.3357 20.5111 77.3762C20.313 77.4168 20.1662 77.4847 20.0706 77.5798C19.9775 77.678 19.9375 77.7927 19.9505 77.9241C19.9636 78.0555 20.0346 78.1939 20.1636 78.3394ZM20.4493 79.0955L21.1693 78.9481L21.8863 78.8735L22.4779 78.6802L23.135 78.5457L23.4059 78.8511L20.7203 79.401L20.4493 79.0955ZM22.818 81.8424C22.6503 81.6533 22.5603 81.4706 22.5481 81.2944C22.5358 81.1181 22.5945 80.9635 22.724 80.8304C22.8599 80.6995 23.0593 80.6071 23.3221 80.5533C23.5888 80.4987 23.8656 80.4936 24.1525 80.538C24.4458 80.5845 24.7205 80.6709 24.9766 80.7972C25.2365 80.9227 25.4503 81.0801 25.618 81.2691C25.7547 81.4233 25.8385 81.5712 25.8695 81.7126C25.9004 81.8541 25.8778 81.9808 25.8014 82.0926C25.7315 82.2066 25.6039 82.2912 25.4187 82.3463L24.5788 82.5182C24.369 82.5406 24.1537 82.5262 23.9329 82.4752C23.7185 82.4263 23.5139 82.3478 23.3192 82.2399C23.1244 82.132 22.9574 81.9995 22.818 81.8424ZM23.2473 81.8163C23.3738 81.9589 23.5266 82.0754 23.7059 82.1659C23.889 82.2556 24.0838 82.3154 24.2903 82.3453C24.5007 82.3744 24.7049 82.3687 24.903 82.3281C25.1049 82.2868 25.2537 82.2185 25.3493 82.1233C25.4475 82.031 25.4927 81.9221 25.4848 81.7965C25.477 81.671 25.4098 81.5369 25.2834 81.3944C25.157 81.2518 25.0009 81.1342 24.8153 81.0416C24.6296 80.949 24.4303 80.8867 24.2174 80.8547C24.0108 80.8248 23.8085 80.8301 23.6104 80.8707C23.4123 80.9112 23.2622 80.978 23.1602 81.0711C23.0646 81.1663 23.022 81.2781 23.0325 81.4066C23.0493 81.5372 23.1209 81.6738 23.2473 81.8163ZM23.8156 82.891L23.5447 82.5856L24.2647 82.4382L24.9817 82.3636L25.5732 82.1703L27.5903 81.7573L27.8612 82.0628L23.8156 82.891ZM25.1477 84.4691C24.9645 84.2626 24.8617 84.0654 24.8391 83.8775C24.8165 83.6896 24.8693 83.5259 24.9975 83.3862C25.1282 83.2494 25.3269 83.1537 25.5936 83.0991C25.8564 83.0453 26.1339 83.0435 26.426 83.0937C26.7219 83.1431 27.0017 83.2354 27.2655 83.3704C27.5293 83.5055 27.749 83.6719 27.9244 83.8697C28.0896 84.0559 28.1801 84.2316 28.196 84.3967C28.2146 84.5648 28.1609 84.7098 28.0351 84.8319C27.9156 84.956 27.7283 85.0442 27.473 85.0964C27.4426 85.1027 27.4051 85.1086 27.3606 85.1143C27.3199 85.1192 27.2691 85.1227 27.208 85.1249L25.6328 83.3489L25.9757 83.2787L27.4038 84.8889L27.1813 84.8056C27.382 84.7679 27.5283 84.707 27.6202 84.6229C27.7185 84.5409 27.7606 84.4412 27.7465 84.3238C27.7388 84.2085 27.6717 84.0796 27.5453 83.937C27.4137 83.7887 27.257 83.6678 27.0751 83.5744C26.8933 83.481 26.6978 83.4179 26.4886 83.3851C26.2859 83.3544 26.0816 83.3601 25.8759 83.4023C25.6702 83.4444 25.5177 83.5134 25.4182 83.6094C25.3214 83.7083 25.2808 83.8249 25.2964 83.9592C25.3145 84.0964 25.392 84.2421 25.5287 84.3963C25.6397 84.5214 25.7702 84.6304 25.9202 84.7234C26.074 84.8157 26.2422 84.8861 26.4248 84.9346L26.3361 85.1848C26.1024 85.1192 25.8805 85.0238 25.6702 84.8984C25.4664 84.7751 25.2922 84.632 25.1477 84.4691ZM28.0501 87.7415C27.872 87.5408 27.7717 87.3465 27.7492 87.1587C27.733 86.9729 27.789 86.8102 27.9171 86.6705C28.0479 86.5338 28.2447 86.4385 28.5076 86.3847C28.7704 86.3309 29.0479 86.3291 29.34 86.3793C29.6384 86.4316 29.9196 86.5253 30.1834 86.6603C30.4498 86.7983 30.672 86.9676 30.85 87.1683C30.9867 87.3225 31.0764 87.4743 31.1189 87.6237C31.1614 87.7731 31.1553 87.9084 31.1007 88.0296L30.6542 87.8839C30.6951 87.793 30.6984 87.6926 30.664 87.5828C30.6334 87.4722 30.5678 87.3602 30.4671 87.2467C30.3381 87.1013 30.1795 86.9808 29.9913 86.8853C29.803 86.7897 29.6043 86.7256 29.3952 86.6928C29.1899 86.6592 28.9882 86.6627 28.7901 86.7032C28.5958 86.743 28.449 86.8109 28.3495 86.9068C28.2539 87.002 28.2126 87.1153 28.2256 87.2467C28.2386 87.3781 28.3096 87.5165 28.4386 87.662C28.5418 87.7784 28.664 87.8805 28.805 87.9685C28.9499 88.0557 29.1047 88.1237 29.2695 88.1725L29.1828 88.4326C28.9567 88.3654 28.745 88.2713 28.5475 88.1502C28.3526 88.0319 28.1868 87.8957 28.0501 87.7415ZM29.1801 88.9395L31.8657 88.3897L32.1366 88.6951L29.451 89.245L29.1801 88.9395ZM31.0166 88.9244L30.9787 88.7827C31.3177 88.7133 31.6418 88.7208 31.9508 88.8054C32.2624 88.8928 32.5163 89.0471 32.7124 89.2682C32.8027 89.37 32.8605 89.4681 32.8858 89.5627C32.9149 89.6564 32.9103 89.7501 32.8719 89.8439L32.4139 89.7005C32.4424 89.6362 32.4448 89.5704 32.4211 89.5031C32.4 89.4387 32.3559 89.3687 32.2888 89.293C32.1495 89.1359 31.9674 89.022 31.7425 88.9511C31.5215 88.8795 31.2795 88.8706 31.0166 88.9244ZM31.433 91.5558C31.2498 91.3492 31.1469 91.152 31.1243 90.9642C31.1017 90.7763 31.1545 90.6125 31.2827 90.4729C31.4135 90.3361 31.6122 90.2404 31.8788 90.1858C32.1417 90.132 32.4192 90.1302 32.7112 90.1804C33.0071 90.2298 33.287 90.3221 33.5508 90.4571C33.8146 90.5921 34.0342 90.7586 34.2097 90.9564C34.3748 91.1426 34.4653 91.3182 34.4813 91.4834C34.4998 91.6515 34.4462 91.7965 34.3203 91.9185C34.2009 92.0427 34.0135 92.1309 33.7583 92.1831C33.7278 92.1894 33.6903 92.1953 33.6458 92.201C33.6052 92.2059 33.5543 92.2094 33.4932 92.2116L31.9181 90.4356L32.2609 90.3654L33.689 91.9756L33.4665 91.8922C33.6672 91.8546 33.8135 91.7937 33.9054 91.7096C34.0037 91.6276 34.0458 91.5279 34.0317 91.4105C34.024 91.2952 33.9569 91.1663 33.8305 91.0237C33.6989 90.8753 33.5422 90.7545 33.3603 90.6611C33.1785 90.5677 32.983 90.5046 32.7739 90.4718C32.5711 90.4411 32.3669 90.4468 32.1612 90.4889C31.9555 90.5311 31.8029 90.6001 31.7035 90.6961C31.6066 90.795 31.566 90.9116 31.5816 91.0459C31.5998 91.1831 31.6772 91.3288 31.814 91.4829C31.9249 91.608 32.0554 91.7171 32.2054 91.8101C32.3593 91.9024 32.5275 91.9728 32.7101 92.0213L32.6214 92.2715C32.3877 92.2059 32.1657 92.1104 31.9555 91.985C31.7516 91.8618 31.5774 91.7187 31.433 91.5558ZM34.3258 90.6078L34.3848 90.4307L35.8024 90.8262L35.6991 91.1361L34.3258 90.6078ZM33.4496 93.8296C33.2819 93.6405 33.192 93.4579 33.1797 93.2816C33.1674 93.1054 33.2261 92.9508 33.3556 92.8177C33.4915 92.6867 33.6909 92.5944 33.9538 92.5406C34.2204 92.486 34.4972 92.4809 34.7841 92.5252C35.0774 92.5717 35.3521 92.6582 35.6082 92.7845C35.8681 92.91 36.0819 93.0673 36.2496 93.2564C36.3863 93.4106 36.4702 93.5584 36.5011 93.6999C36.5321 93.8414 36.5094 93.968 36.433 94.0799C36.3631 94.1939 36.2355 94.2785 36.0504 94.3335L35.2104 94.5055C35.0006 94.5278 34.7853 94.5135 34.5645 94.4624C34.3501 94.4135 34.1455 94.3351 33.9508 94.2272C33.756 94.1192 33.589 93.9867 33.4496 93.8296ZM33.8789 93.8036C34.0054 93.9462 34.1582 94.0627 34.3375 94.1532C34.5206 94.2429 34.7154 94.3027 34.9219 94.3325C35.1323 94.3617 35.3365 94.3559 35.5346 94.3154C35.7365 94.2741 35.8853 94.2058 35.9809 94.1106C36.0791 94.0183 36.1243 93.9094 36.1164 93.7838C36.1086 93.6582 36.0414 93.5242 35.915 93.3816C35.7886 93.2391 35.6325 93.1215 35.4469 93.0289C35.2612 92.9363 35.0619 92.874 34.849 92.8419C34.6424 92.812 34.4401 92.8174 34.242 92.8579C34.0439 92.8985 33.8939 92.9653 33.7919 93.0584C33.6962 93.1536 33.6536 93.2654 33.6641 93.3939C33.6809 93.5245 33.7525 93.6611 33.8789 93.8036ZM34.4472 94.8783L34.1763 94.5728L34.8963 94.4254L35.6133 94.3508L36.2048 94.1576L38.2219 93.7446L38.4928 94.0501L34.4472 94.8783ZM34.9967 95.4978L37.6823 94.9479L37.9571 95.2578L35.2714 95.8076L34.9967 95.4978ZM38.4006 94.9814C38.349 94.9232 38.3318 94.8683 38.349 94.8166C38.37 94.7642 38.4186 94.7302 38.4948 94.7146C38.5748 94.6982 38.6595 94.7049 38.749 94.7347C38.8384 94.7645 38.909 94.8085 38.9606 94.8667C39.0173 94.9307 39.0358 94.9871 39.016 95.0358C38.9988 95.0875 38.9502 95.1215 38.8702 95.1379C38.794 95.1534 38.7093 95.1467 38.616 95.1177C38.5292 95.0908 38.4573 95.0454 38.4006 94.9814ZM36.1031 96.7453L39.9201 95.9639L40.191 96.2693L36.374 97.0508L36.1031 96.7453ZM37.9682 95.7499L38.3282 95.6762L39.5163 97.0158L39.1563 97.0895L37.9682 95.7499ZM37.9068 98.8551C37.7314 98.6573 37.6343 98.4641 37.6155 98.2754C37.5993 98.0897 37.6553 97.927 37.7835 97.7873C37.9142 97.6506 38.111 97.5553 38.3739 97.5015C38.6329 97.4484 38.9085 97.447 39.2006 97.4972C39.4952 97.5503 39.7745 97.6444 40.0383 97.7794C40.3085 97.9166 40.5313 98.0841 40.7067 98.2819C40.8848 98.4826 40.9838 98.6755 41.0038 98.8604C41.0238 99.0454 40.9684 99.2063 40.8376 99.343C40.7133 99.4819 40.5216 99.5779 40.2625 99.6309C39.9959 99.6855 39.7133 99.6866 39.4148 99.6343C39.1227 99.5841 38.8429 99.4919 38.5753 99.3576C38.3077 99.2234 38.0848 99.0559 37.9068 98.8551ZM38.2954 98.7756C38.4244 98.921 38.5817 99.0401 38.7674 99.1327C38.9556 99.2282 39.1562 99.292 39.3692 99.324C39.5847 99.3589 39.7896 99.3565 39.9839 99.3167C40.1781 99.277 40.3199 99.2084 40.4091 99.1111C40.5047 99.0159 40.546 98.9026 40.533 98.7712C40.5226 98.6427 40.4529 98.5058 40.3239 98.3603C40.1975 98.2177 40.0401 98.0987 39.8519 98.0032C39.6636 97.9077 39.465 97.8435 39.2558 97.8107C39.0505 97.7771 38.8507 97.7802 38.6564 97.82C38.4583 97.8606 38.3096 97.9288 38.2101 98.0248C38.1145 98.12 38.0732 98.2333 38.0862 98.3647C38.0992 98.4961 38.1689 98.633 38.2954 98.7756ZM40.1707 101.332L42.8564 100.782L43.1311 101.092L40.4455 101.641L40.1707 101.332ZM43.5747 100.815C43.5231 100.757 43.5059 100.702 43.5231 100.65C43.5441 100.598 43.5927 100.564 43.6689 100.548C43.7489 100.532 43.8336 100.539 43.9231 100.569C44.0125 100.598 44.083 100.642 44.1346 100.701C44.1914 100.765 44.2099 100.821 44.1901 100.87C44.1729 100.921 44.1243 100.955 44.0443 100.972C43.9681 100.987 43.8834 100.981 43.7901 100.952C43.7032 100.925 43.6314 100.879 43.5747 100.815ZM41.7619 103.202C41.5864 103.004 41.4893 102.811 41.4705 102.622C41.4543 102.436 41.5103 102.274 41.6385 102.134C41.7693 101.997 41.9661 101.902 42.2289 101.848C42.488 101.795 42.7635 101.794 43.0556 101.844C43.3503 101.897 43.6295 101.991 43.8933 102.126C44.1635 102.263 44.3863 102.431 44.5618 102.629C44.7398 102.829 44.8388 103.022 44.8588 103.207C44.8788 103.392 44.8234 103.553 44.6927 103.69C44.5683 103.829 44.3766 103.924 44.1176 103.978C43.8509 104.032 43.5683 104.033 43.2699 103.981C42.9778 103.931 42.6979 103.838 42.4303 103.704C42.1627 103.57 41.9399 103.402 41.7619 103.202ZM42.1504 103.122C42.2794 103.268 42.4368 103.387 42.6224 103.479C42.8107 103.575 43.0112 103.639 43.2242 103.671C43.4397 103.706 43.6446 103.703 43.8389 103.663C44.0332 103.624 44.1749 103.555 44.2642 103.458C44.3598 103.362 44.4011 103.249 44.3881 103.118C44.3776 102.989 44.3079 102.852 44.1789 102.707C44.0525 102.564 43.8952 102.445 43.7069 102.35C43.5187 102.254 43.32 102.19 43.1109 102.157C42.9055 102.124 42.7057 102.127 42.5114 102.167C42.3134 102.207 42.1646 102.275 42.0652 102.371C41.9696 102.467 41.9283 102.58 41.9413 102.711C41.9543 102.843 42.024 102.98 42.1504 103.122ZM44.9546 106.725L47.8255 104.725L48.1351 105.074L45.5839 106.818L45.4716 106.692L49.8651 107.025L50.167 107.365L45.1675 106.965L44.9546 106.725ZM46.7183 108.714L50.6496 107.909L50.9321 108.228L47.0008 109.033L46.7183 108.714ZM48.3073 110.582C48.1009 110.349 47.98 110.137 47.9447 109.945C47.9131 109.752 47.9453 109.57 48.0413 109.399L48.5244 109.563C48.4281 109.703 48.3935 109.849 48.4208 110.002C48.4506 110.157 48.5481 110.328 48.7132 110.514C48.8835 110.706 49.0787 110.85 49.2987 110.946C49.5188 111.042 49.7298 111.069 49.9317 111.028C50.0879 110.996 50.191 110.942 50.241 110.867C50.2948 110.79 50.3122 110.701 50.2932 110.598C50.2806 110.498 50.2513 110.388 50.2053 110.271C50.1594 110.153 50.1153 110.035 50.0732 109.916C50.0375 109.8 50.0215 109.688 50.0253 109.58C50.0292 109.473 50.0713 109.379 50.1518 109.297C50.2349 109.218 50.3774 109.158 50.5793 109.116C50.7926 109.073 51.0103 109.075 51.2323 109.122C51.4544 109.169 51.666 109.253 51.8673 109.374C52.0724 109.493 52.2523 109.64 52.4071 109.815C52.58 110.01 52.684 110.193 52.7191 110.364C52.7568 110.539 52.737 110.694 52.6597 110.83L52.1805 110.671C52.2427 110.548 52.2628 110.423 52.241 110.297C52.2191 110.171 52.1424 110.034 52.0108 109.886C51.856 109.711 51.6788 109.582 51.4793 109.499C51.2797 109.416 51.0847 109.395 50.8942 109.434C50.7457 109.464 50.6489 109.515 50.6039 109.586C50.5615 109.66 50.5498 109.748 50.5689 109.851C50.5879 109.953 50.6191 110.062 50.6625 110.177C50.7122 110.294 50.7562 110.412 50.7946 110.532C50.8329 110.651 50.8469 110.763 50.8367 110.868C50.8291 110.976 50.7812 111.072 50.6931 111.156C50.6088 111.238 50.4619 111.301 50.2524 111.344C49.9133 111.413 49.5699 111.379 49.222 111.24C48.8806 111.104 48.5757 110.884 48.3073 110.582ZM49.484 111.832L54.5067 112.258L54.7196 112.498L51.868 114.52L51.5623 114.176L54.096 112.404L54.2083 112.531L49.7859 112.173L49.484 111.832ZM51.0061 112.186L51.3775 112.11L52.7708 113.681L52.3993 113.757L51.0061 112.186Z" fill="#D1D4E0"/>
<path d="M66.6211 64.0451C65.7831 63.5557 64.7913 63.558 63.8906 63.1352C64.4728 62.9964 65.4156 62.9895 65.0494 62.5405C63.7786 61.3318 61.9824 61.6995 60.1483 62.075C59.934 61.4285 61.6765 61.4341 60.9943 60.6287C60.3732 59.9284 59.3577 60.2293 58.4443 60.4212C58.3365 60.2949 58.268 60.1633 58.2439 60.0362C58.2078 59.8385 58.0586 59.6316 57.8255 59.456C56.9374 59.1775 56.1516 59.4266 55.4918 59.7526C55.4512 59.4284 55.2306 59.0848 54.8693 58.7832C54.4821 58.7281 54.117 58.7484 53.8204 58.8413C53.5238 58.9343 53.3092 59.0958 53.2037 59.3054C52.6415 59.1414 52.2484 58.4091 51.6512 58.3502C51.0705 58.469 50.2608 58.532 50.1592 58.8368C49.5909 58.9189 49.3048 58.0324 48.3412 58.1171C47.4948 58.6086 47.2316 58.7457 46.002 58.4148C44.8767 58.4689 45.7611 59.1986 45.2856 59.4722C44.9652 59.6749 44.7887 59.4613 44.6138 59.2425C44.439 59.0237 44.2463 58.8281 43.9403 59.018C42.8293 59.2112 44.0159 60.2022 43.7715 60.6929C43.3673 60.8589 43.117 60.5478 42.8722 60.2356C42.6553 59.9911 42.4838 59.7471 42.2099 59.7346C40.791 60.882 38.6798 61.4366 40.0114 63.6465C38.3997 63.8247 40.9168 65.3903 39.7221 65.7133C40.2904 66.2384 40.9536 66.509 41.4909 67.1726C39.5357 66.9706 38.0687 65.425 36.4136 64.3831C34.7585 63.3411 33.2024 62.3817 31.4277 61.9567C30.7931 61.9642 31.3254 62.3547 31.2478 62.542C30.1998 62.6977 29.5138 61.7218 28.4204 62.0289C28.1377 62.3463 28.5173 62.5575 28.9796 62.8545C29.3292 63.0574 29.6102 63.3064 29.7877 63.5705C28.7005 63.4797 27.7128 63.06 26.6578 62.9333C26.1666 63.1024 26.2686 63.4487 26.8787 63.9848C26.3149 64.1443 25.9731 63.7589 25.4038 63.9195C25.2287 64.5968 26.033 64.8386 26.7711 65.4611C26.0128 65.5821 25.8185 65.4064 25.371 65.7477C25.4774 65.9679 25.635 66.187 25.8374 66.3965C26.1535 66.7529 26.4402 67.0761 26.1359 67.4126C27.0772 67.8956 28.0894 67.7716 27.9695 68.6775C28.4498 69.1178 29.182 68.7867 29.7164 69.0495C29.7632 69.0786 29.8027 69.1122 29.8322 69.148C29.8617 69.1838 29.8805 69.2209 29.8873 69.2567C29.8941 69.2926 29.8888 69.3264 29.8716 69.3557C29.8544 69.385 29.8259 69.4092 29.7879 69.4265C29.6803 69.522 29.5708 69.6228 29.9984 69.9025C30.426 70.1821 30.9293 70.1134 31.4697 69.9636C32.7544 71.5857 34.6129 72.5028 37.0197 73.0187C38.2578 72.5351 38.6148 71.752 39.6564 71.2058C39.7999 71.5339 40.0325 71.5793 40.2652 71.6247C40.4978 71.6701 40.7358 71.7144 40.8776 72.0477C41.3497 71.9511 41.2302 71.6573 41.9463 71.6478C42.2789 72.3337 42.6864 72.7497 43.6458 72.7688C44.2795 73.7652 45.9473 74.8143 47.2427 75.4941C49.5881 77.8784 54.7808 82.7645 55.9524 79.7189C55.1121 79.039 53.9468 79.3951 52.9999 79.0503C50.6423 77.3247 50.6203 75.4637 49.6166 73.3776C52.5188 72.8618 55.2497 72.8756 57.2776 75.0898C57.1524 74.3476 57.2525 73.6453 57.5723 73.022C55.7601 70.3425 52.6484 71.6993 50.5565 69.9046C51.1485 69.5239 51.0525 68.9168 51.3934 68.4553C56.8871 67.2033 62.4405 65.4837 66.7571 64.1985L66.6211 64.0451Z" fill="url(#paint2_radial_1879_23718)"/>
<path d="M166.722 33.5571L170.546 31.041L171.495 32.1107L168.618 33.8295L168.32 33.5075L172.925 33.7234L173.608 34.4932L170.742 36.2386L170.465 35.9122L175.038 36.1059L175.987 37.1756L169.568 36.7663L168.885 35.9964L171.552 34.2821L171.818 34.5819L167.397 34.3189L166.722 33.5571ZM172.084 39.6034L175.909 37.0873L176.857 38.157L173.981 39.8758L173.683 39.5538L178.288 39.7697L178.971 40.5395L176.105 42.2848L175.828 41.9585L180.401 42.1522L181.35 43.2219L174.93 42.8126L174.247 42.0427L176.915 40.3284L177.181 40.6282L172.76 40.3652L172.084 39.6034ZM177.447 45.6497L181.271 43.1336L182.22 44.2033L179.343 45.9221L179.045 45.6001L183.65 45.816L184.333 46.5858L181.467 48.3311L181.19 48.0048L185.763 48.1985L186.712 49.2682L180.293 48.8589L179.61 48.089L182.277 46.3747L182.543 46.6745L178.122 46.4115L177.447 45.6497ZM182.373 51.3463C182.201 51.1518 182.145 50.975 182.204 50.816C182.264 50.657 182.417 50.5521 182.665 50.5014C182.912 50.4507 183.176 50.4701 183.456 50.5596C183.736 50.6491 183.963 50.7911 184.135 50.9856C184.303 51.1747 184.357 51.3488 184.297 51.5078C184.238 51.6668 184.084 51.7717 183.836 51.8224C183.589 51.8731 183.325 51.8537 183.045 51.7642C182.765 51.6747 182.541 51.5354 182.373 51.3463ZM183.952 52.9852L189.078 51.9359L190.027 53.0056L184.901 54.0549L183.952 52.9852ZM190.38 52.3013C190.227 52.1284 190.174 51.97 190.222 51.8262C190.277 51.6808 190.418 51.585 190.644 51.5387C190.863 51.4938 191.101 51.5121 191.358 51.5937C191.614 51.6753 191.819 51.8025 191.972 51.9754C192.13 52.1537 192.179 52.3128 192.119 52.4527C192.064 52.598 191.927 52.6931 191.708 52.738C191.481 52.7844 191.24 52.7668 190.984 52.6852C190.74 52.6075 190.538 52.4796 190.38 52.3013ZM187.261 56.8567C186.911 56.4623 186.711 56.0818 186.662 55.7153C186.625 55.3527 186.724 55.0356 186.959 54.7639C187.207 54.4962 187.582 54.311 188.084 54.2081C188.586 54.1053 189.117 54.1052 189.676 54.2077C190.242 54.3089 190.783 54.4949 191.3 54.7659C191.823 55.0354 192.257 55.3646 192.602 55.7536C192.957 56.1534 193.152 56.5346 193.19 56.8972C193.239 57.2638 193.144 57.5802 192.903 57.8464C192.67 58.1112 192.302 58.295 191.8 58.3979C191.298 58.5007 190.76 58.5023 190.187 58.4026C189.62 58.3014 189.076 58.1161 188.552 57.8466C188.041 57.5811 187.61 57.2511 187.261 56.8567ZM188.548 56.5835C188.725 56.7834 188.938 56.9474 189.185 57.0755C189.444 57.2076 189.713 57.2931 189.99 57.3322C190.278 57.3752 190.557 57.3691 190.826 57.3141C191.095 57.2591 191.294 57.1673 191.422 57.0389C191.551 56.9104 191.604 56.759 191.583 56.5845C191.57 56.4086 191.474 56.2207 191.297 56.0208C191.124 55.8264 190.911 55.6658 190.656 55.5391C190.409 55.411 190.144 55.3248 189.862 55.2803C189.581 55.2359 189.305 55.2412 189.036 55.2962C188.768 55.3513 188.565 55.4437 188.43 55.5736C188.301 55.7021 188.244 55.8542 188.258 56.0301C188.279 56.2046 188.376 56.389 188.548 56.5835ZM190.27 60.2495C190.097 60.055 190.041 59.8783 190.1 59.7192C190.16 59.5602 190.314 59.4554 190.561 59.4047C190.809 59.354 191.073 59.3734 191.353 59.4629C191.633 59.5524 191.859 59.6944 192.031 59.8889C192.199 60.078 192.253 60.252 192.194 60.411C192.134 60.5701 191.98 60.6749 191.733 60.7256C191.485 60.7763 191.221 60.7569 190.941 60.6674C190.661 60.5779 190.438 60.4386 190.27 60.2495ZM193.669 64.082C193.42 63.8011 193.269 63.532 193.216 63.2747C193.171 63.0159 193.219 62.7922 193.361 62.6035C193.503 62.4149 193.739 62.2804 194.069 62.2L195.883 61.8285C196.232 61.7698 196.598 61.7812 196.979 61.8627C197.373 61.9481 197.746 62.0856 198.098 62.2753C198.455 62.4703 198.758 62.7083 199.007 62.9893C199.328 63.3512 199.499 63.6993 199.519 64.0334C199.54 64.3676 199.42 64.6569 199.161 64.9016C198.906 65.1516 198.524 65.3288 198.014 65.4331C197.512 65.5359 196.985 65.5448 196.433 65.4599C195.886 65.3804 195.369 65.2214 194.882 64.9828C194.394 64.7443 193.99 64.444 193.669 64.082ZM194.788 63.6328C194.96 63.8273 195.17 63.9886 195.417 64.1167C195.672 64.2433 195.938 64.3262 196.215 64.3652C196.504 64.4082 196.786 64.4014 197.062 64.345C197.331 64.2899 197.529 64.1982 197.658 64.0697C197.798 63.9452 197.858 63.7958 197.837 63.6213C197.823 63.4454 197.73 63.2602 197.557 63.0657C197.39 62.8767 197.179 62.7188 196.924 62.5921C196.677 62.464 196.409 62.3785 196.12 62.3355C195.843 62.2965 195.57 62.3045 195.301 62.3595C195.025 62.416 194.817 62.5065 194.677 62.631C194.548 62.7594 194.488 62.9089 194.497 63.0794C194.518 63.2538 194.615 63.4383 194.788 63.6328ZM189.705 62.3273L196.974 60.8391L197.916 61.9007L196.568 62.1767L195.168 62.2526L194.078 62.6769L190.64 63.3808L189.705 62.3273ZM197.628 68.5464C197.264 68.1358 197.054 67.748 196.998 67.3829C196.948 67.0163 197.042 66.6972 197.277 66.4256C197.517 66.1593 197.896 65.9733 198.412 65.8676C198.922 65.7633 199.454 65.7598 200.008 65.857C200.574 65.9581 201.113 66.1414 201.624 66.407C202.143 66.6711 202.572 66.9949 202.912 67.3785C203.248 67.7567 203.429 68.1121 203.457 68.4448C203.496 68.7815 203.393 69.0707 203.148 69.3124C202.914 69.5581 202.553 69.7309 202.065 69.8308C201.973 69.8497 201.873 69.8638 201.764 69.8733C201.668 69.8867 201.55 69.8949 201.41 69.898L198.481 66.6099L199.521 66.397L202.012 69.1907L201.196 68.8503C201.49 68.7772 201.707 68.6818 201.845 68.5642C201.988 68.4519 202.05 68.3147 202.031 68.1525C202.025 67.9943 201.933 67.8152 201.755 67.6153C201.569 67.4046 201.342 67.234 201.076 67.1034C200.816 66.9713 200.535 66.8852 200.232 66.8452C199.941 66.809 199.643 66.8221 199.339 66.8844C199.028 66.9481 198.794 67.0471 198.637 67.1813C198.492 67.3195 198.43 67.4854 198.451 67.6789C198.48 67.871 198.592 68.0778 198.789 68.2993C198.966 68.4992 199.169 68.6715 199.397 68.8162C199.633 68.9595 199.892 69.0724 200.174 69.1551L199.911 69.9464C199.453 69.8167 199.028 69.6292 198.635 69.3841C198.247 69.1444 197.911 68.8652 197.628 68.5464Z" fill="#D1D4E0"/>
<path d="M177.163 31.3123C176.968 31.0916 176.855 30.8827 176.825 30.6856C176.794 30.4885 176.844 30.3192 176.973 30.1779C177.098 30.0375 177.299 29.9388 177.579 29.8816C177.843 29.8275 178.114 29.8228 178.391 29.8678C178.676 29.9154 178.956 30.0061 179.231 30.1399C179.506 30.2736 179.759 30.4407 179.988 30.6412L179.498 30.4896L180.353 30.3676L180.742 30.8052L179.639 31.0308L179.51 30.8849C179.329 30.6877 179.108 30.5429 178.847 30.4505C178.589 30.3619 178.335 30.3432 178.085 30.3943C177.929 30.4264 177.812 30.4812 177.736 30.5586C177.659 30.6408 177.627 30.7357 177.642 30.8432C177.654 30.9555 177.717 31.0752 177.83 31.2024C177.992 31.3857 178.191 31.5284 178.427 31.6305C178.66 31.7373 178.917 31.8084 179.197 31.8439L179.122 32.2969C178.741 32.2466 178.381 32.137 178.04 31.9681C177.695 31.8002 177.402 31.5816 177.163 31.3123ZM181.28 30.4431C181.184 30.3346 181.152 30.2372 181.185 30.1508C181.219 30.0644 181.304 30.0072 181.441 29.9791C181.578 29.9511 181.721 29.9617 181.869 30.0109C182.021 30.0592 182.146 30.1376 182.242 30.246C182.335 30.3508 182.365 30.4463 182.331 30.5327C182.303 30.6181 182.22 30.6748 182.083 30.7029C181.946 30.7309 181.801 30.7208 181.648 30.6726C181.495 30.6243 181.373 30.5478 181.28 30.4431ZM180.278 32.7779L185.376 31.7341L185.705 32.1044L183.619 34.4803L183.395 34.2278L188.407 35.1508L188.735 35.5211L183.636 36.5649L183.169 36.0376L187.055 35.2419L187.12 35.3744L183.167 34.6458L182.838 34.2755L184.483 32.4008L184.632 32.5096L180.745 33.3053L180.278 32.7779ZM185.304 38.5429C185.088 38.2998 184.971 38.063 184.952 37.8327C184.938 37.6014 185.016 37.3997 185.188 37.2276C185.362 37.0592 185.621 36.9399 185.964 36.8698C186.307 36.7996 186.665 36.7925 187.039 36.8486C187.416 36.9084 187.772 37.019 188.106 37.1804C188.443 37.3455 188.721 37.5515 188.94 37.7984C189.12 38.0003 189.222 38.1914 189.249 38.3716C189.284 38.5544 189.247 38.7146 189.137 38.8519C189.032 38.9883 188.857 39.0881 188.613 39.1515L187.562 39.3666C187.302 39.4065 187.031 39.3979 186.749 39.3407C186.47 39.2874 186.203 39.1918 185.948 39.054C185.701 38.919 185.486 38.7486 185.304 38.5429ZM186.003 38.4992C186.225 38.7498 186.514 38.9292 186.871 39.0374C187.232 39.1447 187.587 39.1627 187.934 39.0915C188.174 39.0423 188.351 38.9642 188.464 38.857C188.586 38.7526 188.639 38.6268 188.624 38.4796C188.614 38.3313 188.535 38.1731 188.386 38.0048C188.236 37.8364 188.052 37.6974 187.833 37.5875C187.618 37.4814 187.386 37.4095 187.138 37.3718C186.899 37.3368 186.664 37.3429 186.434 37.39C186.199 37.4381 186.022 37.5163 185.904 37.6245C185.794 37.7354 185.746 37.8668 185.759 38.0188C185.772 38.1707 185.854 38.3309 186.003 38.4992ZM186.163 39.4143L187.104 39.2218L188.041 39.1427L188.801 38.8743L189.653 38.6998L190.106 39.2104L186.616 39.9248L186.163 39.4143ZM189.155 37.4429L189.252 37.1512L191.082 37.6384L190.913 38.1436L189.155 37.4429ZM187.946 41.5222C187.813 41.3726 187.712 41.2254 187.641 41.0807C187.579 40.9388 187.545 40.8022 187.538 40.671C187.537 40.5387 187.566 40.4179 187.625 40.3085L188.34 40.5467C188.269 40.676 188.251 40.8123 188.286 40.9555C188.325 41.0977 188.414 41.2474 188.554 41.4045C188.693 41.5616 188.835 41.6761 188.98 41.7481C189.13 41.8191 189.268 41.8415 189.395 41.8155C189.523 41.7894 189.589 41.7338 189.595 41.6487C189.609 41.5663 189.589 41.4664 189.537 41.3489C189.49 41.2304 189.434 41.1049 189.368 40.9725C189.311 40.8428 189.271 40.7162 189.248 40.5926C189.226 40.4691 189.247 40.3588 189.311 40.2617C189.378 40.1683 189.518 40.1 189.728 40.0569C189.939 40.0138 190.155 40.016 190.376 40.0634C190.603 40.1099 190.819 40.1938 191.025 40.3151C191.234 40.4402 191.427 40.6019 191.603 40.8001C191.788 41.0096 191.904 41.2047 191.948 41.3856C192.001 41.5692 191.979 41.733 191.88 41.8768L191.166 41.6386C191.227 41.5378 191.242 41.4242 191.211 41.298C191.183 41.1754 191.108 41.045 190.985 40.9066C190.856 40.7607 190.722 40.6556 190.584 40.591C190.454 40.5293 190.33 40.5104 190.213 40.5345C190.095 40.5586 190.034 40.6108 190.03 40.6911C190.026 40.7715 190.05 40.8704 190.103 40.9879C190.158 41.1091 190.214 41.2346 190.271 41.3643C190.334 41.493 190.373 41.6197 190.391 41.7442C190.409 41.8687 190.382 41.9781 190.309 42.0725C190.24 42.1707 190.098 42.2418 189.882 42.2859C189.554 42.3531 189.215 42.3165 188.865 42.176C188.518 42.0394 188.212 41.8214 187.946 41.5222ZM190.432 44.2269L193.921 43.5124L194.369 44.0174L190.88 44.7318L190.432 44.2269ZM194.843 43.622C194.76 43.5285 194.732 43.4438 194.757 43.3679C194.787 43.291 194.863 43.2401 194.986 43.215C195.103 43.1909 195.228 43.2008 195.359 43.2446C195.496 43.2874 195.605 43.3556 195.688 43.4491C195.771 43.5426 195.797 43.6278 195.767 43.7047C195.742 43.7805 195.671 43.8305 195.553 43.8546C195.431 43.8797 195.301 43.8708 195.165 43.828C195.033 43.7842 194.926 43.7155 194.843 43.622ZM193.211 47.361L195.247 46.9444C195.511 46.8903 195.673 46.7821 195.731 46.6198C195.79 46.4575 195.73 46.2754 195.55 46.0734C195.431 45.9388 195.286 45.8271 195.114 45.7384C194.943 45.6498 194.762 45.5895 194.572 45.5578C194.382 45.526 194.199 45.5282 194.022 45.5643L193.993 45.3251C194.257 45.2709 194.532 45.2677 194.817 45.3153C195.103 45.363 195.375 45.4552 195.636 45.592C195.901 45.7277 196.123 45.8966 196.302 46.0986C196.481 46.3006 196.572 46.4918 196.576 46.6722C196.583 46.8563 196.519 47.0154 196.383 47.1493C196.252 47.2821 196.067 47.3731 195.827 47.4223L193.659 47.866L193.211 47.361ZM191.54 45.4759L195.029 44.7615L195.477 45.2664L191.987 45.9809L191.54 45.4759ZM194.575 48.8982L198.586 48.077C198.846 48.0239 199.109 48.0208 199.376 48.0677C199.649 48.1136 199.907 48.1998 200.153 48.3264C200.401 48.4567 200.615 48.6228 200.795 48.8248C200.931 48.9781 201.014 49.1179 201.045 49.2442C201.076 49.3704 201.067 49.4938 201.017 49.6144L200.298 49.3706C200.323 49.308 200.326 49.2432 200.308 49.1764C200.294 49.1085 200.249 49.0315 200.172 48.9455C200.03 48.7847 199.857 48.6719 199.655 48.6072C199.457 48.5463 199.249 48.5378 199.034 48.582L195.023 49.4032L194.575 48.8982ZM196.88 47.6507L197.482 47.5274L199.264 49.5359L198.661 49.6593L196.88 47.6507ZM197.094 51.8367C196.862 51.5749 196.734 51.3227 196.71 51.0802C196.686 50.8376 196.756 50.6266 196.921 50.447C197.09 50.2664 197.347 50.141 197.689 50.0708C198.027 50.0016 198.386 50.0012 198.765 50.0695C199.148 50.1367 199.514 50.2586 199.861 50.4349C200.209 50.6113 200.499 50.8304 200.731 51.0922C200.96 51.3503 201.086 51.6006 201.11 51.8431C201.143 52.0884 201.076 52.3008 200.912 52.4804C200.747 52.66 200.495 52.7844 200.158 52.8536C199.815 52.9238 199.449 52.9257 199.06 52.8595C198.677 52.7922 198.309 52.6685 197.959 52.4884C197.611 52.312 197.323 52.0948 197.094 51.8367ZM197.733 51.7059C197.883 51.8742 198.067 52.0133 198.286 52.1231C198.505 52.233 198.735 52.3072 198.978 52.3459C199.226 52.3837 199.465 52.3789 199.695 52.3318C199.92 52.2857 200.086 52.2053 200.193 52.0907C200.303 51.9798 200.349 51.8488 200.33 51.6979C200.321 51.5496 200.241 51.3914 200.092 51.2231C199.942 51.0547 199.758 50.9157 199.539 50.8058C199.325 50.6949 199.097 50.6202 198.854 50.5815C198.612 50.5428 198.378 50.5465 198.152 50.5926C197.922 50.6397 197.75 50.7192 197.635 50.8311C197.525 50.942 197.476 51.0735 197.49 51.2254C197.503 51.3774 197.584 51.5375 197.733 51.7059ZM198.906 53.782L202.396 53.0676L202.844 53.5725L199.354 54.2869L198.906 53.782ZM201.345 53.8793L201.286 53.666C201.732 53.5748 202.157 53.5806 202.56 53.6836C202.964 53.7865 203.297 53.9857 203.559 54.2812C203.679 54.4158 203.755 54.5439 203.787 54.6654C203.825 54.7859 203.814 54.9075 203.755 55.0301L203.013 54.7908C203.041 54.7186 203.043 54.6454 203.018 54.571C202.992 54.4967 202.94 54.4146 202.86 54.3249C202.694 54.1379 202.48 54.0006 202.217 53.913C201.954 53.8254 201.663 53.8141 201.345 53.8793ZM200.913 56.0448L204.403 55.3303L204.851 55.8353L201.361 56.5497L200.913 56.0448ZM202.51 57.8457L204.619 57.4141C204.879 57.3609 205.027 57.2576 205.065 57.1041C205.11 56.9533 205.052 56.7863 204.889 56.603C204.78 56.4796 204.648 56.3763 204.493 56.293C204.338 56.2098 204.173 56.1508 203.997 56.1161C203.822 56.0813 203.648 56.0815 203.477 56.1165L203.425 55.8819C203.689 55.8277 203.958 55.8236 204.23 55.8695C204.506 55.9192 204.765 56.0097 205.009 56.141C205.258 56.2713 205.467 56.4318 205.636 56.6225C205.802 56.8095 205.897 56.9889 205.922 57.1606C205.95 57.336 205.904 57.4867 205.785 57.6129C205.669 57.7428 205.476 57.8353 205.206 57.8904L202.958 58.3507L202.51 57.8457ZM204.108 59.6467L206.216 59.215C206.476 59.1619 206.624 59.0585 206.662 58.905C206.707 58.7542 206.651 58.5891 206.491 58.4096C206.382 58.2861 206.248 58.1809 206.09 58.094C205.935 58.0108 205.77 57.9518 205.595 57.917C205.419 57.8822 205.246 57.8824 205.074 57.9175L204.953 57.6043C205.232 57.5604 205.51 57.5675 205.787 57.6256C206.073 57.6865 206.339 57.7844 206.586 57.9195C206.838 58.0535 207.047 58.214 207.213 58.401C207.386 58.5955 207.486 58.7805 207.514 58.9559C207.542 59.1313 207.498 59.2839 207.382 59.4138C207.269 59.5474 207.076 59.6423 206.801 59.6985L204.561 60.1572L204.108 59.6467ZM206.102 61.9927C205.886 61.7495 205.769 61.5128 205.75 61.2825C205.735 61.0512 205.814 60.8495 205.985 60.6774C206.16 60.509 206.419 60.3897 206.762 60.3195C207.105 60.2493 207.463 60.2423 207.837 60.2983C208.214 60.3581 208.569 60.4687 208.904 60.6301C209.241 60.7953 209.519 61.0013 209.738 61.2481C209.917 61.4501 210.02 61.6412 210.047 61.8213C210.082 62.0042 210.044 62.1644 209.935 62.3017C209.83 62.4381 209.655 62.5379 209.41 62.6013L208.36 62.8164C208.1 62.8563 207.829 62.8477 207.547 62.7905C207.268 62.7371 207.001 62.6415 206.746 62.5038C206.499 62.3687 206.284 62.1984 206.102 61.9927ZM206.801 61.949C207.023 62.1996 207.312 62.379 207.669 62.4872C208.03 62.5944 208.385 62.6125 208.732 62.5413C208.972 62.4921 209.149 62.414 209.262 62.3068C209.384 62.2024 209.437 62.0766 209.422 61.9293C209.412 61.7811 209.333 61.6228 209.183 61.4545C209.034 61.2862 208.85 61.1471 208.631 61.0373C208.415 60.9312 208.184 60.8593 207.936 60.8216C207.697 60.7866 207.462 60.7927 207.232 60.8398C206.997 60.8879 206.82 60.9661 206.702 61.0742C206.592 61.1851 206.544 61.3166 206.557 61.4686C206.57 61.6205 206.651 61.7807 206.801 61.949ZM206.961 62.8641L207.902 62.6715L208.838 62.5924L209.599 62.3241L210.451 62.1496L210.904 62.6602L207.414 63.3746L206.961 62.8641ZM209.072 65.3423C208.84 65.0804 208.71 64.8264 208.683 64.5801C208.659 64.3376 208.729 64.1265 208.894 63.9469C209.067 63.7701 209.322 63.647 209.66 63.5779C210.003 63.5077 210.365 63.5043 210.745 63.5679C211.129 63.6352 211.492 63.7575 211.835 63.9349C212.185 64.115 212.477 64.3359 212.709 64.5977C212.891 64.8035 213.009 65.0047 213.062 65.2016C213.12 65.3974 213.11 65.5785 213.032 65.7448L212.292 65.4984C212.347 65.39 212.353 65.2695 212.31 65.1368C212.276 65.0068 212.196 64.8707 212.07 64.7286C211.921 64.5603 211.736 64.4212 211.517 64.3113C211.303 64.2005 211.075 64.1257 210.832 64.087C210.59 64.0483 210.353 64.0525 210.123 64.0996C209.893 64.1468 209.723 64.2258 209.613 64.3367C209.503 64.4476 209.454 64.579 209.468 64.731C209.481 64.8829 209.562 65.0431 209.712 65.2114C209.838 65.3535 209.984 65.4761 210.15 65.579C210.325 65.6846 210.514 65.7674 210.718 65.8274L210.571 66.2486C210.275 66.1633 209.996 66.0414 209.734 65.8829C209.475 65.7282 209.255 65.548 209.072 65.3423ZM210.506 66.8603L213.995 66.1459L214.443 66.6508L210.953 67.3652L210.506 66.8603ZM214.917 66.2555C214.834 66.1619 214.805 66.0772 214.831 66.0014C214.861 65.9245 214.937 65.8735 215.06 65.8484C215.177 65.8244 215.302 65.8342 215.433 65.878C215.569 65.9208 215.679 65.989 215.762 66.0825C215.845 66.176 215.871 66.2612 215.841 66.3381C215.816 66.414 215.744 66.4639 215.627 66.488C215.504 66.5131 215.375 66.5042 215.239 66.4614C215.107 66.4176 215 66.349 214.917 66.2555ZM212.62 69.3419C212.387 69.08 212.259 68.8279 212.235 68.5853C212.211 68.3428 212.281 68.1317 212.446 67.9521C212.616 67.7715 212.872 67.6462 213.215 67.576C213.553 67.5068 213.911 67.5063 214.29 67.5746C214.674 67.6419 215.039 67.7637 215.387 67.9401C215.734 68.1164 216.024 68.3355 216.256 68.5974C216.485 68.8554 216.612 69.1057 216.636 69.3483C216.668 69.5936 216.602 69.806 216.437 69.9856C216.272 70.1652 216.021 70.2895 215.683 70.3587C215.34 70.4289 214.974 70.4309 214.586 70.3646C214.202 70.2973 213.835 70.1736 213.484 69.9935C213.137 69.8172 212.849 69.5999 212.62 69.3419ZM213.259 69.211C213.408 69.3793 213.592 69.5184 213.811 69.6283C214.03 69.7381 214.261 69.8124 214.504 69.8511C214.751 69.8888 214.99 69.8841 215.22 69.837C215.446 69.7908 215.612 69.7105 215.718 69.5958C215.828 69.4849 215.874 69.354 215.856 69.203C215.846 69.0548 215.766 68.8965 215.617 68.7282C215.468 68.5599 215.284 68.4208 215.065 68.311C214.851 68.2001 214.622 68.1253 214.38 68.0866C214.137 68.0479 213.903 68.0516 213.678 68.0977C213.448 68.1449 213.275 68.2244 213.16 68.3363C213.05 68.4472 213.002 68.5786 213.015 68.7306C213.028 68.8826 213.11 69.0427 213.259 69.211ZM216.411 68.1746L216.508 67.8829L218.338 68.3701L218.169 68.8752L216.411 68.1746ZM216.104 73.1722L218.139 72.7556C218.403 72.7015 218.565 72.5933 218.623 72.431C218.682 72.2687 218.622 72.0866 218.443 71.8846C218.323 71.75 218.178 71.6383 218.007 71.5496C217.835 71.4609 217.655 71.4007 217.464 71.369C217.274 71.3372 217.091 71.3394 216.915 71.3754L216.885 71.1363C217.149 71.0821 217.424 71.0789 217.709 71.1265C217.995 71.1742 218.268 71.2664 218.528 71.4032C218.793 71.5389 219.015 71.7078 219.194 71.9098C219.373 72.1118 219.465 72.3029 219.468 72.4834C219.476 72.6675 219.411 72.8266 219.275 72.9605C219.144 73.0933 218.959 73.1843 218.719 73.2335L216.551 73.6772L216.104 73.1722ZM214.432 71.2871L217.921 70.5727L218.369 71.0776L214.88 71.7921L214.432 71.2871ZM219.535 74.8883L220.926 74.5969L221.068 74.7469C221.184 74.8778 221.322 74.9844 221.482 75.0666C221.645 75.1525 221.815 75.2105 221.992 75.2406C222.169 75.2706 222.336 75.2696 222.493 75.2375C222.654 75.2044 222.771 75.1473 222.844 75.0661C222.92 74.9886 222.948 74.8924 222.927 74.7774C222.909 74.6661 222.84 74.5431 222.721 74.4085C222.562 74.229 222.365 74.0858 222.132 73.9789C221.898 73.8721 221.639 73.8014 221.353 73.767L221.429 73.314C221.814 73.3633 222.177 73.4724 222.518 73.6413C222.862 73.8139 223.152 74.033 223.387 74.2986C223.59 74.5267 223.708 74.7412 223.741 74.9421C223.78 75.142 223.734 75.3126 223.605 75.4539C223.48 75.5943 223.279 75.6931 223 75.7502C222.745 75.8024 222.472 75.8051 222.182 75.7585C221.9 75.7145 221.619 75.6262 221.339 75.4934C221.068 75.3634 220.816 75.194 220.585 74.9851L221.073 75.1437L219.924 75.3259L219.535 74.8883ZM218.035 75.4474C217.942 75.3427 217.91 75.2453 217.94 75.1552C217.974 75.0688 218.059 75.0116 218.196 74.9835C218.333 74.9554 218.476 74.966 218.624 75.0153C218.78 75.0673 218.904 75.1457 218.997 75.2504C219.09 75.3551 219.12 75.4507 219.086 75.5371C219.061 75.6262 218.98 75.6848 218.843 75.7129C218.706 75.7409 218.559 75.729 218.403 75.6769C218.25 75.6287 218.128 75.5522 218.035 75.4474Z" fill="#D1D4E0"/>
<g style="mix-blend-mode:luminosity" opacity="0.2">
<path d="M311.835 81.2441L243.363 95.2621C238.04 96.3519 233.949 98.6611 231.641 101.879L224.326 112.08C222.019 115.298 217.928 117.607 212.604 118.697L40.3514 153.961" stroke="url(#paint3_linear_1879_23718)" stroke-width="0.553902"/>
</g>
<rect width="56.6599" height="290.799" transform="matrix(0.663536 0.748145 -0.97968 0.200567 330.896 101.649)" fill="black"/>
</g>
<defs>
<filter id="filter0_d_1879_23718" x="88.7689" y="50.7499" width="54.3782" height="54.4991" filterUnits="userSpaceOnUse" color-interpolation-filters="sRGB">
<feFlood flood-opacity="0" result="BackgroundImageFix"/>
<feColorMatrix in="SourceAlpha" type="matrix" values="0 0 0 0 0 0 0 0 0 0 0 0 0 0 0 0 0 0 127 0" result="hardAlpha"/>
<feOffset dy="3.33294"/>
<feGaussianBlur stdDeviation="1.66647"/>
<feComposite in2="hardAlpha" operator="out"/>
<feColorMatrix type="matrix" values="0 0 0 0 0 0 0 0 0 0 0 0 0 0 0 0 0 0 0.25 0"/>
<feBlend mode="normal" in2="BackgroundImageFix" result="effect1_dropShadow_1879_23718"/>
<feBlend mode="normal" in="SourceGraphic" in2="effect1_dropShadow_1879_23718" result="shape"/>
</filter>
<linearGradient id="paint0_linear_1879_23718" x1="135.401" y1="290.799" x2="52.5971" y2="-141.855" gradientUnits="userSpaceOnUse">
<stop/>
<stop offset="1" stop-color="#666666"/>
</linearGradient>
<linearGradient id="paint1_linear_1879_23718" x1="127.485" y1="-3.74955" x2="74.1578" y2="295.381" gradientUnits="userSpaceOnUse">
<stop stop-color="white" stop-opacity="0.12"/>
<stop offset="0.401042" stop-color="white" stop-opacity="0.08"/>
<stop offset="1" stop-color="white" stop-opacity="0.07"/>
</linearGradient>
<radialGradient id="paint2_radial_1879_23718" cx="0" cy="0" r="1" gradientUnits="userSpaceOnUse" gradientTransform="translate(64.04 63.5298) rotate(163.116) scale(34.0457 24.0225)">
<stop stop-color="#2AD0CA"/>
<stop offset="0.229167" stop-color="#E1F664"/>
<stop offset="0.46875" stop-color="#FEB0FE"/>
<stop offset="0.682292" stop-color="#ABB3FC"/>
<stop offset="0.875" stop-color="#5DF7A4"/>
<stop offset="1" stop-color="#58C4F6"/>
</radialGradient>
<linearGradient id="paint3_linear_1879_23718" x1="303.189" y1="70.773" x2="114.777" y2="237.877" gradientUnits="userSpaceOnUse">
<stop stop-color="#DDDDDD"/>
<stop offset="1" stop-color="#979DBA"/>
</linearGradient>
<clipPath id="clip0_1879_23718">
<rect width="8.41785" height="35.4497" fill="white" transform="matrix(0.97968 -0.200567 0.663536 0.748145 79.4383 54.4297)"/>
</clipPath>
</defs>
</svg>
