<svg width="40" height="40" viewBox="0 0 40 40" fill="none" xmlns="http://www.w3.org/2000/svg">
<rect width="40" height="40" rx="8" fill="black"/>
<path d="M12.6079 19.1587C12.62 18.1985 13.1373 17.3115 13.9781 16.8091C13.4457 16.0692 12.5861 15.6168 11.6584 15.5882C10.6827 15.4884 9.73586 16.1564 9.23879 16.1564C8.74171 16.1564 7.96321 15.5985 7.13475 15.6138C6.05106 15.6467 5.06416 16.2293 4.53364 17.1495C3.41061 19.0435 4.24697 21.8282 5.32265 23.3613C5.86181 24.1113 6.49302 24.9482 7.31622 24.92C8.13943 24.8919 8.42347 24.4082 9.39659 24.4082C10.3697 24.4082 10.6432 24.92 11.4848 24.8893C12.3265 24.8586 12.8945 24.1368 13.4153 23.3792C13.8033 22.8449 14.1016 22.254 14.299 21.6286C13.271 21.2052 12.603 20.2245 12.6026 19.1382M11.0193 14.5926C11.4918 14.0414 11.724 13.3323 11.6663 12.6167C10.9458 12.6915 10.2804 13.0267 9.80161 13.556C9.32907 14.0788 9.08966 14.763 9.13621 15.4577C9.86703 15.4656 10.5612 15.1468 11.0193 14.5926Z" fill="white"/>
<path d="M16.0459 15.6689V25H17.5977V21.6914H19.6211C21.5215 21.6914 22.6973 20.4473 22.6973 18.6836C22.6973 16.9404 21.5352 15.6689 19.6279 15.6689H16.0459ZM17.5977 16.9541H19.3955C20.4756 16.9541 21.1182 17.583 21.1182 18.6836C21.1182 20.0713 20.2705 20.4199 18.8418 20.4199H17.5977V16.9541ZM27.2899 24.1113H27.3446V25H28.7869V20.0781C28.7869 18.4648 27.5906 17.665 25.9842 17.665C24.0565 17.665 23.2362 18.6904 23.1746 19.9209H24.5965C24.6512 19.2783 25.1229 18.8477 25.95 18.8477C26.7977 18.8477 27.2899 19.3057 27.2899 20.1328V20.8232H25.4578C23.7967 20.8232 22.908 21.6367 22.908 22.9219C22.908 24.2686 23.8719 25.1094 25.2733 25.1094C26.3397 25.1094 26.9754 24.665 27.2899 24.1113ZM25.7313 23.9541C25.0613 23.9541 24.4324 23.5918 24.4324 22.8398C24.4324 22.2383 24.8358 21.8213 25.7176 21.8213H27.2899V22.6211C27.2899 23.4072 26.6131 23.9541 25.7313 23.9541ZM35.82 17.7744H34.2135L32.4635 23.5166H32.4157L30.6862 17.7744H29.0045L31.5817 25.0547L31.4928 25.3691C31.3356 26.0801 30.9459 26.3535 30.1256 26.3535C29.9274 26.3535 29.6881 26.3398 29.5719 26.3193V27.4678C29.7838 27.5088 30.1051 27.5361 30.3717 27.5361C31.7799 27.5361 32.5797 27.0029 33.1745 25.4033L33.359 24.9043C33.3659 24.8838 35.5123 18.7793 35.82 17.7744Z" fill="white"/>
</svg>
