<svg width="130" height="120" viewBox="0 0 130 120" fill="none" xmlns="http://www.w3.org/2000/svg">
<rect width="130" height="120" fill="white"/>
<rect x="2.7" y="47.7" width="45.1" height="22.6" rx="3.08488" stroke="black" stroke-width="1.4"/>
<path d="M16.9762 58.4789C16.9859 57.7131 17.3985 57.0056 18.0691 56.6048C17.6445 56.0147 16.9589 55.6539 16.2189 55.6311C15.4407 55.5515 14.6855 56.0843 14.289 56.0843C13.8926 56.0843 13.2716 55.6392 12.6109 55.6515C11.7465 55.6777 10.9594 56.1424 10.5362 56.8763C9.6405 58.387 10.3076 60.6081 11.1655 61.8309C11.5956 62.429 12.099 63.0966 12.7556 63.0741C13.4122 63.0516 13.6387 62.6658 14.4149 62.6658C15.1911 62.6658 15.4092 63.0741 16.0805 63.0496C16.7518 63.0251 17.2049 62.4494 17.6202 61.8452C17.9297 61.419 18.1676 60.9477 18.325 60.4488C17.5052 60.1111 16.9724 59.3289 16.972 58.4625M15.7092 54.837C16.086 54.3974 16.2712 53.8317 16.2252 53.261C15.6506 53.3207 15.1198 53.588 14.7379 54.0102C14.361 54.4271 14.1701 54.9728 14.2072 55.527C14.7901 55.5333 15.3438 55.279 15.7092 54.837Z" fill="black"/>
<path d="M20.8123 54.5249H24.1325C25.9003 54.5249 26.9775 55.7035 26.9775 57.3192C26.9775 58.954 25.8876 60.1072 24.1261 60.1072H22.2506V63.174H20.8123V54.5249ZM22.2506 55.7161V58.9286H23.4038C24.7281 58.9286 25.5138 58.6055 25.5138 57.3192C25.5138 56.2991 24.9182 55.7161 23.917 55.7161H22.2506Z" fill="black"/>
<path d="M31.3221 62.3502C31.0306 62.8635 30.4413 63.2753 29.4529 63.2753C28.1539 63.2753 27.2605 62.496 27.2605 61.2477C27.2605 60.0565 28.0842 59.3025 29.6239 59.3025H31.3221V58.6625C31.3221 57.8958 30.8659 57.4713 30.0802 57.4713C29.3135 57.4713 28.8763 57.8705 28.8256 58.4661H27.5076C27.5646 57.3255 28.325 56.3751 30.1118 56.3751C31.6009 56.3751 32.7097 57.1164 32.7097 58.6118V63.174H31.3728V62.3502H31.3221ZM29.8774 62.2045C30.6948 62.2045 31.3221 61.6976 31.3221 60.9689V60.2276H29.8647C29.0473 60.2276 28.6735 60.6141 28.6735 61.1717C28.6735 61.8687 29.2564 62.2045 29.8774 62.2045Z" fill="black"/>
<path d="M39.3164 56.4765C39.0312 57.4079 37.0416 63.0662 37.0353 63.0852L36.8642 63.5478C36.313 65.0305 35.5716 65.5247 34.2663 65.5247C34.0192 65.5247 33.7214 65.4994 33.525 65.4614V64.3969C33.6327 64.4159 33.8545 64.4285 34.0382 64.4285C34.7986 64.4285 35.1598 64.1751 35.3055 63.5161L35.3879 63.2246L32.9991 56.4765H34.5578L36.1609 61.799H36.2052L37.8273 56.4765H39.3164Z" fill="black"/>
<path d="M106.438 35.5V24C106.438 19.5817 102.851 16 98.433 16C86.531 16 78.344 16 66.442 16C62.0238 16 58.4375 19.5817 58.4375 24V94C58.4375 98.4183 62.0192 102 66.4375 102H98.4375C102.856 102 106.438 98.4183 106.438 94V86" stroke="url(#paint0_linear_16446_95160)" stroke-width="6" stroke-linecap="round"/>
<circle cx="105.438" cy="66" r="20" stroke="url(#paint1_linear_16446_95160)" stroke-width="6"/>
<path d="M114.806 48.3258C112.012 46.8413 108.823 46.0002 105.437 46.0002C94.3918 46.0002 85.4375 54.9545 85.4375 66.0002C85.4375 77.0459 94.3918 86.0002 105.437 86.0002C113.675 86.0002 120.749 81.0205 123.814 73.9072" stroke="url(#paint2_linear_16446_95160)" stroke-width="6" stroke-linecap="round"/>
<path d="M98.4375 66.1458L102.811 70.2625L111.817 61" stroke="#292929" stroke-width="4" stroke-linecap="round" stroke-linejoin="round"/>
<path d="M76.4375 26.5H90.4375" stroke="url(#paint3_linear_16446_95160)" stroke-width="6" stroke-linecap="round"/>
<defs>
<linearGradient id="paint0_linear_16446_95160" x1="81.4375" y1="6.04261" x2="130.325" y2="46.3889" gradientUnits="userSpaceOnUse">
<stop stop-color="#758CD2"/>
<stop offset="1" stop-color="#78BECE"/>
</linearGradient>
<linearGradient id="paint1_linear_16446_95160" x1="108.693" y1="45.0698" x2="122.182" y2="73.4419" gradientUnits="userSpaceOnUse">
<stop stop-color="white"/>
<stop offset="1" stop-color="#01E587"/>
</linearGradient>
<linearGradient id="paint2_linear_16446_95160" x1="104.626" y1="46.0002" x2="122.879" y2="74.6049" gradientUnits="userSpaceOnUse">
<stop stop-color="#00A360"/>
<stop offset="1" stop-color="#00E587"/>
</linearGradient>
<linearGradient id="paint3_linear_16446_95160" x1="93.4375" y1="27" x2="72.4375" y2="31" gradientUnits="userSpaceOnUse">
<stop stop-color="#7694D2"/>
<stop offset="1" stop-color="#79BFCF"/>
</linearGradient>
</defs>
</svg>
