<svg width="76" height="76" viewBox="0 0 68 35" fill="none" xmlns="http://www.w3.org/2000/svg">
<rect x="0.58848" y="0.58848" width="66.3021" height="33.651" rx="4.904" stroke="black" stroke-width="1.17696"/>
<path d="M21.7327 16.6576C21.7467 15.5462 22.3454 14.5196 23.3186 13.938C22.7024 13.0817 21.7075 12.558 20.6337 12.525C19.5044 12.4094 18.4085 13.1826 17.8331 13.1826C17.2578 13.1826 16.3567 12.5368 15.3978 12.5546C14.1435 12.5926 13.0012 13.267 12.3872 14.332C11.0873 16.5242 12.0554 19.7474 13.3004 21.5219C13.9245 22.3899 14.6551 23.3586 15.6079 23.326C16.5607 23.2934 16.8895 22.7335 18.0158 22.7335C19.1421 22.7335 19.4587 23.326 20.4328 23.2904C21.4069 23.2549 22.0645 22.4195 22.6672 21.5426C23.1163 20.9242 23.4615 20.2402 23.69 19.5163C22.5002 19.0262 21.7271 17.8911 21.7266 16.6339M19.894 11.3726C20.4409 10.7346 20.7096 9.91381 20.6429 9.08557C19.8089 9.17216 19.0387 9.56014 18.4846 10.1728C17.9376 10.7778 17.6605 11.5698 17.7144 12.3739C18.5603 12.3831 19.3637 12.014 19.894 11.3726Z" fill="black"/>
<path d="M27.3 11.5057V24.0569H29.3872V19.6065H32.109C34.6652 19.6065 36.2467 17.933 36.2467 15.5607C36.2467 13.216 34.6836 11.5057 32.1181 11.5057H27.3ZM29.3872 13.2344H31.8055C33.2583 13.2344 34.1227 14.0803 34.1227 15.5607C34.1227 17.4273 32.9825 17.8962 31.0607 17.8962H29.3872V13.2344ZM42.5514 22.8615H42.625V24.0569H44.5651V17.4365C44.5651 15.2665 42.956 14.1906 40.7952 14.1906C38.2022 14.1906 37.0988 15.5699 37.016 17.225H38.9286C39.0021 16.3607 39.6366 15.7814 40.7492 15.7814C41.8894 15.7814 42.5514 16.3974 42.5514 17.51V18.4387H40.0871C37.8528 18.4387 36.6574 19.5329 36.6574 21.2616C36.6574 23.073 37.9539 24.204 39.8389 24.204C41.2733 24.204 42.1284 23.6063 42.5514 22.8615ZM40.4549 22.65C39.5538 22.65 38.7079 22.1627 38.7079 21.1513C38.7079 20.3421 39.2504 19.7812 40.4366 19.7812H42.5514V20.857C42.5514 21.9144 41.6411 22.65 40.4549 22.65ZM54.1524 14.3378H51.9916L49.6377 22.0616H49.5733L47.247 14.3378H44.985L48.4515 24.1304L48.332 24.5534C48.1205 25.5097 47.5964 25.8775 46.493 25.8775C46.2263 25.8775 45.9045 25.8591 45.7482 25.8315V27.3763C46.0333 27.4315 46.4654 27.4682 46.824 27.4682C48.7182 27.4682 49.794 26.751 50.594 24.5994L50.8422 23.9282C50.8514 23.9006 53.7387 15.6894 54.1524 14.3378Z" fill="black"/>
</svg>
