<svg width="12" height="15" viewBox="0 0 12 15" fill="none" xmlns="http://www.w3.org/2000/svg">
<path d="M9.8642 7.7144C9.87809 6.61412 10.4709 5.59765 11.4344 5.02188C10.8243 4.17401 9.83928 3.65557 8.77618 3.62283C7.65803 3.50844 6.57302 4.27396 6.00339 4.27396C5.43377 4.27396 4.54165 3.63456 3.59227 3.65216C2.35041 3.68979 1.21948 4.35749 0.611526 5.41197C-0.67541 7.58241 0.28301 10.7735 1.5157 12.5304C2.13355 13.3898 2.85688 14.3489 3.80023 14.3166C4.74358 14.2844 5.06908 13.73 6.18423 13.73C7.29937 13.73 7.61282 14.3166 8.57726 14.2814C9.54171 14.2462 10.1927 13.4191 10.7895 12.5509C11.2341 11.9386 11.5759 11.2615 11.8021 10.5448C10.6242 10.0596 9.85865 8.93574 9.85817 7.69093M8.0438 2.48189C8.58524 1.85027 8.85134 1.03761 8.78522 0.217594C7.95955 0.30332 7.197 0.687448 6.64837 1.29401C6.10686 1.89303 5.83251 2.67711 5.88585 3.47325C6.72333 3.48235 7.51878 3.11692 8.0438 2.48189Z" fill="white"/>
</svg>
