<svg width="56" height="32" viewBox="0 0 56 32" fill="none" xmlns="http://www.w3.org/2000/svg">
<path d="M0.58848 4C0.58848 2.11587 2.11587 0.58848 4 0.58848H52C53.8841 0.58848 55.4115 2.11587 55.4115 4V28C55.4115 29.8841 53.8841 31.4115 52 31.4115H4C2.11587 31.4115 0.58848 29.8841 0.58848 28V4Z" fill="white" stroke="black" stroke-width="1.17696"/>
<path d="M17.7327 15.6576C17.7467 14.5462 18.3454 13.5196 19.3186 12.938C18.7024 12.0817 17.7075 11.558 16.6337 11.525C15.5044 11.4094 14.4085 12.1826 13.8331 12.1826C13.2578 12.1826 12.3567 11.5368 11.3978 11.5546C10.1435 11.5926 9.00124 12.267 8.38719 13.332C7.08735 15.5242 8.05538 18.7474 9.30043 20.5219C9.92447 21.3899 10.6551 22.3586 11.6079 22.326C12.5607 22.2934 12.8895 21.7335 14.0158 21.7335C15.1421 21.7335 15.4587 22.326 16.4328 22.2904C17.4069 22.2549 18.0645 21.4195 18.6672 20.5426C19.1163 19.9242 19.4615 19.2402 19.69 18.5163C18.5002 18.0262 17.7271 16.8911 17.7266 15.6339M15.894 10.3726C16.4409 9.73462 16.7096 8.91381 16.6429 8.08557C15.8089 8.17216 15.0387 8.56014 14.4846 9.17279C13.9376 9.77781 13.6605 10.5698 13.7144 11.3739C14.5603 11.3831 15.3637 11.014 15.894 10.3726Z" fill="black"/>
<path d="M23.1689 9.31738H27.9238C30.3848 9.31738 32.0986 11.0137 32.0986 13.4834C32.0986 15.9619 30.3496 17.667 27.8623 17.667H25.1377V22H23.1689V9.31738ZM25.1377 10.9785V16.0146H27.3965C29.1104 16.0146 30.0859 15.0918 30.0859 13.4922C30.0859 11.8926 29.1104 10.9785 27.4053 10.9785H25.1377ZM35.3042 20.6553C36.6314 20.6553 37.6685 19.7412 37.6685 18.5371V17.8076L35.3921 17.9482C34.2583 18.0273 33.6167 18.5283 33.6167 19.3193C33.6167 20.1279 34.2847 20.6553 35.3042 20.6553ZM34.7769 22.1582C32.9663 22.1582 31.7007 21.0332 31.7007 19.3721C31.7007 17.7549 32.94 16.7617 35.1372 16.6387L37.6685 16.4893V15.7773C37.6685 14.749 36.9741 14.1338 35.814 14.1338C34.7154 14.1338 34.0298 14.6611 33.8628 15.4873H32.0699C32.1753 13.8174 33.5991 12.5869 35.8843 12.5869C38.1255 12.5869 39.5581 13.7734 39.5581 15.6279V22H37.7388V20.4795H37.6949C37.1587 21.5078 35.9898 22.1582 34.7769 22.1582ZM41.5333 25.4453C41.3838 25.4453 40.9004 25.4277 40.7598 25.4014V23.8633C40.9004 23.8984 41.2169 23.8984 41.3751 23.8984C42.2628 23.8984 42.7286 23.5293 43.0186 22.5801C43.0186 22.5625 43.1856 22.0176 43.1856 22.0088L39.8458 12.7539H41.9024L44.2491 20.2773H44.2754L46.6221 12.7539H48.626L45.1544 22.4834C44.3633 24.7246 43.4581 25.4453 41.5333 25.4453Z" fill="black"/>
</svg>
