<svg width="24" height="24" viewBox="0 0 24 24" fill="none" xmlns="http://www.w3.org/2000/svg">
<path d="M19.5 12.5C19.5 11.12 20.62 10 22 10V9C22 5 21 4 17 4H7C3 4 2 5 2 9V9.5C3.38 9.5 4.5 10.62 4.5 12C4.5 13.38 3.38 14.5 2 14.5V15C2 19 3 20 7 20H17C21 20 22 19 22 15C20.62 15 19.5 13.88 19.5 12.5Z" stroke="#7B7A7A" stroke-width="1.5" stroke-linecap="round" stroke-linejoin="round"/>
<path d="M10 4L10 20" stroke="#7B7A7A" stroke-width="1.5" stroke-linecap="round" stroke-linejoin="round" stroke-dasharray="6 6"/>
<path d="M15.025 9.32991L15.645 10.5799C15.705 10.6999 15.825 10.7899 15.955 10.8099L17.335 11.0099C17.675 11.0599 17.815 11.4799 17.565 11.7199L16.565 12.6899C16.465 12.7799 16.425 12.9199 16.445 13.0599L16.685 14.4299C16.745 14.7699 16.385 15.0299 16.085 14.8699L14.855 14.2199C14.735 14.1599 14.585 14.1599 14.465 14.2199L13.235 14.8699C12.925 15.0299 12.575 14.7699 12.635 14.4299L12.875 13.0599C12.895 12.9199 12.855 12.7899 12.755 12.6899L11.765 11.7199C11.515 11.4799 11.655 11.0599 11.995 11.0099L13.375 10.8099C13.515 10.7899 13.625 10.7099 13.685 10.5799L14.295 9.32991C14.435 9.01991 14.875 9.01991 15.025 9.32991Z" stroke="#7B7A7A" stroke-width="1.5" stroke-linecap="round" stroke-linejoin="round"/>
</svg>
