<svg width="190" height="273" viewBox="0 0 190 273" fill="none" xmlns="http://www.w3.org/2000/svg">
<path d="M47 270H144" stroke="#D1D4E0" stroke-width="4.5" stroke-linecap="round" stroke-linejoin="round"/>
<path d="M63.92 262.646L58.36 211.323C58.1678 209.549 59.5578 208 61.3426 208H130.685C132.46 208 133.847 209.532 133.67 211.299L128.54 262.597C128.234 265.664 125.653 268 122.57 268H69.8851C66.8215 268 64.25 265.692 63.92 262.646Z" fill="url(#paint0_linear_18157_54428)"/>
<rect x="54" y="204" width="84" height="8" rx="4" fill="url(#paint1_linear_18157_54428)"/>
<path d="M75 230L77 249" stroke="#D1D4E0" stroke-width="5.5" stroke-linecap="round" stroke-linejoin="round"/>
<path d="M117 230L115 249" stroke="#D1D4E0" stroke-width="5.5" stroke-linecap="round" stroke-linejoin="round"/>
<path d="M96 226V252" stroke="#D1D4E0" stroke-width="5.5" stroke-linecap="round" stroke-linejoin="round"/>
<path d="M3 110H187.5" stroke="#D1D4E0" stroke-width="4.5" stroke-linecap="round" stroke-linejoin="round"/>
<path d="M25 62C25 59.7909 26.7909 58 29 58H162C164.209 58 166 59.7909 166 62V108H25V62Z" fill="url(#paint2_linear_18157_54428)"/>
<path d="M31 58C31 56.8954 31.8954 56 33 56H158C159.105 56 160 56.8954 160 58V58H31V58Z" fill="#545B7E"/>
<path d="M53 58L53 7C53 3.13401 56.134 0 60 0H131C134.866 0 138 3.13401 138 7V58H53Z" fill="url(#paint3_linear_18157_54428)"/>
<rect x="65" y="58" width="58" height="20" transform="rotate(-90 65 58)" fill="#0E1433"/>
<g opacity="0.78">
<path d="M95.4511 15.0846C94.8251 15.0846 94.3147 14.8759 93.9199 14.4586C93.5251 14.0356 93.3277 13.4913 93.3277 12.8258V11.1507C93.3277 10.4852 93.5251 9.94375 93.9199 9.5264C94.3203 9.1034 94.8307 8.8919 95.4511 8.8919C96.0715 8.8919 96.5819 9.1034 96.9824 9.5264C97.3828 9.94939 97.583 10.4908 97.583 11.1507V12.8258C97.583 13.4913 97.3828 14.0356 96.9824 14.4586C96.5819 14.8759 96.0715 15.0846 95.4511 15.0846ZM95.4511 14.374C95.8685 14.374 96.2069 14.2358 96.4663 13.9594C96.7258 13.6831 96.8555 13.3052 96.8555 12.8258V11.1507C96.8555 10.6713 96.7258 10.2934 96.4663 10.0171C96.2069 9.74072 95.8685 9.60254 95.4511 9.60254C95.0394 9.60254 94.7038 9.74072 94.4444 10.0171C94.1849 10.2934 94.0552 10.6713 94.0552 11.1507V12.8258C94.0552 13.3052 94.1849 13.6831 94.4444 13.9594C94.7038 14.2358 95.0394 14.374 95.4511 14.374ZM100.722 15.0846C100.096 15.0846 99.5856 14.8759 99.1908 14.4586C98.796 14.0356 98.5986 13.4913 98.5986 12.8258V11.1507C98.5986 10.4852 98.796 9.94375 99.1908 9.5264C99.5913 9.1034 100.102 8.8919 100.722 8.8919C101.342 8.8919 101.853 9.1034 102.253 9.5264C102.654 9.94939 102.854 10.4908 102.854 11.1507V12.8258C102.854 13.4913 102.654 14.0356 102.253 14.4586C101.853 14.8759 101.342 15.0846 100.722 15.0846ZM100.722 14.374C101.139 14.374 101.478 14.2358 101.737 13.9594C101.997 13.6831 102.126 13.3052 102.126 12.8258V11.1507C102.126 10.6713 101.997 10.2934 101.737 10.0171C101.478 9.74072 101.139 9.60254 100.722 9.60254C100.31 9.60254 99.9748 9.74072 99.7153 10.0171C99.4559 10.2934 99.3262 10.6713 99.3262 11.1507V12.8258C99.3262 13.3052 99.4559 13.6831 99.7153 13.9594C99.9748 14.2358 100.31 14.374 100.722 14.374ZM105.993 15.0846C105.367 15.0846 104.857 14.8759 104.462 14.4586C104.067 14.0356 103.87 13.4913 103.87 12.8258V11.1507C103.87 10.4852 104.067 9.94375 104.462 9.5264C104.862 9.1034 105.373 8.8919 105.993 8.8919C106.613 8.8919 107.124 9.1034 107.524 9.5264C107.925 9.94939 108.125 10.4908 108.125 11.1507V12.8258C108.125 13.4913 107.925 14.0356 107.524 14.4586C107.124 14.8759 106.613 15.0846 105.993 15.0846ZM105.993 14.374C106.41 14.374 106.749 14.2358 107.008 13.9594C107.268 13.6831 107.397 13.3052 107.397 12.8258V11.1507C107.397 10.6713 107.268 10.2934 107.008 10.0171C106.749 9.74072 106.41 9.60254 105.993 9.60254C105.581 9.60254 105.246 9.74072 104.986 10.0171C104.727 10.2934 104.597 10.6713 104.597 11.1507V12.8258C104.597 13.3052 104.727 13.6831 104.986 13.9594C105.246 14.2358 105.581 14.374 105.993 14.374ZM111.264 15.0846C110.638 15.0846 110.128 14.8759 109.733 14.4586C109.338 14.0356 109.141 13.4913 109.141 12.8258V11.1507C109.141 10.4852 109.338 9.94375 109.733 9.5264C110.133 9.1034 110.644 8.8919 111.264 8.8919C111.884 8.8919 112.395 9.1034 112.795 9.5264C113.196 9.94939 113.396 10.4908 113.396 11.1507V12.8258C113.396 13.4913 113.196 14.0356 112.795 14.4586C112.395 14.8759 111.884 15.0846 111.264 15.0846ZM111.264 14.374C111.681 14.374 112.02 14.2358 112.279 13.9594C112.539 13.6831 112.668 13.3052 112.668 12.8258V11.1507C112.668 10.6713 112.539 10.2934 112.279 10.0171C112.02 9.74072 111.681 9.60254 111.264 9.60254C110.852 9.60254 110.517 9.74072 110.257 10.0171C109.998 10.2934 109.868 10.6713 109.868 11.1507V12.8258C109.868 13.3052 109.998 13.6831 110.257 13.9594C110.517 14.2358 110.852 14.374 111.264 14.374Z" fill="#E6E6E6"/>
<path d="M95.4511 46.1045C94.8251 46.1045 94.3147 45.8958 93.9199 45.4785C93.5251 45.0555 93.3277 44.5112 93.3277 43.8457V42.1706C93.3277 41.5051 93.5251 40.9637 93.9199 40.5463C94.3203 40.1233 94.8307 39.9118 95.4511 39.9118C96.0715 39.9118 96.5819 40.1233 96.9824 40.5463C97.3828 40.9693 97.583 41.5107 97.583 42.1706V43.8457C97.583 44.5112 97.3828 45.0555 96.9824 45.4785C96.5819 45.8958 96.0715 46.1045 95.4511 46.1045ZM95.4511 45.3939C95.8685 45.3939 96.2069 45.2557 96.4663 44.9793C96.7258 44.703 96.8555 44.3251 96.8555 43.8457V42.1706C96.8555 41.6912 96.7258 41.3133 96.4663 41.037C96.2069 40.7606 95.8685 40.6224 95.4511 40.6224C95.0394 40.6224 94.7038 40.7606 94.4444 41.037C94.1849 41.3133 94.0552 41.6912 94.0552 42.1706V43.8457C94.0552 44.3251 94.1849 44.703 94.4444 44.9793C94.7038 45.2557 95.0394 45.3939 95.4511 45.3939ZM100.722 46.1045C100.096 46.1045 99.5856 45.8958 99.1908 45.4785C98.796 45.0555 98.5986 44.5112 98.5986 43.8457V42.1706C98.5986 41.5051 98.796 40.9637 99.1908 40.5463C99.5913 40.1233 100.102 39.9118 100.722 39.9118C101.342 39.9118 101.853 40.1233 102.253 40.5463C102.654 40.9693 102.854 41.5107 102.854 42.1706V43.8457C102.854 44.5112 102.654 45.0555 102.253 45.4785C101.853 45.8958 101.342 46.1045 100.722 46.1045ZM100.722 45.3939C101.139 45.3939 101.478 45.2557 101.737 44.9793C101.997 44.703 102.126 44.3251 102.126 43.8457V42.1706C102.126 41.6912 101.997 41.3133 101.737 41.037C101.478 40.7606 101.139 40.6224 100.722 40.6224C100.31 40.6224 99.9748 40.7606 99.7153 41.037C99.4559 41.3133 99.3262 41.6912 99.3262 42.1706V43.8457C99.3262 44.3251 99.4559 44.703 99.7153 44.9793C99.9748 45.2557 100.31 45.3939 100.722 45.3939ZM105.993 46.1045C105.367 46.1045 104.857 45.8958 104.462 45.4785C104.067 45.0555 103.87 44.5112 103.87 43.8457V42.1706C103.87 41.5051 104.067 40.9637 104.462 40.5463C104.862 40.1233 105.373 39.9118 105.993 39.9118C106.613 39.9118 107.124 40.1233 107.524 40.5463C107.925 40.9693 108.125 41.5107 108.125 42.1706V43.8457C108.125 44.5112 107.925 45.0555 107.524 45.4785C107.124 45.8958 106.613 46.1045 105.993 46.1045ZM105.993 45.3939C106.41 45.3939 106.749 45.2557 107.008 44.9793C107.268 44.703 107.397 44.3251 107.397 43.8457V42.1706C107.397 41.6912 107.268 41.3133 107.008 41.037C106.749 40.7606 106.41 40.6224 105.993 40.6224C105.581 40.6224 105.246 40.7606 104.986 41.037C104.727 41.3133 104.597 41.6912 104.597 42.1706V43.8457C104.597 44.3251 104.727 44.703 104.986 44.9793C105.246 45.2557 105.581 45.3939 105.993 45.3939ZM111.264 46.1045C110.638 46.1045 110.128 45.8958 109.733 45.4785C109.338 45.0555 109.141 44.5112 109.141 43.8457V42.1706C109.141 41.5051 109.338 40.9637 109.733 40.5463C110.133 40.1233 110.644 39.9118 111.264 39.9118C111.884 39.9118 112.395 40.1233 112.795 40.5463C113.196 40.9693 113.396 41.5107 113.396 42.1706V43.8457C113.396 44.5112 113.196 45.0555 112.795 45.4785C112.395 45.8958 111.884 46.1045 111.264 46.1045ZM111.264 45.3939C111.681 45.3939 112.02 45.2557 112.279 44.9793C112.539 44.703 112.668 44.3251 112.668 43.8457V42.1706C112.668 41.6912 112.539 41.3133 112.279 41.037C112.02 40.7606 111.681 40.6224 111.264 40.6224C110.852 40.6224 110.517 40.7606 110.257 41.037C109.998 41.3133 109.868 41.6912 109.868 42.1706V43.8457C109.868 44.3251 109.998 44.703 110.257 44.9793C110.517 45.2557 110.852 45.3939 111.264 45.3939Z" fill="#E6E6E6"/>
<path d="M95.4511 30.5945C94.8251 30.5945 94.3147 30.3858 93.9199 29.9684C93.5251 29.5455 93.3277 29.0012 93.3277 28.3357V26.6606C93.3277 25.9951 93.5251 25.4536 93.9199 25.0363C94.3203 24.6133 94.8307 24.4018 95.4511 24.4018C96.0715 24.4018 96.5819 24.6133 96.9824 25.0363C97.3828 25.4593 97.583 26.0007 97.583 26.6606V28.3357C97.583 29.0012 97.3828 29.5455 96.9824 29.9684C96.5819 30.3858 96.0715 30.5945 95.4511 30.5945ZM95.4511 29.8838C95.8685 29.8838 96.2069 29.7457 96.4663 29.4693C96.7258 29.193 96.8555 28.8151 96.8555 28.3357V26.6606C96.8555 26.1812 96.7258 25.8033 96.4663 25.527C96.2069 25.2506 95.8685 25.1124 95.4511 25.1124C95.0394 25.1124 94.7038 25.2506 94.4444 25.527C94.1849 25.8033 94.0552 26.1812 94.0552 26.6606V28.3357C94.0552 28.8151 94.1849 29.193 94.4444 29.4693C94.7038 29.7457 95.0394 29.8838 95.4511 29.8838ZM100.722 30.5945C100.096 30.5945 99.5856 30.3858 99.1908 29.9684C98.796 29.5455 98.5986 29.0012 98.5986 28.3357V26.6606C98.5986 25.9951 98.796 25.4536 99.1908 25.0363C99.5913 24.6133 100.102 24.4018 100.722 24.4018C101.342 24.4018 101.853 24.6133 102.253 25.0363C102.654 25.4593 102.854 26.0007 102.854 26.6606V28.3357C102.854 29.0012 102.654 29.5455 102.253 29.9684C101.853 30.3858 101.342 30.5945 100.722 30.5945ZM100.722 29.8838C101.139 29.8838 101.478 29.7457 101.737 29.4693C101.997 29.193 102.126 28.8151 102.126 28.3357V26.6606C102.126 26.1812 101.997 25.8033 101.737 25.527C101.478 25.2506 101.139 25.1124 100.722 25.1124C100.31 25.1124 99.9748 25.2506 99.7153 25.527C99.4559 25.8033 99.3262 26.1812 99.3262 26.6606V28.3357C99.3262 28.8151 99.4559 29.193 99.7153 29.4693C99.9748 29.7457 100.31 29.8838 100.722 29.8838ZM105.993 30.5945C105.367 30.5945 104.857 30.3858 104.462 29.9684C104.067 29.5455 103.87 29.0012 103.87 28.3357V26.6606C103.87 25.9951 104.067 25.4536 104.462 25.0363C104.862 24.6133 105.373 24.4018 105.993 24.4018C106.613 24.4018 107.124 24.6133 107.524 25.0363C107.925 25.4593 108.125 26.0007 108.125 26.6606V28.3357C108.125 29.0012 107.925 29.5455 107.524 29.9684C107.124 30.3858 106.613 30.5945 105.993 30.5945ZM105.993 29.8838C106.41 29.8838 106.749 29.7457 107.008 29.4693C107.268 29.193 107.397 28.8151 107.397 28.3357V26.6606C107.397 26.1812 107.268 25.8033 107.008 25.527C106.749 25.2506 106.41 25.1124 105.993 25.1124C105.581 25.1124 105.246 25.2506 104.986 25.527C104.727 25.8033 104.597 26.1812 104.597 26.6606V28.3357C104.597 28.8151 104.727 29.193 104.986 29.4693C105.246 29.7457 105.581 29.8838 105.993 29.8838ZM111.264 30.5945C110.638 30.5945 110.128 30.3858 109.733 29.9684C109.338 29.5455 109.141 29.0012 109.141 28.3357V26.6606C109.141 25.9951 109.338 25.4536 109.733 25.0363C110.133 24.6133 110.644 24.4018 111.264 24.4018C111.884 24.4018 112.395 24.6133 112.795 25.0363C113.196 25.4593 113.396 26.0007 113.396 26.6606V28.3357C113.396 29.0012 113.196 29.5455 112.795 29.9684C112.395 30.3858 111.884 30.5945 111.264 30.5945ZM111.264 29.8838C111.681 29.8838 112.02 29.7457 112.279 29.4693C112.539 29.193 112.668 28.8151 112.668 28.3357V26.6606C112.668 26.1812 112.539 25.8033 112.279 25.527C112.02 25.2506 111.681 25.1124 111.264 25.1124C110.852 25.1124 110.517 25.2506 110.257 25.527C109.998 25.8033 109.868 26.1812 109.868 26.6606V28.3357C109.868 28.8151 109.998 29.193 110.257 29.4693C110.517 29.7457 110.852 29.8838 111.264 29.8838Z" fill="#E6E6E6"/>
<path fill-rule="evenodd" clip-rule="evenodd" d="M97.583 58V57.1509C97.583 56.491 97.3828 55.9496 96.9824 55.5266C96.5819 55.1036 96.0715 54.8921 95.4511 54.8921C94.8307 54.8921 94.3203 55.1036 93.9199 55.5266C93.5251 55.9439 93.3277 56.4854 93.3277 57.1509V58H94.0552V57.1509C94.0552 56.6715 94.1849 56.2936 94.4444 56.0173C94.7038 55.7409 95.0394 55.6027 95.4511 55.6027C95.8685 55.6027 96.2069 55.7409 96.4663 56.0173C96.7258 56.2936 96.8555 56.6715 96.8555 57.1509V58H97.583ZM102.854 58V57.1509C102.854 56.491 102.654 55.9496 102.253 55.5266C101.853 55.1036 101.342 54.8921 100.722 54.8921C100.102 54.8921 99.5913 55.1036 99.1908 55.5266C98.796 55.9439 98.5986 56.4854 98.5986 57.1509V58H99.3262V57.1509C99.3262 56.6715 99.4559 56.2936 99.7153 56.0173C99.9748 55.7409 100.31 55.6027 100.722 55.6027C101.139 55.6027 101.478 55.7409 101.737 56.0173C101.997 56.2936 102.126 56.6715 102.126 57.1509V58H102.854ZM108.125 58V57.1509C108.125 56.491 107.925 55.9496 107.524 55.5266C107.124 55.1036 106.613 54.8921 105.993 54.8921C105.373 54.8921 104.862 55.1036 104.462 55.5266C104.067 55.9439 103.87 56.4854 103.87 57.1509V58H104.597V57.1509C104.597 56.6715 104.727 56.2936 104.986 56.0173C105.246 55.7409 105.581 55.6027 105.993 55.6027C106.41 55.6027 106.749 55.7409 107.008 56.0173C107.268 56.2936 107.397 56.6715 107.397 57.1509V58H108.125ZM113.396 58V57.1509C113.396 56.491 113.196 55.9496 112.795 55.5266C112.395 55.1036 111.884 54.8921 111.264 54.8921C110.644 54.8921 110.133 55.1036 109.733 55.5266C109.338 55.9439 109.141 56.4854 109.141 57.1509V58H109.868V57.1509C109.868 56.6715 109.998 56.2936 110.257 56.0173C110.517 55.7409 110.852 55.6027 111.264 55.6027C111.681 55.6027 112.02 55.7409 112.279 56.0173C112.539 56.2936 112.668 56.6715 112.668 57.1509V58H113.396Z" fill="#E6E6E6"/>
<path opacity="0.5" d="M115.732 8.81995V15.1127C115.732 16.3524 114.813 17.3996 113.583 17.5596L92.1491 20.349C90.9198 20.509 90 21.5562 90 22.7959V29.9699" stroke="url(#paint4_linear_18157_54428)" stroke-width="0.352499" stroke-linecap="round" stroke-linejoin="round"/>
<path opacity="0.5" d="M115.732 24.33V30.6227C115.732 31.8624 114.813 32.9096 113.583 33.0696L92.1491 35.859C90.9198 36.019 90 37.0662 90 38.3059V45.4799" stroke="url(#paint5_linear_18157_54428)" stroke-width="0.352499" stroke-linecap="round" stroke-linejoin="round"/>
<path opacity="0.5" d="M115.732 39.84V46.1328C115.732 47.3724 114.813 48.4196 113.583 48.5796L92.1491 51.369C90.9198 51.529 90 52.5762 90 53.8159V60.9899" stroke="url(#paint6_linear_18157_54428)" stroke-width="0.352499" stroke-linecap="round" stroke-linejoin="round"/>
</g>
<circle cx="37" cy="70" r="4" fill="#D9261F"/>
<circle cx="47" cy="70" r="4" fill="#3E9438"/>
<rect x="43" y="96" width="105" height="6" rx="3" fill="#545B7E"/>
<mask id="mask0_18157_54428" style="mask-type:alpha" maskUnits="userSpaceOnUse" x="53" y="98" width="85" height="32">
<path fill-rule="evenodd" clip-rule="evenodd" d="M53 98H58V130C55.2386 130 53 127.761 53 125V98ZM60 98H65V130H60V98ZM72 98H67V130H72V98ZM74 98H79V130H74V98ZM86 98H81V130H86V98ZM88 98H93V130H88V98ZM100 98H95V130H100V98ZM102 98H107V130H102V98ZM114 98H109V130H114V98ZM116 98H121V130H116V98ZM128 98H123V130H128V98ZM130 98H135V130H130V98ZM138 98H137V127C137.552 127 138 126.552 138 126V98Z" fill="#D9D9D9"/>
</mask>
<g mask="url(#mask0_18157_54428)">
<rect x="53" y="130" width="130" height="85" rx="7" transform="rotate(-90 53 130)" fill="url(#paint7_linear_18157_54428)"/>
<rect x="65" y="130" width="130" height="19" transform="rotate(-90 65 130)" fill="#0E1433"/>
</g>
<defs>
<linearGradient id="paint0_linear_18157_54428" x1="58" y1="238" x2="134" y2="238" gradientUnits="userSpaceOnUse">
<stop stop-color="#979DBA"/>
<stop offset="1" stop-color="#D1D4E0"/>
</linearGradient>
<linearGradient id="paint1_linear_18157_54428" x1="54" y1="208" x2="138" y2="208" gradientUnits="userSpaceOnUse">
<stop stop-color="#545B7E"/>
<stop offset="1" stop-color="#979DBA"/>
</linearGradient>
<linearGradient id="paint2_linear_18157_54428" x1="25" y1="83" x2="166" y2="83" gradientUnits="userSpaceOnUse">
<stop stop-color="#979DBA"/>
<stop offset="1" stop-color="#D1D4E0"/>
</linearGradient>
<linearGradient id="paint3_linear_18157_54428" x1="96" y1="1.39596e-06" x2="96" y2="132.5" gradientUnits="userSpaceOnUse">
<stop stop-color="#545C83"/>
<stop offset="1" stop-color="#0E1433"/>
</linearGradient>
<linearGradient id="paint4_linear_18157_54428" x1="113.441" y1="8.81995" x2="87.7088" y2="29.9699" gradientUnits="userSpaceOnUse">
<stop stop-color="#F0F1F5"/>
<stop offset="1" stop-color="#F0F1F5" stop-opacity="0"/>
</linearGradient>
<linearGradient id="paint5_linear_18157_54428" x1="113.441" y1="24.33" x2="87.7088" y2="45.4799" gradientUnits="userSpaceOnUse">
<stop stop-color="#F0F1F5"/>
<stop offset="1" stop-color="#F0F1F5" stop-opacity="0"/>
</linearGradient>
<linearGradient id="paint6_linear_18157_54428" x1="113.441" y1="39.84" x2="87.7088" y2="60.9899" gradientUnits="userSpaceOnUse">
<stop stop-color="#F0F1F5"/>
<stop offset="1" stop-color="#F0F1F5" stop-opacity="0"/>
</linearGradient>
<linearGradient id="paint7_linear_18157_54428" x1="183" y1="173" x2="-107.259" y2="173" gradientUnits="userSpaceOnUse">
<stop stop-color="#171E43"/>
<stop offset="1" stop-color="#070809"/>
</linearGradient>
</defs>
</svg>
