<svg width="24" height="24" viewBox="0 0 24 24" fill="none" xmlns="http://www.w3.org/2000/svg">
<path d="M1.99609 8.5H11.4961" stroke="#8F8F8F" stroke-width="1.5" stroke-miterlimit="10" stroke-linecap="round" stroke-linejoin="round"/>
<path d="M5.99609 16.5H7.99609" stroke="#8F8F8F" stroke-width="1.5" stroke-miterlimit="10" stroke-linecap="round" stroke-linejoin="round"/>
<path d="M10.4961 16.5H14.4961" stroke="#8F8F8F" stroke-width="1.5" stroke-miterlimit="10" stroke-linecap="round" stroke-linejoin="round"/>
<path d="M21.9961 12.03V16.11C21.9961 19.62 21.1061 20.5 17.5561 20.5H6.43609C2.88609 20.5 1.99609 19.62 1.99609 16.11V7.89C1.99609 4.38 2.88609 3.5 6.43609 3.5H12" stroke="#8F8F8F" stroke-width="1.5" stroke-linecap="round" stroke-linejoin="round"/>
<path fill-rule="evenodd" clip-rule="evenodd" d="M14.832 4.63359V5.36692C14.832 5.80026 15.1862 6.15859 15.6237 6.15859C16.3779 6.15859 16.6862 6.69192 16.307 7.34609C16.0904 7.72109 16.2195 8.20859 16.5987 8.42526L17.3195 8.83776C17.6487 9.03359 18.0737 8.91693 18.2695 8.58776L18.3154 8.50859C18.6945 7.85442 19.3112 7.85442 19.6862 8.50859L19.732 8.58776C19.9279 8.91693 20.3529 9.03359 20.682 8.83776L21.4029 8.42526C21.782 8.20859 21.9112 7.72526 21.6945 7.34609C21.3154 6.69192 21.6237 6.15859 22.3779 6.15859C22.8154 6.15859 23.1695 5.80026 23.1695 5.36692V4.63359C23.1695 4.19609 22.8112 3.84193 22.3779 3.84193C21.6237 3.84193 21.3154 3.30859 21.6945 2.65443C21.9112 2.27943 21.782 1.79193 21.4029 1.57526L20.682 1.16276C20.3529 0.966925 19.9279 1.08359 19.732 1.41276L19.6862 1.49192C19.307 2.14609 18.6904 2.14609 18.3154 1.49192L18.2695 1.41276C18.0737 1.08359 17.6487 0.966925 17.3195 1.16276L16.5987 1.57526C16.2195 1.79193 16.0904 2.27943 16.307 2.65443C16.6862 3.30859 16.3779 3.84193 15.6237 3.84193C15.1862 3.84193 14.832 4.20026 14.832 4.63359ZM19.999 5C19.999 5.55228 19.5513 6 18.999 6C18.4467 6 17.999 5.55228 17.999 5C17.999 4.44772 18.4467 4 18.999 4C19.5513 4 19.999 4.44772 19.999 5Z" fill="#8F8F8F"/>
</svg>
