<svg width="24" height="24" viewBox="0 0 24 24" fill="none" xmlns="http://www.w3.org/2000/svg">
<path d="M1.99612 8.5H11.4961" stroke="black" stroke-width="1.5" stroke-miterlimit="10" stroke-linecap="round" stroke-linejoin="round"/>
<path d="M5.99612 16.5H7.99612" stroke="black" stroke-width="1.5" stroke-miterlimit="10" stroke-linecap="round" stroke-linejoin="round"/>
<path d="M10.4961 16.5H14.4961" stroke="black" stroke-width="1.5" stroke-miterlimit="10" stroke-linecap="round" stroke-linejoin="round"/>
<path d="M21.9961 12.03V16.11C21.9961 19.62 21.1061 20.5 17.5561 20.5H6.43612C2.88612 20.5 1.99612 19.62 1.99612 16.11V7.89C1.99612 4.38 2.88612 3.5 6.43612 3.5H12" stroke="black" stroke-width="1.5" stroke-linecap="round" stroke-linejoin="round"/>
<path fill-rule="evenodd" clip-rule="evenodd" d="M14.833 4.63359V5.36692C14.833 5.80026 15.1872 6.15859 15.6247 6.15859C16.3788 6.15859 16.6872 6.69192 16.308 7.34609C16.0913 7.72109 16.2205 8.20859 16.5997 8.42526L17.3205 8.83776C17.6497 9.03359 18.0747 8.91693 18.2705 8.58776L18.3163 8.50859C18.6955 7.85442 19.3122 7.85442 19.6872 8.50859L19.733 8.58776C19.9288 8.91693 20.3538 9.03359 20.683 8.83776L21.4038 8.42526C21.783 8.20859 21.9122 7.72526 21.6955 7.34609C21.3163 6.69192 21.6247 6.15859 22.3788 6.15859C22.8163 6.15859 23.1705 5.80026 23.1705 5.36692V4.63359C23.1705 4.19609 22.8122 3.84193 22.3788 3.84193C21.6247 3.84193 21.3163 3.30859 21.6955 2.65443C21.9122 2.27943 21.783 1.79193 21.4038 1.57526L20.683 1.16276C20.3538 0.966925 19.9288 1.08359 19.733 1.41276L19.6872 1.49192C19.308 2.14609 18.6913 2.14609 18.3163 1.49192L18.2705 1.41276C18.0747 1.08359 17.6497 0.966925 17.3205 1.16276L16.5997 1.57526C16.2205 1.79193 16.0913 2.27943 16.308 2.65443C16.6872 3.30859 16.3788 3.84193 15.6247 3.84193C15.1872 3.84193 14.833 4.20026 14.833 4.63359ZM20 5C20 5.55228 19.5523 6 19 6C18.4477 6 18 5.55228 18 5C18 4.44772 18.4477 4 19 4C19.5523 4 20 4.44772 20 5Z" fill="black"/>
</svg>
