<svg width="150" height="200" viewBox="0 0 150 200" fill="none" xmlns="http://www.w3.org/2000/svg">
<rect width="125" height="200" rx="8.69565" fill="url(#paint0_linear_26460_78645)"/>
<mask id="mask0_26460_78645" style="mask-type:alpha" maskUnits="userSpaceOnUse" x="0" y="0" width="125" height="200">
<rect width="125" height="200" rx="8.69565" fill="white"/>
</mask>
<g mask="url(#mask0_26460_78645)">
<path fill-rule="evenodd" clip-rule="evenodd" d="M7.1528 105.742C7.15291 105.737 7.15302 105.733 7.15313 105.729L7.21675 103.114C7.21675 103.114 7.21675 103.114 7.21675 103.114C8.44879 52.4813 -33.882 8.08544 -86.9176 6.74864C-86.9197 6.74858 -86.9219 6.74853 -86.924 6.74848C-140.734 5.41059 -185.376 48.2923 -186.003 102.255L-216.406 101.92L-186.003 102.259C-186.613 154.189 -145.176 197.784 -93.2804 199.798L-94.4768 230.137L-93.2762 199.799C-39.3186 201.901 5.77599 159.511 7.1528 105.742ZM67.8367 108.538C64.9151 195.543 -8.27654 263.889 -95.6736 260.486C-95.675 260.486 -95.6764 260.486 -95.6777 260.486C-180.449 257.193 -247.735 186.387 -246.74 101.586C-246.74 101.585 -246.74 101.583 -246.74 101.582C-245.717 13.6706 -172.967 -56.15 -85.367 -53.9663L-85.3606 -53.9662C-0.055963 -51.8216 69.9099 19.1537 67.945 104.361C67.9377 104.929 67.9275 105.497 67.9142 106.066L67.9019 106.925C67.8942 107.467 67.8723 108.004 67.8367 108.538Z" fill="url(#paint1_linear_26460_78645)"/>
<path fill-rule="evenodd" clip-rule="evenodd" d="M-64.1009 231.384C-64.7618 248.143 -78.8844 261.201 -95.6447 260.55C-180.418 257.259 -247.706 186.452 -246.711 101.65C-246.711 101.648 -246.711 101.647 -246.711 101.645C-245.688 13.7341 -172.938 -56.0864 -85.3381 -53.9028L-85.3317 -53.9026C-0.0270674 -51.758 69.9388 19.2172 67.9739 104.424C67.9659 105.045 67.9544 105.666 67.9394 106.287C67.5339 123.054 53.6118 136.325 36.8433 135.93C20.0749 135.534 6.81009 121.622 7.21556 104.856C7.226 104.423 7.23371 103.993 7.2387 103.563C7.2402 103.435 7.24251 103.306 7.24564 103.177C8.47772 52.5449 -33.8531 8.14897 -86.8887 6.81218C-86.8908 6.81213 -86.893 6.81207 -86.8951 6.81201C-140.705 5.47412 -185.347 48.3558 -185.974 102.318L-216.342 101.984L-185.974 102.322C-186.584 154.253 -145.147 197.847 -93.2515 199.862C-76.4912 200.513 -63.44 214.626 -64.1009 231.384Z" fill="url(#paint2_linear_26460_78645)"/>
</g>
<path fill-rule="evenodd" clip-rule="evenodd" d="M27.1086 176.314C27.1084 176.314 27.1083 176.315 27.1082 176.315L27.0262 176.411C27.0262 176.411 27.0262 176.411 27.0262 176.411C25.4388 178.277 25.6786 181.234 27.6313 182.898C27.6314 182.898 27.6314 182.898 27.6315 182.898C29.6133 184.587 32.5964 184.334 34.2624 182.324L35.395 183.262L34.2626 182.324C35.8661 180.391 35.6355 177.491 33.7463 175.836L34.7146 174.732L33.7461 175.836C31.782 174.114 28.7969 174.335 27.1086 176.314ZM24.9128 174.362C27.6708 171.181 32.502 170.84 35.6834 173.628C35.6834 173.628 35.6835 173.628 35.6835 173.628C38.7695 176.332 39.1434 181.041 36.525 184.198C36.5249 184.198 36.5249 184.198 36.5248 184.198C33.8106 187.471 28.9511 187.881 25.725 185.133L25.7248 185.133C22.5838 182.456 22.1143 177.659 24.7816 174.516C24.7991 174.495 24.8168 174.474 24.8346 174.453L24.8613 174.421C24.878 174.401 24.8952 174.381 24.9128 174.362Z" fill="url(#paint3_linear_26460_78645)"/>
<path fill-rule="evenodd" clip-rule="evenodd" d="M26.935 174.252C27.5531 174.777 27.6281 175.704 27.1024 176.322L23.051 181.083L23.051 181.083L18.9933 185.852L18.9933 185.852L18.9932 185.852C17.1143 188.061 13.5 186.733 13.5 183.834V178.391C13.5 177.581 14.1578 176.923 14.9692 176.923C15.7807 176.923 16.4385 177.581 16.4385 178.391V183.834C16.4385 183.9 16.4555 183.926 16.4648 183.939C16.4799 183.959 16.5098 183.985 16.5559 184.002C16.602 184.019 16.6417 184.019 16.6664 184.013C16.6818 184.009 16.7115 184 16.7545 183.95L17.8739 184.901C16.7546 183.95 16.7546 183.95 16.7547 183.95L16.7547 183.95L20.8125 179.181L20.8125 179.181L24.8639 174.419C25.3896 173.802 26.3168 173.727 26.935 174.252Z" fill="white"/>
<path fill-rule="evenodd" clip-rule="evenodd" d="M33.61 173.764C34.1449 173.154 35.0732 173.093 35.6834 173.628C38.7695 176.332 39.1434 181.041 36.525 184.198L36.5248 184.199C33.8106 187.472 28.9511 187.882 25.725 185.133L25.7248 185.133C22.5838 182.456 22.1143 177.659 24.7816 174.516C24.8008 174.493 24.8201 174.47 24.8396 174.447C25.3651 173.829 26.2924 173.754 26.9106 174.279C27.5288 174.805 27.6039 175.731 27.0784 176.349C27.0648 176.365 27.0514 176.381 27.0382 176.397C27.0342 176.402 27.0302 176.407 27.0262 176.411C25.4388 178.277 25.6786 181.234 27.6313 182.898L27.6315 182.899C29.6133 184.587 32.5964 184.334 34.2624 182.325L35.3937 183.261L34.2626 182.324C35.8661 180.391 35.6355 177.491 33.7463 175.836C33.1361 175.302 33.0751 174.374 33.61 173.764Z" fill="url(#paint4_linear_26460_78645)"/>
<path d="M14.968 175.596C16.0312 175.596 16.8931 174.735 16.8931 173.672C16.8931 172.609 16.0312 171.748 14.968 171.748C13.9049 171.748 13.043 172.609 13.043 173.672C13.043 174.735 13.9049 175.596 14.968 175.596Z" fill="white"/>
<path d="M90.9223 174.106L86.3638 184.967H83.3895L81.1566 176.297C81.0217 175.766 80.9038 175.564 80.4909 175.345C79.8168 174.974 78.6962 174.637 77.7188 174.418L77.7862 174.106H82.5721C83.1788 174.106 83.7265 174.51 83.8697 175.21L85.0494 181.496L87.9732 174.106H90.9308H90.9223ZM102.567 181.42C102.576 178.555 98.5984 178.395 98.6321 177.114C98.6321 176.726 99.0113 176.314 99.8202 176.204C100.225 176.153 101.337 176.111 102.592 176.693L103.081 174.392C102.407 174.148 101.531 173.912 100.452 173.912C97.6716 173.912 95.7167 175.387 95.6999 177.502C95.683 179.069 97.0986 179.937 98.1603 180.459C99.2557 180.99 99.618 181.335 99.618 181.807C99.618 182.54 98.7417 182.861 97.9328 182.869C96.5172 182.894 95.6999 182.49 95.0426 182.186L94.5371 184.571C95.1943 184.874 96.4077 185.136 97.6631 185.144C100.612 185.144 102.55 183.686 102.559 181.428M109.898 184.975H112.501L110.235 174.106H107.833C107.294 174.106 106.839 174.418 106.637 174.906L102.424 184.975H105.373L105.963 183.358H109.569L109.906 184.975H109.898ZM106.763 181.125L108.246 177.047L109.097 181.125H106.763ZM94.9415 174.106L92.616 184.967H89.8017L92.1357 174.106H94.95H94.9415Z" fill="url(#paint5_linear_26460_78645)"/>
<path d="M82.064 30.5849L82.0647 30.5855V29.7887C82.0647 28.4501 81.7298 27.532 81.1171 26.9226C81.1171 26.9226 81.7039 27.7562 81.9048 28.3662C82.1765 29.1913 82.064 30.5849 82.064 30.5849ZM82.064 30.5849V33.3189V33.5959H81.787H78.1471H77.793L77.8778 33.2524C77.9301 33.0414 77.9591 32.8302 77.9591 32.6129V26.2582V25.9812H78.2361C79.5823 25.9812 80.5051 26.3136 81.1171 26.9226C81.1171 26.9226 81.7039 27.7562 81.9048 28.3662C82.1765 29.1913 82.064 30.5849 82.064 30.5849ZM82.064 42.9271V43.2041V46.7348C82.064 48.0741 81.7298 48.9922 81.1164 49.601C82.3364 47.2816 82.0647 45.6512 82.064 42.9271ZM82.064 42.9271L78.1244 42.9276L77.7669 42.9277L77.8566 43.274C77.916 43.5029 77.9584 43.7159 77.9584 43.9327V50.2654V50.5424M82.064 42.9271L82.0647 44.0207C82.0647 44.0207 82.3832 47.7477 81.3736 49.3055C80.7458 50.2743 77.9584 50.5424 77.9584 50.5424M77.9584 50.5424H78.2354H77.9584ZM77.9584 50.5424H78.2354H77.9584ZM78.2354 50.5424C79.5808 50.5424 80.5037 50.2099 81.1164 49.601C80.1679 50.5424 78.2354 50.5424 78.2354 50.5424ZM82.064 34.7311V34.4541H81.787H77.415H77.2849L77.2016 34.5545C76.8171 35.0195 76.4695 35.3407 76.0836 35.5495C75.7028 35.7561 75.2646 35.8628 74.6838 35.8665H70.4255C69.6164 35.851 68.6766 35.4799 67.9056 34.5539L67.8229 34.4541H67.6929H63.32H63.043V34.7311V41.7923V42.0693H63.32H67.7148H67.8385L67.9212 41.9774C68.6957 41.1149 69.4334 40.6791 70.4227 40.6791H74.6845L74.6916 40.679C75.2929 40.6643 75.7091 40.752 76.066 40.9456C76.4285 41.1422 76.755 41.4623 77.1528 41.9644L77.2362 42.0693H77.3704H81.787H82.064V41.7923V34.7311ZM77.0927 26.2575V25.9805H76.8157H73.2634H72.9864V26.2575V34.7305V35.0075H73.2634H74.6845C75.2519 35.0075 75.866 34.6975 76.3232 34.2432C76.779 33.7892 77.0927 33.1772 77.0927 32.6123V26.2575ZM76.8157 50.5414H77.0927V50.2644V43.9317C77.0927 43.3662 76.7797 42.7549 76.3225 42.3008C75.866 41.8472 75.2512 41.5365 74.6845 41.5365H73.2634H72.9864V41.8135V50.2644V50.5414H73.2634H76.8157ZM72.1208 26.2575V25.9805H71.8438H68.2914H68.0144V26.2575V32.6123C68.0144 33.1505 68.2971 33.7776 68.7614 34.2425C69.2249 34.7057 69.8652 35.0075 70.4227 35.0075H71.8438H72.1208V34.7305V26.2575ZM72.1208 41.8145V41.5375H71.8438H70.4234C69.8659 41.5375 69.2249 41.8391 68.7621 42.3025C68.2978 42.7674 68.0151 43.3951 68.0151 43.9328V50.2655V50.5425H68.2922H71.8438H72.1208V50.2655V41.8145ZM67.2513 43.2723L67.3375 42.9278L66.9827 42.9277L63.3201 42.9272L63.043 42.9271V43.2042V46.7348C63.043 48.0683 63.3528 48.9891 63.9685 49.6011C64.582 50.211 65.5273 50.5425 66.8718 50.5425H67.1488V50.2655V43.9328C67.1488 43.7193 67.1933 43.5034 67.2513 43.2723ZM66.9601 33.5964H67.0796L67.1615 33.5095L67.1622 33.5089L67.2696 33.3955L67.2279 33.245C67.1764 33.0575 67.1481 32.8441 67.1488 32.6135V26.258V25.981H66.8718C65.5278 25.981 64.5821 26.3125 63.9685 26.9223C63.3528 27.5337 63.043 28.4547 63.043 29.7887V33.3193V33.5963H63.32L66.9601 33.5964Z" fill="url(#paint6_linear_26460_78645)"/>
<path d="M82.064 30.5849L82.0647 30.5855V29.7887C82.0647 28.4501 81.7298 27.532 81.1171 26.9226M82.064 30.5849V33.3189V33.5959H81.787H78.1471H77.793L77.8778 33.2524C77.9301 33.0414 77.9591 32.8302 77.9591 32.6129V26.2582V25.9812H78.2361C79.5823 25.9812 80.5051 26.3136 81.1171 26.9226M82.064 30.5849C82.064 30.5849 82.1765 29.1913 81.9048 28.3662C81.7039 27.7562 81.1171 26.9226 81.1171 26.9226M82.064 42.9271V43.2041V46.7348C82.064 48.0741 81.7298 48.9922 81.1164 49.601M82.064 42.9271C82.0647 45.6512 82.3364 47.2816 81.1164 49.601M82.064 42.9271L78.1244 42.9276L77.7669 42.9277L77.8566 43.274C77.916 43.5029 77.9584 43.7159 77.9584 43.9327V50.2654V50.5424M82.064 42.9271L82.0647 44.0207C82.0647 44.0207 82.3832 47.7477 81.3736 49.3055C80.7458 50.2743 77.9584 50.5424 77.9584 50.5424M81.1164 49.601C80.5037 50.2099 79.5808 50.5424 78.2354 50.5424M81.1164 49.601C80.1679 50.5424 78.2354 50.5424 78.2354 50.5424M77.9584 50.5424H78.2354M68.7621 42.3025C69.2249 41.8391 69.8659 41.5375 70.4234 41.5375H71.8438H72.1208V41.8145V50.2655V50.5425H71.8438H68.2922H68.0151V50.2655V43.9328C68.0151 43.3951 68.2978 42.7674 68.7621 42.3025ZM68.7621 42.3025L68.919 42.4591M82.064 34.7311V34.4541H81.787H77.415H77.2849L77.2016 34.5545C76.8171 35.0195 76.4695 35.3407 76.0836 35.5495C75.7028 35.7561 75.2646 35.8628 74.6838 35.8665H70.4255C69.6164 35.851 68.6766 35.4799 67.9056 34.5539L67.8229 34.4541H67.6929H63.32H63.043V34.7311V41.7923V42.0693H63.32H67.7148H67.8385L67.9212 41.9774C68.6957 41.1149 69.4334 40.6791 70.4227 40.6791H74.6845L74.6916 40.679C75.2929 40.6643 75.7091 40.752 76.066 40.9456C76.4285 41.1422 76.755 41.4623 77.1528 41.9644L77.2362 42.0693H77.3704H81.787H82.064V41.7923V34.7311ZM77.0927 26.2575V25.9805H76.8157H73.2634H72.9864V26.2575V34.7305V35.0075H73.2634H74.6845C75.2519 35.0075 75.866 34.6975 76.3232 34.2432C76.779 33.7892 77.0927 33.1772 77.0927 32.6123V26.2575ZM76.8157 50.5414H77.0927V50.2644V43.9317C77.0927 43.3662 76.7797 42.7549 76.3225 42.3008C75.866 41.8472 75.2512 41.5365 74.6845 41.5365H73.2634H72.9864V41.8135V50.2644V50.5414H73.2634H76.8157ZM72.1208 26.2575V25.9805H71.8438H68.2914H68.0144V26.2575V32.6123C68.0144 33.1505 68.2971 33.7776 68.7614 34.2425C69.2249 34.7057 69.8652 35.0075 70.4227 35.0075H71.8438H72.1208V34.7305V26.2575ZM67.2513 43.2723L67.3375 42.9278L66.9827 42.9277L63.3201 42.9272L63.043 42.9271V43.2042V46.7348C63.043 48.0683 63.3528 48.9891 63.9685 49.6011C64.582 50.211 65.5273 50.5425 66.8718 50.5425H67.1488V50.2655V43.9328C67.1488 43.7193 67.1933 43.5034 67.2513 43.2723ZM66.9601 33.5964H67.0796L67.1615 33.5095L67.1622 33.5089L67.2696 33.3955L67.2279 33.245C67.1764 33.0575 67.1481 32.8441 67.1488 32.6135V26.258V25.981H66.8718C65.5278 25.981 64.5821 26.3125 63.9685 26.9223C63.3528 27.5337 63.043 28.4547 63.043 29.7887V33.3193V33.5963H63.32L66.9601 33.5964Z" stroke="#E6E6E6" stroke-width="0.271739"/>
<g opacity="0.5">
<path fill-rule="evenodd" clip-rule="evenodd" d="M90.3906 39.9235C90.3906 39.7163 90.4611 39.5775 90.6734 39.2325C91.0277 38.611 91.0981 38.266 91.0981 37.5057C91.0981 36.7464 91.0277 36.4014 90.6734 35.7799C90.603 35.6421 90.3906 35.2961 90.3906 35.0889C90.3906 34.6746 90.7439 34.2602 91.1686 34.2602C91.5229 34.2602 91.8057 34.399 92.0895 34.9511C92.5847 35.7105 92.8675 36.6086 92.8675 37.5751C92.8675 38.5416 92.5847 39.5091 92.0895 40.2684C91.8057 40.6828 91.5229 40.89 91.1686 40.89C90.7439 40.7522 90.3906 40.3378 90.3906 39.9235ZM93.3637 41.4421C93.3637 41.2349 93.4341 41.0971 93.7169 40.6134C94.2835 39.5775 94.4959 38.5416 94.4959 37.4373C94.4959 36.4014 94.2835 35.3655 93.7169 34.3296C93.4341 33.8458 93.3637 33.6387 93.3637 33.4315C93.3637 33.2243 93.6465 32.7416 94.1416 32.7416C94.6378 32.7416 94.8502 32.9487 95.2749 33.7775C95.912 34.9511 96.1948 36.0565 96.1948 37.4373C96.1948 38.8876 95.9824 39.9235 95.2045 41.3737C94.9921 41.8565 94.7083 42.2708 94.2131 42.2708C93.7169 42.2014 93.3637 41.8565 93.3637 41.4421ZM96.5491 43.0301C96.5491 42.6852 96.7614 42.4086 96.9738 41.9942C97.6813 40.544 98.0356 39.0253 98.0356 37.5057C98.0356 35.9176 97.6813 34.398 96.9033 32.8793C96.6195 32.3272 96.5491 32.0506 96.5491 31.8434C96.5491 31.5679 96.9033 31.1535 97.3985 31.1535C97.9651 31.1535 98.106 31.5679 98.4603 32.12C99.1678 33.5009 99.8059 35.3655 99.8059 37.5067C99.8059 39.0947 99.4516 40.7522 98.6022 42.6158C98.2479 43.4445 97.8937 43.8589 97.4689 43.8589C96.9033 43.8589 96.5491 43.4445 96.5491 43.0301ZM99.664 44.6192C99.664 44.3426 99.8059 44.066 100.018 43.7211C101.08 41.7871 101.575 39.8541 101.575 37.4373C101.575 35.1583 101.151 33.3631 100.089 31.2219C99.9468 30.8769 99.7344 30.532 99.7344 30.2554C99.7344 29.841 100.089 29.4961 100.513 29.4961C101.009 29.4961 101.221 29.7716 101.575 30.532C102.779 32.811 103.274 35.0206 103.274 37.4373C103.274 39.9235 102.637 42.2024 101.505 44.412C101.292 44.8948 101.08 45.4479 100.443 45.4479C100.089 45.4479 99.664 45.1019 99.664 44.6192Z" fill="#F0F1F5"/>
</g>
<circle cx="125.199" cy="138.201" r="20.8942" fill="white" stroke="url(#paint7_linear_26460_78645)" stroke-width="6"/>
<path d="M134.987 119.736C132.067 118.185 128.735 117.307 125.199 117.307C113.659 117.307 104.305 126.661 104.305 138.201C104.305 149.74 113.659 159.095 125.199 159.095C133.804 159.095 141.195 153.893 144.397 146.461" stroke="url(#paint8_linear_26460_78645)" stroke-width="6" stroke-linecap="round"/>
<path d="M119.973 132.977L130.13 143.134" stroke="#292929" stroke-width="6" stroke-linecap="round"/>
<path d="M130.133 132.977L119.975 143.134" stroke="#292929" stroke-width="6" stroke-linecap="round"/>
<defs>
<linearGradient id="paint0_linear_26460_78645" x1="88.3152" y1="200" x2="28.5023" y2="-96.391" gradientUnits="userSpaceOnUse">
<stop/>
<stop offset="1" stop-color="#666666"/>
</linearGradient>
<linearGradient id="paint1_linear_26460_78645" x1="17.7629" y1="209.402" x2="75.5542" y2="116.341" gradientUnits="userSpaceOnUse">
<stop stop-opacity="0"/>
<stop offset="1" stop-color="#859BE0" stop-opacity="0.5"/>
</linearGradient>
<linearGradient id="paint2_linear_26460_78645" x1="50.0262" y1="144.657" x2="13.3932" y2="31.0824" gradientUnits="userSpaceOnUse">
<stop stop-color="#7A92DB"/>
<stop offset="1" stop-color="#6BC9E0"/>
</linearGradient>
<linearGradient id="paint3_linear_26460_78645" x1="32.4225" y1="172.689" x2="35.0294" y2="186.957" gradientUnits="userSpaceOnUse">
<stop stop-color="white"/>
<stop offset="0.0001" stop-color="white"/>
<stop offset="1" stop-color="#78CFDE"/>
</linearGradient>
<linearGradient id="paint4_linear_26460_78645" x1="28.0635" y1="174.235" x2="33.271" y2="175.742" gradientUnits="userSpaceOnUse">
<stop stop-color="#879EF7"/>
<stop offset="1" stop-color="#78BDCE" stop-opacity="0"/>
</linearGradient>
<linearGradient id="paint5_linear_26460_78645" x1="95.0666" y1="173.912" x2="95.0666" y2="185.144" gradientUnits="userSpaceOnUse">
<stop stop-color="#797A7D"/>
<stop offset="0.348958" stop-color="#E6E6E6"/>
<stop offset="0.490644" stop-color="#FBFCFF"/>
<stop offset="0.625" stop-color="#E0E1E4"/>
<stop offset="1" stop-color="#797A7D"/>
</linearGradient>
<linearGradient id="paint6_linear_26460_78645" x1="72.5538" y1="25.9805" x2="72.5538" y2="50.5425" gradientUnits="userSpaceOnUse">
<stop stop-color="#797A7D"/>
<stop offset="0.348958" stop-color="#E6E6E6"/>
<stop offset="0.490644" stop-color="#FBFCFF"/>
<stop offset="0.625" stop-color="#E0E1E4"/>
<stop offset="1" stop-color="#797A7D"/>
</linearGradient>
<linearGradient id="paint7_linear_26460_78645" x1="128.6" y1="116.335" x2="144.134" y2="142.771" gradientUnits="userSpaceOnUse">
<stop stop-color="white"/>
<stop offset="1" stop-color="#FC7272"/>
</linearGradient>
<linearGradient id="paint8_linear_26460_78645" x1="124.351" y1="117.307" x2="143.421" y2="147.19" gradientUnits="userSpaceOnUse">
<stop stop-color="#F00505"/>
<stop offset="1" stop-color="#FC7373"/>
</linearGradient>
</defs>
</svg>
