<svg width="160" height="160" viewBox="0 0 160 160" fill="none" xmlns="http://www.w3.org/2000/svg">
<circle opacity="0.8" cx="80" cy="80" r="80" fill="#ECEEF9"/>
<circle cx="80" cy="80" r="71" fill="white"/>
<mask id="mask0_3431_35588" style="mask-type:alpha" maskUnits="userSpaceOnUse" x="9" y="9" width="142" height="143">
<circle cx="80" cy="80.0002" r="71" fill="white"/>
</mask>
<g mask="url(#mask0_3431_35588)">
<rect x="-0.000976562" y="24.0002" width="160" height="111.628" rx="9.15675" fill="#F0F0F0"/>
<path d="M34.8537 77.1002C34.347 77.1002 33.877 77.0102 33.4437 76.8302C33.017 76.6436 32.6437 76.3869 32.3237 76.0602C32.0037 75.7269 31.757 75.3436 31.5837 74.9102C31.4103 74.4702 31.3237 74.0002 31.3237 73.5002C31.3237 73.0002 31.4103 72.5336 31.5837 72.1002C31.757 71.6602 32.0037 71.2769 32.3237 70.9502C32.6437 70.6236 33.017 70.3669 33.4437 70.1802C33.877 69.9936 34.347 69.9002 34.8537 69.9002C35.4203 69.9002 35.9103 69.9936 36.3237 70.1802C36.737 70.3669 37.1037 70.6202 37.4237 70.9402L36.6437 71.7202C36.437 71.4936 36.1837 71.3169 35.8837 71.1902C35.5903 71.0636 35.247 71.0002 34.8537 71.0002C34.507 71.0002 34.1903 71.0602 33.9037 71.1802C33.617 71.3002 33.367 71.4736 33.1537 71.7002C32.947 71.9202 32.787 72.1836 32.6737 72.4902C32.5603 72.7969 32.5037 73.1336 32.5037 73.5002C32.5037 73.8669 32.5603 74.2036 32.6737 74.5102C32.787 74.8169 32.947 75.0836 33.1537 75.3102C33.367 75.5302 33.617 75.7002 33.9037 75.8202C34.1903 75.9402 34.507 76.0002 34.8537 76.0002C35.2803 76.0002 35.6403 75.9369 35.9337 75.8102C36.2337 75.6769 36.487 75.4969 36.6937 75.2702L37.4737 76.0502C37.1537 76.3769 36.777 76.6336 36.3437 76.8202C35.9103 77.0069 35.4137 77.1002 34.8537 77.1002ZM40.5731 77.1002C40.1065 77.1002 39.6831 76.9902 39.3031 76.7702C38.9231 76.5436 38.6198 76.2402 38.3931 75.8602C38.1731 75.4802 38.0631 75.0569 38.0631 74.5902C38.0631 74.1236 38.1731 73.7036 38.3931 73.3302C38.6198 72.9569 38.9231 72.6602 39.3031 72.4402C39.6831 72.2136 40.1065 72.1002 40.5731 72.1002C41.0465 72.1002 41.4731 72.2102 41.8531 72.4302C42.2331 72.6502 42.5331 72.9502 42.7531 73.3302C42.9798 73.7036 43.0931 74.1236 43.0931 74.5902C43.0931 75.0569 42.9798 75.4802 42.7531 75.8602C42.5331 76.2402 42.2331 76.5436 41.8531 76.7702C41.4731 76.9902 41.0465 77.1002 40.5731 77.1002ZM40.5731 76.0402C40.8465 76.0402 41.0865 75.9802 41.2931 75.8602C41.5065 75.7336 41.6698 75.5602 41.7831 75.3402C41.9031 75.1202 41.9631 74.8702 41.9631 74.5902C41.9631 74.3102 41.9031 74.0636 41.7831 73.8502C41.6631 73.6369 41.4998 73.4702 41.2931 73.3502C41.0865 73.2236 40.8465 73.1602 40.5731 73.1602C40.3065 73.1602 40.0665 73.2236 39.8531 73.3502C39.6465 73.4702 39.4831 73.6369 39.3631 73.8502C39.2498 74.0636 39.1931 74.3102 39.1931 74.5902C39.1931 74.8702 39.2498 75.1202 39.3631 75.3402C39.4831 75.5602 39.6465 75.7336 39.8531 75.8602C40.0665 75.9802 40.3065 76.0402 40.5731 76.0402ZM40.0131 71.5102L39.5131 71.0102L40.7931 69.3802L41.6431 70.2302L40.0131 71.5102ZM46.1779 77.1002C45.7446 77.1002 45.3512 76.9902 44.9979 76.7702C44.6512 76.5502 44.3746 76.2536 44.1679 75.8802C43.9679 75.5002 43.8679 75.0769 43.8679 74.6102C43.8679 74.1369 43.9679 73.7136 44.1679 73.3402C44.3746 72.9602 44.6512 72.6602 44.9979 72.4402C45.3512 72.2136 45.7446 72.1002 46.1779 72.1002C46.5446 72.1002 46.8679 72.1802 47.1479 72.3402C47.4346 72.4936 47.6612 72.7069 47.8279 72.9802C47.9946 73.2536 48.0779 73.5636 48.0779 73.9102V75.2902C48.0779 75.6369 47.9946 75.9469 47.8279 76.2202C47.6679 76.4936 47.4446 76.7102 47.1579 76.8702C46.8712 77.0236 46.5446 77.1002 46.1779 77.1002ZM46.3579 76.0602C46.6312 76.0602 46.8679 76.0002 47.0679 75.8802C47.2746 75.7536 47.4346 75.5802 47.5479 75.3602C47.6612 75.1402 47.7179 74.8869 47.7179 74.6002C47.7179 74.3136 47.6612 74.0602 47.5479 73.8402C47.4346 73.6202 47.2746 73.4502 47.0679 73.3302C46.8679 73.2036 46.6346 73.1402 46.3679 73.1402C46.0946 73.1402 45.8546 73.2036 45.6479 73.3302C45.4479 73.4502 45.2879 73.6202 45.1679 73.8402C45.0546 74.0602 44.9979 74.3136 44.9979 74.6002C44.9979 74.8869 45.0546 75.1402 45.1679 75.3602C45.2879 75.5802 45.4479 75.7536 45.6479 75.8802C45.8546 76.0002 46.0912 76.0602 46.3579 76.0602ZM48.7479 77.0002H47.6479V75.7102L47.8379 74.5402L47.6479 73.3802V69.8002H48.7479V77.0002ZM50.1387 77.0002V72.2002H51.2387V77.0002H50.1387ZM50.6887 71.3202C50.502 71.3202 50.3453 71.2569 50.2187 71.1302C50.0987 71.0036 50.0387 70.8469 50.0387 70.6602C50.0387 70.4736 50.0987 70.3169 50.2187 70.1902C50.3453 70.0636 50.502 70.0002 50.6887 70.0002C50.882 70.0002 51.0387 70.0636 51.1587 70.1902C51.2787 70.3169 51.3387 70.4736 51.3387 70.6602C51.3387 70.8469 51.2787 71.0036 51.1587 71.1302C51.0387 71.2569 50.882 71.3202 50.6887 71.3202ZM54.6324 79.1002C54.1258 79.1002 53.6824 79.0069 53.3024 78.8202C52.9224 78.6402 52.6158 78.3836 52.3824 78.0502L53.1024 77.3302C53.2958 77.5702 53.5158 77.7502 53.7624 77.8702C54.0091 77.9902 54.3058 78.0502 54.6524 78.0502C55.0858 78.0502 55.4291 77.9369 55.6824 77.7102C55.9358 77.4902 56.0624 77.1869 56.0624 76.8002V75.6202L56.2524 74.5602L56.0624 73.4902V72.2002H57.1624V76.8002C57.1624 77.2602 57.0558 77.6602 56.8424 78.0002C56.6291 78.3469 56.3324 78.6169 55.9524 78.8102C55.5724 79.0036 55.1324 79.1002 54.6324 79.1002ZM54.5824 76.9002C54.1558 76.9002 53.7691 76.7969 53.4224 76.5902C53.0824 76.3769 52.8124 76.0869 52.6124 75.7202C52.4191 75.3536 52.3224 74.9436 52.3224 74.4902C52.3224 74.0369 52.4191 73.6302 52.6124 73.2702C52.8124 72.9102 53.0824 72.6269 53.4224 72.4202C53.7691 72.2069 54.1558 72.1002 54.5824 72.1002C54.9624 72.1002 55.2958 72.1769 55.5824 72.3302C55.8691 72.4836 56.0924 72.6969 56.2524 72.9702C56.4124 73.2369 56.4924 73.5502 56.4924 73.9102V75.0902C56.4924 75.4436 56.4091 75.7569 56.2424 76.0302C56.0824 76.3036 55.8591 76.5169 55.5724 76.6702C55.2858 76.8236 54.9558 76.9002 54.5824 76.9002ZM54.8024 75.8602C55.0691 75.8602 55.3024 75.8036 55.5024 75.6902C55.7024 75.5769 55.8558 75.4202 55.9624 75.2202C56.0758 75.0136 56.1324 74.7736 56.1324 74.5002C56.1324 74.2269 56.0758 73.9902 55.9624 73.7902C55.8558 73.5836 55.7024 73.4236 55.5024 73.3102C55.3024 73.1969 55.0691 73.1402 54.8024 73.1402C54.5358 73.1402 54.2991 73.1969 54.0924 73.3102C53.8924 73.4236 53.7358 73.5836 53.6224 73.7902C53.5091 73.9902 53.4524 74.2269 53.4524 74.5002C53.4524 74.7669 53.5091 75.0036 53.6224 75.2102C53.7358 75.4169 53.8924 75.5769 54.0924 75.6902C54.2991 75.8036 54.5358 75.8602 54.8024 75.8602ZM60.7444 77.1002C60.2777 77.1002 59.8544 76.9902 59.4744 76.7702C59.0944 76.5436 58.791 76.2402 58.5644 75.8602C58.3444 75.4802 58.2344 75.0569 58.2344 74.5902C58.2344 74.1236 58.3444 73.7036 58.5644 73.3302C58.791 72.9569 59.0944 72.6602 59.4744 72.4402C59.8544 72.2136 60.2777 72.1002 60.7444 72.1002C61.2177 72.1002 61.6444 72.2102 62.0244 72.4302C62.4044 72.6502 62.7044 72.9502 62.9244 73.3302C63.151 73.7036 63.2644 74.1236 63.2644 74.5902C63.2644 75.0569 63.151 75.4802 62.9244 75.8602C62.7044 76.2402 62.4044 76.5436 62.0244 76.7702C61.6444 76.9902 61.2177 77.1002 60.7444 77.1002ZM60.7444 76.0402C61.0177 76.0402 61.2577 75.9802 61.4644 75.8602C61.6777 75.7336 61.841 75.5602 61.9544 75.3402C62.0744 75.1202 62.1344 74.8702 62.1344 74.5902C62.1344 74.3102 62.0744 74.0636 61.9544 73.8502C61.8344 73.6369 61.671 73.4702 61.4644 73.3502C61.2577 73.2236 61.0177 73.1602 60.7444 73.1602C60.4777 73.1602 60.2377 73.2236 60.0244 73.3502C59.8177 73.4702 59.6544 73.6369 59.5344 73.8502C59.421 74.0636 59.3644 74.3102 59.3644 74.5902C59.3644 74.8702 59.421 75.1202 59.5344 75.3402C59.6544 75.5602 59.8177 75.7336 60.0244 75.8602C60.2377 75.9802 60.4777 76.0402 60.7444 76.0402ZM68.5111 77.1002C68.0778 77.1002 67.6844 76.9902 67.3311 76.7702C66.9844 76.5502 66.7078 76.2536 66.5011 75.8802C66.3011 75.5002 66.2011 75.0769 66.2011 74.6102C66.2011 74.1369 66.3011 73.7136 66.5011 73.3402C66.7078 72.9602 66.9844 72.6602 67.3311 72.4402C67.6844 72.2136 68.0778 72.1002 68.5111 72.1002C68.8778 72.1002 69.2011 72.1802 69.4811 72.3402C69.7678 72.4936 69.9944 72.7069 70.1611 72.9802C70.3278 73.2536 70.4111 73.5636 70.4111 73.9102V75.2902C70.4111 75.6369 70.3278 75.9469 70.1611 76.2202C70.0011 76.4936 69.7778 76.7102 69.4911 76.8702C69.2044 77.0236 68.8778 77.1002 68.5111 77.1002ZM68.6911 76.0602C68.9644 76.0602 69.2011 76.0002 69.4011 75.8802C69.6078 75.7536 69.7678 75.5802 69.8811 75.3602C69.9944 75.1402 70.0511 74.8869 70.0511 74.6002C70.0511 74.3136 69.9944 74.0602 69.8811 73.8402C69.7678 73.6202 69.6078 73.4502 69.4011 73.3302C69.2011 73.2036 68.9678 73.1402 68.7011 73.1402C68.4278 73.1402 68.1878 73.2036 67.9811 73.3302C67.7811 73.4502 67.6211 73.6202 67.5011 73.8402C67.3878 74.0602 67.3311 74.3136 67.3311 74.6002C67.3311 74.8869 67.3878 75.1402 67.5011 75.3602C67.6211 75.5802 67.7811 75.7536 67.9811 75.8802C68.1878 76.0002 68.4244 76.0602 68.6911 76.0602ZM71.0811 77.0002H69.9811V75.7102L70.1711 74.5402L69.9811 73.3802V69.8002H71.0811V77.0002ZM74.6919 77.1002C74.2119 77.1002 73.7785 76.9936 73.3919 76.7802C73.0119 76.5602 72.7085 76.2602 72.4819 75.8802C72.2619 75.5002 72.1519 75.0736 72.1519 74.6002C72.1519 74.1269 72.2619 73.7036 72.4819 73.3302C72.7019 72.9502 72.9985 72.6502 73.3719 72.4302C73.7519 72.2102 74.1719 72.1002 74.6319 72.1002C75.0785 72.1002 75.4719 72.2036 75.8119 72.4102C76.1585 72.6169 76.4285 72.9002 76.6219 73.2602C76.8219 73.6202 76.9219 74.0302 76.9219 74.4902C76.9219 74.5702 76.9152 74.6536 76.9019 74.7402C76.8952 74.8202 76.8819 74.9102 76.8619 75.0102H72.9219V74.1102H76.2919L75.8819 74.4702C75.8685 74.1769 75.8119 73.9302 75.7119 73.7302C75.6119 73.5302 75.4685 73.3769 75.2819 73.2702C75.1019 73.1636 74.8785 73.1102 74.6119 73.1102C74.3319 73.1102 74.0885 73.1702 73.8819 73.2902C73.6752 73.4102 73.5152 73.5802 73.4019 73.8002C73.2885 74.0136 73.2319 74.2702 73.2319 74.5702C73.2319 74.8702 73.2919 75.1336 73.4119 75.3602C73.5319 75.5869 73.7019 75.7636 73.9219 75.8902C74.1419 76.0102 74.3952 76.0702 74.6819 76.0702C74.9285 76.0702 75.1552 76.0269 75.3619 75.9402C75.5752 75.8536 75.7552 75.7269 75.9019 75.5602L76.6019 76.2702C76.3685 76.5436 76.0852 76.7502 75.7519 76.8902C75.4185 77.0302 75.0652 77.1002 74.6919 77.1002ZM82.1356 77.1002C81.7023 77.1002 81.309 76.9902 80.9556 76.7702C80.609 76.5502 80.3323 76.2536 80.1256 75.8802C79.9256 75.5002 79.8256 75.0769 79.8256 74.6102C79.8256 74.1369 79.9256 73.7136 80.1256 73.3402C80.3323 72.9602 80.609 72.6602 80.9556 72.4402C81.309 72.2136 81.7023 72.1002 82.1356 72.1002C82.5023 72.1002 82.8256 72.1802 83.1056 72.3402C83.3923 72.4936 83.619 72.7069 83.7856 72.9802C83.9523 73.2536 84.0356 73.5636 84.0356 73.9102V75.2902C84.0356 75.6369 83.9523 75.9469 83.7856 76.2202C83.6256 76.4936 83.4023 76.7102 83.1156 76.8702C82.829 77.0236 82.5023 77.1002 82.1356 77.1002ZM82.3156 76.0602C82.7223 76.0602 83.049 75.9236 83.2956 75.6502C83.549 75.3769 83.6756 75.0269 83.6756 74.6002C83.6756 74.3136 83.619 74.0602 83.5056 73.8402C83.3923 73.6202 83.2323 73.4502 83.0256 73.3302C82.8256 73.2036 82.589 73.1402 82.3156 73.1402C82.049 73.1402 81.8123 73.2036 81.6056 73.3302C81.4056 73.4502 81.2456 73.6202 81.1256 73.8402C81.0123 74.0602 80.9556 74.3136 80.9556 74.6002C80.9556 74.8869 81.0123 75.1402 81.1256 75.3602C81.2456 75.5802 81.4056 75.7536 81.6056 75.8802C81.8123 76.0002 82.049 76.0602 82.3156 76.0602ZM83.6056 77.0002V75.7102L83.7956 74.5402L83.6056 73.3802V72.2002H84.7056V77.0002H83.6056ZM88.2964 77.1002C87.8231 77.1002 87.3931 76.9902 87.0064 76.7702C86.6264 76.5502 86.3264 76.2502 86.1064 75.8702C85.8864 75.4902 85.7764 75.0669 85.7764 74.6002C85.7764 74.1269 85.8864 73.7036 86.1064 73.3302C86.3264 72.9502 86.6264 72.6502 87.0064 72.4302C87.3931 72.2102 87.8231 72.1002 88.2964 72.1002C88.6697 72.1002 89.0164 72.1736 89.3364 72.3202C89.6631 72.4602 89.9397 72.6636 90.1664 72.9302L89.4464 73.6602C89.3064 73.4936 89.1364 73.3702 88.9364 73.2902C88.7431 73.2036 88.5297 73.1602 88.2964 73.1602C88.0231 73.1602 87.7797 73.2236 87.5664 73.3502C87.3597 73.4702 87.1964 73.6369 87.0764 73.8502C86.9631 74.0636 86.9064 74.3136 86.9064 74.6002C86.9064 74.8802 86.9631 75.1302 87.0764 75.3502C87.1964 75.5636 87.3597 75.7336 87.5664 75.8602C87.7797 75.9802 88.0231 76.0402 88.2964 76.0402C88.5297 76.0402 88.7431 76.0002 88.9364 75.9202C89.1364 75.8336 89.3064 75.7069 89.4464 75.5402L90.1664 76.2702C89.9397 76.5369 89.6631 76.7436 89.3364 76.8902C89.0164 77.0302 88.6697 77.1002 88.2964 77.1002ZM91.7713 77.0002V70.2002H92.8713V77.0002H91.7713ZM90.6213 73.2002V72.2002H94.0213V73.2002H90.6213ZM94.9906 77.0002V72.2002H96.0906V77.0002H94.9906ZM95.5406 71.3202C95.354 71.3202 95.1973 71.2569 95.0706 71.1302C94.9506 71.0036 94.8906 70.8469 94.8906 70.6602C94.8906 70.4736 94.9506 70.3169 95.0706 70.1902C95.1973 70.0636 95.354 70.0002 95.5406 70.0002C95.734 70.0002 95.8906 70.0636 96.0106 70.1902C96.1306 70.3169 96.1906 70.4736 96.1906 70.6602C96.1906 70.8469 96.1306 71.0036 96.0106 71.1302C95.8906 71.2569 95.734 71.3202 95.5406 71.3202ZM99.1044 77.0002L96.9144 72.2002H98.1344L99.8044 76.1102H99.0844L100.764 72.2002H101.934L99.7444 77.0002H99.1044ZM104.596 77.1002C104.162 77.1002 103.769 76.9902 103.416 76.7702C103.069 76.5502 102.792 76.2536 102.586 75.8802C102.386 75.5002 102.286 75.0769 102.286 74.6102C102.286 74.1369 102.386 73.7136 102.586 73.3402C102.792 72.9602 103.069 72.6602 103.416 72.4402C103.769 72.2136 104.162 72.1002 104.596 72.1002C104.962 72.1002 105.286 72.1802 105.566 72.3402C105.852 72.4936 106.079 72.7069 106.246 72.9802C106.412 73.2536 106.496 73.5636 106.496 73.9102V75.2902C106.496 75.6369 106.412 75.9469 106.246 76.2202C106.086 76.4936 105.862 76.7102 105.576 76.8702C105.289 77.0236 104.962 77.1002 104.596 77.1002ZM104.776 76.0602C105.182 76.0602 105.509 75.9236 105.756 75.6502C106.009 75.3769 106.136 75.0269 106.136 74.6002C106.136 74.3136 106.079 74.0602 105.966 73.8402C105.852 73.6202 105.692 73.4502 105.486 73.3302C105.286 73.2036 105.049 73.1402 104.776 73.1402C104.509 73.1402 104.272 73.2036 104.066 73.3302C103.866 73.4502 103.706 73.6202 103.586 73.8402C103.472 74.0602 103.416 74.3136 103.416 74.6002C103.416 74.8869 103.472 75.1402 103.586 75.3602C103.706 75.5802 103.866 75.7536 104.066 75.8802C104.272 76.0002 104.509 76.0602 104.776 76.0602ZM106.066 77.0002V75.7102L106.256 74.5402L106.066 73.3802V72.2002H107.166V77.0002H106.066ZM110.757 77.1002C110.283 77.1002 109.853 76.9902 109.467 76.7702C109.087 76.5502 108.787 76.2502 108.567 75.8702C108.347 75.4902 108.237 75.0669 108.237 74.6002C108.237 74.1269 108.347 73.7036 108.567 73.3302C108.787 72.9502 109.087 72.6502 109.467 72.4302C109.853 72.2102 110.283 72.1002 110.757 72.1002C111.13 72.1002 111.477 72.1736 111.797 72.3202C112.123 72.4602 112.4 72.6636 112.627 72.9302L111.907 73.6602C111.767 73.4936 111.597 73.3702 111.397 73.2902C111.203 73.2036 110.99 73.1602 110.757 73.1602C110.483 73.1602 110.24 73.2236 110.027 73.3502C109.82 73.4702 109.657 73.6369 109.537 73.8502C109.423 74.0636 109.367 74.3136 109.367 74.6002C109.367 74.8802 109.423 75.1302 109.537 75.3502C109.657 75.5636 109.82 75.7336 110.027 75.8602C110.24 75.9802 110.483 76.0402 110.757 76.0402C110.99 76.0402 111.203 76.0002 111.397 75.9202C111.597 75.8336 111.767 75.7069 111.907 75.5402L112.627 76.2702C112.4 76.5369 112.123 76.7436 111.797 76.8902C111.477 77.0302 111.13 77.1002 110.757 77.1002ZM113.59 77.0002V72.2002H114.69V77.0002H113.59ZM114.14 71.3202C113.953 71.3202 113.796 71.2569 113.67 71.1302C113.55 71.0036 113.49 70.8469 113.49 70.6602C113.49 70.4736 113.55 70.3169 113.67 70.1902C113.796 70.0636 113.953 70.0002 114.14 70.0002C114.333 70.0002 114.49 70.0636 114.61 70.1902C114.73 70.3169 114.79 70.4736 114.79 70.6602C114.79 70.8469 114.73 71.0036 114.61 71.1302C114.49 71.2569 114.333 71.3202 114.14 71.3202ZM118.283 77.1002C117.817 77.1002 117.393 76.9902 117.013 76.7702C116.633 76.5436 116.33 76.2402 116.103 75.8602C115.883 75.4802 115.773 75.0569 115.773 74.5902C115.773 74.1236 115.883 73.7036 116.103 73.3302C116.33 72.9569 116.633 72.6602 117.013 72.4402C117.393 72.2136 117.817 72.1002 118.283 72.1002C118.757 72.1002 119.183 72.2102 119.563 72.4302C119.943 72.6502 120.243 72.9502 120.463 73.3302C120.69 73.7036 120.803 74.1236 120.803 74.5902C120.803 75.0569 120.69 75.4802 120.463 75.8602C120.243 76.2402 119.943 76.5436 119.563 76.7702C119.183 76.9902 118.757 77.1002 118.283 77.1002ZM118.283 76.0402C118.557 76.0402 118.797 75.9802 119.003 75.8602C119.217 75.7336 119.38 75.5602 119.493 75.3402C119.613 75.1202 119.673 74.8702 119.673 74.5902C119.673 74.3102 119.613 74.0636 119.493 73.8502C119.373 73.6369 119.21 73.4702 119.003 73.3502C118.797 73.2236 118.557 73.1602 118.283 73.1602C118.017 73.1602 117.777 73.2236 117.563 73.3502C117.357 73.4702 117.193 73.6369 117.073 73.8502C116.96 74.0636 116.903 74.3102 116.903 74.5902C116.903 74.8702 116.96 75.1202 117.073 75.3402C117.193 75.5602 117.357 75.7336 117.563 75.8602C117.777 75.9802 118.017 76.0402 118.283 76.0402ZM117.723 71.5102L117.223 71.0102L118.503 69.3802L119.353 70.2302L117.723 71.5102ZM125.168 77.0002V74.2302C125.168 73.9102 125.065 73.6469 124.858 73.4402C124.658 73.2336 124.398 73.1302 124.078 73.1302C123.865 73.1302 123.675 73.1769 123.508 73.2702C123.341 73.3636 123.211 73.4936 123.118 73.6602C123.025 73.8269 122.978 74.0169 122.978 74.2302L122.548 73.9902C122.548 73.6236 122.628 73.3002 122.788 73.0202C122.948 72.7336 123.168 72.5102 123.448 72.3502C123.735 72.1836 124.055 72.1002 124.408 72.1002C124.768 72.1002 125.088 72.1936 125.368 72.3802C125.648 72.5602 125.868 72.7969 126.028 73.0902C126.188 73.3769 126.268 73.6769 126.268 73.9902V77.0002H125.168ZM121.878 77.0002V72.2002H122.978V77.0002H121.878ZM128.286 77.1002C128.073 77.1002 127.896 77.0302 127.756 76.8902C127.623 76.7436 127.556 76.5669 127.556 76.3602C127.556 76.1469 127.623 75.9702 127.756 75.8302C127.896 75.6902 128.073 75.6202 128.286 75.6202C128.499 75.6202 128.673 75.6902 128.806 75.8302C128.946 75.9702 129.016 76.1469 129.016 76.3602C129.016 76.5669 128.946 76.7436 128.806 76.8902C128.673 77.0302 128.499 77.1002 128.286 77.1002ZM128.286 74.0102C128.073 74.0102 127.896 73.9402 127.756 73.8002C127.623 73.6536 127.556 73.4769 127.556 73.2702C127.556 73.0569 127.623 72.8802 127.756 72.7402C127.896 72.6002 128.073 72.5302 128.286 72.5302C128.499 72.5302 128.673 72.6002 128.806 72.7402C128.946 72.8802 129.016 73.0569 129.016 73.2702C129.016 73.4769 128.946 73.6536 128.806 73.8002C128.673 73.9402 128.499 74.0102 128.286 74.0102Z" fill="#3D3D3D"/>
<circle cx="20.9088" cy="90.6723" r="3.23496" fill="#3D3D3D"/>
<circle cx="29.2271" cy="90.6723" r="3.23496" fill="#3D3D3D"/>
<circle cx="37.5455" cy="90.6723" r="3.23496" fill="#3D3D3D"/>
<circle cx="45.8639" cy="90.6723" r="3.23496" fill="#3D3D3D"/>
<circle cx="54.1832" cy="90.6723" r="3.23496" fill="#3D3D3D"/>
<circle cx="62.9547" cy="90.6722" r="3.23496" fill="#3D3D3D"/>
<circle cx="71.274" cy="90.6722" r="3.23496" fill="#3D3D3D"/>
<circle cx="79.5924" cy="90.6722" r="3.23496" fill="#3D3D3D"/>
<circle cx="87.9107" cy="90.6722" r="3.23496" fill="#3D3D3D"/>
<circle cx="96.2291" cy="90.6722" r="3.23496" fill="#3D3D3D"/>
<circle cx="105.001" cy="90.6722" r="3.23496" fill="#3D3D3D"/>
<circle cx="113.319" cy="90.6722" r="3.23496" fill="#3D3D3D"/>
<circle cx="121.637" cy="90.6722" r="3.23496" fill="#3D3D3D"/>
<circle cx="129.956" cy="90.6722" r="3.23496" fill="#3D3D3D"/>
<circle cx="138.274" cy="90.6722" r="3.23496" fill="#3D3D3D"/>
</g>
</svg>
