<svg width="180" height="180" viewBox="0 0 180 180" fill="none" xmlns="http://www.w3.org/2000/svg">
<path d="M42.6703 46.5C43.4337 45.2756 44.1803 44.1791 44.2891 44.0198C44.2985 44.0061 44.3077 43.9934 44.3179 43.9802C49.0217 37.868 56.1813 34 64.8042 34H139.443C155.149 34 166 46.8321 166 62.6841V125.56C166 126.408 164.959 126.815 164.384 126.192L152.218 113" stroke="url(#paint0_linear_9761_68296)" stroke-width="6" stroke-linecap="round"/>
<path d="M14.4907 150.747L32.7798 130.915H113.824C129.529 130.915 142.243 118.083 142.243 102.231V85.487C142.243 69.635 129.529 56.8029 113.824 56.8029H42.9103C27.2045 56.8029 14.4907 69.635 14.4907 85.487V150.747Z" stroke="black" stroke-width="0.816836"/>
<path d="M43.1679 56.1165H114.081C130.194 56.1165 143.249 69.292 143.249 85.5552V102.299C143.249 118.563 130.194 131.738 114.081 131.738H33.377L15.2919 151.296C15.0879 151.57 14.7483 151.57 14.4758 151.501C14.2039 151.433 13.9999 151.09 13.9999 150.815V85.5552C13.9999 69.292 27.1224 56.1165 43.1679 56.1165Z" fill="white" stroke="url(#paint1_linear_9761_68296)" stroke-width="6" stroke-linecap="round" stroke-linejoin="round"/>
<path d="M56.8441 103.511C60.4448 103.511 63.3638 100.592 63.3638 96.9914C63.3638 93.3906 60.4448 90.4716 56.8441 90.4716C53.2433 90.4716 50.3243 93.3906 50.3243 96.9914C50.3243 100.592 53.2433 103.511 56.8441 103.511Z" fill="#292929"/>
<path d="M78.2534 103.511C81.8541 103.511 84.7731 100.592 84.7731 96.9914C84.7731 93.3906 81.8541 90.4716 78.2534 90.4716C74.6526 90.4716 71.7336 93.3906 71.7336 96.9914C71.7336 100.592 74.6526 103.511 78.2534 103.511Z" fill="#292929"/>
<path d="M99.6626 103.511C103.263 103.511 106.182 100.592 106.182 96.9914C106.182 93.3906 103.263 90.4716 99.6626 90.4716C96.0618 90.4716 93.1428 93.3906 93.1428 96.9914C93.1428 100.592 96.0618 103.511 99.6626 103.511Z" fill="#292929"/>
<path d="M143.249 90.4716V85.5552C143.249 69.292 130.194 56.1165 114.081 56.1165H43.1679C27.1224 56.1165 13.9999 69.292 13.9999 85.5552V150.815C13.9999 151.09 14.204 151.433 14.4758 151.501C14.7483 151.57 15.0879 151.57 15.2919 151.296L29.8418 135.561C32.0956 133.124 35.2644 131.738 38.5839 131.738H73.7291" stroke="url(#paint2_linear_9761_68296)" stroke-width="6" stroke-linecap="round"/>
<defs>
<linearGradient id="paint0_linear_9761_68296" x1="170.008" y1="-22.57" x2="157.594" y2="99.329" gradientUnits="userSpaceOnUse">
<stop stop-color="#758CD2"/>
<stop offset="1" stop-color="#78BECE"/>
</linearGradient>
<linearGradient id="paint1_linear_9761_68296" x1="168.145" y1="14.0974" x2="47.8249" y2="77.579" gradientUnits="userSpaceOnUse">
<stop stop-color="white"/>
<stop offset="1" stop-color="#78BECE"/>
</linearGradient>
<linearGradient id="paint2_linear_9761_68296" x1="124.836" y1="49.0246" x2="69.1274" y2="129.46" gradientUnits="userSpaceOnUse">
<stop stop-color="#758CD2"/>
<stop offset="1" stop-color="#78BECE"/>
</linearGradient>
</defs>
</svg>
