<svg width="353" height="402" viewBox="0 0 353 402" fill="none" xmlns="http://www.w3.org/2000/svg">
<path d="M176.5 4V4C81.2309 4 4 81.2309 4 176.5V225.5C4 320.769 81.2309 398 176.5 398V398" stroke="url(#paint0_linear_1414_24742)" stroke-width="4" stroke-linejoin="round" stroke-dasharray="0.88 7.03 0.88 7.03"/>
<path d="M176 4V4C271.269 4 348.5 81.2309 348.5 176.5V225.5C348.5 320.769 271.269 398 176 398V398" stroke="url(#paint1_linear_1414_24742)" stroke-width="4" stroke-linejoin="round" stroke-dasharray="0.88 7.03 0.88 7.03"/>
<path opacity="0.7" d="M92.8469 93.5L178.128 107.5M92.8469 93.5L178.128 62M92.8469 93.5L71.3469 127M92.8469 93.5L158.462 141.769M178.128 107.5L262.847 93.5M178.128 107.5L158.462 141.769M178.128 107.5L200.347 141.769M178.128 107.5V62M262.847 93.5L178.128 62M262.847 93.5L283.847 127M262.847 93.5L200.347 141.769M178.128 197L143.347 240.626M178.128 197L212.347 240.626M178.128 197L158.462 141.769M178.128 197L200.347 141.769M178.128 197L132.347 178M178.128 197L223.347 178M178.128 197L225.347 207.5M178.128 197L130.847 207.5M143.347 240.626H212.347M143.347 240.626L92.5829 219M143.347 240.626L178.128 273.5M143.347 240.626L130.847 207.5M143.347 240.626L134.202 279.505M212.347 240.626L261.347 219M212.347 240.626L178.128 273.5M212.347 240.626L225.347 207.5M212.347 240.626L221.616 279.505M98.5 312L149.847 305M98.5 312L178.128 362M98.5 312L88.8472 272M149.847 305H203.347M149.847 305L134.202 279.505M149.847 305L178.128 362M203.347 305L260 312M203.347 305L221.616 279.505M203.347 305L178.128 362M260 312L178.128 362M260 312L267.347 272M66 190L92.5829 219M66 190L88.8472 272M66 190L71.3469 127M66 190L90.8467 188M92.5829 219L88.8472 272M92.5829 219L130.847 207.5M92.5829 219L90.8467 188M88.8472 272L134.202 279.505M290.347 190L261.347 219M290.347 190L267.347 272M290.347 190L265.347 188M290.347 190L283.847 127M261.347 219L267.347 272M261.347 219L225.347 207.5M261.347 219L265.347 188M267.347 272L221.616 279.505M158.462 141.769L132.347 178M158.462 141.769L71.3469 127M158.462 141.769H200.347M132.347 178L71.3469 127M132.347 178L90.8467 188M71.3469 127L90.8467 188M200.347 141.769L283.847 127M200.347 141.769L223.347 178M283.847 127L223.347 178M283.847 127L265.347 188M134.202 279.505L178.128 273.5M178.128 273.5L221.616 279.505M223.347 178L265.347 188M90.8467 188L130.847 207.5M225.347 207.5L265.347 188" stroke="url(#paint2_linear_1414_24742)" stroke-width="1.5"/>
<circle cx="178" cy="63" r="4" fill="#00CC78"/>
<circle cx="92" cy="94" r="4" fill="#00CC78"/>
<circle cx="178" cy="108" r="4" fill="#00CC78"/>
<circle cx="263" cy="94" r="4" fill="#00CC78"/>
<circle cx="158" cy="141" r="4" fill="#00CC78"/>
<circle cx="200" cy="141" r="4" fill="#00CC78"/>
<circle cx="283" cy="127" r="4" fill="#00CC78"/>
<circle cx="224" cy="178" r="4" fill="#00CC78"/>
<circle cx="265" cy="188" r="4" fill="#00CC78"/>
<circle cx="261" cy="219" r="4" fill="#00CC78"/>
<circle cx="289" cy="190" r="4" fill="#00CC78"/>
<circle cx="226" cy="208" r="4" fill="#00CC78"/>
<circle cx="212" cy="240" r="4" fill="#00CC78"/>
<circle cx="221" cy="279" r="4" fill="#00CC78"/>
<circle cx="267" cy="272" r="4" fill="#00CC78"/>
<circle cx="203" cy="305" r="4" fill="#00CC78"/>
<circle cx="259" cy="312" r="4" fill="#00CC78"/>
<circle cx="178" cy="197" r="4" fill="#00CC78"/>
<circle cx="178" cy="273" r="4" fill="#00CC78"/>
<circle cx="72" cy="129" r="4" fill="#00CC78"/>
<circle cx="91" cy="188" r="4" fill="#00CC78"/>
<circle cx="133" cy="178" r="4" fill="#00CC78"/>
<circle cx="131" cy="208" r="4" fill="#00CC78"/>
<circle cx="92" cy="218" r="4" fill="#00CC78"/>
<circle cx="88" cy="271" r="4" fill="#00CC78"/>
<circle cx="67" cy="190" r="4" fill="#00CC78"/>
<circle cx="99" cy="310" r="4" fill="#00CC78"/>
<circle cx="135" cy="279" r="4" fill="#00CC78"/>
<circle cx="143" cy="239" r="4" fill="#00CC78"/>
<circle cx="150" cy="306" r="4" fill="#00CC78"/>
<circle cx="178" cy="362" r="4" fill="#00CC78"/>
<defs>
<linearGradient id="paint0_linear_1414_24742" x1="4" y1="191" x2="177" y2="191" gradientUnits="userSpaceOnUse">
<stop stop-color="#00CC78"/>
<stop offset="1" stop-color="#00CC78"/>
</linearGradient>
<linearGradient id="paint1_linear_1414_24742" x1="348.5" y1="191" x2="175.5" y2="191" gradientUnits="userSpaceOnUse">
<stop stop-color="#00CC78"/>
<stop offset="1" stop-color="#00CC78"/>
</linearGradient>
<linearGradient id="paint2_linear_1414_24742" x1="290.347" y1="190.276" x2="135.3" y2="192.169" gradientUnits="userSpaceOnUse">
<stop stop-color="#00CC78"/>
<stop offset="0.494792" stop-color="#00CC78"/>
<stop offset="1" stop-color="#00CC78"/>
</linearGradient>
</defs>
</svg>
