<svg width="60" height="60" viewBox="0 0 60 60" fill="none" xmlns="http://www.w3.org/2000/svg">
<mask id="mask0_6925_50031" style="mask-type:alpha" maskUnits="userSpaceOnUse" x="0" y="0" width="60" height="60">
<rect width="60" height="60" fill="#D9D9D9"/>
</mask>
<g mask="url(#mask0_6925_50031)">
<circle cx="30.3319" cy="30.0067" r="27.2958" stroke="url(#paint0_linear_6925_50031)" stroke-width="4"/>
<path d="M55.4115 40.7978C51.2287 50.5059 41.574 57.3023 30.3319 57.3023C15.2569 57.3023 3.03613 45.0815 3.03613 30.0065C3.03613 20.0347 8.38327 11.3119 16.3667 6.54883" stroke="url(#paint1_linear_6925_50031)" stroke-width="4" stroke-linecap="round"/>
<path d="M28.7576 29.3496C29.2242 29.1496 29.6576 28.9429 30.0576 28.7296C30.4576 28.5163 30.8042 28.2696 31.0976 27.9896C31.4042 27.7096 31.6376 27.3963 31.7976 27.0496C31.9576 26.6896 32.0376 26.2763 32.0376 25.8096C32.0376 25.3696 31.9509 24.9963 31.7776 24.6896C31.6042 24.3696 31.3576 24.1296 31.0376 23.9696C30.7176 23.7963 30.3242 23.7096 29.8576 23.7096C29.4842 23.7096 29.1376 23.7696 28.8176 23.8896C28.4976 23.9963 28.2109 24.1496 27.9576 24.3496C27.7042 24.5363 27.4909 24.7563 27.3176 25.0096C27.2909 24.8496 27.2842 24.7096 27.2976 24.5896C27.3242 24.4563 27.3642 24.3429 27.4176 24.2496C27.4842 24.1563 27.5642 24.0829 27.6576 24.0296C27.7509 23.9629 27.8642 23.9163 27.9976 23.8896V26.0096H25.4776V23.9096C25.6909 23.6563 26.0109 23.4029 26.4376 23.1496C26.8776 22.8829 27.4042 22.6563 28.0176 22.4696C28.6442 22.2829 29.3376 22.1896 30.0976 22.1896C31.1509 22.1896 32.0376 22.3496 32.7576 22.6696C33.4776 22.9763 34.0242 23.4096 34.3976 23.9696C34.7842 24.5296 34.9776 25.1763 34.9776 25.9096C34.9776 26.5363 34.8442 27.0896 34.5776 27.5696C34.3242 28.0363 33.9842 28.4429 33.5576 28.7896C33.1309 29.1229 32.6576 29.4096 32.1376 29.6496C31.6309 29.8763 31.1309 30.0696 30.6376 30.2296V32.1696H28.7576V29.3496ZM29.6976 37.0696C30.2709 37.0696 30.7242 36.9163 31.0576 36.6096C31.3909 36.2896 31.5576 35.8763 31.5576 35.3696C31.5576 34.8763 31.3909 34.4763 31.0576 34.1696C30.7242 33.8496 30.2709 33.6896 29.6976 33.6896C29.1376 33.6896 28.6909 33.8496 28.3576 34.1696C28.0242 34.4763 27.8576 34.8763 27.8576 35.3696C27.8576 35.8763 28.0242 36.2896 28.3576 36.6096C28.6909 36.9163 29.1376 37.0696 29.6976 37.0696Z" fill="black"/>
</g>
<defs>
<linearGradient id="paint0_linear_6925_50031" x1="-5.96387" y1="4.10939e-07" x2="53.1842" y2="40.1633" gradientUnits="userSpaceOnUse">
<stop stop-color="white" stop-opacity="0.75"/>
<stop offset="1" stop-color="#78BECE"/>
</linearGradient>
<linearGradient id="paint1_linear_6925_50031" x1="29.2238" y1="2.71066" x2="54.1364" y2="41.75" gradientUnits="userSpaceOnUse">
<stop stop-color="#758CD2"/>
<stop offset="1" stop-color="#78BECE"/>
</linearGradient>
</defs>
</svg>
