<svg width="139" height="96" viewBox="0 0 139 96" fill="none" xmlns="http://www.w3.org/2000/svg">
<rect x="1" y="1" width="137" height="94" rx="7" stroke="#ECEEF9"/>
<rect x="4" y="4" width="131" height="88" rx="5" fill="#92D0EA"/>
<rect x="4" y="8" width="131" height="16" fill="#6FC2E6"/>
<path d="M8.36621 15V11.4209H9.88721C10.2697 11.4209 10.5472 11.4535 10.7197 11.5186C10.8939 11.582 11.033 11.696 11.1372 11.8604C11.2414 12.0247 11.2935 12.2127 11.2935 12.4243C11.2935 12.6929 11.2145 12.915 11.0566 13.0908C10.8988 13.265 10.6628 13.3748 10.3486 13.4204C10.5049 13.5116 10.6335 13.6117 10.7344 13.7207C10.8369 13.8298 10.9744 14.0234 11.147 14.3018L11.584 15H10.7197L10.1973 14.2212C10.0117 13.9429 9.88477 13.7679 9.81641 13.6963C9.74805 13.623 9.67562 13.5734 9.59912 13.5474C9.52262 13.5197 9.40137 13.5059 9.23535 13.5059H9.08887V15H8.36621ZM9.08887 12.9346H9.62354C9.97021 12.9346 10.1867 12.9199 10.2729 12.8906C10.3592 12.8613 10.4268 12.8109 10.4756 12.7393C10.5244 12.6676 10.5488 12.5781 10.5488 12.4707C10.5488 12.3503 10.5163 12.2534 10.4512 12.1802C10.3877 12.1053 10.2974 12.0581 10.1802 12.0386C10.1216 12.0304 9.9458 12.0264 9.65283 12.0264H9.08887V12.9346Z" fill="#367E9E"/>
<path d="M11.9771 15V11.4209H14.6309V12.0264H12.6997V12.8198H14.4966V13.4229H12.6997V14.397H14.6992V15H11.9771Z" fill="#367E9E"/>
<path d="M15.312 15V11.4209H16.4717C16.9111 11.4209 17.1976 11.4388 17.3311 11.4746C17.5361 11.5283 17.7078 11.6455 17.8462 11.8262C17.9845 12.0052 18.0537 12.2371 18.0537 12.522C18.0537 12.7417 18.0138 12.9264 17.9341 13.0762C17.8543 13.2259 17.7526 13.3439 17.6289 13.4302C17.5068 13.5148 17.3823 13.571 17.2554 13.5986C17.0828 13.6328 16.833 13.6499 16.5059 13.6499H16.0347V15H15.312ZM16.0347 12.0264V13.042H16.4302C16.715 13.042 16.9054 13.0233 17.0015 12.9858C17.0975 12.9484 17.1724 12.8898 17.2261 12.8101C17.2814 12.7303 17.3091 12.6375 17.3091 12.5317C17.3091 12.4015 17.2708 12.2941 17.1943 12.2095C17.1178 12.1248 17.021 12.0719 16.9038 12.0508C16.8175 12.0345 16.6442 12.0264 16.3838 12.0264H16.0347Z" fill="#367E9E"/>
<path d="M18.6421 11.4209H19.3647V13.3594C19.3647 13.667 19.3737 13.8664 19.3916 13.9575C19.4225 14.104 19.4958 14.222 19.6113 14.3115C19.7285 14.3994 19.888 14.4434 20.0898 14.4434C20.2949 14.4434 20.4495 14.4019 20.5537 14.3188C20.6579 14.2342 20.7205 14.1309 20.7417 14.0088C20.7629 13.8867 20.7734 13.6841 20.7734 13.4009V11.4209H21.4961V13.3008C21.4961 13.7305 21.4766 14.034 21.4375 14.2114C21.3984 14.3888 21.326 14.5386 21.2202 14.6606C21.116 14.7827 20.9761 14.8804 20.8003 14.9536C20.6245 15.0252 20.395 15.061 20.1118 15.061C19.77 15.061 19.5104 15.022 19.333 14.9438C19.1572 14.8641 19.0181 14.7616 18.9155 14.6362C18.813 14.5093 18.7454 14.3766 18.7129 14.2383C18.6657 14.0332 18.6421 13.7305 18.6421 13.3301V11.4209ZM19.626 11.2158L19.9629 10.4858H20.7319L20.0605 11.2158H19.626Z" fill="#367E9E"/>
<path d="M22.2627 11.4209H23.6934C23.9766 11.4209 24.1873 11.4331 24.3257 11.4575C24.4657 11.4803 24.5902 11.5291 24.6992 11.604C24.8099 11.6789 24.9019 11.779 24.9751 11.9043C25.0483 12.028 25.085 12.1672 25.085 12.3218C25.085 12.4894 25.0394 12.6432 24.9482 12.7832C24.8587 12.9232 24.7367 13.0282 24.582 13.0981C24.8001 13.1616 24.9678 13.2699 25.085 13.4229C25.2021 13.5758 25.2607 13.7557 25.2607 13.9624C25.2607 14.1252 25.2225 14.2839 25.146 14.4385C25.0711 14.5915 24.9678 14.7144 24.8359 14.8071C24.7057 14.8983 24.5446 14.9544 24.3525 14.9756C24.2321 14.9886 23.9416 14.9967 23.481 15H22.2627V11.4209ZM22.9854 12.0166V12.8442H23.459C23.7406 12.8442 23.9155 12.8402 23.9839 12.832C24.1076 12.8174 24.2044 12.7751 24.2744 12.7051C24.346 12.6335 24.3818 12.5399 24.3818 12.4243C24.3818 12.3136 24.3509 12.2241 24.2891 12.1558C24.2288 12.0858 24.1385 12.0435 24.0181 12.0288C23.9465 12.0207 23.7406 12.0166 23.4004 12.0166H22.9854ZM22.9854 13.4399V14.397H23.6543C23.9147 14.397 24.0799 14.3896 24.1499 14.375C24.2573 14.3555 24.3444 14.3083 24.4111 14.2334C24.4795 14.1569 24.5137 14.0552 24.5137 13.9282C24.5137 13.8208 24.4876 13.7297 24.4355 13.6548C24.3835 13.5799 24.3078 13.5254 24.2085 13.4912C24.1108 13.457 23.8976 13.4399 23.5688 13.4399H22.9854Z" fill="#367E9E"/>
<path d="M25.8931 15V11.4502H26.6157V14.397H28.4126V15H25.8931Z" fill="#367E9E"/>
<path d="M28.9082 15V11.4209H29.6309V15H28.9082Z" fill="#367E9E"/>
<path d="M32.6118 13.6841L33.3125 13.9062C33.2051 14.2969 33.026 14.5874 32.7754 14.7778C32.5264 14.9666 32.2098 15.061 31.8257 15.061C31.3504 15.061 30.9598 14.8991 30.6538 14.5752C30.3478 14.2497 30.1948 13.8053 30.1948 13.2422C30.1948 12.6465 30.3486 12.1842 30.6562 11.8555C30.9639 11.5251 31.3683 11.3599 31.8696 11.3599C32.3075 11.3599 32.6631 11.4893 32.9365 11.748C33.0993 11.901 33.2214 12.1208 33.3027 12.4072L32.5874 12.5781C32.5451 12.3926 32.4564 12.2461 32.3213 12.1387C32.1878 12.0312 32.0251 11.9775 31.833 11.9775C31.5677 11.9775 31.3521 12.0728 31.186 12.2632C31.0216 12.4536 30.9395 12.762 30.9395 13.1885C30.9395 13.641 31.0208 13.9632 31.1836 14.1553C31.3464 14.3473 31.5579 14.4434 31.8184 14.4434C32.0104 14.4434 32.1756 14.3823 32.314 14.2603C32.4523 14.1382 32.5516 13.9461 32.6118 13.6841Z" fill="#367E9E"/>
<path d="M37.1626 15H36.3765L36.064 14.187H34.6333L34.3379 15H33.5713L34.9653 11.4209H35.7295L37.1626 15ZM35.832 13.584L35.3389 12.2559L34.8555 13.584H35.832Z" fill="#367E9E"/>
<path d="M8.36133 17.4209H9.68213C9.97998 17.4209 10.207 17.4437 10.3633 17.4893C10.5732 17.5511 10.7531 17.661 10.9028 17.8188C11.0526 17.9767 11.1665 18.1704 11.2446 18.3999C11.3228 18.6278 11.3618 18.9093 11.3618 19.2446C11.3618 19.5392 11.3252 19.7931 11.252 20.0063C11.1624 20.2668 11.0347 20.4775 10.8687 20.6387C10.7433 20.7607 10.5741 20.856 10.3608 20.9243C10.2013 20.9748 9.98812 21 9.72119 21H8.36133V17.4209ZM9.08398 18.0264V20.397H9.62354C9.82536 20.397 9.97103 20.3856 10.0605 20.3628C10.1777 20.3335 10.2746 20.2839 10.3511 20.2139C10.4292 20.1439 10.4927 20.0291 10.5415 19.8696C10.5903 19.7085 10.6147 19.4896 10.6147 19.2129C10.6147 18.9362 10.5903 18.7238 10.5415 18.5757C10.4927 18.4276 10.4243 18.312 10.3364 18.229C10.2485 18.146 10.137 18.0898 10.002 18.0605C9.90104 18.0378 9.70329 18.0264 9.40869 18.0264H9.08398Z" fill="#367E9E"/>
<path d="M11.9771 21V17.4209H14.6309V18.0264H12.6997V18.8198H14.4966V19.4229H12.6997V20.397H14.6992V21H11.9771Z" fill="#367E9E"/>
<path d="M15.3315 21V17.4502H16.0542V20.397H17.8511V21H15.3315Z" fill="#367E9E"/>
<path d="M19.6675 21V17.4209H20.8271C21.2666 17.4209 21.5531 17.4388 21.6865 17.4746C21.8916 17.5283 22.0633 17.6455 22.2017 17.8262C22.34 18.0052 22.4092 18.2371 22.4092 18.522C22.4092 18.7417 22.3693 18.9264 22.2896 19.0762C22.2098 19.2259 22.1081 19.3439 21.9844 19.4302C21.8623 19.5148 21.7378 19.571 21.6108 19.5986C21.4383 19.6328 21.1885 19.6499 20.8613 19.6499H20.3901V21H19.6675ZM20.3901 18.0264V19.042H20.7856C21.0705 19.042 21.2609 19.0233 21.3569 18.9858C21.453 18.9484 21.5278 18.8898 21.5815 18.8101C21.6369 18.7303 21.6646 18.6375 21.6646 18.5317C21.6646 18.4015 21.6263 18.2941 21.5498 18.2095C21.4733 18.1248 21.3765 18.0719 21.2593 18.0508C21.173 18.0345 20.9997 18.0264 20.7393 18.0264H20.3901Z" fill="#367E9E"/>
<path d="M23.0024 21V17.4209H25.6562V18.0264H23.7251V18.8198H25.522V19.4229H23.7251V20.397H25.7246V21H23.0024Z" fill="#367E9E"/>
<path d="M26.3398 21V17.4209H27.8608C28.2433 17.4209 28.5208 17.4535 28.6934 17.5186C28.8675 17.582 29.0067 17.696 29.1108 17.8604C29.215 18.0247 29.2671 18.2127 29.2671 18.4243C29.2671 18.6929 29.1882 18.915 29.0303 19.0908C28.8724 19.265 28.6364 19.3748 28.3223 19.4204C28.4785 19.5116 28.6071 19.6117 28.708 19.7207C28.8105 19.8298 28.9481 20.0234 29.1206 20.3018L29.5576 21H28.6934L28.1709 20.2212C27.9854 19.9429 27.8584 19.7679 27.79 19.6963C27.7217 19.623 27.6493 19.5734 27.5728 19.5474C27.4963 19.5197 27.375 19.5059 27.209 19.5059H27.0625V21H26.3398ZM27.0625 18.9346H27.5972C27.9438 18.9346 28.1603 18.9199 28.2466 18.8906C28.3328 18.8613 28.4004 18.8109 28.4492 18.7393C28.498 18.6676 28.5225 18.5781 28.5225 18.4707C28.5225 18.3503 28.4899 18.2534 28.4248 18.1802C28.3613 18.1053 28.271 18.0581 28.1538 18.0386C28.0952 18.0304 27.9194 18.0264 27.6265 18.0264H27.0625V18.9346Z" fill="#367E9E"/>
<path d="M29.9458 17.4209H30.6685V19.3594C30.6685 19.667 30.6774 19.8664 30.6953 19.9575C30.7262 20.104 30.7995 20.222 30.915 20.3115C31.0322 20.3994 31.1917 20.4434 31.3936 20.4434C31.5986 20.4434 31.7533 20.4019 31.8574 20.3188C31.9616 20.2342 32.0243 20.1309 32.0454 20.0088C32.0666 19.8867 32.0771 19.6841 32.0771 19.4009V17.4209H32.7998V19.3008C32.7998 19.7305 32.7803 20.034 32.7412 20.2114C32.7021 20.3888 32.6297 20.5386 32.5239 20.6606C32.4198 20.7827 32.2798 20.8804 32.104 20.9536C31.9282 21.0252 31.6987 21.061 31.4155 21.061C31.0737 21.061 30.8141 21.022 30.6367 20.9438C30.4609 20.8641 30.3218 20.7616 30.2192 20.6362C30.1167 20.5093 30.0492 20.3766 30.0166 20.2383C29.9694 20.0332 29.9458 19.7305 29.9458 19.3301V17.4209ZM30.9297 17.2158L31.2666 16.4858H32.0356L31.3643 17.2158H30.9297Z" fill="#367E9E"/>
<path d="M41.2314 12.7095H42.0768C42.2674 12.7095 42.4127 12.7241 42.5127 12.7532C42.6471 12.7928 42.7622 12.8631 42.858 12.9642C42.9538 13.0652 43.0268 13.1892 43.0768 13.336C43.1268 13.4819 43.1518 13.6621 43.1518 13.8767C43.1518 14.0652 43.1283 14.2277 43.0814 14.3642C43.0242 14.5308 42.9424 14.6657 42.8361 14.7688C42.7559 14.847 42.6476 14.9079 42.5111 14.9517C42.409 14.984 42.2726 15.0001 42.1018 15.0001H41.2314V12.7095ZM41.6939 13.097V14.6142H42.0393C42.1684 14.6142 42.2617 14.6069 42.3189 14.5923C42.3939 14.5735 42.4559 14.5418 42.5049 14.497C42.5549 14.4522 42.5955 14.3787 42.6268 14.2767C42.658 14.1735 42.6736 14.0334 42.6736 13.8563C42.6736 13.6793 42.658 13.5433 42.6268 13.4485C42.5955 13.3537 42.5518 13.2798 42.4955 13.2267C42.4393 13.1735 42.3679 13.1376 42.2814 13.1188C42.2169 13.1043 42.0903 13.097 41.9018 13.097H41.6939Z" fill="#367E9E"/>
<path d="M43.4518 13.8688C43.4518 13.6355 43.4867 13.4397 43.5564 13.2813C43.6085 13.1647 43.6794 13.06 43.7689 12.9673C43.8596 12.8746 43.9585 12.8058 44.0658 12.761C44.2085 12.7006 44.3731 12.6704 44.5596 12.6704C44.8971 12.6704 45.1669 12.7751 45.3689 12.9845C45.5721 13.1938 45.6736 13.485 45.6736 13.8579C45.6736 14.2277 45.5731 14.5173 45.3721 14.7267C45.171 14.935 44.9023 15.0392 44.5658 15.0392C44.2252 15.0392 43.9544 14.9355 43.7533 14.7282C43.5523 14.5199 43.4518 14.2334 43.4518 13.8688ZM43.9283 13.8532C43.9283 14.1126 43.9882 14.3095 44.108 14.4438C44.2278 14.5772 44.3799 14.6438 44.5643 14.6438C44.7486 14.6438 44.8997 14.5777 45.0174 14.4454C45.1361 14.3121 45.1955 14.1126 45.1955 13.847C45.1955 13.5845 45.1377 13.3886 45.0221 13.2595C44.9075 13.1303 44.7549 13.0657 44.5643 13.0657C44.3736 13.0657 44.22 13.1313 44.1033 13.2626C43.9867 13.3928 43.9283 13.5897 43.9283 13.8532Z" fill="#367E9E"/>
<path d="M47.5018 14.1579L47.9502 14.3001C47.8814 14.5501 47.7669 14.736 47.6064 14.8579C47.4471 14.9787 47.2445 15.0392 46.9986 15.0392C46.6945 15.0392 46.4445 14.9355 46.2486 14.7282C46.0528 14.5199 45.9549 14.2355 45.9549 13.8751C45.9549 13.4938 46.0533 13.198 46.2502 12.9876C46.4471 12.7761 46.7059 12.6704 47.0268 12.6704C47.307 12.6704 47.5346 12.7532 47.7096 12.9188C47.8137 13.0168 47.8919 13.1574 47.9439 13.3407L47.4861 13.4501C47.4591 13.3313 47.4023 13.2376 47.3158 13.1688C47.2304 13.1001 47.1262 13.0657 47.0033 13.0657C46.8335 13.0657 46.6955 13.1267 46.5893 13.2485C46.484 13.3704 46.4314 13.5678 46.4314 13.8407C46.4314 14.1303 46.4835 14.3366 46.5877 14.4595C46.6919 14.5824 46.8273 14.6438 46.9939 14.6438C47.1169 14.6438 47.2226 14.6048 47.3111 14.5267C47.3997 14.4485 47.4632 14.3256 47.5018 14.1579Z" fill="#367E9E"/>
<path d="M48.3455 12.7095H48.808V13.9501C48.808 14.147 48.8137 14.2746 48.8252 14.3329C48.845 14.4267 48.8919 14.5022 48.9658 14.5595C49.0408 14.6157 49.1429 14.6438 49.2721 14.6438C49.4033 14.6438 49.5023 14.6173 49.5689 14.5642C49.6356 14.51 49.6757 14.4438 49.6893 14.3657C49.7028 14.2876 49.7096 14.1579 49.7096 13.9767V12.7095H50.1721V13.9126C50.1721 14.1876 50.1596 14.3819 50.1346 14.4954C50.1096 14.609 50.0632 14.7048 49.9955 14.7829C49.9288 14.861 49.8393 14.9235 49.7268 14.9704C49.6143 15.0162 49.4674 15.0392 49.2861 15.0392C49.0674 15.0392 48.9012 15.0142 48.7877 14.9642C48.6752 14.9131 48.5861 14.8475 48.5205 14.7673C48.4549 14.686 48.4117 14.6011 48.3908 14.5126C48.3606 14.3813 48.3455 14.1876 48.3455 13.9313V12.7095Z" fill="#367E9E"/>
<path d="M50.6549 15.0001V12.7095H51.3471L51.7627 14.272L52.1736 12.7095H52.8674V15.0001H52.4377V13.197L51.983 15.0001H51.5377L51.0846 13.197V15.0001H50.6549Z" fill="#367E9E"/>
<path d="M53.3268 15.0001V12.7095H55.0252V13.097H53.7893V13.6048H54.9393V13.9907H53.7893V14.6142H55.0689V15.0001H53.3268Z" fill="#367E9E"/>
<path d="M55.4658 15.0001V12.7095H55.9158L56.8533 14.2392V12.7095H57.283V15.0001H56.8189L55.8955 13.5063V15.0001H55.4658Z" fill="#367E9E"/>
<path d="M58.2893 15.0001V13.097H57.6096V12.7095H59.4299V13.097H58.7518V15.0001H58.2893Z" fill="#367E9E"/>
<path d="M59.5768 13.8688C59.5768 13.6355 59.6117 13.4397 59.6814 13.2813C59.7335 13.1647 59.8044 13.06 59.8939 12.9673C59.9846 12.8746 60.0835 12.8058 60.1908 12.761C60.3335 12.7006 60.4981 12.6704 60.6846 12.6704C61.0221 12.6704 61.2919 12.7751 61.4939 12.9845C61.6971 13.1938 61.7986 13.485 61.7986 13.8579C61.7986 14.2277 61.6981 14.5173 61.4971 14.7267C61.296 14.935 61.0273 15.0392 60.6908 15.0392C60.3502 15.0392 60.0794 14.9355 59.8783 14.7282C59.6773 14.5199 59.5768 14.2334 59.5768 13.8688ZM60.0533 13.8532C60.0533 14.1126 60.1132 14.3095 60.233 14.4438C60.3528 14.5772 60.5049 14.6438 60.6893 14.6438C60.8736 14.6438 61.0247 14.5777 61.1424 14.4454C61.2611 14.3121 61.3205 14.1126 61.3205 13.847C61.3205 13.5845 61.2627 13.3886 61.1471 13.2595C61.0325 13.1303 60.8799 13.0657 60.6893 13.0657C60.4986 13.0657 60.345 13.1313 60.2283 13.2626C60.1117 13.3928 60.0533 13.5897 60.0533 13.8532Z" fill="#367E9E"/>
<path d="M63.0564 15.0001V12.7095H63.5064L64.4439 14.2392V12.7095H64.8736V15.0001H64.4096L63.4861 13.5063V15.0001H63.0564Z" fill="#367E9E"/>
<path d="M67.4299 15.0001H66.9268L66.7268 14.4798H65.8111L65.6221 15.0001H65.1314L66.0236 12.7095H66.5127L67.4299 15.0001ZM66.5783 14.0938L66.2627 13.2438L65.9533 14.0938H66.5783Z" fill="#367E9E"/>
<path d="M69.1424 14.1579L69.5908 14.3001C69.5221 14.5501 69.4075 14.736 69.2471 14.8579C69.0877 14.9787 68.8851 15.0392 68.6393 15.0392C68.3351 15.0392 68.0851 14.9355 67.8893 14.7282C67.6934 14.5199 67.5955 14.2355 67.5955 13.8751C67.5955 13.4938 67.6939 13.198 67.8908 12.9876C68.0877 12.7761 68.3465 12.6704 68.6674 12.6704C68.9476 12.6704 69.1752 12.7532 69.3502 12.9188C69.4544 13.0168 69.5325 13.1574 69.5846 13.3407L69.1268 13.4501C69.0997 13.3313 69.0429 13.2376 68.9564 13.1688C68.871 13.1001 68.7669 13.0657 68.6439 13.0657C68.4742 13.0657 68.3361 13.1267 68.2299 13.2485C68.1247 13.3704 68.0721 13.5678 68.0721 13.8407C68.0721 14.1303 68.1242 14.3366 68.2283 14.4595C68.3325 14.5824 68.4679 14.6438 68.6346 14.6438C68.7575 14.6438 68.8632 14.6048 68.9518 14.5267C69.0403 14.4485 69.1038 14.3256 69.1424 14.1579Z" fill="#367E9E"/>
<path d="M69.9752 15.0001V12.7095H70.4377V15.0001H69.9752Z" fill="#367E9E"/>
<path d="M70.7861 13.8688C70.7861 13.6355 70.821 13.4397 70.8908 13.2813C70.9429 13.1647 71.0137 13.06 71.1033 12.9673C71.1939 12.8746 71.2929 12.8058 71.4002 12.761C71.5429 12.7006 71.7075 12.6704 71.8939 12.6704C72.2314 12.6704 72.5012 12.7751 72.7033 12.9845C72.9064 13.1938 73.008 13.485 73.008 13.8579C73.008 14.2277 72.9075 14.5173 72.7064 14.7267C72.5054 14.935 72.2367 15.0392 71.9002 15.0392C71.5596 15.0392 71.2887 14.9355 71.0877 14.7282C70.8867 14.5199 70.7861 14.2334 70.7861 13.8688ZM71.2627 13.8532C71.2627 14.1126 71.3226 14.3095 71.4424 14.4438C71.5622 14.5772 71.7143 14.6438 71.8986 14.6438C72.083 14.6438 72.234 14.5777 72.3518 14.4454C72.4705 14.3121 72.5299 14.1126 72.5299 13.847C72.5299 13.5845 72.4721 13.3886 72.3564 13.2595C72.2419 13.1303 72.0893 13.0657 71.8986 13.0657C71.708 13.0657 71.5544 13.1313 71.4377 13.2626C71.321 13.3928 71.2627 13.5897 71.2627 13.8532Z" fill="#367E9E"/>
<path d="M73.3752 15.0001V12.7095H73.8252L74.7627 14.2392V12.7095H75.1924V15.0001H74.7283L73.8049 13.5063V15.0001H73.3752Z" fill="#367E9E"/>
<path d="M77.7486 15.0001H77.2455L77.0455 14.4798H76.1299L75.9408 15.0001H75.4502L76.3424 12.7095H76.8314L77.7486 15.0001ZM76.8971 14.0938L76.5814 13.2438L76.2721 14.0938H76.8971Z" fill="#367E9E"/>
<path d="M78.008 15.0001V12.7282H78.4705V14.6142H79.6205V15.0001H78.008Z" fill="#367E9E"/>
<path d="M41.2314 16.7095H42.0768C42.2674 16.7095 42.4127 16.7241 42.5127 16.7532C42.6471 16.7928 42.7622 16.8631 42.858 16.9642C42.9538 17.0652 43.0268 17.1892 43.0768 17.336C43.1268 17.4819 43.1518 17.6621 43.1518 17.8767C43.1518 18.0652 43.1283 18.2277 43.0814 18.3642C43.0242 18.5308 42.9424 18.6657 42.8361 18.7688C42.7559 18.847 42.6476 18.9079 42.5111 18.9517C42.409 18.984 42.2726 19.0001 42.1018 19.0001H41.2314V16.7095ZM41.6939 17.097V18.6142H42.0393C42.1684 18.6142 42.2617 18.6069 42.3189 18.5923C42.3939 18.5735 42.4559 18.5418 42.5049 18.497C42.5549 18.4522 42.5955 18.3787 42.6268 18.2767C42.658 18.1735 42.6736 18.0334 42.6736 17.8563C42.6736 17.6793 42.658 17.5433 42.6268 17.4485C42.5955 17.3537 42.5518 17.2798 42.4955 17.2267C42.4393 17.1735 42.3679 17.1376 42.2814 17.1188C42.2169 17.1043 42.0903 17.097 41.9018 17.097H41.6939Z" fill="#367E9E"/>
<path d="M43.5455 19.0001V16.7095H45.2439V17.097H44.008V17.6048H45.158V17.9907H44.008V18.6142H45.2877V19.0001H43.5455Z" fill="#367E9E"/>
<path d="M46.5564 19.0001V16.7095H47.0189V19.0001H46.5564Z" fill="#367E9E"/>
<path d="M47.4596 16.7095H48.3049C48.4955 16.7095 48.6408 16.7241 48.7408 16.7532C48.8752 16.7928 48.9903 16.8631 49.0861 16.9642C49.182 17.0652 49.2549 17.1892 49.3049 17.336C49.3549 17.4819 49.3799 17.6621 49.3799 17.8767C49.3799 18.0652 49.3564 18.2277 49.3096 18.3642C49.2523 18.5308 49.1705 18.6657 49.0643 18.7688C48.9841 18.847 48.8757 18.9079 48.7393 18.9517C48.6372 18.984 48.5007 19.0001 48.3299 19.0001H47.4596V16.7095ZM47.9221 17.097V18.6142H48.2674C48.3965 18.6142 48.4898 18.6069 48.5471 18.5923C48.6221 18.5735 48.684 18.5418 48.733 18.497C48.783 18.4522 48.8236 18.3787 48.8549 18.2767C48.8861 18.1735 48.9018 18.0334 48.9018 17.8563C48.9018 17.6793 48.8861 17.5433 48.8549 17.4485C48.8236 17.3537 48.7799 17.2798 48.7236 17.2267C48.6674 17.1735 48.596 17.1376 48.5096 17.1188C48.445 17.1043 48.3184 17.097 48.1299 17.097H47.9221Z" fill="#367E9E"/>
<path d="M49.7736 19.0001V16.7095H51.4721V17.097H50.2361V17.6048H51.3861V17.9907H50.2361V18.6142H51.5158V19.0001H49.7736Z" fill="#367E9E"/>
<path d="M51.9127 19.0001V16.7095H52.3627L53.3002 18.2392V16.7095H53.7299V19.0001H53.2658L52.3424 17.5063V19.0001H51.9127Z" fill="#367E9E"/>
<path d="M54.7361 19.0001V17.097H54.0564V16.7095H55.8768V17.097H55.1986V19.0001H54.7361Z" fill="#367E9E"/>
<path d="M56.1627 19.0001V16.7095H56.6252V19.0001H56.1627Z" fill="#367E9E"/>
<path d="M57.0658 16.7095H57.9111C58.1018 16.7095 58.2471 16.7241 58.3471 16.7532C58.4814 16.7928 58.5965 16.8631 58.6924 16.9642C58.7882 17.0652 58.8611 17.1892 58.9111 17.336C58.9611 17.4819 58.9861 17.6621 58.9861 17.8767C58.9861 18.0652 58.9627 18.2277 58.9158 18.3642C58.8585 18.5308 58.7768 18.6657 58.6705 18.7688C58.5903 18.847 58.482 18.9079 58.3455 18.9517C58.2434 18.984 58.107 19.0001 57.9361 19.0001H57.0658V16.7095ZM57.5283 17.097V18.6142H57.8736C58.0028 18.6142 58.096 18.6069 58.1533 18.5923C58.2283 18.5735 58.2903 18.5418 58.3393 18.497C58.3893 18.4522 58.4299 18.3787 58.4611 18.2767C58.4924 18.1735 58.508 18.0334 58.508 17.8563C58.508 17.6793 58.4924 17.5433 58.4611 17.4485C58.4299 17.3537 58.3861 17.2798 58.3299 17.2267C58.2736 17.1735 58.2023 17.1376 58.1158 17.1188C58.0512 17.1043 57.9247 17.097 57.7361 17.097H57.5283Z" fill="#367E9E"/>
<path d="M61.4455 19.0001H60.9424L60.7424 18.4798H59.8268L59.6377 19.0001H59.1471L60.0393 16.7095H60.5283L61.4455 19.0001ZM60.5939 18.0938L60.2783 17.2438L59.9689 18.0938H60.5939Z" fill="#367E9E"/>
<path d="M61.6908 16.7095H62.5361C62.7268 16.7095 62.8721 16.7241 62.9721 16.7532C63.1064 16.7928 63.2215 16.8631 63.3174 16.9642C63.4132 17.0652 63.4861 17.1892 63.5361 17.336C63.5861 17.4819 63.6111 17.6621 63.6111 17.8767C63.6111 18.0652 63.5877 18.2277 63.5408 18.3642C63.4835 18.5308 63.4018 18.6657 63.2955 18.7688C63.2153 18.847 63.107 18.9079 62.9705 18.9517C62.8684 18.984 62.732 19.0001 62.5611 19.0001H61.6908V16.7095ZM62.1533 17.097V18.6142H62.4986C62.6278 18.6142 62.721 18.6069 62.7783 18.5923C62.8533 18.5735 62.9153 18.5418 62.9643 18.497C63.0143 18.4522 63.0549 18.3787 63.0861 18.2767C63.1174 18.1735 63.133 18.0334 63.133 17.8563C63.133 17.6793 63.1174 17.5433 63.0861 17.4485C63.0549 17.3537 63.0111 17.2798 62.9549 17.2267C62.8986 17.1735 62.8273 17.1376 62.7408 17.1188C62.6762 17.1043 62.5497 17.097 62.3611 17.097H62.1533Z" fill="#367E9E"/>
<path d="M95.2891 14.1367H96.3457C96.584 14.1367 96.7656 14.1549 96.8906 14.1914C97.0586 14.2409 97.2025 14.3288 97.3223 14.4551C97.4421 14.5814 97.5332 14.7363 97.5957 14.9199C97.6582 15.1022 97.6895 15.3275 97.6895 15.5957C97.6895 15.8314 97.6602 16.0345 97.6016 16.2051C97.5299 16.4134 97.4277 16.582 97.2949 16.7109C97.1947 16.8086 97.0592 16.8848 96.8887 16.9395C96.7611 16.9798 96.5905 17 96.377 17H95.2891V14.1367ZM95.8672 14.6211V16.5176H96.2988C96.4603 16.5176 96.5768 16.5085 96.6484 16.4902C96.7422 16.4668 96.8197 16.4271 96.8809 16.3711C96.9434 16.3151 96.9941 16.2233 97.0332 16.0957C97.0723 15.9668 97.0918 15.7917 97.0918 15.5703C97.0918 15.349 97.0723 15.179 97.0332 15.0605C96.9941 14.9421 96.9395 14.8496 96.8691 14.7832C96.7988 14.7168 96.7096 14.6719 96.6016 14.6484C96.5208 14.6302 96.3626 14.6211 96.127 14.6211H95.8672Z" fill="#367E9E"/>
<path d="M98.1875 17V14.1367H98.75L99.9219 16.0488V14.1367H100.459V17H99.8789L98.7246 15.1328V17H98.1875Z" fill="#367E9E"/>
<path d="M101.055 17V14.1367H101.633V17H101.055Z" fill="#367E9E"/>
<path d="M105.246 17V16.4238H104.074V15.9434L105.316 14.125H105.777V15.9414H106.133V16.4238H105.777V17H105.246ZM105.246 15.9414V14.9629L104.588 15.9414H105.246Z" fill="#529ABA"/>
<path d="M105.246 17V16.4238H104.074V15.9434L105.316 14.125H105.777V15.9414H106.133V16.4238H105.777V17H105.246ZM105.246 15.9414V14.9629L104.588 15.9414H105.246Z" fill="#AD2620"/>
<path d="M106.396 14.6855V14.1758H108.273V14.5742C108.118 14.7266 107.961 14.9453 107.801 15.2305C107.641 15.5156 107.518 15.819 107.434 16.1406C107.35 16.4609 107.309 16.7474 107.311 17H106.781C106.79 16.6042 106.872 16.2005 107.025 15.7891C107.18 15.3776 107.387 15.0098 107.645 14.6855H106.396Z" fill="#529ABA"/>
<path d="M106.396 14.6855V14.1758H108.273V14.5742C108.118 14.7266 107.961 14.9453 107.801 15.2305C107.641 15.5156 107.518 15.819 107.434 16.1406C107.35 16.4609 107.309 16.7474 107.311 17H106.781C106.79 16.6042 106.872 16.2005 107.025 15.7891C107.18 15.3776 107.387 15.0098 107.645 14.6855H106.396Z" fill="#AD2620"/>
<path d="M110.482 14.8379L109.951 14.8965C109.938 14.7871 109.904 14.7064 109.85 14.6543C109.795 14.6022 109.724 14.5762 109.637 14.5762C109.521 14.5762 109.423 14.6283 109.342 14.7324C109.262 14.8366 109.212 15.0534 109.191 15.3828C109.328 15.2214 109.498 15.1406 109.701 15.1406C109.93 15.1406 110.126 15.2279 110.289 15.4023C110.453 15.5768 110.535 15.8021 110.535 16.0781C110.535 16.3711 110.449 16.6061 110.277 16.7832C110.105 16.9603 109.885 17.0488 109.615 17.0488C109.326 17.0488 109.089 16.9368 108.902 16.7129C108.716 16.4876 108.623 16.1191 108.623 15.6074C108.623 15.0827 108.72 14.7044 108.914 14.4727C109.108 14.2409 109.36 14.125 109.67 14.125C109.887 14.125 110.067 14.1862 110.209 14.3086C110.352 14.4297 110.443 14.6061 110.482 14.8379ZM109.238 16.0352C109.238 16.2135 109.279 16.3516 109.361 16.4492C109.443 16.5456 109.537 16.5938 109.643 16.5938C109.744 16.5938 109.829 16.554 109.896 16.4746C109.964 16.3952 109.998 16.265 109.998 16.084C109.998 15.8978 109.962 15.7617 109.889 15.6758C109.816 15.5885 109.725 15.5449 109.615 15.5449C109.51 15.5449 109.421 15.5866 109.348 15.6699C109.275 15.752 109.238 15.8737 109.238 16.0352Z" fill="#529ABA"/>
<path d="M110.482 14.8379L109.951 14.8965C109.938 14.7871 109.904 14.7064 109.85 14.6543C109.795 14.6022 109.724 14.5762 109.637 14.5762C109.521 14.5762 109.423 14.6283 109.342 14.7324C109.262 14.8366 109.212 15.0534 109.191 15.3828C109.328 15.2214 109.498 15.1406 109.701 15.1406C109.93 15.1406 110.126 15.2279 110.289 15.4023C110.453 15.5768 110.535 15.8021 110.535 16.0781C110.535 16.3711 110.449 16.6061 110.277 16.7832C110.105 16.9603 109.885 17.0488 109.615 17.0488C109.326 17.0488 109.089 16.9368 108.902 16.7129C108.716 16.4876 108.623 16.1191 108.623 15.6074C108.623 15.0827 108.72 14.7044 108.914 14.4727C109.108 14.2409 109.36 14.125 109.67 14.125C109.887 14.125 110.067 14.1862 110.209 14.3086C110.352 14.4297 110.443 14.6061 110.482 14.8379ZM109.238 16.0352C109.238 16.2135 109.279 16.3516 109.361 16.4492C109.443 16.5456 109.537 16.5938 109.643 16.5938C109.744 16.5938 109.829 16.554 109.896 16.4746C109.964 16.3952 109.998 16.265 109.998 16.084C109.998 15.8978 109.962 15.7617 109.889 15.6758C109.816 15.5885 109.725 15.5449 109.615 15.5449C109.51 15.5449 109.421 15.5866 109.348 15.6699C109.275 15.752 109.238 15.8737 109.238 16.0352Z" fill="#AD2620"/>
<path d="M110.857 16.2637L111.404 16.207C111.42 16.3307 111.466 16.429 111.543 16.502C111.62 16.5736 111.708 16.6094 111.809 16.6094C111.923 16.6094 112.02 16.5632 112.1 16.4707C112.179 16.377 112.219 16.2363 112.219 16.0488C112.219 15.873 112.179 15.7415 112.1 15.6543C112.021 15.5658 111.919 15.5215 111.793 15.5215C111.635 15.5215 111.494 15.5911 111.369 15.7305L110.924 15.666L111.205 14.1758H112.656V14.6895H111.621L111.535 15.1758C111.658 15.1146 111.783 15.084 111.91 15.084C112.154 15.084 112.36 15.1725 112.529 15.3496C112.699 15.5267 112.783 15.7565 112.783 16.0391C112.783 16.2747 112.715 16.485 112.578 16.6699C112.392 16.9225 112.133 17.0488 111.803 17.0488C111.538 17.0488 111.323 16.9779 111.156 16.8359C110.99 16.694 110.89 16.5033 110.857 16.2637Z" fill="#529ABA"/>
<path d="M110.857 16.2637L111.404 16.207C111.42 16.3307 111.466 16.429 111.543 16.502C111.62 16.5736 111.708 16.6094 111.809 16.6094C111.923 16.6094 112.02 16.5632 112.1 16.4707C112.179 16.377 112.219 16.2363 112.219 16.0488C112.219 15.873 112.179 15.7415 112.1 15.6543C112.021 15.5658 111.919 15.5215 111.793 15.5215C111.635 15.5215 111.494 15.5911 111.369 15.7305L110.924 15.666L111.205 14.1758H112.656V14.6895H111.621L111.535 15.1758C111.658 15.1146 111.783 15.084 111.91 15.084C112.154 15.084 112.36 15.1725 112.529 15.3496C112.699 15.5267 112.783 15.7565 112.783 16.0391C112.783 16.2747 112.715 16.485 112.578 16.6699C112.392 16.9225 112.133 17.0488 111.803 17.0488C111.538 17.0488 111.323 16.9779 111.156 16.8359C110.99 16.694 110.89 16.5033 110.857 16.2637Z" fill="#AD2620"/>
<path d="M114.152 17V16.4238H112.98V15.9434L114.223 14.125H114.684V15.9414H115.039V16.4238H114.684V17H114.152ZM114.152 15.9414V14.9629L113.494 15.9414H114.152Z" fill="#529ABA"/>
<path d="M114.152 17V16.4238H112.98V15.9434L114.223 14.125H114.684V15.9414H115.039V16.4238H114.684V17H114.152ZM114.152 15.9414V14.9629L113.494 15.9414H114.152Z" fill="#AD2620"/>
<path d="M115.283 16.2402L115.814 16.1758C115.831 16.3112 115.877 16.4147 115.951 16.4863C116.025 16.5579 116.115 16.5938 116.221 16.5938C116.334 16.5938 116.429 16.5508 116.506 16.4648C116.584 16.3789 116.623 16.263 116.623 16.1172C116.623 15.9792 116.586 15.8698 116.512 15.7891C116.438 15.7083 116.347 15.668 116.24 15.668C116.17 15.668 116.086 15.6816 115.988 15.709L116.049 15.2617C116.197 15.2656 116.311 15.2337 116.389 15.166C116.467 15.097 116.506 15.0059 116.506 14.8926C116.506 14.7962 116.477 14.7194 116.42 14.6621C116.363 14.6048 116.286 14.5762 116.191 14.5762C116.098 14.5762 116.018 14.6087 115.951 14.6738C115.885 14.7389 115.844 14.834 115.83 14.959L115.324 14.873C115.359 14.6999 115.412 14.5618 115.482 14.459C115.554 14.3548 115.653 14.2734 115.779 14.2148C115.907 14.1549 116.049 14.125 116.207 14.125C116.477 14.125 116.693 14.2109 116.855 14.3828C116.99 14.5234 117.057 14.6823 117.057 14.8594C117.057 15.1107 116.919 15.3112 116.645 15.4609C116.809 15.4961 116.939 15.5749 117.037 15.6973C117.136 15.8197 117.186 15.9674 117.186 16.1406C117.186 16.3919 117.094 16.6061 116.91 16.7832C116.727 16.9603 116.498 17.0488 116.225 17.0488C115.965 17.0488 115.751 16.9746 115.58 16.8262C115.41 16.6764 115.311 16.4811 115.283 16.2402Z" fill="#529ABA"/>
<path d="M115.283 16.2402L115.814 16.1758C115.831 16.3112 115.877 16.4147 115.951 16.4863C116.025 16.5579 116.115 16.5938 116.221 16.5938C116.334 16.5938 116.429 16.5508 116.506 16.4648C116.584 16.3789 116.623 16.263 116.623 16.1172C116.623 15.9792 116.586 15.8698 116.512 15.7891C116.438 15.7083 116.347 15.668 116.24 15.668C116.17 15.668 116.086 15.6816 115.988 15.709L116.049 15.2617C116.197 15.2656 116.311 15.2337 116.389 15.166C116.467 15.097 116.506 15.0059 116.506 14.8926C116.506 14.7962 116.477 14.7194 116.42 14.6621C116.363 14.6048 116.286 14.5762 116.191 14.5762C116.098 14.5762 116.018 14.6087 115.951 14.6738C115.885 14.7389 115.844 14.834 115.83 14.959L115.324 14.873C115.359 14.6999 115.412 14.5618 115.482 14.459C115.554 14.3548 115.653 14.2734 115.779 14.2148C115.907 14.1549 116.049 14.125 116.207 14.125C116.477 14.125 116.693 14.2109 116.855 14.3828C116.99 14.5234 117.057 14.6823 117.057 14.8594C117.057 15.1107 116.919 15.3112 116.645 15.4609C116.809 15.4961 116.939 15.5749 117.037 15.6973C117.136 15.8197 117.186 15.9674 117.186 16.1406C117.186 16.3919 117.094 16.6061 116.91 16.7832C116.727 16.9603 116.498 17.0488 116.225 17.0488C115.965 17.0488 115.751 16.9746 115.58 16.8262C115.41 16.6764 115.311 16.4811 115.283 16.2402Z" fill="#AD2620"/>
<path d="M119.383 16.4902V17H117.459C117.48 16.8073 117.542 16.625 117.646 16.4531C117.751 16.2799 117.956 16.0508 118.264 15.7656C118.511 15.5352 118.663 15.3789 118.719 15.2969C118.794 15.1836 118.832 15.0716 118.832 14.9609C118.832 14.8385 118.799 14.7448 118.732 14.6797C118.667 14.6133 118.577 14.5801 118.461 14.5801C118.346 14.5801 118.255 14.6146 118.188 14.6836C118.12 14.7526 118.081 14.8672 118.07 15.0273L117.523 14.9727C117.556 14.6706 117.658 14.4538 117.83 14.3223C118.002 14.1908 118.217 14.125 118.475 14.125C118.757 14.125 118.979 14.2012 119.141 14.3535C119.302 14.5059 119.383 14.6953 119.383 14.9219C119.383 15.0508 119.359 15.1738 119.312 15.291C119.267 15.4069 119.194 15.5286 119.094 15.6562C119.027 15.7409 118.908 15.8626 118.734 16.0215C118.561 16.1803 118.451 16.2858 118.404 16.3379C118.359 16.39 118.322 16.4408 118.293 16.4902H119.383Z" fill="#529ABA"/>
<path d="M119.383 16.4902V17H117.459C117.48 16.8073 117.542 16.625 117.646 16.4531C117.751 16.2799 117.956 16.0508 118.264 15.7656C118.511 15.5352 118.663 15.3789 118.719 15.2969C118.794 15.1836 118.832 15.0716 118.832 14.9609C118.832 14.8385 118.799 14.7448 118.732 14.6797C118.667 14.6133 118.577 14.5801 118.461 14.5801C118.346 14.5801 118.255 14.6146 118.188 14.6836C118.12 14.7526 118.081 14.8672 118.07 15.0273L117.523 14.9727C117.556 14.6706 117.658 14.4538 117.83 14.3223C118.002 14.1908 118.217 14.125 118.475 14.125C118.757 14.125 118.979 14.2012 119.141 14.3535C119.302 14.5059 119.383 14.6953 119.383 14.9219C119.383 15.0508 119.359 15.1738 119.312 15.291C119.267 15.4069 119.194 15.5286 119.094 15.6562C119.027 15.7409 118.908 15.8626 118.734 16.0215C118.561 16.1803 118.451 16.2858 118.404 16.3379C118.359 16.39 118.322 16.4408 118.293 16.4902H119.383Z" fill="#AD2620"/>
<path d="M121.16 17H120.611V14.9316C120.411 15.1191 120.174 15.2578 119.902 15.3477V14.8496C120.046 14.8027 120.201 14.7142 120.369 14.584C120.537 14.4525 120.652 14.2995 120.715 14.125H121.16V17Z" fill="#529ABA"/>
<path d="M121.16 17H120.611V14.9316C120.411 15.1191 120.174 15.2578 119.902 15.3477V14.8496C120.046 14.8027 120.201 14.7142 120.369 14.584C120.537 14.4525 120.652 14.2995 120.715 14.125H121.16V17Z" fill="#AD2620"/>
<rect x="117" y="54" width="8.75" height="10" fill="#C9EAF6"/>
<circle cx="121.375" cy="57.4375" r="1.5625" fill="#2C627D"/>
<path fill-rule="evenodd" clip-rule="evenodd" d="M118.58 61.8125H124.17C124.015 60.4063 122.823 59.3125 121.375 59.3125C119.927 59.3125 118.735 60.4063 118.58 61.8125Z" fill="#2C627D"/>
<rect x="103.5" y="27.5" width="26" height="22" stroke="#609FBA"/>
<path d="M129.5 42H103.5" stroke="#609FBA" stroke-linecap="round"/>
<path d="M129.5 34.5H103.5" stroke="#609FBA" stroke-linecap="round"/>
<rect x="106" y="29" width="21" height="4" fill="#609FBA"/>
<rect x="106" y="36" width="21" height="4" fill="#609FBA"/>
<rect x="106" y="44" width="21" height="4" fill="#609FBA"/>
<path d="M83.0792 61.1176C83.2152 61.0493 84.6383 59.4126 84.7222 59.2943C85.1026 58.7575 85.4034 58.1549 85.6485 57.5451C86.0812 56.4685 86.5063 55.1204 86.1319 53.9631C85.983 53.5029 85.5725 52.9355 85.0318 53.006C84.6981 53.0494 84.4387 53.2487 84.2126 53.4893C83.6486 54.0896 83.2523 54.8759 83.0792 55.6811C82.8159 56.9056 83.172 58.8624 84.7127 58.9066C86.32 58.9528 88.0471 58.186 89.0274 56.8967C89.4657 56.3202 89.8799 55.5252 89.8799 54.7743C89.8799 54.66 89.5873 54.9852 89.537 55.0878C89.3092 55.5529 89.3433 56.0302 89.3346 56.5545C89.3197 57.4494 89.7478 58.5662 90.6847 58.8492C91.6176 59.1311 92.0103 58.0474 92.0777 57.3178C92.1119 56.9474 91.9176 55.8892 91.9467 56.9589C91.9635 57.574 91.8532 58.5164 92.2729 59.0311C92.5756 59.4022 93.0965 59.4704 93.5302 59.3278C94.8276 58.9011 95.5495 57.2639 95.2518 55.9778C95.107 55.352 94.3315 54.4402 93.8517 55.3485C93.6088 55.8083 93.6004 56.4089 93.7612 56.8967C94.1154 57.9712 95.2384 58.4803 96.2662 58.6817C97.7917 58.9807 99.4988 58.8763 101 58.4903" stroke="#609FBA" stroke-width="1.41176" stroke-linecap="round"/>
<rect x="42" y="28" width="28" height="4" fill="#609FBA"/>
<rect x="42" y="37" width="28" height="4" fill="#609FBA"/>
<rect x="42" y="46" width="28" height="4" fill="#609FBA"/>
<rect x="42" y="55" width="12" height="4" fill="#609FBA"/>
<rect x="59" y="55" width="12" height="4" fill="#609FBA"/>
<rect x="8" y="28" width="28" height="32" fill="white"/>
<circle cx="22" cy="39" r="5" fill="#2C627D"/>
<path fill-rule="evenodd" clip-rule="evenodd" d="M13.0547 53H30.9448C30.4474 48.5 26.6323 45 21.9998 45C17.3672 45 13.5521 48.5 13.0547 53Z" fill="#2C627D"/>
<path d="M12.5 69L9 71.5L12.5 74" stroke="#609FBA" stroke-width="1.5" stroke-linecap="round" stroke-linejoin="round"/>
<path d="M24.5 69L21 71.5L24.5 74" stroke="#609FBA" stroke-width="1.5" stroke-linecap="round" stroke-linejoin="round"/>
<path d="M36.5 69L33 71.5L36.5 74" stroke="#609FBA" stroke-width="1.5" stroke-linecap="round" stroke-linejoin="round"/>
<path d="M48.5 69L45 71.5L48.5 74" stroke="#609FBA" stroke-width="1.5" stroke-linecap="round" stroke-linejoin="round"/>
<path d="M59.5 69L56 71.5L59.5 74" stroke="#609FBA" stroke-width="1.5" stroke-linecap="round" stroke-linejoin="round"/>
<path d="M71.5 69L68 71.5L71.5 74" stroke="#609FBA" stroke-width="1.5" stroke-linecap="round" stroke-linejoin="round"/>
<path d="M83.5 69L80 71.5L83.5 74" stroke="#609FBA" stroke-width="1.5" stroke-linecap="round" stroke-linejoin="round"/>
<path d="M95.5 69L92 71.5L95.5 74" stroke="#609FBA" stroke-width="1.5" stroke-linecap="round" stroke-linejoin="round"/>
<path d="M106.5 69L103 71.5L106.5 74" stroke="#609FBA" stroke-width="1.5" stroke-linecap="round" stroke-linejoin="round"/>
<path d="M118.5 69L115 71.5L118.5 74" stroke="#609FBA" stroke-width="1.5" stroke-linecap="round" stroke-linejoin="round"/>
<path d="M129.5 69L126 71.5L129.5 74" stroke="#609FBA" stroke-width="1.5" stroke-linecap="round" stroke-linejoin="round"/>
<path d="M12.5 79L9 81.5L12.5 84" stroke="#609FBA" stroke-width="1.5" stroke-linecap="round" stroke-linejoin="round"/>
<path d="M24.5 79L21 81.5L24.5 84" stroke="#609FBA" stroke-width="1.5" stroke-linecap="round" stroke-linejoin="round"/>
<path d="M36.5 79L33 81.5L36.5 84" stroke="#609FBA" stroke-width="1.5" stroke-linecap="round" stroke-linejoin="round"/>
<path d="M48.5 79L45 81.5L48.5 84" stroke="#609FBA" stroke-width="1.5" stroke-linecap="round" stroke-linejoin="round"/>
<path d="M59.5 79L56 81.5L59.5 84" stroke="#609FBA" stroke-width="1.5" stroke-linecap="round" stroke-linejoin="round"/>
<path d="M71.5 79L68 81.5L71.5 84" stroke="#609FBA" stroke-width="1.5" stroke-linecap="round" stroke-linejoin="round"/>
<path d="M83.5 79L80 81.5L83.5 84" stroke="#609FBA" stroke-width="1.5" stroke-linecap="round" stroke-linejoin="round"/>
<path d="M95.5 79L92 81.5L95.5 84" stroke="#609FBA" stroke-width="1.5" stroke-linecap="round" stroke-linejoin="round"/>
<path d="M106.5 79L103 81.5L106.5 84" stroke="#609FBA" stroke-width="1.5" stroke-linecap="round" stroke-linejoin="round"/>
<path d="M118.5 79L115 81.5L118.5 84" stroke="#609FBA" stroke-width="1.5" stroke-linecap="round" stroke-linejoin="round"/>
<path d="M129.5 79L126 81.5L129.5 84" stroke="#609FBA" stroke-width="1.5" stroke-linecap="round" stroke-linejoin="round"/>
<g filter="url(#filter0_b_2260_34016)">
<rect x="4" y="4" width="131" height="88" rx="5" fill="white" fill-opacity="0.01"/>
</g>
<defs>
<filter id="filter0_b_2260_34016" x="0" y="0" width="139" height="96" filterUnits="userSpaceOnUse" color-interpolation-filters="sRGB">
<feFlood flood-opacity="0" result="BackgroundImageFix"/>
<feGaussianBlur in="BackgroundImageFix" stdDeviation="2"/>
<feComposite in2="SourceAlpha" operator="in" result="effect1_backgroundBlur_2260_34016"/>
<feBlend mode="normal" in="SourceGraphic" in2="effect1_backgroundBlur_2260_34016" result="shape"/>
</filter>
</defs>
</svg>
