<svg width="164" height="116" viewBox="0 0 164 116" fill="none" xmlns="http://www.w3.org/2000/svg">
<ellipse cx="81.6879" cy="87.0843" rx="81.6879" ry="28.0349" fill="url(#paint0_linear_17268_53800)"/>
<path d="M46.2667 58.982H33.1361C32.9184 58.982 32.7097 58.8955 32.5558 58.7416C32.4019 58.5877 32.3154 58.379 32.3154 58.1613C32.3154 57.9436 32.4019 57.7349 32.5558 57.581C32.7097 57.4271 32.9184 57.3406 33.1361 57.3406H46.2667C46.4844 57.3406 46.6931 57.4271 46.847 57.581C47.0009 57.7349 47.0874 57.9436 47.0874 58.1613C47.0874 58.379 47.0009 58.5877 46.847 58.7416C46.6931 58.8955 46.4844 58.982 46.2667 58.982Z" fill="#979DBA"/>
<path d="M39.7014 64.4585H22.1966C21.979 64.4585 21.7702 64.3721 21.6163 64.2182C21.4624 64.0643 21.376 63.8555 21.376 63.6379C21.376 63.4202 21.4624 63.2115 21.6163 63.0576C21.7702 62.9037 21.979 62.8172 22.1966 62.8172H39.7014C39.9191 62.8172 40.1278 62.9037 40.2817 63.0576C40.4356 63.2115 40.5221 63.4202 40.5221 63.6379C40.5221 63.8555 40.4356 64.0643 40.2817 64.2182C40.1278 64.3721 39.9191 64.4585 39.7014 64.4585Z" fill="#979DBA"/>
<path d="M41.8926 69.9234H33.1361C32.9184 69.9234 32.7097 69.8369 32.5558 69.683C32.4019 69.5291 32.3154 69.3204 32.3154 69.1027C32.3154 68.8851 32.4019 68.6763 32.5558 68.5224C32.7097 68.3685 32.9184 68.282 33.1361 68.282H41.8926C42.1102 68.282 42.319 68.3685 42.4729 68.5224C42.6268 68.6763 42.7132 68.8851 42.7132 69.1027C42.7132 69.3204 42.6268 69.5291 42.4729 69.683C42.319 69.8369 42.1102 69.9234 41.8926 69.9234Z" fill="#979DBA"/>
<path d="M141.556 41.0338H132.807C132.59 41.0338 132.381 40.9474 132.227 40.7935C132.073 40.6396 131.987 40.4308 131.987 40.2132C131.987 39.9955 132.073 39.7868 132.227 39.6329C132.381 39.479 132.59 39.3925 132.807 39.3925H141.556C141.773 39.3925 141.982 39.479 142.136 39.6329C142.29 39.7868 142.376 39.9955 142.376 40.2132C142.376 40.4308 142.29 40.6396 142.136 40.7935C141.982 40.9474 141.773 41.0338 141.556 41.0338Z" fill="#979DBA"/>
<path d="M137.182 46.5109H128.425C128.207 46.5109 127.999 46.4244 127.845 46.2705C127.691 46.1166 127.604 45.9079 127.604 45.6902C127.604 45.4726 127.691 45.2638 127.845 45.1099C127.999 44.956 128.207 44.8696 128.425 44.8696H137.182C137.399 44.8696 137.608 44.956 137.762 45.1099C137.916 45.2638 138.002 45.4726 138.002 45.6902C138.002 45.9079 137.916 46.1166 137.762 46.2705C137.608 46.4244 137.399 46.5109 137.182 46.5109Z" fill="#979DBA"/>
<path d="M116.394 92.7371C116.394 91.0052 115.88 89.3123 114.918 87.8723C113.956 86.4323 112.588 85.3099 110.988 84.6472C109.388 83.9844 107.628 83.811 105.929 84.1489C104.23 84.4868 102.67 85.3207 101.445 86.5453C100.221 87.77 99.3869 89.3302 99.049 91.0288C98.7111 92.7274 98.8845 94.488 99.5473 96.0881C100.21 97.6881 101.332 99.0557 102.772 100.018C104.212 100.98 105.905 101.494 107.637 101.494C109.96 101.494 112.187 100.571 113.829 98.9289C115.471 97.2867 116.394 95.0595 116.394 92.7371Z" fill="url(#paint1_linear_17268_53800)"/>
<path d="M63.8716 92.7371C63.8716 91.0052 63.3581 89.3123 62.3959 87.8723C61.4337 86.4323 60.0661 85.3099 58.4661 84.6472C56.8661 83.9844 55.1054 83.811 53.4068 84.1489C51.7082 84.4868 50.148 85.3207 48.9234 86.5453C47.6987 87.77 46.8648 89.3302 46.5269 91.0288C46.189 92.7274 46.3624 94.488 47.0252 96.0881C47.688 97.6881 48.8103 99.0557 50.2503 100.018C51.6903 100.98 53.3833 101.494 55.1151 101.494C57.4375 101.494 59.6648 100.571 61.3069 98.9289C62.9491 97.2867 63.8716 95.0595 63.8716 92.7371Z" fill="url(#paint2_linear_17268_53800)"/>
<path d="M116.394 94.9302C116.394 91.3029 112.471 88.3649 107.637 88.3649C102.804 88.3649 98.8807 91.3029 98.8807 94.9302C98.8807 98.5576 102.804 101.496 107.637 101.496C112.471 101.496 116.394 98.5576 116.394 94.9302Z" fill="url(#paint3_linear_17268_53800)"/>
<path d="M107.637 96.0197C109.45 96.0197 110.92 94.55 110.92 92.737C110.92 90.9241 109.45 89.4544 107.637 89.4544C105.824 89.4544 104.354 90.9241 104.354 92.737C104.354 94.55 105.824 96.0197 107.637 96.0197Z" fill="#F0F1F5"/>
<path d="M63.8716 94.9302C63.8716 91.3029 59.9488 88.3649 55.1151 88.3649C50.2814 88.3649 46.3586 91.3029 46.3586 94.9302C46.3586 98.5576 50.2814 101.496 55.1151 101.496C59.9488 101.496 63.8716 98.5576 63.8716 94.9302Z" fill="url(#paint4_linear_17268_53800)"/>
<path d="M55.1149 96.0197C56.9279 96.0197 58.3976 94.55 58.3976 92.737C58.3976 90.9241 56.9279 89.4544 55.1149 89.4544C53.302 89.4544 51.8323 90.9241 51.8323 92.737C51.8323 94.55 53.302 96.0197 55.1149 96.0197Z" fill="#F0F1F5"/>
<path d="M107.637 102.314C105.743 102.314 103.892 101.752 102.317 100.7C100.742 99.6473 99.5142 98.1516 98.7893 96.4016C98.0644 94.6516 97.8748 92.7259 98.2443 90.8681C98.6139 89.0104 99.526 87.3039 100.865 85.9645C102.205 84.6251 103.911 83.713 105.769 83.3434C107.627 82.9739 109.552 83.1635 111.302 83.8884C113.052 84.6133 114.548 85.8408 115.601 87.4158C116.653 88.9907 117.215 90.8424 117.215 92.7366C117.212 95.2759 116.203 97.7106 114.407 99.5062C112.612 101.302 110.177 102.312 107.637 102.314ZM107.637 84.8089C106.068 84.8089 104.533 85.2746 103.228 86.1469C101.922 87.0193 100.905 88.2592 100.305 89.7098C99.7045 91.1603 99.5479 92.7564 99.8547 94.296C100.162 95.8356 100.918 97.2496 102.029 98.3591C103.14 99.4687 104.554 100.224 106.094 100.529C107.634 100.834 109.23 100.676 110.68 100.074C112.13 99.4722 113.369 98.4538 114.24 97.1477C115.111 95.8416 115.575 94.3065 115.573 92.7366C115.569 90.6339 114.731 88.6188 113.244 87.1328C111.756 85.6468 109.74 84.8111 107.637 84.8089Z" fill="#979DBA"/>
<path d="M55.1148 102.314C53.2206 102.314 51.3689 101.752 49.794 100.7C48.219 99.6473 46.9915 98.1516 46.2666 96.4016C45.5417 94.6516 45.3521 92.7259 45.7216 90.8681C46.0912 89.0104 47.0033 87.3039 48.3427 85.9645C49.6821 84.6251 51.3886 83.713 53.2463 83.3434C55.1041 82.9739 57.0298 83.1635 58.7798 83.8884C60.5298 84.6133 62.0255 85.8408 63.0779 87.4158C64.1302 88.9907 64.6919 90.8424 64.6919 92.7366C64.6897 95.2759 63.68 97.7106 61.8844 99.5062C60.0888 101.302 57.6541 102.312 55.1148 102.314ZM55.1148 84.8089C53.5448 84.8089 52.0102 85.2746 50.705 86.1469C49.3998 87.0193 48.3826 88.2592 47.7822 89.7098C47.1818 91.1603 47.0251 92.7564 47.332 94.296C47.6389 95.8356 48.3955 97.2496 49.5062 98.3591C50.6169 99.4687 52.0316 100.224 53.5716 100.529C55.1115 100.834 56.7074 100.676 58.1574 100.074C59.6073 99.4722 60.8461 98.4538 61.7171 97.1477C62.5882 95.8416 63.0522 94.3065 63.0506 92.7366C63.0462 90.6339 62.2085 88.6188 60.7209 87.1328C59.2334 85.6468 57.2174 84.8111 55.1148 84.8089Z" fill="#979DBA"/>
<path d="M98.8808 93.5561H63.8712C63.6535 93.5561 63.4448 93.4696 63.2909 93.3157C63.137 93.1618 63.0505 92.9531 63.0505 92.7354C63.0505 92.5177 63.137 92.309 63.2909 92.1551C63.4448 92.0012 63.6535 91.9147 63.8712 91.9147H98.8808C99.0984 91.9147 99.3071 92.0012 99.4611 92.1551C99.615 92.309 99.7014 92.5177 99.7014 92.7354C99.7014 92.9531 99.615 93.1618 99.4611 93.3157C99.3071 93.4696 99.0984 93.5561 98.8808 93.5561Z" fill="#979DBA"/>
<path d="M60.5887 78.2421C60.4066 78.2499 60.2271 78.1969 60.0785 78.0914C59.9299 77.9859 59.8207 77.8339 59.768 77.6595L36.4119 1.64133H25.5709C25.3533 1.64133 25.1445 1.55486 24.9906 1.40096C24.8367 1.24706 24.7502 1.03832 24.7502 0.820665C24.7502 0.603011 24.8367 0.394271 24.9906 0.240366C25.1445 0.086462 25.3533 0 25.5709 0H37.0602C37.2353 0.00123182 37.4055 0.0584465 37.5457 0.163282C37.686 0.268118 37.7891 0.415075 37.8398 0.582671L61.4093 77.1753C61.4734 77.3831 61.4524 77.6079 61.3508 77.8003C61.2493 77.9927 61.0755 78.1368 60.8677 78.2011C60.7777 78.2308 60.6833 78.2447 60.5887 78.2421Z" fill="#979DBA"/>
<path d="M113.088 11.9697L73.8071 19.2038C73.3613 19.2858 73.0665 19.7137 73.1486 20.1595L77.6077 44.3722C77.6898 44.818 78.1177 45.1128 78.5634 45.0307L117.845 37.7967C118.29 37.7146 118.585 37.2867 118.503 36.8409L114.044 12.6282C113.962 12.1824 113.534 11.8876 113.088 11.9697Z" fill="url(#paint5_linear_17268_53800)"/>
<path d="M73.7916 23.6512L114.687 16.1198L118.502 36.8379C118.542 37.0519 118.495 37.2729 118.371 37.4521C118.248 37.6314 118.058 37.7542 117.844 37.7936L78.5628 45.0277C78.3488 45.0671 78.1278 45.0199 77.9486 44.8964C77.7693 44.7729 77.6465 44.5833 77.6071 44.3692L73.7916 23.6512Z" fill="url(#paint6_linear_17268_53800)"/>
<g filter="url(#filter0_b_17268_53800)">
<circle cx="91.7112" cy="25.8448" r="11.2144" transform="rotate(-22.2653 91.7112 25.8448)" fill="url(#paint7_linear_17268_53800)"/>
</g>
<path d="M89.6706 30.5641C88.7903 30.5002 88.0989 30.1931 87.5965 29.6428C87.094 29.0925 86.8533 28.4756 86.8744 27.792L88.5676 27.9149C88.6017 28.2314 88.7259 28.4866 88.9402 28.6806C89.1621 28.868 89.4434 28.974 89.7842 28.9987C90.0753 29.0199 90.3139 28.9765 90.5001 28.8687C90.6935 28.7614 90.7976 28.6048 90.8126 28.399C90.8388 28.0369 90.5286 27.7396 89.8817 27.5071L89.1609 27.2621C88.5414 27.0459 88.0646 26.733 87.7303 26.3233C87.3961 25.9137 87.2463 25.4211 87.2809 24.8456C87.3319 24.1428 87.6066 23.6025 88.105 23.2247C88.6111 22.8404 89.2581 22.6768 90.0461 22.734C90.8412 22.7917 91.4697 23.0799 91.9317 23.5988C92.3941 24.1105 92.6171 24.6762 92.6007 25.2958L90.9181 25.1738C90.8602 24.8912 90.7399 24.6791 90.5575 24.5374C90.3751 24.3957 90.1668 24.3164 89.9325 24.2994C89.6699 24.2803 89.453 24.3181 89.282 24.4127C89.111 24.5074 89.0147 24.6538 88.9932 24.8521C88.9717 25.0503 89.0308 25.2188 89.1706 25.3574C89.3175 25.4965 89.5441 25.62 89.8503 25.7278L90.6966 26.0141C91.3161 26.2303 91.7856 26.5463 92.1051 26.962C92.4317 27.3782 92.5736 27.8809 92.5309 28.4701C92.4835 29.1233 92.1953 29.6519 91.6665 30.0559C91.1381 30.4529 90.4728 30.6223 89.6706 30.5641ZM92.6722 31.831L97.4163 23.3973L98.8645 23.5024L94.1204 31.9361L92.6722 31.831Z" fill="white"/>
<path d="M81.0958 7.88494L47.8182 10.4523C47.3663 10.4872 47.0283 10.8818 47.0631 11.3337L49.6305 44.6112C49.6654 45.0631 50.06 45.4012 50.5119 45.3663L83.7894 42.7989C84.2413 42.7641 84.5794 42.3695 84.5445 41.9176L81.9771 8.64005C81.9423 8.18815 81.5477 7.85008 81.0958 7.88494Z" fill="url(#paint8_linear_17268_53800)"/>
<path d="M47.5049 17.0584L82.4189 14.3648L84.5444 41.9147C84.5611 42.1317 84.491 42.3465 84.3494 42.5118C84.2077 42.677 84.0063 42.7793 83.7893 42.796L50.5117 45.3634C50.2947 45.3802 50.0799 45.31 49.9147 45.1684C49.7494 45.0268 49.6471 44.8253 49.6304 44.6083L47.5049 17.0584Z" fill="url(#paint9_linear_17268_53800)"/>
<g filter="url(#filter1_b_17268_53800)">
<circle cx="72.2832" cy="26.4733" r="8.20112" transform="rotate(-38.818 72.2832 26.4733)" fill="url(#paint10_linear_17268_53800)"/>
</g>
<path d="M71.4916 29.1861C70.8612 29.3248 70.3125 29.2535 69.8457 28.9725C69.3788 28.6914 69.0816 28.3091 68.9539 27.8255L70.1664 27.5589C70.2563 27.7736 70.3965 27.9266 70.5871 28.018C70.7817 28.1031 71.001 28.1188 71.2451 28.0651C71.4535 28.0193 71.6118 27.9392 71.7199 27.8248C71.833 27.7093 71.8734 27.5779 71.841 27.4304C71.784 27.1712 71.5045 27.0274 71.0027 26.9992L70.4463 26.9777C69.967 26.9551 69.5675 26.8351 69.2479 26.6176C68.9283 26.4001 68.7206 26.086 68.625 25.6753C68.5143 25.172 68.5943 24.7361 68.865 24.3674C69.1397 23.9926 69.5591 23.7431 70.1234 23.619C70.6928 23.4938 71.1935 23.5649 71.6254 23.8324C72.0561 24.0947 72.3303 24.4448 72.4479 24.8826L71.243 25.1476C71.1435 24.9616 71.0151 24.838 70.8577 24.7766C70.7003 24.7153 70.5377 24.7031 70.37 24.74C70.1819 24.7814 70.0377 24.853 69.9376 24.955C69.8374 25.057 69.8004 25.1797 69.8267 25.3232C69.8529 25.4666 69.9294 25.5724 70.0563 25.6404C70.1883 25.7073 70.3728 25.7467 70.6099 25.7585L71.2628 25.7828C71.7421 25.8053 72.137 25.929 72.4476 26.1538C72.7633 26.3775 72.9676 26.7004 73.0603 27.1223C73.1632 27.59 73.0713 28.0206 72.7848 28.4141C72.4971 28.8025 72.066 29.0598 71.4916 29.1861ZM73.8596 29.4489L75.4281 22.5484L76.4652 22.3204L74.8967 29.2208L73.8596 29.4489Z" fill="white"/>
<path d="M47.5 33.319H124L109.245 77.1746H60.5011L47.5 33.319Z" fill="url(#paint11_linear_17268_53800)"/>
<path d="M110.934 72.2257H110.893L57.8207 69.6413C57.603 69.6413 57.3943 69.5549 57.2404 69.401C57.0865 69.2471 57 69.0383 57 68.8207C57 68.603 57.0865 68.3943 57.2404 68.2404C57.3943 68.0865 57.603 68 57.8207 68L110.934 70.5843C111.045 70.5842 111.155 70.6067 111.258 70.6505C111.36 70.6943 111.452 70.7584 111.529 70.839C111.606 70.9196 111.665 71.015 111.704 71.1194C111.743 71.2237 111.76 71.3349 111.754 71.446C111.744 71.6565 111.653 71.8549 111.5 72C111.347 72.1451 111.144 72.2259 110.934 72.2257Z" fill="url(#paint12_linear_17268_53800)"/>
<path opacity="0.8" d="M81.52 62.33C79.52 62.33 77.77 61.71 76.27 60.47C74.79 59.23 74.01 57.68 73.93 55.82H78.19C78.37 56.54 78.76 57.13 79.36 57.59C79.98 58.05 80.7 58.28 81.52 58.28C82.56 58.28 83.37 57.97 83.95 57.35C84.55 56.71 84.85 55.92 84.85 54.98C84.85 54.02 84.54 53.23 83.92 52.61C83.32 51.99 82.54 51.68 81.58 51.68C80.76 51.68 80.06 51.88 79.48 52.28C78.9 52.68 78.49 53.22 78.25 53.9L74.62 52.79L77.02 40.7H87.4V44.69H80.2L79.39 48.68C80.15 48.2 81.13 47.96 82.33 47.96C84.33 47.96 85.93 48.64 87.13 50C88.35 51.36 88.96 53.13 88.96 55.31C88.96 57.43 88.27 59.13 86.89 60.41C85.53 61.69 83.74 62.33 81.52 62.33ZM98.448 62.33C96.108 62.33 94.198 61.54 92.718 59.96C91.238 58.38 90.498 56.36 90.498 53.9V48.74C90.498 46.3 91.238 44.29 92.718 42.71C94.198 41.13 96.108 40.34 98.448 40.34C100.768 40.34 102.668 41.13 104.148 42.71C105.628 44.29 106.368 46.3 106.368 48.74V53.9C106.368 56.36 105.628 58.38 104.148 59.96C102.668 61.54 100.768 62.33 98.448 62.33ZM95.658 57.11C96.358 57.89 97.288 58.28 98.448 58.28C99.608 58.28 100.528 57.89 101.208 57.11C101.908 56.33 102.258 55.26 102.258 53.9V48.74C102.258 47.38 101.908 46.32 101.208 45.56C100.528 44.78 99.608 44.39 98.448 44.39C97.288 44.39 96.358 44.78 95.658 45.56C94.958 46.32 94.608 47.38 94.608 48.74V53.9C94.608 55.26 94.958 56.33 95.658 57.11Z" fill="#545B7E"/>
<path opacity="0.8" d="M62.744 50.144C61.752 50.144 60.952 49.856 60.344 49.28C59.736 48.704 59.416 48.032 59.384 47.264H61.292C61.356 47.616 61.516 47.892 61.772 48.092C62.036 48.284 62.36 48.38 62.744 48.38C63.072 48.38 63.336 48.312 63.536 48.176C63.744 48.04 63.848 47.856 63.848 47.624C63.848 47.216 63.476 46.908 62.732 46.7L61.904 46.484C61.192 46.292 60.632 45.98 60.224 45.548C59.816 45.116 59.608 44.576 59.6 43.928C59.6 43.136 59.864 42.508 60.392 42.044C60.928 41.572 61.64 41.336 62.528 41.336C63.424 41.336 64.152 41.608 64.712 42.152C65.272 42.688 65.568 43.304 65.6 44H63.704C63.616 43.688 63.464 43.46 63.248 43.316C63.032 43.172 62.792 43.1 62.528 43.1C62.232 43.1 61.992 43.16 61.808 43.28C61.624 43.4 61.528 43.572 61.52 43.796C61.512 44.02 61.592 44.204 61.76 44.348C61.936 44.492 62.2 44.612 62.552 44.708L63.524 44.96C64.236 45.152 64.788 45.468 65.18 45.908C65.58 46.348 65.78 46.9 65.78 47.564C65.78 48.3 65.5 48.916 64.94 49.412C64.38 49.9 63.648 50.144 62.744 50.144ZM66.2118 51.32L70.8438 41.48H72.4758L67.8438 51.32H66.2118Z" fill="#545B7E"/>
<path d="M58.061 85.3192C57.9659 85.3191 57.8715 85.3025 57.782 85.27C57.5779 85.1975 57.4108 85.0472 57.317 84.852C57.2232 84.6568 57.2104 84.4324 57.2814 84.2278L59.8173 77.1454C59.8898 76.9413 60.04 76.7742 60.2352 76.6804C60.4305 76.5866 60.6549 76.5738 60.8595 76.6448C60.9615 76.6807 61.0554 76.7363 61.1359 76.8086C61.2163 76.8809 61.2816 76.9684 61.3282 77.066C61.3747 77.1636 61.4015 77.2694 61.4069 77.3774C61.4124 77.4854 61.3965 77.5934 61.3601 77.6953L58.8325 84.7776C58.7751 84.9362 58.6703 85.0733 58.5323 85.1702C58.3942 85.2671 58.2297 85.3192 58.061 85.3192Z" fill="#979DBA"/>
<path d="M108.991 78.2449H60.5723C60.3903 78.2527 60.2108 78.1997 60.0622 78.0942C59.9136 77.9887 59.8043 77.8367 59.7517 77.6623L46.2733 33.3034C46.2351 33.1779 46.2276 33.0451 46.2514 32.9161C46.2751 32.787 46.3295 32.6656 46.4099 32.5619C46.4902 32.4582 46.5943 32.3753 46.7133 32.3201C46.8324 32.2649 46.9629 32.2391 47.094 32.2448L124.5 32.3201C124.624 32.331 124.744 32.3699 124.85 32.4339C124.957 32.4979 125.048 32.5853 125.116 32.6894C125.184 32.7937 125.228 32.9123 125.243 33.036C125.259 33.1597 125.246 33.2853 125.206 33.4034L109.746 77.6869C109.693 77.846 109.592 77.9848 109.457 78.0845C109.322 78.1843 109.159 78.2403 108.991 78.2449ZM61.196 76.6036H108.409L123.343 33.8466L48.1936 33.9764L61.196 76.6036Z" fill="url(#paint13_linear_17268_53800)"/>
<defs>
<filter id="filter0_b_17268_53800" x="59.0398" y="-6.82659" width="65.3428" height="65.3428" filterUnits="userSpaceOnUse" color-interpolation-filters="sRGB">
<feFlood flood-opacity="0" result="BackgroundImageFix"/>
<feGaussianBlur in="BackgroundImageFix" stdDeviation="10.727"/>
<feComposite in2="SourceAlpha" operator="in" result="effect1_backgroundBlur_17268_53800"/>
<feBlend mode="normal" in="SourceGraphic" in2="effect1_backgroundBlur_17268_53800" result="shape"/>
</filter>
<filter id="filter1_b_17268_53800" x="48.3924" y="2.58252" width="47.7816" height="47.7816" filterUnits="userSpaceOnUse" color-interpolation-filters="sRGB">
<feFlood flood-opacity="0" result="BackgroundImageFix"/>
<feGaussianBlur in="BackgroundImageFix" stdDeviation="7.8447"/>
<feComposite in2="SourceAlpha" operator="in" result="effect1_backgroundBlur_17268_53800"/>
<feBlend mode="normal" in="SourceGraphic" in2="effect1_backgroundBlur_17268_53800" result="shape"/>
</filter>
<linearGradient id="paint0_linear_17268_53800" x1="82.0678" y1="63.7076" x2="81.4996" y2="125.175" gradientUnits="userSpaceOnUse">
<stop stop-color="white" stop-opacity="0"/>
<stop offset="1" stop-color="#D8DBE5"/>
</linearGradient>
<linearGradient id="paint1_linear_17268_53800" x1="98.8807" y1="92.7371" x2="116.394" y2="92.7371" gradientUnits="userSpaceOnUse">
<stop stop-color="#979DBA"/>
<stop offset="1" stop-color="#D1D4E0"/>
</linearGradient>
<linearGradient id="paint2_linear_17268_53800" x1="46.3586" y1="92.7371" x2="63.8716" y2="92.7371" gradientUnits="userSpaceOnUse">
<stop stop-color="#979DBA"/>
<stop offset="1" stop-color="#D1D4E0"/>
</linearGradient>
<linearGradient id="paint3_linear_17268_53800" x1="98.8807" y1="94.9302" x2="116.394" y2="94.9302" gradientUnits="userSpaceOnUse">
<stop stop-color="#979DBA"/>
<stop offset="1" stop-color="#D1D4E0"/>
</linearGradient>
<linearGradient id="paint4_linear_17268_53800" x1="46.3586" y1="94.9302" x2="63.8716" y2="94.9302" gradientUnits="userSpaceOnUse">
<stop stop-color="#979DBA"/>
<stop offset="1" stop-color="#D1D4E0"/>
</linearGradient>
<linearGradient id="paint5_linear_17268_53800" x1="75.3782" y1="32.2659" x2="116.274" y2="24.7345" gradientUnits="userSpaceOnUse">
<stop stop-color="#D1D4E0"/>
<stop offset="1" stop-color="#F0F1F5"/>
</linearGradient>
<linearGradient id="paint6_linear_17268_53800" x1="75.7737" y1="34.4137" x2="116.669" y2="26.8824" gradientUnits="userSpaceOnUse">
<stop stop-color="#D1D4E0"/>
<stop offset="1" stop-color="#F0F1F5"/>
</linearGradient>
<linearGradient id="paint7_linear_17268_53800" x1="80.4968" y1="25.8448" x2="102.926" y2="25.8448" gradientUnits="userSpaceOnUse">
<stop stop-color="#0D1332"/>
<stop offset="1" stop-color="#545B7E"/>
</linearGradient>
<linearGradient id="paint8_linear_17268_53800" x1="48.3468" y1="27.9724" x2="83.2608" y2="25.2788" gradientUnits="userSpaceOnUse">
<stop stop-color="#D1D4E0"/>
<stop offset="1" stop-color="#F0F1F5"/>
</linearGradient>
<linearGradient id="paint9_linear_17268_53800" x1="48.5992" y1="31.2425" x2="83.5132" y2="28.5489" gradientUnits="userSpaceOnUse">
<stop stop-color="#D1D4E0"/>
<stop offset="1" stop-color="#F0F1F5"/>
</linearGradient>
<linearGradient id="paint10_linear_17268_53800" x1="64.0821" y1="26.4733" x2="80.4844" y2="26.4733" gradientUnits="userSpaceOnUse">
<stop stop-color="#0D1332"/>
<stop offset="1" stop-color="#545B7E"/>
</linearGradient>
<linearGradient id="paint11_linear_17268_53800" x1="47.5" y1="55.2468" x2="124" y2="55.2468" gradientUnits="userSpaceOnUse">
<stop stop-color="#D1D4E0"/>
<stop offset="1" stop-color="#F0F1F5"/>
</linearGradient>
<linearGradient id="paint12_linear_17268_53800" x1="57" y1="70.1128" x2="111.755" y2="70.1128" gradientUnits="userSpaceOnUse">
<stop stop-color="#979DBA"/>
<stop offset="1" stop-color="#D1D4E0"/>
</linearGradient>
<linearGradient id="paint13_linear_17268_53800" x1="46.2378" y1="55.2449" x2="125.25" y2="55.2449" gradientUnits="userSpaceOnUse">
<stop stop-color="#979DBA"/>
<stop offset="1" stop-color="#D1D4E0"/>
</linearGradient>
</defs>
</svg>
