<svg width="164" height="100" viewBox="0 0 164 100" fill="none" xmlns="http://www.w3.org/2000/svg">
<ellipse cx="81.6879" cy="71.0841" rx="81.6879" ry="28.0349" fill="url(#paint0_linear_17268_54314)"/>
<path d="M58.2441 0C56.0388 0 54.0723 1.47177 53.4492 3.58789C53.4492 3.58854 53.4492 3.58919 53.4492 3.58984L51.8574 9H45.1113C44.8929 9.00016 44.6805 9.07185 44.5066 9.20411C44.3327 9.33637 44.2069 9.52193 44.1484 9.73242L43.2402 13H34.5C32.5788 13 31 14.5788 31 16.5C31 17.9123 31.857 19.1325 33.0723 19.6836L40.0059 79.1152C40.0137 79.181 40.0281 79.2457 40.0488 79.3086C40.0488 79.3092 40.0488 79.3099 40.0488 79.3105C40.059 79.3417 40.0708 79.3723 40.084 79.4023C40.084 79.403 40.084 79.4036 40.084 79.4043C40.1108 79.4647 40.1435 79.5222 40.1816 79.5762C40.1823 79.5768 40.1829 79.5775 40.1836 79.5781C40.2025 79.6045 40.2227 79.6299 40.2441 79.6543C40.2441 79.6549 40.2441 79.6556 40.2441 79.6562C40.2652 79.6801 40.2873 79.7029 40.3105 79.7246C40.3112 79.7253 40.3118 79.7259 40.3125 79.7266C40.3132 79.7272 40.3138 79.7279 40.3145 79.7285C40.3382 79.7505 40.3629 79.7714 40.3887 79.791C40.3893 79.7917 40.39 79.7923 40.3906 79.793C40.3984 79.7983 40.4062 79.8035 40.4141 79.8086C40.4325 79.8229 40.4514 79.8366 40.4707 79.8496C40.4714 79.8496 40.472 79.8496 40.4727 79.8496C40.5005 79.8666 40.5292 79.8823 40.5586 79.8965C40.5592 79.8971 40.5599 79.8978 40.5605 79.8984C40.5773 79.9061 40.5942 79.9132 40.6113 79.9199C40.6242 79.9261 40.6372 79.9319 40.6504 79.9375C40.651 79.9375 40.6517 79.9375 40.6523 79.9375C40.7636 79.9788 40.8813 80 41 80H67C67.1505 80.0001 67.2991 79.9663 67.4347 79.9011C67.5703 79.8358 67.6894 79.7408 67.7832 79.623C67.7832 79.6224 67.7832 79.6217 67.7832 79.6211C67.804 79.5954 67.8236 79.5687 67.8418 79.541C67.8776 79.4849 67.9077 79.4254 67.9316 79.3633C67.9632 79.283 67.9842 79.199 67.9941 79.1133L74.9277 19.6836C76.143 19.1325 77 17.9123 77 16.5C77 14.5788 75.4212 13 73.5 13H64.7598L63.8516 9.73242C63.7931 9.52193 63.6673 9.33637 63.4934 9.20411C63.3195 9.07185 63.1071 9.00016 62.8887 9H56.0254L57.2852 4.7168C57.4091 4.29649 57.806 4 58.2441 4H72.5C72.6326 3.99999 72.7598 3.9473 72.8535 3.85354C72.9473 3.75977 73 3.6326 73 3.5V0.5C73 0.367396 72.9473 0.240227 72.8535 0.146461C72.7598 0.0526962 72.6326 1.32584e-05 72.5 0H58.2441ZM59 1H61V3H59V1ZM62 1H72V3H62V1ZM58 1.08203V3.08203C57.6588 3.12826 57.3174 3.19795 57.0488 3.39844H57.0469L55.5664 2.21289C56.2355 1.56915 57.0472 1.14731 58 1.08203ZM54.9922 3.03516L56.4746 4.2207C56.438 4.30203 56.3519 4.34638 56.3262 4.43359C56.3262 4.43424 56.3262 4.4349 56.3262 4.43555L56.1602 5H54.0762L54.4082 3.87109C54.5086 3.53004 54.8107 3.32941 54.9922 3.03516ZM53.7812 6H55.8652L54.9824 9H52.8984L53.7812 6ZM45.8711 11H62.1289L62.6855 13H45.3145L45.8711 11ZM34.5 15H43.959H64H73.5C74.3408 15 75 15.6592 75 16.5C75 17.3408 74.3408 18 73.5 18H34.5C33.6592 18 33 17.3408 33 16.5C33 15.6592 33.6592 15 34.5 15ZM35.1289 20H72.8711L69.707 46.0996C69.707 46.1022 69.707 46.1048 69.707 46.1074L68.5762 56.1582L66.1074 78H41.8926L41.5527 75H55.5C55.5663 75.0009 55.632 74.9887 55.6935 74.964C55.755 74.9393 55.811 74.9026 55.8582 74.8561C55.9053 74.8096 55.9428 74.7541 55.9684 74.693C55.9939 74.6319 56.0071 74.5663 56.0071 74.5C56.0071 74.4337 55.9939 74.3681 55.9684 74.307C55.9428 74.2459 55.9053 74.1904 55.8582 74.1439C55.811 74.0974 55.755 74.0607 55.6935 74.036C55.632 74.0113 55.5663 73.9991 55.5 74H41.4414L39.4238 56.1582L38.293 46.1074C38.293 46.1048 38.293 46.1022 38.293 46.0996L35.1289 20ZM57.5 74C57.4337 73.9991 57.368 74.0113 57.3065 74.036C57.245 74.0607 57.189 74.0974 57.1418 74.1439C57.0947 74.1904 57.0572 74.2459 57.0316 74.307C57.0061 74.3681 56.9929 74.4337 56.9929 74.5C56.9929 74.5663 57.0061 74.6319 57.0316 74.693C57.0572 74.7541 57.0947 74.8096 57.1418 74.8561C57.189 74.9026 57.245 74.9393 57.3065 74.964C57.368 74.9887 57.4337 75.0009 57.5 75H60.5C60.5663 75.0009 60.632 74.9887 60.6935 74.964C60.755 74.9393 60.811 74.9026 60.8582 74.8561C60.9053 74.8096 60.9428 74.7541 60.9684 74.693C60.9939 74.6319 61.0071 74.5663 61.0071 74.5C61.0071 74.4337 60.9939 74.3681 60.9684 74.307C60.9428 74.2459 60.9053 74.1904 60.8582 74.1439C60.811 74.0974 60.755 74.0607 60.6935 74.036C60.632 74.0113 60.5663 73.9991 60.5 74H57.5ZM62.5 74C62.4337 73.9991 62.368 74.0113 62.3065 74.036C62.245 74.0607 62.189 74.0974 62.1418 74.1439C62.0947 74.1904 62.0572 74.2459 62.0316 74.307C62.0061 74.3681 61.9929 74.4337 61.9929 74.5C61.9929 74.5663 62.0061 74.6319 62.0316 74.693C62.0572 74.7541 62.0947 74.8096 62.1418 74.8561C62.189 74.9026 62.245 74.9393 62.3065 74.964C62.368 74.9887 62.4337 75.0009 62.5 75H63.5C63.5663 75.0009 63.632 74.9887 63.6935 74.964C63.755 74.9393 63.811 74.9026 63.8582 74.8561C63.9053 74.8096 63.9428 74.7541 63.9684 74.693C63.9939 74.6319 64.0071 74.5663 64.0071 74.5C64.0071 74.4337 63.9939 74.3681 63.9684 74.307C63.9428 74.2459 63.9053 74.1904 63.8582 74.1439C63.811 74.0974 63.755 74.0607 63.6935 74.036C63.632 74.0113 63.5663 73.9991 63.5 74H62.5Z" fill="url(#paint1_linear_17268_54314)"/>
<path d="M83.3011 21.2656C80.979 21.2656 79.0665 23.0543 78.87 25.3271C76.5972 25.5236 74.8085 27.4361 74.8085 29.7582C74.8085 32.2113 76.8039 34.2067 79.257 34.2067C80.3109 34.2067 81.3085 33.8432 82.1068 33.1735L85.9171 36.9901C85.0266 38.6806 84.5143 40.6247 84.5143 42.6961C84.5143 43.3771 84.59 44.0524 84.6992 44.7213H79.6614C79.655 44.7213 79.6505 44.7252 79.6441 44.726C79.5745 44.7276 79.5098 44.7477 79.4434 44.7671C79.4062 44.7776 79.3661 44.7786 79.3313 44.794C79.2342 44.8368 79.1458 44.8996 79.0722 44.9772C79.0714 44.978 79.0699 44.978 79.069 44.9788C79.0456 45.0039 79.0363 45.0389 79.0169 45.0672C78.9757 45.1247 78.9306 45.1778 78.9048 45.2473L74.0519 58.1884C73.8949 58.6066 74.106 59.0717 74.5242 59.2294C74.618 59.2626 74.7139 59.28 74.8085 59.28C75.1361 59.28 75.4447 59.0798 75.5668 58.7555L79.118 49.2819L80.96 75.0503C81.1703 77.9984 83.6512 80.3092 86.6075 80.3092H116.391C119.348 80.3092 121.829 77.9984 122.039 75.0503L123.881 49.2819L127.432 58.7555C127.554 59.0798 127.863 59.28 128.19 59.28C128.285 59.28 128.381 59.2626 128.475 59.2278C128.893 59.0709 129.105 58.605 128.949 58.1868L124.096 45.2458C124.069 45.1754 124.023 45.1207 123.98 45.0625C123.961 45.0358 123.953 45.003 123.93 44.9788C123.929 44.978 123.928 44.9764 123.927 44.9756C123.853 44.8972 123.764 44.8361 123.668 44.7924C123.632 44.777 123.593 44.776 123.556 44.7655C123.489 44.7469 123.424 44.7269 123.355 44.7245C123.348 44.7253 123.344 44.7213 123.338 44.7213H120.05C119.909 41.7715 118.92 39.0573 117.327 36.829L120.086 33.9855C120.884 34.652 121.881 35.0155 122.933 35.0155C125.386 35.0155 127.382 33.0201 127.382 30.567C127.382 28.2449 125.593 26.3324 123.32 26.1359C123.124 23.8631 121.211 22.0744 118.889 22.0744C116.436 22.0744 114.441 24.0698 114.441 26.5229C114.441 27.5841 114.811 28.5894 115.489 29.3901L112.592 32.6127C110.673 31.5702 108.496 30.9714 106.187 30.9714C104.221 30.9714 102.295 31.4158 100.526 32.2384C98.9937 31.4158 97.281 30.9714 95.5534 30.9714C93.7166 30.9714 91.9874 31.4571 90.462 32.3031L86.7149 28.5655C87.3854 27.7664 87.7496 26.7688 87.7496 25.7141C87.7496 23.261 85.7543 21.2656 83.3011 21.2656ZM83.3011 22.0744C85.3078 22.0744 86.9408 23.7074 86.9408 25.7141C86.9408 26.6887 86.5613 27.6031 85.8697 28.2922C85.7937 28.3682 85.7497 28.4722 85.7497 28.5797C85.7497 28.6873 85.7937 28.7896 85.8697 28.8657L89.7527 32.7391C88.3874 33.6393 87.2182 34.84 86.3342 36.2635L82.407 32.3284C82.2549 32.1763 81.9848 32.1763 81.8336 32.3284C81.1453 33.0183 80.2308 33.3979 79.257 33.3979C77.2504 33.3979 75.6174 31.7649 75.6174 29.7582C75.6174 27.7515 77.2504 26.1185 79.257 26.1185C79.4803 26.1185 79.6614 25.9373 79.6614 25.7141C79.6614 23.7074 81.2944 22.0744 83.3011 22.0744ZM118.889 22.8833C120.896 22.8833 122.529 24.5163 122.529 26.5229C122.529 26.7462 122.71 26.9273 122.933 26.9273C124.94 26.9273 126.573 28.5603 126.573 30.567C126.573 32.5737 124.94 34.2067 122.933 34.2067C121.959 34.2067 121.045 33.8271 120.357 33.1372C120.281 33.0612 120.178 33.0172 120.071 33.0172C119.932 33.0034 119.856 33.0619 119.78 33.1404L116.842 36.1687C115.843 34.9264 114.641 33.8717 113.3 33.0345L116.336 29.6587C116.48 29.4985 116.473 29.2523 116.32 29.101C115.63 28.4119 115.249 27.4976 115.249 26.5229C115.249 24.5163 116.882 22.8833 118.889 22.8833ZM95.5534 31.7802C96.9575 31.7802 98.3456 32.1083 99.6259 32.7012C98.7629 33.1825 97.9415 33.7495 97.1868 34.4184C97.0194 34.5664 97.0048 34.8212 97.1537 34.9886C97.3017 35.1561 97.5565 35.1714 97.7239 35.0234C100.083 32.9318 103.088 31.7802 106.187 31.7802C113.17 31.7802 118.877 37.5236 119.241 44.7213H85.519C85.4018 44.054 85.3232 43.3779 85.3232 42.6961C85.3232 36.6769 89.9127 31.7802 95.5534 31.7802ZM81.1764 46.3389H121.823L119.102 55.3133C118.53 57.2027 116.818 58.4712 114.845 58.4712H88.154C86.1805 58.4712 84.4693 57.2027 83.8967 55.3133L81.1764 46.3389ZM80.5919 47.1936L83.1226 55.5471C83.7988 57.7802 85.8214 59.28 88.154 59.28H114.845C117.178 59.28 119.199 57.7802 119.876 55.5471L122.409 47.1936L120.426 74.935C120.276 77.0412 118.503 78.6916 116.391 78.6916H86.6075C84.4956 78.6916 82.7225 77.0412 82.5729 74.935L80.5919 47.1936ZM84.8903 66.5609C84.6679 66.5771 84.4997 66.7689 84.5159 66.9922L84.6312 68.6098C84.6458 68.8225 84.823 68.9858 85.0341 68.9858C85.043 68.9858 85.0528 68.985 85.0625 68.9842C85.2849 68.968 85.4523 68.7762 85.4369 68.5529L85.3216 66.9353C85.3054 66.7129 85.1152 66.5399 84.8903 66.5609ZM85.1778 70.605C84.9554 70.6212 84.7881 70.813 84.8034 71.0362L84.8982 72.3664C85.0535 74.5526 86.8833 76.2651 89.0655 76.2651H103.479C103.702 76.2651 103.883 76.0839 103.883 75.8607C103.883 75.6375 103.703 75.4563 103.479 75.4563H89.0655C87.3063 75.4563 85.8292 74.0736 85.7039 72.3079L85.6091 70.9794C85.5929 70.757 85.4075 70.5815 85.1778 70.605ZM105.905 75.4563C105.682 75.4563 105.501 75.6375 105.501 75.8607C105.501 76.0839 105.682 76.2651 105.905 76.2651H108.332C108.555 76.2651 108.736 76.0839 108.736 75.8607C108.736 75.6375 108.556 75.4563 108.332 75.4563H105.905ZM110.758 75.4563C110.535 75.4563 110.354 75.6375 110.354 75.8607C110.354 76.0839 110.535 76.2651 110.758 76.2651H112.418C112.642 76.2651 112.823 76.0839 112.823 75.8607C112.823 75.6375 112.642 75.4563 112.418 75.4563H110.758Z" fill="url(#paint2_linear_17268_54314)"/>
<defs>
<linearGradient id="paint0_linear_17268_54314" x1="82.0678" y1="47.7074" x2="81.4996" y2="109.175" gradientUnits="userSpaceOnUse">
<stop stop-color="white" stop-opacity="0"/>
<stop offset="1" stop-color="#D8DBE5"/>
</linearGradient>
<linearGradient id="paint1_linear_17268_54314" x1="31" y1="40" x2="77" y2="40" gradientUnits="userSpaceOnUse">
<stop stop-color="#545B7E"/>
<stop offset="1" stop-color="#979DBA"/>
</linearGradient>
<linearGradient id="paint2_linear_17268_54314" x1="74" y1="50.7874" x2="129" y2="50.7874" gradientUnits="userSpaceOnUse">
<stop stop-color="#545B7E"/>
<stop offset="1" stop-color="#979DBA"/>
</linearGradient>
</defs>
</svg>
