<svg width="164" height="111" viewBox="0 0 164 111" fill="none" xmlns="http://www.w3.org/2000/svg">
<ellipse cx="81.6879" cy="82.0843" rx="81.6879" ry="28.0349" fill="url(#paint0_linear_17268_53955)"/>
<path d="M66.3558 50.6553H33.6956V90.738H66.3558V50.6553Z" fill="url(#paint1_linear_17268_53955)"/>
<path d="M66.3907 91.4336H33.6956C33.5111 91.4336 33.3342 91.3603 33.2037 91.2299C33.0733 91.0994 33 90.9225 33 90.738V50.6553C33 50.4708 33.0733 50.2938 33.2037 50.1634C33.3342 50.0329 33.5111 49.9596 33.6956 49.9596H66.3907C66.5752 49.9596 66.7521 50.0329 66.8826 50.1634C67.013 50.2938 67.0863 50.4708 67.0863 50.6553V90.738C67.0863 90.9225 67.013 91.0994 66.8826 91.2299C66.7521 91.3603 66.5752 91.4336 66.3907 91.4336ZM34.3913 90.0423H65.695V51.3509H34.3913V90.0423Z" fill="#979DBA"/>
<path d="M44.4573 57.3466C44.4573 57.8614 44.3045 58.3647 44.0183 58.7927C43.7321 59.2207 43.3254 59.5542 42.8496 59.7509C42.3738 59.9476 41.8503 59.9987 41.3455 59.8977C40.8406 59.7968 40.377 59.5483 40.0135 59.1838C39.6499 58.8192 39.4027 58.355 39.3031 57.8499C39.2035 57.3447 39.256 56.8214 39.454 56.3461C39.6519 55.8708 39.9865 55.465 40.4152 55.18C40.844 54.8949 41.3477 54.7435 41.8626 54.7449C42.2039 54.7449 42.5419 54.8122 42.8571 54.9431C43.1724 55.0739 43.4587 55.2656 43.6998 55.5073C43.9408 55.749 44.1318 56.0359 44.2618 56.3515C44.3918 56.6671 44.4582 57.0052 44.4573 57.3466Z" fill="#545B7E"/>
<path d="M60.415 57.3459C60.415 57.7862 60.2844 58.2165 60.0398 58.5826C59.7952 58.9487 59.4476 59.234 59.0408 59.4025C58.634 59.571 58.1865 59.615 57.7547 59.5292C57.3228 59.4433 56.9262 59.2313 56.6149 58.9199C56.3036 58.6086 56.0916 58.212 56.0057 57.7802C55.9198 57.3484 55.9639 56.9008 56.1323 56.494C56.3008 56.0873 56.5861 55.7396 56.9522 55.495C57.3183 55.2504 57.7487 55.1198 58.1889 55.1198C58.7793 55.1198 59.3455 55.3544 59.763 55.7718C60.1805 56.1893 60.415 56.7555 60.415 57.3459Z" fill="#A09CAD"/>
<path d="M58.1893 57.2914C58.0048 57.2914 57.8278 57.2181 57.6974 57.0877C57.5669 56.9572 57.4936 56.7803 57.4936 56.5958V46.2169C57.4918 44.4334 56.7825 42.7234 55.5214 41.4623C54.2602 40.2012 52.5503 39.4919 50.7668 39.49H49.2851C47.5016 39.4919 45.7917 40.2012 44.5305 41.4623C43.2694 42.7234 42.5601 44.4334 42.5583 46.2169V56.6097C42.5583 56.7942 42.485 56.9711 42.3545 57.1016C42.2241 57.2321 42.0471 57.3053 41.8626 57.3053C41.6781 57.3053 41.5012 57.2321 41.3707 57.1016C41.2403 56.9711 41.167 56.7942 41.167 56.6097V46.2169C41.1661 45.1499 41.3753 44.0931 41.7828 43.107C42.1903 42.1209 42.788 41.2247 43.5419 40.4695C44.2957 39.7144 45.1909 39.1152 46.1763 38.706C47.1617 38.2968 48.2181 38.0858 49.2851 38.0848H50.7668C52.9211 38.0885 54.986 38.9469 56.508 40.4716C58.0301 41.9962 58.8849 44.0625 58.8849 46.2169V56.6097C58.8813 56.7918 58.8064 56.9652 58.6763 57.0926C58.5463 57.2201 58.3714 57.2915 58.1893 57.2914Z" fill="#545B7E"/>
<path d="M112.372 30.5702C112.188 30.5702 112.011 30.4969 111.881 30.3665C111.75 30.236 111.677 30.0591 111.677 29.8746V13.5201C111.66 10.5612 110.473 7.72931 108.374 5.64357C106.275 3.55783 103.436 2.388 100.477 2.38988H88.6511C85.6898 2.38431 82.847 3.55252 80.7452 5.63865C78.6434 7.72479 77.454 10.5588 77.4374 13.5201V29.8746C77.4374 30.0591 77.3641 30.236 77.2337 30.3665C77.1032 30.4969 76.9263 30.5702 76.7418 30.5702C76.5573 30.5702 76.3803 30.4969 76.2499 30.3665C76.1194 30.236 76.0461 30.0591 76.0461 29.8746V13.5201C76.0645 10.1904 77.4011 7.00356 79.7634 4.65691C82.1257 2.31025 85.3214 0.994874 88.6511 0.998604H100.477C103.804 0.998553 106.996 2.31556 109.356 4.66181C111.715 7.00807 113.05 10.1928 113.068 13.5201V29.8746C113.068 30.0591 112.995 30.236 112.864 30.3665C112.734 30.4969 112.557 30.5702 112.372 30.5702Z" fill="#979DBA"/>
<path d="M115.332 20.4384H55.9519V90.9484H115.332V20.4384Z" fill="url(#paint2_linear_17268_53955)"/>
<path opacity="0.8" d="M81.656 73.4898C79.3893 73.4898 77.406 72.7871 75.706 71.3818C74.0287 69.9765 73.1447 68.2198 73.054 66.1118H77.882C78.086 66.9278 78.528 67.5965 79.208 68.1178C79.9107 68.6391 80.7267 68.8998 81.656 68.8998C82.8347 68.8998 83.7527 68.5485 84.41 67.8458C85.09 67.1205 85.43 66.2251 85.43 65.1598C85.43 64.0718 85.0787 63.1764 84.376 62.4738C83.696 61.7711 82.812 61.4198 81.724 61.4198C80.7947 61.4198 80.0013 61.6465 79.344 62.0998C78.6867 62.5531 78.222 63.1651 77.95 63.9358L73.836 62.6778L76.556 48.9758H88.32V53.4978H80.16L79.242 58.0198C80.1033 57.4758 81.214 57.2038 82.574 57.2038C84.8407 57.2038 86.654 57.9744 88.014 59.5158C89.3967 61.0571 90.088 63.0631 90.088 65.5338C90.088 67.9365 89.306 69.8631 87.742 71.3138C86.2007 72.7645 84.172 73.4898 81.656 73.4898ZM100.841 73.4898C98.189 73.4898 96.0244 72.5945 94.347 70.8038C92.6697 69.0131 91.831 66.7238 91.831 63.9358V58.0878C91.831 55.3224 92.6697 53.0445 94.347 51.2538C96.0244 49.4631 98.189 48.5678 100.841 48.5678C103.47 48.5678 105.624 49.4631 107.301 51.2538C108.978 53.0445 109.817 55.3224 109.817 58.0878V63.9358C109.817 66.7238 108.978 69.0131 107.301 70.8038C105.624 72.5945 103.47 73.4898 100.841 73.4898ZM97.679 67.5738C98.4724 68.4578 99.5264 68.8998 100.841 68.8998C102.156 68.8998 103.198 68.4578 103.969 67.5738C104.762 66.6898 105.159 65.4771 105.159 63.9358V58.0878C105.159 56.5464 104.762 55.3451 103.969 54.4838C103.198 53.5998 102.156 53.1578 100.841 53.1578C99.5264 53.1578 98.4724 53.5998 97.679 54.4838C96.8857 55.3451 96.489 56.5464 96.489 58.0878V63.9358C96.489 65.4771 96.8857 66.6898 97.679 67.5738Z" fill="#545B7E"/>
<path opacity="0.8" d="M63.744 58.2598C62.752 58.2598 61.952 57.9718 61.344 57.3958C60.736 56.8198 60.416 56.1478 60.384 55.3798H62.292C62.356 55.7318 62.516 56.0078 62.772 56.2078C63.036 56.3998 63.36 56.4958 63.744 56.4958C64.072 56.4958 64.336 56.4278 64.536 56.2918C64.744 56.1558 64.848 55.9718 64.848 55.7398C64.848 55.3318 64.476 55.0238 63.732 54.8158L62.904 54.5998C62.192 54.4078 61.632 54.0958 61.224 53.6638C60.816 53.2318 60.608 52.6918 60.6 52.0438C60.6 51.2518 60.864 50.6238 61.392 50.1598C61.928 49.6878 62.64 49.4518 63.528 49.4518C64.424 49.4518 65.152 49.7238 65.712 50.2678C66.272 50.8038 66.568 51.4198 66.6 52.1158H64.704C64.616 51.8038 64.464 51.5758 64.248 51.4318C64.032 51.2878 63.792 51.2158 63.528 51.2158C63.232 51.2158 62.992 51.2758 62.808 51.3958C62.624 51.5158 62.528 51.6878 62.52 51.9118C62.512 52.1358 62.592 52.3198 62.76 52.4638C62.936 52.6078 63.2 52.7278 63.552 52.8238L64.524 53.0758C65.236 53.2678 65.788 53.5838 66.18 54.0238C66.58 54.4638 66.78 55.0158 66.78 55.6798C66.78 56.4158 66.5 57.0318 65.94 57.5278C65.38 58.0158 64.648 58.2598 63.744 58.2598ZM67.2118 59.4358L71.8438 49.5958H73.4758L68.8438 59.4358H67.2118Z" fill="#545B7E"/>
<path d="M125.52 51.3976C125.52 50.9574 125.651 50.527 125.895 50.1609C126.14 49.7949 126.487 49.5095 126.894 49.341C127.301 49.1726 127.749 49.1285 128.18 49.2144C128.612 49.3003 129.009 49.5123 129.32 49.8236C129.631 50.1349 129.843 50.5316 129.929 50.9634C130.015 51.3952 129.971 51.8428 129.803 52.2495C129.634 52.6563 129.349 53.0039 128.983 53.2485C128.617 53.4931 128.186 53.6237 127.746 53.6237C127.156 53.6237 126.589 53.3892 126.172 52.9717C125.755 52.5542 125.52 51.988 125.52 51.3976Z" fill="#A09CAD"/>
<path d="M130.188 20.2265H115.343V90.7365H130.188V20.2265Z" fill="#D1D4E0"/>
<path d="M99.7006 91.644H56.6475C56.463 91.644 56.2861 91.5707 56.1557 91.4403C56.0252 91.3098 55.9519 91.1329 55.9519 90.9484V20.4384C55.9519 20.2539 56.0252 20.077 56.1557 19.9465C56.2861 19.8161 56.463 19.7428 56.6475 19.7428H68.5291C68.7136 19.7428 68.8905 19.8161 69.0209 19.9465C69.1514 20.077 69.2247 20.2539 69.2247 20.4384C69.2247 20.6229 69.1514 20.7999 69.0209 20.9303C68.8905 21.0608 68.7136 21.1341 68.5291 21.1341H57.3432V90.2528H99.7006C99.8851 90.2528 100.062 90.326 100.193 90.4565C100.323 90.587 100.396 90.7639 100.396 90.9484C100.396 91.1329 100.323 91.3098 100.193 91.4403C100.062 91.5707 99.8851 91.644 99.7006 91.644Z" fill="#979DBA"/>
<path d="M115.343 91.4321H103.462C103.277 91.4321 103.1 91.3588 102.97 91.2283C102.839 91.0979 102.766 90.921 102.766 90.7365C102.766 90.552 102.839 90.375 102.97 90.2446C103.1 90.1141 103.277 90.0408 103.462 90.0408H114.648V20.9221H72.2901C72.1056 20.9221 71.9287 20.8488 71.7982 20.7184C71.6678 20.5879 71.5945 20.411 71.5945 20.2265C71.5945 20.042 71.6678 19.8651 71.7982 19.7346C71.9287 19.6041 72.1056 19.5309 72.2901 19.5309H115.343C115.528 19.5309 115.705 19.6041 115.835 19.7346C115.966 19.8651 116.039 20.042 116.039 20.2265V90.7365C116.039 90.921 115.966 91.0979 115.835 91.2283C115.705 91.3588 115.528 91.4321 115.343 91.4321Z" fill="#979DBA"/>
<path d="M130.188 90.7365H115.343V20.2265L122.765 26.9046L130.188 20.2265V90.7365Z" fill="url(#paint3_linear_17268_53955)"/>
<path d="M130.188 91.4321H115.343C115.158 91.4321 114.981 91.3588 114.851 91.2284C114.721 91.0979 114.647 90.921 114.647 90.7365V20.2265C114.646 20.0915 114.684 19.9591 114.757 19.8455C114.83 19.7318 114.935 19.6419 115.058 19.5865C115.181 19.5312 115.317 19.5129 115.451 19.5339C115.584 19.5549 115.709 19.6143 115.809 19.7048L122.765 25.9655L129.722 19.7048C129.821 19.6156 129.944 19.5571 130.076 19.5361C130.209 19.5151 130.344 19.5326 130.466 19.5865C130.591 19.6408 130.696 19.7304 130.77 19.8441C130.845 19.9578 130.884 20.0907 130.883 20.2265V34.3271C130.883 34.5116 130.81 34.6885 130.68 34.819C130.549 34.9494 130.372 35.0227 130.188 35.0227C130.003 35.0227 129.826 34.9494 129.696 34.819C129.565 34.6885 129.492 34.5116 129.492 34.3271V21.8056L123.231 27.4403C123.104 27.5556 122.938 27.6195 122.765 27.6195C122.593 27.6195 122.427 27.5556 122.299 27.4403L116.039 21.8056V90.0408H129.492V38.7792C129.492 38.5947 129.565 38.4178 129.696 38.2873C129.826 38.1568 130.003 38.0836 130.188 38.0836C130.372 38.0836 130.549 38.1568 130.68 38.2873C130.81 38.4178 130.883 38.5947 130.883 38.7792V90.7365C130.883 90.921 130.81 91.0979 130.68 91.2284C130.549 91.3588 130.372 91.4321 130.188 91.4321Z" fill="#979DBA"/>
<path d="M72.2894 31.3578C72.2894 32.2383 72.0283 33.0991 71.5391 33.8312C71.0499 34.5634 70.3546 35.134 69.5411 35.471C68.7276 35.808 67.8324 35.8961 66.9688 35.7243C66.1052 35.5526 65.3119 35.1285 64.6892 34.5059C64.0666 33.8833 63.6426 33.09 63.4708 32.2264C63.299 31.3627 63.3872 30.4676 63.7242 29.6541C64.0611 28.8405 64.6318 28.1452 65.3639 27.656C66.096 27.1668 66.9568 26.9057 67.8373 26.9057C68.4223 26.9048 69.0016 27.0193 69.5422 27.2427C70.0827 27.4661 70.5739 27.7941 70.9875 28.2077C71.4011 28.6212 71.729 29.1124 71.9524 29.653C72.1758 30.1935 72.2903 30.7729 72.2894 31.3578Z" fill="#545B7E"/>
<path d="M107.92 31.3578C107.922 32.24 107.661 33.1028 107.172 33.837C106.683 34.5712 105.987 35.1438 105.172 35.4824C104.358 35.8209 103.461 35.9102 102.596 35.739C101.73 35.5677 100.935 35.1436 100.311 34.5202C99.6864 33.8969 99.261 33.1024 99.0884 32.2372C98.9158 31.3721 99.0037 30.4752 99.341 29.66C99.6782 28.8448 100.25 28.148 100.983 27.6577C101.717 27.1674 102.579 26.9057 103.461 26.9057C104.046 26.9048 104.626 27.0193 105.167 27.2426C105.708 27.4659 106.2 27.7937 106.614 28.2072C107.028 28.6207 107.357 29.1118 107.581 29.6524C107.805 30.1931 107.92 30.7726 107.92 31.3578Z" fill="#545B7E"/>
<path d="M103.461 30.5702C103.277 30.5702 103.1 30.4969 102.97 30.3665C102.839 30.236 102.766 30.0591 102.766 29.8746V13.5201C102.749 10.5648 101.565 7.73606 99.4703 5.65091C97.3761 3.56577 94.5421 2.3935 91.5868 2.38987H79.7123C76.757 2.3935 73.9231 3.56577 71.8288 5.65091C69.7345 7.73606 68.5499 10.5648 68.5334 13.5201V29.8746C68.5334 30.0591 68.4601 30.236 68.3296 30.3665C68.1992 30.4969 68.0222 30.5702 67.8377 30.5702C67.6532 30.5702 67.4763 30.4969 67.3458 30.3665C67.2154 30.236 67.1421 30.0591 67.1421 29.8746V13.5201C67.1604 10.1964 68.4922 7.01482 70.847 4.66915C73.2018 2.32349 76.3886 1.00405 79.7123 0.998596H91.5868C94.9118 1.00222 98.1003 2.32084 100.457 4.66671C102.813 7.01257 104.146 10.1952 104.164 13.5201V29.8746C104.164 29.9665 104.146 30.0575 104.11 30.1424C104.075 30.2272 104.023 30.3042 103.958 30.3689C103.892 30.4336 103.815 30.4847 103.73 30.5193C103.645 30.5538 103.553 30.5711 103.461 30.5702Z" fill="#545B7E"/>
<defs>
<linearGradient id="paint0_linear_17268_53955" x1="82.0678" y1="58.7076" x2="81.4996" y2="120.175" gradientUnits="userSpaceOnUse">
<stop stop-color="white" stop-opacity="0"/>
<stop offset="1" stop-color="#D8DBE5"/>
</linearGradient>
<linearGradient id="paint1_linear_17268_53955" x1="33.6956" y1="70.6966" x2="66.3558" y2="70.6966" gradientUnits="userSpaceOnUse">
<stop stop-color="#D1D4E0"/>
<stop offset="1" stop-color="#F0F1F5"/>
</linearGradient>
<linearGradient id="paint2_linear_17268_53955" x1="55.9519" y1="55.6934" x2="115.332" y2="55.6934" gradientUnits="userSpaceOnUse">
<stop stop-color="#F0F1F5"/>
<stop offset="1" stop-color="white"/>
</linearGradient>
<linearGradient id="paint3_linear_17268_53955" x1="115.343" y1="55.4815" x2="130.188" y2="55.4815" gradientUnits="userSpaceOnUse">
<stop stop-color="#D1D4E0"/>
<stop offset="1" stop-color="#F0F1F5"/>
</linearGradient>
</defs>
</svg>
