<svg width="164" height="87" viewBox="0 0 164 87" fill="none" xmlns="http://www.w3.org/2000/svg">
<ellipse cx="81.6879" cy="58.0843" rx="81.6879" ry="28.0349" fill="url(#paint0_linear_17268_55265)"/>
<path opacity="0.6" fill-rule="evenodd" clip-rule="evenodd" d="M21.4167 27.4425C26.1312 26.613 29.4069 22.2137 28.7926 17.4158C28.6987 16.6821 28.519 15.9803 28.265 15.3192L140.129 0.996951L146.892 53.8197L36.1251 68.0015C35.2959 63.2866 30.8964 60.0104 26.0982 60.6247C25.9554 60.643 25.8137 60.6645 25.6733 60.6892L21.4167 27.4425Z" fill="url(#paint1_linear_17268_55265)"/>
<path d="M59.6274 14.7674L137.158 4.84104L143.048 50.848L65.5178 60.7743L68.5365 37.0073L59.6274 14.7674Z" fill="url(#paint2_linear_17268_55265)"/>
<path d="M106.668 16.5294C106.574 16.5414 106.478 16.5363 106.38 16.5143L75.385 20.4976C74.9223 20.401 74.6216 19.9459 74.7183 19.4832C74.8149 19.0206 75.27 18.7198 75.7326 18.8165L106.728 14.8331C107.19 14.9297 107.491 15.3848 107.395 15.8475C107.32 16.2121 107.016 16.4761 106.667 16.5209L106.668 16.5294Z" fill="url(#paint3_linear_17268_55265)"/>
<path d="M110.922 49.7561C110.829 49.7681 110.733 49.763 110.635 49.7409L79.6394 53.7243C79.1767 53.6277 78.876 53.1726 78.9726 52.7099C79.0693 52.2472 79.5244 51.9465 79.987 52.0431L110.982 48.0598C111.445 48.1564 111.746 48.6115 111.649 49.0742C111.574 49.4388 111.27 49.7028 110.921 49.7475L110.922 49.7561Z" fill="url(#paint4_linear_17268_55265)"/>
<path opacity="0.8" d="M81.9066 38.3609C80.498 38.5413 79.3097 38.2778 78.3416 37.5704C77.3736 36.863 76.797 35.967 76.6119 34.8823L79.3212 34.5354C79.4761 35.0236 79.7535 35.3864 80.1533 35.6239C80.5631 35.8485 81.0406 35.9259 81.5859 35.8561C82.0517 35.7965 82.4142 35.6519 82.6734 35.4224C82.9441 35.1915 83.0583 34.9113 83.0161 34.5819C82.9419 34.0026 82.3577 33.6328 81.2634 33.4727L80.0484 33.3166C79.0025 33.1734 78.1506 32.8321 77.4927 32.2929C76.8348 31.7536 76.4413 31.0247 76.3122 30.106C76.1682 28.9814 76.4289 28.0416 77.0943 27.2868C77.7695 26.5191 78.7377 26.0546 79.9986 25.8931C81.2709 25.7302 82.3541 25.9841 83.2481 26.6548C84.1408 27.3141 84.6731 28.1349 84.845 29.1174L82.1528 29.4621C81.9711 29.0351 81.7138 28.739 81.3809 28.5738C81.048 28.4086 80.6942 28.35 80.3193 28.3979C79.899 28.4518 79.5691 28.5806 79.3296 28.7844C79.0902 28.9883 78.9851 29.25 79.0145 29.5695C79.0439 29.889 79.1909 30.1358 79.4556 30.3097C79.7317 30.4822 80.1284 30.6046 80.6457 30.6769L82.0717 30.858C83.1176 31.0012 83.9589 31.3496 84.5955 31.9031C85.2435 32.4551 85.6279 33.2026 85.7486 34.1455C85.8824 35.1906 85.5968 36.1162 84.8918 36.9223C84.1853 37.717 83.1903 38.1966 81.9066 38.3609ZM87.0446 39.4004L91.8329 24.5858L94.1503 24.2891L89.362 39.1037L87.0446 39.4004Z" fill="#545B7E"/>
<path opacity="0.8" d="M106.094 44.7702C104.049 45.032 102.178 44.6272 100.483 43.5558C98.8071 42.4817 97.8068 40.9992 97.4815 39.108L101.837 38.5504C102.115 39.2629 102.591 39.8151 103.265 40.2069C103.959 40.596 104.725 40.7369 105.563 40.6296C106.627 40.4934 107.414 40.0705 107.926 39.3607C108.456 38.6278 108.659 37.7809 108.536 36.8198C108.41 35.8383 107.99 35.0712 107.275 34.5185C106.58 33.9632 105.742 33.7484 104.761 33.874C103.922 33.9814 103.233 34.2775 102.692 34.7623C102.152 35.2472 101.803 35.8529 101.647 36.5796L97.7904 35.9199L98.6615 23.2452L109.274 21.8865L109.796 25.9658L102.435 26.9082L102.129 31.0936C102.843 30.5033 103.814 30.1297 105.041 29.9726C107.085 29.7108 108.81 30.1966 110.215 31.4299C111.64 32.6607 112.496 34.3904 112.781 36.6192C113.059 38.7867 112.576 40.615 111.332 42.1043C110.109 43.591 108.363 44.4796 106.094 44.7702ZM124.627 42.3973C122.235 42.7036 120.179 42.1459 118.459 40.7243C116.739 39.3027 115.718 37.3343 115.396 34.8193L114.72 29.5438C114.401 27.0492 114.894 24.8974 116.201 23.0883C117.507 21.2792 119.356 20.2215 121.749 19.9152C124.121 19.6115 126.167 20.1705 127.886 21.5922C129.606 23.0138 130.626 24.9719 130.945 27.4665L131.621 32.7419C131.943 35.257 131.451 37.4191 130.144 39.2281C128.838 41.0372 126.999 42.0936 124.627 42.3973ZM121.091 37.4257C121.909 38.1315 122.911 38.4085 124.097 38.2567C125.283 38.1048 126.172 37.5857 126.766 36.6992C127.379 35.8101 127.597 34.6704 127.419 33.2799L126.743 28.0045C126.565 26.614 126.069 25.5761 125.254 24.8908C124.456 24.1823 123.465 23.904 122.279 24.0559C121.093 24.2077 120.193 24.7282 119.58 25.6172C118.963 26.4859 118.744 27.6154 118.922 29.0058L119.598 34.2813C119.776 35.6717 120.274 36.7199 121.091 37.4257Z" fill="#545B7E"/>
<g opacity="0.7" filter="url(#filter0_f_17268_55265)">
<path d="M48.9869 53.9899L36.045 50.7177L45.265 42.6096L58.3716 46.1273L48.9869 53.9899Z" fill="url(#paint5_linear_17268_55265)"/>
</g>
<g opacity="0.79" filter="url(#filter1_f_17268_55265)">
<path d="M49.2662 54.0874L35.7665 50.6201L45.2655 42.6096L58.2577 46.2751L49.2662 54.0874Z" fill="url(#paint6_linear_17268_55265)"/>
</g>
<path d="M41.3756 29.9178C41.2438 29.7216 40.8614 29.7172 40.6866 29.7396C40.4961 29.986 40.1185 30.5051 40.1319 30.61C40.1487 30.741 41.4123 31.2454 41.5266 31.0975C41.6409 30.9497 41.5402 30.1632 41.3756 29.9178Z" fill="url(#paint7_linear_17268_55265)"/>
<path d="M55.9319 33.527C55.2784 34.2502 54.818 35.5792 54.6778 36.2188L54.466 36.6456C53.5821 37.0252 51.9439 37.3415 52.4632 35.5698C53.2339 32.9399 54.6494 32.1814 55.418 31.5945L57.7134 31.8335C57.3806 32.0093 56.5853 32.8039 55.9319 33.527Z" fill="url(#paint8_linear_17268_55265)"/>
<path d="M46.2502 47.1738L44.7398 35.3772L34.6871 39.0623L35.479 46.2881L46.2502 47.1738Z" fill="url(#paint9_linear_17268_55265)"/>
<path d="M56.9506 35.0134L44.7407 35.3776L45.8483 44.0285L57.6849 44.911L56.9506 35.0134Z" fill="url(#paint10_linear_17268_55265)"/>
<g filter="url(#filter2_b_17268_55265)">
<circle cx="47.4068" cy="36.4724" r="1.30885" transform="rotate(-23.9643 47.4068 36.4724)" fill="url(#paint11_linear_17268_55265)"/>
</g>
<path d="M47.1402 36.9824C47.0389 36.9781 46.9586 36.9457 46.8991 36.8853C46.8397 36.8241 46.8099 36.7545 46.8099 36.6765L46.992 36.6843C46.997 36.7239 47.0137 36.7552 47.042 36.7782C47.0704 36.8004 47.1056 36.8124 47.1474 36.8142C47.1851 36.8158 47.216 36.8092 47.2401 36.7943C47.2642 36.7785 47.2769 36.7569 47.2781 36.7292C47.2802 36.6799 47.242 36.6422 47.1634 36.6162L47.0705 36.5845C46.9985 36.5605 46.943 36.5254 46.9039 36.4793C46.8648 36.4332 46.8462 36.377 46.8482 36.3109C46.8517 36.2297 46.8816 36.1668 46.9381 36.1223C46.9945 36.0769 47.0679 36.0561 47.1583 36.06C47.2496 36.0639 47.3224 36.0947 47.377 36.1524C47.4316 36.2092 47.459 36.2733 47.4593 36.3446L47.2785 36.3368C47.2708 36.3013 47.2552 36.2746 47.2316 36.2568C47.2081 36.2391 47.1812 36.2295 47.1511 36.2282C47.1176 36.2268 47.0897 36.2331 47.0673 36.2473C47.0458 36.2606 47.034 36.2802 47.0321 36.3061C47.0301 36.3329 47.0379 36.355 47.0556 36.3726C47.0733 36.3901 47.1012 36.4051 47.1392 36.4176L47.2422 36.451C47.3944 36.5003 47.4675 36.5935 47.4617 36.7308C47.4584 36.8078 47.4268 36.8702 47.3669 36.9179C47.3078 36.9649 47.2323 36.9864 47.1402 36.9824Z" fill="url(#paint12_linear_17268_55265)"/>
<path d="M47.4979 37.121L48.0266 36.1123L48.1823 36.1189L47.6536 37.1277L47.4979 37.121Z" fill="url(#paint13_linear_17268_55265)"/>
<g filter="url(#filter3_b_17268_55265)">
<circle cx="48.5508" cy="39.3847" r="1.65161" transform="rotate(-33.7119 48.5508 39.3847)" fill="url(#paint14_linear_17268_55265)"/>
</g>
<path d="M48.2724 40.0263C48.1465 40.04 48.0412 40.0152 47.9564 39.9518C47.8715 39.8874 47.8217 39.8071 47.807 39.7108L48.0332 39.6862C48.0469 39.7341 48.0734 39.7697 48.1127 39.7927C48.152 39.8148 48.1976 39.8229 48.2496 39.8173C48.2964 39.8122 48.3333 39.7982 48.3603 39.7752C48.3871 39.7512 48.3987 39.7221 48.3949 39.6878C48.3882 39.6264 48.334 39.5871 48.2321 39.5698L48.1114 39.5482C48.018 39.5321 47.9429 39.4992 47.8859 39.4496C47.8289 39.4001 47.7955 39.3343 47.7855 39.2522C47.7745 39.1513 47.7996 39.0681 47.8609 39.0025C47.922 38.9358 48.0087 38.8964 48.1211 38.8841C48.2344 38.8718 48.3302 38.896 48.4084 38.957C48.4865 39.0169 48.5325 39.0908 48.5463 39.1788L48.3216 39.2032C48.3054 39.1608 48.2811 39.1308 48.2487 39.1133C48.2162 39.0958 48.1813 39.0891 48.1438 39.0932C48.1022 39.0977 48.0689 39.1108 48.0439 39.1325C48.0199 39.153 48.0091 39.1794 48.0115 39.2118C48.0141 39.2452 48.028 39.271 48.0531 39.2893C48.0783 39.3076 48.1155 39.3209 48.1648 39.3293L48.2982 39.351C48.4954 39.3832 48.6033 39.4846 48.6219 39.6552C48.6323 39.7508 48.605 39.8338 48.5401 39.904C48.476 39.9731 48.3868 40.0139 48.2724 40.0263Z" fill="url(#paint15_linear_17268_55265)"/>
<path d="M48.7401 40.1301L49.2029 38.7852L49.3963 38.7641L48.9336 40.109L48.7401 40.1301Z" fill="url(#paint16_linear_17268_55265)"/>
<g filter="url(#filter4_b_17268_55265)">
<circle cx="44.2429" cy="39.6267" r="1.37992" transform="rotate(8.83599 44.2429 39.6267)" fill="url(#paint17_linear_17268_55265)"/>
</g>
<path d="M43.8338 40.0386C43.7196 40.0192 43.633 39.9711 43.5742 39.8941C43.5155 39.8162 43.4917 39.733 43.5028 39.6446L43.7081 39.6793C43.7082 39.725 43.7226 39.7629 43.7515 39.793C43.7806 39.8222 43.8187 39.8408 43.8659 39.8488C43.9084 39.856 43.9444 39.8528 43.9739 39.8394C44.0035 39.825 44.0209 39.8022 44.0262 39.771C44.0356 39.7153 43.9977 39.6671 43.9123 39.6265L43.8113 39.5773C43.7332 39.5398 43.6752 39.4921 43.6374 39.4343C43.5996 39.3764 43.5865 39.3101 43.5982 39.2354C43.6137 39.1438 43.6566 39.0767 43.7269 39.0342C43.7974 38.9908 43.8836 38.9777 43.9856 38.995C44.0885 39.0124 44.1668 39.0577 44.2205 39.1308C44.2743 39.2031 44.2963 39.2796 44.2865 39.3605L44.0826 39.326C44.0789 39.2846 44.065 39.2522 44.0408 39.2286C44.0166 39.2051 43.9875 39.1905 43.9535 39.1847C43.9157 39.1784 43.8831 39.1816 43.8557 39.1944C43.8294 39.2065 43.8133 39.2271 43.8074 39.2562C43.8013 39.2862 43.8071 39.3124 43.8247 39.3348C43.8423 39.3572 43.8717 39.3783 43.9131 39.3979L44.0251 39.4503C44.1907 39.5279 44.2604 39.6441 44.2342 39.7989C44.2195 39.8858 44.1748 39.952 44.1 39.9977C44.0264 40.0425 43.9377 40.0561 43.8338 40.0386Z" fill="url(#paint18_linear_17268_55265)"/>
<path d="M44.2198 40.2466L44.963 39.1778L45.1386 39.2075L44.3954 40.2763L44.2198 40.2466Z" fill="url(#paint19_linear_17268_55265)"/>
<g filter="url(#filter5_b_17268_55265)">
<circle cx="43.7553" cy="36.4484" r="1.03994" transform="rotate(29.4818 43.7553 36.4484)" fill="url(#paint20_linear_17268_55265)"/>
</g>
<path d="M43.8501 36.8778C43.7793 36.9281 43.7079 36.9484 43.6359 36.9388C43.5635 36.9286 43.5068 36.8971 43.4658 36.8443L43.5931 36.7539C43.6173 36.7781 43.6451 36.7906 43.6764 36.7912C43.7073 36.7913 43.7373 36.781 43.7666 36.7602C43.7929 36.7415 43.8103 36.7207 43.8188 36.698C43.8269 36.6746 43.8241 36.6533 43.8104 36.634C43.7858 36.5995 43.7402 36.594 43.6733 36.6177L43.5938 36.6452C43.5325 36.6667 43.4765 36.6721 43.4258 36.6615C43.3751 36.6508 43.333 36.6226 43.2996 36.5768C43.2592 36.52 43.2465 36.4617 43.2612 36.4019C43.2756 36.3415 43.3144 36.2889 43.3776 36.244C43.4414 36.1987 43.5069 36.1812 43.5741 36.1916C43.6409 36.2014 43.6932 36.2303 43.7309 36.2784L43.6044 36.3682C43.5805 36.3482 43.5559 36.3383 43.5307 36.3387C43.5054 36.339 43.4822 36.3467 43.4611 36.3617C43.4377 36.3783 43.4221 36.3973 43.4144 36.4186C43.4068 36.439 43.4092 36.4584 43.4215 36.477C43.4342 36.4961 43.4512 36.507 43.4724 36.5095C43.4936 36.5121 43.5203 36.5076 43.5526 36.4961L43.6398 36.4645C43.7687 36.4179 43.8673 36.4426 43.9354 36.5386C43.9737 36.5924 43.9851 36.6512 43.9696 36.715C43.9543 36.7778 43.9145 36.8321 43.8501 36.8778Z" fill="url(#paint21_linear_17268_55265)"/>
<path d="M44.1651 36.7836L43.9927 35.823L44.1016 35.7457L44.2739 36.7063L44.1651 36.7836Z" fill="url(#paint22_linear_17268_55265)"/>
<path d="M36.0502 50.744L34.5566 39.0784L47.5089 40.351L48.9921 54.0163L36.0502 50.744Z" fill="url(#paint23_linear_17268_55265)"/>
<path d="M57.8688 46.3543L48.9916 54.0188L47.5085 40.3535L56.9498 35.0148L57.8688 46.3543Z" fill="url(#paint24_linear_17268_55265)"/>
<path d="M40.8729 46.796C42.2204 47.9557 42.3823 50.9547 42.3978 52.4626L39.7731 51.7328C39.7934 51.1973 39.6659 49.8548 38.9939 48.7685C38.154 47.4106 35.4318 46.9597 33.4122 45.7529C31.7463 44.7574 30.4473 42.7131 30.089 41.6488L32.2973 40.167C32.6053 40.8381 33.4678 42.4418 34.4544 43.4879C35.6876 44.7954 39.4565 45.5769 40.8729 46.796Z" fill="url(#paint25_linear_17268_55265)"/>
<path d="M55.6978 43.9693C54.364 45.2058 54.671 47.7421 54.9912 48.8557L52.6047 51.0264C52.3729 50.2567 52.091 48.0547 52.8173 45.4038C53.7253 42.0902 55.6411 41.4453 57.9301 39.5536C59.7613 38.0402 59.599 34.8991 59.2889 33.5178L61.104 32.0864C61.1924 32.4303 61.6986 33.6089 61.7049 35.7397C61.7128 38.3826 60.064 40.6126 58.9683 41.419C57.8725 42.2254 57.365 42.4236 55.6978 43.9693Z" fill="url(#paint26_linear_17268_55265)"/>
<path d="M52.8734 22.6651L39.9234 27.6537L34.2319 37.3083L47.034 32.2054L52.8734 22.6651Z" fill="url(#paint27_linear_17268_55265)"/>
<path d="M54.4332 23.3986L47.1689 33.2546L45.9524 32.0781L52.3496 22.7328L54.4332 23.3986Z" fill="url(#paint28_linear_17268_55265)"/>
<path d="M33.281 37.1629L45.9521 32.0768L47.1685 33.2533L34.5478 38.7326L33.281 37.1629Z" fill="url(#paint29_linear_17268_55265)"/>
<path d="M38.952 26.3128L32.8537 36.9521L34.5472 38.7336L40.7126 28.6186L38.952 26.3128Z" fill="url(#paint30_linear_17268_55265)"/>
<path d="M52.8369 21.3367L38.9526 26.3117L40.7132 28.6175L54.4329 23.3972L52.8369 21.3367Z" fill="url(#paint31_linear_17268_55265)"/>
<defs>
<filter id="filter0_f_17268_55265" x="35.4186" y="41.9833" width="23.5793" height="12.6329" filterUnits="userSpaceOnUse" color-interpolation-filters="sRGB">
<feFlood flood-opacity="0" result="BackgroundImageFix"/>
<feBlend mode="normal" in="SourceGraphic" in2="BackgroundImageFix" result="shape"/>
<feGaussianBlur stdDeviation="0.313163" result="effect1_foregroundBlur_17268_55265"/>
</filter>
<filter id="filter1_f_17268_55265" x="33.5745" y="40.4175" width="26.8755" height="15.8621" filterUnits="userSpaceOnUse" color-interpolation-filters="sRGB">
<feFlood flood-opacity="0" result="BackgroundImageFix"/>
<feBlend mode="normal" in="SourceGraphic" in2="BackgroundImageFix" result="shape"/>
<feGaussianBlur stdDeviation="1.09607" result="effect1_foregroundBlur_17268_55265"/>
</filter>
<filter id="filter2_b_17268_55265" x="42.1796" y="31.2452" width="10.4543" height="10.4545" filterUnits="userSpaceOnUse" color-interpolation-filters="sRGB">
<feFlood flood-opacity="0" result="BackgroundImageFix"/>
<feGaussianBlur in="BackgroundImageFix" stdDeviation="1.95903"/>
<feComposite in2="SourceAlpha" operator="in" result="effect1_backgroundBlur_17268_55265"/>
<feBlend mode="normal" in="SourceGraphic" in2="effect1_backgroundBlur_17268_55265" result="shape"/>
</filter>
<filter id="filter3_b_17268_55265" x="41.9548" y="32.7888" width="13.1919" height="13.1918" filterUnits="userSpaceOnUse" color-interpolation-filters="sRGB">
<feFlood flood-opacity="0" result="BackgroundImageFix"/>
<feGaussianBlur in="BackgroundImageFix" stdDeviation="2.47205"/>
<feComposite in2="SourceAlpha" operator="in" result="effect1_backgroundBlur_17268_55265"/>
<feBlend mode="normal" in="SourceGraphic" in2="effect1_backgroundBlur_17268_55265" result="shape"/>
</filter>
<filter id="filter4_b_17268_55265" x="38.732" y="34.1158" width="11.0218" height="11.0218" filterUnits="userSpaceOnUse" color-interpolation-filters="sRGB">
<feFlood flood-opacity="0" result="BackgroundImageFix"/>
<feGaussianBlur in="BackgroundImageFix" stdDeviation="2.0654"/>
<feComposite in2="SourceAlpha" operator="in" result="effect1_backgroundBlur_17268_55265"/>
<feBlend mode="normal" in="SourceGraphic" in2="effect1_backgroundBlur_17268_55265" result="shape"/>
</filter>
<filter id="filter5_b_17268_55265" x="39.6023" y="32.2952" width="8.3062" height="8.30639" filterUnits="userSpaceOnUse" color-interpolation-filters="sRGB">
<feFlood flood-opacity="0" result="BackgroundImageFix"/>
<feGaussianBlur in="BackgroundImageFix" stdDeviation="1.55653"/>
<feComposite in2="SourceAlpha" operator="in" result="effect1_backgroundBlur_17268_55265"/>
<feBlend mode="normal" in="SourceGraphic" in2="effect1_backgroundBlur_17268_55265" result="shape"/>
</filter>
<linearGradient id="paint0_linear_17268_55265" x1="82.0678" y1="34.7076" x2="81.4996" y2="96.1753" gradientUnits="userSpaceOnUse">
<stop stop-color="white" stop-opacity="0"/>
<stop offset="1" stop-color="#D8DBE5"/>
</linearGradient>
<linearGradient id="paint1_linear_17268_55265" x1="23.3815" y1="42.7887" x2="143.511" y2="27.4083" gradientUnits="userSpaceOnUse">
<stop stop-color="#979DBA"/>
<stop offset="1" stop-color="#D1D4E0"/>
</linearGradient>
<linearGradient id="paint2_linear_17268_55265" x1="62.5726" y1="37.7709" x2="140.103" y2="27.8445" gradientUnits="userSpaceOnUse">
<stop stop-color="#F0F1F5"/>
<stop offset="1" stop-color="white"/>
</linearGradient>
<linearGradient id="paint3_linear_17268_55265" x1="74.7065" y1="19.761" x2="107.407" y2="15.5743" gradientUnits="userSpaceOnUse">
<stop stop-color="#D1D4E0"/>
<stop offset="1" stop-color="#F0F1F5"/>
</linearGradient>
<linearGradient id="paint4_linear_17268_55265" x1="78.9609" y1="52.9877" x2="111.661" y2="48.801" gradientUnits="userSpaceOnUse">
<stop stop-color="#D1D4E0"/>
<stop offset="1" stop-color="#F0F1F5"/>
</linearGradient>
<linearGradient id="paint5_linear_17268_55265" x1="37.4573" y1="46.1405" x2="58.202" y2="55.2081" gradientUnits="userSpaceOnUse">
<stop stop-color="#5F6688"/>
<stop offset="1" stop-color="#9AA0BC" stop-opacity="0.66"/>
</linearGradient>
<linearGradient id="paint6_linear_17268_55265" x1="37.4578" y1="46.1405" x2="58.2024" y2="55.2081" gradientUnits="userSpaceOnUse">
<stop stop-color="#5F6688"/>
<stop offset="1" stop-color="#9AA0BC" stop-opacity="0.66"/>
</linearGradient>
<linearGradient id="paint7_linear_17268_55265" x1="40.1247" y1="30.553" x2="41.5337" y2="30.3726" gradientUnits="userSpaceOnUse">
<stop stop-color="#545B7E"/>
<stop offset="1" stop-color="#979DBA"/>
</linearGradient>
<linearGradient id="paint8_linear_17268_55265" x1="52.1472" y1="34.5542" x2="57.9663" y2="33.8091" gradientUnits="userSpaceOnUse">
<stop stop-color="#545B7E"/>
<stop offset="1" stop-color="#979DBA"/>
</linearGradient>
<linearGradient id="paint9_linear_17268_55265" x1="35.0091" y1="42.6181" x2="45.495" y2="41.2755" gradientUnits="userSpaceOnUse">
<stop stop-color="#979DBA"/>
<stop offset="1" stop-color="#D1D4E0"/>
</linearGradient>
<linearGradient id="paint10_linear_17268_55265" x1="45.4456" y1="40.8827" x2="57.5043" y2="39.3388" gradientUnits="userSpaceOnUse">
<stop stop-color="#979DBA"/>
<stop offset="1" stop-color="#D1D4E0"/>
</linearGradient>
<linearGradient id="paint11_linear_17268_55265" x1="46.098" y1="36.4724" x2="48.7157" y2="36.4724" gradientUnits="userSpaceOnUse">
<stop stop-color="#F0F1F5"/>
<stop offset="1" stop-color="white"/>
</linearGradient>
<linearGradient id="paint12_linear_17268_55265" x1="46.8146" y1="36.5685" x2="48.1606" y2="36.6261" gradientUnits="userSpaceOnUse">
<stop stop-color="#545B7E"/>
<stop offset="1" stop-color="#979DBA"/>
</linearGradient>
<linearGradient id="paint13_linear_17268_55265" x1="46.8146" y1="36.5685" x2="48.1606" y2="36.6261" gradientUnits="userSpaceOnUse">
<stop stop-color="#545B7E"/>
<stop offset="1" stop-color="#979DBA"/>
</linearGradient>
<linearGradient id="paint14_linear_17268_55265" x1="46.8992" y1="39.3847" x2="50.2024" y2="39.3847" gradientUnits="userSpaceOnUse">
<stop stop-color="#F0F1F5"/>
<stop offset="1" stop-color="white"/>
</linearGradient>
<linearGradient id="paint15_linear_17268_55265" x1="47.7924" y1="39.5766" x2="49.465" y2="39.3943" gradientUnits="userSpaceOnUse">
<stop stop-color="#545B7E"/>
<stop offset="1" stop-color="#979DBA"/>
</linearGradient>
<linearGradient id="paint16_linear_17268_55265" x1="47.7924" y1="39.5766" x2="49.465" y2="39.3943" gradientUnits="userSpaceOnUse">
<stop stop-color="#545B7E"/>
<stop offset="1" stop-color="#979DBA"/>
</linearGradient>
<linearGradient id="paint17_linear_17268_55265" x1="42.863" y1="39.6267" x2="45.6228" y2="39.6267" gradientUnits="userSpaceOnUse">
<stop stop-color="#F0F1F5"/>
<stop offset="1" stop-color="white"/>
</linearGradient>
<linearGradient id="paint18_linear_17268_55265" x1="43.5234" y1="39.5228" x2="45.0418" y2="39.7797" gradientUnits="userSpaceOnUse">
<stop stop-color="#545B7E"/>
<stop offset="1" stop-color="#979DBA"/>
</linearGradient>
<linearGradient id="paint19_linear_17268_55265" x1="43.5234" y1="39.5228" x2="45.0418" y2="39.7797" gradientUnits="userSpaceOnUse">
<stop stop-color="#545B7E"/>
<stop offset="1" stop-color="#979DBA"/>
</linearGradient>
<linearGradient id="paint20_linear_17268_55265" x1="42.7154" y1="36.4484" x2="44.7952" y2="36.4484" gradientUnits="userSpaceOnUse">
<stop stop-color="#F0F1F5"/>
<stop offset="1" stop-color="white"/>
</linearGradient>
<linearGradient id="paint21_linear_17268_55265" x1="43.4122" y1="36.7688" x2="44.3534" y2="36.1004" gradientUnits="userSpaceOnUse">
<stop stop-color="#545B7E"/>
<stop offset="1" stop-color="#979DBA"/>
</linearGradient>
<linearGradient id="paint22_linear_17268_55265" x1="43.4122" y1="36.7688" x2="44.3534" y2="36.1004" gradientUnits="userSpaceOnUse">
<stop stop-color="#545B7E"/>
<stop offset="1" stop-color="#979DBA"/>
</linearGradient>
<linearGradient id="paint23_linear_17268_55265" x1="35.6139" y1="47.3361" x2="48.197" y2="45.725" gradientUnits="userSpaceOnUse">
<stop stop-color="#D1D4E0"/>
<stop offset="1" stop-color="#F0F1F5"/>
</linearGradient>
<linearGradient id="paint24_linear_17268_55265" x1="47.8588" y1="45.1713" x2="58.0826" y2="43.8623" gradientUnits="userSpaceOnUse">
<stop stop-color="#D1D4E0"/>
<stop offset="1" stop-color="#F0F1F5"/>
</linearGradient>
<linearGradient id="paint25_linear_17268_55265" x1="30.7939" y1="47.1539" x2="41.681" y2="45.76" gradientUnits="userSpaceOnUse">
<stop stop-color="#545B7E"/>
<stop offset="1" stop-color="#979DBA"/>
</linearGradient>
<linearGradient id="paint26_linear_17268_55265" x1="51.4208" y1="42.2521" x2="62.456" y2="40.8392" gradientUnits="userSpaceOnUse">
<stop stop-color="#545B7E"/>
<stop offset="1" stop-color="#979DBA"/>
</linearGradient>
<linearGradient id="paint27_linear_17268_55265" x1="33.4599" y1="31.2789" x2="53.6453" y2="28.6945" gradientUnits="userSpaceOnUse">
<stop stop-color="#545B7E"/>
<stop offset="1" stop-color="#979DBA"/>
</linearGradient>
<linearGradient id="paint28_linear_17268_55265" x1="45.4993" y1="28.5391" x2="54.9367" y2="27.3308" gradientUnits="userSpaceOnUse">
<stop stop-color="#979DBA"/>
<stop offset="1" stop-color="#D1D4E0"/>
</linearGradient>
<linearGradient id="paint29_linear_17268_55265" x1="33.172" y1="36.3109" x2="47.3279" y2="34.4985" gradientUnits="userSpaceOnUse">
<stop stop-color="#979DBA"/>
<stop offset="1" stop-color="#D1D4E0"/>
</linearGradient>
<linearGradient id="paint30_linear_17268_55265" x1="32.3586" y1="33.0854" x2="41.1405" y2="31.961" gradientUnits="userSpaceOnUse">
<stop stop-color="#D1D4E0"/>
<stop offset="1" stop-color="#F0F1F5"/>
</linearGradient>
<linearGradient id="paint31_linear_17268_55265" x1="38.9106" y1="25.984" x2="54.5084" y2="23.987" gradientUnits="userSpaceOnUse">
<stop stop-color="#D1D4E0"/>
<stop offset="1" stop-color="#F0F1F5"/>
</linearGradient>
</defs>
</svg>
