<svg width="45" height="19" viewBox="0 0 45 19" fill="none" xmlns="http://www.w3.org/2000/svg">
<path d="M21.27 8.91136V14.141H19.583V1.20752H23.9691C25.0375 1.20752 26.0497 1.60115 26.837 2.33217C27.6242 3.00696 28.0179 4.01914 28.0179 5.08755C28.0179 6.15597 27.6242 7.11192 26.837 7.84294C26.0497 8.57396 25.0938 8.96759 23.9691 8.96759L21.27 8.91136ZM21.27 2.78203V7.28062H24.0816C24.7002 7.28062 25.3187 7.05569 25.7123 6.60583C26.6121 5.76234 26.6121 4.35653 25.7686 3.51305L25.7123 3.45681C25.2625 3.00696 24.7002 2.72579 24.0816 2.78203H21.27Z" fill="white"/>
<path d="M31.8979 5.03137C33.135 5.03137 34.0909 5.36877 34.8219 6.04355C35.553 6.71834 35.8904 7.61806 35.8904 8.74271V14.141H34.3158V12.9039H34.2596C33.5848 13.9161 32.6289 14.4222 31.5042 14.4222C30.5483 14.4222 29.7048 14.141 29.03 13.5787C28.4114 13.0164 28.0178 12.2291 28.0178 11.3856C28.0178 10.4859 28.3552 9.75489 29.03 9.19257C29.7048 8.63024 30.6607 8.40531 31.7854 8.40531C32.7976 8.40531 33.5848 8.57401 34.2034 8.96764V8.57401C34.2034 8.01169 33.9785 7.44936 33.5286 7.11197C33.0787 6.71834 32.5164 6.49341 31.8979 6.49341C30.9419 6.49341 30.2109 6.88704 29.7048 7.67429L28.2428 6.77458C29.1425 5.5937 30.3234 5.03137 31.8979 5.03137ZM29.761 11.4419C29.761 11.8917 29.986 12.2853 30.3234 12.5103C30.717 12.7914 31.1668 12.9601 31.6167 12.9601C32.2915 12.9601 32.9663 12.679 33.4724 12.1729C34.0347 11.6668 34.3158 11.0482 34.3158 10.3734C33.8098 9.97982 33.0787 9.75489 32.1228 9.75489C31.448 9.75489 30.8857 9.92359 30.4358 10.261C29.986 10.5421 29.761 10.9358 29.761 11.4419Z" fill="white"/>
<path d="M45.0001 5.3125L39.4331 18.0772H37.7461L39.8267 13.6349L36.1716 5.36873H37.9711L40.614 11.723H40.6702L43.2569 5.36873H45.0001V5.3125Z" fill="white"/>
<path d="M14.578 7.78671C14.578 7.28062 14.5218 6.77452 14.4656 6.26843H7.43652V9.13628H11.429C11.2603 10.036 10.7542 10.8795 9.96698 11.3856V13.2412H12.385C13.7908 11.9479 14.578 10.036 14.578 7.78671Z" fill="#4285F4"/>
<path d="M7.43669 15.0405C9.46106 15.0405 11.148 14.3658 12.3851 13.2411L9.96715 11.3854C9.29236 11.8353 8.44887 12.1165 7.43669 12.1165C5.52479 12.1165 3.83782 10.8231 3.27549 9.02368H0.80127V10.9356C2.09461 13.466 4.62507 15.0405 7.43669 15.0405Z" fill="#34A853"/>
<path d="M3.27554 9.02377C2.93814 8.12405 2.93814 7.11187 3.27554 6.15592V4.24402H0.801311C-0.267104 6.32462 -0.267104 8.79884 0.801311 10.9357L3.27554 9.02377Z" fill="#FBBC04"/>
<path d="M7.43661 3.11949C8.50503 3.11949 9.51721 3.51312 10.3045 4.24414L12.4413 2.10731C11.0917 0.870197 9.29228 0.139176 7.49284 0.195408C4.68122 0.195408 2.09453 1.76991 0.857422 4.30037L3.33165 6.21227C3.83774 4.41284 5.52471 3.11949 7.43661 3.11949Z" fill="#EA4335"/>
</svg>
