<svg width="44" height="32" viewBox="0 0 44 32" fill="none" xmlns="http://www.w3.org/2000/svg">
<path d="M20.6495 16.5252V21.6386H19V8.99255H23.2887C24.3333 8.99255 25.323 9.37743 26.0928 10.0922C26.8625 10.752 27.2474 11.7417 27.2474 12.7864C27.2474 13.831 26.8625 14.7657 26.0928 15.4805C25.323 16.1953 24.3883 16.5802 23.2887 16.5802L20.6495 16.5252ZM20.6495 10.5321V14.9307H23.3986C24.0034 14.9307 24.6082 14.7108 24.9931 14.2709C25.8728 13.4462 25.8728 12.0716 25.0481 11.2468L24.9931 11.1919C24.5533 10.752 24.0034 10.4771 23.3986 10.5321H20.6495Z" fill="#5F6268"/>
<path d="M31.0399 12.7314C32.2495 12.7314 33.1842 13.0613 33.899 13.7211C34.6138 14.3809 34.9437 15.2607 34.9437 16.3603V21.6387H33.4042V20.429H33.3492C32.6894 21.4187 31.7547 21.9136 30.655 21.9136C29.7203 21.9136 28.8956 21.6387 28.2358 21.0888C27.631 20.539 27.2461 19.7692 27.2461 18.9445C27.2461 18.0648 27.576 17.35 28.2358 16.8002C28.8956 16.2503 29.8303 16.0304 30.9299 16.0304C31.9196 16.0304 32.6894 16.1954 33.2942 16.5802V16.1954C33.2942 15.6455 33.0743 15.0957 32.6344 14.7658C32.1945 14.3809 31.6447 14.161 31.0399 14.161C30.1052 14.161 29.3904 14.5459 28.8956 15.3156L27.466 14.4359C28.3458 13.2813 29.5004 12.7314 31.0399 12.7314ZM28.9506 18.9995C28.9506 19.4393 29.1705 19.8242 29.5004 20.0442C29.8853 20.3191 30.3251 20.484 30.765 20.484C31.4248 20.484 32.0846 20.2091 32.5794 19.7143C33.1293 19.2194 33.4042 18.6146 33.4042 17.9548C32.9093 17.5699 32.1945 17.35 31.2598 17.35C30.6 17.35 30.0502 17.5149 29.6104 17.8448C29.1705 18.1198 28.9506 18.5046 28.9506 18.9995Z" fill="#5F6268"/>
<path d="M43.851 13.0063L38.4077 25.4874H36.7583L38.7926 21.1438L35.2188 13.0613H36.9782L39.5624 19.2744H39.6174L42.1466 13.0613H43.851V13.0063Z" fill="#5F6268"/>
<g clip-path="url(#clip0_34373_21115)">
<path d="M14 15.2967C14 14.7944 13.9576 14.3091 13.8775 13.8456H7.14258V16.5937H10.9996C10.8346 17.4891 10.3335 18.251 9.57399 18.7618V20.5465H11.8768C13.2247 19.3041 14.0012 17.4684 14.0012 15.2979" fill="#4285F4"/>
<path d="M7.14039 22.2694C9.06828 22.2694 10.6904 21.6373 11.8746 20.5465L9.57179 18.7618C8.93118 19.1925 8.10616 19.4449 7.14039 19.4449C5.27801 19.4449 3.69711 18.1903 3.13051 16.5002H0.759766V18.3384C1.93543 20.6691 4.35106 22.2706 7.1416 22.2706" fill="#34A853"/>
<path d="M3.13268 16.499C2.9883 16.0683 2.90822 15.6085 2.90822 15.1341C2.90822 14.6597 2.98709 14.1999 3.13268 13.7691V11.931H0.760724C0.2742 12.8944 0 13.9815 0 15.1341C0 16.2867 0.2742 17.375 0.760724 18.3371L3.13268 16.499Z" fill="#FABB05"/>
<path d="M7.14039 10.8233C8.1923 10.8233 9.13623 11.1849 9.87997 11.8934L11.9183 9.85753C10.6807 8.70734 9.06707 8 7.14039 8C4.35106 8 1.93543 9.60031 0.759766 11.931L3.13172 13.7691C3.69711 12.079 5.27801 10.8245 7.1416 10.8245" fill="#E94235"/>
</g>
<defs>
<clipPath id="clip0_34373_21115">
<rect width="14" height="14.2693" fill="white" transform="translate(0 8)"/>
</clipPath>
</defs>
</svg>