<svg width="81" height="32" viewBox="0 0 81 32" fill="none" xmlns="http://www.w3.org/2000/svg">
<path d="M38.0567 15.6002V24.9571H35.0383V1.81641H42.886C44.7977 1.81641 46.6087 2.52069 48.0172 3.82864C49.4258 5.03598 50.1301 6.84699 50.1301 8.75861C50.1301 10.6702 49.4258 12.3806 48.0172 13.6886C46.6087 14.9965 44.8983 15.7008 42.886 15.7008L38.0567 15.6002ZM38.0567 4.63353V12.6825H43.0873C44.194 12.6825 45.3007 12.28 46.005 11.4751C47.6148 9.96595 47.6148 7.45066 46.1056 5.94148L46.005 5.84087C45.2001 5.03598 44.194 4.53292 43.0873 4.63353H38.0567Z" fill="#5F6368"/>
<path d="M57.0721 8.65808C59.2855 8.65808 60.9959 9.26175 62.3039 10.4691C63.6118 11.6764 64.2155 13.2862 64.2155 15.2984V24.9572H61.3984V22.7437H61.2978C60.0904 24.5547 58.38 25.4602 56.3678 25.4602C54.6574 25.4602 53.1482 24.9572 51.9409 23.951C50.8342 22.9449 50.1299 21.5364 50.1299 20.0272C50.1299 18.4174 50.7336 17.1095 51.9409 16.1033C53.1482 15.0972 54.8586 14.6948 56.8709 14.6948C58.6819 14.6948 60.0904 14.9966 61.1972 15.7009V14.9966C61.1972 13.9905 60.7947 12.9844 59.9898 12.3807C59.1849 11.6764 58.1788 11.274 57.0721 11.274C55.3617 11.274 54.0537 11.9783 53.1482 13.3868L50.5323 11.777C52.1421 9.6642 54.255 8.65808 57.0721 8.65808ZM53.2488 20.1278C53.2488 20.9327 53.6513 21.637 54.255 22.0394C54.9592 22.5425 55.7641 22.8443 56.569 22.8443C57.7764 22.8443 58.9837 22.3413 59.8892 21.4358C60.8953 20.5303 61.3984 19.4235 61.3984 18.2162C60.4929 17.5119 59.1849 17.1095 57.4745 17.1095C56.2672 17.1095 55.2611 17.4113 54.4562 18.015C53.6513 18.518 53.2488 19.2223 53.2488 20.1278Z" fill="#5F6368"/>
<path d="M80.5145 9.16113L70.554 32H67.5356L71.2583 24.0517L64.7185 9.26174H67.9381L72.6668 20.6309H72.7674L77.3956 9.26174H80.5145V9.16113Z" fill="#5F6368"/>
<path d="M26.0833 13.5881C26.0833 12.6826 25.9827 11.7771 25.8821 10.8716H13.3057V16.0028H20.4491C20.1473 17.6126 19.2418 19.1217 17.8332 20.0272V23.3474H22.1595C24.6748 21.0334 26.0833 17.6126 26.0833 13.5881Z" fill="#4285F4"/>
<path d="M13.306 26.5667C16.928 26.5667 19.9464 25.3594 22.1598 23.3471L17.8335 20.027C16.6262 20.8319 15.117 21.3349 13.306 21.3349C9.88522 21.3349 6.86687 19.0208 5.86075 15.8013H1.43384V19.2221C3.74791 23.7496 8.27543 26.5667 13.306 26.5667Z" fill="#34A853"/>
<path d="M5.86063 15.8014C5.25696 14.1916 5.25696 12.3806 5.86063 10.6702V7.24939H1.43372C-0.477905 10.972 -0.477905 15.3989 1.43372 19.2222L5.86063 15.8014Z" fill="#FBBC04"/>
<path d="M13.3057 5.23722C15.2174 5.23722 17.0284 5.9415 18.4369 7.24945L22.2602 3.42621C19.8455 1.21275 16.6259 -0.0951986 13.4064 0.00541305C8.37577 0.00541305 3.74764 2.82254 1.53418 7.35006L5.96109 10.7709C6.8666 7.55128 9.88495 5.23722 13.3057 5.23722Z" fill="#EA4335"/>
</svg>
