<svg width="60" height="32" viewBox="0 0 60 32" fill="none" xmlns="http://www.w3.org/2000/svg">
<path d="M0.75 16C0.75 7.57766 7.57766 0.75 16 0.75H44C52.4223 0.75 59.25 7.57766 59.25 16C59.25 24.4223 52.4223 31.25 44 31.25H16C7.57766 31.25 0.75 24.4223 0.75 16Z" fill="white" stroke="#3B4043" stroke-width="1.5"/>
<path d="M28.7972 16.5252V21.6386H27.1477V8.99255H31.4364C32.481 8.99255 33.4707 9.37743 34.2405 10.0922C35.0102 10.752 35.3951 11.7417 35.3951 12.7864C35.3951 13.831 35.0102 14.7657 34.2405 15.4805C33.4707 16.1953 32.536 16.5802 31.4364 16.5802L28.7972 16.5252ZM28.7972 10.5321V14.9307H31.5463C32.1511 14.9307 32.7559 14.7108 33.1408 14.2709C34.0206 13.4462 34.0206 12.0716 33.1958 11.2468L33.1408 11.1919C32.701 10.752 32.1511 10.4771 31.5463 10.5321H28.7972Z" fill="#3B3F43"/>
<path d="M39.1891 12.7316C40.3987 12.7316 41.3334 13.0615 42.0482 13.7213C42.763 14.3811 43.0929 15.2608 43.0929 16.3604V21.6388H41.5533V20.4292H41.4984C40.8386 21.4188 39.9039 21.9137 38.8042 21.9137C37.8695 21.9137 37.0447 21.6388 36.385 21.0889C35.7801 20.5391 35.3953 19.7694 35.3953 18.9446C35.3953 18.0649 35.7252 17.3501 36.385 16.8003C37.0447 16.2505 37.9795 16.0305 39.0791 16.0305C40.0688 16.0305 40.8386 16.1955 41.4434 16.5804V16.1955C41.4434 15.6457 41.2234 15.0958 40.7836 14.7659C40.3437 14.3811 39.7939 14.1611 39.1891 14.1611C38.2544 14.1611 37.5396 14.546 37.0447 15.3158L35.6152 14.436C36.4949 13.2814 37.6496 12.7316 39.1891 12.7316ZM37.0997 18.9996C37.0997 19.4395 37.3197 19.8243 37.6496 20.0443C38.0344 20.3192 38.4743 20.4841 38.9142 20.4841C39.574 20.4841 40.2337 20.2092 40.7286 19.7144C41.2784 19.2195 41.5533 18.6147 41.5533 17.9549C41.0585 17.5701 40.3437 17.3501 39.409 17.3501C38.7492 17.3501 38.1994 17.5151 37.7595 17.845C37.3197 18.1199 37.0997 18.5048 37.0997 18.9996Z" fill="#3B3F43"/>
<path d="M52 13.0063L46.5567 25.4874H44.9072L46.9416 21.1438L43.3677 13.0613H45.1271L47.7113 19.2744H47.7663L50.2955 13.0613H52V13.0063Z" fill="#3B3F43"/>
<path d="M22.2543 15.4257C22.2543 14.9309 22.1993 14.436 22.1443 13.9412H15.2715V16.7453H19.1753C19.0103 17.625 18.5155 18.4497 17.7457 18.9446V20.759H20.11C21.4845 19.4944 22.2543 17.625 22.2543 15.4257Z" fill="#4285F4"/>
<path d="M15.2714 22.5183C17.2508 22.5183 18.9003 21.8585 20.1099 20.7588L17.7456 18.9444C17.0858 19.3843 16.2611 19.6592 15.2714 19.6592C13.402 19.6592 11.7525 18.3946 11.2027 16.6351H8.78345V18.5045C10.0481 20.9788 12.5223 22.5183 15.2714 22.5183Z" fill="#34A853"/>
<path d="M11.2027 16.6352C10.8729 15.7555 10.8729 14.7658 11.2027 13.8311V11.9617H8.7835C7.73883 13.996 7.73883 16.4153 8.7835 18.5046L11.2027 16.6352Z" fill="#FBBC04"/>
<path d="M15.2714 10.8621C16.316 10.8621 17.3057 11.2469 18.0755 11.9617L20.1648 9.87237C18.8452 8.66275 17.0858 7.94798 15.3263 8.00296C12.5772 8.00296 10.048 9.54248 8.83838 12.0167L11.2576 13.8861C11.7525 12.1267 13.4019 10.8621 15.2714 10.8621Z" fill="#EA4335"/>
</svg>
