<svg width="24" height="24" viewBox="0 0 24 24" fill="none" xmlns="http://www.w3.org/2000/svg">
<path d="M19.5591 7.80021H18.6644C18.4504 6.19492 17.6602 4.72188 16.4405 3.655C15.2209 2.58812 13.6549 2 12.0338 2C10.4126 2 8.84666 2.58812 7.62703 3.655C6.40739 4.72188 5.61711 6.19492 5.40312 7.80021H4.50844C3.84316 7.80021 3.20513 8.06422 2.73471 8.53415C2.26428 9.00409 2 9.64146 2 10.3061V12.8119C2 13.4765 2.26428 14.1139 2.73471 14.5838C3.20513 15.0537 3.84316 15.3177 4.50844 15.3177C5.17372 15.3177 5.81176 15.0537 6.28218 14.5838C6.75261 14.1139 7.01689 13.4765 7.01689 12.8119V8.63549C7.01689 7.30631 7.54545 6.03156 8.4863 5.09169C9.42715 4.15182 10.7032 3.6238 12.0338 3.6238C13.3643 3.6238 14.6404 4.15182 15.5813 5.09169C16.5221 6.03156 17.0507 7.30631 17.0507 8.63549V16.153C17.0507 16.8176 16.7864 17.455 16.316 17.9249C15.8455 18.3949 15.2075 18.6589 14.5422 18.6589H14.3875C14.1903 18.1016 13.8022 17.6318 13.2918 17.3327C12.7814 17.0337 12.1816 16.9244 11.5984 17.0244C11.0152 17.1244 10.4861 17.4271 10.1047 17.879C9.72329 18.3309 9.5141 18.903 9.5141 19.4942C9.5141 20.0853 9.72329 20.6574 10.1047 21.1093C10.4861 21.5612 11.0152 21.8639 11.5984 21.9639C12.1816 22.0639 12.7814 21.9546 13.2918 21.6556C13.8022 21.3565 14.1903 20.8867 14.3875 20.3294H14.5422C15.651 20.3294 16.7144 19.8894 17.4984 19.1062C18.2825 18.323 18.723 17.2607 18.723 16.153V15.3177H19.5591C20.2244 15.3177 20.8624 15.0537 21.3328 14.5838C21.8033 14.1139 22.0676 13.4765 22.0676 12.8119V10.3061C22.0676 9.64146 21.8033 9.00409 21.3328 8.53415C20.8624 8.06422 20.2244 7.80021 19.5591 7.80021ZM5.34459 12.8119C5.34459 13.0334 5.2565 13.2459 5.09969 13.4025C4.94288 13.5592 4.7302 13.6472 4.50844 13.6472C4.28668 13.6472 4.07401 13.5592 3.9172 13.4025C3.76039 13.2459 3.6723 13.0334 3.6723 12.8119V10.3061C3.6723 10.0845 3.76039 9.87207 3.9172 9.71542C4.07401 9.55877 4.28668 9.47077 4.50844 9.47077H5.34459V12.8119ZM12.0338 20.3294C11.8684 20.3294 11.7067 20.2804 11.5692 20.1887C11.4317 20.0969 11.3246 19.9664 11.2613 19.8138C11.198 19.6612 11.1814 19.4932 11.2137 19.3312C11.246 19.1692 11.3256 19.0203 11.4425 18.9035C11.5595 18.7867 11.7085 18.7071 11.8707 18.6749C12.0328 18.6427 12.201 18.6592 12.3538 18.7225C12.5065 18.7857 12.6371 18.8927 12.729 19.0301C12.8209 19.1675 12.8699 19.3289 12.8699 19.4942C12.8699 19.7157 12.7818 19.9281 12.625 20.0848C12.4682 20.2414 12.2555 20.3294 12.0338 20.3294ZM20.3953 12.8119C20.3953 13.0334 20.3072 13.2459 20.1504 13.4025C19.9935 13.5592 19.7809 13.6472 19.5591 13.6472H18.723V9.47077H19.5591C19.7809 9.47077 19.9935 9.55877 20.1504 9.71542C20.3072 9.87207 20.3953 10.0845 20.3953 10.3061V12.8119Z" fill="#7B7A7A" stroke="black" stroke-width="0.3"/>
</svg>
