<svg width="24" height="24" viewBox="0 0 24 24" fill="none" xmlns="http://www.w3.org/2000/svg">
<path fill-rule="evenodd" clip-rule="evenodd" d="M14.28 2.77002L20.83 8.01002C21.75 8.76002 22.32 10.26 22.14 11.43L20.88 18.97C20.59 20.64 18.99 22 17.3 22H6.70002C4.99002 22 3.42002 20.67 3.13002 18.98L1.87002 11.44C1.67002 10.26 2.24002 8.76002 3.18002 8.01002L9.73002 2.76002C11 1.74002 13 1.75002 14.28 2.77002ZM14.5 13C14.5 14.3807 13.3807 15.5 12 15.5C10.6193 15.5 9.5 14.3807 9.5 13C9.5 11.6193 10.6193 10.5 12 10.5C13.3807 10.5 14.5 11.6193 14.5 13Z" fill="white"/>
</svg>
