<svg width="216" height="254" viewBox="0 0 216 254" fill="none" xmlns="http://www.w3.org/2000/svg">
<path d="M14 114.15C14 62.7047 56.5547 21 108 21V21C159.445 21 202 62.7047 202 114.15V139.85C202 191.295 159.445 233 108 233V233C56.5547 233 14 191.295 14 139.85V114.15Z" stroke="#00A360" stroke-width="8" stroke-linejoin="round" stroke-dasharray="0.88 7.03 0.88 7.03"/>
<path opacity="0.7" d="M25.4207 113.822C25.4207 68.2147 62.3927 31.2427 108 31.2427V31.2427C153.607 31.2427 190.58 68.2148 190.58 113.822V140.177C190.58 185.785 153.607 222.757 108 222.757V222.757C62.3927 222.757 25.4207 185.785 25.4207 140.177V113.822Z" fill="#ECF6F8"/>
<mask id="mask0_1251_25000" style="mask-type:alpha" maskUnits="userSpaceOnUse" x="25" y="31">
<path d="M25.4207 113.822C25.4207 68.2147 62.3927 31.2427 108 31.2427V31.2427C153.607 31.2427 190.58 68.2148 190.58 113.822V140.177C190.58 185.785 153.607 222.757 108 222.757V222.757C62.3927 222.757 25.4207 185.785 25.4207 140.177V113.822Z" fill="#D9D9D9"/>
</mask>
<g mask="url(#mask0_1251_25000)">
<path d="M85.7302 181.667C85.5896 185.938 85.4771 196.94 84.4647 198.581C83.1992 200.631 76.1913 214.093 67.7546 216.143" stroke="url(#paint0_linear_1251_25000)" stroke-width="4" stroke-linecap="round"/>
<path d="M130.891 181.667C131.032 185.938 131.144 196.94 132.157 198.581C133.422 200.631 140.43 214.093 148.867 216.143" stroke="url(#paint1_linear_1251_25000)" stroke-width="4" stroke-linecap="round"/>
<path d="M149.042 147.556C150.608 147.012 154.148 144.86 155.782 140.611C157.825 135.3 160.889 130.602 160.481 122.022C160.072 113.443 158.847 109.358 153.944 107.928" stroke="url(#paint2_linear_1251_25000)" stroke-width="4"/>
<path d="M67.4762 147.556C65.9101 147.012 62.3694 144.86 60.7352 140.611C58.6925 135.3 55.6284 130.602 56.037 122.022C56.4455 113.443 57.6712 109.358 62.5737 107.928" stroke="url(#paint3_linear_1251_25000)" stroke-width="4"/>
<path d="M97.6966 191.475L98.5347 189.659H98.5347L97.6966 191.475ZM108.138 192.7H110.138V190.708L108.146 190.7L108.138 192.7ZM89.2228 184.601L87.8666 186.071L89.2228 184.601ZM86.4616 182.078L85.128 183.569H85.128L86.4616 182.078ZM84.7406 180.601L83.4503 182.13H83.4503L84.7406 180.601ZM69.7114 158.791L71.7031 158.61L69.7114 158.791ZM64.196 122.431L62.2472 122.881L62.2472 122.881L64.196 122.431ZM64.196 92.6073L66.1876 92.7908L64.196 92.6073ZM108.138 54.0003L108.145 56.0003L110.138 55.9938V54.0003H108.138ZM108.138 54V52H106.138V54H108.138ZM108.229 54.0001L108.225 56.0001L108.232 56.0001L108.229 54.0001ZM108.319 54H110.319V52H108.319V54ZM108.319 54.0003H106.319V55.9938L108.312 56.0003L108.319 54.0003ZM152.261 92.6073L150.269 92.7908L152.261 92.6073ZM152.261 122.431L154.21 122.881V122.881L152.261 122.431ZM146.746 158.791L144.754 158.61V158.61L146.746 158.791ZM131.716 180.601L133.007 182.13L131.716 180.601ZM129.995 182.078L128.662 180.588L129.995 182.078ZM127.234 184.601L128.59 186.071L127.234 184.601ZM118.761 191.475L117.922 189.659H117.922L118.761 191.475ZM108.319 192.7L108.311 190.7L106.319 190.708V192.7H108.319ZM108.319 192.7V194.7H110.319V192.7H108.319ZM108.229 192.7L108.233 190.7L108.225 190.7L108.229 192.7ZM108.138 192.7H106.138V194.7H108.138V192.7ZM96.8584 193.291C97.6086 193.637 98.5473 193.868 99.4582 194.036C100.4 194.21 101.449 194.339 102.489 194.434C104.569 194.626 106.721 194.694 108.13 194.7L108.146 190.7C106.825 190.695 104.794 190.63 102.856 190.451C101.887 190.362 100.966 190.247 100.183 190.102C99.3678 189.952 98.8233 189.792 98.5347 189.659L96.8584 193.291ZM87.8666 186.071C89.4405 187.523 91.0823 189.038 92.5905 190.308C94.0568 191.543 95.5653 192.694 96.8584 193.291L98.5347 189.659C97.7805 189.311 96.6347 188.485 95.1671 187.249C93.7416 186.048 92.1701 184.599 90.5789 183.131L87.8666 186.071ZM85.128 183.569C86.0036 184.352 86.9239 185.201 87.8666 186.071L90.5789 183.131C89.641 182.266 88.6976 181.395 87.7952 180.588L85.128 183.569ZM83.4503 182.13C84.1256 182.7 84.6855 183.173 85.128 183.569L87.7952 180.588C87.3006 180.145 86.6911 179.631 86.0309 179.073L83.4503 182.13ZM67.7196 158.972C68.2199 164.475 71.0322 169.275 74.1924 173.129C77.3606 176.993 81.0271 180.084 83.4503 182.13L86.0309 179.073C83.5909 177.013 80.1918 174.138 77.2857 170.593C74.3716 167.039 72.1009 162.986 71.7031 158.61L67.7196 158.972ZM62.2472 122.881C63.4503 128.094 66.7055 147.818 67.7196 158.972L71.7031 158.61C70.6745 147.295 67.393 127.39 66.1448 121.981L62.2472 122.881ZM62.2045 92.4239C60.7734 107.961 60.9433 117.23 62.2472 122.881L66.1448 121.981C64.9975 117.01 64.7588 108.303 66.1876 92.7908L62.2045 92.4239ZM108.132 52.0003C77.7394 52.0993 63.6984 76.2041 62.2045 92.4239L66.1876 92.7908C67.5476 78.0252 80.3653 56.0908 108.145 56.0003L108.132 52.0003ZM110.138 54.0003V54H106.138V54.0003H110.138ZM108.138 56C108.167 56 108.196 56 108.225 56.0001L108.232 52.0001C108.201 52 108.17 52 108.138 52V56ZM108.319 52C108.288 52 108.256 52 108.225 52.0001L108.232 56.0001C108.261 56 108.29 56 108.319 56V52ZM110.319 54.0003V54H106.319V54.0003H110.319ZM108.312 56.0003C136.092 56.0908 148.909 78.0252 150.269 92.7908L154.253 92.4239C152.759 76.2041 138.718 52.0993 108.325 52.0003L108.312 56.0003ZM150.269 92.7908C151.698 108.303 151.46 117.01 150.312 121.981L154.21 122.881C155.514 117.23 155.684 107.961 154.253 92.4239L150.269 92.7908ZM150.312 121.981C149.064 127.39 145.783 147.295 144.754 158.61L148.738 158.972C149.752 147.818 153.007 128.094 154.21 122.881L150.312 121.981ZM144.754 158.61C144.356 162.986 142.085 167.039 139.171 170.593C136.265 174.138 132.866 177.013 130.426 179.073L133.007 182.13C135.43 180.084 139.096 176.993 142.265 173.129C145.425 169.275 148.237 164.475 148.738 158.972L144.754 158.61ZM130.426 179.073C129.766 179.631 129.157 180.145 128.662 180.588L131.329 183.569C131.772 183.173 132.331 182.7 133.007 182.13L130.426 179.073ZM128.662 180.588C127.759 181.395 126.816 182.266 125.878 183.131L128.59 186.071C129.533 185.201 130.454 184.352 131.329 183.569L128.662 180.588ZM125.878 183.131C124.287 184.599 122.715 186.048 121.29 187.249C119.822 188.485 118.677 189.311 117.922 189.659L119.599 193.291C120.892 192.694 122.4 191.543 123.867 190.308C125.375 189.038 127.017 187.523 128.59 186.071L125.878 183.131ZM117.922 189.659C117.634 189.792 117.089 189.952 116.274 190.102C115.491 190.247 114.571 190.362 113.601 190.451C111.663 190.63 109.632 190.695 108.311 190.7L108.327 194.7C109.736 194.694 111.888 194.626 113.968 194.434C115.008 194.339 116.057 194.21 116.999 194.036C117.91 193.868 118.849 193.637 119.599 193.291L117.922 189.659ZM110.319 192.7V192.7H106.319V192.7H110.319ZM108.225 194.7C108.256 194.7 108.288 194.7 108.319 194.7V190.7C108.29 190.7 108.262 190.7 108.233 190.7L108.225 194.7ZM108.225 190.7C108.195 190.7 108.167 190.7 108.138 190.7V194.7C108.169 194.7 108.201 194.7 108.233 194.7L108.225 190.7ZM110.138 192.7V192.7H106.138V192.7H110.138Z" fill="url(#paint4_linear_1251_25000)"/>
<path d="M108.138 190.943C107.168 190.943 106.381 191.73 106.381 192.7C106.381 193.671 107.168 194.458 108.138 194.458V190.943ZM118.761 191.475L118.024 189.879H118.024L118.761 191.475ZM131.167 183.388C131.891 182.741 131.953 181.63 131.305 180.906C130.658 180.183 129.547 180.121 128.823 180.768L131.167 183.388ZM146.125 78.3556C146.57 79.2183 147.63 79.557 148.493 79.1121C149.356 78.6671 149.694 77.6071 149.249 76.7443L146.125 78.3556ZM108.138 52.2424C107.168 52.2424 106.381 53.0293 106.381 54C106.381 54.9707 107.168 55.7576 108.138 55.7576V52.2424ZM108.319 194.458C109.289 194.458 110.076 193.671 110.076 192.7C110.076 191.73 109.289 190.943 108.319 190.943V194.458ZM97.6966 191.475L98.4331 189.879H98.4331L97.6966 191.475ZM86.4616 182.078L85.2897 183.388H85.2897L86.4616 182.078ZM69.7114 158.791L71.4617 158.632L69.7114 158.791ZM64.196 122.431L62.4834 122.826H62.4834L64.196 122.431ZM108.319 55.7576C109.289 55.7576 110.076 54.9707 110.076 54C110.076 53.0293 109.289 52.2424 108.319 52.2424V55.7576ZM108.138 194.458C109.507 194.458 111.685 194.395 113.805 194.206C114.865 194.111 115.934 193.983 116.891 193.809C117.82 193.641 118.76 193.411 119.497 193.071L118.024 189.879C117.699 190.029 117.112 190.197 116.265 190.35C115.446 190.499 114.49 190.615 113.492 190.705C111.496 190.883 109.425 190.943 108.138 190.943V194.458ZM119.497 193.071C121.099 192.331 123.125 190.667 125.083 188.936C127.008 187.232 129.355 185.009 131.167 183.388L128.823 180.768C126.754 182.62 124.812 184.482 122.754 186.303C120.728 188.095 119.078 189.392 118.024 189.879L119.497 193.071ZM149.249 76.7443C142.731 64.1051 129.426 52.2424 108.138 52.2424V55.7576C127.89 55.7576 140.101 66.6758 146.125 78.3556L149.249 76.7443ZM108.319 190.943C107.032 190.943 104.961 190.883 102.965 190.705C101.967 190.615 101.011 190.499 100.192 190.35C99.3452 190.197 98.7581 190.029 98.4331 189.879L96.96 193.071C97.6972 193.411 98.637 193.641 99.5657 193.809C100.523 193.983 101.592 194.111 102.652 194.206C104.772 194.395 106.95 194.458 108.319 194.458V190.943ZM98.4331 189.879C97.3791 189.392 95.7289 188.095 93.7032 186.303C91.6454 184.482 89.7027 182.62 87.6336 180.768L85.2897 183.388C87.1017 185.009 89.4487 187.232 91.3742 188.936C93.3318 190.667 95.3585 192.331 96.96 193.071L98.4331 189.879ZM87.6336 180.768C85.5629 178.916 81.8124 176.061 78.3222 172.172C74.8454 168.298 71.9218 163.693 71.4617 158.632L67.961 158.95C68.5222 165.124 72.0333 170.427 75.706 174.52C79.3652 178.597 83.4792 181.768 85.2897 183.388L87.6336 180.768ZM71.4617 158.632C70.434 147.326 67.1541 127.433 65.9086 122.036L62.4834 122.826C63.6892 128.051 66.946 147.786 67.961 158.95L71.4617 158.632ZM65.9086 122.036C64.7518 117.023 64.5173 108.282 65.9462 92.7685L62.4458 92.4461C61.0149 107.982 61.189 117.217 62.4834 122.826L65.9086 122.036ZM65.9462 92.7685C67.3171 77.8843 80.2589 55.7576 108.319 55.7576V52.2424C77.9568 52.2424 63.9347 76.2811 62.4458 92.4461L65.9462 92.7685Z" fill="url(#paint5_linear_1251_25000)"/>
<path opacity="0.7" d="M78.6399 85.4245L108.35 90.3017M78.6399 85.4245L108.35 68.5M78.6399 85.4245L71.1498 97.095M78.6399 85.4245L101.498 102.24M108.35 90.3017L137.864 85.4245M108.35 90.3017L101.498 102.24M108.35 90.3017L116.09 102.24M108.35 90.3017V68.5M137.864 85.4245L108.35 68.5M137.864 85.4245L145.179 97.095M137.864 85.4245L116.09 102.24M108.35 121.481L96.2327 136.68M108.35 121.481L120.271 136.68M108.35 121.481L101.498 102.24M108.35 121.481L116.09 102.24M108.35 121.481L92.4006 114.862M108.35 121.481L124.103 114.862M108.35 121.481L124.799 125.139M108.35 121.481L91.8781 125.139M96.2327 136.68H120.271M96.2327 136.68L78.5479 129.146M96.2327 136.68L108.35 148.132M96.2327 136.68L91.8781 125.139M96.2327 136.68L93.0471 150.224M120.271 136.68L137.341 129.146M120.271 136.68L108.35 148.132M120.271 136.68L124.799 125.139M120.271 136.68L123.5 150.224M80.6093 161.544L98.4973 159.106M80.6093 161.544L108.35 178.963M80.6093 161.544L77.2465 147.609M98.4973 159.106H117.135M98.4973 159.106L93.0471 150.224M98.4973 159.106L108.35 178.963M117.135 159.106L136.872 161.544M117.135 159.106L123.5 150.224M117.135 159.106L108.35 178.963M136.872 161.544L108.35 178.963M136.872 161.544L139.431 147.609M69.2871 119.043L78.5479 129.146M69.2871 119.043L77.2465 147.609M69.2871 119.043L71.1498 97.095M69.2871 119.043L77.9431 118.346M78.5479 129.146L77.2465 147.609M78.5479 129.146L91.8781 125.139M78.5479 129.146L77.9431 118.346M77.2465 147.609L93.0471 150.224M147.444 119.043L137.341 129.146M147.444 119.043L139.431 147.609M147.444 119.043L138.734 118.346M147.444 119.043L145.179 97.095M137.341 129.146L139.431 147.609M137.341 129.146L124.799 125.139M137.341 129.146L138.734 118.346M139.431 147.609L123.5 150.224M101.498 102.24L92.4006 114.862M101.498 102.24L71.1498 97.095M101.498 102.24H116.09M92.4006 114.862L71.1498 97.095M92.4006 114.862L77.9431 118.346M71.1498 97.095L77.9431 118.346M116.09 102.24L145.179 97.095M116.09 102.24L124.103 114.862M145.179 97.095L124.103 114.862M145.179 97.095L138.734 118.346M93.0471 150.224L108.35 148.132M108.35 148.132L123.5 150.224M124.103 114.862L138.734 118.346M77.9431 118.346L91.8781 125.139M124.799 125.139L138.734 118.346" stroke="url(#paint6_linear_1251_25000)" stroke-width="0.5"/>
<circle cx="108.305" cy="68.3935" r="1.3935" fill="#5672C8"/>
<circle cx="78.3443" cy="85.5981" r="1.3935" fill="#5672C8"/>
<circle cx="108.305" cy="90.475" r="1.3935" fill="#5672C8"/>
<circle cx="101.337" cy="101.972" r="1.3935" fill="#5672C8"/>
<circle cx="108.305" cy="121.48" r="1.3935" fill="#5672C8"/>
<circle cx="108.305" cy="147.956" r="1.3935" fill="#5672C8"/>
<circle cx="71.377" cy="97.7915" r="1.3935" fill="#5672C8"/>
<circle cx="77.9963" cy="118.345" r="1.3935" fill="#5672C8"/>
<circle cx="92.6278" cy="114.862" r="1.3935" fill="#5672C8"/>
<circle cx="91.9313" cy="125.313" r="1.3935" fill="#5672C8"/>
<circle cx="78.3443" cy="128.796" r="1.3935" fill="#5672C8"/>
<circle cx="76.9509" cy="147.26" r="1.3935" fill="#5672C8"/>
<circle cx="69.6352" cy="119.041" r="1.3935" fill="#5672C8"/>
<circle cx="80.7831" cy="160.847" r="1.3935" fill="#5672C8"/>
<circle cx="93.3248" cy="150.047" r="1.3935" fill="#5672C8"/>
<circle cx="96.1119" cy="136.112" r="1.3935" fill="#5672C8"/>
<circle cx="98.5504" cy="159.453" r="1.3935" fill="#5672C8"/>
<circle cx="108.305" cy="178.963" r="1.3935" fill="#5672C8"/>
</g>
<defs>
<linearGradient id="paint0_linear_1251_25000" x1="78.3481" y1="181.667" x2="78.3481" y2="212.932" gradientUnits="userSpaceOnUse">
<stop stop-color="#758CD2"/>
<stop offset="1" stop-color="#78BECE"/>
</linearGradient>
<linearGradient id="paint1_linear_1251_25000" x1="138.273" y1="181.667" x2="138.273" y2="212.932" gradientUnits="userSpaceOnUse">
<stop stop-color="#758CD2"/>
<stop offset="1" stop-color="#78BECE"/>
</linearGradient>
<linearGradient id="paint2_linear_1251_25000" x1="156.854" y1="108.386" x2="137.663" y2="134.393" gradientUnits="userSpaceOnUse">
<stop stop-color="#758CD2"/>
<stop offset="1" stop-color="#78BECE"/>
</linearGradient>
<linearGradient id="paint3_linear_1251_25000" x1="59.6635" y1="108.386" x2="78.8544" y2="134.393" gradientUnits="userSpaceOnUse">
<stop stop-color="#758CD2"/>
<stop offset="1" stop-color="#78BECE"/>
</linearGradient>
<linearGradient id="paint4_linear_1251_25000" x1="132.822" y1="47.8171" x2="133.073" y2="180.849" gradientUnits="userSpaceOnUse">
<stop stop-color="white"/>
<stop offset="1" stop-color="#78B8CF"/>
</linearGradient>
<linearGradient id="paint5_linear_1251_25000" x1="120.716" y1="55.6057" x2="76.8006" y2="180.788" gradientUnits="userSpaceOnUse">
<stop stop-color="#758CD2"/>
<stop offset="1" stop-color="#78BECE"/>
</linearGradient>
<linearGradient id="paint6_linear_1251_25000" x1="147.444" y1="119.139" x2="93.4296" y2="119.798" gradientUnits="userSpaceOnUse">
<stop stop-color="white" stop-opacity="0"/>
<stop offset="0.57632" stop-color="white" stop-opacity="0.32"/>
<stop offset="0.846166" stop-color="#768DD3"/>
</linearGradient>
</defs>
</svg>
