<svg width="262" height="163" viewBox="0 0 262 163" fill="none" xmlns="http://www.w3.org/2000/svg">
<rect y="163" width="163" height="262" rx="14.9565" transform="rotate(-90 0 163)" fill="url(#paint0_linear_32166_125707)"/>
<mask id="mask0_32166_125707" style="mask-type:alpha" maskUnits="userSpaceOnUse" x="0" y="0" width="262" height="163">
<rect y="163" width="163" height="262" rx="14.9565" transform="rotate(-90 0 163)" fill="white"/>
</mask>
<g mask="url(#mask0_32166_125707)">
<path fill-rule="evenodd" clip-rule="evenodd" d="M138.56 154.157C138.554 154.157 138.548 154.156 138.543 154.156L135.117 154.07C135.117 154.07 135.117 154.07 135.117 154.07C68.7922 152.403 10.6372 207.551 8.88709 276.711C8.88703 276.714 8.88697 276.717 8.88691 276.72C7.13535 346.89 63.3084 405.157 133.996 406.04L133.558 445.687L134.001 406.04C202.026 406.898 259.132 352.914 261.77 285.241L301.511 286.838L261.77 285.236C264.523 214.874 208.994 156.017 138.56 154.157ZM142.222 75.0245C256.193 78.939 345.723 174.468 341.267 288.435C341.267 288.437 341.267 288.439 341.267 288.441C336.955 398.984 244.204 486.643 133.121 485.244C133.119 485.244 133.117 485.244 133.115 485.244C17.9574 483.804 -73.5045 388.849 -70.6456 274.616L-70.6454 274.608C-67.8378 163.368 25.134 72.2132 136.75 74.8782C137.494 74.8884 138.239 74.9024 138.984 74.9203L140.109 74.9374C140.818 74.9482 141.523 74.9774 142.222 75.0245Z" fill="url(#paint1_linear_32166_125707)"/>
<path fill-rule="evenodd" clip-rule="evenodd" d="M303.198 247.075C325.15 247.957 342.255 266.389 341.403 288.244C337.094 398.788 244.345 486.447 133.262 485.049C133.26 485.049 133.259 485.049 133.257 485.049C18.1015 483.608 -73.3579 388.656 -70.4992 274.426L-70.499 274.417C-67.6914 163.18 25.2778 72.0279 136.891 74.6928C137.703 74.7039 138.517 74.7196 139.331 74.7399C161.293 75.2888 178.678 93.4598 178.16 115.326C177.643 137.192 159.419 154.473 137.457 153.924C136.891 153.91 136.327 153.899 135.764 153.892C135.595 153.89 135.427 153.887 135.259 153.883C68.935 152.215 10.7815 207.362 9.03147 276.521C9.03141 276.524 9.0313 276.526 9.03124 276.529C7.27974 346.697 63.4514 404.964 134.137 405.846L133.7 445.447L134.142 405.846C202.166 406.704 259.27 352.721 261.908 285.051C262.76 263.195 281.246 246.193 303.198 247.075Z" fill="url(#paint2_linear_32166_125707)"/>
</g>
<path fill-rule="evenodd" clip-rule="evenodd" d="M223.764 26.3032C223.764 26.3034 223.763 26.3036 223.763 26.3038L223.645 26.4419C223.645 26.4419 223.645 26.4419 223.645 26.4419C221.36 29.1147 221.706 33.3514 224.516 35.7361C224.516 35.7362 224.516 35.7363 224.516 35.7364C227.369 38.155 231.662 37.7925 234.06 34.9139L235.69 36.2578L234.061 34.9137C236.369 32.1438 236.037 27.9893 233.317 25.6178L234.711 24.0362L233.317 25.6176C230.49 23.1514 226.194 23.4677 223.764 26.3032ZM220.603 23.5063C224.573 18.9484 231.527 18.4596 236.106 22.454C236.106 22.4541 236.106 22.4542 236.106 22.4542C240.547 26.3282 241.086 33.0753 237.317 37.5985C237.317 37.5986 237.317 37.5987 237.317 37.5987C233.41 42.2882 226.416 42.8756 221.772 38.9381L221.772 38.9378C217.251 35.1024 216.575 28.2293 220.415 23.7265C220.44 23.6962 220.465 23.6661 220.491 23.636L220.529 23.5903C220.553 23.5615 220.578 23.5335 220.603 23.5063Z" fill="url(#paint3_linear_32166_125707)"/>
<path fill-rule="evenodd" clip-rule="evenodd" d="M223.521 23.3478C224.41 24.1005 224.518 25.4282 223.762 26.3132L217.93 33.1347L217.93 33.1347L212.09 39.967L212.09 39.9671L212.09 39.9672C209.386 43.1316 204.184 41.23 204.184 37.0753V29.2783C204.184 28.1165 205.13 27.1746 206.298 27.1746C207.466 27.1746 208.413 28.1165 208.413 29.2783V37.0753C208.413 37.1706 208.437 37.2079 208.451 37.226C208.473 37.2553 208.516 37.2926 208.582 37.3169C208.648 37.3411 208.705 37.3404 208.741 37.3321C208.763 37.3269 208.806 37.3144 208.868 37.242L210.479 38.6045C208.868 37.2417 208.868 37.2417 208.868 37.2417L208.868 37.2415L214.709 30.4091L214.709 30.4091L220.54 23.5876C221.296 22.7025 222.631 22.5952 223.521 23.3478Z" fill="white"/>
<path fill-rule="evenodd" clip-rule="evenodd" d="M233.121 22.6495C233.891 21.7759 235.227 21.6886 236.106 22.4545C240.547 26.3284 241.086 33.0757 237.317 37.599L237.317 37.5992C233.41 42.2886 226.416 42.8761 221.772 38.9385L221.772 38.9382C217.251 35.1028 216.575 28.2297 220.415 23.727C220.442 23.6939 220.47 23.661 220.498 23.6282C221.254 22.743 222.589 22.6354 223.479 23.3879C224.369 24.1404 224.477 25.468 223.72 26.3532C223.701 26.3761 223.682 26.3989 223.662 26.4218C223.657 26.4287 223.651 26.4355 223.645 26.4423C221.36 29.1152 221.706 33.3518 224.516 35.7366L224.516 35.7369C227.369 38.1554 231.662 37.7929 234.06 34.9144L235.689 36.2567L234.061 34.9141C236.369 32.1443 236.037 27.9897 233.317 25.6182C232.439 24.8523 232.351 23.5232 233.121 22.6495Z" fill="url(#paint4_linear_32166_125707)"/>
<path d="M206.294 25.2748C207.824 25.2748 209.065 24.0407 209.065 22.5183C209.065 20.9959 207.824 19.7617 206.294 19.7617C204.764 19.7617 203.523 20.9959 203.523 22.5183C203.523 24.0407 204.764 25.2748 206.294 25.2748Z" fill="white"/>
<path d="M215.221 130.653L209.249 144.816H205.352L202.427 133.509C202.251 132.817 202.096 132.553 201.555 132.268C200.672 131.784 199.204 131.345 197.924 131.059L198.012 130.653H204.282C205.077 130.653 205.794 131.18 205.982 132.092L207.527 140.289L211.357 130.653H215.232H215.221ZM230.475 140.19C230.486 136.454 225.276 136.245 225.32 134.575C225.32 134.07 225.817 133.531 226.877 133.389C227.407 133.323 228.864 133.268 230.508 134.026L231.148 131.026C230.265 130.708 229.117 130.4 227.705 130.4C224.062 130.4 221.501 132.323 221.479 135.081C221.457 137.124 223.311 138.256 224.702 138.937C226.137 139.629 226.612 140.08 226.612 140.695C226.612 141.651 225.464 142.069 224.404 142.08C222.55 142.113 221.479 141.585 220.618 141.19L219.956 144.299C220.817 144.695 222.406 145.035 224.051 145.046C227.914 145.046 230.453 143.145 230.464 140.201M240.078 144.827H243.489L240.52 130.653H237.374C236.667 130.653 236.071 131.059 235.807 131.696L230.287 144.827H234.151L234.923 142.717H239.648L240.089 144.827H240.078ZM235.972 139.805L237.915 134.487L239.03 139.805H235.972ZM220.486 130.653L217.439 144.816H213.752L216.81 130.653H220.497H220.486Z" fill="url(#paint5_linear_32166_125707)"/>
<defs>
<linearGradient id="paint0_linear_32166_125707" x1="71.5783" y1="425" x2="70.3948" y2="12.0686" gradientUnits="userSpaceOnUse">
<stop/>
<stop offset="1" stop-color="#666666"/>
</linearGradient>
<linearGradient id="paint1_linear_32166_125707" x1="274.347" y1="140.445" x2="152.718" y2="64.5302" gradientUnits="userSpaceOnUse">
<stop stop-opacity="0"/>
<stop offset="1" stop-color="#859BE0" stop-opacity="0.5"/>
</linearGradient>
<linearGradient id="paint2_linear_32166_125707" x1="189.592" y1="98.1455" x2="40.984" y2="146.282" gradientUnits="userSpaceOnUse">
<stop stop-color="#7A92DB"/>
<stop offset="1" stop-color="#6BC9E0"/>
</linearGradient>
<linearGradient id="paint3_linear_32166_125707" x1="231.412" y1="21.1097" x2="235.131" y2="41.5571" gradientUnits="userSpaceOnUse">
<stop stop-color="white"/>
<stop offset="1" stop-color="#78CFDE"/>
</linearGradient>
<linearGradient id="paint4_linear_32166_125707" x1="225.138" y1="23.3244" x2="232.628" y2="25.5015" gradientUnits="userSpaceOnUse">
<stop stop-color="#879EF7"/>
<stop offset="1" stop-color="#78BDCE" stop-opacity="0"/>
</linearGradient>
<linearGradient id="paint5_linear_32166_125707" x1="220.649" y1="130.4" x2="220.649" y2="145.046" gradientUnits="userSpaceOnUse">
<stop stop-color="#797A7D"/>
<stop offset="0.348958" stop-color="#E6E6E6"/>
<stop offset="0.490644" stop-color="#FBFCFF"/>
<stop offset="0.625" stop-color="#E0E1E4"/>
<stop offset="1" stop-color="#797A7D"/>
</linearGradient>
</defs>
</svg>
