<svg width="18" height="18" viewBox="0 0 18 18" fill="none" xmlns="http://www.w3.org/2000/svg">
<rect width="18" height="18" rx="9" fill="#D9261F"/>
<path d="M8.212 9.928L7.9 7.672V4.48H9.556V7.672L9.232 9.928H8.212ZM8.716 13.096C8.38 13.096 8.096 12.98 7.864 12.748C7.632 12.516 7.516 12.232 7.516 11.896C7.516 11.56 7.632 11.276 7.864 11.044C8.096 10.812 8.38 10.696 8.716 10.696C9.044 10.696 9.324 10.816 9.556 11.056C9.796 11.288 9.916 11.568 9.916 11.896C9.916 12.224 9.796 12.508 9.556 12.748C9.324 12.98 9.044 13.096 8.716 13.096Z" fill="white"/>
</svg>
