<svg width="180" height="180" viewBox="0 0 180 180" fill="none" xmlns="http://www.w3.org/2000/svg">
<mask id="path-1-inside-1_3431_35107" fill="white">
<path d="M46.1989 75.3999V60.7999C46.1989 36.637 53.4989 17 89.9989 17C126.499 17 133.799 36.637 133.799 60.7999V75.3999"/>
</mask>
<path d="M40.1989 75.3999C40.1989 78.7136 42.8852 81.3999 46.1989 81.3999C49.5126 81.3999 52.1989 78.7136 52.1989 75.3999H40.1989ZM127.799 75.3999C127.799 78.7136 130.485 81.3999 133.799 81.3999C137.113 81.3999 139.799 78.7136 139.799 75.3999H127.799ZM52.1989 75.3999V60.7999H40.1989V75.3999H52.1989ZM52.1989 60.7999C52.1989 49.0774 54.0264 39.8814 59.084 33.6027C63.9159 27.6043 72.7758 23 89.9989 23V11C70.722 11 57.6819 16.2142 49.7388 26.075C42.0215 35.6555 40.1989 48.3595 40.1989 60.7999H52.1989ZM89.9989 23C107.222 23 116.082 27.6043 120.914 33.6027C125.971 39.8814 127.799 49.0774 127.799 60.7999H139.799C139.799 48.3595 137.976 35.6555 130.259 26.075C122.316 16.2142 109.276 11 89.9989 11V23ZM127.799 60.7999V75.3999H139.799V60.7999H127.799Z" fill="url(#paint0_linear_3431_35107)" mask="url(#path-1-inside-1_3431_35107)"/>
<path d="M126.5 163H53.5C24.3 163 17 155.7 17 126.5V111.9C17 82.7001 24.3 75.4001 53.5 75.4001H126.5C155.7 75.4001 163 82.7001 163 111.9V126.5C163 155.7 155.7 163 126.5 163Z" stroke="url(#paint1_linear_3431_35107)" stroke-width="6" stroke-linecap="round"/>
<path d="M53.5 163C24.3 163 17 155.7 17 126.5V111.9C17 82.7001 24.3 75.4001 53.5 75.4001H126.5C155.7 75.4001 163 82.7001 163 111.9" stroke="url(#paint2_linear_3431_35107)" stroke-width="6" stroke-linecap="round"/>
<path d="M63.2933 125.61C66.735 125.61 69.525 122.82 69.525 119.378C69.525 115.936 66.735 113.146 63.2933 113.146C59.8517 113.146 57.0616 115.936 57.0616 119.378C57.0616 122.82 59.8517 125.61 63.2933 125.61Z" fill="#292929"/>
<path d="M81.0982 125.61C84.5399 125.61 87.3299 122.82 87.3299 119.378C87.3299 115.936 84.5399 113.146 81.0982 113.146C77.6565 113.146 74.8665 115.936 74.8665 119.378C74.8665 122.82 77.6565 125.61 81.0982 125.61Z" fill="#292929"/>
<path d="M98.9031 125.61C102.345 125.61 105.135 122.82 105.135 119.378C105.135 115.936 102.345 113.146 98.9031 113.146C95.4614 113.146 92.6714 115.936 92.6714 119.378C92.6714 122.82 95.4614 125.61 98.9031 125.61Z" fill="#292929"/>
<path d="M116.708 125.61C120.15 125.61 122.94 122.82 122.94 119.378C122.94 115.936 120.15 113.146 116.708 113.146C113.266 113.146 110.476 115.936 110.476 119.378C110.476 122.82 113.266 125.61 116.708 125.61Z" fill="#292929"/>
<defs>
<linearGradient id="paint0_linear_3431_35107" x1="89.9989" y1="12.5836" x2="113.267" y2="65.5824" gradientUnits="userSpaceOnUse">
<stop stop-color="#758CD2"/>
<stop offset="1" stop-color="#78BECE"/>
</linearGradient>
<linearGradient id="paint1_linear_3431_35107" x1="178.5" y1="47.2059" x2="79.6268" y2="131.022" gradientUnits="userSpaceOnUse">
<stop stop-color="white"/>
<stop offset="1" stop-color="#78BECE"/>
</linearGradient>
<linearGradient id="paint2_linear_3431_35107" x1="146" y1="77.1314" x2="158.22" y2="139.782" gradientUnits="userSpaceOnUse">
<stop stop-color="#758CD2"/>
<stop offset="1" stop-color="#78BECE"/>
</linearGradient>
</defs>
</svg>
