<svg width="108" height="28" viewBox="0 0 108 28" fill="none" xmlns="http://www.w3.org/2000/svg">
<path fill-rule="evenodd" clip-rule="evenodd" d="M26.7071 21.6668C26.7071 21.6668 26.503 22.6226 27.3957 22.7017C27.8471 22.7159 28.327 22.7159 28.8313 22.7159C32.0499 22.7159 34.9942 21.5468 35.0603 18.6749C35.1209 16.1296 32.8295 15.3624 30.0683 15.3624H28.12L26.7071 21.6668ZM41.3095 18.8153C41.3095 22.6243 38.0742 27.6496 26.8849 27.0312C25.5735 26.958 24.7677 26.8509 23.5848 26.5637C19.3701 25.5384 20.8527 20.6231 20.8527 20.6231L25.1412 1.60263C27.501 1.22263 30.1474 0.991875 32.8658 0.991875C38.8503 0.991875 42.8158 3.10249 42.8158 7.05254C42.8158 10.751 39.2042 12.7611 36.4703 13.2167C38.6368 13.3766 41.3095 15.0293 41.3095 18.8153ZM30.3681 5.40877L29.2863 10.3092C29.2863 10.3092 29.0174 11.3582 29.9339 11.3582H31.1959C34.4424 11.3582 36.6909 10.101 36.7475 7.88632C36.7933 6.05938 35.2018 5.26782 32.942 5.26782C31.9089 5.26782 30.8242 5.3374 30.3681 5.40877ZM68.6697 27.0998H65.1175L70.75 1.74382C73.0795 1.20562 75.5315 1.09916 78.3711 1.12295C85.3026 1.15031 88.48 3.77118 88.48 8.33973C88.48 12.5259 85.1461 18.6853 75.5594 18.6853C74.5775 18.6853 73.7331 18.574 73.1235 18.5336C73.1235 18.5336 72.3426 22.0591 71.8782 24.1363C71.293 26.7442 69.5784 27.0998 68.6697 27.0998ZM76.3753 5.59337L74.8094 12.6632C74.8094 12.6632 74.3046 14.1661 76.1071 14.1661C76.3295 14.1756 76.571 14.1821 76.8369 14.1821C80.8665 14.1512 82.9362 11.5232 82.9362 8.8024C82.9362 6.12563 81.0866 5.46729 78.86 5.46729C77.7229 5.46729 76.8695 5.52081 76.3753 5.59337ZM51.0562 15.8974C51.0562 19.8998 53.3809 22.4589 57.369 22.4589C59.011 22.4589 60.8053 22.1836 63.2251 20.4089L62.2766 24.6717C62.2766 24.6717 62.0132 26.0859 60.4413 26.6354C59.1645 27.1142 57.8175 27.3319 55.7758 27.3319C50.0887 27.3319 44.5389 24.5321 44.5389 16.2359C44.5389 8.47549 49.5118 0.587891 59.1116 0.587891C60.995 0.587891 62.3266 0.85313 64.0315 1.40324C66.6607 2.25129 66.9802 3.67502 66.8059 4.52842C66.6281 5.40205 66.0077 7.50137 66.0077 7.50137C64.3539 6.02411 61.4731 5.60841 59.8717 5.60841C53.7355 5.60841 51.0562 11.7701 51.0562 15.8974ZM10.5111 12.5845C8.36536 10.258 6.1019 8.85153 4.43077 8.04987C4.43077 8.04987 3.61662 7.64606 3.19141 7.41413C3.81109 6.02131 4.62643 5.02637 4.62643 5.02637C4.7418 4.87592 7.21162 1.97374 9.3841 2.99307C11.7569 4.06057 11.9984 8.96036 10.5111 12.5845ZM98.6629 12.5845C96.5171 10.258 94.2537 8.85153 92.5826 8.04987C92.5826 8.04987 91.7685 7.64606 91.3432 7.41413C91.9629 6.02131 92.7783 5.02637 92.7783 5.02637C92.8936 4.87592 95.3634 1.97374 97.5359 2.99307C99.9088 4.06057 100.15 8.96036 98.6629 12.5845Z" fill="#002A8D"/>
<path fill-rule="evenodd" clip-rule="evenodd" d="M17.8754 16.2883C15.562 19.9832 9.25103 24.1949 7.46275 24.8265C3.98489 26.2818 1.63044 23.583 1.42944 23.2999C0.780612 22.4644 0.623014 22.2877 0.309009 21.6781C0.247754 21.7792 6.9852 18.6452 9.39911 14.5904C12.0134 11.1078 12.2412 4.27639 9.38603 2.99182C10.2495 3.42656 12.2841 4.59456 14.1199 6.2306C15.9516 7.78338 17.5348 9.81966 17.5008 9.7935C17.6941 10.0558 19.9885 12.9116 17.8754 16.2883ZM105.653 9.7935C105.846 10.0558 108.14 12.9116 106.027 16.2883C103.714 19.9832 97.4029 24.1949 95.6146 24.8265C92.1367 26.2818 89.7823 23.583 89.5813 23.2999C88.9324 22.4644 88.7748 22.2877 88.4609 21.6781C88.3996 21.7792 95.1376 18.6452 97.5509 14.5904C100.165 11.1078 100.393 4.27639 97.5379 2.99182C98.4013 3.42656 100.436 4.59456 102.272 6.2306C104.103 7.78338 105.687 9.81966 105.653 9.7935Z" fill="#FF7800"/>
</svg>
