<svg width="130" height="34" viewBox="0 0 130 34" fill="none" xmlns="http://www.w3.org/2000/svg">
<path d="M24.6936 23.8025C19.639 22.5761 6.79177 29.4232 1 33H129C126.894 33 118.942 9.23972 110.517 3.10805C99.9867 -4.55655 85.7705 10.7726 80.5052 15.7546C75.24 20.7366 68.9217 14.9882 63.1299 10.7726C57.3382 6.55711 56.8116 15.7546 46.2811 23.8025C35.7506 31.8503 31.0119 25.3354 24.6936 23.8025Z" fill="url(#paint0_linear_32537_41432)"/>
<path d="M1 33C6.79177 29.4232 19.639 22.5761 24.6936 23.8025C31.0119 25.3354 35.7506 31.8503 46.2811 23.8025C56.8116 15.7546 57.3382 6.55711 63.1299 10.7726C68.9217 14.9882 75.24 20.7366 80.5052 15.7546C85.7705 10.7726 99.9867 -4.55655 110.517 3.10805C118.942 9.23972 126.894 33 129 33" stroke="#508591" stroke-width="1.5" stroke-linecap="round" stroke-linejoin="round"/>
<defs>
<linearGradient id="paint0_linear_32537_41432" x1="65" y1="1" x2="65" y2="33" gradientUnits="userSpaceOnUse">
<stop stop-color="#B5DDE4"/>
<stop offset="1" stop-color="#E1F1F4"/>
</linearGradient>
</defs>
</svg>
