<svg width="78" height="68" viewBox="0 0 78 68" fill="none" xmlns="http://www.w3.org/2000/svg">
<path d="M41.1583 10.3633C34.7726 10.3633 29.4325 14.8402 28.1055 20.8265" stroke="url(#paint0_linear_13997_87639)" stroke-width="4" stroke-linecap="round"/>
<path fill-rule="evenodd" clip-rule="evenodd" d="M41.2075 5.17859C30.9552 5.17859 22.8081 11.2043 22.7811 20.3624C22.7814 20.3776 22.7815 20.3929 22.7815 20.4082C22.7815 21.7889 21.6622 22.9082 20.2815 22.9082C13.3599 22.9082 7.66797 28.6405 7.66797 35.8124C7.66797 42.9843 13.3599 48.7166 20.2815 48.7166L20.3118 48.7168H31.4884C32.8691 48.7168 33.9884 49.8361 33.9884 51.2168C33.9884 52.5975 32.8691 53.7168 31.4884 53.7168H20.2812L20.2485 53.7166C10.4915 53.6984 2.66797 45.6444 2.66797 35.8124C2.66797 26.7795 9.27135 19.2474 17.9108 18.0686C19.2098 6.56987 30.0598 0.178589 41.2075 0.178589C53.0931 0.178589 61.9211 9.09354 62.3237 21.0056C70.2158 22.2161 76.2603 29.035 76.2603 37.2657C76.2603 46.3414 68.911 53.7005 59.8391 53.7166C59.8291 53.7167 59.8191 53.7168 59.8092 53.7168H48.6021C47.2213 53.7168 46.1021 52.5975 46.1021 51.2168C46.1021 49.8361 47.2213 48.7168 48.6021 48.7168H59.7817C59.7909 48.7167 59.8001 48.7166 59.8093 48.7166C66.1335 48.7166 71.2603 43.5899 71.2603 37.2657C71.2603 30.9415 66.1335 25.8147 59.8093 25.8147C58.4286 25.8147 57.3093 24.6954 57.3093 23.3147C57.3093 23.2676 57.3106 23.2208 57.3131 23.1743C57.3078 23.0836 57.3073 22.9917 57.312 22.8989C57.826 12.6171 50.7709 5.17859 41.2075 5.17859Z" fill="url(#paint1_linear_13997_87639)"/>
<path fill-rule="evenodd" clip-rule="evenodd" d="M22.7811 20.3624C22.8081 11.2043 30.9552 5.17859 41.2075 5.17859C47.0157 5.17859 51.7908 7.89612 54.5944 12.1847C55.35 13.3403 56.8993 13.6647 58.0549 12.9092C59.2106 12.1537 59.535 10.6043 58.7795 9.44867C55.0341 3.71963 48.6698 0.178589 41.2075 0.178589C30.0598 0.178589 19.2098 6.56987 17.9108 18.0686C9.27135 19.2474 2.66797 26.7795 2.66797 35.8124C2.66797 45.6444 10.4915 53.6984 20.2485 53.7166L20.2812 53.7168H31.4884C32.8691 53.7168 33.9884 52.5975 33.9884 51.2168C33.9884 49.8361 32.8691 48.7168 31.4884 48.7168H20.3118L20.2815 48.7166C13.3599 48.7166 7.66797 42.9843 7.66797 35.8124C7.66797 28.6405 13.3599 22.9082 20.2815 22.9082C21.6622 22.9082 22.7815 21.7889 22.7815 20.4082C22.7815 20.3929 22.7814 20.3776 22.7811 20.3624Z" fill="url(#paint2_linear_13997_87639)"/>
<path d="M40.0465 43.9109V57.8619C40.0465 58.183 40.3068 58.4432 40.6278 58.4432H46.2C46.7178 58.4432 46.9772 59.0694 46.611 59.4355L40.4576 65.589C40.2306 65.816 39.8625 65.816 39.6355 65.589L33.6523 59.6058" stroke="#3D3D3D" stroke-width="3.5" stroke-linecap="round" stroke-linejoin="round"/>
<defs>
<linearGradient id="paint0_linear_13997_87639" x1="42.3706" y1="9.20065" x2="25.8038" y2="23.7329" gradientUnits="userSpaceOnUse">
<stop stop-color="#758CD2"/>
<stop offset="1" stop-color="#3C69F3" stop-opacity="0"/>
</linearGradient>
<linearGradient id="paint1_linear_13997_87639" x1="36.7934" y1="-21.6554" x2="59.0976" y2="53.8262" gradientUnits="userSpaceOnUse">
<stop stop-color="white" stop-opacity="0.46"/>
<stop offset="1" stop-color="#78B9CF"/>
</linearGradient>
<linearGradient id="paint2_linear_13997_87639" x1="48.4486" y1="7.95509" x2="39.6037" y2="55.3104" gradientUnits="userSpaceOnUse">
<stop stop-color="#758CD2"/>
<stop offset="1" stop-color="#78B9CF"/>
</linearGradient>
</defs>
</svg>
