<svg width="56" height="56" viewBox="0 0 56 56" fill="none" xmlns="http://www.w3.org/2000/svg">
<path d="M27.929 51.3332C40.8157 51.3332 51.2624 40.8865 51.2624 27.9998C51.2624 15.1132 40.8157 4.6665 27.929 4.6665C15.0424 4.6665 4.5957 15.1132 4.5957 27.9998C4.5957 40.8865 15.0424 51.3332 27.929 51.3332Z" fill="black" stroke="black" stroke-width="1.5" stroke-linecap="round" stroke-linejoin="round"/>
<path d="M25.0127 33.9032V22.0965C25.0127 20.9765 24.546 20.5332 23.356 20.5332H20.3227C19.1327 20.5332 18.666 20.9765 18.666 22.0965V33.9032C18.666 35.0232 19.1327 35.4665 20.3227 35.4665H23.3327C24.546 35.4665 25.0127 35.0232 25.0127 33.9032Z" fill="white"/>
<path d="M37.3331 33.9032V22.0965C37.3331 20.9765 36.8664 20.5332 35.6764 20.5332H32.6664C31.4764 20.5332 31.0098 20.9765 31.0098 22.0965V33.9032C31.0098 35.0232 31.4764 35.4665 32.6664 35.4665H35.6764C36.8664 35.4665 37.3331 35.0232 37.3331 33.9032Z" fill="white"/>
</svg>
