<svg width="60" height="60" viewBox="0 0 60 60" fill="none" xmlns="http://www.w3.org/2000/svg">
<mask id="mask0_16446_96064" style="mask-type:alpha" maskUnits="userSpaceOnUse" x="0" y="0" width="60" height="60">
<rect width="60" height="60" fill="#D9D9D9"/>
</mask>
<g mask="url(#mask0_16446_96064)">
<circle cx="30.2958" cy="30.2958" r="27.2958" stroke="url(#paint0_linear_16446_96064)" stroke-width="4"/>
<path d="M21 26.5H32.5" stroke="black" stroke-width="1.5" stroke-miterlimit="10" stroke-linecap="round" stroke-linejoin="round"/>
<path d="M25 34.5H27" stroke="black" stroke-width="1.5" stroke-miterlimit="10" stroke-linecap="round" stroke-linejoin="round"/>
<path d="M29.5 34.5H33.5" stroke="black" stroke-width="1.5" stroke-miterlimit="10" stroke-linecap="round" stroke-linejoin="round"/>
<path d="M41 29.03V34.11C41 37.62 40.11 38.5 36.56 38.5H25.44C21.89 38.5 21 37.62 21 34.11V25.89C21 22.38 21.89 21.5 25.44 21.5H32.5" stroke="black" stroke-width="1.5" stroke-linecap="round" stroke-linejoin="round"/>
<path d="M35.5 24L37 25.5L41 21.5" stroke="black" stroke-width="1.5" stroke-linecap="round" stroke-linejoin="round"/>
<path d="M55.4115 40.7978C51.2287 50.5059 41.574 57.3023 30.3319 57.3023C15.2569 57.3023 3.03613 45.0815 3.03613 30.0065C3.03613 20.0347 8.38327 11.3119 16.3667 6.54883" stroke="url(#paint1_linear_16446_96064)" stroke-width="4" stroke-linecap="round"/>
</g>
<defs>
<linearGradient id="paint0_linear_16446_96064" x1="-6" y1="0.289063" x2="53.1481" y2="40.4524" gradientUnits="userSpaceOnUse">
<stop stop-color="white" stop-opacity="0.75"/>
<stop offset="1" stop-color="#78BECE"/>
</linearGradient>
<linearGradient id="paint1_linear_16446_96064" x1="29.2238" y1="2.71066" x2="54.1364" y2="41.75" gradientUnits="userSpaceOnUse">
<stop stop-color="#758CD2"/>
<stop offset="1" stop-color="#78BECE"/>
</linearGradient>
</defs>
</svg>
