<svg width="175" height="280" viewBox="0 0 175 280" fill="none" xmlns="http://www.w3.org/2000/svg">
<rect width="175" height="280" rx="12.1739" fill="url(#paint0_linear_1813_26070)"/>
<mask id="mask0_1813_26070" style="mask-type:alpha" maskUnits="userSpaceOnUse" x="0" y="0" width="175" height="280">
<rect width="175" height="280" rx="12.1739" fill="white"/>
</mask>
<g mask="url(#mask0_1813_26070)">
<path fill-rule="evenodd" clip-rule="evenodd" d="M20.853 137.765C20.8532 137.758 20.8534 137.751 20.8536 137.743L20.9589 133.414C20.9589 133.414 20.9589 133.414 20.9589 133.414C22.9987 49.5835 -47.087 -23.9214 -134.896 -26.1347C-134.9 -26.1348 -134.903 -26.1349 -134.907 -26.135C-223.998 -28.3501 -297.911 42.6478 -298.948 131.992L-349.286 131.437L-298.948 131.999C-299.959 217.978 -231.353 290.156 -145.431 293.492L-147.412 343.722L-145.424 293.492C-56.0881 296.972 18.5735 226.788 20.853 137.765ZM121.325 142.395C116.488 286.447 -4.69285 399.605 -149.393 393.971C-149.396 393.971 -149.398 393.971 -149.4 393.971C-289.754 388.518 -401.156 271.286 -399.509 130.885C-399.509 130.882 -399.509 130.88 -399.509 130.878C-397.815 -14.6742 -277.365 -130.274 -132.329 -126.659L-132.319 -126.658C8.9177 -123.108 124.758 -5.5961 121.505 135.479C121.493 136.419 121.476 137.361 121.454 138.303L121.433 139.725C121.421 140.621 121.384 141.511 121.325 142.395Z" fill="url(#paint1_linear_1813_26070)"/>
<path fill-rule="evenodd" clip-rule="evenodd" d="M-97.1185 345.785C-98.2127 373.532 -121.595 395.151 -149.345 394.074C-289.701 388.625 -401.107 271.392 -399.461 130.988C-399.461 130.986 -399.461 130.983 -399.461 130.981C-397.766 -14.5709 -277.316 -130.171 -132.28 -126.555L-132.27 -126.555C8.96645 -123.004 124.807 -5.49285 121.553 135.582C121.54 136.609 121.521 137.637 121.496 138.666C120.825 166.426 97.7746 188.399 70.0116 187.744C42.2487 187.09 20.2865 164.056 20.9578 136.296C20.9751 135.581 20.9879 134.867 20.9962 134.156C20.9986 133.943 21.0025 133.73 21.0077 133.517C23.0476 49.6868 -47.0382 -23.8181 -134.848 -26.0314C-134.851 -26.0315 -134.855 -26.0316 -134.858 -26.0317C-223.95 -28.2468 -297.862 42.7511 -298.9 132.095L-349.18 131.541L-298.9 132.102C-299.91 218.081 -231.304 290.259 -145.382 293.595C-117.633 294.672 -96.0243 318.039 -97.1185 345.785Z" fill="url(#paint2_linear_1813_26070)"/>
</g>
<path fill-rule="evenodd" clip-rule="evenodd" d="M37.9521 246.841C37.9519 246.841 37.9517 246.842 37.9515 246.842L37.8367 246.977C37.8367 246.977 37.8367 246.977 37.8367 246.977C35.6144 249.589 35.9501 253.728 38.6839 256.059C38.684 256.059 38.6841 256.059 38.6842 256.059C41.4587 258.422 45.6351 258.068 47.9675 255.255L49.5531 256.568L47.9677 255.255C50.2126 252.548 49.8898 248.489 47.2449 246.171L48.6006 244.626L47.2446 246.171C44.4949 243.761 40.3157 244.07 37.9521 246.841ZM34.878 244.108C38.7392 239.654 45.5029 239.177 49.9568 243.08C49.9569 243.08 49.9569 243.08 49.957 243.08C54.2774 246.866 54.8009 253.459 51.1351 257.879C51.135 257.879 51.1349 257.879 51.1349 257.879C47.335 262.461 40.5317 263.035 36.0152 259.188L36.0148 259.187C31.6174 255.439 30.9601 248.723 34.6943 244.323C34.7189 244.294 34.7437 244.264 34.7686 244.235L34.8059 244.19C34.8293 244.162 34.8534 244.135 34.878 244.108Z" fill="url(#paint3_linear_1813_26070)"/>
<path fill-rule="evenodd" clip-rule="evenodd" d="M37.7079 243.954C38.5733 244.689 38.6782 245.986 37.9423 246.851L32.2703 253.517L32.2703 253.517L26.5896 260.193L26.5895 260.193L26.5894 260.193C23.9589 263.286 18.8989 261.427 18.8989 257.368V249.749C18.8989 248.613 19.8198 247.693 20.9558 247.693C22.0919 247.693 23.0128 248.613 23.0128 249.749V257.368C23.0128 257.461 23.0366 257.497 23.0497 257.515C23.0708 257.543 23.1127 257.58 23.1772 257.604C23.2417 257.627 23.2973 257.627 23.3319 257.619C23.3534 257.613 23.395 257.601 23.4552 257.53L25.0224 258.862C23.4554 257.53 23.4554 257.53 23.4554 257.53L23.4556 257.53L29.1364 250.854L29.1364 250.854L34.8084 244.188C35.5443 243.323 36.8425 243.218 37.7079 243.954Z" fill="white"/>
<path fill-rule="evenodd" clip-rule="evenodd" d="M47.0541 243.27C47.803 242.417 49.1026 242.331 49.9568 243.08C54.2774 246.865 54.8009 253.458 51.1351 257.878L51.1349 257.879C47.335 262.461 40.5317 263.035 36.0152 259.187L36.0148 259.187C31.6174 255.439 30.9601 248.723 34.6943 244.323C34.7212 244.291 34.7482 244.259 34.7755 244.227C35.5113 243.362 36.8094 243.257 37.6749 243.992C38.5404 244.727 38.6456 246.025 37.9098 246.89C37.8909 246.912 37.8721 246.934 37.8535 246.957C37.848 246.963 37.8424 246.97 37.8367 246.977C35.6144 249.588 35.9501 253.728 38.6839 256.059L38.6842 256.059C41.4587 258.422 45.6351 258.068 47.9675 255.255L49.5513 256.567L47.9677 255.255C50.2126 252.548 49.8898 248.489 47.2448 246.171C46.3906 245.423 46.3052 244.124 47.0541 243.27Z" fill="url(#paint4_linear_1813_26070)"/>
<path d="M20.956 245.836C22.4444 245.836 23.6511 244.63 23.6511 243.143C23.6511 241.655 22.4444 240.449 20.956 240.449C19.4675 240.449 18.2609 241.655 18.2609 243.143C18.2609 244.63 19.4675 245.836 20.956 245.836Z" fill="white"/>
<g opacity="0.3">
<path d="M127.086 243.731L124.572 258.482H128.592L131.108 243.731H127.086Z" fill="white"/>
<path d="M121.201 243.748L117.264 253.807L116.844 252.288C116.068 250.458 113.863 247.83 111.275 246.174L114.876 258.475L119.129 258.467L125.46 243.745L121.201 243.748Z" fill="white"/>
<path d="M115.318 244.803C115.085 243.905 114.407 243.637 113.567 243.605H107.334L107.283 243.899C112.133 245.075 115.342 247.91 116.674 251.319L115.318 244.803Z" fill="white"/>
<path d="M139.254 246.559C140.569 246.539 141.523 246.826 142.263 247.124L142.626 247.295L143.17 244.098C142.374 243.799 141.126 243.478 139.568 243.478C135.596 243.478 132.796 245.479 132.774 248.346C132.749 250.465 134.769 251.647 136.295 252.354C137.861 253.077 138.387 253.537 138.379 254.184C138.367 255.171 137.13 255.624 135.976 255.624C134.366 255.624 133.511 255.402 132.19 254.852L131.672 254.616L131.107 257.917C132.048 258.33 133.784 258.684 135.586 258.703C139.811 258.703 142.558 256.726 142.587 253.663C142.604 251.987 141.532 250.708 139.209 249.658C137.803 248.974 136.942 248.519 136.951 247.828C136.951 247.215 137.681 246.559 139.254 246.559Z" fill="white"/>
<path d="M153.486 243.748H150.38C149.416 243.748 148.698 244.011 148.274 244.972L142.305 258.49H146.527C146.527 258.49 147.215 256.672 147.372 256.274C147.834 256.274 151.935 256.28 152.52 256.28C152.639 256.795 153.01 258.49 153.01 258.49H156.739L153.486 243.748ZM148.529 253.255C148.859 252.408 150.13 249.133 150.13 249.133C150.108 249.173 150.458 248.28 150.666 247.724L150.937 248.996C150.937 248.996 151.707 252.518 151.868 253.255H148.529Z" fill="white"/>
</g>
<path d="M121.738 35.9725L121.739 35.9734V34.8578C121.739 32.9837 121.27 31.6984 120.412 30.8453L121.738 35.9725ZM121.738 35.9725V39.8V40.1878H121.35H116.254H115.759L115.877 39.7069C115.951 39.4115 115.991 39.1159 115.991 38.8117V29.915V29.5272H116.379C118.264 29.5272 119.556 29.9926 120.412 30.8453L121.738 35.9725ZM121.738 53.2515V53.6394V58.5823C121.738 60.4573 121.27 61.7427 120.411 62.595L121.738 53.2515ZM121.738 53.2515L121.359 53.2609ZM121.738 53.2515L121.359 53.2609ZM121.359 53.2609L116.223 53.2523L115.722 53.2524L115.848 53.7371C115.931 54.0577 115.99 54.3558 115.99 54.6594V63.5251V63.9129M121.359 53.2609L121.739 54.7826L120.978 61.6304L115.99 63.9129M115.99 63.9129H116.378ZM115.99 63.9129H116.378ZM116.378 63.9129C118.262 63.9129 119.554 63.4475 120.411 62.595L116.378 63.9129ZM121.738 41.7771V41.3893H121.35H115.23H115.047L114.931 41.5299C114.393 42.1809 113.906 42.6306 113.366 42.9228C112.832 43.2121 112.219 43.3615 111.406 43.3666H105.444C104.312 43.345 102.996 42.8254 101.916 41.5291L101.801 41.3893H101.619H95.4965H95.1087V41.7771V51.6628V52.0507H95.4965H101.649H101.822L101.938 51.922C103.022 50.7144 104.055 50.1043 105.44 50.1043H111.407L111.417 50.1042C112.259 50.0836 112.841 50.2064 113.341 50.4774C113.848 50.7527 114.305 51.2008 114.862 51.9037L114.979 52.0507H115.167H121.35H121.738V51.6628V41.7771ZM114.778 29.9141V29.5262H114.391H109.417H109.03V29.9141V41.7763V42.1641H109.417H111.407C112.201 42.1641 113.061 41.7301 113.701 41.0941C114.339 40.4585 114.778 39.6017 114.778 38.8108V29.9141ZM114.391 63.9116H114.778V63.5237V54.658C114.778 53.8662 114.34 53.0105 113.7 52.3747C113.061 51.7397 112.2 51.3046 111.407 51.3046H109.417H109.03V51.6924V63.5237V63.9116H109.417H114.391ZM107.818 29.9141V29.5262H107.43H102.457H102.069V29.9141V38.8108C102.069 39.5643 102.464 40.4422 103.114 41.0931C103.763 41.7415 104.66 42.1641 105.44 42.1641H107.43H107.818V41.7763V29.9141ZM107.818 51.6939V51.3061H107.43H105.441C104.661 51.3061 103.763 51.7283 103.115 52.377C102.465 53.028 102.07 53.9067 102.07 54.6595V63.5252V63.913H102.458H107.43H107.818V63.5252V51.6939ZM101 53.7349L101.121 53.2525L100.624 53.2524L95.4967 53.2517L95.1088 53.2516V53.6395V58.5824C95.1088 60.4492 95.5425 61.7383 96.4044 62.5951C97.2633 63.449 98.5867 63.913 100.469 63.913H100.857V63.5252V54.6595C100.857 54.3606 100.919 54.0584 101 53.7349ZM100.593 40.1885H100.76L100.875 40.0669L100.876 40.0661L101.026 39.9072L100.968 39.6966C100.895 39.4341 100.856 39.1353 100.857 38.8125V29.9148V29.527H100.469C98.5875 29.527 97.2635 29.991 96.4045 30.8448C95.5424 31.7008 95.1088 32.9901 95.1088 34.8577V39.8006V40.1884H95.4966L100.593 40.1885Z" fill="#E6E6E6"/>
<path d="M121.738 35.9725L121.739 35.9734V34.8578C121.739 32.9837 121.27 31.6984 120.412 30.8453M121.738 35.9725L120.412 30.8453M121.738 35.9725V39.8V40.1878H121.35H116.254H115.759L115.877 39.7069C115.951 39.4115 115.991 39.1159 115.991 38.8117V29.915V29.5272H116.379C118.264 29.5272 119.556 29.9926 120.412 30.8453M121.738 53.2515V53.6394V58.5823C121.738 60.4573 121.27 61.7427 120.411 62.595M121.738 53.2515L120.411 62.595M121.738 53.2515L121.359 53.2609M120.411 62.595C119.554 63.4475 118.262 63.9129 116.378 63.9129M120.411 62.595L116.378 63.9129M121.359 53.2609L116.223 53.2523L115.722 53.2524L115.848 53.7371C115.931 54.0577 115.99 54.3558 115.99 54.6594V63.5251V63.9129M121.359 53.2609L121.739 54.7826L120.978 61.6304L115.99 63.9129M115.99 63.9129H116.378M103.115 52.377C103.763 51.7283 104.661 51.3061 105.441 51.3061H107.43H107.818V51.6939V63.5252V63.913H107.43H102.458H102.07V63.5252V54.6595C102.07 53.9067 102.465 53.028 103.115 52.377ZM103.115 52.377L103.335 52.5964M121.738 41.7771V41.3893H121.35H115.23H115.047L114.931 41.5299C114.393 42.1809 113.906 42.6306 113.366 42.9228C112.832 43.2121 112.219 43.3615 111.406 43.3666H105.444C104.312 43.345 102.996 42.8254 101.916 41.5291L101.801 41.3893H101.619H95.4965H95.1087V41.7771V51.6628V52.0507H95.4965H101.649H101.822L101.938 51.922C103.022 50.7144 104.055 50.1043 105.44 50.1043H111.407L111.417 50.1042C112.259 50.0836 112.841 50.2064 113.341 50.4774C113.848 50.7527 114.305 51.2008 114.862 51.9037L114.979 52.0507H115.167H121.35H121.738V51.6628V41.7771ZM114.778 29.9141V29.5262H114.391H109.417H109.03V29.9141V41.7763V42.1641H109.417H111.407C112.201 42.1641 113.061 41.7301 113.701 41.0941C114.339 40.4585 114.778 39.6017 114.778 38.8108V29.9141ZM114.391 63.9116H114.778V63.5237V54.658C114.778 53.8662 114.34 53.0105 113.7 52.3747C113.061 51.7397 112.2 51.3046 111.407 51.3046H109.417H109.03V51.6924V63.5237V63.9116H109.417H114.391ZM107.818 29.9141V29.5262H107.43H102.457H102.069V29.9141V38.8108C102.069 39.5643 102.464 40.4422 103.114 41.0931C103.763 41.7415 104.66 42.1641 105.44 42.1641H107.43H107.818V41.7763V29.9141ZM101 53.7349L101.121 53.2525L100.624 53.2524L95.4967 53.2517L95.1088 53.2516V53.6395V58.5824C95.1088 60.4492 95.5425 61.7383 96.4044 62.5951C97.2633 63.449 98.5867 63.913 100.469 63.913H100.857V63.5252V54.6595C100.857 54.3606 100.919 54.0584 101 53.7349ZM100.593 40.1885H100.76L100.875 40.0669L100.876 40.0661L101.026 39.9072L100.968 39.6966C100.895 39.4341 100.856 39.1353 100.857 38.8125V29.9148V29.527H100.469C98.5875 29.527 97.2635 29.991 96.4045 30.8448C95.5424 31.7008 95.1088 32.9901 95.1088 34.8577V39.8006V40.1884H95.4966L100.593 40.1885Z" stroke="#E6E6E6" stroke-width="0.775642"/>
<g opacity="0.3">
<path fill-rule="evenodd" clip-rule="evenodd" d="M133.392 49.0477C133.392 48.7577 133.491 48.5633 133.788 48.0804C134.284 47.2102 134.383 46.7273 134.383 45.6628C134.383 44.5998 134.284 44.1168 133.788 43.2467C133.69 43.0538 133.392 42.5694 133.392 42.2794C133.392 41.6993 133.887 41.1191 134.481 41.1191C134.977 41.1191 135.373 41.3135 135.771 42.0865C136.464 43.1495 136.86 44.4069 136.86 45.76C136.86 47.1131 136.464 48.4676 135.771 49.5307C135.373 50.1108 134.977 50.4008 134.481 50.4008C133.887 50.2079 133.392 49.6278 133.392 49.0477ZM137.554 51.1738C137.554 50.8838 137.653 50.6909 138.049 50.0136C138.842 48.5633 139.14 47.1131 139.14 45.5671C139.14 44.1168 138.842 42.6666 138.049 41.2163C137.653 40.539 137.554 40.249 137.554 39.9589C137.554 39.6689 137.95 38.9931 138.644 38.9931C139.338 38.9931 139.636 39.2831 140.23 40.4433C141.122 42.0865 141.518 43.6339 141.518 45.5671C141.518 47.5975 141.221 49.0477 140.132 51.0781C139.834 51.7539 139.437 52.334 138.744 52.334C138.049 52.2368 137.554 51.7539 137.554 51.1738V51.1738ZM142.014 53.3971C142.014 52.9141 142.311 52.5269 142.609 51.9468C143.599 49.9164 144.095 47.7903 144.095 45.6628C144.095 43.4396 143.599 41.312 142.51 39.186C142.113 38.413 142.014 38.0257 142.014 37.7357C142.014 37.3499 142.51 36.7698 143.203 36.7698C143.997 36.7698 144.194 37.3499 144.69 38.1229C145.68 40.0561 146.574 42.6666 146.574 45.6643C146.574 47.8875 146.078 50.2079 144.888 52.817C144.392 53.9772 143.896 54.5573 143.302 54.5573C142.51 54.5573 142.014 53.9772 142.014 53.3971V53.3971ZM146.375 55.6218C146.375 55.2345 146.574 54.8473 146.871 54.3644C148.357 51.6567 149.051 48.9506 149.051 45.5671C149.051 42.3765 148.456 39.8632 146.97 36.8655C146.771 36.3826 146.474 35.8997 146.474 35.5124C146.474 34.9323 146.97 34.4494 147.564 34.4494C148.257 34.4494 148.555 34.8352 149.051 35.8997C150.736 39.0902 151.429 42.1836 151.429 45.5671C151.429 49.0477 150.537 52.2383 148.952 55.3317C148.655 56.0075 148.357 56.782 147.466 56.782C146.97 56.782 146.375 56.2976 146.375 55.6218V55.6218Z" fill="#F0F1F5"/>
</g>
<defs>
<linearGradient id="paint0_linear_1813_26070" x1="123.641" y1="280" x2="39.9032" y2="-134.947" gradientUnits="userSpaceOnUse">
<stop/>
<stop offset="1" stop-color="#666666"/>
</linearGradient>
<linearGradient id="paint1_linear_1813_26070" x1="38.4198" y1="309.391" x2="134.103" y2="155.315" gradientUnits="userSpaceOnUse">
<stop stop-opacity="0"/>
<stop offset="1" stop-color="#859BE0" stop-opacity="0.5"/>
</linearGradient>
<linearGradient id="paint2_linear_1813_26070" x1="91.838" y1="202.194" x2="31.186" y2="14.152" gradientUnits="userSpaceOnUse">
<stop stop-color="#7A92DB"/>
<stop offset="1" stop-color="#6BC9E0"/>
</linearGradient>
<linearGradient id="paint3_linear_1813_26070" x1="45.3916" y1="241.766" x2="49.0412" y2="261.741" gradientUnits="userSpaceOnUse">
<stop stop-color="white"/>
<stop offset="0.0001" stop-color="white"/>
<stop offset="1" stop-color="#78CFDE"/>
</linearGradient>
<linearGradient id="paint4_linear_1813_26070" x1="39.2889" y1="243.93" x2="46.5796" y2="246.039" gradientUnits="userSpaceOnUse">
<stop stop-color="#879EF7"/>
<stop offset="1" stop-color="#78BDCE" stop-opacity="0"/>
</linearGradient>
</defs>
</svg>
