<svg width="375" height="271" viewBox="0 0 375 271" fill="none" xmlns="http://www.w3.org/2000/svg">
<g clip-path="url(#clip0_25112_57146)">
<path d="M-176.389 80.6582C-180.093 84.3622 -186.857 95.0679 -185.71 106.825C-184.276 121.521 -185.351 127.615 -155.6 144.462C-125.849 161.309 36.8872 255.223 44.0562 259.524C51.2252 263.826 71.2983 271.55 85.9947 264.901C102.968 257.223 205.717 191.778 208.943 189.627C217.187 184.131 221.847 162.385 214.678 153.065C208.943 145.609 205.836 142.073 205 141.236" stroke="#3D3D3D" stroke-width="1.07535"/>
<path d="M-184.635 96.0703C-184.994 100.013 -185.708 104.673 -179.978 113.634C-175.997 119.86 6.7744 225.471 35.8088 242.676C59.0363 256.441 75.8402 253.31 81.3364 250.92L208.027 172.044" stroke="#3D3D3D" stroke-width="1.07535"/>
<path d="M207.869 172.063C210.378 170.271 216.007 164.063 214.574 152.951" stroke="#3D3D3D" stroke-width="1.07535"/>
<path d="M-52.7273 7.63439L-172.327 75.9362C-179.054 79.7774 -179.078 89.4669 -172.371 93.342L53.8957 224.074C64.2052 230.031 76.925 229.967 87.1747 223.908L204.529 154.536C209.716 151.47 209.688 143.955 204.477 140.929L-24.8187 7.73695C-33.4381 2.73015 -44.0713 2.69108 -52.7273 7.63439Z" fill="white" stroke="#3D3D3D" stroke-width="1.07535"/>
<path d="M-50.903 10.9301L-169.603 79.6349C-173.419 81.844 -173.419 87.3541 -169.602 89.5626L57.6937 221.086C65.4491 225.574 75.009 225.585 82.7752 221.116L200.648 153.286C204.963 150.803 204.96 144.576 200.642 142.098L-27.9921 10.8878C-35.09 6.8144 -43.8202 6.83054 -50.903 10.9301Z" fill="white" stroke="#292929" stroke-width="1.07535"/>
<path d="M87.0187 95.7954L-20.846 158.21C-23.23 159.589 -23.2321 163.03 -20.8499 164.413L64.8075 214.119C69.2635 216.705 74.7643 216.701 79.2168 214.109L186.785 151.495C189.157 150.114 189.16 146.688 186.79 145.303L102.156 95.8289C97.4834 93.0973 91.7037 93.0845 87.0187 95.7954Z" fill="#E8E8E8"/>
<path d="M43.891 176.927C38.2409 173.665 37.2288 168.21 40.4563 161.903C43.6746 155.614 51.068 148.587 61.9022 142.331C72.7364 136.076 84.9086 131.808 95.8015 129.95C106.725 128.086 116.174 128.671 121.824 131.933C127.474 135.195 128.486 140.65 125.259 146.957C122.04 153.246 114.647 160.273 103.813 166.529C92.9786 172.784 80.8064 177.052 69.9135 178.91C58.9897 180.774 49.5411 180.189 43.891 176.927Z" fill="#3D3D3D" stroke="#3D3D3D" stroke-width="1.19986"/>
<path d="M91.654 160.124C82.011 159.388 74.937 155.188 73.6968 149.464" stroke="#F0F0F0" stroke-width="2.09975" stroke-linecap="round" stroke-linejoin="round"/>
<path d="M90.933 164.924C77.3418 163.887 67.3698 157.968 65.6234 149.9" stroke="#F0F0F0" stroke-width="2.09975" stroke-linecap="round" stroke-linejoin="round"/>
<path d="M93.8969 155.971C86.8228 155.438 81.6217 152.35 80.7232 148.151" stroke="#F0F0F0" stroke-width="2.09975" stroke-linecap="round" stroke-linejoin="round"/>
<path d="M95.2214 151.262C91.678 150.991 89.0838 149.452 88.6282 147.348" stroke="#F0F0F0" stroke-width="2.09975" stroke-linecap="round" stroke-linejoin="round"/>
<rect y="0.814453" width="227.096" height="270.186" fill="url(#paint0_linear_25112_57146)"/>
<path opacity="0.12" d="M102.765 146.406C97.2062 143.17 97.2251 137.956 102.807 134.76L200.942 78.5747C205.412 76.0157 212.643 76.0419 217.094 78.6331L386.335 177.163C390.786 179.754 390.771 183.929 386.301 186.488L293.731 239.488C285.076 244.444 271.073 244.393 262.454 239.375L102.765 146.406Z" fill="url(#paint1_linear_25112_57146)"/>
<rect width="134.053" height="214.484" rx="12" transform="matrix(0.86783 -0.496862 0.86421 0.503131 93.8711 119.648)" fill="#3D3D3D"/>
<rect width="134.053" height="214.484" rx="12" transform="matrix(0.86783 -0.496862 0.86421 0.503131 93.8711 117.5)" fill="url(#paint2_linear_25112_57146)"/>
<mask id="mask0_25112_57146" style="mask-type:alpha" maskUnits="userSpaceOnUse" x="99" y="54" width="291" height="168">
<rect width="134.053" height="214.484" rx="12" transform="matrix(0.86783 -0.496862 0.86421 0.503131 93.8711 117.5)" fill="white"/>
</mask>
<g mask="url(#mask0_25112_57146)">
<path fill-rule="evenodd" clip-rule="evenodd" d="M198.527 170.743C198.524 170.74 198.52 170.738 198.516 170.736L196.152 169.291C196.151 169.291 196.151 169.291 196.151 169.291C150.372 141.315 69.8299 139.916 19.2319 167.454C19.2298 167.455 19.2278 167.456 19.2258 167.457C-32.0939 195.408 -33.8986 242.333 15.5302 271.783L-13.0756 287.803L15.5341 271.785C63.0948 300.131 142.063 301.573 192.228 275.008L219.232 292.015L192.232 275.006C244.397 247.389 247.079 200.488 198.527 170.743ZM257.596 139.916C335.514 188.418 330.738 264.296 246.246 309.029C246.245 309.029 246.243 309.03 246.242 309.031C164.295 352.424 36.051 350.072 -41.6165 303.786C-41.6178 303.785 -41.6191 303.785 -41.6203 303.784C-122.144 255.804 -119.147 179.367 -35.5954 133.868L-35.5893 133.865C45.7894 89.5677 176.685 90.5827 253.826 137.605C254.345 137.915 254.863 138.227 255.378 138.542L256.163 139.012C256.657 139.308 257.135 139.609 257.596 139.916Z" fill="url(#paint3_linear_25112_57146)"/>
<path fill-rule="evenodd" clip-rule="evenodd" d="M248.657 276.501C263.574 285.896 262.532 300.467 246.331 309.046C164.384 352.442 36.1372 350.09 -41.5316 303.804C-41.5329 303.803 -41.5342 303.802 -41.5355 303.802C-122.059 255.822 -119.062 179.385 -35.5105 133.886L-35.5044 133.883C45.8743 89.5855 176.77 90.6006 253.91 137.623C254.478 137.962 255.043 138.303 255.605 138.646C270.767 147.909 270.109 162.488 254.137 171.21C238.165 179.931 212.926 179.493 197.764 170.23C197.373 169.991 196.981 169.755 196.588 169.52C196.47 169.45 196.353 169.38 196.236 169.309C150.457 141.332 69.9148 139.933 19.3168 167.472C19.3147 167.473 19.3127 167.474 19.3106 167.475C-32.009 195.426 -33.8137 242.351 15.6151 271.801L-12.9582 287.802L15.619 271.803C63.1796 300.148 142.148 301.591 192.313 275.026C208.514 266.446 233.741 267.107 248.657 276.501Z" fill="url(#paint4_linear_25112_57146)"/>
</g>
<path fill-rule="evenodd" clip-rule="evenodd" d="M282.509 198.189C282.509 198.19 282.509 198.19 282.509 198.19L282.522 198.286C282.522 198.286 282.522 198.286 282.522 198.286C282.774 200.138 285.738 201.606 289.098 201.463C289.098 201.463 289.098 201.463 289.098 201.463C292.507 201.318 295.049 199.592 294.737 197.62L296.661 197.523L294.737 197.62C294.438 195.723 291.536 194.281 288.243 194.394L288.121 193.283L288.243 194.394C284.82 194.512 282.246 196.222 282.509 198.189ZM278.656 198.306C278.275 195.12 282.455 192.362 288 192.171C288 192.171 288 192.171 288 192.171C293.378 191.985 298.09 194.327 298.58 197.426C298.58 197.426 298.58 197.426 298.58 197.426C299.087 200.638 294.944 203.449 289.395 203.685L289.394 203.685C283.99 203.914 279.107 201.576 278.677 198.459C278.673 198.438 278.67 198.417 278.668 198.397L278.663 198.365C278.66 198.345 278.658 198.326 278.656 198.306Z" fill="url(#paint5_linear_25112_57146)"/>
<path fill-rule="evenodd" clip-rule="evenodd" d="M280.434 197.169C281.496 197.123 282.425 197.583 282.508 198.196L283.15 202.924L283.15 202.924L283.794 207.659L283.794 207.659L283.794 207.659C284.092 209.852 279.498 211.062 276.811 209.497L271.767 206.561C271.015 206.123 271.018 205.418 271.773 204.986C272.529 204.553 273.75 204.558 274.502 204.995L279.545 207.931C279.607 207.967 279.647 207.972 279.667 207.974C279.7 207.977 279.752 207.975 279.811 207.96C279.87 207.944 279.906 207.923 279.924 207.907C279.935 207.897 279.954 207.876 279.947 207.826L281.871 207.743C279.947 207.826 279.947 207.826 279.947 207.826L279.947 207.826L279.304 203.09L279.304 203.09L278.662 198.362C278.579 197.749 279.372 197.215 280.434 197.169Z" fill="white"/>
<path fill-rule="evenodd" clip-rule="evenodd" d="M286.196 193.348C286.128 192.734 286.936 192.207 287.999 192.17C293.377 191.985 298.09 194.326 298.579 197.425L298.579 197.425C299.087 200.638 294.944 203.448 289.394 203.684L289.394 203.684C283.99 203.914 279.107 201.575 278.676 198.458C278.673 198.436 278.669 198.413 278.666 198.39C278.583 197.777 279.376 197.242 280.438 197.196C281.501 197.15 282.429 197.61 282.513 198.224C282.515 198.239 282.517 198.255 282.52 198.271C282.52 198.276 282.521 198.28 282.522 198.285C282.773 200.137 285.737 201.605 289.097 201.463L289.098 201.463C292.507 201.318 295.048 199.592 294.737 197.62L296.658 197.522L294.737 197.62C294.437 195.722 291.535 194.28 288.243 194.394C287.18 194.43 286.263 193.962 286.196 193.348Z" fill="url(#paint6_linear_25112_57146)"/>
<path d="M270.544 204.271C271.534 203.705 271.538 202.781 270.553 202.207C269.568 201.634 267.968 201.628 266.978 202.195C265.989 202.761 265.985 203.685 266.97 204.259C267.955 204.832 269.555 204.838 270.544 204.271Z" fill="white"/>
<path d="M339.851 162.997L345.674 171.286L342.906 172.871L332.792 169.383C332.175 169.168 331.878 169.122 331.29 169.223C330.319 169.383 328.964 169.798 327.851 170.201L327.625 169.996L332.079 167.446C332.644 167.123 333.529 167.049 334.31 167.35L341.234 170.113L337.106 164.568L339.859 162.992L339.851 162.997ZM357.467 160.738C354.819 159.188 350.97 161.221 349.814 160.512C349.455 160.303 349.425 159.878 350.076 159.388C350.406 159.145 351.402 158.53 353.109 158.174L351.432 156.673C350.578 156.9 349.544 157.24 348.54 157.814C345.952 159.296 345.5 161.133 347.444 162.283C348.881 163.138 351.003 162.852 352.475 162.568C353.986 162.271 354.644 162.264 355.081 162.519C355.761 162.914 355.242 163.554 354.497 163.99C353.203 164.758 352.067 164.975 351.174 165.161L352.914 166.717C353.807 166.531 355.178 166.025 356.354 165.361C359.099 163.789 359.552 161.97 357.467 160.747M367.585 158.751L370.008 157.363L357.824 152.706L355.589 153.986C355.088 154.273 354.953 154.684 355.218 155.055L360.629 162.733L363.373 161.162L362.423 159.975L365.779 158.053L367.592 158.746L367.585 158.751ZM361.099 158.343L358.699 155.353L363.271 157.1L361.099 158.343ZM343.591 160.855L351.493 167.955L348.874 169.454L340.98 162.35L343.599 160.851L343.591 160.855Z" fill="url(#paint7_linear_25112_57146)"/>
<path d="M198.593 90.2749L198.594 90.2749L197.856 89.845C196.615 89.1227 195.452 88.8058 194.317 88.8034C194.317 88.8034 195.636 88.9405 196.388 89.1626C197.406 89.463 198.593 90.2749 198.593 90.2749ZM198.593 90.2749L201.127 91.7501L201.383 91.8995L201.126 92.0471L197.738 93.9867L197.409 94.1753L197.169 93.9448C197.022 93.8031 196.853 93.6737 196.652 93.5565L190.763 90.1276L190.506 89.9782L190.764 89.8306C192.016 89.1133 193.183 88.8009 194.317 88.8034C194.317 88.8034 195.636 88.9405 196.388 89.1626C197.406 89.463 198.593 90.2749 198.593 90.2749ZM210.032 96.9344L210.288 97.0839L213.561 98.9889C214.802 99.7115 215.342 100.385 215.335 101.04C214.321 99.1388 212.557 98.4038 210.032 96.9344ZM210.032 96.9344L206.366 99.0338L206.033 99.2244L206.437 99.3634C206.705 99.4553 206.942 99.5477 207.143 99.6646L213.012 103.082L213.268 103.231M210.032 96.9344L211.046 97.5241C211.046 97.5241 214.796 99.3653 215.301 100.744C215.614 101.601 213.268 103.231 213.268 103.231M213.268 103.231L213.526 103.083L213.268 103.231ZM213.268 103.231L213.526 103.083L213.268 103.231ZM213.526 103.083C214.778 102.366 215.329 101.695 215.335 101.04C215.325 102.054 213.526 103.083 213.526 103.083ZM202.436 92.5121L202.179 92.3626L201.921 92.5102L197.852 94.8398L197.731 94.9091L197.747 95.0077C197.82 95.4634 197.794 95.822 197.628 96.1402C197.465 96.4547 197.156 96.7457 196.619 97.0572L192.656 99.3262C191.889 99.749 190.67 100.05 189.094 99.9607L188.925 99.9509L188.804 100.02L184.734 102.35L184.476 102.498L184.733 102.647L191.277 106.457L191.534 106.607L191.792 106.459L195.882 104.117L195.997 104.052L195.989 103.958C195.91 103.08 196.193 102.452 197.114 101.924L201.08 99.6536L201.087 99.6498C201.633 99.3214 202.101 99.1469 202.613 99.0612C203.133 98.9742 203.733 98.9729 204.569 99.0318L204.743 99.044L204.868 98.9725L208.979 96.6192L209.237 96.4716L208.98 96.3221L202.436 92.5121ZM189.956 90.5889L189.699 90.4394L189.441 90.587L186.135 92.4799L185.877 92.6275L186.134 92.7769L193.987 97.3487L194.243 97.4982L194.501 97.3506L195.824 96.5934C196.352 96.291 196.636 95.7965 196.641 95.3078C196.644 94.82 196.369 94.3226 195.845 94.0177L189.956 90.5889ZM212.204 103.839L212.462 103.692L212.205 103.542L206.336 100.125C205.812 99.8202 204.954 99.6572 204.108 99.6558C203.262 99.6543 202.402 99.8142 201.875 100.116L200.552 100.873L200.294 101.021L200.551 101.17L208.383 105.73L208.64 105.88L208.898 105.732L212.204 103.839ZM185.328 93.2382L185.072 93.0887L184.814 93.2363L181.508 95.1292L181.25 95.2768L181.507 95.4262L187.396 98.8551C187.895 99.1455 188.739 99.3332 189.602 99.3367C190.463 99.3396 191.339 99.1613 191.857 98.8642L193.18 98.107L193.438 97.9594L193.181 97.81L185.328 93.2382ZM199.747 101.632L199.49 101.483L199.232 101.63L197.91 102.387C197.391 102.684 197.074 103.189 197.073 103.685C197.072 104.183 197.39 104.673 197.889 104.963L203.758 108.38L204.015 108.529L204.272 108.382L207.578 106.489L207.836 106.342L207.579 106.192L199.747 101.632ZM196.566 105.014L196.327 104.782L195.996 104.971L192.587 106.922L192.329 107.07L192.586 107.219L195.858 109.124C197.094 109.844 198.236 110.175 199.376 110.178C200.512 110.18 201.699 109.855 202.95 109.138L203.208 108.991L202.951 108.841L197.082 105.424C196.885 105.309 196.726 105.169 196.566 105.014ZM187.327 99.9478L187.438 99.8842L187.434 99.7937L187.434 99.793L187.429 99.6745L187.251 99.6156C187.029 99.5419 186.805 99.4418 186.592 99.317L180.702 95.8878L180.445 95.7383L180.187 95.8859C178.936 96.602 178.363 97.2848 178.357 97.9408C178.351 98.5988 178.916 99.2607 180.153 99.9805L183.425 101.886L183.681 102.035L183.939 101.887L187.327 99.9478Z" fill="url(#paint8_linear_25112_57146)"/>
<path d="M198.593 90.2749L198.594 90.2749L197.856 89.845C196.615 89.1227 195.452 88.8058 194.317 88.8034M198.593 90.2749L201.127 91.7501L201.383 91.8995L201.126 92.0471L197.738 93.9867L197.409 94.1753L197.169 93.9448C197.022 93.8031 196.853 93.6737 196.652 93.5565L190.763 90.1276L190.506 89.9782L190.764 89.8306C192.016 89.1133 193.183 88.8009 194.317 88.8034M198.593 90.2749C198.593 90.2749 197.406 89.463 196.388 89.1626C195.636 88.9405 194.317 88.8034 194.317 88.8034M210.032 96.9344L210.288 97.0839L213.561 98.9889C214.802 99.7115 215.342 100.385 215.335 101.04M210.032 96.9344C212.557 98.4038 214.321 99.1388 215.335 101.04M210.032 96.9344L206.366 99.0338L206.033 99.2244L206.437 99.3634C206.705 99.4553 206.942 99.5477 207.143 99.6646L213.012 103.082L213.268 103.231M210.032 96.9344L211.046 97.5241C211.046 97.5241 214.796 99.3653 215.301 100.744C215.614 101.601 213.268 103.231 213.268 103.231M215.335 101.04C215.329 101.695 214.778 102.366 213.526 103.083M215.335 101.04C215.325 102.054 213.526 103.083 213.526 103.083M213.268 103.231L213.526 103.083M197.073 103.685C197.074 103.189 197.391 102.684 197.91 102.387L199.232 101.63L199.49 101.483L199.747 101.632L207.579 106.192L207.836 106.342L207.578 106.489L204.272 108.382L204.015 108.529L203.758 108.38L197.889 104.963C197.39 104.673 197.072 104.183 197.073 103.685ZM197.073 103.685L197.364 103.686M202.436 92.5121L202.179 92.3626L201.921 92.5102L197.852 94.8398L197.731 94.9091L197.747 95.0077C197.82 95.4634 197.794 95.822 197.628 96.1402C197.465 96.4547 197.156 96.7457 196.619 97.0572L192.656 99.3262C191.889 99.749 190.67 100.05 189.094 99.9607L188.925 99.9509L188.804 100.02L184.734 102.35L184.476 102.498L184.733 102.647L191.277 106.457L191.534 106.607L191.792 106.459L195.882 104.117L195.997 104.052L195.989 103.958C195.91 103.08 196.193 102.452 197.114 101.924L201.08 99.6536L201.087 99.6498C201.633 99.3214 202.101 99.1469 202.613 99.0612C203.133 98.9742 203.733 98.9729 204.569 99.0318L204.743 99.044L204.868 98.9725L208.979 96.6192L209.237 96.4716L208.98 96.3221L202.436 92.5121ZM189.956 90.5889L189.699 90.4394L189.441 90.587L186.135 92.4799L185.877 92.6275L186.134 92.7769L193.987 97.3487L194.243 97.4982L194.501 97.3506L195.824 96.5934C196.352 96.291 196.636 95.7965 196.641 95.3078C196.644 94.82 196.369 94.3226 195.845 94.0177L189.956 90.5889ZM212.204 103.839L212.462 103.692L212.205 103.542L206.336 100.125C205.812 99.8202 204.954 99.6572 204.108 99.6558C203.262 99.6543 202.402 99.8142 201.875 100.116L200.552 100.873L200.294 101.021L200.551 101.17L208.383 105.73L208.64 105.88L208.898 105.732L212.204 103.839ZM185.328 93.2382L185.072 93.0887L184.814 93.2363L181.508 95.1292L181.25 95.2768L181.507 95.4262L187.396 98.8551C187.895 99.1455 188.739 99.3332 189.602 99.3367C190.463 99.3396 191.339 99.1613 191.857 98.8642L193.18 98.107L193.438 97.9594L193.181 97.81L185.328 93.2382ZM196.566 105.014L196.327 104.782L195.996 104.971L192.587 106.922L192.329 107.07L192.586 107.219L195.858 109.124C197.094 109.844 198.236 110.175 199.376 110.178C200.512 110.18 201.699 109.855 202.95 109.138L203.208 108.991L202.951 108.841L197.082 105.424C196.885 105.309 196.726 105.169 196.566 105.014ZM187.327 99.9478L187.438 99.8842L187.434 99.7937L187.434 99.793L187.429 99.6745L187.251 99.6156C187.029 99.5419 186.805 99.4418 186.592 99.317L180.702 95.8878L180.445 95.7383L180.187 95.8859C178.936 96.602 178.363 97.2848 178.357 97.9408C178.351 98.5988 178.916 99.2607 180.153 99.9805L183.425 101.886L183.681 102.035L183.939 101.887L187.327 99.9478Z" stroke="#E6E6E6" stroke-width="0.291419"/>
<g opacity="0.5">
<g clip-path="url(#clip1_25112_57146)">
<path fill-rule="evenodd" clip-rule="evenodd" d="M214.996 90.8763C214.804 90.7645 214.741 90.6521 214.619 90.3528C214.373 89.8286 214.118 89.605 213.414 89.1947C212.71 88.785 212.325 88.6364 211.419 88.4898C211.226 88.453 210.707 88.3795 210.515 88.2677C210.131 88.0441 210.076 87.6323 210.471 87.406C210.801 87.2173 211.193 87.1415 211.969 87.2881C213.133 87.434 214.229 87.7679 215.125 88.2894C216.02 88.8109 216.654 89.4836 216.897 90.1572C217.017 90.532 216.946 90.7945 216.616 90.9832C216.093 91.1352 215.38 91.0999 214.996 90.8763ZM219.17 90.1115C218.978 89.9997 218.916 89.8879 218.731 89.4761C218.298 88.6153 217.536 87.9432 216.513 87.3474C215.553 86.7884 214.395 86.3426 212.907 86.0856C212.196 85.9753 211.938 85.901 211.746 85.7892C211.554 85.6775 211.37 85.2663 211.831 85.0025C212.293 84.7381 212.682 84.7367 213.846 84.9575C215.526 85.2513 216.814 85.697 218.094 86.4421C219.438 87.2246 220.2 87.8967 220.82 89.0938C221.07 89.4674 221.19 89.8422 220.729 90.1061C220.203 90.333 219.555 90.3351 219.17 90.1115ZM223.607 89.2711C223.287 89.0849 223.228 88.8225 223.042 88.4858C222.356 87.3263 221.279 86.3181 219.87 85.4981C218.398 84.6413 216.66 84.0101 214.529 83.6052C213.753 83.4586 213.431 83.3469 213.239 83.2351C212.984 83.0864 212.929 82.674 213.39 82.4102C213.918 82.1083 214.433 82.2568 215.274 82.3659C217.212 82.734 219.534 83.4001 221.519 84.5554C222.991 85.4122 224.197 86.4953 225.134 87.9535C225.572 88.5894 225.626 89.0017 225.231 89.228C224.705 89.5294 223.991 89.4946 223.607 89.2711ZM227.979 88.4687C227.722 88.3194 227.598 88.0946 227.476 87.7953C226.672 86.186 225.341 84.8792 223.101 83.5752C220.989 82.3455 218.93 81.6032 215.957 81.0136C215.506 80.9031 214.988 80.8301 214.732 80.6809C214.348 80.4573 214.358 80.0824 214.753 79.8561C215.214 79.5923 215.667 79.6278 216.701 79.8493C219.934 80.4375 222.442 81.3659 224.682 82.6699C226.986 84.0114 228.506 85.5805 229.5 87.376C229.75 87.7496 230.065 88.1613 229.472 88.5007C229.142 88.6895 228.426 88.7291 227.979 88.4687Z" fill="#F0F1F5"/>
</g>
</g>
</g>
<defs>
<linearGradient id="paint0_linear_25112_57146" x1="3.02193e-07" y1="118.439" x2="226.987" y2="110.053" gradientUnits="userSpaceOnUse">
<stop stop-color="white"/>
<stop offset="1" stop-color="#FFF9F9" stop-opacity="0"/>
</linearGradient>
<linearGradient id="paint1_linear_25112_57146" x1="197.658" y1="139.058" x2="262.332" y2="266.071" gradientUnits="userSpaceOnUse">
<stop stop-color="#292929"/>
<stop offset="1" stop-color="#292929" stop-opacity="0"/>
</linearGradient>
<linearGradient id="paint2_linear_25112_57146" x1="94.7111" y1="214.484" x2="30.5664" y2="-103.372" gradientUnits="userSpaceOnUse">
<stop/>
<stop offset="1" stop-color="#666666"/>
</linearGradient>
<linearGradient id="paint3_linear_25112_57146" x1="304.474" y1="221.021" x2="293.468" y2="137.197" gradientUnits="userSpaceOnUse">
<stop stop-opacity="0"/>
<stop offset="1" stop-color="#859BE0" stop-opacity="0.5"/>
</linearGradient>
<linearGradient id="paint4_linear_25112_57146" x1="274.495" y1="168.894" x2="176.271" y2="81.1108" gradientUnits="userSpaceOnUse">
<stop stop-color="#7A92DB"/>
<stop offset="1" stop-color="#6BC9E0"/>
</linearGradient>
<linearGradient id="paint5_linear_25112_57146" x1="284.095" y1="193.402" x2="293.573" y2="204.83" gradientUnits="userSpaceOnUse">
<stop stop-color="white"/>
<stop offset="0.0001" stop-color="white"/>
<stop offset="1" stop-color="#78CFDE"/>
</linearGradient>
<linearGradient id="paint6_linear_25112_57146" x1="281.47" y1="196.558" x2="285.738" y2="192.513" gradientUnits="userSpaceOnUse">
<stop stop-color="#879EF7"/>
<stop offset="1" stop-color="#78BDCE" stop-opacity="0"/>
</linearGradient>
<linearGradient id="paint7_linear_25112_57146" x1="343.528" y1="160.684" x2="348.711" y2="169.737" gradientUnits="userSpaceOnUse">
<stop stop-color="#797A7D"/>
<stop offset="0.348958" stop-color="#E6E6E6"/>
<stop offset="0.490644" stop-color="#FBFCFF"/>
<stop offset="0.625" stop-color="#E0E1E4"/>
<stop offset="1" stop-color="#797A7D"/>
</linearGradient>
<linearGradient id="paint8_linear_25112_57146" x1="185.475" y1="92.858" x2="196.809" y2="112.655" gradientUnits="userSpaceOnUse">
<stop stop-color="#797A7D"/>
<stop offset="0.348958" stop-color="#E6E6E6"/>
<stop offset="0.490644" stop-color="#FBFCFF"/>
<stop offset="0.625" stop-color="#E0E1E4"/>
<stop offset="1" stop-color="#797A7D"/>
</linearGradient>
<clipPath id="clip0_25112_57146">
<rect width="375" height="270.186" fill="white" transform="translate(0 0.814453)"/>
</clipPath>
<clipPath id="clip1_25112_57146">
<rect width="19.6188" height="19.6188" fill="white" transform="matrix(0.86783 -0.496862 0.86421 0.503131 201.729 86.0605)"/>
</clipPath>
</defs>
</svg>
