<svg width="133" height="143" viewBox="0 0 133 143" fill="none" xmlns="http://www.w3.org/2000/svg">
<path d="M117.635 19.8926L113.004 28.1802" stroke="#292929" stroke-width="2.63899" stroke-linecap="round" stroke-linejoin="round"/>
<path d="M117.277 31.6489L131.645 22.2461" stroke="#292929" stroke-width="2.63899" stroke-linecap="round" stroke-linejoin="round"/>
<path d="M117.649 37.6385L127.771 37.127" stroke="#292929" stroke-width="2.63899" stroke-linecap="round" stroke-linejoin="round"/>
<path d="M16.0118 19.8926L20.6421 28.1802" stroke="#292929" stroke-width="2.63899" stroke-linecap="round" stroke-linejoin="round"/>
<path d="M16.3687 31.6489L2.00006 22.2461" stroke="#292929" stroke-width="2.63899" stroke-linecap="round" stroke-linejoin="round"/>
<path d="M15.9976 37.6387L5.87515 37.1272" stroke="#292929" stroke-width="2.63899" stroke-linecap="round" stroke-linejoin="round"/>
<path d="M31.0005 98.4648C31.0005 102.883 34.5822 106.465 39.0005 106.465H95.0005C99.4188 106.465 103 102.883 103 98.4648V49.4648H31.0005V98.4648Z" stroke="url(#paint0_linear_25674_43948)" stroke-width="4" stroke-miterlimit="10"/>
<path d="M26.0005 39.4648C26.0005 36.1511 28.6868 33.4648 32.0005 33.4648H102C105.314 33.4648 108 36.1511 108 39.4648V49.4648H26.0005V39.4648Z" stroke="url(#paint1_linear_25674_43948)" stroke-width="4" stroke-miterlimit="10"/>
<path d="M67.1009 32.8861C67.1009 32.8861 68.0245 10.4668 80.4703 4.17109C92.916 -2.12457 96.1021 8.27582 95.6045 12.5722C95.116 16.7978 91.4817 29.4245 67.1001 32.8861H67.1009Z" stroke="url(#paint2_linear_25674_43948)" stroke-width="4" stroke-miterlimit="10"/>
<path d="M67.1811 32.5889C67.1811 32.5889 66.1473 10.1746 53.6703 3.93976C41.1933 -2.29505 38.059 8.12097 38.5772 12.4157C39.0871 16.6388 42.7831 29.2474 67.1811 32.5889Z" stroke="url(#paint3_linear_25674_43948)" stroke-width="4" stroke-miterlimit="10"/>
<path d="M24.8963 65.1988C21.0159 65.1996 18.463 69.2468 20.1336 72.7491L22.1957 77.0721C22.7561 78.2467 22.8626 79.5871 22.4949 80.8355L21.026 85.8234C20.0303 89.2043 22.5645 92.5925 26.089 92.5925L108.661 92.5925C112.076 92.5925 114.592 89.3979 113.792 86.0776L112.526 80.8285C112.225 79.5769 112.391 78.2581 112.994 77.1204L115.214 72.9305C117.077 69.4149 114.528 65.1805 110.549 65.1813L24.8963 65.1988Z" fill="white" stroke="url(#paint4_linear_25674_43948)" stroke-width="3.5" stroke-miterlimit="10"/>
<path d="M46.647 85.3133L44.2941 85.3133C44.2941 84.7967 44.3082 84.3224 44.3364 83.8904C44.374 83.4583 44.4163 83.0356 44.4632 82.6223C44.5196 82.2185 44.5759 81.8052 44.6323 81.3825C44.6886 80.9598 44.7309 80.5043 44.7591 80.0159C44.7967 79.5275 44.8154 78.9827 44.8154 78.3816L46.1257 78.3816C46.1257 78.9827 46.1398 79.5275 46.168 80.0159C46.2056 80.5043 46.2525 80.9645 46.3089 81.3966C46.3652 81.8193 46.4169 82.2325 46.4639 82.6364C46.5202 83.0403 46.5625 83.4583 46.5907 83.8904C46.6282 84.3318 46.647 84.8061 46.647 85.3133ZM45.4635 74.6762C45.0409 74.6762 44.7027 74.7936 44.4491 75.0284C44.1955 75.2538 44.0687 75.5638 44.0687 75.9583C44.0687 76.3527 44.1955 76.6674 44.4491 76.9022C44.7027 77.1276 45.0409 77.2404 45.4635 77.2404C45.8862 77.2404 46.2243 77.1276 46.4779 76.9022C46.7315 76.6674 46.8583 76.3527 46.8583 75.9583C46.8583 75.5638 46.7315 75.2538 46.4779 75.0284C46.2243 74.7936 45.8862 74.6762 45.4635 74.6762ZM57.6949 79.1142L57.6949 81.1571C57.5446 81.3262 57.3379 81.5093 57.075 81.7066C56.8213 81.9038 56.5114 82.087 56.1451 82.256C55.7788 82.4251 55.3702 82.5613 54.9193 82.6646C54.4779 82.7679 54.0082 82.8196 53.5104 82.8196C52.7402 82.8196 52.0405 82.7069 51.4112 82.4815C50.7819 82.2466 50.2418 81.9038 49.7909 81.453C49.3495 81.0021 49.0067 80.4526 48.7624 79.8045C48.5276 79.1565 48.4102 78.4144 48.4102 77.5785C48.4102 76.7519 48.5323 76.0146 48.7765 75.3665C49.0301 74.7184 49.3824 74.169 49.8332 73.7181C50.2841 73.2673 50.81 72.9244 51.4112 72.6896C52.0217 72.4548 52.6792 72.3374 53.3836 72.3374C54.0505 72.3374 54.6141 72.4548 55.0743 72.6896C55.5439 72.915 55.9243 73.2391 56.2155 73.6617C56.5067 74.0844 56.7133 74.5869 56.8354 75.1693L56.286 74.7607L56.5114 72.5065L57.6244 72.5065L57.6244 75.7328L56.3846 75.7328C56.2437 75.2726 56.0465 74.8734 55.7929 74.5353C55.5393 74.1877 55.2293 73.92 54.863 73.7322C54.4967 73.5349 54.0693 73.4363 53.5809 73.4363C53.13 73.4363 52.7215 73.5256 52.3551 73.704C51.9982 73.8731 51.693 74.1314 51.4394 74.4789C51.1951 74.8264 51.0073 75.2585 50.8758 75.7751C50.7537 76.2917 50.6926 76.8928 50.6926 77.5785C50.6926 78.2923 50.7584 78.9122 50.8899 79.4382C51.0214 79.9548 51.2139 80.3822 51.4675 80.7203C51.7211 81.0585 52.0264 81.3121 52.3833 81.4811C52.7496 81.6408 53.1629 81.7206 53.6231 81.7206C54.0176 81.7206 54.3511 81.6784 54.6235 81.5938C54.8959 81.5093 55.1166 81.4107 55.2856 81.298C55.4641 81.1759 55.5956 81.0726 55.6801 80.988L55.6801 79.1142C55.6801 78.8982 55.5768 78.7573 55.3702 78.6915C55.1729 78.6164 54.924 78.5788 54.6235 78.5788L54.3417 78.5788L54.3417 77.6208L58.7375 77.6208L58.7375 78.5788L58.5261 78.5788C58.2725 78.5788 58.0706 78.6164 57.9203 78.6915C57.77 78.7573 57.6949 78.8982 57.6949 79.1142ZM64.8014 77.973L64.8014 78.8465C64.3224 78.9122 63.9138 78.9921 63.5757 79.086C63.247 79.1705 62.9699 79.2692 62.7445 79.3819C62.519 79.4852 62.3453 79.6026 62.2232 79.7341C62.1011 79.8562 62.0118 79.9971 61.9555 80.1568C61.9085 80.3071 61.885 80.4714 61.885 80.6499C61.885 80.9035 61.9273 81.1101 62.0118 81.2698C62.0964 81.4201 62.2185 81.5328 62.3781 81.6079C62.5378 81.6831 62.7304 81.7206 62.9558 81.7206C63.1906 81.7206 63.4066 81.6643 63.6039 81.5516C63.8105 81.4389 64.0078 81.2698 64.1956 81.0444C64.3929 80.8096 64.5854 80.5137 64.7733 80.1568L64.8437 80.9317C64.6559 81.3262 64.4398 81.6596 64.1956 81.932C63.9514 82.195 63.6743 82.3969 63.3644 82.5378C63.0544 82.6693 62.6928 82.7351 62.2795 82.7351C61.7911 82.7351 61.3684 82.6646 61.0115 82.5237C60.6546 82.3734 60.3822 82.148 60.1943 81.8475C60.0065 81.5469 59.9126 81.1759 59.9126 80.7344C59.9126 80.3399 60.0018 79.9971 60.1803 79.7059C60.3587 79.4148 60.6405 79.1611 61.0256 78.9451C61.4201 78.7291 61.9273 78.5459 62.5472 78.3956C63.1671 78.236 63.9185 78.0951 64.8014 77.973ZM64.8296 82.5801L64.6606 81.0021L64.5619 80.988L64.5619 77.029C64.5619 76.766 64.5244 76.55 64.4492 76.3809C64.3741 76.2119 64.2426 76.0897 64.0547 76.0146C63.8763 75.9301 63.6227 75.8878 63.2939 75.8878C62.8243 75.8878 62.4345 75.9536 62.1245 76.0851C61.8146 76.2166 61.5939 76.3621 61.4624 76.5218C61.4154 76.4561 61.3966 76.3856 61.406 76.3105C61.4154 76.2353 61.4483 76.1602 61.5046 76.0851C61.561 76.0099 61.6408 75.9489 61.7441 75.9019C61.8475 75.8455 61.9696 75.8174 62.1104 75.8174L62.1104 77.4517L60.3634 77.4517L60.3634 75.6906C60.5043 75.5872 60.7109 75.4698 60.9833 75.3383C61.2651 75.2068 61.6126 75.0941 62.0259 75.0002C62.4486 74.8969 62.9323 74.8452 63.4771 74.8452C63.9467 74.8452 64.3694 74.8922 64.7451 74.9861C65.1302 75.0706 65.4589 75.2068 65.7313 75.3947C66.0131 75.5732 66.2291 75.808 66.3794 76.0991C66.5297 76.3903 66.6048 76.7425 66.6048 77.1558L66.6048 81.1571C66.6048 81.2604 66.6377 81.3449 66.7035 81.4107C66.7692 81.4764 66.8678 81.5234 66.9993 81.5516C67.1308 81.5798 67.2905 81.6079 67.4784 81.6361L67.5629 81.6643L67.5629 82.5801L64.8296 82.5801ZM68.3568 82.5801L68.3568 81.7347L68.385 81.7347C68.5822 81.7347 68.7513 81.716 68.8922 81.6784C69.0331 81.6314 69.1411 81.5563 69.2162 81.453C69.2914 81.3402 69.329 81.19 69.329 81.0021L69.329 76.4795C69.329 76.3668 69.2961 76.2823 69.2303 76.2259C69.174 76.1696 69.0801 76.1226 68.9486 76.0851C68.8265 76.0381 68.6715 75.9958 68.4836 75.9583L68.3568 75.9301L68.3568 75.0002L71.1464 75.0002L71.3155 76.6768L71.4 76.7191L71.4 81.6079C71.4 81.6361 71.4423 81.6596 71.5268 81.6784C71.6114 81.6972 71.7147 81.7113 71.8368 81.7206C71.9683 81.73 72.081 81.7347 72.1749 81.7347L72.2313 81.7347L72.2313 82.5801L68.3568 82.5801ZM77.3033 82.5801L73.4289 82.5801L73.4289 81.7347L73.4711 81.7347C73.5744 81.7347 73.6872 81.7347 73.8093 81.7347C73.9314 81.7253 74.0347 81.7113 74.1192 81.6925C74.2131 81.6643 74.2601 81.6361 74.2601 81.6079L74.2601 77.1981C74.2601 76.9539 74.2272 76.7566 74.1615 76.6063C74.1051 76.4467 74.0065 76.3246 73.8656 76.24C73.7247 76.1555 73.5369 76.1132 73.3021 76.1132C73.0391 76.1132 72.7855 76.179 72.5413 76.3105C72.297 76.4326 72.0528 76.6157 71.8086 76.8599C71.5738 77.1042 71.3296 77.4188 71.076 77.8039L71.1042 76.8036C71.339 76.3997 71.6067 76.0522 71.9072 75.761C72.2078 75.4698 72.5413 75.2444 72.9076 75.0847C73.2739 74.9251 73.6637 74.8452 74.077 74.8452C74.556 74.8452 74.9599 74.9298 75.2886 75.0988C75.6267 75.2679 75.885 75.5215 76.0635 75.8596C76.242 76.1884 76.3312 76.597 76.3312 77.0854L76.3312 81.0021C76.3312 81.19 76.3688 81.3402 76.4439 81.453C76.519 81.5563 76.6224 81.6314 76.7539 81.6784C76.8947 81.716 77.0638 81.7347 77.2611 81.7347L77.3033 81.7347L77.3033 82.5801ZM83.1969 77.973L83.1969 78.8465C82.7179 78.9122 82.3093 78.9921 81.9712 79.086C81.6424 79.1705 81.3654 79.2692 81.1399 79.3819C80.9145 79.4852 80.7407 79.6026 80.6186 79.7341C80.4965 79.8562 80.4073 79.9971 80.351 80.1568C80.304 80.3071 80.2805 80.4714 80.2805 80.6499C80.2805 80.9035 80.3228 81.1101 80.4073 81.2698C80.4918 81.4201 80.6139 81.5328 80.7736 81.6079C80.9333 81.6831 81.1258 81.7206 81.3513 81.7206C81.5861 81.7206 81.8021 81.6643 81.9994 81.5516C82.206 81.4389 82.4032 81.2698 82.5911 81.0444C82.7883 80.8096 82.9809 80.5137 83.1688 80.1568L83.2392 80.9317C83.0513 81.3262 82.8353 81.6596 82.5911 81.932C82.3469 82.195 82.0698 82.3969 81.7599 82.5378C81.4499 82.6693 81.0883 82.7351 80.675 82.7351C80.1866 82.7351 79.7639 82.6646 79.407 82.5237C79.0501 82.3734 78.7777 82.148 78.5898 81.8475C78.402 81.5469 78.308 81.1759 78.308 80.7344C78.308 80.3399 78.3973 79.9971 78.5757 79.7059C78.7542 79.4148 79.036 79.1611 79.4211 78.9451C79.8156 78.7291 80.3228 78.5459 80.9427 78.3956C81.5626 78.236 82.314 78.0951 83.1969 77.973ZM83.2251 82.5801L83.056 81.0021L82.9574 80.988L82.9574 77.029C82.9574 76.766 82.9198 76.55 82.8447 76.3809C82.7696 76.2119 82.6381 76.0897 82.4502 76.0146C82.2718 75.9301 82.0181 75.8878 81.6894 75.8878C81.2198 75.8878 80.83 75.9536 80.52 76.0851C80.2101 76.2166 79.9893 76.3621 79.8578 76.5218C79.8109 76.4561 79.7921 76.3856 79.8015 76.3105C79.8109 76.2353 79.8437 76.1602 79.9001 76.0851C79.9565 76.0099 80.0363 75.9489 80.1396 75.9019C80.2429 75.8455 80.365 75.8174 80.5059 75.8174L80.5059 77.4517L78.7589 77.4517L78.7589 75.6906C78.8998 75.5872 79.1064 75.4698 79.3788 75.3383C79.6606 75.2068 80.0081 75.0941 80.4214 75.0002C80.8441 74.8969 81.3278 74.8452 81.8726 74.8452C82.3422 74.8452 82.7649 74.8922 83.1406 74.9861C83.5257 75.0706 83.8544 75.2068 84.1268 75.3947C84.4086 75.5732 84.6246 75.808 84.7749 76.0991C84.9252 76.3903 85.0003 76.7425 85.0003 77.1558L85.0003 81.1571C85.0003 81.2604 85.0332 81.3449 85.0989 81.4107C85.1647 81.4764 85.2633 81.5234 85.3948 81.5516C85.5263 81.5798 85.686 81.6079 85.8738 81.6361L85.9584 81.6643L85.9584 82.5801L83.2251 82.5801ZM89.8096 72.126C89.8096 72.6333 89.7908 73.1076 89.7533 73.549C89.7251 73.9811 89.6828 74.3991 89.6265 74.803C89.5795 75.2068 89.5278 75.6248 89.4715 76.0569C89.4151 76.4795 89.3682 76.9351 89.3306 77.4235C89.3024 77.9119 89.2883 78.4567 89.2883 79.0578L87.978 79.0578C87.978 78.4567 87.9593 77.9119 87.9217 77.4235C87.8935 76.9351 87.8512 76.4795 87.7949 76.0569C87.7385 75.6342 87.6822 75.2209 87.6258 74.817C87.5789 74.4038 87.5366 73.9811 87.499 73.549C87.4708 73.1076 87.4568 72.6333 87.4568 72.126L89.8096 72.126ZM88.6261 82.7632C89.0488 82.7632 89.3869 82.6505 89.6405 82.4251C89.8942 82.1903 90.021 81.8756 90.021 81.4811C90.021 81.0866 89.8942 80.7767 89.6405 80.5513C89.3869 80.3164 89.0488 80.199 88.6261 80.199C88.2035 80.199 87.8653 80.3164 87.6117 80.5513C87.3581 80.7767 87.2313 81.0866 87.2313 81.4811C87.2313 81.8756 87.3581 82.1903 87.6117 82.4251C87.8653 82.6505 88.2035 82.7632 88.6261 82.7632Z" fill="black"/>
<circle cx="66.8229" cy="116.346" r="26.1174" fill="white"/>
<circle cx="66.764" cy="116.334" r="23.7538" fill="#3C5BB9"/>
<g filter="url(#filter0_d_25674_43948)">
<path d="M68.4708 120.036C69.0444 120.036 69.5032 120.015 69.8474 119.972C70.2058 119.929 70.4639 119.85 70.6217 119.735C70.7937 119.606 70.9013 119.413 70.9443 119.155L71.1164 117.778H72.665V122.338H62.2764V119.692C62.9934 119.262 63.6816 118.846 64.3412 118.445C65.0151 118.043 65.6317 117.635 66.1909 117.219C66.7645 116.803 67.2592 116.373 67.675 115.928C68.1052 115.47 68.435 114.982 68.6644 114.466C68.9082 113.95 69.0301 113.398 69.0301 112.81C69.0301 112.293 68.9512 111.878 68.7935 111.562C68.6501 111.232 68.4278 110.996 68.1267 110.852C67.8256 110.695 67.4599 110.616 67.0298 110.616C66.6283 110.616 66.2555 110.688 65.9113 110.831C65.5815 110.96 65.2804 111.139 65.008 111.369C64.7499 111.584 64.5276 111.827 64.3412 112.1C64.3556 111.971 64.3699 111.835 64.3842 111.691C64.4129 111.548 64.4559 111.412 64.5133 111.283C64.5706 111.154 64.6495 111.046 64.7499 110.96C64.8646 110.86 64.9936 110.802 65.137 110.788V113.261H62.513V110.917C62.7711 110.616 63.1296 110.322 63.5884 110.035C64.0616 109.748 64.6137 109.512 65.2446 109.325C65.8755 109.139 66.5638 109.046 67.3094 109.046C68.3705 109.046 69.2595 109.196 69.9764 109.497C70.7077 109.798 71.2598 110.229 71.6326 110.788C72.0197 111.347 72.2133 112.043 72.2133 112.874C72.2133 113.534 72.0412 114.165 71.6971 114.767C71.353 115.369 70.8869 115.943 70.299 116.488C69.7112 117.032 69.0444 117.549 68.2988 118.036C67.5531 118.509 66.7717 118.961 65.9543 119.391C65.137 119.807 64.334 120.201 63.5454 120.574C63.4881 120.574 63.445 120.538 63.4164 120.467C63.3877 120.395 63.3733 120.316 63.3733 120.23C63.3733 120.144 63.3805 120.08 63.3948 120.036H68.4708ZM79.5814 122.574C78.7785 122.574 78.04 122.417 77.3661 122.101C76.7065 121.786 76.1329 121.334 75.6454 120.746C75.1722 120.144 74.7994 119.427 74.527 118.595C74.2689 117.764 74.1398 116.832 74.1398 115.799C74.1398 114.767 74.2689 113.835 74.527 113.003C74.7994 112.172 75.1722 111.462 75.6454 110.874C76.1329 110.272 76.7065 109.813 77.3661 109.497C78.04 109.182 78.7785 109.024 79.5814 109.024C80.3844 109.024 81.1157 109.182 81.7753 109.497C82.4492 109.813 83.0228 110.272 83.496 110.874C83.9835 111.462 84.3563 112.172 84.6144 113.003C84.8868 113.835 85.0231 114.767 85.0231 115.799C85.0231 116.832 84.8868 117.764 84.6144 118.595C84.3563 119.427 83.9835 120.144 83.496 120.746C83.0228 121.334 82.4492 121.786 81.7753 122.101C81.1157 122.417 80.3844 122.574 79.5814 122.574ZM79.5814 121.004C79.9399 121.004 80.2554 120.904 80.5278 120.703C80.8146 120.488 81.0512 120.173 81.2376 119.757C81.424 119.327 81.5602 118.789 81.6462 118.144C81.7466 117.484 81.7968 116.703 81.7968 115.799C81.7968 114.896 81.7466 114.115 81.6462 113.455C81.5602 112.795 81.424 112.258 81.2376 111.842C81.0512 111.412 80.8146 111.096 80.5278 110.895C80.2554 110.68 79.9399 110.573 79.5814 110.573C79.223 110.573 78.9003 110.68 78.6136 110.895C78.3411 111.096 78.1117 111.412 77.9253 111.842C77.7389 112.258 77.5955 112.795 77.4951 113.455C77.4091 114.115 77.3661 114.896 77.3661 115.799C77.3661 116.703 77.4091 117.484 77.4951 118.144C77.5955 118.789 77.7389 119.327 77.9253 119.757C78.1117 120.173 78.3411 120.488 78.6136 120.703C78.9003 120.904 79.223 121.004 79.5814 121.004Z" fill="white"/>
</g>
<g filter="url(#filter1_d_25674_43948)">
<path d="M51.8628 118.089C52.2099 118.089 52.4882 118.053 52.6979 117.981C52.9148 117.901 53.0738 117.778 53.175 117.612C53.2763 117.439 53.3269 117.211 53.3269 116.929C53.3269 116.676 53.2726 116.47 53.1642 116.311C53.0558 116.145 52.9003 116.011 52.6979 115.91C52.5027 115.801 52.2749 115.711 52.0147 115.638C51.7544 115.559 51.4688 115.483 51.158 115.411C50.8254 115.331 50.5109 115.237 50.2145 115.129C49.9181 115.02 49.6542 114.883 49.4228 114.717C49.1987 114.543 49.0216 114.315 48.8914 114.033C48.7685 113.751 48.7071 113.397 48.7071 112.971C48.7071 112.479 48.8083 112.071 49.0107 111.745C49.2204 111.413 49.5168 111.163 49.9 110.997C50.2904 110.823 50.7639 110.737 51.3206 110.737C51.7906 110.737 52.181 110.805 52.4918 110.943C52.8099 111.08 53.063 111.301 53.251 111.604C53.4389 111.908 53.5727 112.302 53.6522 112.786L53.3594 112.309L53.5329 110.878H54.3354V113.177H53.4353C53.3413 112.822 53.2003 112.522 53.0124 112.277C52.8316 112.024 52.6075 111.836 52.34 111.713C52.0725 111.59 51.7652 111.528 51.4182 111.528C51.1001 111.528 50.8435 111.568 50.6483 111.648C50.4531 111.727 50.3121 111.85 50.2253 112.016C50.1458 112.175 50.106 112.371 50.106 112.602C50.106 112.841 50.153 113.036 50.247 113.188C50.341 113.332 50.4784 113.448 50.6591 113.535C50.8398 113.621 51.0531 113.701 51.2989 113.773C51.552 113.838 51.8339 113.907 52.1448 113.979C52.4774 114.059 52.7991 114.153 53.11 114.261C53.4281 114.362 53.71 114.5 53.9559 114.673C54.2089 114.847 54.4077 115.075 54.5523 115.356C54.7041 115.631 54.78 115.982 54.78 116.408C54.78 116.972 54.6644 117.439 54.433 117.807C54.2089 118.176 53.8872 118.451 53.4678 118.632C53.0485 118.805 52.5461 118.892 51.9604 118.892C51.4544 118.892 51.0097 118.82 50.6266 118.675C50.2434 118.538 49.9325 118.299 49.6939 117.959C49.4554 117.619 49.2963 117.153 49.2168 116.56L49.5204 117.037L49.3469 118.718H48.5119V116.126H49.477C49.5927 116.589 49.759 116.965 49.9759 117.254C50.2 117.543 50.4711 117.757 50.7892 117.894C51.1073 118.024 51.4652 118.089 51.8628 118.089ZM61.0757 110.303L56.0655 120.323H54.9159L59.9261 110.303H61.0757Z" fill="white"/>
</g>
<defs>
<filter id="filter0_d_25674_43948" x="62.2764" y="109.024" width="23.5147" height="15.0866" filterUnits="userSpaceOnUse" color-interpolation-filters="sRGB">
<feFlood flood-opacity="0" result="BackgroundImageFix"/>
<feColorMatrix in="SourceAlpha" type="matrix" values="0 0 0 0 0 0 0 0 0 0 0 0 0 0 0 0 0 0 127 0" result="hardAlpha"/>
<feOffset dx="0.768157" dy="1.53631"/>
<feComposite in2="hardAlpha" operator="out"/>
<feColorMatrix type="matrix" values="0 0 0 0 0 0 0 0 0 0 0 0 0 0 0 0 0 0 0.16 0"/>
<feBlend mode="normal" in2="BackgroundImageFix" result="effect1_dropShadow_25674_43948"/>
<feBlend mode="normal" in="SourceGraphic" in2="effect1_dropShadow_25674_43948" result="shape"/>
</filter>
<filter id="filter1_d_25674_43948" x="48.5117" y="110.303" width="13.3321" height="10.7884" filterUnits="userSpaceOnUse" color-interpolation-filters="sRGB">
<feFlood flood-opacity="0" result="BackgroundImageFix"/>
<feColorMatrix in="SourceAlpha" type="matrix" values="0 0 0 0 0 0 0 0 0 0 0 0 0 0 0 0 0 0 127 0" result="hardAlpha"/>
<feOffset dx="0.768157" dy="0.768157"/>
<feComposite in2="hardAlpha" operator="out"/>
<feColorMatrix type="matrix" values="0 0 0 0 0 0 0 0 0 0 0 0 0 0 0 0 0 0 0.2 0"/>
<feBlend mode="normal" in2="BackgroundImageFix" result="effect1_dropShadow_25674_43948"/>
<feBlend mode="normal" in="SourceGraphic" in2="effect1_dropShadow_25674_43948" result="shape"/>
</filter>
<linearGradient id="paint0_linear_25674_43948" x1="84.1224" y1="40.5586" x2="84.1224" y2="113.59" gradientUnits="userSpaceOnUse">
<stop stop-color="#758CD2"/>
<stop offset="1" stop-color="#78BECE"/>
</linearGradient>
<linearGradient id="paint1_linear_25674_43948" x1="67.0005" y1="33.4648" x2="65.5646" y2="56.6489" gradientUnits="userSpaceOnUse">
<stop stop-color="#768DD3"/>
<stop offset="1" stop-color="#79BFCF"/>
</linearGradient>
<linearGradient id="paint2_linear_25674_43948" x1="71.9036" y1="-4.72039" x2="81.5002" y2="32.8545" gradientUnits="userSpaceOnUse">
<stop stop-color="#79BECF"/>
<stop offset="1" stop-color="#768DD3"/>
</linearGradient>
<linearGradient id="paint3_linear_25674_43948" x1="43.3449" y1="-4.89514" x2="52.8525" y2="32.5889" gradientUnits="userSpaceOnUse">
<stop stop-color="#79BECF"/>
<stop offset="1" stop-color="#768DD3"/>
</linearGradient>
<linearGradient id="paint4_linear_25674_43948" x1="68.2714" y1="60.9902" x2="65.3659" y2="96.3949" gradientUnits="userSpaceOnUse">
<stop stop-color="#7697D2"/>
<stop offset="1" stop-color="#78B5CF"/>
</linearGradient>
</defs>
</svg>
