<svg width="94" height="94" viewBox="0 0 94 94" fill="none" xmlns="http://www.w3.org/2000/svg">
<mask id="mask0_3481_41105" style="mask-type:alpha" maskUnits="userSpaceOnUse" x="0" y="0" width="94" height="94">
<rect width="94" height="94" fill="#D9D9D9"/>
</mask>
<g mask="url(#mask0_3481_41105)">
<circle cx="47.5193" cy="46.7634" r="42.7634" stroke="url(#paint0_linear_3481_41105)" stroke-width="6"/>
<path d="M86.8107 63.918C80.2576 79.1274 65.1319 89.7749 47.5193 89.7749C23.9017 89.7749 4.75586 70.6291 4.75586 47.0115C4.75586 31.3892 13.133 17.7234 25.6404 10.2612" stroke="url(#paint1_linear_3481_41105)" stroke-width="6" stroke-linecap="round"/>
</g>
<path d="M62 38.6004H60.2167C59.7901 35.3898 58.2149 32.4438 55.7838 30.31C53.3528 28.1762 50.2314 27 47 27C43.7686 27 40.6472 28.1762 38.2162 30.31C35.7851 32.4438 34.2099 35.3898 33.7833 38.6004H32C30.6739 38.6004 29.4021 39.1284 28.4645 40.0683C27.5268 41.0082 27 42.2829 27 43.6121V48.6238C27 49.953 27.5268 51.2277 28.4645 52.1676C29.4021 53.1075 30.6739 53.6355 32 53.6355C33.3261 53.6355 34.5979 53.1075 35.5355 52.1676C36.4732 51.2277 37 49.953 37 48.6238V40.271C37 37.6126 38.0536 35.0631 39.9289 33.1834C41.8043 31.3036 44.3478 30.2476 47 30.2476C49.6522 30.2476 52.1957 31.3036 54.0711 33.1834C55.9464 35.0631 57 37.6126 57 40.271V55.306C57 56.6352 56.4732 57.91 55.5355 58.8498C54.5979 59.7897 53.3261 60.3177 52 60.3177H51.6917C51.2985 59.2031 50.5249 58.2637 49.5075 57.6655C48.4902 57.0673 47.2946 56.8489 46.1321 57.0488C44.9696 57.2487 43.9151 57.8541 43.1548 58.758C42.3946 59.6619 41.9776 60.8061 41.9776 61.9883C41.9776 63.1705 42.3946 64.3147 43.1548 65.2186C43.9151 66.1225 44.9696 66.7279 46.1321 66.9278C47.2946 67.1277 48.4902 66.9093 49.5075 66.3111C50.5249 65.7129 51.2985 64.7735 51.6917 63.6589H52C54.2101 63.6589 56.3298 62.7788 57.8926 61.2124C59.4554 59.6459 60.3333 57.5214 60.3333 55.306V53.6355H62C63.3261 53.6355 64.5978 53.1075 65.5355 52.1676C66.4732 51.2277 67 49.953 67 48.6238V43.6121C67 42.2829 66.4732 41.0082 65.5355 40.0683C64.5978 39.1284 63.3261 38.6004 62 38.6004ZM33.6667 48.6238C33.6667 49.0669 33.4911 49.4918 33.1785 49.8051C32.866 50.1184 32.442 50.2944 32 50.2944C31.558 50.2944 31.134 50.1184 30.8215 49.8051C30.5089 49.4918 30.3333 49.0669 30.3333 48.6238V43.6121C30.3333 43.169 30.5089 42.7441 30.8215 42.4308C31.134 42.1175 31.558 41.9415 32 41.9415H33.6667V48.6238ZM47 63.6589C46.6704 63.6589 46.3481 63.5609 46.074 63.3773C45.8 63.1938 45.5863 62.9328 45.4602 62.6276C45.3341 62.3223 45.301 61.9864 45.3654 61.6624C45.4297 61.3383 45.5884 61.0407 45.8215 60.807C46.0546 60.5734 46.3515 60.4143 46.6748 60.3498C46.9981 60.2854 47.3333 60.3185 47.6378 60.4449C47.9423 60.5713 48.2026 60.7855 48.3858 61.0602C48.5689 61.3349 48.6667 61.6579 48.6667 61.9883C48.6667 62.4314 48.4911 62.8563 48.1785 63.1696C47.866 63.4829 47.442 63.6589 47 63.6589ZM63.6667 48.6238C63.6667 49.0669 63.4911 49.4918 63.1785 49.8051C62.866 50.1184 62.442 50.2944 62 50.2944H60.3333V41.9415H62C62.442 41.9415 62.866 42.1175 63.1785 42.4308C63.4911 42.7441 63.6667 43.169 63.6667 43.6121V48.6238Z" fill="black"/>
<defs>
<linearGradient id="paint0_linear_3481_41105" x1="-9.20441" y1="0.0219978" x2="83.3212" y2="62.6754" gradientUnits="userSpaceOnUse">
<stop stop-color="white" stop-opacity="0.75"/>
<stop offset="1" stop-color="#78BECE"/>
</linearGradient>
<linearGradient id="paint1_linear_3481_41105" x1="45.7833" y1="4.2481" x2="84.8129" y2="65.4097" gradientUnits="userSpaceOnUse">
<stop stop-color="#758CD2"/>
<stop offset="1" stop-color="#78BECE"/>
</linearGradient>
</defs>
</svg>
