<svg width="164" height="168" viewBox="0 0 164 168" fill="none" xmlns="http://www.w3.org/2000/svg">
<ellipse cx="82.3121" cy="139.206" rx="81.6879" ry="28.0349" fill="url(#paint0_linear_14499_48825)"/>
<g opacity="0.7" filter="url(#filter0_f_14499_48825)">
<path d="M86.662 156.263L41.2262 138.379L78.4449 113.244L124.364 132.095L86.662 156.263Z" fill="url(#paint1_linear_14499_48825)"/>
</g>
<g opacity="0.79" filter="url(#filter1_f_14499_48825)">
<path d="M87.6289 156.747L40.2596 137.896L78.4451 113.244L123.881 132.579L87.6289 156.747Z" fill="url(#paint2_linear_14499_48825)"/>
</g>
<path d="M114.214 55.2421C114.214 54.7588 117.114 49.4418 118.081 48.4751C119.208 48.6362 121.754 49.0551 122.914 49.4418C124.364 49.9252 123.881 51.3753 123.398 51.8586C122.914 52.342 118.564 55.7255 117.597 56.2089C116.631 56.6922 116.147 55.7255 115.664 55.7255C115.18 55.7255 114.214 55.7255 114.214 55.2421Z" fill="url(#paint3_linear_14499_48825)"/>
<ellipse cx="51.8528" cy="92.3445" rx="2.90016" ry="3.38352" transform="rotate(-58.8673 51.8528 92.3445)" fill="url(#paint4_linear_14499_48825)"/>
<path d="M44.3916 75.6773C46.7118 76.064 49.2252 80.0275 50.192 81.961C48.903 80.833 46.3251 77.9968 44.3916 77.6104C41.9748 77.1274 40.0414 79.0602 38.1079 79.5435C36.1745 80.0269 34.2411 79.5435 32.3076 77.6104C30.3742 75.6773 27.9574 73.7432 26.0239 74.2272C24.4772 74.6144 23.1238 77.6105 22.6404 79.0602H17.8068C17.9679 78.0935 18.6769 75.58 20.2236 73.2598C22.1571 70.3597 24.5339 69.8757 27.474 69.877C30.8575 69.8784 33.2743 71.8104 33.7577 74.7092C34.0855 76.675 36.1745 77.6104 38.1079 77.6104C40.0414 77.6104 41.4915 75.1939 44.3916 75.6773Z" fill="url(#paint5_linear_14499_48825)"/>
<path d="M91.1433 69.5069C90.4974 71.7687 86.2758 73.8192 84.2457 74.5618C85.5118 73.4082 88.6205 71.1665 89.2224 69.289C89.9748 66.942 88.2724 64.803 88.0101 62.8274C87.7478 60.8518 88.4461 58.9852 90.5849 57.282C92.7236 55.5789 94.9179 53.3955 94.655 51.4199C94.4447 49.8393 91.6202 48.1567 90.2343 47.513L90.7793 42.7102C91.7217 42.9793 94.1392 43.9671 96.2701 45.7656C98.9338 48.0137 99.1467 50.4299 98.814 53.3512C98.4311 56.713 96.2389 58.8965 93.3041 59.05C91.3139 59.154 90.1489 61.1242 89.9309 63.0454C89.7129 64.9665 91.9505 66.6798 91.1433 69.5069Z" fill="url(#paint6_linear_14499_48825)"/>
<path d="M132.019 52.7542C125.252 54.6876 120.902 63.3881 120.902 63.8714C124.285 59.0378 127.669 55.0478 134.436 53.7209C138.26 52.971 145.553 51.3041 149.903 49.854C154.253 48.4039 159.644 42.7913 160.537 39.2201C162.471 31.4863 161.02 29.0695 161.02 28.5862C161.02 28.0393 156.831 26.1694 155.22 25.2026C155.704 27.1361 156.523 32.1839 156.187 34.8698C155.704 38.7367 153.287 42.1202 148.936 45.5038C144.586 48.8873 138.786 50.8207 132.019 52.7542Z" fill="url(#paint7_linear_14499_48825)"/>
<path d="M70.2283 65.3935C69.8417 64.6201 68.456 64.4268 67.8115 64.4268C67.0059 65.2324 65.3947 66.9402 65.3947 67.3269C65.3947 67.8103 69.745 70.2271 70.2283 69.7437C70.7117 69.2604 70.7117 66.3602 70.2283 65.3935Z" fill="url(#paint8_linear_14499_48825)"/>
<path d="M45.724 63.6397C45.1304 63.4978 44.397 64.1591 44.1046 64.5075C44.1745 65.3086 44.3665 66.9546 44.5755 67.1301C44.8368 67.3495 48.1176 66.0946 48.0756 65.6139C48.0337 65.1333 46.4659 63.8171 45.724 63.6397Z" fill="url(#paint9_linear_14499_48825)"/>
<path d="M125.331 66.3599C124.945 66.3599 124.526 66.6821 124.365 66.8432L122.915 68.2933C121.948 69.26 122.431 71.1935 122.915 71.6768C123.398 72.1602 126.298 71.1935 127.265 70.7101C128.231 70.2267 128.231 68.7767 127.748 68.7767C127.265 68.7767 125.815 66.3599 125.331 66.3599Z" fill="url(#paint10_linear_14499_48825)"/>
<path d="M33.4925 91.4952V86.1782C34.9426 86.1782 37.9394 86.2749 38.3261 86.6616C38.8095 87.1449 39.2928 89.5617 38.8095 90.0451C38.4228 90.4318 35.1037 91.1729 33.4925 91.4952Z" fill="url(#paint11_linear_14499_48825)"/>
<path d="M109.998 32.559C109.386 32.2533 107.098 32.0757 106.614 32.0757C105.648 32.0757 106.131 35.9426 106.131 36.9093C106.131 37.876 109.998 38.3594 110.965 37.876C111.931 37.3926 111.448 35.4592 111.448 34.4925C111.448 33.5258 110.965 33.0424 109.998 32.559Z" fill="url(#paint12_linear_14499_48825)"/>
<path d="M102.614 73.61C103.58 73.6104 106.48 70.2269 105.997 68.7764C105.514 68.293 102.13 68.7764 101.647 68.7764C101.164 68.7764 100.68 69.7435 101.164 71.6769C101.281 72.1459 101.93 73.6097 102.614 73.61Z" fill="url(#paint13_linear_14499_48825)"/>
<path d="M127.748 27.6906C126.975 28.0773 126.459 29.1407 126.298 29.6241C126.298 32.0409 127.748 32.0409 128.715 32.5242C129.681 33.0076 130.648 31.5575 130.648 30.5908C130.648 29.6241 131.132 28.174 131.132 27.6906C131.132 27.2073 128.715 27.2073 127.748 27.6906Z" fill="url(#paint14_linear_14499_48825)"/>
<path d="M121.364 85.1435C118.657 87.4636 116.369 92.0716 115.564 94.3273L114.597 95.7774C111.213 96.7441 105.123 97.1308 107.83 90.9438C111.848 81.7599 117.336 79.6654 120.397 77.8931L128.614 79.8265C127.326 80.3099 124.071 82.8233 121.364 85.1435Z" fill="url(#paint15_linear_14499_48825)"/>
<path d="M79.8951 130.167V86.6646L41.7097 95.365L41.2263 121.95L79.8951 130.167Z" fill="url(#paint16_linear_14499_48825)"/>
<path d="M124.364 91.0148L79.8952 86.6646V118.566L122.431 127.267L124.364 91.0148Z" fill="url(#paint17_linear_14499_48825)"/>
<g filter="url(#filter2_b_14499_48825)">
<circle cx="89.0598" cy="91.8724" r="4.78755" transform="rotate(-16.6683 89.0598 91.8724)" fill="url(#paint18_linear_14499_48825)"/>
</g>
<path d="M87.8549 93.5972C87.4895 93.5344 87.2129 93.3797 87.0252 93.1329C86.838 92.8831 86.7625 92.6167 86.7987 92.3337L87.4556 92.4466C87.4554 92.5927 87.5014 92.7141 87.5936 92.8108C87.6863 92.9044 87.8082 92.9642 87.9592 92.9902C88.0951 93.0135 88.2103 93.0038 88.3047 92.9609C88.3996 92.915 88.4557 92.8423 88.4728 92.7426C88.5034 92.5644 88.3822 92.4099 88.1093 92.2791L87.7867 92.121C87.5369 92.0004 87.3518 91.8473 87.2313 91.6618C87.1108 91.4763 87.0695 91.264 87.1075 91.0249C87.1578 90.732 87.2957 90.5178 87.521 90.3824C87.7469 90.244 88.023 90.2028 88.3491 90.2588C88.6783 90.3154 88.9285 90.4609 89.0996 90.6955C89.2713 90.9271 89.3411 91.1723 89.3091 91.4311L88.6567 91.319C88.6453 91.1865 88.601 91.0825 88.5237 91.007C88.4465 90.9316 88.3536 90.8845 88.2448 90.8658C88.124 90.8451 88.0197 90.8552 87.9318 90.896C87.8475 90.9344 87.7958 91.0001 87.7767 91.0932C87.7571 91.1894 87.7753 91.2733 87.8314 91.3452C87.8874 91.417 87.9816 91.4845 88.1137 91.5476L88.4718 91.7164C89.0011 91.9659 89.2232 92.3383 89.1381 92.8336C89.0904 93.1114 88.9467 93.323 88.7072 93.4685C88.4712 93.6114 88.1871 93.6543 87.8549 93.5972Z" fill="url(#paint19_linear_14499_48825)"/>
<path d="M89.0884 94.2662L91.4753 90.8518L92.037 90.9483L89.6502 94.3627L89.0884 94.2662Z" fill="url(#paint20_linear_14499_48825)"/>
<g filter="url(#filter3_b_14499_48825)">
<circle cx="91.8601" cy="102.976" r="6.04131" transform="rotate(-26.4159 91.8601 102.976)" fill="url(#paint21_linear_14499_48825)"/>
</g>
<path d="M92.0596 105.364L91.3317 105.725L91.8305 100.94L92.5583 100.579L92.0596 105.364ZM94.2276 104.338C93.9474 104.477 93.659 104.497 93.3623 104.397C93.0691 104.296 92.8537 104.107 92.7163 103.83C92.5771 103.55 92.5565 103.264 92.6545 102.972C92.7542 102.676 92.9442 102.458 93.2244 102.318C93.5012 102.181 93.7879 102.162 94.0846 102.262C94.3795 102.358 94.5966 102.546 94.7358 102.827C94.8733 103.103 94.8922 103.39 94.7924 103.687C94.6927 103.983 94.5044 104.2 94.2276 104.338ZM93.579 103.765C93.7017 103.807 93.8195 103.799 93.9323 103.743C94.045 103.687 94.1203 103.599 94.1582 103.478C94.1961 103.357 94.187 103.24 94.131 103.127C94.0749 103.014 93.9873 102.936 93.8679 102.893C93.7486 102.85 93.6325 102.857 93.5198 102.913C93.407 102.969 93.33 103.058 93.2887 103.181C93.2509 103.302 93.2599 103.419 93.316 103.532C93.372 103.645 93.4597 103.723 93.579 103.765ZM90.6656 103.986C90.3854 104.125 90.097 104.145 89.8003 104.045C89.5071 103.943 89.2918 103.754 89.1543 103.478C89.0151 103.197 88.9945 102.911 89.0925 102.62C89.1922 102.323 89.3822 102.105 89.6624 101.966C89.9392 101.829 90.2259 101.81 90.5226 101.91C90.8175 102.006 91.0346 102.194 91.1738 102.474C91.3113 102.751 91.3302 103.038 91.2304 103.334C91.1307 103.631 90.9424 103.848 90.6656 103.986ZM90.017 103.413C90.1397 103.455 90.2575 103.447 90.3703 103.391C90.483 103.335 90.5584 103.247 90.5962 103.126C90.6375 103.003 90.6301 102.885 90.5741 102.772C90.5181 102.659 90.4287 102.582 90.3059 102.541C90.1866 102.498 90.0706 102.505 89.9578 102.561C89.845 102.617 89.768 102.706 89.7267 102.829C89.6889 102.95 89.698 103.067 89.754 103.18C89.81 103.292 89.8977 103.37 90.017 103.413Z" fill="url(#paint22_linear_14499_48825)"/>
<g filter="url(#filter4_b_14499_48825)">
<circle cx="76.12" cy="101.843" r="5.0475" transform="rotate(16.132 76.12 101.843)" fill="url(#paint23_linear_14499_48825)"/>
</g>
<path d="M74.8936 103.425L74.2413 103.236L77.2517 100.572L77.904 100.761L74.8936 103.425ZM76.8077 104.018C76.5565 103.945 76.3679 103.795 76.2416 103.566C76.1184 103.338 76.0927 103.1 76.1645 102.851C76.2371 102.6 76.3859 102.413 76.611 102.289C76.84 102.162 77.08 102.136 77.3311 102.208C77.5792 102.28 77.7663 102.43 77.8926 102.659C78.0197 102.885 78.047 103.124 77.9743 103.375C77.9026 103.623 77.7522 103.81 77.5232 103.936C77.2942 104.063 77.0557 104.09 76.8077 104.018ZM76.7318 103.299C76.7841 103.394 76.8607 103.456 76.9618 103.485C77.0628 103.515 77.1592 103.503 77.2509 103.449C77.3426 103.396 77.4031 103.319 77.4323 103.218C77.4615 103.117 77.4516 103.02 77.4024 102.926C77.3532 102.832 77.2781 102.77 77.177 102.741C77.076 102.712 76.9781 102.723 76.8833 102.776C76.7916 102.829 76.7311 102.906 76.7019 103.007C76.6727 103.108 76.6827 103.205 76.7318 103.299ZM74.8142 101.789C74.5631 101.716 74.3744 101.565 74.2481 101.336C74.125 101.108 74.0993 100.87 74.171 100.622C74.2436 100.371 74.3925 100.184 74.6175 100.059C74.8465 99.9332 75.0866 99.9064 75.3377 99.979C75.5857 100.051 75.7729 100.201 75.8991 100.43C76.0262 100.656 76.0535 100.895 75.9809 101.146C75.9091 101.394 75.7587 101.581 75.5298 101.707C75.3008 101.833 75.0622 101.861 74.8142 101.789ZM74.7384 101.07C74.7906 101.165 74.8672 101.227 74.9683 101.256C75.0694 101.285 75.1657 101.273 75.2574 101.22C75.3522 101.168 75.4142 101.091 75.4434 100.99C75.4726 100.889 75.4611 100.791 75.4089 100.697C75.3597 100.603 75.2846 100.541 75.1835 100.512C75.0825 100.483 74.9846 100.494 74.8898 100.546C74.7981 100.6 74.7377 100.677 74.7084 100.778C74.6792 100.879 74.6892 100.976 74.7384 101.07Z" fill="url(#paint24_linear_14499_48825)"/>
<g filter="url(#filter5_b_14499_48825)">
<circle cx="75.8242" cy="90.0923" r="3.80392" transform="rotate(36.7778 75.8242 90.0923)" fill="url(#paint25_linear_14499_48825)"/>
</g>
<path d="M74.5396 90.8791L74.1298 90.5727L76.9606 89.4943L77.3704 89.8006L74.5396 90.8791ZM75.7318 91.8062C75.574 91.6883 75.481 91.5318 75.4528 91.3367C75.4266 91.1431 75.4717 90.9684 75.5882 90.8125C75.7062 90.6547 75.861 90.562 76.0526 90.5343C76.2477 90.5061 76.4241 90.551 76.5819 90.669C76.7378 90.7855 76.8298 90.9412 76.858 91.1363C76.8876 91.3294 76.8434 91.5048 76.7255 91.6626C76.609 91.8185 76.4532 91.9105 76.2582 91.9387C76.0631 91.9669 75.8877 91.9227 75.7318 91.8062ZM75.8693 91.2791C75.881 91.3598 75.9186 91.4239 75.9821 91.4714C76.0456 91.5189 76.1167 91.536 76.1955 91.5229C76.2743 91.5098 76.3374 91.4715 76.3849 91.408C76.4323 91.3445 76.4512 91.2731 76.4415 91.1939C76.4317 91.1146 76.3951 91.0513 76.3316 91.0038C76.2681 90.9563 76.196 90.9384 76.1153 90.9501C76.0365 90.9632 75.9734 91.0015 75.9259 91.065C75.8785 91.1285 75.8596 91.1999 75.8693 91.2791ZM74.9183 89.7044C74.7605 89.5864 74.6675 89.43 74.6393 89.2349C74.6131 89.0413 74.6582 88.8666 74.7747 88.7107C74.8927 88.5529 75.0475 88.4602 75.2392 88.4325C75.4342 88.4043 75.6106 88.4492 75.7684 88.5671C75.9243 88.6836 76.0163 88.8394 76.0445 89.0345C76.0741 89.2276 76.0299 89.403 75.912 89.5608C75.7955 89.7167 75.6397 89.8087 75.4447 89.8369C75.2496 89.8651 75.0742 89.8209 74.9183 89.7044ZM75.0558 89.1773C75.0675 89.258 75.1051 89.3221 75.1686 89.3696C75.2321 89.417 75.3032 89.4342 75.382 89.4211C75.4627 89.4095 75.5268 89.3719 75.5743 89.3084C75.6217 89.2449 75.6396 89.1728 75.628 89.0921C75.6182 89.0128 75.5816 88.9494 75.5181 88.902C75.4546 88.8545 75.3825 88.8366 75.3018 88.8483C75.223 88.8614 75.1599 88.8997 75.1124 88.9632C75.065 89.0267 75.0461 89.098 75.0558 89.1773Z" fill="url(#paint26_linear_14499_48825)"/>
<path d="M41.2263 138.382V95.3628L87.6289 105.997L86.6622 156.266L41.2263 138.382Z" fill="url(#paint27_linear_14499_48825)"/>
<path d="M122.431 132.583L86.662 156.267L87.6287 105.998L124.364 91.0137L122.431 132.583Z" fill="url(#paint28_linear_14499_48825)"/>
<path d="M60.5609 126.301C64.9112 131.135 64.1056 142.091 63.4611 147.569L54.2772 143.702C54.5995 141.769 54.7606 136.838 52.8272 132.585C50.4104 127.268 40.7432 124.368 33.9761 119.051C28.3943 114.665 24.6312 106.644 23.8256 102.616L32.526 98.2661C33.3316 100.844 35.7162 107.063 38.8097 111.317C42.6766 116.634 55.9881 121.22 60.5609 126.301Z" fill="url(#paint29_linear_14499_48825)"/>
<path d="M115.664 122.916C110.25 126.783 110.186 136.128 110.83 140.317L101.163 147.084C100.68 144.184 100.68 136.064 104.547 126.783C109.38 115.182 116.631 113.732 125.814 107.932C133.162 103.292 134.032 91.82 133.548 86.6642L140.799 82.314C140.96 83.6029 142.249 88.1143 141.282 95.848C140.083 105.441 133.065 112.766 128.715 115.182C124.364 117.599 122.431 118.083 115.664 122.916Z" fill="url(#paint30_linear_14499_48825)"/>
<path d="M81.3458 9.32497C82.7958 6.90816 83.7626 6.90816 84.2459 6.4248H86.1794L87.1461 7.87489L87.6294 11.7418L86.1794 16.092L77.4789 18.5088C78.2845 16.2531 80.351 10.9829 81.3458 9.32497Z" fill="url(#paint31_linear_14499_48825)"/>
<path d="M85.696 10.7752C86.4694 8.84179 85.2126 6.74649 84.2459 6.42425C88.1128 4.97417 91.013 7.39171 91.013 10.2903C91.013 13.6754 89.4018 14.6405 88.5962 15.6072L82.7958 16.574C83.6014 15.285 84.9226 12.7087 85.696 10.7752Z" fill="url(#paint32_linear_14499_48825)"/>
<path d="M66.8445 4.48854C65.2977 6.42198 63.9443 10.1277 63.461 12.2223L62.0109 20.4394H68.7779C68.6168 19.1505 68.5846 16.9592 69.7447 12.7057C70.9047 8.45209 74.7394 5.93862 76.5117 5.93862H77.9618L77.4784 2.07174L70.228 1.58838C69.7447 1.7495 68.3912 2.5551 66.8445 4.48854Z" fill="url(#paint33_linear_14499_48825)"/>
<path d="M76.0284 5.94125C75.6417 2.84775 71.6781 1.59229 69.7447 1.59229C72.1615 0.625568 77.1504 -0.376308 78.4452 0.140934C80.862 1.10644 81.8287 4.00781 82.3121 7.87469C82.6987 10.9682 80.862 15.6085 79.8953 17.5419C76.834 18.5086 71.0014 20.0554 72.1615 18.5086C73.6116 16.5752 76.5117 9.80814 76.0284 5.94125Z" fill="url(#paint34_linear_14499_48825)"/>
<path d="M40.7434 31.5612C38.4233 30.4012 33.0097 31.0779 30.5929 31.5612L29.6262 28.6586V25.2772C37.3599 21.4103 47.0271 26.4054 50.894 29.1444L46.5438 35.4281C45.577 34.6225 43.0636 32.7213 40.7434 31.5612Z" fill="url(#paint35_linear_14499_48825)"/>
<path d="M37.843 43.1612L43.6434 35.9108C41.7099 35.9108 37.0697 35.5241 33.9762 33.9773C30.8827 32.4306 29.787 27.5325 29.6259 25.2769L22.8589 33.9773C23.1811 34.7829 24.599 37.0708 27.6925 39.7777C30.786 42.4845 35.7485 43.1612 37.843 43.1612Z" fill="url(#paint36_linear_14499_48825)"/>
<path d="M55.7273 21.8922C55.3406 18.7987 51.0548 13.514 48.9602 11.2583L46.5434 14.1585L46.0601 17.0586L47.5102 24.7924L51.8604 27.6925C53.3105 27.0481 56.114 24.9857 55.7273 21.8922Z" fill="url(#paint37_linear_14499_48825)"/>
<path d="M40.743 23.8257C41.5163 28.4659 45.2543 31.5594 47.0267 32.5261L50.8936 31.0761C52.827 31.2372 55.5338 30.496 50.8936 26.2425C46.2533 21.9889 47.6712 14.4807 48.9601 11.2583L40.2596 16.0919C40.0985 16.7364 39.9696 19.1854 40.743 23.8257Z" fill="url(#paint38_linear_14499_48825)"/>
<circle cx="59.1112" cy="19.8197" r="7.2504" fill="url(#paint39_linear_14499_48825)"/>
<path d="M105.997 15.1216L56.6944 27.2056L31.5597 59.5907L80.3791 47.0233L105.997 15.1216Z" fill="url(#paint40_linear_14499_48825)"/>
<path d="M111.314 18.5051L80.379 50.8902L76.5121 46.0566L104.064 15.1216L111.314 18.5051Z" fill="url(#paint41_linear_14499_48825)"/>
<path d="M28.1764 58.6264L76.5124 46.0591L80.3792 50.8927L32.0432 64.9101L28.1764 58.6264Z" fill="url(#paint42_linear_14499_48825)"/>
<path d="M53.7942 21.8916L26.726 57.6602L32.043 64.9106L59.1112 31.0754L53.7942 21.8916Z" fill="url(#paint43_linear_14499_48825)"/>
<path d="M106.48 10.2891L53.794 21.8897L59.111 31.0735L111.314 18.5062L106.48 10.2891Z" fill="url(#paint44_linear_14499_48825)"/>
<g filter="url(#filter6_b_14499_48825)">
<circle cx="82.9698" cy="68.4119" r="31.8664" transform="rotate(-53.7257 82.9698 68.4119)" fill="url(#paint45_linear_14499_48825)"/>
</g>
<path d="M65.914 76.5493L62.1854 76.5493L69.9072 62.6693L61.9208 62.6693L61.9208 59.47L73.8282 59.47L73.8282 62.3085L65.914 76.5493ZM81.7657 76.8139C79.8894 76.8139 78.3579 76.1805 77.1712 74.9135C75.9844 73.6466 75.3911 72.0269 75.3911 70.0543L75.3911 65.9168C75.3911 63.9603 75.9844 62.3486 77.1712 61.0817C78.3579 59.8147 79.8894 59.1813 81.7657 59.1813C83.626 59.1813 85.1495 59.8147 86.3363 61.0817C87.523 62.3486 88.1164 63.9603 88.1164 65.9168L88.1164 70.0543C88.1164 72.0269 87.523 73.6466 86.3363 74.9135C85.1495 76.1805 83.626 76.8139 81.7657 76.8139ZM79.5286 72.6283C80.0899 73.2537 80.8356 73.5664 81.7657 73.5664C82.6959 73.5664 83.4336 73.2537 83.9788 72.6283C84.5401 72.0028 84.8208 71.1449 84.8208 70.0543L84.8208 65.9168C84.8208 64.8263 84.5401 63.9763 83.9788 63.3669C83.4336 62.7415 82.6959 62.4288 81.7657 62.4288C80.8356 62.4288 80.0899 62.7415 79.5286 63.3669C78.9673 63.9763 78.6867 64.8263 78.6867 65.9168L78.6867 70.0543C78.6867 71.1449 78.9673 72.0028 79.5286 72.6283Z" fill="url(#paint46_linear_14499_48825)"/>
<path d="M94.7438 69.9785L92.6292 69.9785L99.3304 59.4056L101.445 59.4056L94.7438 69.9785ZM100.983 70.0976C100.169 70.0976 99.4743 69.8097 98.8985 69.2339C98.3327 68.6581 98.0497 67.9682 98.0497 67.164C98.0497 66.35 98.3327 65.66 98.8985 65.0941C99.4743 64.5183 100.169 64.2304 100.983 64.2304C101.787 64.2304 102.477 64.5183 103.053 65.0941C103.629 65.66 103.917 66.35 103.917 67.164C103.917 67.9682 103.629 68.6581 103.053 69.2339C102.477 69.8097 101.787 70.0976 100.983 70.0976ZM100.135 68.0128C100.373 68.2511 100.656 68.3702 100.983 68.3702C101.311 68.3702 101.589 68.2511 101.817 68.0128C102.046 67.7746 102.16 67.4916 102.16 67.164C102.16 66.8364 102.046 66.5535 101.817 66.3152C101.589 66.077 101.311 65.9578 100.983 65.9578C100.656 65.9578 100.373 66.077 100.135 66.3152C99.9062 66.5535 99.792 66.8364 99.792 67.164C99.792 67.4916 99.9062 67.7746 100.135 68.0128ZM93.0909 65.1537C92.2768 65.1537 91.5819 64.8658 91.0061 64.29C90.4402 63.7142 90.1573 63.0242 90.1573 62.2201C90.1573 61.406 90.4402 60.716 91.0061 60.1501C91.5819 59.5743 92.2768 59.2864 93.0909 59.2864C93.895 59.2864 94.585 59.5743 95.1608 60.1501C95.7366 60.716 96.0245 61.406 96.0245 62.2201C96.0245 63.0242 95.7366 63.7142 95.1608 64.29C94.585 64.8658 93.895 65.1537 93.0909 65.1537ZM92.2421 63.0689C92.4803 63.3071 92.7633 63.4263 93.0909 63.4263C93.4185 63.4263 93.6965 63.3071 93.9248 63.0689C94.1631 62.8306 94.2822 62.5477 94.2822 62.2201C94.2822 61.8925 94.1631 61.6095 93.9248 61.3712C93.6965 61.133 93.4185 61.0139 93.0909 61.0139C92.7633 61.0139 92.4803 61.133 92.2421 61.3712C92.0137 61.6095 91.8996 61.8925 91.8996 62.2201C91.8996 62.5477 92.0137 62.8306 92.2421 63.0689Z" fill="url(#paint47_linear_14499_48825)"/>
<path d="M90.3382 77.2881L90.3382 72.4083L91.8366 72.4083C92.5605 72.4083 93.1676 72.6419 93.6579 73.1093C94.1482 73.5767 94.3933 74.1563 94.3933 74.8482C94.3933 75.5401 94.1482 76.1197 93.6579 76.587C93.1676 77.0544 92.5605 77.2881 91.8366 77.2881L90.3382 77.2881ZM91.1424 76.5389L91.8366 76.5389C92.3497 76.5389 92.7667 76.3786 93.0874 76.0578C93.4128 75.7371 93.5754 75.3339 93.5754 74.8482C93.5754 74.3625 93.4128 73.9593 93.0874 73.6385C92.7667 73.3178 92.3497 73.1574 91.8366 73.1574L91.1424 73.1574L91.1424 76.5389ZM96.3985 77.3568C95.9907 77.3568 95.6471 77.256 95.3676 77.0544C95.0926 76.8528 94.946 76.5825 94.9277 76.2434L95.7112 76.2434C95.7662 76.5825 96.0022 76.752 96.4191 76.752C96.5887 76.752 96.7238 76.7222 96.8246 76.6626C96.9254 76.5985 96.9758 76.5069 96.9758 76.3877C96.9758 76.2686 96.9369 76.1747 96.859 76.1059C96.7811 76.0372 96.6505 75.9799 96.4672 75.9341L95.9036 75.7829C95.3171 75.6271 95.0239 75.2812 95.0239 74.7451C95.0239 74.4564 95.1407 74.225 95.3744 74.0509C95.6081 73.8722 95.9174 73.7829 96.3023 73.7829C96.6734 73.7829 96.9781 73.8768 97.2164 74.0647C97.4546 74.2525 97.5875 74.5022 97.615 74.8138L96.859 74.8138C96.7857 74.5297 96.5978 74.3877 96.2954 74.3877C96.1442 74.3877 96.0228 74.4198 95.9311 74.4839C95.8395 74.5435 95.7937 74.6282 95.7937 74.7382C95.7937 74.9352 95.9472 75.0727 96.2542 75.1506L96.8315 75.3018C97.4409 75.4576 97.7456 75.8035 97.7456 76.3396C97.7456 76.6649 97.6196 76.9169 97.3676 77.0956C97.1202 77.2698 96.7971 77.3568 96.3985 77.3568ZM100.065 77.3568C99.5468 77.3568 99.1161 77.185 98.7724 76.8413C98.4333 76.4931 98.2638 76.0693 98.2638 75.5698C98.2638 75.0704 98.4333 74.6489 98.7724 74.3052C99.1161 73.957 99.5468 73.7829 100.065 73.7829C100.509 73.7829 100.887 73.9066 101.199 74.154C101.515 74.4014 101.719 74.7199 101.81 75.1093L101.013 75.1093C100.944 74.9169 100.825 74.7634 100.656 74.6489C100.491 74.5297 100.294 74.4702 100.065 74.4702C99.7621 74.4702 99.5147 74.5733 99.3223 74.7794C99.1298 74.9856 99.0336 75.2491 99.0336 75.5698C99.0336 75.8906 99.1298 76.154 99.3223 76.3602C99.5147 76.5664 99.7621 76.6695 100.065 76.6695C100.294 76.6695 100.491 76.6122 100.656 76.4977C100.825 76.3786 100.944 76.2228 101.013 76.0303L101.81 76.0303C101.719 76.4198 101.515 76.7382 101.199 76.9857C100.887 77.2331 100.509 77.3568 100.065 77.3568ZM103.976 77.3225C103.628 77.3225 103.344 77.2262 103.124 77.0338C102.909 76.8368 102.801 76.5527 102.801 76.1815L102.801 74.5251L102.086 74.5251L102.086 73.8516L102.801 73.8516L102.801 72.8962L103.557 72.8962L103.557 73.8516L104.54 73.8516L104.54 74.5251L103.557 74.5251L103.557 76.0578C103.557 76.2686 103.603 76.4198 103.694 76.5114C103.786 76.5985 103.933 76.642 104.134 76.642C104.299 76.642 104.434 76.6191 104.54 76.5733L104.54 77.2468C104.375 77.2972 104.187 77.3225 103.976 77.3225ZM108.041 76.8413C107.698 77.185 107.272 77.3568 106.763 77.3568C106.254 77.3568 105.826 77.185 105.478 76.8413C105.134 76.4931 104.962 76.0693 104.962 75.5698C104.962 75.0704 105.134 74.6489 105.478 74.3052C105.826 73.957 106.254 73.7829 106.763 73.7829C107.272 73.7829 107.698 73.957 108.041 74.3052C108.39 74.6489 108.564 75.0704 108.564 75.5698C108.564 76.0693 108.39 76.4931 108.041 76.8413ZM106.763 76.6558C107.061 76.6558 107.306 76.5527 107.498 76.3465C107.695 76.1357 107.794 75.8768 107.794 75.5698C107.794 75.2628 107.695 75.0063 107.498 74.8001C107.306 74.5893 107.061 74.4839 106.763 74.4839C106.461 74.4839 106.211 74.5893 106.014 74.8001C105.821 75.0063 105.725 75.2628 105.725 75.5698C105.725 75.8768 105.821 76.1357 106.014 76.3465C106.211 76.5527 106.461 76.6558 106.763 76.6558ZM109.682 77.3431C109.522 77.3431 109.382 77.2858 109.263 77.1712C109.149 77.0521 109.091 76.9101 109.091 76.7451C109.091 76.5847 109.149 76.445 109.263 76.3259C109.382 76.2067 109.522 76.1472 109.682 76.1472C109.847 76.1472 109.987 76.2067 110.102 76.3259C110.221 76.445 110.28 76.5847 110.28 76.7451C110.28 76.9101 110.221 77.0521 110.102 77.1712C109.987 77.2858 109.847 77.3431 109.682 77.3431Z" fill="white"/>
<defs>
<filter id="filter0_f_14499_48825" x="38.9352" y="110.953" width="87.7199" height="47.601" filterUnits="userSpaceOnUse" color-interpolation-filters="sRGB">
<feFlood flood-opacity="0" result="BackgroundImageFix"/>
<feBlend mode="normal" in="SourceGraphic" in2="BackgroundImageFix" result="shape"/>
<feGaussianBlur stdDeviation="1.1455" result="effect1_foregroundBlur_14499_48825"/>
</filter>
<filter id="filter1_f_14499_48825" x="32.2412" y="105.226" width="99.6583" height="59.5394" filterUnits="userSpaceOnUse" color-interpolation-filters="sRGB">
<feFlood flood-opacity="0" result="BackgroundImageFix"/>
<feBlend mode="normal" in="SourceGraphic" in2="BackgroundImageFix" result="shape"/>
<feGaussianBlur stdDeviation="4.00924" result="effect1_foregroundBlur_14499_48825"/>
</filter>
<filter id="filter2_b_14499_48825" x="69.9394" y="72.7519" width="38.2408" height="38.2408" filterUnits="userSpaceOnUse" color-interpolation-filters="sRGB">
<feFlood flood-opacity="0" result="BackgroundImageFix"/>
<feGaussianBlur in="BackgroundImageFix" stdDeviation="7.1658"/>
<feComposite in2="SourceAlpha" operator="in" result="effect1_backgroundBlur_14499_48825"/>
<feBlend mode="normal" in="SourceGraphic" in2="effect1_backgroundBlur_14499_48825" result="shape"/>
</filter>
<filter id="filter3_b_14499_48825" x="67.7328" y="78.8484" width="48.2547" height="48.2549" filterUnits="userSpaceOnUse" color-interpolation-filters="sRGB">
<feFlood flood-opacity="0" result="BackgroundImageFix"/>
<feGaussianBlur in="BackgroundImageFix" stdDeviation="9.04236"/>
<feComposite in2="SourceAlpha" operator="in" result="effect1_backgroundBlur_14499_48825"/>
<feBlend mode="normal" in="SourceGraphic" in2="effect1_backgroundBlur_14499_48825" result="shape"/>
</filter>
<filter id="filter4_b_14499_48825" x="55.9614" y="81.6847" width="40.3171" height="40.3167" filterUnits="userSpaceOnUse" color-interpolation-filters="sRGB">
<feFlood flood-opacity="0" result="BackgroundImageFix"/>
<feGaussianBlur in="BackgroundImageFix" stdDeviation="7.55488"/>
<feComposite in2="SourceAlpha" operator="in" result="effect1_backgroundBlur_14499_48825"/>
<feBlend mode="normal" in="SourceGraphic" in2="effect1_backgroundBlur_14499_48825" result="shape"/>
</filter>
<filter id="filter5_b_14499_48825" x="60.633" y="74.901" width="30.3824" height="30.3825" filterUnits="userSpaceOnUse" color-interpolation-filters="sRGB">
<feFlood flood-opacity="0" result="BackgroundImageFix"/>
<feGaussianBlur in="BackgroundImageFix" stdDeviation="5.69354"/>
<feComposite in2="SourceAlpha" operator="in" result="effect1_backgroundBlur_14499_48825"/>
<feBlend mode="normal" in="SourceGraphic" in2="effect1_backgroundBlur_14499_48825" result="shape"/>
</filter>
<filter id="filter6_b_14499_48825" x="-18.2397" y="-32.7976" width="202.419" height="202.419" filterUnits="userSpaceOnUse" color-interpolation-filters="sRGB">
<feFlood flood-opacity="0" result="BackgroundImageFix"/>
<feGaussianBlur in="BackgroundImageFix" stdDeviation="34.6705"/>
<feComposite in2="SourceAlpha" operator="in" result="effect1_backgroundBlur_14499_48825"/>
<feBlend mode="normal" in="SourceGraphic" in2="effect1_backgroundBlur_14499_48825" result="shape"/>
</filter>
<linearGradient id="paint0_linear_14499_48825" x1="82.6921" y1="115.83" x2="82.1239" y2="177.297" gradientUnits="userSpaceOnUse">
<stop stop-color="white" stop-opacity="0"/>
<stop offset="1" stop-color="#D8DBE5"/>
</linearGradient>
<linearGradient id="paint1_linear_14499_48825" x1="48.4766" y1="122.428" x2="119.531" y2="164.964" gradientUnits="userSpaceOnUse">
<stop stop-color="#5F6688"/>
<stop offset="1" stop-color="#9AA0BC" stop-opacity="0.66"/>
</linearGradient>
<linearGradient id="paint2_linear_14499_48825" x1="48.4768" y1="122.428" x2="119.531" y2="164.964" gradientUnits="userSpaceOnUse">
<stop stop-color="#5F6688"/>
<stop offset="1" stop-color="#9AA0BC" stop-opacity="0.66"/>
</linearGradient>
<linearGradient id="paint3_linear_14499_48825" x1="114.214" y1="52.4096" x2="123.881" y2="52.4096" gradientUnits="userSpaceOnUse">
<stop stop-color="#545B7E"/>
<stop offset="1" stop-color="#979DBA"/>
</linearGradient>
<linearGradient id="paint4_linear_14499_48825" x1="48.9527" y1="92.3445" x2="54.753" y2="92.3445" gradientUnits="userSpaceOnUse">
<stop stop-color="#545B7E"/>
<stop offset="1" stop-color="#979DBA"/>
</linearGradient>
<linearGradient id="paint5_linear_14499_48825" x1="17.8068" y1="75.919" x2="50.192" y2="75.919" gradientUnits="userSpaceOnUse">
<stop stop-color="#979DBA"/>
<stop offset="1" stop-color="#D1D4E0"/>
</linearGradient>
<linearGradient id="paint6_linear_14499_48825" x1="93.9005" y1="43.0644" x2="90.2492" y2="75.243" gradientUnits="userSpaceOnUse">
<stop stop-color="#979DBA"/>
<stop offset="1" stop-color="#D1D4E0"/>
</linearGradient>
<linearGradient id="paint7_linear_14499_48825" x1="120.902" y1="44.537" x2="161.542" y2="44.537" gradientUnits="userSpaceOnUse">
<stop stop-color="#979DBA"/>
<stop offset="1" stop-color="#D1D4E0"/>
</linearGradient>
<linearGradient id="paint8_linear_14499_48825" x1="65.3947" y1="67.117" x2="70.5909" y2="67.117" gradientUnits="userSpaceOnUse">
<stop stop-color="#545B7E"/>
<stop offset="1" stop-color="#979DBA"/>
</linearGradient>
<linearGradient id="paint9_linear_14499_48825" x1="44.4621" y1="67.0349" x2="46.8202" y2="64.2259" gradientUnits="userSpaceOnUse">
<stop stop-color="#979DBA"/>
<stop offset="1" stop-color="#D1D4E0"/>
</linearGradient>
<linearGradient id="paint10_linear_14499_48825" x1="122.356" y1="69.0842" x2="128.066" y2="69.0842" gradientUnits="userSpaceOnUse">
<stop stop-color="#979DBA"/>
<stop offset="1" stop-color="#D1D4E0"/>
</linearGradient>
<linearGradient id="paint11_linear_14499_48825" x1="33.4925" y1="88.8367" x2="39.0097" y2="88.8367" gradientUnits="userSpaceOnUse">
<stop stop-color="#979DBA"/>
<stop offset="1" stop-color="#D1D4E0"/>
</linearGradient>
<linearGradient id="paint12_linear_14499_48825" x1="106.01" y1="35.0707" x2="111.569" y2="35.0707" gradientUnits="userSpaceOnUse">
<stop stop-color="#545B7E"/>
<stop offset="1" stop-color="#979DBA"/>
</linearGradient>
<linearGradient id="paint13_linear_14499_48825" x1="100.963" y1="71.0857" x2="106.051" y2="71.0857" gradientUnits="userSpaceOnUse">
<stop stop-color="#979DBA"/>
<stop offset="1" stop-color="#D1D4E0"/>
</linearGradient>
<linearGradient id="paint14_linear_14499_48825" x1="126.298" y1="29.9742" x2="131.132" y2="29.9742" gradientUnits="userSpaceOnUse">
<stop stop-color="#979DBA"/>
<stop offset="1" stop-color="#D1D4E0"/>
</linearGradient>
<linearGradient id="paint15_linear_14499_48825" x1="107.155" y1="87.112" x2="128.614" y2="87.112" gradientUnits="userSpaceOnUse">
<stop stop-color="#545B7E"/>
<stop offset="1" stop-color="#979DBA"/>
</linearGradient>
<linearGradient id="paint16_linear_14499_48825" x1="41.2263" y1="108.416" x2="79.8951" y2="108.416" gradientUnits="userSpaceOnUse">
<stop stop-color="#979DBA"/>
<stop offset="1" stop-color="#D1D4E0"/>
</linearGradient>
<linearGradient id="paint17_linear_14499_48825" x1="79.8952" y1="106.966" x2="124.364" y2="106.966" gradientUnits="userSpaceOnUse">
<stop stop-color="#979DBA"/>
<stop offset="1" stop-color="#D1D4E0"/>
</linearGradient>
<linearGradient id="paint18_linear_14499_48825" x1="84.2722" y1="91.8724" x2="93.8473" y2="91.8724" gradientUnits="userSpaceOnUse">
<stop stop-color="#F0F1F5"/>
<stop offset="1" stop-color="white"/>
</linearGradient>
<linearGradient id="paint19_linear_14499_48825" x1="86.8656" y1="91.9441" x2="91.7226" y2="92.7785" gradientUnits="userSpaceOnUse">
<stop stop-color="#545B7E"/>
<stop offset="1" stop-color="#979DBA"/>
</linearGradient>
<linearGradient id="paint20_linear_14499_48825" x1="86.8656" y1="91.9441" x2="91.7226" y2="92.7785" gradientUnits="userSpaceOnUse">
<stop stop-color="#545B7E"/>
<stop offset="1" stop-color="#979DBA"/>
</linearGradient>
<linearGradient id="paint21_linear_14499_48825" x1="85.8188" y1="102.976" x2="97.9014" y2="102.976" gradientUnits="userSpaceOnUse">
<stop stop-color="#F0F1F5"/>
<stop offset="1" stop-color="white"/>
</linearGradient>
<linearGradient id="paint22_linear_14499_48825" x1="89.5769" y1="104.328" x2="94.3131" y2="101.976" gradientUnits="userSpaceOnUse">
<stop stop-color="#545B7E"/>
<stop offset="1" stop-color="#979DBA"/>
</linearGradient>
<linearGradient id="paint23_linear_14499_48825" x1="71.0725" y1="101.843" x2="81.1675" y2="101.843" gradientUnits="userSpaceOnUse">
<stop stop-color="#F0F1F5"/>
<stop offset="1" stop-color="white"/>
</linearGradient>
<linearGradient id="paint24_linear_14499_48825" x1="73.9504" y1="101.385" x2="78.1949" y2="102.612" gradientUnits="userSpaceOnUse">
<stop stop-color="#545B7E"/>
<stop offset="1" stop-color="#979DBA"/>
</linearGradient>
<linearGradient id="paint25_linear_14499_48825" x1="72.0203" y1="90.0923" x2="79.6282" y2="90.0923" gradientUnits="userSpaceOnUse">
<stop stop-color="#F0F1F5"/>
<stop offset="1" stop-color="white"/>
</linearGradient>
<linearGradient id="paint26_linear_14499_48825" x1="74.4166" y1="89.1899" x2="77.0836" y2="91.1835" gradientUnits="userSpaceOnUse">
<stop stop-color="#545B7E"/>
<stop offset="1" stop-color="#979DBA"/>
</linearGradient>
<linearGradient id="paint27_linear_14499_48825" x1="41.2263" y1="125.814" x2="87.6289" y2="125.814" gradientUnits="userSpaceOnUse">
<stop stop-color="#D1D4E0"/>
<stop offset="1" stop-color="#F0F1F5"/>
</linearGradient>
<linearGradient id="paint28_linear_14499_48825" x1="86.662" y1="123.64" x2="124.364" y2="123.64" gradientUnits="userSpaceOnUse">
<stop stop-color="#D1D4E0"/>
<stop offset="1" stop-color="#F0F1F5"/>
</linearGradient>
<linearGradient id="paint29_linear_14499_48825" x1="23.8256" y1="122.917" x2="63.9738" y2="122.917" gradientUnits="userSpaceOnUse">
<stop stop-color="#545B7E"/>
<stop offset="1" stop-color="#979DBA"/>
</linearGradient>
<linearGradient id="paint30_linear_14499_48825" x1="100.944" y1="114.699" x2="141.638" y2="114.699" gradientUnits="userSpaceOnUse">
<stop stop-color="#545B7E"/>
<stop offset="1" stop-color="#979DBA"/>
</linearGradient>
<linearGradient id="paint31_linear_14499_48825" x1="77.4789" y1="12.4668" x2="87.6294" y2="12.4668" gradientUnits="userSpaceOnUse">
<stop stop-color="#545B7E"/>
<stop offset="1" stop-color="#979DBA"/>
</linearGradient>
<linearGradient id="paint32_linear_14499_48825" x1="82.7958" y1="11.2823" x2="91.013" y2="11.2823" gradientUnits="userSpaceOnUse">
<stop stop-color="#979DBA"/>
<stop offset="1" stop-color="#D1D4E0"/>
</linearGradient>
<linearGradient id="paint33_linear_14499_48825" x1="62.0109" y1="11.0139" x2="77.9618" y2="11.0139" gradientUnits="userSpaceOnUse">
<stop stop-color="#545B7E"/>
<stop offset="1" stop-color="#979DBA"/>
</linearGradient>
<linearGradient id="paint34_linear_14499_48825" x1="69.7447" y1="9.5824" x2="82.3647" y2="9.5824" gradientUnits="userSpaceOnUse">
<stop stop-color="#979DBA"/>
<stop offset="1" stop-color="#D1D4E0"/>
</linearGradient>
<linearGradient id="paint35_linear_14499_48825" x1="29.6262" y1="29.6455" x2="50.894" y2="29.6455" gradientUnits="userSpaceOnUse">
<stop stop-color="#545B7E"/>
<stop offset="1" stop-color="#979DBA"/>
</linearGradient>
<linearGradient id="paint36_linear_14499_48825" x1="22.8589" y1="34.219" x2="43.6434" y2="34.219" gradientUnits="userSpaceOnUse">
<stop stop-color="#979DBA"/>
<stop offset="1" stop-color="#D1D4E0"/>
</linearGradient>
<linearGradient id="paint37_linear_14499_48825" x1="46.0601" y1="19.4754" x2="55.7635" y2="19.4754" gradientUnits="userSpaceOnUse">
<stop stop-color="#545B7E"/>
<stop offset="1" stop-color="#979DBA"/>
</linearGradient>
<linearGradient id="paint38_linear_14499_48825" x1="40.1374" y1="21.8922" x2="53.4557" y2="21.8922" gradientUnits="userSpaceOnUse">
<stop stop-color="#979DBA"/>
<stop offset="1" stop-color="#D1D4E0"/>
</linearGradient>
<linearGradient id="paint39_linear_14499_48825" x1="51.8608" y1="19.8197" x2="66.3616" y2="19.8197" gradientUnits="userSpaceOnUse">
<stop stop-color="#979DBA"/>
<stop offset="1" stop-color="#D1D4E0"/>
</linearGradient>
<linearGradient id="paint40_linear_14499_48825" x1="31.5597" y1="37.3561" x2="105.997" y2="37.3561" gradientUnits="userSpaceOnUse">
<stop stop-color="#545B7E"/>
<stop offset="1" stop-color="#979DBA"/>
</linearGradient>
<linearGradient id="paint41_linear_14499_48825" x1="76.5121" y1="33.0059" x2="111.314" y2="33.0059" gradientUnits="userSpaceOnUse">
<stop stop-color="#979DBA"/>
<stop offset="1" stop-color="#D1D4E0"/>
</linearGradient>
<linearGradient id="paint42_linear_14499_48825" x1="28.1764" y1="55.4846" x2="80.3792" y2="55.4846" gradientUnits="userSpaceOnUse">
<stop stop-color="#979DBA"/>
<stop offset="1" stop-color="#D1D4E0"/>
</linearGradient>
<linearGradient id="paint43_linear_14499_48825" x1="26.726" y1="43.4011" x2="59.1112" y2="43.4011" gradientUnits="userSpaceOnUse">
<stop stop-color="#D1D4E0"/>
<stop offset="1" stop-color="#F0F1F5"/>
</linearGradient>
<linearGradient id="paint44_linear_14499_48825" x1="53.794" y1="20.6813" x2="111.314" y2="20.6813" gradientUnits="userSpaceOnUse">
<stop stop-color="#D1D4E0"/>
<stop offset="1" stop-color="#F0F1F5"/>
</linearGradient>
<linearGradient id="paint45_linear_14499_48825" x1="51.1035" y1="68.4119" x2="114.836" y2="68.4119" gradientUnits="userSpaceOnUse">
<stop stop-color="#0D1332"/>
<stop offset="1" stop-color="#545B7E"/>
</linearGradient>
<linearGradient id="paint46_linear_14499_48825" x1="61.1029" y1="68.0493" x2="90.1029" y2="68.0493" gradientUnits="userSpaceOnUse">
<stop stop-color="#F0F1F5"/>
<stop offset="1" stop-color="white"/>
</linearGradient>
<linearGradient id="paint47_linear_14499_48825" x1="89.7403" y1="64.4785" x2="104.74" y2="64.4785" gradientUnits="userSpaceOnUse">
<stop stop-color="#F0F1F5"/>
<stop offset="1" stop-color="white"/>
</linearGradient>
</defs>
</svg>
