<svg width="370" height="262" viewBox="0 0 370 262" fill="none" xmlns="http://www.w3.org/2000/svg">
<rect width="196.163" height="297.656" rx="21" transform="matrix(0.961262 -0.275637 0.71934 0.694658 0.438324 54.2388)" fill="url(#paint0_linear_1879_23743)"/>
<mask id="mask0_1879_23743" style="mask-type:alpha" maskUnits="userSpaceOnUse" x="10" y="4" width="384" height="253">
<rect width="196.163" height="297.656" rx="20.4692" transform="matrix(0.961262 -0.275637 0.71934 0.694658 0.438324 54.2388)" fill="white"/>
<rect width="196.163" height="297.656" rx="20.4692" transform="matrix(0.961262 -0.275637 0.71934 0.694658 0.438324 54.2388)" fill="white"/>
</mask>
<g mask="url(#mask0_1879_23743)">
<path fill-rule="evenodd" clip-rule="evenodd" d="M127.328 151.266C127.323 151.26 127.317 151.254 127.311 151.248L123.751 147.661C123.751 147.661 123.751 147.661 123.751 147.661C54.8206 78.1938 -87.249 40.6903 -188.857 67.4701C-188.861 67.4711 -188.865 67.4722 -188.869 67.4733C-291.935 94.6691 -315.539 177.01 -240.784 250.675L-298.425 266.614L-240.778 250.681C-168.853 321.576 -29.5911 358.473 70.8272 333.229L111.268 375.1L70.8352 333.227C175.254 306.99 200.4 225.073 127.328 151.266ZM245.372 122.346C362.308 242.149 320.852 374.486 151.724 416.986C151.721 416.987 151.719 416.988 151.716 416.988C-12.3209 458.221 -238.478 398.285 -355.935 282.516C-355.937 282.514 -355.939 282.512 -355.941 282.51C-477.72 162.499 -439.17 28.3963 -271.376 -15.8693L-271.364 -15.8725C-107.941 -58.9539 123.494 -0.233175 239.698 116.611C240.484 117.387 241.265 118.165 242.04 118.945L243.226 120.119C243.973 120.859 244.688 121.601 245.372 122.346Z" fill="url(#paint1_linear_1879_23743)"/>
<path fill-rule="evenodd" clip-rule="evenodd" d="M170.141 360.414C192.48 383.543 184.298 408.902 151.867 417.055C-12.1702 458.292 -238.333 398.355 -355.791 282.585C-355.793 282.583 -355.795 282.581 -355.797 282.579C-477.577 162.568 -439.027 28.4653 -271.233 -15.8004L-271.221 -15.8036C-107.798 -58.885 123.637 -0.164305 239.841 116.68C240.699 117.527 241.551 118.377 242.398 119.23C265.228 142.232 257.724 167.773 225.637 176.277C193.549 184.781 149.03 173.028 126.199 150.026C125.611 149.434 125.019 148.844 124.424 148.258C124.246 148.082 124.069 147.906 123.894 147.73C54.964 78.2628 -87.1056 40.7592 -188.714 67.5389C-188.718 67.54 -188.722 67.5411 -188.726 67.5422C-291.792 94.738 -315.395 177.079 -240.641 250.744L-298.216 266.665L-240.635 250.75C-168.709 321.645 -29.4478 358.542 70.9705 333.298C103.402 325.145 147.802 337.286 170.141 360.414Z" fill="url(#paint2_linear_1879_23743)"/>
</g>
<path fill-rule="evenodd" clip-rule="evenodd" d="M224.834 214.585C224.834 214.585 224.834 214.585 224.834 214.585L224.819 214.726C224.819 214.726 224.819 214.726 224.819 214.726C224.531 217.446 228.231 220.566 233.055 221.536C233.056 221.536 233.056 221.536 233.056 221.536C237.951 222.519 242.166 220.953 242.411 218.042L245.178 218.575L242.411 218.042C242.647 215.241 239.026 212.179 234.307 211.192L234.522 209.57L234.307 211.192C229.401 210.165 225.147 211.697 224.834 214.585ZM219.318 213.406C219.888 208.746 226.79 206.284 234.737 207.947C234.737 207.947 234.737 207.947 234.737 207.947C242.445 209.56 248.325 214.532 247.939 219.106C247.939 219.106 247.939 219.106 247.939 219.106C247.54 223.848 240.672 226.397 232.703 224.797L232.702 224.797C224.942 223.237 218.818 218.211 219.294 213.631C219.297 213.6 219.3 213.57 219.303 213.539L219.307 213.493C219.309 213.464 219.313 213.435 219.318 213.406Z" fill="url(#paint3_linear_1879_23743)"/>
<path fill-rule="evenodd" clip-rule="evenodd" d="M222.243 212.412C223.769 212.717 224.928 213.695 224.832 214.596L224.095 221.539L224.095 221.539L223.357 228.492L223.357 228.492L223.357 228.493C223.016 231.713 216.066 231.829 212.792 228.668L206.649 222.736C205.734 221.852 205.984 220.85 207.208 220.499C208.432 220.148 210.166 220.581 211.082 221.465L217.225 227.397C217.3 227.47 217.355 227.491 217.384 227.5C217.429 227.516 217.504 227.532 217.593 227.53C217.681 227.529 217.74 227.511 217.771 227.494C217.79 227.483 217.825 227.461 217.833 227.387L220.595 227.94C217.833 227.387 217.833 227.387 217.833 227.387L217.833 227.387L218.571 220.433L218.571 220.433L219.308 213.49C219.403 212.589 220.718 212.107 222.243 212.412Z" fill="white"/>
<path fill-rule="evenodd" clip-rule="evenodd" d="M231.763 208.992C231.881 208.096 233.213 207.628 234.737 207.947C242.445 209.56 248.325 214.532 247.939 219.106L247.939 219.106C247.539 223.848 240.672 226.397 232.703 224.797L232.702 224.797C224.942 223.237 218.818 218.211 219.294 213.631C219.297 213.597 219.3 213.564 219.304 213.531C219.399 212.63 220.713 212.147 222.238 212.452C223.764 212.757 224.923 213.735 224.828 214.636C224.826 214.659 224.823 214.682 224.821 214.705C224.821 214.712 224.82 214.719 224.819 214.726C224.531 217.446 228.231 220.566 233.055 221.536L233.056 221.536C237.951 222.519 242.166 220.953 242.411 218.042L245.175 218.574L242.411 218.042C242.647 215.241 239.026 212.179 234.307 211.192C232.784 210.873 231.644 209.888 231.763 208.992Z" fill="url(#paint4_linear_1879_23743)"/>
<path d="M205.711 219.054C207.315 218.594 207.642 217.282 206.443 216.123C205.243 214.965 202.971 214.399 201.367 214.859C199.763 215.319 199.435 216.63 200.635 217.789C201.834 218.947 204.107 219.513 205.711 219.054Z" fill="white"/>
<g opacity="0.3">
<path d="M316.608 189.714L324.87 200.744L328.767 199.627L320.506 188.596L316.608 189.714Z" fill="white"/>
<path d="M310.916 191.361L314.396 199.501L312.887 198.554C310.807 197.488 306.764 196.26 303.054 195.819L315.466 203.434L319.584 202.247L315.042 190.175L310.916 191.361Z" fill="white"/>
<path d="M305.979 193.735C305.101 193.171 304.25 193.171 303.412 193.383L297.371 195.115L297.534 195.335C303.089 194.811 308.256 195.905 312.019 197.922L305.979 193.735Z" fill="white"/>
<path d="M330.453 188.312C331.713 187.932 332.846 187.869 333.779 187.871L334.255 187.89L332.463 185.5C331.475 185.512 330.033 185.634 328.523 186.067C324.673 187.171 323.41 189.35 325.469 191.365C326.98 192.856 329.797 193.123 331.788 193.193C333.831 193.265 334.674 193.441 335.136 193.896C335.84 194.591 334.97 195.252 333.851 195.573C332.29 196.02 331.3 196.102 329.621 196.084L328.948 196.063L330.795 198.532C332.006 198.56 333.946 198.326 335.706 197.838C339.802 196.664 341.03 194.516 338.836 192.362C337.637 191.183 335.67 190.585 332.657 190.495C330.798 190.407 329.634 190.327 329.141 189.841C328.696 189.412 328.928 188.75 330.453 188.312Z" fill="white"/>
<path d="M342.209 182.387L339.199 183.25C338.264 183.519 337.759 183.902 338.045 184.693L342.065 195.821L346.157 194.648C346.157 194.648 345.506 193.183 345.368 192.861C345.816 192.732 349.796 191.597 350.363 191.434C350.852 191.762 352.44 192.846 352.44 192.846L356.055 191.809L342.209 182.387ZM344.3 190.424C344.006 189.739 342.862 187.092 342.862 187.092C342.87 187.126 342.561 186.403 342.36 185.957L343.545 186.772C343.545 186.772 346.846 189.025 347.537 189.496L344.3 190.424Z" fill="white"/>
</g>
<path d="M160.825 44.8885L160.826 44.889L159.917 44.011C158.389 42.5358 156.831 41.6705 155.202 41.2671L160.825 44.8885ZM160.825 44.8885L163.944 47.901L164.26 48.2063L163.838 48.3274L158.287 49.919L157.748 50.0737L157.485 49.6581C157.324 49.4028 157.127 49.1575 156.879 48.9181L149.628 41.9157L149.312 41.6105L149.734 41.4893C151.787 40.9008 153.574 40.8635 155.202 41.2671L160.825 44.8885ZM174.908 58.4885L175.224 58.7939L179.253 62.6842C180.781 64.16 181.318 65.3182 181.078 66.257L178.846 62.6842L174.908 58.4885ZM174.908 58.4885L174.485 58.6096ZM174.908 58.4885L174.485 58.6096ZM174.485 58.6096L168.902 60.2115L168.356 60.368L168.888 60.7104C169.239 60.9368 169.548 61.1529 169.795 61.3918L177.021 68.3698L177.337 68.675M174.485 58.6096L178.139 61.9312L180.846 66.0991L177.337 68.675M177.337 68.675L177.759 68.554ZM177.337 68.675L177.759 68.554ZM177.759 68.554C179.811 67.9657 180.839 67.1959 181.078 66.257L177.759 68.554ZM165.556 49.4572L165.24 49.152L164.817 49.2731L158.151 51.1847L157.952 51.2417L157.94 51.3886C157.884 52.0692 157.72 52.5753 157.371 52.9738C157.025 53.3682 156.479 53.6772 155.598 53.9351L149.105 55.797C147.853 56.1337 145.996 56.1359 143.765 55.4525L143.524 55.3788L143.326 55.4356L136.658 57.3476L136.236 57.4687L136.552 57.774L144.609 65.5549L144.925 65.8601L145.347 65.7389L152.049 63.8174L152.237 63.7633L152.258 63.626C152.455 62.3368 153.083 61.5341 154.592 61.1014L161.09 59.238L161.1 59.2351C162.001 58.9559 162.736 58.8703 163.5 58.9277C164.277 58.986 165.141 59.1958 166.321 59.575L166.567 59.6542L166.772 59.5957L173.507 57.6644L173.929 57.5433L173.613 57.238L165.556 49.4572ZM148.306 42.2939L147.99 41.9886L147.567 42.1097L142.152 43.6626L141.729 43.7838L142.045 44.089L151.713 53.4255L152.03 53.7308L152.452 53.6097L154.618 52.9885C155.483 52.7405 156.066 52.1304 156.244 51.4299C156.422 50.7302 156.202 49.9189 155.557 49.2963L148.306 42.2939ZM175.593 69.1738L176.015 69.0527L175.699 68.7474L168.473 61.7693C167.828 61.1462 166.653 60.6095 165.439 60.3088C164.225 60.0088 162.932 59.935 162.068 60.1828L159.902 60.8041L159.479 60.9251L159.796 61.2304L169.439 70.5426L169.755 70.8479L170.177 70.7267L175.593 69.1738ZM140.725 44.4677L140.408 44.1625L139.986 44.2836L134.57 45.8367L134.147 45.9579L134.463 46.2631L141.714 53.2655C142.329 53.8587 143.475 54.426 144.714 54.7352C145.949 55.043 147.27 55.0957 148.12 54.8518L150.287 54.2306L150.709 54.1095L150.393 53.8042L140.725 44.4677ZM158.476 61.6102L158.16 61.305L157.738 61.4262L155.572 62.047C154.722 62.2909 154.089 62.9035 153.912 63.6165C153.734 64.3319 154.019 65.1471 154.633 65.7396L161.859 72.7176L162.175 73.0228L162.597 72.9017L168.013 71.3489L168.435 71.2277L168.119 70.9225L158.476 61.6102ZM152.715 65.3457L152.454 64.9282L151.912 65.0834L146.327 66.6842L145.904 66.8053L146.22 67.1105L150.249 71.001C151.771 72.4704 153.294 73.3496 154.931 73.7548C156.562 74.1586 158.382 74.1105 160.432 73.5226L160.854 73.4015L160.538 73.0963L153.312 66.1182C153.069 65.883 152.89 65.6257 152.715 65.3457ZM141.23 54.8108L141.412 54.7586L141.438 54.6271L141.472 54.4543L141.237 54.3066C140.944 54.1227 140.658 53.8997 140.396 53.6454L140.395 53.6446L133.144 46.6422L132.828 46.3369L132.406 46.4581C130.356 47.0457 129.292 47.8244 129.053 48.7646C128.811 49.7076 129.39 50.8578 130.912 52.3278L134.941 56.2183L135.257 56.5235L135.679 56.4024L141.23 54.8108ZM133.038 47.0686L139.973 53.7657L132.305 46.89L132.299 46.8844L132.722 46.7633L133.038 47.0686Z" fill="#E6E6E6"/>
<path d="M160.825 44.8885L160.826 44.889L159.917 44.011C158.389 42.5358 156.831 41.6705 155.202 41.2671M160.825 44.8885L155.202 41.2671M160.825 44.8885L163.944 47.901L164.26 48.2063L163.838 48.3274L158.287 49.919L157.748 50.0737L157.485 49.6581C157.324 49.4028 157.127 49.1575 156.879 48.9181L149.628 41.9157L149.312 41.6105L149.734 41.4893C151.787 40.9008 153.574 40.8635 155.202 41.2671M174.908 58.4885L175.224 58.7939L179.253 62.6842C180.781 64.16 181.318 65.3182 181.078 66.257M174.908 58.4885L174.485 58.6096M174.908 58.4885L178.846 62.6842L181.078 66.257M181.078 66.257C180.839 67.1959 179.811 67.9657 177.759 68.554M181.078 66.257L177.759 68.554M174.485 58.6096L168.902 60.2115L168.356 60.368L168.888 60.7104C169.239 60.9368 169.548 61.1529 169.795 61.3918L177.021 68.3698L177.337 68.675M174.485 58.6096L178.139 61.9312L180.846 66.0991L177.337 68.675M177.337 68.675L177.759 68.554M153.912 63.6165C154.089 62.9035 154.722 62.2909 155.572 62.047L157.738 61.4262L158.16 61.305L158.476 61.6102L168.119 70.9225L168.435 71.2277L168.013 71.3489L162.597 72.9017L162.175 73.0228L161.859 72.7176L154.633 65.7396C154.019 65.1471 153.734 64.3319 153.912 63.6165ZM153.912 63.6165L154.394 63.7364M165.556 49.4572L165.24 49.152L164.817 49.2731L158.151 51.1847L157.952 51.2417L157.94 51.3886C157.884 52.0692 157.72 52.5753 157.371 52.9738C157.025 53.3682 156.479 53.6772 155.598 53.9351L149.105 55.797C147.853 56.1337 145.996 56.1359 143.765 55.4525L143.524 55.3788L143.326 55.4356L136.658 57.3476L136.236 57.4687L136.552 57.774L144.609 65.5549L144.925 65.8601L145.347 65.7389L152.049 63.8174L152.237 63.7633L152.258 63.626C152.455 62.3368 153.083 61.5341 154.592 61.1014L161.09 59.238L161.1 59.2351C162.001 58.9559 162.736 58.8703 163.5 58.9277C164.277 58.986 165.141 59.1958 166.321 59.575L166.567 59.6542L166.772 59.5957L173.507 57.6644L173.929 57.5433L173.613 57.238L165.556 49.4572ZM148.306 42.2939L147.99 41.9886L147.567 42.1097L142.152 43.6626L141.729 43.7838L142.045 44.089L151.713 53.4255L152.03 53.7308L152.452 53.6097L154.618 52.9885C155.483 52.7405 156.066 52.1304 156.244 51.4299C156.422 50.7302 156.202 49.9189 155.557 49.2963L148.306 42.2939ZM175.593 69.1738L176.015 69.0527L175.699 68.7474L168.473 61.7693C167.828 61.1462 166.653 60.6095 165.439 60.3088C164.225 60.0088 162.932 59.935 162.068 60.1828L159.902 60.8041L159.479 60.9251L159.796 61.2304L169.439 70.5426L169.755 70.8479L170.177 70.7267L175.593 69.1738ZM140.725 44.4677L140.408 44.1625L139.986 44.2836L134.57 45.8367L134.147 45.9579L134.463 46.2631L141.714 53.2655C142.329 53.8587 143.475 54.426 144.714 54.7352C145.949 55.043 147.27 55.0957 148.12 54.8518L150.287 54.2306L150.709 54.1095L150.393 53.8042L140.725 44.4677ZM152.715 65.3457L152.454 64.9282L151.912 65.0834L146.327 66.6842L145.904 66.8053L146.22 67.1105L150.249 71.001C151.771 72.4704 153.294 73.3496 154.931 73.7548C156.562 74.1586 158.382 74.1105 160.432 73.5226L160.854 73.4015L160.538 73.0963L153.312 66.1182C153.069 65.883 152.89 65.6257 152.715 65.3457ZM141.23 54.8108L141.412 54.7586L141.438 54.6271L141.472 54.4543L141.237 54.3066C140.944 54.1227 140.658 53.8997 140.396 53.6454L140.395 53.6446L133.144 46.6422L132.828 46.3369L132.406 46.4581C130.356 47.0457 129.292 47.8244 129.053 48.7646C128.811 49.7076 129.39 50.8578 130.912 52.3278L134.941 56.2183L135.257 56.5235L135.679 56.4024L141.23 54.8108ZM133.038 47.0686L139.973 53.7657L132.305 46.89L132.299 46.8844L132.722 46.7633L133.038 47.0686Z" stroke="#E6E6E6" stroke-width="0.87884"/>
<g opacity="0.3">
<g clip-path="url(#clip0_1879_23743)">
<path fill-rule="evenodd" clip-rule="evenodd" d="M184.332 51.8086C184.098 51.5827 184.048 51.401 183.978 50.9331C183.811 50.1022 183.528 49.6957 182.67 48.8668C181.813 48.0391 181.317 47.6935 180.081 47.1692C179.819 47.0495 179.108 46.7642 178.874 46.5383C178.407 46.0866 178.472 45.4821 179.112 45.2984C179.647 45.1451 180.23 45.1741 181.282 45.6533C182.886 46.2668 184.326 47.1236 185.417 48.1772C186.508 49.2308 187.174 50.4078 187.284 51.4498C187.324 52.0243 187.131 52.3724 186.596 52.5257C185.8 52.5592 184.8 52.2603 184.332 51.8086ZM190.531 52.1781C190.297 51.9522 190.248 51.7716 190.128 51.1219C189.814 49.7475 188.965 48.5264 187.718 47.3226C186.549 46.1933 185.059 45.1559 183.035 44.2718C182.062 43.8667 181.722 43.6713 181.488 43.4455C181.254 43.2196 181.136 42.5711 181.883 42.3569C182.631 42.1422 183.186 42.2762 184.762 42.9959C187.048 43.9998 188.722 45.0824 190.281 46.5877C191.918 48.1687 192.767 49.3898 193.231 51.3073C193.455 51.9254 193.495 52.4999 192.748 52.7141C191.921 52.853 190.999 52.6298 190.531 52.1781V52.1781ZM197.129 52.5314C196.739 52.1553 196.748 51.762 196.6 51.2184C196.03 49.3314 194.85 47.5226 193.135 45.866C191.342 44.1348 189.092 42.6315 186.204 41.3125C185.153 40.8333 184.735 40.5623 184.501 40.3364C184.19 40.0361 184.256 39.4311 185.003 39.2169C185.858 38.9718 186.538 39.3626 187.696 39.8112C190.322 41.0105 193.39 42.7672 195.807 45.1013C197.599 46.8325 198.936 48.7926 199.758 51.1916C200.159 52.2482 200.093 52.8532 199.452 53.0369C198.599 53.2816 197.597 52.9831 197.129 52.5314V52.5314ZM203.622 52.9163C203.309 52.6148 203.211 52.2519 203.142 51.784C202.561 49.2163 201.126 46.8949 198.397 44.2604C195.825 41.776 193.158 40.0027 189.139 38.1278C188.535 37.8131 187.825 37.5289 187.513 37.2274C187.045 36.7757 187.19 36.2464 187.831 36.0627C188.578 35.8485 189.21 36.057 190.602 36.7327C194.991 38.6964 198.232 40.8909 200.96 43.5255C203.767 46.2357 205.378 48.9957 206.165 51.8942C206.389 52.5123 206.693 53.2072 205.732 53.4827C205.198 53.636 204.167 53.4425 203.622 52.9163V52.9163Z" fill="#F0F1F5"/>
</g>
</g>
<defs>
<linearGradient id="paint0_linear_1879_23743" x1="138.593" y1="297.656" x2="53.8375" y2="-145.2" gradientUnits="userSpaceOnUse">
<stop/>
<stop offset="1" stop-color="#666666"/>
</linearGradient>
<linearGradient id="paint1_linear_1879_23743" x1="293.144" y1="286.405" x2="310.1" y2="133.129" gradientUnits="userSpaceOnUse">
<stop stop-opacity="0"/>
<stop offset="1" stop-color="#859BE0" stop-opacity="0.5"/>
</linearGradient>
<linearGradient id="paint2_linear_1879_23743" x1="262.706" y1="181.028" x2="126.88" y2="-17.1921" gradientUnits="userSpaceOnUse">
<stop stop-color="#7A92DB"/>
<stop offset="1" stop-color="#6BC9E0"/>
</linearGradient>
<linearGradient id="paint3_linear_1879_23743" x1="228.759" y1="208.335" x2="238.241" y2="227.881" gradientUnits="userSpaceOnUse">
<stop stop-color="white"/>
<stop offset="0.0001" stop-color="white"/>
<stop offset="1" stop-color="#78CFDE"/>
</linearGradient>
<linearGradient id="paint4_linear_1879_23743" x1="223.928" y1="211.905" x2="231.405" y2="207.645" gradientUnits="userSpaceOnUse">
<stop stop-color="#879EF7"/>
<stop offset="1" stop-color="#78BDCE" stop-opacity="0"/>
</linearGradient>
<clipPath id="clip0_1879_23743">
<rect width="28.7088" height="28.7088" fill="white" transform="matrix(0.961262 -0.275637 0.71934 0.694658 167.158 40.3348)"/>
</clipPath>
</defs>
</svg>
