<svg width="24" height="24" viewBox="0 0 24 24" fill="none" xmlns="http://www.w3.org/2000/svg">
<g clip-path="url(#clip0_34295_8621)">
<path d="M19.5 12.5C19.5 11.12 20.62 10 22 10V9C22 5 21 4 17 4H7C3 4 2 5 2 9V9.5C3.38 9.5 4.5 10.62 4.5 12C4.5 13.38 3.38 14.5 2 14.5V15C2 19 3 20 7 20H17C21 20 22 19 22 15C20.62 15 19.5 13.88 19.5 12.5Z" stroke="black" stroke-width="1.5" stroke-linecap="round" stroke-linejoin="round"/>
<path d="M10 4L10 20" stroke="black" stroke-width="1.5" stroke-linecap="round" stroke-linejoin="round" stroke-dasharray="6 6"/>
<path d="M15.024 9.32991L15.644 10.5799C15.704 10.6999 15.824 10.7899 15.954 10.8099L17.334 11.0099C17.674 11.0599 17.814 11.4799 17.564 11.7199L16.564 12.6899C16.464 12.7799 16.424 12.9199 16.444 13.0599L16.684 14.4299C16.744 14.7699 16.384 15.0299 16.084 14.8699L14.854 14.2199C14.734 14.1599 14.584 14.1599 14.464 14.2199L13.234 14.8699C12.924 15.0299 12.574 14.7699 12.634 14.4299L12.874 13.0599C12.894 12.9199 12.854 12.7899 12.754 12.6899L11.764 11.7199C11.514 11.4799 11.654 11.0599 11.994 11.0099L13.374 10.8099C13.514 10.7899 13.624 10.7099 13.684 10.5799L14.294 9.32991C14.434 9.01991 14.874 9.01991 15.024 9.32991Z" stroke="black" stroke-width="1.5" stroke-linecap="round" stroke-linejoin="round"/>
</g>
<defs>
<clipPath id="clip0_34295_8621">
<rect width="24" height="24" fill="white"/>
</clipPath>
</defs>
</svg>
