<svg width="24" height="24" viewBox="0 0 24 24" fill="none" xmlns="http://www.w3.org/2000/svg">
<path d="M22 10H2" stroke="black" stroke-width="1.5" stroke-miterlimit="10" stroke-linecap="round" stroke-linejoin="round"/>
<path d="M12.4517 20.4998H17.5617C21.1117 20.4998 22.0117 19.6198 22.0117 16.1098V7.88977C22.0117 4.70977 21.2717 3.68977 18.4817 3.52977C18.2017 3.51977 17.8917 3.50977 17.5617 3.50977H6.45172C2.90172 3.50977 2.00171 4.38977 2.00171 7.89977V12.3098" stroke="black" stroke-width="1.5" stroke-linecap="round" stroke-linejoin="round"/>
<path d="M18 16H14" stroke="black" stroke-width="1.5" stroke-miterlimit="10" stroke-linecap="round" stroke-linejoin="round"/>
<path d="M10 18C10 18.75 9.78998 19.46 9.41998 20.06C8.72998 21.22 7.46 22 6 22C4.54 22 3.27002 21.22 2.58002 20.06C2.21002 19.46 2 18.75 2 18C2 15.79 3.79 14 6 14C8.21 14 10 15.79 10 18Z" stroke="#00CC78" stroke-width="1.5" stroke-miterlimit="10" stroke-linecap="round" stroke-linejoin="round"/>
<path d="M4.44141 17.9995L5.4314 18.9895L7.5614 17.0195" stroke="#00CC78" stroke-width="1.5" stroke-linecap="round" stroke-linejoin="round"/>
</svg>
