<svg width="82" height="68" viewBox="0 0 82 68" fill="none" xmlns="http://www.w3.org/2000/svg">
<path d="M40.1583 10.3634C33.7726 10.3634 28.4325 14.8403 27.1055 20.8266" stroke="url(#paint0_linear_13997_87681)" stroke-width="4" stroke-linecap="round"/>
<path fill-rule="evenodd" clip-rule="evenodd" d="M40.2075 5.17871C29.9552 5.17871 21.8081 11.2044 21.7811 20.3625C21.7814 20.3777 21.7815 20.393 21.7815 20.4083C21.7815 21.789 20.6622 22.9083 19.2815 22.9083C12.3599 22.9083 6.66797 28.6406 6.66797 35.8125C6.66797 42.9844 12.3599 48.7167 19.2815 48.7167L19.3118 48.7169H30.4884C31.8691 48.7169 32.9884 49.8362 32.9884 51.2169C32.9884 52.5976 31.8691 53.7169 30.4884 53.7169H19.2812L19.2485 53.7167C9.49149 53.6986 1.66797 45.6446 1.66797 35.8125C1.66797 26.7797 8.27135 19.2475 16.9108 18.0687C18.2098 6.56999 29.0598 0.178711 40.2075 0.178711C52.093 0.178711 60.9209 9.09346 61.3237 21.0054C69.216 22.2157 75.2606 29.0347 75.2606 37.2654C75.2606 46.3351 67.9211 53.6905 58.8576 53.7163C58.8416 53.7166 58.8257 53.7168 58.8096 53.7168H47.6025C46.2218 53.7168 45.1025 52.5975 45.1025 51.2168C45.1025 49.8361 46.2218 48.7168 47.6025 48.7168H58.7654C58.7801 48.7165 58.7948 48.7164 58.8096 48.7164C65.1338 48.7164 70.2606 43.5896 70.2606 37.2654C70.2606 30.9412 65.1338 25.8145 58.8096 25.8145C57.4289 25.8145 56.3096 24.6952 56.3096 23.3145C56.3096 23.2683 56.3108 23.2224 56.3133 23.1768C56.3078 23.0854 56.3073 22.9927 56.312 22.899C56.826 12.6172 49.7709 5.17871 40.2075 5.17871Z" fill="url(#paint1_linear_13997_87681)"/>
<path fill-rule="evenodd" clip-rule="evenodd" d="M21.7811 20.3625C21.8081 11.2044 29.9552 5.17871 40.2075 5.17871C46.0157 5.17871 50.7908 7.89624 53.5944 12.1848C54.35 13.3404 55.8993 13.6648 57.0549 12.9093C58.2106 12.1538 58.535 10.6045 57.7795 9.44879C54.0341 3.71975 47.6698 0.178711 40.2075 0.178711C29.0598 0.178711 18.2098 6.56999 16.9108 18.0687C8.27135 19.2475 1.66797 26.7797 1.66797 35.8125C1.66797 45.6446 9.49149 53.6986 19.2485 53.7167L19.2812 53.7169H30.4884C31.8691 53.7169 32.9884 52.5976 32.9884 51.2169C32.9884 49.8362 31.8691 48.7169 30.4884 48.7169H19.3118L19.2815 48.7167C12.3599 48.7167 6.66797 42.9844 6.66797 35.8125C6.66797 28.6406 12.3599 22.9083 19.2815 22.9083C20.6622 22.9083 21.7815 21.789 21.7815 20.4083C21.7815 20.393 21.7814 20.3777 21.7811 20.3625Z" fill="url(#paint2_linear_13997_87681)"/>
<path d="M39.0465 43.9111V57.862C39.0465 58.1831 39.3068 58.4433 39.6278 58.4433H45.2C45.7178 58.4433 45.9772 59.0695 45.611 59.4357L39.4576 65.5891C39.2306 65.8161 38.8625 65.8161 38.6355 65.5891L32.6523 59.6059" stroke="#3D3D3D" stroke-width="3.5" stroke-linecap="round" stroke-linejoin="round"/>
<circle cx="64" cy="17.9404" r="14" fill="white" stroke="url(#paint3_linear_13997_87681)" stroke-width="5"/>
<circle cx="63.8957" cy="22.4624" r="1.46213" fill="#292929"/>
<path d="M63.9531 13.3127V18.3764" stroke="#292929" stroke-width="3" stroke-linecap="round"/>
<path d="M70.6363 5.56834C68.6799 4.52916 66.4478 3.94043 64.0781 3.94043C56.3461 3.94043 50.0781 10.2084 50.0781 17.9404C50.0781 25.6724 56.3461 31.9404 64.0781 31.9404C69.8442 31.9404 74.7961 28.4546 76.9415 23.4753" stroke="url(#paint4_linear_13997_87681)" stroke-width="5" stroke-linecap="round"/>
<defs>
<linearGradient id="paint0_linear_13997_87681" x1="41.3706" y1="9.20077" x2="24.8038" y2="23.7331" gradientUnits="userSpaceOnUse">
<stop stop-color="#758CD2"/>
<stop offset="1" stop-color="#3C69F3" stop-opacity="0"/>
</linearGradient>
<linearGradient id="paint1_linear_13997_87681" x1="35.7936" y1="-21.6553" x2="58.0977" y2="53.8264" gradientUnits="userSpaceOnUse">
<stop stop-color="white" stop-opacity="0.46"/>
<stop offset="1" stop-color="#78B9CF"/>
</linearGradient>
<linearGradient id="paint2_linear_13997_87681" x1="47.4486" y1="7.95521" x2="38.6037" y2="55.3105" gradientUnits="userSpaceOnUse">
<stop stop-color="#758CD2"/>
<stop offset="1" stop-color="#78B9CF"/>
</linearGradient>
<linearGradient id="paint3_linear_13997_87681" x1="66.2791" y1="3.28927" x2="75.9579" y2="20.9898" gradientUnits="userSpaceOnUse">
<stop stop-color="white"/>
<stop offset="1" stop-color="#FCC773"/>
</linearGradient>
<linearGradient id="paint4_linear_13997_87681" x1="50.0781" y1="10.5028" x2="76.7656" y2="24.9403" gradientUnits="userSpaceOnUse">
<stop stop-color="#FAA219"/>
<stop offset="1" stop-color="#FCC773"/>
</linearGradient>
</defs>
</svg>
