
<svg width="64" height="24" viewBox="0 0 64 24" fill="none" xmlns="http://www.w3.org/2000/svg">
<path d="M24.1598 3.31058L16.8545 20.7164H12.0878L8.50938 6.82146C8.29332 5.97074 8.10428 5.64666 7.44261 5.29557C6.36234 4.70143 4.56639 4.16129 3 3.8102L3.10803 3.31058H10.7779C11.7502 3.31058 12.6279 3.95874 12.8575 5.07952L14.7479 15.153L19.4336 3.31058H24.1733H24.1598ZM42.8215 15.0315C42.835 10.4404 36.4614 10.1838 36.5154 8.13128C36.5154 7.51013 37.123 6.84846 38.4194 6.67292C39.0675 6.5919 40.85 6.52438 42.862 7.45611L43.6452 3.76969C42.5649 3.37809 41.1605 3 39.4321 3C34.976 3 31.8432 5.36309 31.8162 8.75244C31.7892 11.2641 34.0578 12.6549 35.7592 13.4921C37.5146 14.3428 38.0953 14.8965 38.0953 15.6527C38.0953 16.8275 36.6909 17.3406 35.3946 17.3541C33.126 17.3946 31.8162 16.7464 30.7629 16.2603L29.9527 20.0818C31.006 20.5679 32.9505 20.9865 34.9625 21C39.6887 21 42.7944 18.6639 42.8079 15.045M54.5694 20.7299H58.7419L55.1095 3.31058H51.2611C50.3969 3.31058 49.6677 3.8102 49.3436 4.5934L42.5919 20.7299H47.3181L48.2633 18.1373H54.0428L54.5829 20.7299H54.5694ZM49.5461 14.5589L51.9227 8.02326L53.2866 14.5589H49.5461ZM30.6009 3.31058L26.874 20.7164H22.3638L26.1043 3.31058H30.6144H30.6009Z" fill="white"/>
</svg>